<?xml version="1.0" encoding="UTF-8"?>
<svg id="_レイヤー_2" data-name="レイヤー 2" xmlns="http://www.w3.org/2000/svg" viewBox="0 0 825.97 498.92">
  <defs>
    <style>
      .cls-1 {
        fill: none;
      }

      .cls-2 {
        fill: #fff;
        stroke: #fff;
        stroke-linecap: round;
        stroke-linejoin: round;
        stroke-width: 1.75px;
      }

      .cls-3 {
        fill: #231815;
      }
    </style>
  </defs>
  <g id="_レイヤー_2-2" data-name="レイヤー 2">
    <g>
      <path class="cls-3" d="m464.67,63.41h1.62v5.52c.41-.79,1.27-1.55,2.97-1.55,2.36,0,3.84,1.94,3.84,4.7s-1.44,5.09-4.08,5.09c-1.49,0-2.29-.55-2.75-1.46,0,.48-.04.98-.07,1.24h-1.55c.02-1.05.02-2.1.02-3.14v-10.4Zm4.23,5.33c-1.99,0-2.69,1.33-2.69,3.56,0,1.96.63,3.5,2.6,3.5,1.66,0,2.64-1.42,2.64-3.69,0-2.03-.92-3.38-2.55-3.38Z"/>
      <path class="cls-3" d="m476.16,72.56c.02,1.9.98,3.27,2.56,3.27,1.48,0,1.96-.77,2.25-1.46h1.64c-.37,1.2-1.38,2.8-3.95,2.8-2.93,0-4.13-2.4-4.13-4.8,0-2.79,1.4-5,4.24-5,3.03,0,4,2.42,4,4.41,0,.3,0,.54-.02.77h-6.6Zm4.98-1.13c-.02-1.55-.79-2.79-2.38-2.79s-2.38,1.14-2.55,2.79h4.93Z"/>
      <path class="cls-3" d="m492.64,63.41v10.9c0,.87,0,1.73.02,2.64h-1.55c-.06-.24-.09-.96-.09-1.33-.46.98-1.4,1.55-2.93,1.55-2.42,0-3.89-1.96-3.89-4.8s1.6-5,4.19-5c1.66,0,2.4.66,2.64,1.2v-5.17h1.62Zm-4.22,12.4c2.18,0,2.67-1.62,2.67-3.67s-.44-3.39-2.55-3.39c-1.66,0-2.67,1.31-2.67,3.58s1.07,3.49,2.55,3.49Z"/>
      <path class="cls-3" d="m500.05,70.15c0-1.31-.02-2.05-.02-2.55h1.59c.02.26.06,1,.06,1.9.48-1.25,1.59-2.08,3.14-2.12v1.61c-1.92.06-3.14,1.07-3.14,3.43v4.54h-1.62v-6.81Z"/>
      <path class="cls-3" d="m514.58,72.25c0,2.71-1.55,4.93-4.41,4.93-2.67,0-4.3-2.07-4.3-4.89s1.59-4.91,4.41-4.91c2.6,0,4.3,1.94,4.3,4.87Zm-7.05.02c0,2.07,1.03,3.56,2.71,3.56s2.67-1.42,2.67-3.54-.96-3.56-2.71-3.56-2.67,1.42-2.67,3.54Z"/>
      <path class="cls-3" d="m524.73,72.25c0,2.71-1.55,4.93-4.41,4.93-2.67,0-4.3-2.07-4.3-4.89s1.59-4.91,4.41-4.91c2.6,0,4.3,1.94,4.3,4.87Zm-7.05.02c0,2.07,1.03,3.56,2.71,3.56s2.67-1.42,2.67-3.54-.96-3.56-2.71-3.56-2.67,1.42-2.67,3.54Z"/>
      <path class="cls-3" d="m526.83,70.02c0-.81,0-1.66-.02-2.42h1.55c.04.28.07.96.07,1.44.42-.83,1.24-1.66,2.71-1.66,1.33,0,2.23.66,2.6,1.68.5-.89,1.38-1.68,2.97-1.68s2.95.9,2.95,3.43v6.14h-1.59v-5.96c0-1.07-.39-2.21-1.84-2.21-1.53,0-2.2,1.14-2.2,2.8v5.37h-1.59v-5.9c0-1.2-.33-2.27-1.81-2.27s-2.21,1.22-2.21,2.99v5.18h-1.6v-6.94Z"/>
      <path class="cls-3" d="m491.83,83.12h-5.07c-.11.98-.41,2.82-.54,3.47.52-.57,1.31-.98,2.55-.98,2.21,0,3.65,1.55,3.65,4.04,0,2.36-1.24,4.43-4.19,4.43-2.16,0-3.73-1.2-4.04-3.27h1.64c.28,1.11,1.07,1.92,2.45,1.92,1.66,0,2.47-1.18,2.47-2.97,0-1.57-.65-2.77-2.34-2.77-1.46,0-2.07.61-2.49,1.59l-1.51-.28c.37-1.59.83-5.05,1-6.59h6.66l-.24,1.4Z"/>
      <path class="cls-3" d="m494.28,93.86v-2.73h1.7v2.73h-1.7Z"/>
      <path class="cls-3" d="m497.84,93.86v-.09c0-1.77,1.14-3.58,3.65-5.48,1.96-1.48,2.47-1.96,2.47-3.3,0-1.22-.65-2.12-2.1-2.12s-2.16.76-2.42,2.25h-1.59c.22-2.07,1.53-3.62,4-3.62,2.73,0,3.78,1.75,3.78,3.45,0,1.84-.78,2.56-3.03,4.3-1.68,1.29-2.56,2.25-2.86,3.19h6.36l-.24,1.42h-8.04Z"/>
      <path class="cls-3" d="m515.31,83.12h-5.07c-.11.98-.41,2.82-.54,3.47.52-.57,1.31-.98,2.55-.98,2.21,0,3.65,1.55,3.65,4.04,0,2.36-1.24,4.43-4.19,4.43-2.16,0-3.73-1.2-4.04-3.27h1.64c.28,1.11,1.07,1.92,2.45,1.92,1.66,0,2.47-1.18,2.47-2.97,0-1.57-.65-2.77-2.34-2.77-1.46,0-2.07.61-2.49,1.59l-1.51-.28c.37-1.59.83-5.05,1-6.59h6.66l-.24,1.4Z"/>
      <path class="cls-3" d="m519.76,84.51v9.67c0,2.58-.61,3.54-2.64,3.54-.11,0-.48-.02-.63-.04v-1.37c.11.02.26.02.35.02,1.13,0,1.29-.57,1.29-1.88v-9.94h1.62Zm-1.62-2.18v-2.01h1.62v2.01h-1.62Z"/>
    </g>
    <g>
      <path class="cls-3" d="m606.41,289.85h1.62v5.52c.41-.79,1.27-1.55,2.97-1.55,2.36,0,3.84,1.94,3.84,4.7s-1.44,5.09-4.08,5.09c-1.49,0-2.29-.55-2.75-1.46,0,.48-.04.98-.07,1.24h-1.55c.02-1.05.02-2.1.02-3.14v-10.4Zm4.22,5.33c-1.99,0-2.69,1.33-2.69,3.56,0,1.96.63,3.51,2.6,3.51,1.66,0,2.64-1.42,2.64-3.69,0-2.03-.92-3.38-2.55-3.38Z"/>
      <path class="cls-3" d="m617.9,299c.02,1.9.98,3.27,2.56,3.27,1.48,0,1.96-.78,2.25-1.46h1.64c-.37,1.2-1.38,2.8-3.95,2.8-2.93,0-4.13-2.4-4.13-4.8,0-2.79,1.4-5,4.24-5,3.03,0,4,2.42,4,4.41,0,.3,0,.54-.02.77h-6.6Zm4.98-1.12c-.02-1.55-.79-2.79-2.38-2.79s-2.38,1.14-2.55,2.79h4.93Z"/>
      <path class="cls-3" d="m634.37,289.85v10.9c0,.87,0,1.73.02,2.64h-1.55c-.06-.24-.09-.96-.09-1.33-.46.98-1.4,1.55-2.93,1.55-2.42,0-3.89-1.96-3.89-4.8s1.6-5,4.19-5c1.66,0,2.4.66,2.64,1.2v-5.17h1.62Zm-4.22,12.4c2.18,0,2.67-1.62,2.67-3.67s-.44-3.39-2.55-3.39c-1.66,0-2.67,1.31-2.67,3.58s1.07,3.49,2.55,3.49Z"/>
      <path class="cls-3" d="m641.78,296.58c0-1.31-.02-2.05-.02-2.55h1.59c.02.26.06,1,.06,1.9.48-1.25,1.59-2.08,3.14-2.12v1.6c-1.92.06-3.14,1.07-3.14,3.43v4.54h-1.62v-6.81Z"/>
      <path class="cls-3" d="m656.32,298.69c0,2.71-1.55,4.93-4.41,4.93-2.67,0-4.3-2.07-4.3-4.89s1.59-4.91,4.41-4.91c2.6,0,4.3,1.94,4.3,4.87Zm-7.05.02c0,2.07,1.03,3.56,2.71,3.56s2.67-1.42,2.67-3.54-.96-3.56-2.71-3.56-2.67,1.42-2.67,3.54Z"/>
      <path class="cls-3" d="m666.46,298.69c0,2.71-1.55,4.93-4.41,4.93-2.67,0-4.3-2.07-4.3-4.89s1.59-4.91,4.41-4.91c2.6,0,4.3,1.94,4.3,4.87Zm-7.05.02c0,2.07,1.03,3.56,2.71,3.56s2.67-1.42,2.67-3.54-.96-3.56-2.71-3.56-2.67,1.42-2.67,3.54Z"/>
      <path class="cls-3" d="m668.56,296.45c0-.81,0-1.66-.02-2.42h1.55c.04.28.07.96.07,1.44.42-.83,1.24-1.66,2.71-1.66,1.33,0,2.23.66,2.6,1.68.5-.89,1.38-1.68,2.97-1.68s2.95.9,2.95,3.43v6.14h-1.59v-5.96c0-1.07-.39-2.21-1.84-2.21-1.53,0-2.2,1.14-2.2,2.8v5.37h-1.59v-5.9c0-1.2-.33-2.27-1.81-2.27s-2.21,1.22-2.21,2.99v5.18h-1.6v-6.94Z"/>
      <path class="cls-3" d="m633.57,309.56h-5.07c-.11.98-.41,2.82-.54,3.47.52-.57,1.31-.98,2.55-.98,2.21,0,3.65,1.55,3.65,4.04,0,2.36-1.24,4.43-4.19,4.43-2.16,0-3.73-1.2-4.04-3.27h1.64c.28,1.11,1.07,1.92,2.45,1.92,1.66,0,2.47-1.18,2.47-2.97,0-1.57-.65-2.77-2.34-2.77-1.46,0-2.07.61-2.49,1.59l-1.51-.28c.37-1.59.83-5.05,1-6.59h6.66l-.24,1.4Z"/>
      <path class="cls-3" d="m636.02,320.3v-2.73h1.7v2.73h-1.7Z"/>
      <path class="cls-3" d="m639.58,320.3v-.09c0-1.77,1.14-3.58,3.65-5.48,1.96-1.48,2.47-1.96,2.47-3.3,0-1.22-.65-2.12-2.1-2.12s-2.16.76-2.42,2.25h-1.59c.22-2.07,1.53-3.62,4-3.62,2.73,0,3.78,1.75,3.78,3.45,0,1.84-.78,2.56-3.03,4.3-1.68,1.29-2.56,2.25-2.86,3.19h6.36l-.24,1.42h-8.04Z"/>
      <path class="cls-3" d="m657.04,309.56h-5.07c-.11.98-.41,2.82-.54,3.47.52-.57,1.31-.98,2.55-.98,2.21,0,3.65,1.55,3.65,4.04,0,2.36-1.24,4.43-4.19,4.43-2.16,0-3.73-1.2-4.04-3.27h1.64c.28,1.11,1.07,1.92,2.45,1.92,1.66,0,2.47-1.18,2.47-2.97,0-1.57-.65-2.77-2.34-2.77-1.46,0-2.07.61-2.49,1.59l-1.51-.28c.37-1.59.83-5.05,1-6.59h6.66l-.24,1.4Z"/>
      <path class="cls-3" d="m661.49,310.94v9.67c0,2.58-.61,3.54-2.64,3.54-.11,0-.48-.02-.63-.04v-1.36c.11.02.26.02.35.02,1.13,0,1.29-.57,1.29-1.88v-9.94h1.62Zm-1.62-2.18v-2.01h1.62v2.01h-1.62Z"/>
    </g>
    <g>
      <path class="cls-3" d="m454.15,254.89h1.62v5.52c.41-.79,1.27-1.55,2.97-1.55,2.36,0,3.84,1.94,3.84,4.7s-1.44,5.09-4.08,5.09c-1.49,0-2.29-.55-2.75-1.46,0,.48-.04.98-.07,1.24h-1.55c.02-1.05.02-2.1.02-3.14v-10.4Zm4.22,5.33c-1.99,0-2.69,1.33-2.69,3.56,0,1.96.63,3.5,2.6,3.5,1.66,0,2.64-1.42,2.64-3.69,0-2.03-.92-3.38-2.55-3.38Z"/>
      <path class="cls-3" d="m465.64,264.04c.02,1.9.98,3.27,2.56,3.27,1.48,0,1.96-.77,2.25-1.46h1.64c-.37,1.2-1.38,2.8-3.95,2.8-2.93,0-4.13-2.4-4.13-4.8,0-2.79,1.4-5,4.24-5,3.03,0,4,2.42,4,4.41,0,.3,0,.54-.02.77h-6.6Zm4.98-1.13c-.02-1.55-.79-2.79-2.38-2.79s-2.38,1.14-2.55,2.79h4.93Z"/>
      <path class="cls-3" d="m482.11,254.89v10.9c0,.87,0,1.73.02,2.64h-1.55c-.06-.24-.09-.96-.09-1.33-.46.98-1.4,1.55-2.93,1.55-2.42,0-3.89-1.96-3.89-4.8s1.6-5,4.19-5c1.66,0,2.4.66,2.64,1.2v-5.17h1.62Zm-4.22,12.4c2.18,0,2.67-1.62,2.67-3.67s-.44-3.39-2.55-3.39c-1.66,0-2.67,1.31-2.67,3.58s1.07,3.49,2.55,3.49Z"/>
      <path class="cls-3" d="m489.53,261.63c0-1.31-.02-2.05-.02-2.55h1.59c.02.26.06,1,.06,1.9.48-1.25,1.59-2.08,3.14-2.12v1.61c-1.92.06-3.14,1.07-3.14,3.43v4.54h-1.62v-6.81Z"/>
      <path class="cls-3" d="m504.06,263.73c0,2.71-1.55,4.93-4.41,4.93-2.67,0-4.3-2.07-4.3-4.89s1.59-4.91,4.41-4.91c2.6,0,4.3,1.94,4.3,4.87Zm-7.05.02c0,2.07,1.03,3.56,2.71,3.56s2.67-1.42,2.67-3.54-.96-3.56-2.71-3.56-2.67,1.42-2.67,3.54Z"/>
      <path class="cls-3" d="m514.2,263.73c0,2.71-1.55,4.93-4.41,4.93-2.67,0-4.3-2.07-4.3-4.89s1.59-4.91,4.41-4.91c2.6,0,4.3,1.94,4.3,4.87Zm-7.05.02c0,2.07,1.03,3.56,2.71,3.56s2.67-1.42,2.67-3.54-.96-3.56-2.71-3.56-2.67,1.42-2.67,3.54Z"/>
      <path class="cls-3" d="m516.3,261.5c0-.81,0-1.66-.02-2.42h1.55c.04.28.07.96.07,1.44.42-.83,1.24-1.66,2.71-1.66,1.33,0,2.23.66,2.6,1.68.5-.89,1.38-1.68,2.97-1.68s2.95.9,2.95,3.43v6.14h-1.59v-5.96c0-1.07-.39-2.21-1.84-2.21-1.53,0-2.2,1.14-2.2,2.8v5.37h-1.59v-5.9c0-1.2-.33-2.27-1.81-2.27s-2.21,1.22-2.21,2.99v5.18h-1.6v-6.94Z"/>
      <path class="cls-3" d="m484.71,275.84c-.24-.87-.81-1.53-2.05-1.53-2.05,0-2.71,1.92-2.77,4.48.5-.87,1.4-1.7,3.08-1.7,2.34,0,3.73,1.72,3.73,4.04s-1.42,4.43-4.1,4.43c-3.36,0-4.33-2.71-4.33-6.12s1.09-6.46,4.46-6.46c2.47,0,3.43,1.6,3.58,2.86h-1.61Zm.31,5.42c0-1.37-.52-2.8-2.38-2.8-1.51,0-2.56.96-2.56,2.79,0,1,.5,2.95,2.51,2.95,1.75,0,2.44-1.42,2.44-2.93Z"/>
      <path class="cls-3" d="m488.51,285.34v-2.73h1.7v2.73h-1.7Z"/>
      <path class="cls-3" d="m500.63,279.18c0,3.01-.85,6.38-4.24,6.38s-4.24-3.15-4.24-6.29,1.01-6.29,4.3-6.29,4.19,3.1,4.19,6.2Zm-6.77.09c0,2.31.41,4.91,2.55,4.91s2.53-2.47,2.53-4.98c0-2.34-.41-4.83-2.47-4.83s-2.6,2.23-2.6,4.91Z"/>
      <path class="cls-3" d="m504.56,275.99v9.67c0,2.58-.61,3.54-2.64,3.54-.11,0-.48-.02-.63-.04v-1.37c.11.02.26.02.35.02,1.13,0,1.29-.57,1.29-1.88v-9.94h1.62Zm-1.62-2.18v-2.01h1.62v2.01h-1.62Z"/>
    </g>
    <g>
      <path class="cls-3" d="m617.4,62.97c.26,1.01,1.01,1.62,2.29,1.62,1.36,0,1.9-.59,1.9-1.44s-.42-1.29-2.21-1.72c-2.67-.65-3.23-1.48-3.23-2.75s.98-2.62,3.38-2.62,3.41,1.4,3.52,2.69h-1.55c-.15-.59-.61-1.44-2.03-1.44-1.31,0-1.72.63-1.72,1.24,0,.7.39,1.05,2.1,1.46,2.84.68,3.41,1.62,3.41,3.01,0,1.64-1.31,2.84-3.63,2.84s-3.62-1.22-3.86-2.9h1.62Z"/>
      <path class="cls-3" d="m624.13,56.29h1.62v-2.77h1.61v2.77h2.07v1.31h-2.07v5.48c0,.92.22,1.38,1.07,1.38.22,0,.55-.02.81-.07v1.22c-.39.15-.94.17-1.4.17-1.46,0-2.08-.76-2.08-2.31v-5.87h-1.62v-1.31Z"/>
      <path class="cls-3" d="m639.26,60.94c0,2.71-1.55,4.93-4.41,4.93-2.67,0-4.3-2.07-4.3-4.89s1.59-4.91,4.41-4.91c2.6,0,4.3,1.94,4.3,4.87Zm-7.05.02c0,2.07,1.03,3.56,2.71,3.56s2.67-1.42,2.67-3.54-.96-3.56-2.71-3.56-2.67,1.42-2.67,3.54Z"/>
      <path class="cls-3" d="m641.36,58.84c0-1.31-.02-2.05-.02-2.55h1.59c.02.26.06,1,.06,1.9.48-1.25,1.59-2.08,3.14-2.12v1.6c-1.92.06-3.14,1.07-3.14,3.43v4.54h-1.62v-6.81Z"/>
      <path class="cls-3" d="m654.82,63.6c0,.87.07,1.77.13,2.05h-1.55c-.07-.2-.13-.65-.15-1.22-.33.61-1.09,1.44-2.9,1.44-2.21,0-3.15-1.44-3.15-2.86,0-2.08,1.64-3.04,4.43-3.04h1.59v-.79c0-.83-.26-1.83-2.01-1.83-1.55,0-1.83.77-1.99,1.49h-1.57c.13-1.29.92-2.77,3.62-2.77,2.29,0,3.56.94,3.56,3.06v4.46Zm-1.59-2.51h-1.51c-1.86,0-2.86.52-2.86,1.83,0,.98.66,1.68,1.83,1.68,2.25,0,2.55-1.51,2.55-3.21v-.29Z"/>
      <path class="cls-3" d="m665.32,64.8c0,3.01-1.24,4.7-4.3,4.7-2.84,0-3.71-1.59-3.87-2.86h1.64c.28,1.03,1.11,1.57,2.31,1.57,2.12,0,2.64-1.35,2.64-3.49v-.76c-.5,1.03-1.35,1.64-2.91,1.64-2.31,0-3.87-1.88-3.87-4.63,0-3.04,1.79-4.91,4.04-4.91,1.79,0,2.55.83,2.75,1.46.02-.42.07-1.05.09-1.24h1.51c0,.54-.02,1.81-.02,2.69v5.81Zm-4.13-.57c2.01,0,2.6-1.37,2.6-3.43s-.55-3.36-2.55-3.36c-1.73,0-2.62,1.46-2.62,3.47s1.03,3.32,2.56,3.32Z"/>
      <path class="cls-3" d="m669.02,61.26c.02,1.9.98,3.27,2.56,3.27,1.48,0,1.96-.77,2.25-1.46h1.64c-.37,1.2-1.38,2.8-3.95,2.8-2.93,0-4.13-2.4-4.13-4.8,0-2.79,1.4-5,4.24-5,3.03,0,4,2.42,4,4.41,0,.29,0,.53-.02.77h-6.6Zm4.98-1.13c-.02-1.55-.79-2.79-2.38-2.79s-2.38,1.14-2.55,2.79h4.93Z"/>
      <path class="cls-3" d="m625.97,75.75c0-1.31-.02-2.05-.02-2.55h1.59c.02.26.05,1,.05,1.9.48-1.25,1.59-2.08,3.14-2.12v1.6c-1.92.06-3.14,1.07-3.14,3.43v4.54h-1.62v-6.81Z"/>
      <path class="cls-3" d="m640.5,77.85c0,2.71-1.55,4.93-4.41,4.93-2.67,0-4.3-2.07-4.3-4.89s1.59-4.91,4.41-4.91c2.6,0,4.3,1.94,4.3,4.87Zm-7.05.02c0,2.07,1.03,3.56,2.71,3.56s2.67-1.42,2.67-3.54-.96-3.56-2.71-3.56-2.67,1.42-2.67,3.54Z"/>
      <path class="cls-3" d="m650.65,77.85c0,2.71-1.55,4.93-4.41,4.93-2.67,0-4.3-2.07-4.3-4.89s1.59-4.91,4.41-4.91c2.6,0,4.3,1.94,4.3,4.87Zm-7.05.02c0,2.07,1.03,3.56,2.71,3.56s2.67-1.42,2.67-3.54-.96-3.56-2.71-3.56-2.67,1.42-2.67,3.54Z"/>
      <path class="cls-3" d="m652.75,75.62c0-.81,0-1.66-.02-2.42h1.55c.04.28.07.96.07,1.44.42-.83,1.24-1.66,2.71-1.66,1.33,0,2.23.66,2.6,1.68.5-.89,1.38-1.68,2.97-1.68s2.95.9,2.95,3.43v6.14h-1.59v-5.96c0-1.07-.39-2.21-1.84-2.21-1.53,0-2.2,1.14-2.2,2.8v5.37h-1.59v-5.9c0-1.2-.33-2.27-1.81-2.27s-2.21,1.22-2.21,2.99v5.18h-1.6v-6.94Z"/>
      <path class="cls-3" d="m632.65,90.22c.2-1.49,1.25-3.12,3.86-3.12s3.65,1.53,3.65,3.15c0,1.48-.87,2.23-1.61,2.51v.04c1.09.35,2.12,1.25,2.12,3.06,0,1.94-1.2,3.82-4.21,3.82-2.79,0-3.97-1.75-4.15-3.36h1.61c.24,1.07,1.05,2.01,2.62,2.01,1.73,0,2.47-1.14,2.47-2.45,0-1.62-1-2.36-2.64-2.36h-.87v-1.33h.72c1.6,0,2.29-.61,2.29-1.88,0-1.11-.72-1.84-2.07-1.84-1.46,0-1.99.77-2.23,1.75h-1.57Z"/>
      <path class="cls-3" d="m642.65,99.46v-2.73h1.7v2.73h-1.7Z"/>
      <path class="cls-3" d="m654.77,93.3c0,3.01-.85,6.38-4.24,6.38s-4.24-3.15-4.24-6.29,1.01-6.29,4.3-6.29,4.19,3.1,4.19,6.2Zm-6.77.09c0,2.31.41,4.91,2.55,4.91s2.53-2.47,2.53-4.98c0-2.34-.41-4.83-2.47-4.83s-2.6,2.23-2.6,4.91Z"/>
      <path class="cls-3" d="m658.7,90.11v9.67c0,2.58-.61,3.54-2.64,3.54-.11,0-.48-.02-.63-.04v-1.37c.11.02.26.02.35.02,1.13,0,1.29-.57,1.29-1.88v-9.94h1.62Zm-1.62-2.18v-2.01h1.62v2.01h-1.62Z"/>
    </g>
    <g>
      <path class="cls-3" d="m574.02,375.4h1.42v4.83c.35-.69,1.11-1.36,2.6-1.36,2.07,0,3.36,1.69,3.36,4.12s-1.26,4.46-3.57,4.46c-1.31,0-2-.48-2.41-1.27,0,.42-.03.86-.06,1.08h-1.36c.02-.92.02-1.84.02-2.74v-9.11Zm3.7,4.67c-1.74,0-2.36,1.16-2.36,3.12,0,1.71.55,3.07,2.28,3.07,1.45,0,2.31-1.24,2.31-3.23,0-1.78-.81-2.95-2.23-2.95Z"/>
      <path class="cls-3" d="m589.33,385.46c0,.76.06,1.55.11,1.79h-1.36c-.06-.18-.11-.56-.13-1.07-.29.53-.95,1.26-2.53,1.26-1.94,0-2.76-1.26-2.76-2.5,0-1.82,1.44-2.66,3.88-2.66h1.39v-.69c0-.73-.23-1.6-1.76-1.6-1.36,0-1.6.68-1.74,1.31h-1.37c.11-1.13.81-2.42,3.16-2.42,2,0,3.12.82,3.12,2.68v3.91Zm-1.39-2.2h-1.32c-1.63,0-2.5.45-2.5,1.6,0,.86.58,1.47,1.6,1.47,1.97,0,2.23-1.32,2.23-2.81v-.26Z"/>
      <path class="cls-3" d="m591.77,387.25v-11.85h1.42v11.85h-1.42Z"/>
      <path class="cls-3" d="m602.05,384.75c-.34,1.4-1.29,2.7-3.37,2.7-2.26,0-3.65-1.61-3.65-4.25,0-2.31,1.31-4.33,3.75-4.33s3.18,1.68,3.28,2.73h-1.4c-.19-.82-.71-1.55-1.91-1.55-1.44,0-2.26,1.24-2.26,3.1s.79,3.12,2.21,3.12c1.02,0,1.61-.55,1.95-1.52h1.4Z"/>
      <path class="cls-3" d="m610.8,383.13c0,2.37-1.36,4.31-3.86,4.31-2.34,0-3.76-1.81-3.76-4.28s1.39-4.29,3.86-4.29c2.28,0,3.76,1.69,3.76,4.26Zm-6.17.02c0,1.81.9,3.12,2.37,3.12s2.34-1.24,2.34-3.1-.84-3.12-2.37-3.12-2.34,1.24-2.34,3.1Z"/>
      <path class="cls-3" d="m612.63,381.13c0-.71,0-1.44-.02-2.07h1.37c.05.24.07,1.1.07,1.34.32-.69.98-1.53,2.57-1.53s2.74.94,2.74,3.12v5.26h-1.42v-5.08c0-1.24-.48-2.07-1.73-2.07-1.55,0-2.16,1.18-2.16,2.83v4.33h-1.42v-6.12Z"/>
      <path class="cls-3" d="m622.25,379.07c1.32,3.92,2.05,6.09,2.28,6.93h.02c.26-.94.84-2.81,2.18-6.93h1.42l-2.94,8.56c-.82,2.41-1.45,3-3.12,3-.26,0-.56-.02-.89-.05v-1.23c.21.02.45.03.68.03,1.03,0,1.42-.45,1.9-1.81l-3.07-8.51h1.53Z"/>
    </g>
    <g>
      <path class="cls-3" d="m757.62,451.23v-.08c0-1.55,1-3.13,3.2-4.79,1.71-1.29,2.16-1.71,2.16-2.89,0-1.07-.56-1.86-1.84-1.86s-1.89.66-2.12,1.97h-1.39c.19-1.81,1.34-3.16,3.5-3.16,2.39,0,3.31,1.53,3.31,3.02,0,1.61-.68,2.24-2.65,3.76-1.47,1.13-2.24,1.97-2.5,2.79h5.57l-.21,1.24h-7.04Z"/>
      <path class="cls-3" d="m766.86,440h7.22v1.28h-5.75v3.65h5.38v1.28h-5.38v5.04h-1.47v-11.24Z"/>
    </g>
    <g>
      <path class="cls-3" d="m646.67,161.84h3.05c2.41,0,4.03,1.65,4.03,4.19s-1.59,4.37-4.07,4.37h-3.01v-8.56Zm1.13,7.6h1.8c2.02,0,2.96-1.45,2.96-3.38,0-1.69-.87-3.25-2.96-3.25h-1.8v6.63Z"/>
      <path class="cls-3" d="m655.54,170.4v-8.56h1.5c1.23,2,3.9,6.26,4.38,7.18h.01c-.09-1.09-.07-2.45-.07-3.84v-3.34h1.07v8.56h-1.41c-1.13-1.86-3.91-6.43-4.44-7.39h-.02c.06.97.06,2.42.06,3.97v3.42h-1.07Z"/>
    </g>
    <path class="cls-2" d="m122.07,25.4c1.32,0,2.15.16,2.88.7.65.47,1,1.15,1,2.1,0,1.66-1.26,2.64-2.69,2.85l2.16,3.7c.56.93.78,1.04,1.47,1.04v.47h-1.95l-2.88-5.04h-1.35v3.42c0,1.07.07,1.15,1.16,1.15v.47h-3.55v-.47c1.07,0,1.16-.09,1.16-1.16v-7.63c0-1.06-.09-1.15-1.16-1.15v-.47h3.76Zm-.98.59c-.35,0-.38.13-.38.93v3.71h1.04c1.77,0,2.92-.62,2.92-2.45,0-1.24-.7-2.19-2.63-2.19h-.95Z"/>
    <path class="cls-3" d="m122.07,25.4c1.32,0,2.15.16,2.88.7.65.47,1,1.15,1,2.1,0,1.66-1.26,2.64-2.69,2.85l2.16,3.7c.56.93.78,1.04,1.47,1.04v.47h-1.95l-2.88-5.04h-1.35v3.42c0,1.07.07,1.15,1.16,1.15v.47h-3.55v-.47c1.07,0,1.16-.09,1.16-1.16v-7.63c0-1.06-.09-1.15-1.16-1.15v-.47h3.76Zm-.98.59c-.35,0-.38.13-.38.93v3.71h1.04c1.77,0,2.92-.62,2.92-2.45,0-1.24-.7-2.19-2.63-2.19h-.95Z"/>
    <path class="cls-2" d="m304.34,114.32c-.48,0-.57.09-.77.77l-2.41,8.79h-.75l-2.36-7.89h-.03l-2.3,7.89h-.78l-2.51-8.66c-.25-.79-.34-.9-.85-.9v-.42h2.61v.42c-.58,0-.78.05-.78.35,0,.13.04.31.11.57l2.05,7.06h.03l2.13-7.31c-.24-.59-.26-.66-.9-.66v-.42h2.69v.42c-.56,0-.77.05-.77.36,0,.13.04.32.12.57l2.11,7.05h.03l1.91-6.97c.08-.29.12-.49.12-.65,0-.3-.18-.36-.7-.36v-.42h2.01v.42Z"/>
    <path class="cls-3" d="m304.34,114.32c-.48,0-.57.09-.77.77l-2.41,8.79h-.75l-2.36-7.89h-.03l-2.3,7.89h-.78l-2.51-8.66c-.25-.79-.34-.9-.85-.9v-.42h2.61v.42c-.58,0-.78.05-.78.35,0,.13.04.31.11.57l2.05,7.06h.03l2.13-7.31c-.24-.59-.26-.66-.9-.66v-.42h2.69v.42c-.56,0-.77.05-.77.36,0,.13.04.32.12.57l2.11,7.05h.03l1.91-6.97c.08-.29.12-.49.12-.65,0-.3-.18-.36-.7-.36v-.42h2.01v.42Z"/>
    <g>
      <path class="cls-3" d="m221.63,61.21h1.28v4.34c.32-.62,1-1.22,2.34-1.22,1.86,0,3.02,1.53,3.02,3.7s-1.13,4.01-3.21,4.01c-1.18,0-1.8-.44-2.16-1.15,0,.38-.03.77-.06.97h-1.22c.01-.83.01-1.66.01-2.47v-8.19Zm3.33,4.2c-1.57,0-2.12,1.05-2.12,2.8,0,1.54.49,2.76,2.05,2.76,1.31,0,2.08-1.12,2.08-2.91,0-1.6-.73-2.66-2-2.66Z"/>
      <path class="cls-3" d="m235.41,70.26c0,.68.06,1.39.1,1.61h-1.22c-.06-.16-.1-.51-.12-.96-.26.48-.86,1.13-2.28,1.13-1.74,0-2.48-1.13-2.48-2.25,0-1.64,1.29-2.4,3.49-2.4h1.25v-.62c0-.65-.2-1.44-1.58-1.44-1.22,0-1.44.61-1.57,1.18h-1.23c.1-1.02.73-2.18,2.85-2.18,1.8,0,2.8.74,2.8,2.41v3.52Zm-1.25-1.98h-1.19c-1.47,0-2.25.41-2.25,1.44,0,.77.52,1.32,1.44,1.32,1.77,0,2-1.19,2-2.53v-.23Z"/>
      <path class="cls-3" d="m236.66,64.51h1.28v-2.18h1.26v2.18h1.63v1.03h-1.63v4.31c0,.73.17,1.09.84,1.09.17,0,.44-.01.64-.06v.96c-.3.12-.74.13-1.1.13-1.15,0-1.64-.6-1.64-1.82v-4.62h-1.28v-1.03Z"/>
      <path class="cls-3" d="m243.51,61.21v4.39c.36-.65,1.05-1.26,2.29-1.26,1.18,0,2.48.64,2.48,2.83v4.71h-1.28v-4.49c0-1.25-.52-1.95-1.6-1.95-1.32,0-1.9.87-1.9,2.41v4.02h-1.28v-10.66h1.28Z"/>
      <path class="cls-3" d="m219.35,79.43c0-1.03-.01-1.61-.01-2h1.25c.01.2.04.78.04,1.5.38-.99,1.25-1.64,2.47-1.67v1.26c-1.51.04-2.47.84-2.47,2.7v3.57h-1.28v-5.36Z"/>
      <path class="cls-3" d="m230.8,81.08c0,2.14-1.22,3.88-3.47,3.88-2.11,0-3.38-1.63-3.38-3.85s1.25-3.86,3.47-3.86c2.05,0,3.38,1.53,3.38,3.83Zm-5.55.01c0,1.63.81,2.8,2.13,2.8s2.11-1.12,2.11-2.79-.75-2.8-2.13-2.8-2.11,1.12-2.11,2.79Z"/>
      <path class="cls-3" d="m238.79,81.08c0,2.14-1.22,3.88-3.47,3.88-2.11,0-3.38-1.63-3.38-3.85s1.25-3.86,3.47-3.86c2.05,0,3.38,1.53,3.38,3.83Zm-5.55.01c0,1.63.81,2.8,2.13,2.8s2.11-1.12,2.11-2.79-.75-2.8-2.13-2.8-2.11,1.12-2.11,2.79Z"/>
      <path class="cls-3" d="m240.44,79.32c0-.64,0-1.31-.01-1.9h1.22c.03.22.06.76.06,1.13.33-.65.97-1.31,2.13-1.31,1.05,0,1.76.52,2.05,1.32.39-.7,1.09-1.32,2.34-1.32s2.32.71,2.32,2.7v4.84h-1.25v-4.69c0-.84-.3-1.74-1.45-1.74-1.21,0-1.73.9-1.73,2.21v4.23h-1.25v-4.65c0-.94-.26-1.79-1.42-1.79s-1.74.96-1.74,2.35v4.08h-1.26v-5.46Z"/>
    </g>
    <g>
      <path class="cls-3" d="m286.26,304.4c.02,1.58.81,2.72,2.14,2.72,1.23,0,1.63-.65,1.88-1.21h1.37c-.31,1-1.15,2.33-3.29,2.33-2.44,0-3.44-2-3.44-3.99,0-2.32,1.17-4.16,3.53-4.16,2.52,0,3.33,2.01,3.33,3.67,0,.25,0,.45-.02.65h-5.5Zm4.15-.94c-.02-1.29-.66-2.32-1.98-2.32s-1.98.95-2.12,2.32h4.1Z"/>
      <path class="cls-3" d="m293.5,302.23c0-.68,0-1.37-.02-1.97h1.31c.05.23.06,1.04.06,1.28.31-.66.94-1.46,2.44-1.46s2.61.89,2.61,2.97v5.01h-1.35v-4.84c0-1.18-.46-1.97-1.64-1.97-1.47,0-2.06,1.12-2.06,2.69v4.12h-1.35v-5.82Z"/>
      <path class="cls-3" d="m301.2,300.26h1.35v-2.3h1.34v2.3h1.72v1.09h-1.72v4.56c0,.77.18,1.15.89,1.15.18,0,.46-.02.68-.06v1.01c-.32.12-.78.14-1.17.14-1.21,0-1.74-.63-1.74-1.92v-4.89h-1.35v-1.09Z"/>
      <path class="cls-3" d="m307.1,302.38c0-1.09-.02-1.71-.02-2.12h1.32c.01.22.05.83.05,1.58.4-1.04,1.32-1.74,2.61-1.77v1.34c-1.6.05-2.61.89-2.61,2.86v3.78h-1.35v-5.67Z"/>
      <path class="cls-3" d="m318.32,306.35c0,.72.06,1.48.11,1.71h-1.29c-.06-.17-.11-.54-.12-1.01-.28.51-.91,1.2-2.41,1.2-1.84,0-2.63-1.2-2.63-2.38,0-1.74,1.37-2.54,3.69-2.54h1.32v-.66c0-.69-.22-1.52-1.67-1.52-1.29,0-1.52.65-1.66,1.24h-1.31c.11-1.08.77-2.31,3.01-2.31,1.91,0,2.97.78,2.97,2.55v3.72Zm-1.32-2.09h-1.26c-1.55,0-2.38.43-2.38,1.52,0,.81.55,1.4,1.52,1.4,1.88,0,2.12-1.26,2.12-2.67v-.25Z"/>
      <path class="cls-3" d="m320.64,302.23c0-.68,0-1.37-.02-1.97h1.31c.05.23.06,1.04.06,1.28.31-.66.94-1.46,2.44-1.46s2.61.89,2.61,2.97v5.01h-1.35v-4.84c0-1.18-.46-1.97-1.64-1.97-1.47,0-2.06,1.12-2.06,2.69v4.12h-1.35v-5.82Z"/>
      <path class="cls-3" d="m335.49,305.67c-.32,1.34-1.23,2.57-3.21,2.57-2.15,0-3.47-1.54-3.47-4.04,0-2.2,1.25-4.12,3.57-4.12s3.03,1.6,3.12,2.6h-1.34c-.18-.78-.68-1.48-1.81-1.48-1.37,0-2.15,1.18-2.15,2.95s.75,2.97,2.11,2.97c.97,0,1.54-.52,1.86-1.44h1.34Z"/>
      <path class="cls-3" d="m337.92,304.4c.02,1.58.81,2.72,2.14,2.72,1.23,0,1.63-.65,1.88-1.21h1.37c-.31,1-1.15,2.33-3.29,2.33-2.44,0-3.44-2-3.44-3.99,0-2.32,1.17-4.16,3.53-4.16,2.52,0,3.33,2.01,3.33,3.67,0,.25,0,.45-.02.65h-5.5Zm4.15-.94c-.02-1.29-.66-2.32-1.98-2.32s-1.98.95-2.12,2.32h4.1Z"/>
    </g>
    <g>
      <path class="cls-3" d="m318.89,252.7c.26,1.16,1.05,1.79,2.45,1.79,1.49,0,2.09-.71,2.09-1.62,0-.97-.47-1.51-2.39-1.97-2.27-.55-3.06-1.33-3.06-2.68,0-1.44,1.05-2.6,3.2-2.6,2.3,0,3.24,1.33,3.38,2.59h-1.3c-.18-.84-.71-1.55-2.12-1.55-1.18,0-1.83.53-1.83,1.44s.54,1.26,2.23,1.67c2.74.66,3.22,1.73,3.22,2.98,0,1.55-1.15,2.77-3.5,2.77s-3.46-1.33-3.67-2.81h1.3Z"/>
      <path class="cls-3" d="m334.3,252.66c-.43,1.63-1.65,2.85-3.83,2.85-2.88,0-4.33-2.19-4.33-4.91s1.45-4.98,4.37-4.98c2.27,0,3.5,1.3,3.79,2.91h-1.27c-.35-1.05-1.04-1.84-2.56-1.84-2.13,0-2.99,1.94-2.99,3.88s.82,3.89,3.04,3.89c1.48,0,2.13-.86,2.49-1.79h1.29Z"/>
      <path class="cls-3" d="m336.17,245.75h1.27v8.54h5.02l-.18,1.09h-6.12v-9.63Z"/>
    </g>
    <g>
      <path class="cls-3" d="m91.79,246.1h1.55v10.43h6.14l-.22,1.34h-7.47v-11.77Z"/>
      <path class="cls-3" d="m101.27,246.1h4.19c3.31,0,5.55,2.27,5.55,5.77s-2.18,6-5.6,6h-4.14v-11.77Zm1.55,10.45h2.47c2.77,0,4.07-2,4.07-4.65,0-2.32-1.2-4.46-4.07-4.46h-2.47v9.11Z"/>
      <path class="cls-3" d="m113.46,246.1h1.54v5.78c.88-.91,3.87-3.87,5.71-5.78h1.94l-5.06,4.97,5.31,6.8h-1.89l-4.51-5.8-1.5,1.37v4.43h-1.54v-11.77Z"/>
      <path class="cls-3" d="m125.69,257.86v-9.35c-.54.39-1.67.85-2.3.96v-1.2c.86-.24,1.94-.86,2.71-1.59h1.12v11.18h-1.52Z"/>
      <path class="cls-3" d="m129.63,254.72c0-1.57,1.07-2.48,2.03-2.86-.98-.47-1.56-1.25-1.56-2.35,0-1.72,1.22-2.98,3.52-2.98,2.08,0,3.36,1.23,3.36,2.94,0,1.2-.64,1.98-1.54,2.32,1.05.34,1.98,1.39,1.98,2.87,0,2.13-1.66,3.4-3.96,3.4-2.16,0-3.84-1.28-3.84-3.35Zm6.27-.07c0-1.4-.9-2.15-2.37-2.15-1.62,0-2.37.93-2.37,2.15s.86,2.18,2.37,2.18c1.4,0,2.37-.74,2.37-2.18Zm-4.33-5.14c0,.93.61,1.72,2.01,1.72s1.93-.64,1.93-1.67-.61-1.79-1.94-1.79c-1.42,0-2,.71-2,1.74Z"/>
      <path class="cls-3" d="m139.11,257.86v-2.5h1.56v2.5h-1.56Z"/>
      <path class="cls-3" d="m150.22,252.22c0,2.76-.78,5.85-3.89,5.85s-3.89-2.89-3.89-5.77.93-5.77,3.94-5.77,3.84,2.84,3.84,5.68Zm-6.21.08c0,2.11.37,4.5,2.33,4.5s2.32-2.27,2.32-4.56c0-2.15-.37-4.43-2.27-4.43s-2.38,2.05-2.38,4.5Z"/>
      <path class="cls-3" d="m153.82,249.29v8.86c0,2.37-.56,3.25-2.42,3.25-.1,0-.44-.02-.57-.03v-1.25c.1.02.24.02.32.02,1.03,0,1.18-.52,1.18-1.72v-9.11h1.49Zm-1.49-1.99v-1.84h1.49v1.84h-1.49Z"/>
    </g>
    <g>
      <path class="cls-3" d="m341.47,448.06v-8.93c-.52.37-1.6.81-2.2.92v-1.15c.82-.23,1.86-.82,2.58-1.52h1.07v10.67h-1.45Z"/>
      <path class="cls-3" d="m345.98,436.82h7.22v1.28h-5.75v3.65h5.38v1.28h-5.38v5.04h-1.47v-11.24Z"/>
    </g>
    <g>
      <path class="cls-3" d="m214.32,198.54v5.15c0,2.02,1.11,2.57,2.2,2.57,1.28,0,2.19-.59,2.19-2.57v-5.15h1.14v5.09c0,2.78-1.54,3.58-3.36,3.58s-3.33-.86-3.33-3.49v-5.18h1.16Z"/>
      <path class="cls-3" d="m222.03,198.54h3.25c1.66,0,2.8.93,2.8,2.5,0,1.66-1.21,2.55-2.88,2.55h-2.03v3.52h-1.14v-8.56Zm1.14,4.08h1.98c1.17,0,1.76-.57,1.76-1.56,0-1.04-.71-1.56-1.72-1.56h-2.02v3.12Z"/>
    </g>
    <g>
      <path class="cls-3" d="m218.28,123.19v-8.45c0-.61,0-1.23-.01-1.8h1.23c.03.25.04.68.04,1.16.41-.76,1.15-1.34,2.41-1.34,1.7,0,2.93,1.42,2.93,3.66,0,2.64-1.41,4.05-3.2,4.05-1.19,0-1.82-.49-2.15-1.09v3.81h-1.26Zm3.34-9.34c-1.53,0-2.14.96-2.14,2.76s.49,2.79,2.03,2.79c1.35,0,2.06-1.1,2.06-2.92,0-1.57-.71-2.63-1.96-2.63Z"/>
      <path class="cls-3" d="m232.89,116.59c0,2.14-1.22,3.88-3.47,3.88-2.11,0-3.38-1.63-3.38-3.85s1.25-3.86,3.47-3.86c2.05,0,3.38,1.53,3.38,3.83Zm-5.55.01c0,1.63.81,2.8,2.14,2.8s2.11-1.12,2.11-2.79-.75-2.8-2.13-2.8-2.11,1.12-2.11,2.79Z"/>
      <path class="cls-3" d="m235.15,112.93c.92,3.46,1.44,5.43,1.57,6.19h.01c.13-.68.65-2.53,1.7-6.19h1.25c1.15,4.17,1.5,5.38,1.61,6.04h.01c.19-.78.48-1.89,1.63-6.04h1.29l-2.27,7.36h-1.38c-.71-2.69-1.42-5.17-1.58-5.97h-.01c-.13.8-.78,3.05-1.61,5.97h-1.42l-2.13-7.36h1.34Z"/>
      <path class="cls-3" d="m251.81,109.63v8.58c0,.68,0,1.37.01,2.08h-1.22c-.04-.19-.07-.75-.07-1.05-.36.77-1.1,1.22-2.31,1.22-1.9,0-3.07-1.54-3.07-3.78s1.26-3.94,3.3-3.94c1.31,0,1.89.52,2.08.94v-4.07h1.28Zm-3.33,9.76c1.71,0,2.11-1.28,2.11-2.89s-.35-2.67-2-2.67c-1.31,0-2.11,1.03-2.11,2.82s.84,2.75,2,2.75Z"/>
      <path class="cls-3" d="m254.73,116.84c.01,1.5.77,2.57,2.02,2.57,1.16,0,1.54-.61,1.77-1.15h1.29c-.29.94-1.09,2.21-3.11,2.21-2.31,0-3.25-1.89-3.25-3.78,0-2.19,1.1-3.94,3.34-3.94,2.38,0,3.15,1.9,3.15,3.47,0,.23,0,.42-.01.61h-5.2Zm3.92-.89c-.01-1.22-.62-2.19-1.87-2.19s-1.87.9-2,2.19h3.88Z"/>
      <path class="cls-3" d="m261.57,114.93c0-1.03-.01-1.61-.01-2h1.25c.01.2.04.78.04,1.5.38-.99,1.25-1.64,2.47-1.67v1.26c-1.51.04-2.47.84-2.47,2.7v3.57h-1.28v-5.36Z"/>
      <path class="cls-3" d="m225.8,127.84c0-1.03-.01-1.61-.01-2h1.25c.01.2.04.78.04,1.5.38-.99,1.25-1.64,2.47-1.67v1.26c-1.51.04-2.47.84-2.47,2.7v3.57h-1.28v-5.36Z"/>
      <path class="cls-3" d="m237.24,129.5c0,2.14-1.22,3.88-3.47,3.88-2.11,0-3.38-1.63-3.38-3.85s1.25-3.86,3.47-3.86c2.05,0,3.38,1.53,3.38,3.83Zm-5.55.01c0,1.63.81,2.8,2.13,2.8s2.11-1.12,2.11-2.79-.75-2.8-2.13-2.8-2.11,1.12-2.11,2.79Z"/>
      <path class="cls-3" d="m245.23,129.5c0,2.14-1.22,3.88-3.47,3.88-2.11,0-3.38-1.63-3.38-3.85s1.25-3.86,3.47-3.86c2.05,0,3.38,1.53,3.38,3.83Zm-5.55.01c0,1.63.81,2.8,2.13,2.8s2.11-1.12,2.11-2.79-.75-2.8-2.13-2.8-2.11,1.12-2.11,2.79Z"/>
      <path class="cls-3" d="m246.88,127.74c0-.64,0-1.31-.01-1.9h1.22c.03.22.06.75.06,1.13.33-.65.97-1.31,2.13-1.31,1.05,0,1.76.52,2.05,1.32.39-.7,1.09-1.32,2.34-1.32s2.32.71,2.32,2.7v4.84h-1.25v-4.69c0-.84-.3-1.74-1.45-1.74-1.21,0-1.73.9-1.73,2.21v4.23h-1.25v-4.65c0-.94-.26-1.79-1.42-1.79s-1.74.96-1.74,2.35v4.08h-1.26v-5.46Z"/>
    </g>
    <path d="m805.74,292.53l4.14-7.04,1.23.73c.04,2.24.18,7.03.13,8.02h0c.46-.94,1.12-2.04,1.79-3.19l1.62-2.75.88.52-4.14,7.04-1.16-.68c-.03-2.07-.11-7.18-.08-8.23h-.02c-.42.82-1.12,2.01-1.87,3.29l-1.65,2.81-.88-.52Z"/>
    <rect class="cls-1" width="825.97" height="498.92"/>
  </g>
</svg>