<?xml version="1.0" encoding="utf-8"?>
<!-- Generator: Adobe Illustrator 27.5.0, SVG Export Plug-In . SVG Version: 6.00 Build 0)  -->
<svg version="1.1" id="_レイヤー_2" xmlns="http://www.w3.org/2000/svg" xmlns:xlink="http://www.w3.org/1999/xlink" x="0px"
	 y="0px" viewBox="0 0 1202.8 709" style="enable-background:new 0 0 1202.8 709;" xml:space="preserve">
<style type="text/css">
	.st0{clip-path:url(#SVGID_00000162340751634742856710000005187600804387425448_);}
	.st1{fill:#231815;}
	.st2{fill:#332615;}
</style>
<g id="_レイヤー_2-2">
	<g>
		<defs>
			<rect id="SVGID_1_" y="0" width="1202.8" height="709"/>
		</defs>
		<clipPath id="SVGID_00000101806674479850391660000012510818480009630109_">
			<use xlink:href="#SVGID_1_"  style="overflow:visible;"/>
		</clipPath>
		<g style="clip-path:url(#SVGID_00000101806674479850391660000012510818480009630109_);">
			<g>
				<path class="st1" d="M749.8,601l-7.2,7.2l-7.2-7.2l7.2-7.2L749.8,601z M736.2,601l6.4,6.4l6.4-6.4l-6.4-6.4L736.2,601z"/>
				<path class="st1" d="M761.4,598.9c0.2-0.2,0.3-0.5,0.4-0.5c0.2,0,1.3,0.9,1.3,1.1c0,0.2-0.2,0.2-0.4,0.2h-4.8v6.8h4l0.3-0.5
					c0.2-0.2,0.3-0.5,0.4-0.5c0.2,0,1.3,0.9,1.3,1.2c0,0.2-0.2,0.2-0.4,0.2h-10.2c-0.8,0-1.5,0.1-2.2,0.2l-0.4-0.8
					c0.7,0.1,1.3,0.1,2,0.1h4.2v-6.8h-2.7c-0.8,0-1.5,0.1-2.2,0.2l-0.4-0.8c0.7,0.1,1.3,0.1,2,0.1h3.3v-2.2c0-1-0.1-2.2-0.2-3
					c1.7,0.5,1.7,0.6,1.4,0.8l-0.2,0.2v4.2h3.2L761.4,598.9L761.4,598.9z"/>
				<path class="st1" d="M769.1,598.3c0.2-0.2,0.2-0.4,0.4-0.4c0.2,0,1,0.8,1,1.1c0,0.2-0.2,0.2-0.3,0.2h-1.8v4.7
					c0.7-0.3,1.4-0.7,2.1-1l0.1,0.2c-1,0.7-2.4,1.7-4.2,2.8c0,0.2-0.1,0.3-0.3,0.4l-0.6-1.3c0.4-0.1,1.1-0.4,1.9-0.8v-5.1h-0.6
					c-0.3,0-0.6,0.1-1,0.2l-0.4-0.8c0.4,0.1,0.9,0.1,1.3,0.1h0.6v-1.2c0-1-0.1-2.2-0.2-3c1.6,0.5,1.6,0.6,1.3,0.8l-0.2,0.2v3.3h0.5
					L769.1,598.3L769.1,598.3z M777.1,597.1c0.1-0.2,0.2-0.3,0.3-0.3c0.2,0,1,0.8,1,1c-0.1,0.1-0.3,0.2-0.5,0.2
					c0,3.9-0.2,5.3-0.7,5.8c-0.3,0.3-0.7,0.5-1.2,0.5c0-0.3,0-0.5-0.2-0.7c-0.1-0.1-0.4-0.2-0.7-0.3V603c0.3,0,0.8,0.1,1.1,0.1
					c0.2,0,0.3,0,0.4-0.1c0.3-0.3,0.4-1.7,0.4-5.2l-2.2,0.9v2.6c0,1.8,0.1,2.4,0.1,3.5c-0.1,0.2-0.5,0.4-0.8,0.4
					c-0.2,0-0.3-0.2-0.3-0.3c0.1-1.3,0.1-1.9,0.2-3.8V599l-1.9,0.8v6c0,0.4,0.2,0.6,1,0.6h2.1c1,0,1.7,0,2,0c0.2,0,0.3-0.1,0.4-0.2
					c0.1-0.3,0.3-1.2,0.5-2.2h0.2l0,2.3c0.4,0.1,0.5,0.2,0.5,0.5c0,0.5-0.6,0.7-3.7,0.7H773c-1.4,0-1.9-0.3-1.9-1.3v-5.9l-1.8,0.7
					l-0.3-0.3l2-0.8v-2.1c0-0.7,0-1.6-0.1-2.2c1.5,0.5,1.5,0.6,1.3,0.8l-0.2,0.2v3l1.9-0.7v-2.1c0-0.7,0-1.6-0.1-2.2
					c1.5,0.5,1.5,0.6,1.3,0.8l-0.2,0.2v3l1.9-0.8l0.1,0L777.1,597.1L777.1,597.1z"/>
				<path class="st1" d="M791.6,597.7c0.1-0.2,0.2-0.3,0.3-0.3c0.2,0,1,0.8,1,1c-0.1,0.1-0.3,0.2-0.6,0.3v5.2c0,1.8,0.1,2.4,0.1,3.5
					c-0.1,0.2-0.5,0.4-0.9,0.4c-0.2,0-0.2-0.2-0.2-0.3c0-0.1,0-0.2,0.1-0.4v-0.4h-9v0.3c0,0.3,0,0.4,0,0.5c0,0.2-0.3,0.4-0.8,0.4
					c-0.2,0-0.3-0.2-0.3-0.3c0.1-1.3,0.1-1.9,0.2-3.8v-3.1c0-1-0.1-2.2-0.2-3l1.3,0.5h3.2c0.1-0.6,0.3-1.5,0.4-2.2H783
					c-0.8,0-1.5,0.1-2.2,0.2l-0.4-0.8c0.7,0.1,1.3,0.1,2,0.1h9l0.3-0.5c0.2-0.2,0.3-0.5,0.4-0.5c0.2,0,1.3,0.9,1.3,1.1
					c0,0.2-0.2,0.2-0.4,0.2h-5.7c-0.3,0.7-0.8,1.6-1.2,2.2h5.2L791.6,597.7L791.6,597.7z M782.4,598.5v7.7h2.3v-7.7H782.4z
					 M788.2,600.7v-2.2h-2.6v2.2H788.2z M788.2,603.4v-2.3h-2.6v2.3H788.2z M785.6,603.8v2.3h2.6v-2.3H785.6z M791.4,598.4h-2.3v7.7
					h2.3V598.4z"/>
				<path class="st1" d="M806.5,596.7c0.2-0.2,0.2-0.3,0.4-0.3c0.2,0,1,0.7,1,0.9c0,0.2-0.2,0.2-0.4,0.2h-2.8v1.2h2.1l0.3-0.4
					c0.2-0.2,0.2-0.4,0.4-0.4c0.2,0,1.1,0.8,1.1,1c0,0.2-0.2,0.2-0.3,0.2h-7.7c-0.1,0.1-0.2,0.1-0.3,0.1h-1.7v1.5
					c2.7,1.2,2,2.9,1.2,2.2c-0.2-0.6-0.7-1.4-1.2-2v2.9c0,1.8,0.1,2.4,0.1,3.5c-0.1,0.2-0.4,0.4-0.9,0.4c-0.2,0-0.3-0.2-0.3-0.3
					c0.1-1.3,0.1-1.9,0.2-3.8v-2.1c-0.6,1.3-1.3,2.5-2.3,3.5l-0.2-0.2c1.1-1.6,1.9-3.6,2.3-5.7h-0.6c-0.4,0-0.7,0.1-1.1,0.2
					l-0.4-0.8c0.5,0.1,1,0.1,1.5,0.1h0.7v-2.6c-0.7,0.2-1.5,0.4-2.2,0.5l-0.1-0.2c0.5-0.2,1-0.3,1.5-0.6c0.9-0.4,1.9-1,2.4-1.6
					c1.3,1.1,1.3,1.2,0.9,1.2h-0.3c-0.3,0.2-0.8,0.3-1.3,0.5v2.8h0.4l0.6-0.8c0,0,0.5,0.5,0.9,0.8l0-0.1h3.5v-1.2h-0.9
					c-0.6,0-1.1,0.1-1.7,0.2l-0.4-0.7c0.7,0.1,1.3,0.1,2,0.1h1v-1h-1c-0.7,0-1.3,0.1-1.9,0.2l-0.4-0.8c0.7,0.1,1.3,0.1,2,0.1h1.4
					c0-0.4,0-0.9-0.1-1.3c1.5,0.5,1.5,0.6,1.2,0.8l-0.2,0.2v0.4h1.9l0.3-0.4c0.2-0.2,0.2-0.4,0.4-0.4c0.2,0,1.1,0.8,1.1,1
					c0,0.2-0.2,0.2-0.3,0.2h-3.3v1h1.6L806.5,596.7L806.5,596.7z M803.8,606.3h-0.2c-1.2,0.7-2.7,1.2-4.2,1.5l-0.2-0.3
					c0.4-0.2,0.8-0.3,1.2-0.5c0.9-0.4,1.9-1.2,2.5-1.8l0.6,0.6C804.1,606.1,804.1,606.3,803.8,606.3L803.8,606.3z M806.4,599.6
					c0.1-0.2,0.2-0.3,0.3-0.3c0.2,0,1,0.7,1,1c-0.1,0.1-0.3,0.2-0.6,0.3v1.5c0,1.5,0,2.1,0.1,3c-0.1,0.2-0.5,0.4-0.8,0.4h-0.2V605
					h-4.2v0.3c0,0.1-0.4,0.3-0.7,0.3c-0.2,0-0.2-0.2-0.2-0.3c0.1-0.6,0.1-0.9,0.1-1.9v-1.1c0-1-0.1-2.2-0.2-3l1.2,0.5h4L806.4,599.6
					L806.4,599.6z M806.3,600.4h-4.2v1.1h4.2V600.4z M806.3,603v-1.1h-4.2v1.1H806.3z M802.1,604.6h4.2v-1.2h-4.2V604.6z
					 M804.9,605.5c4.9,1,3.3,2.8,2.5,2c-0.5-0.5-1.4-1.2-2.6-1.8L804.9,605.5L804.9,605.5z"/>
				<path class="st1" d="M810.1,607.9l-0.4-0.4l13.3-13.3l0.4,0.4L810.1,607.9z"/>
				<path class="st1" d="M834.6,606.2v0.5h-5.8v-0.5l2.3-0.3c0-0.9,0-1.8,0-2.6v-6.1l-2.2,0.2v-0.5l3.2-0.8l0.2,0.2l-0.1,2.3v4.7
					c0,0.9,0,1.7,0,2.6L834.6,606.2L834.6,606.2z"/>
				<path class="st1" d="M842.8,605.5v1.1h-6.5v-0.9c0.9-1,1.8-1.9,2.5-2.7c1.6-1.8,2.3-3,2.3-4.2c0-1.3-0.8-2.2-2-2.2
					c-0.3,0-0.6,0-1,0.1l-0.4,1.1c-0.2,0.6-0.4,0.9-0.8,0.9c-0.3,0-0.5-0.2-0.7-0.5c0.2-1.5,1.6-2.3,3.2-2.3c2,0,2.9,1.1,2.9,2.7
					c0,1.4-0.7,2.4-3.1,4.8c-0.4,0.4-1.2,1.2-2,2L842.8,605.5L842.8,605.5z"/>
				<path class="st1" d="M850.7,604.2c0,1.6-1.4,2.7-3.2,2.7s-3.2-0.9-3.2-2.6c0-1.2,0.8-2,2.4-2.8c-1.4-0.8-2-1.7-2-2.8
					c0-1.6,1.3-2.6,2.9-2.6s2.7,1,2.7,2.5c0,0.8-0.5,1.8-2,2.6C850,601.9,850.7,602.8,850.7,604.2L850.7,604.2z M849.6,604.2
					c0-1-0.6-1.7-2.5-2.5c-1.2,0.7-1.7,1.3-1.7,2.4c0,1.3,0.9,2.1,2.2,2.1S849.6,605.4,849.6,604.2z M847.8,600.9
					c1-0.7,1.5-1.4,1.5-2.3c0-1-0.6-1.9-1.7-1.9c-1,0-1.8,0.7-1.8,1.7C845.7,599.3,846.1,600.1,847.8,600.9L847.8,600.9z"/>
				<path class="st1" d="M852.9,605.8c0-0.5,0.4-1,1-1s1,0.5,1,1s-0.4,1-1,1S852.9,606.4,852.9,605.8z"/>
				<path class="st1" d="M857.5,606.5c2.9-1,4.3-2.6,4.6-4.9c-0.6,0.6-1.3,0.9-2.2,0.9c-1.7,0-3.1-1.2-3.1-3.2c0-2,1.4-3.3,3.3-3.3
					s3.3,1.6,3.3,4.2c0,3-1.7,5.7-5.8,6.7L857.5,606.5L857.5,606.5z M862.2,600.9c0-0.2,0-0.3,0-0.5c0-2.6-0.9-3.8-2.1-3.8
					c-1.1,0-2.1,0.9-2.1,2.6s1,2.5,2.3,2.5C861.1,601.7,861.7,601.5,862.2,600.9L862.2,600.9z"/>
				<path class="st1" d="M866.7,597.7c-0.2,0.6-0.3,0.9-0.8,0.9c-0.3,0-0.6-0.1-0.7-0.5c0.3-1.4,1.5-2,3-2c1.8,0,3,1,3,2.5
					c0,1.2-0.8,2.2-2.2,2.6c1.7,0.3,2.5,1.3,2.5,2.7c0,1.8-1.4,3-3.5,3c-1.5,0-2.7-0.7-3-2.2c0.2-0.3,0.4-0.5,0.7-0.5
					c0.4,0,0.6,0.3,0.8,1l0.3,0.9c0.4,0.1,0.7,0.2,1.1,0.2c1.6,0,2.5-0.9,2.5-2.4s-0.9-2.4-2.6-2.4h-0.8v-0.6h0.6
					c1.5,0,2.4-0.8,2.4-2.3c0-1.2-0.7-2-2-2c-0.3,0-0.6,0-1,0.1L866.7,597.7L866.7,597.7z"/>
				<path class="st1" d="M887.8,603.2c0,0.8,0,2,0,2.8l1.2,0.1v0.5h-3.6v-0.5l1.1-0.1c0-0.8,0-2,0-2.8v-1.7c0-1.5-0.6-2-1.4-2
					c-0.6,0-1.3,0.3-2,1.1c0,0.2,0,0.5,0,0.7v1.9c0,0.8,0,2,0,2.8l1.1,0.1v0.5h-3.5v-0.5l1.1-0.1c0-0.8,0-2,0-2.8v-1.8
					c0-1.4-0.6-2-1.4-2c-0.6,0-1.3,0.4-1.9,1.1v2.6c0,0.8,0,2,0,2.8l1.2,0.1v0.5h-3.5v-0.5l1.1-0.1c0-0.9,0-2,0-2.8v-0.8
					c0-1,0-1.9-0.1-2.7l-1.2,0v-0.5l2.2-0.5l0.2,0.1l0,1.2c0.7-1,1.5-1.4,2.4-1.4c1,0,1.7,0.4,2,1.5c0.8-1,1.6-1.5,2.5-1.5
					c1.5,0,2.2,0.8,2.2,2.8L887.8,603.2L887.8,603.2z M890.5,597.5v0.6h-2.6v-0.4l0.9-1c0.5-0.6,0.8-0.9,0.8-1.5
					c0-0.4-0.2-0.7-0.7-0.7c-0.1,0-0.2,0-0.3,0l-0.1,0.4c-0.1,0.3-0.2,0.4-0.4,0.4c-0.1,0-0.2-0.1-0.3-0.2c0.1-0.6,0.6-1,1.3-1
					c0.8,0,1.2,0.4,1.2,1s-0.4,1-1.2,1.6l-0.8,0.6L890.5,597.5L890.5,597.5z"/>
				<path class="st1" d="M749.8,626l-7.2,7.2l-7.2-7.2l7.2-7.2L749.8,626z M736.2,626l6.4,6.4l6.4-6.4l-6.4-6.4L736.2,626z"/>
				<path class="st1" d="M753.7,620.1c0.1-0.2,0.2-0.3,0.3-0.3c0.2,0,1,0.8,1,1c-0.1,0.1-0.4,0.2-0.7,0.2c-0.4,0.9-1.1,2.3-1.7,3.7
					h1.2l0.2-0.3c0.1-0.2,0.2-0.3,0.3-0.3c0.2,0,1,0.7,1,0.9c-0.1,0.1-0.2,0.2-0.5,0.2c-0.2,1.5-0.5,3-1.1,4.3c1.3,1.6,3.3,2,6.3,2
					c0.9,0,2.9,0,3.9,0v0.2c-0.4,0.1-0.6,0.4-0.6,0.8h-3.3c-3.2,0-5.2-0.4-6.5-2.4c-0.6,1-1.4,2-2.6,2.7l-0.1-0.2
					c1.1-0.9,1.8-2,2.3-3.3c-0.3-0.6-0.6-1.4-0.9-2.2c-0.2,0.5-0.6,1.1-0.8,1.4c0.1,0.1,0.1,0.2,0,0.3l-0.7-0.7c0.4-0.4,1-1,1.4-1.5
					l0.2-0.7l0.5,0.2l-0.4,0.6c0.2,0.8,0.5,1.5,0.9,2.1c0.4-1.2,0.6-2.4,0.7-3.7h-1.5c-0.2,0.3-0.3,0.5-0.4,0.8
					c-0.2,0.1-0.5,0-0.8-0.1c0.8-1.6,1.7-3.6,2.2-4.9h-0.8c-0.5,0-1,0.1-1.4,0.2l-0.4-0.8c0.6,0.1,1.2,0.1,1.8,0.1h0.9L753.7,620.1
					L753.7,620.1z M761.5,620.5c0.1-0.2,0.2-0.3,0.3-0.3c0.2,0,1,0.8,1,1c-0.1,0.1-0.3,0.2-0.6,0.3v1.3h0.2l0.2-0.4
					c0.1-0.2,0.2-0.4,0.3-0.4c0.2,0,1,0.8,1,1c0,0.2-0.2,0.2-0.3,0.2h-1.5v0.7c0,0.7,0,1,0.1,1.3c-0.1,0.2-0.5,0.4-0.8,0.4h-0.1
					v-0.5h-2.1v1.5h2.1l0.3-0.4c0.2-0.2,0.2-0.4,0.4-0.4c0.2,0,1.1,0.8,1.1,1c0,0.2-0.2,0.2-0.4,0.2h-3.4v1.5h2.5l0.3-0.4
					c0.2-0.2,0.3-0.4,0.4-0.4c0.2,0,1.2,0.8,1.2,1.1c0,0.2-0.2,0.2-0.4,0.2h-4v0.6c0,0.6,0,0.8,0.1,1c-0.1,0.2-0.4,0.4-0.8,0.4
					c-0.2,0-0.3-0.2-0.3-0.3c0-0.3,0-0.5,0.1-1v-0.7h-1.2c-0.8,0-1.5,0.1-2.2,0.2l-0.4-0.8c0.7,0.1,1.3,0.1,2,0.1h1.8v-1.5h-1
					c-0.6,0-1.2,0.1-1.8,0.2l-0.4-0.8c0.7,0.1,1.3,0.1,2,0.1h1.2v-1.5h-0.9c-0.6,0-1.1,0.1-1.7,0.2l-0.4-0.8c0.7,0.1,1.3,0.1,2,0.1
					h1v-1.5H757c-0.8,0-1.5,0.1-2.2,0.2l-0.4-0.8c0.7,0.1,1.3,0.1,2,0.1h2v-1.5h-0.9c-0.6,0-1.1,0.1-1.7,0.2l-0.4-0.7
					c0.7,0.1,1.3,0.1,2,0.1h1c0-0.5,0-1.2-0.1-1.7c1.5,0.5,1.5,0.6,1.3,0.8l-0.2,0.2v0.7h2L761.5,620.5L761.5,620.5z M759.3,621.2
					v1.5h2.1v-1.5H759.3z M761.4,624.7v-1.5h-2.1v1.5H761.4z"/>
				<path class="st1" d="M770,621.6c0,0,0.7,0.6,1.1,1.1l0,0c0.1-0.2,0.2-0.4,0.3-0.6c0.4-0.9,0.7-2.2,0.7-3
					c1.6,0.5,1.6,0.6,1.3,0.8l-0.3,0.1c-0.2,0.8-0.5,1.5-0.9,2.2h4.9l0.2-0.3c0.1-0.2,0.2-0.3,0.3-0.3c0.2,0,1,0.7,1,1
					c-0.1,0.1-0.3,0.2-0.6,0.2c-0.2,4.9-0.7,8.4-1.5,9.3c-0.4,0.5-1,0.7-1.7,0.7c0-0.3-0.1-0.6-0.3-0.7c-0.2-0.2-0.9-0.3-1.5-0.4
					v-0.3c0.7,0.1,1.9,0.2,2.2,0.2s0.5-0.1,0.7-0.2c0.6-0.6,1.1-4.1,1.3-8.7h-0.9c-0.6,3.9-2.1,7.2-5.3,9.4l-0.2-0.2
					c2.6-2.4,4-5.6,4.4-9.2h-1.1c-0.7,2.7-2.2,5-4.3,6.7l-0.2-0.2c1.8-1.7,3-4.1,3.5-6.5H772c-0.6,1.1-1.3,1.9-2.2,2.6l-0.2-0.2
					c0.5-0.6,1-1.4,1.4-2.2c-0.1,0.1-0.2,0.1-0.3,0.1H769v3.3c0.7-0.2,1.3-0.5,2-0.7l0.1,0.2c-0.6,0.3-1.3,0.7-2.1,1.1v2
					c0,1.8,0.1,2.4,0.1,3.5c-0.1,0.2-0.5,0.4-0.8,0.4c-0.2,0-0.3-0.2-0.3-0.3c0.1-1.1,0.1-1.6,0.1-3.3v-1.8c-0.5,0.2-1,0.5-1.6,0.8
					c0,0.2-0.2,0.3-0.3,0.4l-0.5-1.2c0.5-0.1,1.4-0.4,2.5-0.8v-3.7H767c-0.3,0.9-0.7,1.8-1.1,2.5l-0.2-0.1c0.2-0.6,0.4-1.3,0.6-2
					c0.2-1,0.3-2.3,0.3-3.2c1.5,0.3,1.5,0.4,1.3,0.6l-0.2,0.1c-0.1,0.6-0.2,1.2-0.4,1.7h1v-0.3c0-1-0.1-2.2-0.2-3
					c1.6,0.5,1.6,0.6,1.3,0.8l-0.2,0.2v2.4h0.4L770,621.6L770,621.6z"/>
				<path class="st1" d="M791.6,622.7c0.1-0.2,0.2-0.3,0.3-0.3c0.2,0,1,0.8,1,1c-0.1,0.1-0.3,0.2-0.6,0.3v5.2c0,1.8,0.1,2.4,0.1,3.5
					c-0.1,0.2-0.5,0.4-0.9,0.4c-0.2,0-0.2-0.2-0.2-0.3c0-0.1,0-0.2,0.1-0.4v-0.4h-9v0.3c0,0.3,0,0.4,0,0.5c0,0.2-0.3,0.4-0.8,0.4
					c-0.2,0-0.3-0.2-0.3-0.3c0.1-1.3,0.1-1.9,0.2-3.8v-3.1c0-1-0.1-2.2-0.2-3l1.3,0.5h3.2c0.1-0.6,0.3-1.5,0.4-2.2H783
					c-0.8,0-1.5,0.1-2.2,0.2l-0.4-0.8c0.7,0.1,1.3,0.1,2,0.1h9l0.3-0.5c0.2-0.2,0.3-0.5,0.4-0.5c0.2,0,1.3,0.9,1.3,1.1
					c0,0.2-0.2,0.2-0.4,0.2h-5.7c-0.3,0.7-0.8,1.6-1.2,2.2h5.2L791.6,622.7L791.6,622.7z M782.4,623.5v7.7h2.3v-7.7H782.4z
					 M788.2,625.7v-2.2h-2.6v2.2H788.2z M788.2,628.4v-2.3h-2.6v2.3H788.2z M785.6,628.8v2.3h2.6v-2.3H785.6z M791.4,623.4h-2.3v7.7
					h2.3V623.4z"/>
				<path class="st1" d="M806.5,621.7c0.2-0.2,0.2-0.3,0.4-0.3c0.2,0,1,0.7,1,0.9c0,0.2-0.2,0.2-0.4,0.2h-2.8v1.2h2.1l0.3-0.4
					c0.2-0.2,0.2-0.4,0.4-0.4c0.2,0,1.1,0.8,1.1,1c0,0.2-0.2,0.2-0.3,0.2h-7.7c-0.1,0.1-0.2,0.1-0.3,0.1h-1.7v1.5
					c2.7,1.2,2,2.9,1.2,2.2c-0.2-0.6-0.7-1.4-1.2-2v2.9c0,1.8,0.1,2.4,0.1,3.5c-0.1,0.2-0.4,0.4-0.9,0.4c-0.2,0-0.3-0.2-0.3-0.3
					c0.1-1.3,0.1-1.9,0.2-3.8v-2.1c-0.6,1.3-1.3,2.5-2.3,3.5l-0.2-0.2c1.1-1.6,1.9-3.6,2.3-5.7h-0.6c-0.4,0-0.7,0.1-1.1,0.2
					l-0.4-0.8c0.5,0.1,1,0.1,1.5,0.1h0.7v-2.6c-0.7,0.2-1.5,0.4-2.2,0.5l-0.1-0.2c0.5-0.2,1-0.3,1.5-0.6c0.9-0.4,1.9-1,2.4-1.6
					c1.3,1.1,1.3,1.2,0.9,1.2h-0.3c-0.3,0.2-0.8,0.3-1.3,0.5v2.8h0.4l0.6-0.8c0,0,0.5,0.5,0.9,0.8l0-0.1h3.5v-1.2h-0.9
					c-0.6,0-1.1,0.1-1.7,0.2l-0.4-0.7c0.7,0.1,1.3,0.1,2,0.1h1v-1h-1c-0.7,0-1.3,0.1-1.9,0.2l-0.4-0.8c0.7,0.1,1.3,0.1,2,0.1h1.4
					c0-0.4,0-0.9-0.1-1.3c1.5,0.5,1.5,0.6,1.2,0.8l-0.2,0.2v0.4h1.9l0.3-0.4c0.2-0.2,0.2-0.4,0.4-0.4c0.2,0,1.1,0.8,1.1,1
					c0,0.2-0.2,0.2-0.3,0.2h-3.3v1h1.6L806.5,621.7L806.5,621.7z M803.8,631.3h-0.2c-1.2,0.7-2.7,1.2-4.2,1.5l-0.2-0.3
					c0.4-0.2,0.8-0.3,1.2-0.5c0.9-0.4,1.9-1.2,2.5-1.8l0.6,0.6C804.1,631.1,804.1,631.3,803.8,631.3L803.8,631.3z M806.4,624.6
					c0.1-0.2,0.2-0.3,0.3-0.3c0.2,0,1,0.7,1,1c-0.1,0.1-0.3,0.2-0.6,0.3v1.5c0,1.5,0,2.1,0.1,3c-0.1,0.2-0.5,0.4-0.8,0.4h-0.2V630
					h-4.2v0.3c0,0.1-0.4,0.3-0.7,0.3c-0.2,0-0.2-0.2-0.2-0.3c0.1-0.6,0.1-0.9,0.1-1.9v-1.1c0-1-0.1-2.2-0.2-3l1.2,0.5h4L806.4,624.6
					L806.4,624.6z M806.3,625.4h-4.2v1.1h4.2V625.4z M806.3,628v-1.1h-4.2v1.1H806.3z M802.1,629.6h4.2v-1.2h-4.2V629.6z
					 M804.9,630.5c4.9,1,3.3,2.8,2.5,2c-0.5-0.5-1.4-1.2-2.6-1.8L804.9,630.5L804.9,630.5z"/>
				<path class="st1" d="M810.1,632.9l-0.4-0.4l13.3-13.3l0.4,0.4L810.1,632.9z"/>
				<path class="st1" d="M828.8,631.5c2.9-1,4.3-2.6,4.6-4.9c-0.6,0.6-1.3,0.9-2.2,0.9c-1.7,0-3.1-1.2-3.1-3.2c0-2,1.4-3.3,3.3-3.3
					s3.3,1.6,3.3,4.2c0,3-1.7,5.7-5.8,6.7L828.8,631.5L828.8,631.5z M833.5,625.9c0-0.2,0-0.3,0-0.5c0-2.6-0.9-3.8-2.1-3.8
					c-1.1,0-2.1,0.9-2.1,2.6s1,2.5,2.3,2.5C832.3,626.7,833,626.5,833.5,625.9L833.5,625.9z"/>
				<path class="st1" d="M842.8,626.5c0,3.9-1.6,5.4-3.3,5.4s-3.3-1.5-3.3-5.4s1.6-5.4,3.3-5.4S842.8,622.5,842.8,626.5z
					 M839.5,631.2c1,0,2-1.1,2-4.8s-1-4.8-2-4.8s-2,1-2,4.8S838.5,631.2,839.5,631.2z"/>
				<path class="st1" d="M844.9,630.8c0-0.5,0.4-1,1-1s1,0.5,1,1s-0.4,1-1,1S844.9,631.4,844.9,630.8z"/>
				<path class="st1" d="M855.6,630.5v1.1h-6.5v-0.9c0.9-1,1.8-1.9,2.5-2.7c1.6-1.8,2.3-3,2.3-4.2c0-1.3-0.8-2.2-2-2.2
					c-0.3,0-0.6,0-1,0.1l-0.4,1.1c-0.2,0.6-0.4,0.9-0.8,0.9c-0.3,0-0.5-0.2-0.7-0.5c0.2-1.5,1.6-2.3,3.2-2.3c2,0,2.9,1.1,2.9,2.7
					c0,1.4-0.7,2.4-3.1,4.8c-0.4,0.4-1.2,1.2-2,2L855.6,630.5L855.6,630.5z"/>
				<path class="st1" d="M858.4,625.4c0.5-0.2,1.1-0.2,1.7-0.2c2,0,3.4,1.2,3.4,3.2s-1.5,3.5-3.7,3.5c-1.6,0-2.6-0.7-3-2.1
					c0.1-0.3,0.4-0.5,0.7-0.5c0.4,0,0.6,0.2,0.8,0.9l0.3,1c0.4,0.1,0.7,0.2,1.1,0.2c1.7,0,2.6-1.1,2.6-2.7s-1-2.6-2.6-2.6
					c-0.5,0-1.1,0.1-1.6,0.2l-0.4-0.1l0.3-4.8h5.2v1.1h-4.6L858.4,625.4L858.4,625.4z"/>
				<path class="st1" d="M879.8,628.2c0,0.8,0,2,0,2.8l1.2,0.1v0.5h-3.6v-0.5l1.1-0.1c0-0.8,0-2,0-2.8v-1.7c0-1.5-0.6-2-1.4-2
					c-0.6,0-1.3,0.3-2,1.1c0,0.2,0,0.5,0,0.7v1.9c0,0.8,0,2,0,2.8l1.1,0.1v0.5H873v-0.5l1.1-0.1c0-0.8,0-2,0-2.8v-1.8
					c0-1.4-0.6-2-1.4-2c-0.6,0-1.3,0.4-1.9,1.1v2.6c0,0.8,0,2,0,2.8l1.2,0.1v0.5h-3.5v-0.5l1.1-0.1c0-0.9,0-2,0-2.8v-0.8
					c0-1,0-1.9-0.1-2.7l-1.2,0v-0.5l2.2-0.5l0.2,0.1l0,1.2c0.7-1,1.5-1.4,2.4-1.4c1,0,1.7,0.4,2,1.5c0.8-1,1.6-1.5,2.5-1.5
					c1.5,0,2.2,0.8,2.2,2.8L879.8,628.2L879.8,628.2z M882.5,622.5v0.6h-2.6v-0.4l0.9-1c0.5-0.6,0.8-0.9,0.8-1.5
					c0-0.4-0.2-0.7-0.7-0.7c-0.1,0-0.2,0-0.3,0l-0.1,0.4c-0.1,0.3-0.2,0.4-0.4,0.4c-0.1,0-0.2-0.1-0.3-0.2c0.1-0.6,0.6-1,1.3-1
					c0.8,0,1.2,0.4,1.2,1s-0.4,1-1.2,1.6l-0.8,0.6L882.5,622.5L882.5,622.5z"/>
			</g>
			<g>
				<path class="st2" d="M751.3,490.1c-0.2,0.1-0.4,0.1-0.5,0c-0.1-0.1,0.2-0.3,0.3-0.4c2.7-1.8,6.2-5.1,6.5-7
					c0.1-0.3-0.3-0.6-0.5-0.7c-0.3-0.1-0.5-0.1-0.5-0.3c0-0.2,0.2-0.2,0.5-0.2s1.4-0.2,2.1,0.3c0.7,0.5,1,1.1,0.6,1.7
					C758,485.8,754.6,488.5,751.3,490.1L751.3,490.1z M768.3,487.6c-0.8-1.6-2.3-3.9-5.1-5.8c-0.1-0.1-0.2-0.1-0.2-0.3
					c0-0.1,0.2-0.1,0.4,0c1.8,0.6,5.5,2.9,6.6,4.9c0.4,0.7-0.1,1.9-0.6,2C768.9,488.6,768.6,488.4,768.3,487.6L768.3,487.6z"/>
				<path class="st2" d="M775.8,488.1c-0.1-0.1,0.1-0.3,0.4-0.5c4.2-3.1,6.6-5.8,8.8-10c0.2-0.4,0.2-0.9-0.1-1.2
					c-0.2-0.2-0.3-0.2-0.3-0.3c0-0.1,0.3-0.2,0.6-0.2c0.3,0,0.9,0.1,1.2,0.3c0.4,0.2,1.1,0.9,1,1.3c-0.1,0.2-0.4,0.1-0.6,0.6
					c-0.8,1.3-1.8,2.5-2.8,3.7c0.2,0.1,0.3,0.1,0.5,0.2c0.1,0,0.2,0.1,0.3,0.1c0.2,0.1,0.3,0.3,0.3,0.7c0,0.4-0.1,0.5-0.3,1.5
					c0,0.4,0,6.3,0.1,7.1c0.1,0.8,0.1,1.5-0.1,1.9c-0.2,0.3-0.6,0.2-0.9,0.1c-0.2-0.1-0.6-0.5-0.6-1.4c0.1-2.9,0.1-5.7,0.1-7.9
					c0-0.5,0-1.1-0.3-1.5c-2,2.1-4.2,3.9-6.8,5.3C776,488.2,775.8,488.2,775.8,488.1L775.8,488.1z"/>
				<path class="st2" d="M798.2,479.5c0-0.2,0.3-0.2,0.6-0.2c0.2,0,1.6,0.2,2,0.7c0.1,0.1,0.1,0.2,0.2,0.4c0.7,0,2-0.2,3.3-0.4
					c0-0.5,0-1.5,0-2.1c-0.1-0.8-0.3-0.9-0.6-1.2c-0.3-0.2-0.5-0.2-0.5-0.4c0-0.2,0.8-0.4,1.2-0.4c0.5,0,1,0.1,1.3,0.4
					c0.3,0.3,0.4,0.6,0.3,1.1c-0.1,0.4-0.3,1-0.3,1.6c0,0.4,0,0.6,0,0.8c1.7-0.2,3.2-0.5,3.5-0.5c0.5-0.1,0.8-0.6,1-0.6
					s1.7,0.9,1.8,1.1c0.2,0.2,0.3,0.3,0.3,0.6c0,0.3-0.5,0.3-0.7,0.6c-0.2,0.3-0.3,0.4-0.5,1c-1.8,5.3-4,9-11.4,11.7
					c-0.2,0.1-0.4,0.1-0.5,0s0.1-0.2,0.4-0.3c7.2-3.6,9.2-9,10-12.5c0.1-0.6,0-0.9-0.5-0.8c-0.8,0.1-6.5,0.9-7.9,1.1
					c0.2,1,0.3,2.2,0.3,2.7c0.1,0.9,0.2,1.3,0.2,1.7c0,0.4-0.3,0.8-0.6,0.9c-0.3,0.1-1.1-0.5-1-1.4c0.2-1.6-0.1-4.2-0.5-4.7
					c-0.4-0.5-0.8-0.7-1-0.8C798.3,479.7,798.2,479.6,798.2,479.5L798.2,479.5z"/>
				<path class="st2" d="M833.1,484.4c-0.1,0.3-0.6,0.3-1.5,0.2c-0.8-0.1-1.8-0.1-2.8,0v0.3c0.1,3.1,0.6,5.7,0.5,7.2
					c-0.1,0.6-0.2,1-0.4,1.3c-0.3,0.4-0.6,0.5-0.8,0.2c-0.2-0.3-0.2-1.1-0.8-1.7c-0.4-0.4-0.8-0.7-1-0.8c-0.3-0.2-0.2-0.4,0.2-0.2
					c0.4,0.1,1.1,0.3,1.3,0.2c0.2-0.1,0.4-0.4,0.3-0.9c0-0.4-0.2-2.4-0.2-4.2c-1.7,2.4-4.6,5-7.3,6.3c-0.2,0.1-0.4,0.1-0.4,0
					c0-0.1,0.1-0.2,0.2-0.3c2.2-1.3,5.4-4.4,6.7-7.1c-1,0.1-2,0.3-2.8,0.5c-0.7,0.2-1.3,0.1-1.8-0.2c-0.3-0.2-0.5-0.5-0.6-0.6
					c-0.2-0.2-0.2-0.3-0.2-0.4c0.1-0.1,0.4,0,0.5,0.1c0.1,0,0.7,0.2,1.4,0.1c0.4,0,2.4-0.2,4.2-0.4v-0.3c0-1-0.1-1.9-0.5-2.3
					c-0.1-0.2-0.4-0.4-0.5-0.4c-0.2-0.1-0.3-0.2-0.3-0.3c0.1-0.2,0.5-0.3,1.1-0.3c0.3,0,0.7,0.1,1,0.3c0.3,0.2,0.5,0.5,0.4,1
					c0,0.4-0.1,0.4-0.2,0.8c0,0.3,0,0.8,0,1.5c0.8-0.1,1.4-0.1,1.6-0.2c0.8-0.1,1-0.3,1.6-0.2C832.8,483.6,833.2,484,833.1,484.4
					L833.1,484.4z"/>
				<path class="st2" d="M840.8,483.6c0.1,0,0.4,0.3,0.7,0.4c0.5,0.2,1.3,0.4,2.3,0.3c1.1,0,4.3,0,5.9,0c4.6-0.1,5.4-0.1,6.5-0.1
					s2.2,0.1,2,1c0,0.4-1.4,0.4-1.8,0.4c-0.8,0-3.8,0-6.8,0c-1.4,0-5.5,0-6.4,0.2c-0.8,0.1-1.3,0.2-1.8-0.1
					c-0.5-0.3-1.2-1.1-0.9-1.9C840.6,483.7,840.7,483.6,840.8,483.6L840.8,483.6z"/>
				<path class="st2" d="M868.3,483.6c-0.9,2.8-4.3,7.1-6.8,8.6c-0.2,0.1-0.3,0.1-0.4,0c0-0.1,0.1-0.2,0.2-0.4
					c2.8-2.6,4.9-6.5,5.5-9.3c0.2-0.7,0.2-1.2-0.5-1.6c-0.3-0.2-0.5-0.4-0.4-0.5c0.1-0.1,0.9-0.1,1.7,0.3c0.4,0.2,1.1,0.8,1.2,1.4
					C869,482.5,868.6,482.7,868.3,483.6L868.3,483.6z M881.2,482.4c-1.7,2-6.1,5.8-8.8,7.2c-0.5,0.2-0.8,0-1-0.3
					c-0.2-0.2-0.8-0.8-0.5-1.3c0.3-0.5,0.1-2.1,0.2-3.8c0.1-2.1,0.3-3.4-0.1-3.8c-0.6-0.7-1.2-0.5-1-0.9c0.1-0.2,0.5-0.3,1-0.2
					c0.7,0.1,1.8,0.5,2,1.3c0.1,0.5-0.2,0.5-0.3,1c-0.2,1-0.4,5.2-0.4,5.5c0,0.3,0.2,0.4,0.6,0.2c3.1-1.2,6-3.6,8.1-5.4
					c0.3-0.3,0.4-0.3,0.5-0.2C881.6,482,881.5,482.1,881.2,482.4L881.2,482.4z"/>
				<path class="st2" d="M883.4,490.1c-0.2,0.1-0.4,0.1-0.4,0c-0.1-0.1,0.1-0.3,0.3-0.4c2.7-1.8,6.2-5.1,6.5-7
					c0-0.3-0.3-0.6-0.5-0.7c-0.3-0.1-0.5-0.1-0.5-0.3c0-0.2,0.2-0.2,0.5-0.2s1.4-0.2,2.1,0.3c0.7,0.5,1,1.1,0.6,1.7
					C890.2,485.8,886.8,488.5,883.4,490.1L883.4,490.1z M902.1,486.5c0.4,0.7-0.1,1.9-0.6,2c-0.5,0.1-0.7-0.1-1.1-0.9
					c-0.8-1.6-2.2-3.9-5.1-5.8c-0.1-0.1-0.2-0.1-0.2-0.3c0-0.1,0.2-0.1,0.4,0C897.4,482.2,901,484.4,902.1,486.5L902.1,486.5z
					 M898.1,479.4c0-0.2,0.4-0.1,0.8-0.1c0.3,0.1,2.7,0.8,2.8,2.1c0,0.4-0.1,0.7-0.3,0.8s-0.8,0-1.1-0.5c-0.3-0.5-1-1.5-1.8-1.9
					C898.4,479.6,898.1,479.5,898.1,479.4L898.1,479.4z M903.8,479.5c0.1,0.4,0,0.6-0.3,0.8c-0.3,0.1-0.8,0.1-1.1-0.4
					c-0.3-0.5-1.1-1.4-1.9-1.8c-0.2-0.1-0.5-0.2-0.5-0.4c0-0.2,0.4-0.1,0.8-0.1C901.2,477.6,903.6,478.1,903.8,479.5L903.8,479.5z"
					/>
				<path class="st2" d="M912.3,483.6c-0.9,2.8-4.3,7.1-6.8,8.6c-0.2,0.1-0.3,0.1-0.4,0c0-0.1,0.1-0.2,0.2-0.4
					c2.8-2.6,4.9-6.5,5.5-9.3c0.2-0.7,0.2-1.2-0.5-1.6c-0.3-0.2-0.5-0.4-0.4-0.5c0.1-0.1,0.9-0.1,1.7,0.3c0.4,0.2,1.1,0.8,1.2,1.4
					C913,482.5,912.6,482.7,912.3,483.6L912.3,483.6z M925.2,482.4c-1.7,2-6.1,5.8-8.8,7.2c-0.5,0.2-0.8,0-1-0.3
					c-0.2-0.2-0.8-0.8-0.5-1.3c0.3-0.5,0.1-2.1,0.2-3.8c0.1-2.1,0.3-3.4-0.1-3.8c-0.6-0.7-1.2-0.5-1-0.9c0.1-0.2,0.5-0.3,1-0.2
					c0.7,0.1,1.8,0.5,2,1.3c0.1,0.5-0.2,0.5-0.3,1c-0.2,1-0.4,5.2-0.4,5.5c0,0.3,0.2,0.4,0.6,0.2c3.1-1.2,6-3.6,8.1-5.4
					c0.3-0.3,0.4-0.3,0.5-0.2C925.6,482,925.5,482.1,925.2,482.4L925.2,482.4z"/>
				<path class="st2" d="M941.6,479.6c0.4,0,2.5,0.9,2.5,1.5s-0.7,0.7-1,1.2c-0.2,0.4-1,4.5-1.2,5.5c0.2,0,0.4,0.1,0.5,0.1
					c0.4,0.2,0.8,0.4,0.8,0.7c0,0.3-0.6,0.6-1.6,0.5c-2.4-0.2-5.9-0.1-8.7,0.8c-0.7,0.2-1.4-0.2-2-0.9c-0.3-0.3-0.3-0.8-0.1-0.9
					c0.1-0.1,0.4,0.1,0.7,0.2s0.4,0.2,1.2,0.2s2.3-0.3,4.1-0.5c1.1-0.1,2.7-0.3,3.9-0.3c0.1-0.8,0.7-4.4,0.5-5.9
					c0-0.3-0.2-0.4-0.5-0.4c-0.3,0-6.3,0.6-7.6,1c-1.6,0.5-2.1,0.4-2.9-1c-0.1-0.2-0.2-0.4,0-0.4c0.2-0.1,0.7,0.1,1.4,0.2
					c0.5,0,7.3-0.4,8.4-0.8C941.1,480,941.2,479.6,941.6,479.6L941.6,479.6z"/>
				<path class="st2" d="M951.5,488.6c-0.4-0.6-0.6-1.3-0.4-1.4c0.2-0.1,0.3,0.1,0.6,0.3c0.4,0.2,0.9,0.5,1.8,0.5s7-0.6,8.8-0.8
					c1.8-0.2,1.6-0.6,2.2-0.6c0.3,0,0.8,0.1,1.3,0.3c0.9,0.2,1.8,0.8,1.9,1.2c0,0.5,0,1-2.4,0.4c-1.3-0.4-5,0-6.9,0.1
					c-1.9,0.1-3.9,0.4-4.6,0.7S952.3,489.7,951.5,488.6L951.5,488.6z M964.4,481.7c-0.1,0.5-0.3,0.5-1.6,0.3c-1-0.1-5.5,0.3-6.4,0.5
					c-0.7,0.1-1.5,0.8-2.2-0.6c-0.2-0.4-0.4-0.9-0.3-0.9c0.1-0.1,0.2,0,0.3,0.1c0.2,0.2,0.5,0.4,1,0.4s5.2-0.3,5.7-0.5
					c0.5-0.1,0.6-0.3,1-0.5c0.2-0.1,0.7-0.2,1.4,0.1C964,480.9,964.5,481.2,964.4,481.7L964.4,481.7z"/>
				<path class="st2" d="M972.8,483.6c0.1,0,0.4,0.3,0.7,0.4c0.5,0.2,1.3,0.4,2.3,0.3c1.1,0,4.3,0,5.9,0c4.6-0.1,5.4-0.1,6.5-0.1
					s2.2,0.1,2,1c0,0.4-1.4,0.4-1.8,0.4c-0.8,0-3.8,0-6.8,0c-1.4,0-5.5,0-6.4,0.2c-0.8,0.1-1.3,0.2-1.8-0.1
					c-0.5-0.3-1.2-1.1-0.9-1.9C972.6,483.7,972.7,483.6,972.8,483.6L972.8,483.6z"/>
			</g>
			<g>
				<path class="st2" d="M758.7,432.1c0-0.1,0.1-0.2,0.3-0.3c2.9-1.8,5.2-4.2,6.7-7.1c0.7-1.4,1.2-2.5,1.5-3.5
					c-0.5,0.1-0.9,0.1-1.1,0.1c-1.3,0.2-2.4,0.4-2.7,0.5c-0.4,0.1-0.3,0.1-0.6,0.1c-1,0-1.7-1.1-1.9-1.5c-0.1-0.1-0.1-0.3,0-0.3
					c0.1-0.1,0.2,0,0.6,0.1c0.6,0.2,1.2,0.3,1.8,0.3c0.3,0,3.2-0.2,4.2-0.3h0.1c0.2-0.9,0.3-1.6,0.5-2.2c0.1-0.6,0.2-1.6-0.8-2.1
					c-0.3-0.1-0.5-0.2-0.5-0.3c0-0.2,0.2-0.3,0.4-0.3c0.3-0.1,1.6-0.1,2.6,0.5c0.6,0.4,0.7,0.7,0.6,0.9c-0.1,0.2-0.5,0.6-0.8,1.2
					c-0.1,0.3-0.3,1-0.6,2.1c1.3-0.1,2.9-0.3,3.2-0.3c0.5-0.1,1-0.5,1.2-0.7s0.2-0.1,0.3-0.1s0.2,0.1,0.3,0.1c0.1,0.1,1,0.8,1.3,1.2
					c0.1,0.1,0.1,0.2,0,0.3c0,0.1-0.1,0.1-0.2,0.2c-0.2,0.2-0.6,0.8-0.6,1.1c-0.5,2.6-1.3,4.8-2,6.5c-1.1,2.7-2.8,3-3.2,2.9
					c-0.4-0.1-0.5-0.3-0.5-0.6c0-0.4-0.2-0.6-0.3-0.9c-0.2-0.3-1.2-1.1-1.4-1.3c-0.1-0.1-0.2-0.2-0.2-0.3c0-0.1,0.3,0,0.4,0
					c0.2,0.1,1.8,1,2.4,0.9c0.4-0.1,1-0.3,1.5-1.2c0.9-1.9,1.8-4.5,2-7c0-0.3-0.2-0.3-0.4-0.3c-0.3,0-2.4,0.2-4.2,0.4
					c-0.5,1.5-1.2,3.3-2.3,5c-1.8,2.9-5,5.1-7.3,6C758.8,432.1,758.7,432.1,758.7,432.1L758.7,432.1z"/>
				<path class="st2" d="M781.7,422.2c0.1,0,0.4,0.3,0.7,0.4c0.5,0.2,1.3,0.4,2.3,0.3c1.1,0,4.3,0,5.9,0c4.6-0.1,5.4-0.1,6.5-0.1
					s2.2,0.1,2,1c0,0.4-1.4,0.4-1.8,0.4c-0.8,0-3.8,0-6.8,0c-1.4,0-5.5,0-6.4,0.2c-0.8,0.1-1.3,0.2-1.8-0.1
					c-0.5-0.3-1.2-1.1-0.9-1.9C781.6,422.4,781.6,422.2,781.7,422.2L781.7,422.2z"/>
				<path class="st2" d="M819.1,430.5c-0.5,0.5-1,0-1.5-0.9c-0.8-1.4-1.6-2.4-2.5-3.2c-0.8-0.8-2-1.5-2.7-1.8
					c-2.5,2.7-5.6,5.4-8.8,6.7c-0.2,0.1-0.3,0-0.3-0.1c-0.1-0.1,0.2-0.2,0.2-0.2c4.3-2.4,10.2-9.2,11.1-12.1
					c0.1-0.4-0.1-0.3-0.3-0.4c-1.3-0.1-4.9,1.2-5.2,1.2c-0.3,0.1-0.6,0.3-1,0.2c-1.1-0.3-1.5-1.2-1.6-1.5c-0.1-0.3,0-0.5,0-0.6
					c0.2-0.1,0.3,0.2,0.8,0.4c0.4,0.1,0.8,0.2,1.7,0.1c0.4-0.1,4.7-0.8,5.1-0.9c0.3-0.1,0.4-0.1,0.6-0.2c0.2-0.1,0.5-0.3,0.6-0.3
					s0.3,0.1,0.6,0.3c0.2,0.2,0.9,0.6,1.1,1.1c0.1,0.2,0.1,0.5-0.1,0.7c-0.2,0.1-0.8,0.6-1,0.8c-0.8,1.2-2,2.8-3.5,4.4
					c1.2,0.4,4.3,1.6,6.1,3.9C819.5,429.1,819.7,429.9,819.1,430.5L819.1,430.5z"/>
				<path class="st2" d="M843.8,428.4c-0.6,0.7-1.7,0.1-2.2-0.1c-3.8-2.3-7.3-5.2-9-7c-0.2-0.1-0.5-0.4-0.9,0
					c-0.5,0.5-3.6,3.4-4.1,4.2c-0.3,0.5-0.4,0.6-0.8,0.7c-0.3,0.1-1.8-0.5-2.1-2c-0.1-0.4,0.1-0.7,0.2-0.8c0.2-0.1,0.2,0.1,0.5,0.4
					c0.3,0.2,1.1,0.1,1.8-0.3c0.8-0.5,3.3-2.5,4-3.1c0.5-0.5,1.1-0.5,1.8,0.1c2.1,1.7,5.7,4.7,9.9,6.5
					C844,427.4,843.9,428.1,843.8,428.4L843.8,428.4z M839,416.6c1.2,0,2.1,0.9,2.1,2.1s-1,2.1-2.1,2.1s-2.1-0.9-2.1-2.1
					S837.8,416.6,839,416.6z M839,417.2c-0.8,0-1.5,0.7-1.5,1.5s0.7,1.5,1.5,1.5s1.5-0.7,1.5-1.5S839.8,417.2,839,417.2z"/>
				<path class="st2" d="M847.7,422.2c0.1,0,0.4,0.3,0.7,0.4c0.5,0.2,1.3,0.4,2.3,0.3c1.1,0,4.3,0,5.9,0c4.6-0.1,5.4-0.1,6.5-0.1
					s2.2,0.1,2,1c0,0.4-1.4,0.4-1.8,0.4c-0.8,0-3.8,0-6.8,0c-1.4,0-5.5,0-6.4,0.2c-0.8,0.1-1.3,0.2-1.8-0.1
					c-0.5-0.3-1.2-1.1-0.9-1.9C847.6,422.4,847.6,422.2,847.7,422.2L847.7,422.2z"/>
				<path class="st2" d="M885.1,430.5c-0.5,0.5-1,0-1.5-0.9c-0.8-1.4-1.6-2.4-2.5-3.2c-0.8-0.8-2-1.5-2.7-1.8
					c-2.5,2.7-5.6,5.4-8.8,6.7c-0.2,0.1-0.3,0-0.3-0.1c-0.1-0.1,0.2-0.2,0.2-0.2c4.3-2.4,10.2-9.2,11.1-12.1
					c0.1-0.4-0.1-0.3-0.3-0.4c-1.3-0.1-4.9,1.2-5.2,1.2c-0.3,0.1-0.6,0.3-1,0.2c-1.1-0.3-1.5-1.2-1.6-1.5c-0.1-0.3,0-0.5,0-0.6
					c0.2-0.1,0.3,0.2,0.8,0.4c0.4,0.1,0.8,0.2,1.7,0.1c0.4-0.1,4.7-0.8,5.1-0.9c0.3-0.1,0.4-0.1,0.6-0.2c0.2-0.1,0.5-0.3,0.6-0.3
					s0.3,0.1,0.6,0.3c0.2,0.2,0.9,0.6,1.1,1.1c0.1,0.2,0.1,0.5-0.1,0.7c-0.2,0.1-0.8,0.6-1,0.8c-0.8,1.2-2,2.8-3.5,4.4
					c1.2,0.4,4.3,1.6,6.1,3.9C885.5,429.1,885.7,429.9,885.1,430.5L885.1,430.5z"/>
				<path class="st2" d="M905.7,430v1.6H896v-1.3c1.4-1.4,2.7-2.9,3.8-4c2.4-2.6,3.4-4.4,3.4-6.3c0-2-1.1-3.3-3-3.3
					c-0.4,0-0.9,0-1.5,0.2l-0.5,1.7c-0.3,1-0.6,1.4-1.2,1.4c-0.5,0-0.8-0.3-1.1-0.7c0.4-2.3,2.4-3.5,4.7-3.5c3,0,4.4,1.6,4.4,4.1
					c0,2-1.1,3.6-4.6,7.1c-0.6,0.7-1.7,1.8-3,3H905.7L905.7,430z"/>
				<path class="st2" d="M929,419.8c-1-1.4-2.3-2.7-3.4-3.6l0.2-0.2c7.4,3.6,6.7,8,4.9,6.8c-0.3-0.8-0.8-1.6-1.3-2.5
					c-3.5,0.5-8.1,1.1-14.2,1.7c-0.2,0.2-0.4,0.4-0.6,0.5l-0.5-2c0.9,0,2.1,0,3.6-0.1c0.6-1,1.2-2.2,1.8-3.4c0.7-1.3,1.3-3,1.6-4.2
					c2.6,1,2.6,1.2,2.2,1.3l-0.4,0.1c-1,1.7-2.7,4.2-4.4,6.1C921.3,420.2,925,420,929,419.8L929,419.8z M918.2,431.9
					c0,0.5,0,0.7,0.1,0.9c-0.1,0.3-0.7,0.6-1.2,0.6c-0.2,0-0.4-0.2-0.4-0.4c0.1-1,0.1-1.5,0.2-3.1V428c0-1.5-0.1-3.3-0.3-4.5
					l1.8,0.9h9.8l0.3-0.5c0.2-0.2,0.3-0.5,0.5-0.5c0.3,0,1.7,1.1,1.7,1.4c-0.2,0.2-0.5,0.4-1,0.4v2.5c0,2.4,0.1,3.3,0.2,4.8
					c-0.2,0.2-0.9,0.6-1.4,0.6c-0.2,0-0.3-0.2-0.3-0.4c0-0.2,0-0.4,0.1-0.7v-0.6h-10.1L918.2,431.9L918.2,431.9z M918.2,430.7h10.1
					V425h-10.1V430.7z"/>
				<path class="st2" d="M939.2,415.5c-1.1,0-2.2,0.1-3.3,0.3l-0.6-1.1c1,0.1,1.9,0.1,2.9,0.2h13.5l0.5-0.7c0.3-0.4,0.5-0.7,0.7-0.7
					c0.3,0,1.9,1.4,1.9,1.7c0,0.2-0.2,0.4-0.5,0.4h-2.8v15.5c0,1.2-0.3,2-2.5,2.3c0-0.5-0.2-0.9-0.6-1.1c-0.4-0.3-1.1-0.5-2.4-0.6
					v-0.3c0,0,3,0.2,3.5,0.2c0.5,0,0.6-0.2,0.6-0.6v-15.4L939.2,415.5L939.2,415.5z M939.3,427.2c0,0.7,0,0.9,0.1,1.2
					c-0.1,0.2-0.6,0.6-1.2,0.6c-0.2,0-0.4-0.2-0.4-0.4c0.1-1.2,0.1-1.8,0.2-3.5v-2c0-1.5-0.1-3.3-0.3-4.5l1.7,0.8h4.9l0.3-0.4
					c0.2-0.2,0.3-0.4,0.5-0.4c0.3,0,1.7,1,1.7,1.3c-0.2,0.2-0.5,0.4-0.9,0.4v2.5c0,2.5,0.1,3.3,0.2,4.8c-0.2,0.2-0.9,0.6-1.4,0.6
					c-0.2,0-0.3-0.2-0.3-0.4c0-0.2,0-0.3,0.1-0.7v-0.6h-5.2L939.3,427.2L939.3,427.2z M939.3,425.8h5.2V420h-5.2V425.8z"/>
				<path class="st2" d="M965.1,417.4c-0.5-0.8-1.1-1.5-1.7-2l0.3-0.2c4.8,2,3.8,5.1,2.3,4.1c-0.1-0.4-0.4-1-0.7-1.5
					c-1.7,0.4-3.9,0.8-6.8,1.3c-0.1,0.3-0.3,0.4-0.5,0.5l-0.7-1.8c0.6,0,1.5,0,2.6-0.1c0-0.1,0.1-0.3,0.1-0.4
					c0.4-1.4,0.8-3.2,0.8-4.4c2.5,0.6,2.5,0.8,2.2,1l-0.4,0.2c-0.5,1-1.3,2.4-2.1,3.6C962,417.7,963.5,417.5,965.1,417.4
					L965.1,417.4z M960.2,429.5c0,1.6,0.1,2.2,0.1,3.1c-0.1,0.3-0.7,0.6-1.2,0.6c-0.2,0-0.4-0.2-0.4-0.4c0.1-1.8,0.2-2.7,0.2-5.4
					v-2.9c0-1.5-0.1-3.3-0.3-4.5l1.7,0.8h4l0.3-0.4c0.2-0.2,0.3-0.5,0.5-0.5c0.3,0,1.7,1.1,1.7,1.4c-0.1,0.1-0.5,0.4-0.9,0.4v9.4
					c0,1.2-0.2,1.9-1.9,2c0-0.4-0.1-0.8-0.3-1.1c-0.3-0.2-0.6-0.4-1.3-0.5v-0.4c0,0,1.5,0.1,1.8,0.1c0.3,0,0.4-0.1,0.4-0.4v-3.1
					h-4.4L960.2,429.5L960.2,429.5z M964.6,421.5h-4.4v2.5h4.4V421.5z M960.2,427.3h4.4v-2.6h-4.4V427.3z M971.2,427
					c1.2-0.8,2.6-1.9,3.2-2.9c2,1.4,2,1.6,1.5,1.6h-0.5c-1.3,0.9-3.5,1.9-5.7,2.5v2.8c0,0.4,0.1,0.5,0.9,0.5h2.1c0.9,0,1.6,0,1.9,0
					c0.2,0,0.3-0.1,0.4-0.3c0.2-0.3,0.4-1.4,0.6-2.5h0.2l0.1,2.6c0.5,0.2,0.6,0.4,0.6,0.6c0,0.7-0.7,0.9-4,0.9h-2.3
					c-1.7,0-2-0.4-2-1.5v-4c0-1.3-0.1-3-0.3-4.1c2.3,0.7,2.3,0.9,2,1.1l-0.3,0.2v3.3C970.2,427.6,970.7,427.3,971.2,427z M971,417.1
					c1.3-0.7,2.7-1.8,3.4-2.7c1.8,1.4,1.8,1.6,1.3,1.6h-0.5c-1.3,0.7-3.5,1.7-5.5,2.2v2.7c0,0.4,0.1,0.5,0.9,0.5h2
					c0.9,0,1.6,0,1.9,0c0.2,0,0.3-0.1,0.4-0.2c0.2-0.3,0.4-1.3,0.6-2.3h0.3l0.1,2.4c0.5,0.1,0.6,0.3,0.6,0.6c0,0.7-0.7,0.9-3.9,0.9
					h-2.2c-1.7,0-2-0.3-2-1.4v-3.9c0-1.3-0.1-2.9-0.2-4c2.2,0.7,2.2,0.9,1.9,1.1l-0.3,0.2v3.1C970.2,417.5,970.6,417.3,971,417.1
					L971,417.1z"/>
			</g>
			<g>
				<path class="st2" d="M764,542.8c0.3-0.3,0.5-0.7,0.7-0.7c0.3,0,2,1.4,2,1.7c-0.1,0.2-0.2,0.3-0.5,0.3h-8.6c0.8,4.1,3,8.8,9.2,12
					l0,0.2c-0.8,0.1-1.2,0.3-1.5,1.2c-5.8-3.6-7.5-9.1-8.1-13.4H757c-0.6,5-2.5,9.9-9.5,13.5l-0.3-0.4c5.9-3.7,7.8-8.3,8.3-13.1H751
					c-1.1,0-2.2,0.1-3.3,0.3l-0.6-1.1c1,0.1,1.9,0.2,2.9,0.2h5.6c0-0.5,0.1-1.1,0.1-1.7c0.1-1.5,0-3.3-0.2-4.5
					c2.5,0.2,2.5,0.5,2.2,0.7l-0.3,0.3c0,1.7-0.1,3.5-0.2,5.2h6.5L764,542.8L764,542.8z M754.9,551.6c5.4,2.2,4.1,5.9,2.4,4.5
					c-0.3-1.4-1.6-3.3-2.7-4.4L754.9,551.6L754.9,551.6z"/>
				<path class="st2" d="M771.3,539.5v12.4c0,2.6,0.1,3.5,0.2,5.2c-0.2,0.2-0.6,0.6-1.2,0.6c-0.2,0-0.5-0.2-0.5-0.4
					c0.1-1.9,0.2-2.9,0.2-5.7v-9c0-1.5-0.1-3.3-0.3-4.5l1.9,0.8h2.5l0.4-0.4c0.2-0.2,0.4-0.4,0.5-0.4c0.3,0,1.5,1.3,1.5,1.7
					c-0.2,0.2-0.4,0.2-0.9,0.2c-0.7,1.2-1.9,3.6-2.8,4.8c1.8,1.6,2.5,3.4,2.5,4.9c0,1.9-0.7,2.9-2.5,3c0-0.4-0.1-0.9-0.2-1.1
					c-0.2-0.2-0.5-0.2-1-0.3v-0.3h1.2c0.3,0,0.4,0,0.6-0.1c0.3-0.2,0.5-0.7,0.5-1.4c0-1.4-0.3-3-1.6-4.5c0.5-1.3,1.3-3.6,1.8-5.3
					H771.3L771.3,539.5z M786.4,546.2c0.2-0.3,0.4-0.6,0.6-0.6c0.3,0,1.7,1.2,1.7,1.6c-0.1,0.2-0.2,0.3-0.5,0.3h-7.9
					c-0.3,0.7-0.7,1.3-1.1,1.9h7.1l0.3-0.4c0.2-0.2,0.3-0.4,0.5-0.4c0.3,0,1.5,1,1.5,1.3c-0.1,0.2-0.4,0.3-0.8,0.3
					c-0.3,3.7-1,6-1.9,6.8c-0.5,0.5-1.3,0.7-2,0.7c0-0.4-0.1-0.8-0.3-1c-0.2-0.2-0.9-0.4-1.6-0.5l0-0.4c0.7,0.1,1.9,0.2,2.4,0.2
					c0.3,0,0.5,0,0.8-0.2c0.5-0.5,1.1-2.5,1.5-5.7h-1.5c-1.3,3.3-3.7,5.8-7.2,7.6l-0.2-0.3c2.8-1.8,4.8-4.4,5.9-7.3h-1.7
					c-1.4,2.6-3.7,4.7-6.4,6.2l-0.2-0.3c2.2-1.5,4-3.7,5.2-5.9h-1.6c-1.1,1.3-2.5,2.4-4.1,3.3l-0.2-0.3c1.9-1.5,3.4-3.4,4.3-5.5
					h-1.1c-0.7,0-1.3,0.1-1.9,0.3l-0.5-1.1c1,0.1,1.9,0.2,2.9,0.2h8L786.4,546.2L786.4,546.2z M785,538.1c0.2-0.2,0.3-0.5,0.5-0.5
					c0.3,0,1.4,1,1.4,1.3c-0.1,0.2-0.3,0.3-0.8,0.4v2c0,2,0.1,2.6,0.2,3.8c-0.2,0.2-0.7,0.5-1.2,0.5h-0.2v-0.9h-6v0.8
					c0,0.1-0.4,0.4-1.1,0.4c-0.2,0-0.3-0.2-0.3-0.4c0.1-0.8,0.1-1.1,0.1-2.2V542c0-1.3-0.1-3-0.3-4.1l1.8,0.8h5.7L785,538.1
					L785,538.1z M784.8,539.2h-6v2.2h6V539.2z M778.8,544.2h6V542h-6V544.2z"/>
				<path class="st2" d="M808,545.2c0.3-0.3,0.5-0.7,0.7-0.7c0.3,0,1.9,1.4,1.9,1.7c0,0.2-0.2,0.3-0.5,0.3h-6.4v8.5
					c0,0.4,0.1,0.5,1,0.5h2.1c1,0,1.7,0,2,0c0.3,0,0.3-0.1,0.4-0.3c0.2-0.4,0.5-2,0.7-3.7h0.3l0,3.8c0.5,0.2,0.6,0.3,0.6,0.7
					c0,0.7-0.7,0.9-4.1,0.9h-2.3c-1.7,0-2.1-0.3-2.1-1.5v-8.9h-2.9c-0.4,5.8-2.2,9.1-8.1,11l-0.1-0.3c5-2.3,6.4-5.5,6.7-10.7h-2.8
					c-1.1,0-2.2,0.1-3.3,0.3l-0.6-1.1c1,0.1,1.9,0.2,2.9,0.2h6.2v-4c0-1.5-0.1-3.3-0.3-4.5c2.5,0.7,2.5,0.9,2.1,1.2l-0.4,0.2v7.2h6
					L808,545.2L808,545.2z M793.4,538.8c5.3,3.2,4.1,7,2.5,5.6c-0.2-1.7-1.6-4-2.8-5.4L793.4,538.8L793.4,538.8z M808.7,539.9
					l-0.4,0.1c-1.3,1.8-2.9,3.7-4.3,4.8l-0.3-0.2c0.3-0.5,0.7-1.1,1.1-1.8c0.7-1.2,1.6-3.2,1.9-4.4l1.3,0.8
					C809.2,539.6,809.2,539.8,808.7,539.9L808.7,539.9z"/>
				<path class="st2" d="M829.1,549.4c0.2-0.3,0.4-0.7,0.6-0.7c0.3,0,1.8,1.2,1.8,1.6c-0.1,0.2-0.3,0.3-0.5,0.3h-5.2v4.5
					c0,0.4,0.1,0.5,0.9,0.5h1.8c0.9,0,1.5,0,1.8,0c0.2,0,0.3-0.1,0.4-0.3c0.1-0.3,0.4-1.5,0.6-2.7h0.3l0,2.8
					c0.5,0.2,0.6,0.3,0.6,0.6c0,0.6-0.6,0.9-3.8,0.9h-2.1c-1.6,0-2-0.4-2-1.5v-4.9h-3.3c-0.3,2.6-1.7,5.2-7,6.9l-0.2-0.3
					c4.1-1.9,5.5-4.2,5.8-6.6h-1.8c-1.1,0-2.2,0.1-3.3,0.3l-0.6-1.1c1,0.1,1.9,0.2,2.9,0.2h2.8c0-0.3,0-0.5,0-0.8v-2.9h-2.5
					l-0.2-0.6c-1.1,0.8-2.4,1.5-3.8,2.1l-0.2-0.3c3.4-1.8,6.1-4.8,7.5-7.9h-1.7c-1.1,0-2.1,0.1-3.1,0.3l-0.6-1.1
					c1,0.1,1.9,0.2,2.9,0.2h2.5l0.4-0.4c0.2-0.2,0.4-0.5,0.6-0.5c0.3,0,1.5,1.1,1.5,1.4c-0.2,0.2-0.4,0.3-0.9,0.3
					c-1.1,2.2-2.7,4.3-5,6h8.8l0.4-0.6c0.2-0.3,0.4-0.6,0.5-0.6c0.3,0,1.6,1.1,1.6,1.5c-0.1,0.2-0.3,0.3-0.5,0.3h-2.2v3.7h2.9
					L829.1,549.4L829.1,549.4z M814.9,540.6c4.3,0.8,3.4,3.9,1.9,3c-0.2-1-1.2-2.1-2.1-2.8L814.9,540.6z M821.2,549.2
					c0,0.3,0,0.5,0,0.8h3.3v-3.7h-3.2L821.2,549.2L821.2,549.2z M832.8,545.8l0,0.2c-0.6,0.1-1.1,0.5-1.3,1.2
					c-3.8-1.8-6.8-5.1-8.1-9.6l0.3-0.2c0.5,1.3,1.1,2.4,2,3.5c1-0.9,2-2.3,2.5-3.3c1.9,1.2,1.9,1.5,1.5,1.5l-0.4,0
					c-0.8,0.7-2.1,1.5-3.3,2.2c0.5,0.6,1.1,1.2,1.8,1.7c1-0.9,2.1-2.2,2.7-3.2c1.9,1.2,1.9,1.5,1.5,1.5l-0.4,0
					c-0.8,0.6-2.1,1.4-3.3,2C829.7,544.4,831.2,545.2,832.8,545.8L832.8,545.8z"/>
				<path class="st2" d="M852.6,540.7c0.2-0.3,0.4-0.5,0.5-0.5c0.3,0,1.5,1.4,1.5,1.7c-0.2,0.2-0.4,0.2-0.8,0.2
					c-0.5,0.7-1.3,1.6-1.9,2.2l-0.3-0.2c0.2-0.6,0.5-1.5,0.7-2.2h-6.8v1.7c0,1.7,0.1,2.3,0.1,3.3c-0.1,0.2-0.6,0.5-1.3,0.5
					c-0.2,0-0.4-0.2-0.4-0.4c0.1-1.1,0.1-1.6,0.2-3.2v-1.8h-6.2c0.1,1.3-0.4,2.2-1,2.6c-0.5,0.3-1.2,0.3-1.5-0.2
					c-0.2-0.5,0.1-0.9,0.5-1.1c0.8-0.4,1.4-1.6,1.2-2.9l0.4,0c0.1,0.3,0.2,0.6,0.2,0.9h6.3v-1.8H841c-1.1,0-2.2,0.1-3.3,0.3
					l-0.6-1.1c1,0.1,1.9,0.2,2.9,0.2h10.1l0.4-0.6c0.2-0.3,0.4-0.6,0.6-0.6c0.3,0,1.8,1.2,1.8,1.5c-0.1,0.2-0.2,0.3-0.5,0.3h-6.9
					v1.8h6.7L852.6,540.7L852.6,540.7z M839.7,546.4c-0.5,0-1,0.1-1.4,0.3l-0.6-1.1c0.8,0.1,1.7,0.2,2.5,0.2h1.2l0.3-0.4
					c0.2-0.2,0.3-0.4,0.5-0.4c0.3,0,1.3,0.8,1.3,1.1c-0.1,0.2-0.3,0.3-0.5,0.3H839.7z M850.4,547.6c0.2-0.2,0.3-0.5,0.5-0.5
					c0.3,0,1.5,1.1,1.5,1.4c-0.1,0.2-0.5,0.3-0.8,0.4v1.8c0,1.8,0.1,2.4,0.1,3.5c-0.2,0.3-0.8,0.6-1.3,0.6h-0.2v-1h-4.8v1.2
					c0,0.7,0.1,0.8,1,0.8h5.4c0.5,0,0.7,0,0.9-0.2c0.2-0.2,0.3-1,0.6-2h0.3l0,2c0.6,0.2,0.7,0.3,0.7,0.5c0,0.6-0.6,0.9-2.5,0.9h-5.3
					c-2,0-2.4-0.3-2.4-2V554h-4.5v0.4c0,0.4,0,0.5,0.1,0.6c-0.1,0.2-0.7,0.6-1.2,0.6c-0.2,0-0.3-0.2-0.3-0.4
					c0.1-0.8,0.1-1.1,0.1-2.3v-1.4c0-1.4-0.1-3-0.3-4.2l1.7,0.8h10.4L850.4,547.6L850.4,547.6z M841.6,543.2
					c0.2-0.2,0.3-0.4,0.5-0.4c0.3,0,1.3,0.8,1.3,1.1c-0.1,0.2-0.3,0.3-0.5,0.3h-1.5c-0.9,0-1.8,0.1-2.7,0.3l-0.6-1.1
					c0.7,0.1,1.5,0.2,2.2,0.2h1L841.6,543.2L841.6,543.2z M844.1,548.8h-4.5v1.9h4.5V548.8z M839.6,553.3h4.5v-2h-4.5V553.3z
					 M850.3,548.8h-4.8v1.9h4.8V548.8z M845.5,553.3h4.8v-2h-4.8V553.3z M850.2,545.3c0.2-0.2,0.3-0.5,0.5-0.5
					c0.3,0,1.4,0.8,1.4,1.2c0,0.2-0.2,0.3-0.5,0.3h-1.7c-1.1,0-2.1,0.1-3.1,0.3l-0.6-1.1c0.8,0.1,1.7,0.2,2.5,0.2h1.2L850.2,545.3
					L850.2,545.3z M848,544.2c-0.4,0-0.8,0.1-1.2,0.3l-0.6-1.1c0.7,0.1,1.5,0.2,2.2,0.2h1l0.3-0.4c0.2-0.2,0.3-0.4,0.5-0.4
					c0.3,0,1.3,0.8,1.3,1.2c0,0.2-0.2,0.3-0.5,0.3L848,544.2L848,544.2z"/>
				<path class="st2" d="M863.2,546.6c0.6,0.4,0.9,1.2,0.6,1.7c-0.3,0.5-1,0.3-1.3,0c-0.8-0.8-1.2-1.1-1.7-1.3
					c-0.8-0.4-1.6-0.6-1.6-0.7c-0.1-0.1,0.1-0.2,0.4-0.2C860.4,545.8,862.1,545.8,863.2,546.6L863.2,546.6z M875.2,543.4
					c0.1-0.1,0.3-0.3,0.5-0.2c0.1,0.1,0,0.3-0.1,0.5c-3.4,5.1-9,9.2-12.1,10.8c-0.8,0.4-1.2,1.5-1.9,0.7c-0.5-0.6-1.2-2.5-1.2-2.7
					c0-0.2-0.1-0.6,0.2-0.6c0.2,0,0.2,0.2,0.5,0.6c0.3,0.3,1.1,0.8,2.4,0.2C867.3,551,872.1,547.5,875.2,543.4z M861.5,541.3
					c0-0.2,0.1-0.2,0.4-0.2c1.1-0.1,2.8,0.3,3.7,1c0.7,0.5,0.8,1.3,0.4,1.8c-0.3,0.4-1.1,0.2-1.3-0.1c-0.8-1-1.2-1.2-2-1.7
					C862.1,541.6,861.6,541.5,861.5,541.3L861.5,541.3z"/>
				<path class="st2" d="M895.7,554.7c-0.5,0.5-1,0-1.5-0.9c-0.8-1.4-1.6-2.4-2.5-3.2c-0.8-0.8-2-1.5-2.7-1.8
					c-2.5,2.7-5.6,5.3-8.8,6.7c-0.2,0.1-0.3,0-0.3-0.1c-0.1-0.2,0.2-0.2,0.2-0.2c4.3-2.4,10.2-9.2,11.1-12.1
					c0.1-0.4-0.1-0.3-0.3-0.3c-1.3-0.1-4.9,1.2-5.2,1.2c-0.3,0.1-0.6,0.3-1,0.2c-1.1-0.3-1.5-1.2-1.6-1.5c-0.1-0.3,0-0.5,0-0.6
					c0.2-0.1,0.3,0.2,0.8,0.4c0.4,0.2,0.8,0.2,1.7,0.1c0.4-0.1,4.7-0.8,5.1-0.9c0.3-0.1,0.4-0.1,0.6-0.2c0.2-0.1,0.5-0.3,0.6-0.3
					s0.3,0.1,0.6,0.3c0.2,0.2,0.9,0.6,1.1,1.1c0.1,0.2,0.1,0.5-0.1,0.7c-0.2,0.1-0.8,0.6-1,0.8c-0.8,1.2-2,2.8-3.5,4.4
					c1.2,0.3,4.3,1.6,6.1,3.9C896,553.4,896.2,554.2,895.7,554.7L895.7,554.7z"/>
				<path class="st2" d="M911.1,546.2c0.1-0.3,0.1-0.6,0-0.9c-0.1-0.2-0.4-0.4-0.6-0.6c-2.8,0.3-3.2,0.9-4.5,1c-0.5,0-1.4-0.3-2-1.3
					c-0.1-0.2-0.2-0.5-0.1-0.6c0.1,0,0.4,0.1,0.6,0.2c0.4,0.1,1.3,0.3,2,0.2c0.5,0,5.8-0.4,7.2-0.8c1.8-0.5,1-0.7,2.2-0.6
					c0.6,0,2.2,0.5,2.2,1.1c0.1,0.5-0.3,0.6-1,0.6c-1.4-0.1-3.5-0.1-5.2,0c0.5,0.3,1,0.6,1.1,0.8c0.5,0.8-0.2,0.7-0.5,1.3
					c-1.5,3.7-3.7,7.6-9.1,9.9c-0.2,0.1-0.4,0.2-0.5,0c0-0.1,0.2-0.2,0.3-0.3C906.6,554.3,909.6,551.2,911.1,546.2L911.1,546.2z
					 M906.8,540.5c-0.3-0.3-0.4-0.5-0.3-0.6c0.1-0.1,0.5,0,0.7,0.1c0.4,0.1,1.1,0,1.8-0.1c2.9-0.3,3-1,4-1.1
					c0.5-0.1,1.6,0.4,1.7,0.9c0.2,0.5-0.4,0.8-1.5,0.7c-1.1-0.1-3.3,0.4-4.3,0.6C908.1,541.3,907.2,540.9,906.8,540.5L906.8,540.5z"
					/>
				<path class="st2" d="M931.2,543.2c0.2-0.7-0.1-1.3-0.4-1.6c-0.2-0.3-0.4-0.3-0.4-0.4c0-0.2,0.6-0.1,0.9-0.1
					c0.5,0.1,1.8,0.7,2.3,1.5c0.6,0.8-0.6,1-1.2,2c-0.5,0.8-2.8,4.9-4.2,7c2.1-0.1,5.7-0.7,9-1.4l0.1,0.1c-0.5-0.8-1.2-1.6-2.2-2.3
					c-0.2-0.1-0.4-0.2-0.3-0.4c0-0.2,0.3-0.1,0.5-0.1c0.3,0.1,4.7,1.4,4.8,4.2c0,1.1-0.6,1.2-1,1.3c-0.4,0-0.9-0.6-1-1.2
					c-0.1-0.2-0.2-0.6-0.5-1.1c-1.8,0.5-8.6,2.3-9.3,2.4c-0.9,0.1-0.8,0.6-1.3,0.6c-0.5,0-1.8-0.6-1.9-2.8c0-0.2,0-0.5,0.1-0.5
					c0.1,0,0.3,0.3,0.4,0.5c0.2,0.2,0.3,0.5,1.6,0.5C928.9,549.2,931.1,544.3,931.2,543.2L931.2,543.2z"/>
				<path class="st2" d="M950.4,541.8c0.2-0.3,0.4-0.6,0.5-0.6c0.3,0,1.5,1.2,1.5,1.5c-0.1,0.2-0.3,0.3-0.5,0.3h-2.4v3.7
					c0.9-0.3,1.8-0.7,2.7-1l0.1,0.3c-0.8,0.5-1.7,1-2.8,1.7v7.8c0,1.2-0.2,1.9-2,2.1c-0.1-0.4-0.2-0.8-0.4-1
					c-0.3-0.2-0.8-0.4-1.6-0.5v-0.4c0,0,1.8,0.2,2.2,0.2c0.3,0,0.5-0.1,0.5-0.4v-6.9c-0.7,0.4-1.5,0.8-2.2,1.2
					c0,0.3-0.2,0.5-0.4,0.6l-0.7-1.8c0.7-0.2,1.9-0.6,3.4-1.2v-4.2h-1c-0.6,0-1.1,0.1-1.7,0.3l-0.5-1.1c0.7,0.1,1.4,0.2,2.2,0.2h1
					v-0.6c0-1.5-0.1-3.3-0.3-4.5c2.4,0.7,2.4,0.9,2,1.1l-0.4,0.2v3.7h0.5L950.4,541.8L950.4,541.8z M950.5,549.7l-0.2-0.3
					c1.4-0.9,2.9-2.3,4.1-3.8c0.9-1.1,1.8-2.5,2-3.8c2.5,0.6,2.5,0.8,2.2,1l-0.4,0.1c1.4,2,4,3.6,6.6,4.6l0,0.3
					c-0.6,0.2-1,0.7-1.1,1.2c-2.4-1.4-4.6-3.5-5.7-5.9C956.4,545.7,953.4,548.3,950.5,549.7L950.5,549.7z M962.5,539.5
					c0.2-0.3,0.4-0.6,0.5-0.6c0.3,0,1.5,1.1,1.5,1.5c-0.1,0.2-0.2,0.3-0.5,0.3h-3.4v0.6c0,0.6,0,0.8,0.1,1.1
					c-0.1,0.3-0.7,0.6-1.2,0.6c-0.3,0-0.3-0.2-0.3-0.4c0-0.3,0-0.5,0.1-1.1v-0.8h-3.9v0.6c0,0.6,0,0.8,0.1,1.1
					c-0.1,0.3-0.7,0.6-1.2,0.6c-0.2,0-0.3-0.2-0.3-0.4c0-0.3,0-0.5,0.1-1.1v-0.8h-1c-0.7,0-1.2,0.1-1.8,0.3l-0.5-1.1
					c0.8,0.1,1.5,0.2,2.3,0.2h1.1c0-0.9,0-1.9-0.2-2.6c2.2,0.7,2.2,0.9,1.9,1.1l-0.4,0.2v1.3h3.9c0-0.9,0-1.9-0.2-2.6
					c2.3,0.7,2.3,0.9,1.9,1.1l-0.4,0.2v1.3h1.4L962.5,539.5L962.5,539.5z M954.3,557.1c0,0.2-0.6,0.5-1.1,0.5
					c-0.2,0-0.3-0.2-0.3-0.4c0.1-0.7,0.1-1,0.1-2.1v-1.2c0-1.2-0.1-2.8-0.2-3.9l1.7,0.8h6.2l0.3-0.4c0.2-0.2,0.3-0.4,0.5-0.4
					c0.3,0,1.6,1,1.6,1.4c-0.2,0.2-0.5,0.3-0.9,0.4v1.8c0,1.8,0.1,2.4,0.1,3.4c-0.2,0.2-0.8,0.6-1.3,0.6c-0.2,0-0.3-0.2-0.3-0.4
					c0-0.1,0-0.2,0.1-0.4v-0.4h-6.5L954.3,557.1L954.3,557.1z M956.4,548.5c-0.7,0-1.3,0.1-1.9,0.3l-0.5-1.1c1,0.1,1.9,0.2,2.9,0.2
					h2l0.3-0.5c0.2-0.3,0.3-0.5,0.5-0.5c0.3,0,1.5,1.1,1.5,1.4c-0.1,0.2-0.2,0.3-0.5,0.3L956.4,548.5L956.4,548.5z M954.3,555.5h6.5
					v-4.1h-6.5V555.5z"/>
				<path class="st2" d="M984.2,542.1c0.2-0.3,0.4-0.7,0.6-0.7c0.3,0,1.8,1.3,1.8,1.6c-0.1,0.2-0.2,0.3-0.5,0.3h-5.6
					c0.2,2.7,0.5,5.3,1.3,7.4c0.2-0.5,0.5-1,0.7-1.6c0.5-1.3,0.9-3.2,1-4.4c2.4,0.6,2.4,0.8,2,1l-0.4,0.1c-0.5,2-1.4,4.2-2.7,6.1
					c0.6,1.3,1.4,2.4,2.4,3.1c0.3,0.3,0.4,0.3,0.6-0.2c0.2-0.5,0.6-1.6,0.8-2.5l0.3,0l-0.3,3.3c0.6,0.8,0.6,1.1,0.5,1.4
					c-0.5,0.7-1.7,0.1-2.5-0.7c-1.1-0.9-2-2-2.6-3.3c-1.2,1.6-2.8,3.1-4.8,4.1l-0.2-0.3c1.9-1.3,3.5-3,4.6-4.9
					c-1-2.4-1.5-5.5-1.7-8.9H971c-1.1,0-2.2,0.1-3.3,0.3l-0.6-1.1c1,0.1,1.9,0.2,2.9,0.2h2.3v-2.1h-1.2c-0.8,0-1.5,0.1-2.2,0.3
					l-0.5-1.1c0.9,0.1,1.8,0.2,2.7,0.2h1.3c0-0.9,0-1.9-0.2-2.6c2.2,0.7,2.2,0.9,1.9,1.1l-0.4,0.2v1.2h1.9l0.4-0.6
					c0.2-0.3,0.4-0.6,0.6-0.6c0.3,0,1.6,1.2,1.6,1.5c-0.1,0.2-0.3,0.3-0.5,0.3h-4v2.1h5.4c-0.1-1.7-0.2-3.5-0.2-5.3
					c2.2,0.2,2.2,0.4,1.8,0.7l-0.4,0.2c0,1.5,0,3,0.1,4.4h3.3L984.2,542.1L984.2,542.1z M976.8,553.4c0.2-0.3,0.4-0.6,0.6-0.6
					c0.3,0,1.6,1.1,1.6,1.4c-0.1,0.2-0.3,0.3-0.5,0.3h-4.8v0.8c0,0.8,0,1.1,0.1,1.5c-0.1,0.3-0.7,0.6-1.1,0.6
					c-0.2,0-0.3-0.2-0.3-0.4c0.1-0.5,0.1-0.8,0.1-1.5v-1h-1.6c-1,0-2,0.1-3,0.3l-0.6-1.1c1,0.1,1.9,0.2,2.9,0.2h2.2v-1.7h-2.3v0.2
					c0,0.1-0.5,0.4-1,0.4c-0.2,0-0.3-0.2-0.3-0.4c0.1-0.5,0.1-0.8,0.1-1.6v-1c0-1-0.1-2.3-0.2-3.1l1.5,0.8h2.2v-1.4H971
					c-0.9,0-1.8,0.1-2.6,0.3l-0.6-1.1c1,0.1,1.9,0.2,2.9,0.2h1.7c0-0.6,0-1.3-0.1-1.9c2,0.7,2,0.9,1.7,1.1l-0.3,0.2v0.6h2.4l0.4-0.5
					c0.2-0.3,0.4-0.5,0.5-0.5c0.3,0,1.6,1,1.6,1.3c0,0.2-0.3,0.3-0.5,0.3h-4.4v1.4h2.2l0.3-0.3c0.2-0.2,0.3-0.3,0.4-0.3
					c0.3,0,1.3,0.8,1.3,1.1c-0.1,0.1-0.3,0.3-0.7,0.3v1.3c0,1.3,0,1.8,0.1,2.6c-0.1,0.3-0.8,0.6-1.2,0.6H976v-0.5h-2.3v1.7h2.8
					L976.8,553.4L976.8,553.4z M972.4,548.2h-2.3v1.4h2.3V548.2z M970.1,551.7h2.3v-1.4h-2.3V551.7z M976,548.2h-2.3v1.4h2.3V548.2z
					 M973.7,551.7h2.3v-1.4h-2.3V551.7z M981.5,538.3c4.6,0.7,3.8,3.7,2.4,2.9c-0.4-1-1.6-2.1-2.6-2.7L981.5,538.3L981.5,538.3z"/>
			</g>
			<g>
				<path class="st2" d="M742.2,320.4c0.2-0.3,0.3-0.5,0.5-0.5c0.3,0,1.7,1.2,1.7,1.6c-0.2,0.2-0.5,0.4-1,0.5v2.9
					c0,2.6,0.1,3.5,0.2,5.2c-0.2,0.2-0.9,0.5-1.4,0.5c-0.2,0-0.4-0.2-0.4-0.4c0.1-1.8,0.2-2.7,0.2-5.5v-3h-7.2
					c-0.4,3.5-1.6,6.7-4.8,8.8l-0.2-0.3c3.2-2.9,3.8-7,3.8-11.4v-3.9c0-1.3-0.1-2.9-0.2-4c2.3,0.7,2.3,0.9,2,1.1l-0.3,0.2v3.9h5.7
					v-1.5c0-1.5-0.1-3.3-0.3-4.5c2.4,0.7,2.4,0.9,2.1,1.1l-0.3,0.2v4.7h4.3l0.5-0.7c0.3-0.3,0.5-0.7,0.6-0.7c0.3,0,1.8,1.3,1.8,1.6
					c-0.1,0.2-0.3,0.4-0.5,0.4H735v1.9c0,0.7,0,1.5-0.1,2.2h7L742.2,320.4L742.2,320.4z"/>
				<path class="st2" d="M751.9,315.3c4.5,0.6,3.6,3.7,2.1,2.9c-0.3-1-1.4-2.1-2.3-2.6L751.9,315.3L751.9,315.3z M753.2,324.2
					c0.3,0,0.3,0,0.5-0.4c0.2-0.5,1.5-3.5,3.9-9l0.4,0.1c-0.8,2.5-2.5,7.4-2.8,8.4c-0.2,0.7-0.3,1.3-0.3,1.9c0,1,0.6,2,0.5,3.8
					c-0.1,1-0.5,1.5-1.2,1.5c-0.4,0-0.6-0.4-0.7-1.1c0.3-2.2,0.2-4-0.3-4.3c-0.3-0.2-0.6-0.3-1-0.3v-0.5L753.2,324.2L753.2,324.2z
					 M753.6,310.5c4.6,0.7,3.8,4,2.2,3.1c-0.3-1-1.5-2.2-2.4-2.9L753.6,310.5z M759.3,319.9c2.1,0.7,2.1,0.9,1.7,1.1l-0.3,0.2v1.7
					c0,2.6-0.7,5.8-4.6,7.6l-0.2-0.3c3-1.9,3.5-4.8,3.5-7.3v-1.4C759.3,321,759.3,320.3,759.3,319.9L759.3,319.9z M768.9,312.4
					c0.2-0.3,0.4-0.7,0.6-0.7c0.3,0,1.7,1.3,1.7,1.6c-0.1,0.2-0.3,0.4-0.5,0.4h-6.6c-0.7,1.2-1.7,2.6-2.5,3.8
					c1.7-0.1,3.7-0.2,5.8-0.3c-0.7-0.8-1.4-1.5-2.1-2.1l0.2-0.2c5.8,2.2,5.1,5.7,3.5,4.8c-0.3-0.6-0.7-1.3-1.2-2
					c-2.2,0.4-5.2,0.9-9,1.4c-0.1,0.3-0.3,0.4-0.5,0.4l-0.7-1.9c0.8,0,1.9,0,3.2-0.1c0.5-1.2,1.1-2.7,1.5-3.8h-1.6c-1,0-2,0.1-3,0.3
					l-0.6-1.1c1,0.1,1.9,0.1,2.9,0.2h2.9c0-0.9,0-2-0.2-2.8c2.3,0.7,2.3,0.9,1.9,1.1l-0.4,0.2v1.4h4.2L768.9,312.4L768.9,312.4z
					 M763,324.4c0-1.5-0.1-3.3-0.3-4.5c2.3,0.7,2.3,0.9,2,1.1l-0.4,0.2v2.5c0,2.6,0.1,3.5,0.2,5.2c-0.2,0.3-0.7,0.6-1.2,0.6
					c-0.3,0-0.4-0.2-0.4-0.4c0.1-0.9,0.1-1.3,0.2-2.7L763,324.4L763,324.4z M766.8,324.3c0-1.5-0.1-3.3-0.3-4.5
					c2.2,0.7,2.2,0.9,1.9,1.1l-0.3,0.2v7.3c0,0.3,0,0.4,0.4,0.4h1.4c0.2,0,0.2-0.1,0.3-0.3c0.1-0.4,0.3-1.9,0.6-3.2h0.3l0,3.3
					c0.4,0.2,0.5,0.4,0.5,0.6c0,0.5-0.5,0.9-2.4,0.9h-1c-1.1,0-1.4-0.4-1.4-1.3L766.8,324.3L766.8,324.3z"/>
				<path class="st2" d="M793.7,323.4c-2,3.9-3.8,4-4.9,3.9c-1.3-0.1-2-1.1-2.3-2c-0.3-1.5,0.8-5.4,1-6.4c0.2-1.1,0.5-2.3-0.1-3
					c-1.1-1.1-3.9,0.6-5.2,1.7c-0.9,0.7-1.8,1.8-2.7,3c-0.1,1.8-0.2,3.6-0.1,4.7c0.2,2.2,0.4,2.6,0.3,3.2c-0.1,0.5-0.4,0.6-0.7,0.6
					c-0.3,0-0.9-0.6-1-1.2c-0.1-0.7-0.3-1.2-0.7-2.2c-0.1-0.2-0.2-0.5-0.4-0.9c-0.3,0.7-0.7,1.4-1,1.7c-0.5,0.5-0.8,0.6-1,0.4
					c-0.3-0.3,0-1.3,0.6-2.4c0.2-0.3,0.4-0.6,0.7-1.1c-0.7-1.5-1.3-3.2-1.1-4.3c0.1-0.4,0.3-0.7,0.7-1c0.5-0.4,1.9-0.9,3.1-1.2
					c0.1-1.2,0.1-2.2,0.1-2.5c0-0.4-0.1-1-0.6-1.7c-0.3-0.4-0.8-0.6-0.8-0.7c0-0.2,0.4-0.1,0.8-0.1c0.5,0.1,1.5,0.4,1.8,1.3
					c0.2,0.6-0.2,1.7-0.4,2.9c0,0.1-0.1,0.4-0.1,0.7c0.2,0,0.4,0,0.6,0c0.3,0,0.6,0.5,0.3,1.4c0.9-1,2.2-2.2,3.6-2.9
					c1.2-0.6,2.8-1.1,4-0.1c1.1,1,0.9,2.3,0.3,4.4c-0.7,2.8-1.3,5.8,0,6.5c1.1,0.5,2.6,0.4,4.9-2.8c0.1-0.1,0.3-0.4,0.4-0.4
					C794,322.9,793.8,323.2,793.7,323.4L793.7,323.4z M776.5,322.8c0.8-1.1,1.7-2.5,2.1-3.5c0-0.1,0.1-0.1,0.1-0.2
					c0-0.4,0-0.8,0.1-1.1c-0.1,0-0.2,0-0.3,0c-0.5,0-2.8,0.5-2.8,1.7C775.6,320.5,776.1,321.7,776.5,322.8L776.5,322.8z
					 M778.5,321.8c0,0.1-0.1,0.1-0.1,0.2c-0.4,0.6-0.7,1.1-0.8,1.4c-0.1,0.2-0.3,0.5-0.4,0.9c0.5,1.1,1.1,1.9,1.1,1.9
					c0.2,0,0.1-1.1,0.2-2.7C778.4,323,778.5,322.4,778.5,321.8L778.5,321.8z"/>
				<path class="st2" d="M812.4,317.3c0.2-0.3,0.4-0.6,0.6-0.6c0.3,0,1.8,1.1,1.8,1.5c-0.1,0.2-0.3,0.4-0.5,0.4h-7.9
					c-0.7,1-1.5,2-2.1,2.9c1.9,0,4.2-0.1,6.6-0.2c-0.7-0.6-1.5-1.1-2.3-1.5l0.2-0.3c6,1.1,5.7,4.6,4.1,3.9c-0.3-0.5-0.8-1.1-1.4-1.6
					c-2.3,0.3-5.5,0.7-9.9,1.1c-0.1,0.3-0.3,0.4-0.5,0.5l-1-1.8c0.8,0,1.9,0,3.3,0c0.4-0.9,0.9-2,1.3-2.9h-4.8
					c-0.1,3.8-0.7,8.5-3.6,11.9l-0.3-0.2c2.3-4,2.6-9,2.6-13.4v-3c0-1,0-2.2-0.2-3.1l1.8,0.8h11.6l0.3-0.4c0.2-0.2,0.3-0.4,0.5-0.4
					c0.3,0,1.7,1,1.7,1.3c-0.2,0.2-0.5,0.4-0.9,0.4v1.2c0,1.2,0,1.6,0.1,2.3c-0.2,0.3-0.8,0.6-1.3,0.6h-0.2v-0.7h-12.1v2H812
					L812.4,317.3L812.4,317.3z M811.7,324.7c0.2-0.3,0.4-0.6,0.6-0.6c0.3,0,1.7,1.2,1.7,1.5c-0.1,0.2-0.3,0.3-0.5,0.3h-6v3h5.2
					l0.4-0.7c0.2-0.3,0.4-0.7,0.6-0.7c0.3,0,1.8,1.3,1.8,1.6c0,0.2-0.2,0.3-0.5,0.3h-12.6c-1.1,0-2.2,0.1-3.3,0.3l-0.6-1.1
					c1,0.1,1.9,0.1,2.9,0.2h4.8v-3h-2.1c-1.1,0-2.2,0.1-3.3,0.3l-0.6-1.1c1,0.1,1.9,0.1,2.9,0.2h3.1c0-0.8,0-1.9-0.2-2.6
					c2.2,0.7,2.2,0.9,1.8,1.1l-0.3,0.2v1.2h3.8L811.7,324.7L811.7,324.7z M811.9,312.2h-12.1v3h12.1V312.2z"/>
				<path class="st2" d="M823.8,314.8c0.2-0.3,0.4-0.6,0.6-0.6c0.3,0,1.5,1.2,1.5,1.6c0,0.2-0.2,0.4-0.5,0.4h-2.7v2.8
					c4.1,2,3,4.6,1.7,3.6c-0.2-1-1-2.2-1.7-3.1v5.3c0,2.6,0.1,3.5,0.2,5.2c-0.2,0.3-0.8,0.6-1.2,0.6c-0.3,0-0.5-0.2-0.5-0.4
					c0.1-1.9,0.2-2.9,0.2-5.7v-4.4c-0.8,2-1.9,3.9-3.3,5.5l-0.3-0.3c1.7-2.5,2.7-5.8,3.3-9.1h-0.9c-0.6,0-1.1,0.1-1.6,0.3l-0.6-1.1
					c0.8,0.1,1.5,0.1,2.3,0.2h1.1v-0.7c0-1.5-0.1-3.3-0.3-4.5c2.4,0.7,2.4,0.9,2,1.2l-0.4,0.2v3.8h0.7L823.8,314.8L823.8,314.8z
					 M834.2,311.1c0.2-0.2,0.3-0.5,0.5-0.5c0.3,0,1.6,1.1,1.6,1.5c-0.1,0.2-0.5,0.4-0.9,0.4v2.6c0,2.6,0.1,3.5,0.2,5.1
					c-0.2,0.3-0.9,0.7-1.3,0.7h-0.2v-1h-3.7c0.4,1.5,1,3,1.8,4.2l0.5-0.4c1.1-1,2.3-2.3,2.9-3.4c1.7,1.5,1.7,1.8,1.4,1.7l-0.3,0
					c-0.9,0.6-2.5,1.7-4.2,2.5c1.3,1.9,3,3.4,5.1,4.2l0,0.2c-0.5,0.1-1,0.6-1.2,1.3c-3.5-1.9-5.4-5.4-6.3-10.3H828v7.9
					c1.2-0.3,2.7-0.7,4.1-1.1l0,0.4c-1.6,0.7-3.7,1.7-6.7,2.9c-0.1,0.3-0.2,0.5-0.5,0.5l-0.8-1.8c0.5-0.1,1.4-0.3,2.4-0.6v-12.9
					c0-1.5-0.1-3.3-0.3-4.5l1.7,0.8h5.8L834.2,311.1L834.2,311.1z M834.1,312.2H828v3.1h6.2V312.2z M828,315.9v3.3h6.2v-3.3H828z"/>
				<path class="st2" d="M851.8,321.2c-0.1,1.4-0.8,4.9-2.2,6.2c-0.5,0.5-1.3,1.1-1.7,0.9c-0.4-0.2-0.5-0.5-0.8-1.1
					c-0.2-0.4-0.4-0.7-1.1-1.7c-0.1-0.2-0.3-0.4-0.2-0.4c0.1-0.1,0.4,0.1,0.9,0.5c0.5,0.4,1,0.8,1.3,0.8c0.5,0,1.2-0.3,2-2.9
					c0.8-2.5,1-5-0.1-5.8c-0.6-0.4-2.1,0.1-3.1,0.5c-0.5,2.2-1.5,5.3-3.3,8.3c-0.5,0.9-1.2,1.3-1.7,0.8c-0.3-0.4-0.1-1,0.7-2.2
					c1.9-2.5,2.7-4.9,3.1-6.5c-1,0.4-2.2,0.9-2.6,1c-0.3,0.1-1.3,0.1-2.1-1.2c-0.2-0.3-0.3-0.7-0.1-0.8c0.2-0.1,0.3,0.1,0.6,0.2
					c0.6,0.3,1,0.3,1.3,0.3c0.6,0,2-0.3,3.2-0.8c0-0.2,0.1-0.3,0.1-0.5c0.3-1.2,0.4-2.8-0.2-3.6c-0.2-0.2-0.7-0.7-0.6-0.9
					c0.1-0.4,1.8-0.1,2.2,0.2c0.6,0.6,0.2,1.6,0.1,2.3c0,0.3-0.1,1-0.3,2c1.1-0.4,2.7-0.7,3.6,0C851.9,318,852,319.6,851.8,321.2
					L851.8,321.2z M859.4,320c0.1,1.6-1.1,2-1.3,2c-0.2,0-0.3-0.1-0.8-0.4c-0.4-0.3-2-0.5-2.1-0.5s-0.3,0-0.3-0.1
					c0-0.1,0.2-0.1,0.2-0.1s1.3-0.1,1.6-0.2c0.3-0.1,0.6-0.2,0.9-0.4c0.2-0.2,0.2-1.2-0.7-2.1c-0.8-0.8-2.2-1.4-2.5-1.5
					c-0.1,0-0.2,0-0.2-0.1c0-0.1,0.2,0,0.3,0C857.6,316.7,859.3,318.5,859.4,320L859.4,320z M855,313.6c0-0.2,0.5-0.2,0.8-0.2
					c0.3,0,2.4,0.1,2.8,1.4c0.1,0.4,0.1,0.6-0.2,0.8c-0.2,0.1-0.8,0.1-1.1-0.3c-0.4-0.5-0.7-1-1.7-1.4
					C855.4,313.8,855,313.7,855,313.6L855,313.6z M860.2,313.5c-0.2,0.1-0.7,0.1-1.1-0.2c-0.4-0.5-0.9-1-1.8-1.2
					c-0.2-0.1-0.6-0.1-0.6-0.3c0-0.2,0.5-0.2,0.8-0.2c0.2,0,2.5,0,2.9,1.4C860.5,313.3,860.4,313.5,860.2,313.5L860.2,313.5z"/>
				<path class="st2" d="M861.8,324.6l-0.2-0.2c1.9-1.7,3.7-4.2,4.6-6.7c-0.2-0.8-0.4-1.5-0.7-2.2c-1.1,1-2.3,2-3.5,2.7l-0.2-0.3
					c1.1-1,2.3-2.2,3.3-3.5c-0.6-1.1-1.5-2.2-2.6-3.2l0.3-0.3c1.2,0.8,2.1,1.7,2.8,2.7c0.8-1.1,1.5-2.5,1.8-3.6
					c2.2,1.1,2.2,1.3,1.8,1.4l-0.4,0c-0.6,1-1.5,2.1-2.4,3.1c1.3,2.2,1.6,4.8,1.7,7.6c0.1,2.8-0.2,5.9-1.2,7.3
					c-0.4,0.6-1.1,0.9-2.2,0.9c0-0.5-0.1-0.8-0.4-1c-0.3-0.2-0.9-0.4-1.7-0.6v-0.4c0,0,1.7,0.1,2.6,0.1c0.4,0,0.5-0.1,0.7-0.3
					c0.6-0.9,0.9-3.6,0.9-6c0-0.7,0-1.4,0-2.1C865.5,321.8,863.7,323.5,861.8,324.6L861.8,324.6z M879.1,314.2
					c0.2-0.2,0.3-0.5,0.5-0.5c0.3,0,1.6,1.1,1.6,1.5c-0.1,0.2-0.5,0.4-0.9,0.4v2.2c0,2.2,0.1,3,0.2,4.3c-0.2,0.2-0.8,0.5-1.3,0.5
					c-0.2,0-0.3-0.2-0.3-0.4c0-0.1,0-0.1,0.1-0.3v-0.4h-3.6v5.9c1.2-0.1,2.5-0.3,3.8-0.5c-0.5-1.2-1.2-2.3-1.8-3.1l0.3-0.2
					c5.4,3.6,4.1,7.8,2.5,6.3c-0.1-0.8-0.3-1.7-0.7-2.6c-2.4,0.6-5.7,1.4-9.9,2.3c-0.1,0.3-0.3,0.4-0.5,0.5l-0.6-2
					c1.1-0.1,3.3-0.3,5.8-0.6v-6h-3.4v0.4c0,0.4,0,0.6,0.1,0.7c-0.1,0.3-0.6,0.6-1.2,0.6c-0.2,0-0.4-0.2-0.4-0.4
					c0.1-1,0.1-1.4,0.2-2.9v-1.6c0-1.5-0.1-3.3-0.3-4.5l1.7,0.8h3.3c0-1.5-0.1-3.3-0.3-4.4c2.3,0.7,2.3,0.9,1.9,1.1l-0.3,0.2v3.1
					h3.4L879.1,314.2L879.1,314.2z M870.7,320.9h3.4v-5.6h-3.4V320.9z M879,315.3h-3.6v5.6h3.6V315.3z"/>
				<path class="st2" d="M891.8,314.3c0.2-0.3,0.4-0.5,0.5-0.5c0.3,0,1.5,1.1,1.5,1.4c0,0.2-0.2,0.4-0.5,0.4h-5.6l-0.2-0.5
					c-1.1,1.1-2.3,2.1-3.7,2.8l-0.2-0.3c1.2-1,2.4-2.3,3.5-3.6c0.9-1.2,1.6-2.7,1.9-3.9c2.5,0.8,2.5,1,2,1.1l-0.4,0.1
					c6.6,1.8,5.3,5.1,4,4.3c-0.6-1.3-2.1-2.9-4.2-4c-0.7,1.1-1.7,2.3-2.8,3.4h3.7L891.8,314.3L891.8,314.3z M893.7,323.9
					c0.2-0.2,0.3-0.5,0.5-0.5c0.3,0,1.5,1.1,1.5,1.4c-0.1,0.2-0.5,0.4-0.8,0.4v1.5c0,1.5,0,2,0.1,2.8c-0.1,0.2-0.8,0.5-1.2,0.5
					c-0.2,0-0.3-0.2-0.3-0.4c0-0.1,0-0.2,0.1-0.4v-0.4h-5.4v1.1c0,0.1-0.4,0.5-1.1,0.5c-0.2,0-0.3-0.2-0.3-0.4
					c0.1-1,0.1-1.5,0.2-2.9v-1.7c-0.5,1.5-1.4,3.1-2.8,4.3l-0.2-0.2c2.1-2.8,2.4-6.2,2.4-9.2v-1.9c0-0.7,0-1.4-0.1-2l1.7,0.8h5.6
					l0.3-0.4c0.2-0.2,0.3-0.4,0.5-0.4c0.3,0,1.6,1,1.6,1.3c-0.2,0.2-0.5,0.4-0.9,0.5v1.6c0,1.6,0.1,2.1,0.1,3
					c-0.2,0.2-0.8,0.5-1.2,0.5h-0.2v-0.7h-6.1c0,0.4-0.1,0.9-0.2,1.3l1.2,0.5h5L893.7,323.9L893.7,323.9z M887.5,320.2
					c0,0.5,0,1.1,0,1.7h6v-1.8L887.5,320.2L887.5,320.2z M893.5,317.7h-6v1.7h6V317.7z M893.6,325h-5.4v3.2h5.4V325z M897.2,316.6
					c0-1.5-0.1-3.3-0.3-4.5c2.3,0.7,2.3,0.9,2,1.1l-0.4,0.2v6.8c0,2.6,0.1,3.5,0.2,5.2c-0.2,0.3-0.7,0.6-1.2,0.6
					c-0.3,0-0.4-0.2-0.4-0.4c0.1-1.4,0.1-2.1,0.2-4.1L897.2,316.6L897.2,316.6z M900.9,315.1c0-1.5-0.1-3.3-0.3-4.5
					c2.4,0.7,2.4,0.9,2,1.1l-0.4,0.2v16.4c0,1.2-0.2,1.9-2.1,2.1c-0.1-0.4-0.2-0.8-0.5-1c-0.3-0.2-0.8-0.4-1.7-0.5v-0.4
					c0,0,2,0.2,2.4,0.2c0.3,0,0.5-0.1,0.5-0.5V315.1L900.9,315.1z"/>
				<path class="st2" d="M911.8,314.3l0.3-0.4c0.2-0.2,0.3-0.5,0.5-0.5c0.3,0,1.6,1.1,1.6,1.4c-0.2,0.2-0.5,0.3-1,0.4v7.7
					c0,2.6,0.1,3.5,0.2,5.2c-0.2,0.2-0.8,0.6-1.3,0.6c-0.2,0-0.3-0.2-0.3-0.4c0-0.2,0-0.3,0.1-0.6v-0.5h-3.8v0.5c0,0.5,0,0.7,0.1,1
					c-0.1,0.3-0.6,0.6-1.2,0.6c-0.2,0-0.4-0.2-0.4-0.4c0.1-1.9,0.2-2.9,0.2-5.7V318c0-1.5-0.1-3.3-0.3-4.5l1.7,0.8h0.8
					c0.3-1.3,0.6-3,0.6-4.1c2.4,0.6,2.4,0.8,2,1l-0.4,0.2c-0.4,0.9-1.1,2.1-1.6,3L911.8,314.3L911.8,314.3z M912,314.9h-3.8v5.3h3.8
					V314.9z M908.2,326.4h3.8v-5.6h-3.8V326.4z M922.9,314.2l0.4-0.5c0.2-0.2,0.4-0.5,0.5-0.5c0.3,0,1.6,1.2,1.6,1.5
					c-0.2,0.2-0.4,0.3-0.9,0.4c-0.3,7.8-1,12.8-2.2,14.1c-0.7,0.8-1.5,1.1-2.6,1.1c0-0.4-0.1-0.8-0.4-1.1c-0.3-0.3-1.3-0.5-2.2-0.7
					l0-0.4c1,0.1,2.5,0.3,3,0.3s0.7-0.1,1-0.4c1-0.9,1.6-5.9,1.9-13.2h-6.2c-0.9,1.8-1.9,3.4-3.1,4.6l-0.3-0.2
					c0.8-1.2,1.5-2.7,2.1-4.4c0.5-1.4,1-3.5,1-4.7c2.4,0.7,2.4,1,2,1.1l-0.4,0.1c-0.3,1-0.7,1.9-1.1,2.8L922.9,314.2L922.9,314.2z
					 M916.3,318.3c5.3,2.4,4.1,5.9,2.6,4.7c-0.3-1.5-1.7-3.4-2.8-4.5L916.3,318.3L916.3,318.3z"/>
				<path class="st2" d="M934.9,315.2c-1.1,2.9-3.3,8.4-3.6,9.3c-0.2,0.5-1,0.8-1.2,0.4c-0.1-0.1-0.2-0.5-0.2-1.1
					c0-0.3,0.2-0.5,0.6-1.2c0,0,2.3-4,3.3-7.1c0,0-0.1,0-0.1,0c-2.3,0.4-2.8-1.1-3.1-1.4c-0.1-0.1-0.1-0.3-0.1-0.4
					c0,0,0.2-0.1,0.4,0.1c0.4,0.4,1.2,0.5,2,0.4c0.3,0,0.8-0.2,1.3-0.3c0-0.1,0-0.1,0-0.2c0.1-1.1,0.1-1.4-0.2-1.8
					c-0.3-0.4-1-0.4-0.8-0.8c0.1-0.1,0.5-0.2,1.1,0c0.5,0.2,1.6,0.4,1.1,2.2c0.2-0.1,0.3-0.1,0.3-0.1c0,0,0.3-0.2,0.4-0.3
					c0,0,0.1-0.1-0.2-0.3c0,0-0.4-0.2-0.4-0.3c0-0.3,0.7-0.2,0.9-0.2c0.3,0,0.5,0,0.8,0c0.3,0,0.5,0.1,0.7,0.4
					c0.1,0.2,0,0.9-0.3,1.1C936.5,314.4,935.6,314.9,934.9,315.2L934.9,315.2z M944.4,318.1c-0.5,0-0.9-0.3-1.2-0.5
					c-0.3-0.2-1.1-0.5-1.7-0.3c-0.3,0.1-1.3,0.6-1.6,1.9c-0.2,0.7,0,2.4,0,2.4c0.1,1.1,0.3,2,0.4,3.4c1.7,0.4,3.1,1.2,3.4,1.5
					c0.6,0.6,0.6,1.1,0.3,1.3c-0.3,0.3-0.8,0.1-1.5-0.4c-0.7-0.5-1.4-0.8-2.1-1.1c0,0.2,0,0.4,0,0.6c0,1.2-1,2.4-3,2.5
					c-2.2,0.1-3.2-1.4-3.3-2.1c-0.1-0.8,0.3-1.9,2-2.5c0.9-0.3,2-0.3,3-0.1c-0.2-1.4-0.2-3.6-0.2-4.1c0-1,0.2-1.6,0.7-2.4
					c0.6-1.1,2.2-1.5,2.8-1.7c1.1-0.4-0.5-1.6-0.7-1.8c-0.1-0.2,0.7-0.1,1.1,0.1c0.7,0.3,1.5,0.8,2,1.7
					C945.4,317.3,945,318.1,944.4,318.1L944.4,318.1z M939.2,326c-1.7-0.4-2.9-0.1-3.3,0.1c-0.6,0.2-0.8,0.6-0.8,0.8
					c-0.1,0.8,0.7,1.4,1.7,1.4c1.8,0.1,2.1-0.7,2.3-1.5C939.2,326.7,939.2,326.4,939.2,326L939.2,326z"/>
				<path class="st2" d="M958.2,324.1c0.2-0.3,0.4-0.5,0.5-0.5c0.3,0,1.5,1.1,1.5,1.4c-0.1,0.2-0.3,0.4-0.5,0.4h-3.9v2.1
					c1.4-0.2,2.9-0.5,4.5-0.7l0.1,0.4c-2.2,0.7-5.2,1.6-9.2,2.6c-0.1,0.3-0.3,0.4-0.5,0.5l-0.8-2c1-0.1,2.6-0.3,4.7-0.6v-2.3h-1.4
					c-0.9,0-1.7,0.1-2.6,0.3l-0.5-1.1c1,0.1,1.9,0.1,2.9,0.2h1.6v-2.1H952v0.5c0,0.1-0.4,0.4-1,0.4c-0.2,0-0.3-0.2-0.3-0.4
					c0.1-0.7,0.1-1,0.1-2.1v-1.3c0-1.2-0.1-2.8-0.2-3.9l1.7,0.8h2.3v-1.7H953c-1,0-1.8,0.1-2.8,0.3l-0.5-1.1c1,0.1,1.9,0.1,2.9,0.2
					h1.9v-1.8c-1.5,0.2-3,0.3-4.5,0.3l-0.1-0.4c1.5-0.2,3.3-0.5,4.9-1c1.4-0.4,2.8-0.8,3.9-1.5c1.5,1.7,1.5,2,1,1.9l-0.5-0.1
					c-1,0.2-2.1,0.4-3.4,0.5v2h2.5l0.4-0.6c0.2-0.3,0.4-0.6,0.6-0.6c0.3,0,1.6,1.1,1.6,1.5c0,0.2-0.3,0.4-0.5,0.4h-4.6v1.7h2.6
					l0.3-0.4c0.2-0.2,0.2-0.4,0.4-0.4c0.3,0,1.4,0.8,1.4,1.1c-0.1,0.2-0.3,0.3-0.7,0.4v1.8c0,1.8,0.1,2.4,0.1,3.5
					c-0.1,0.2-0.6,0.5-1.2,0.5h-0.2v-0.5h-2.7v2.1h2L958.2,324.1L958.2,324.1z M954.6,317.2H952v2h2.6V317.2z M952,321.9h2.6v-2H952
					V321.9z M958.5,317.2h-2.7v2h2.7V317.2z M955.8,321.9h2.7v-2h-2.7V321.9z M967,315.6l0.3-0.5c0.2-0.2,0.3-0.5,0.5-0.5
					c0.3,0,1.5,1.1,1.5,1.4c-0.1,0.2-0.4,0.3-0.8,0.4c-0.1,7.9-0.4,11.8-1.3,12.9c-0.5,0.7-1.3,1-2.2,1c0-0.5-0.1-0.8-0.3-1.1
					c-0.3-0.2-1-0.4-1.7-0.5v-0.4c0.8,0.1,2,0.2,2.4,0.2c0.4,0,0.5-0.1,0.7-0.3c0.7-0.7,0.9-4.7,1-11.9h-2.9
					c-0.1,6.4-0.8,11.1-5.8,14.3l-0.3-0.4c4-3.2,4.7-7.7,4.8-13.9h-0.8c-0.5,0-0.9,0.1-1.4,0.3l-0.6-1.1c0.6,0.1,1.2,0.1,1.9,0.2
					h0.9V315c0-1.5-0.1-3.3-0.3-4.5c2.4,0.7,2.4,0.9,2,1.2l-0.4,0.2l0,3.8L967,315.6L967,315.6z"/>
				<path class="st2" d="M987.1,318.2c-0.2,0.1-1.1,0.7-2.3,1.1c0.9,1.6,1.7,2.8,1.8,3.1c0.4,0.8,0.6,1.2,0.6,1.8s-0.7,1.4-1,1.6
					s-0.6-0.1-1-0.5c-1.5-1.5-3.6-1.6-4.7-1.6c-1.1,0-3.1,0.9-2.7,2.6c0.4,1.8,2.9,1.6,3.7,1.4c0.8-0.1,1.7,0,2.2,0.3
					c0.4,0.3,0.3,1.1-0.3,1.2c-5.6,0.7-6.4-2-6.5-2.7c-0.2-2.7,2-3.3,3.5-3.5c1.5-0.2,2.9,0.1,3.5,0.3c0.7,0.2,1.1,0.2,1.4,0.1
					s0.2-0.6,0.1-1c-0.1-0.2-0.7-1.4-1.5-2.9c-0.8,0.2-1.6,0.4-2.4,0.5c-1.1,0.1-2.9,0.2-4.6-1.4c-0.3-0.3-0.6-0.7-0.6-0.8
					c0-0.1,0.3,0,0.4,0.1c0.2,0.1,1.8,1.1,3.6,1c1,0,2.1-0.3,3-0.5c-0.4-0.8-0.9-1.6-1.3-2.4c-0.1-0.2-0.2-0.3-0.3-0.5
					c-0.9,0.3-1.9,0.5-2.6,0.4c-1-0.3-1.5-0.9-2-1.5c-0.2-0.2-0.2-0.3-0.2-0.4c0.1-0.1,0.5,0.1,0.7,0.3c0.2,0.1,1.2,0.7,2.2,0.5
					c0.3-0.1,0.8-0.2,1.2-0.4c-1.2-1.6-2.3-2.3-2.8-2.5c-0.2-0.1-0.6-0.2-0.6-0.4c0-0.3,0.5-0.4,0.7-0.4c1.1-0.2,1.7,0.2,2,0.7
					c0.1,0.1,0.7,1.1,1.4,2.3c0.4-0.2,0.8-0.3,1-0.3c0.4,0,0.8,0.1,1,0.4c0.2,0.3-0.1,0.5-0.3,0.6c-0.1,0-0.4,0.2-0.9,0.4
					c0.2,0.3,0.3,0.5,0.5,0.8c0.1,0,0.2,0,0.2,0.1c0.4,0.1,1.7,0.4,2.8,0.3c1-0.1,1.8-0.1,1.8,0.4
					C987.8,317.5,987.4,317.9,987.1,318.2L987.1,318.2z M984.7,317.2c-0.3-0.1-1-0.3-1.6-0.5c0.3,0.5,0.6,1,0.9,1.5
					c0.2-0.1,0.3-0.1,0.5-0.2C985.1,317.7,985.2,317.4,984.7,317.2z"/>
				<path class="st2" d="M1010.8,319c-0.7,0.9-1.8,1.5-2.8,1.9c-0.8,0.4-2.4,0.9-3.8,1.6c-0.1,1.2,0,2.8-0.1,3.2
					c0,0.5-0.5,0.8-0.8,0.8s-0.6-0.4-0.7-0.8c0-0.2,0.1-1.4,0.2-2.5c-0.4,0.2-0.8,0.4-1.1,0.7c-1.1,0.8-1.7,2-1.6,2.8
					c0.1,0.9,1.2,1.2,2,1.3c1.7,0.1,2.3,0,3.7-0.3c1.2-0.3,1.7-0.2,1.8,0.3c0.2,0.7-1.2,1.1-1.9,1.2c-0.8,0.1-2,0.2-3.5,0
					c-2.5-0.3-3-1.5-3-2.4c-0.1-0.7,0.2-2.1,1.8-3.3c0.4-0.3,1-0.6,1.7-1c0-0.5,0-1,0-1.2c-0.2-1.2-0.5-1.6-1.3-1.7
					c-1-0.1-2.2,1.4-2.9,2.3c-0.2,0.2-0.3,0.5-0.5,0.7c-0.2,0.3-0.7,1-1,1.2c-0.2,0.2-0.8-0.1-0.9-0.4c-0.2-0.4-0.1-1,0.2-1.3
					c0.3-0.4,1.7-1.4,2.5-2.8c0.6-1.1,1.3-2.6,1.8-4.1c-0.8,0.2-1.6,0.3-2.3,0.2s-1.5-0.7-1.8-1c-0.1-0.1-0.1-0.1-0.1-0.2
					c0.1-0.1,0.3,0,0.4,0c0.1,0,0.9,0.3,1.8,0.3c0.5,0,1.4-0.1,2.3-0.5c0-0.3,0.1-0.5,0.1-0.8c0.1-0.5,0-1.2-0.7-1.8
					c-0.1-0.1-0.1-0.1-0.1-0.3s0.2-0.2,0.3-0.2c0.1,0,1.2,0.1,1.4,0.4c0.1,0.2,0.1,0.5,0.1,0.9c0.2,0.2,0.8,0.3,1.3,0.3
					c0.2-0.1,1-0.2,1,0.1c0.1,0.4-0.5,1-1.2,1.4c-0.3,0.1-1,0.5-1.8,0.8c-0.4,1.3-0.9,2.8-1.5,4.2c0.7-0.4,1.5-0.4,2.1-0.2
					c1.2,0.3,1.6,2.1,1.6,2.1c0.3-0.8,0.7-1.7,2-3c0.9-0.9,2.5-1.9,3.8-1.7C1011.1,316.4,1011.6,317.8,1010.8,319L1010.8,319z
					 M1002.1,313.5c0.2-0.1,0.5-0.3,0.7-0.4c0-0.1-0.1-0.2-0.2-0.3c-0.1-0.1-0.2-0.1-0.3-0.1
					C1002.2,312.9,1002.2,313.2,1002.1,313.5z M1009.7,317c-0.7-0.6-2.3,0.1-3.5,1.3c-0.9,0.9-1.4,1.7-1.9,3.4c0,0,0,0,0,0
					c1-0.5,2.2-1,3.2-1.6C1009.3,319,1010.3,317.5,1009.7,317z"/>
				<path class="st2" d="M1030.8,321.1c0.3-0.4,0.5-0.7,0.7-0.7c0.3,0,1.9,1.3,1.9,1.7c0,0.2-0.2,0.3-0.6,0.3h-6.5v6.4h5.9l0.5-0.7
					c0.3-0.4,0.5-0.7,0.7-0.7c0.3,0,2,1.4,2,1.7c-0.1,0.2-0.3,0.4-0.6,0.4h-15.2c-1.1,0-2.2,0.1-3.3,0.3l-0.6-1.1
					c1,0.1,1.9,0.1,2.9,0.2h6.1v-6.4h-2.8c-1.1,0-2.2,0.1-3.3,0.3l-0.5-1.1c1,0.1,1.9,0.1,2.9,0.2h3.7v-5.6h-4.8
					c-1.1,2.1-2.5,3.8-4,5.1l-0.3-0.2c1.1-1.4,2.2-3.4,3.2-5.5c0.6-1.3,1.2-3.5,1.3-4.7c2.5,0.8,2.5,1,2,1.2l-0.4,0.1
					c-0.4,1.2-0.9,2.3-1.5,3.4h4.4v-0.9c0-1.5-0.1-3.3-0.3-4.5c2.5,0.7,2.5,0.9,2.1,1.2l-0.3,0.2v4h4.8l0.5-0.7
					c0.3-0.3,0.5-0.7,0.7-0.7c0.3,0,1.9,1.3,1.9,1.6c-0.1,0.2-0.3,0.4-0.6,0.4h-7.2v5.6h4L1030.8,321.1L1030.8,321.1z"/>
				<path class="st2" d="M1057.2,325.6c-0.3,0.3-0.8,0-1.2-0.2c-0.2-0.1-1.2-1.2-2.9-2.2c-0.2,0.5-0.5,1-0.8,1.5
					c-1.8,2.9-4.1,4.3-6.9,4.5c-0.4,0-0.3-0.1-0.3-0.2c0-0.1,0.2,0,0.4-0.1c1.6-0.4,4.2-1.7,5.8-5.2c0.2-0.4,0.3-0.8,0.5-1.2
					c-1.6-0.9-3.6-1.5-5.8-1.5c-0.2,0-0.4,0-0.6,0c-0.9,1.8-2.5,5-3.2,5.5c-1,0.7-1.9,0.5-2.4-0.1c-0.6-0.7-0.3-2.4,0.8-3.8
					c0.6-0.7,2-1.8,4.1-2.2c1.4-2.4,3-5.1,3.5-5.8c0.3-0.4,0.6-0.8,0.2-1.1c-0.3-0.1-0.5,0.1-0.8,0.3c-0.6,0.4-1.6,1.4-1.9,1.6
					c-0.3,0.2-0.5,0.4-1.1,0.2c-0.6-0.2-1.4-0.8-1.6-1.1s-0.1-0.3-0.1-0.4c0.1-0.1,0.2-0.1,0.4,0c0.2,0.1,0.6,0.4,1.1,0.2
					c0.5-0.2,2-1.1,2.7-1.5c0.7-0.4,1.4-0.6,2.3,0c0.8,0.6,1,1.2,0.7,1.5c-0.1,0.1-0.2,0.3-0.6,0.7c-1.6,1.5-3.1,4-3.7,5.1
					c0,0.1-0.1,0.2-0.2,0.4c0.2,0,0.3,0,0.5,0c1.7,0,3.9,0.6,5.8,1.4c0.3-1.1,0.4-2.2,0-2.9c-0.2-0.3-0.7-0.9-0.6-1
					c0.1-0.2,0.9,0.2,1.2,0.3c0.6,0.2,1.1,1.1,1,2.5c0.6,1.2,1.5,2.4,2.4,3.2c0.2,0.1,0.4,0.3,0.6,0.4
					C1057.6,324.7,1057.6,325.3,1057.2,325.6L1057.2,325.6z M1044.3,321.2c-1.6,0.4-2.9,1.3-3.5,2.7c-0.3,0.8-0.2,1.2,0.1,1.3
					c0.3,0.1,1.1-0.1,1.7-1.1C1042.7,323.9,1043.4,322.7,1044.3,321.2L1044.3,321.2z M1053.6,322.2c0.4,0.2,0.8,0.4,1.2,0.6l-1-1.4
					C1053.7,321.6,1053.7,321.9,1053.6,322.2z"/>
				<path class="st2" d="M1076.3,325.6c0-1.5-0.1-3.3-0.3-4.5c2.4,0.7,2.4,0.9,2,1.1l-0.4,0.2v2.1c0,2.5,0.1,3.4,0.2,5
					c-0.2,0.3-0.8,0.6-1.3,0.6c-0.3,0-0.3-0.2-0.3-0.4c0-0.2,0-0.4,0.1-0.7v-0.6h-13.5v0.5c0,0.5,0,0.7,0.1,0.9
					c-0.1,0.3-0.6,0.6-1.1,0.6c-0.3,0-0.4-0.2-0.4-0.4c0.1-0.9,0.1-1.4,0.2-2.8v-1.6c0-1.5-0.1-3.3-0.3-4.5c2.4,0.7,2.4,0.9,2,1.1
					l-0.4,0.2v5.3h5.9v-8.5h-4.9v0.8c0,0.2-0.6,0.5-1.1,0.5c-0.3,0-0.4-0.2-0.4-0.4c0.1-0.8,0.1-1.1,0.1-2.3v-1.4
					c0-1.4-0.1-3.1-0.3-4.2c2.3,0.7,2.3,0.9,2,1.1l-0.4,0.2v5.1h4.9v-3.9c0-1.5-0.1-3.3-0.3-4.5c2.4,0.7,2.4,0.9,2.1,1.2l-0.3,0.2v7
					h5.1v-1.9c0-1.5-0.1-3.3-0.3-4.5c2.4,0.7,2.4,0.9,2,1.1l-0.4,0.2v1.9c0,2.3,0.1,3.1,0.2,4.5c-0.2,0.3-0.8,0.5-1.2,0.5
					c-0.3,0-0.3-0.2-0.3-0.4c0-0.1,0-0.1,0.1-0.3v-0.4h-5.1v8.5h6.1L1076.3,325.6L1076.3,325.6z"/>
				<path class="st2" d="M1098.8,324.4c-2.3,2.6-5.7,4.7-8.9,4c-2.1-0.4-3.3-1.8-3.4-4.9c-0.1-4.8,0.6-7.1,0.4-9.3
					c-0.1-1.5-0.5-1.7-0.9-1.9c-0.2-0.1-0.3-0.4,0.2-0.5c0.4-0.1,0.9,0,1.2,0.2c0.9,0.4,1.1,1.8,1,2.5c0,0.4-0.1,1-0.2,1.6
					c-0.3,3.1-0.6,5.2-0.5,7.6c0.2,2.5,1.2,3.1,2.9,3.4c1.1,0.2,3.5,0.4,8-3.1c0.2-0.1,0.4-0.3,0.5-0.2
					C1099.1,324,1099,324.2,1098.8,324.4L1098.8,324.4z"/>
				<path class="st2" d="M1105.8,327.3c-0.6-0.7-1.2-1.4-1.5-1.6c-0.2-0.2-0.4-0.3-0.4-0.4c0-0.1,0.3-0.1,0.6,0
					c0.3,0.1,3.8,1.2,4.6,3.2c0.2,0.5,0,1.4-0.8,1.6c-0.3,0.1-0.7-0.1-1.1-0.8C1107.1,329.2,1106.3,327.9,1105.8,327.3L1105.8,327.3
					z"/>
				<path class="st2" d="M730,349.3c4.3,0.6,3.4,3.7,1.9,2.8c-0.3-0.9-1.3-2-2.1-2.6L730,349.3L730,349.3z M731.1,358.2
					c0.2,0,0.3,0,0.5-0.4c0.2-0.5,1.5-3.4,3.8-8.8l0.4,0.1c-0.8,2.5-2.4,7.2-2.8,8.2c-0.2,0.6-0.3,1.3-0.3,1.9c0,0.9,0.6,2,0.5,3.8
					c0,1-0.5,1.5-1.2,1.5c-0.3,0-0.6-0.4-0.6-1.1c0.3-2.3,0.2-4-0.3-4.3c-0.3-0.2-0.6-0.3-1-0.3v-0.5L731.1,358.2L731.1,358.2z
					 M731.5,344.5c4.5,0.8,3.7,3.9,2.2,3c-0.3-1-1.5-2.2-2.3-2.8L731.5,344.5L731.5,344.5z M746.9,355c0.2-0.3,0.4-0.7,0.6-0.7
					c0.3,0,1.8,1.3,1.8,1.6c-0.1,0.2-0.3,0.3-0.5,0.3h-5.5c1.5,2.3,4.1,4.3,6.4,5.2l0,0.2c-0.5,0.1-1,0.5-1.2,1.3
					c-2.2-1.4-4.2-3.6-5.5-6.5v2.5c0,2.4,0.1,3.3,0.2,4.8c-0.2,0.3-0.7,0.6-1.2,0.6c-0.3,0-0.4-0.2-0.4-0.4c0.1-1.4,0.1-2.1,0.2-4.1
					v-2.3c-1.6,2.4-3.9,4.4-6.8,5.9l-0.2-0.4c2.6-1.7,4.8-4.1,6-6.7h-1.7c-1.1,0-2.1,0.1-3.1,0.3l-0.6-1.1c1,0.1,1.9,0.1,2.9,0.2
					h3.4c0-1,0-2.1-0.2-3c2.3,0.7,2.3,0.9,1.9,1.1l-0.4,0.2v1.6h3.7L746.9,355L746.9,355z M747.2,345.2c0.2-0.3,0.4-0.5,0.6-0.5
					c0.3,0,1.5,1.4,1.5,1.7c-0.1,0.2-0.4,0.2-0.8,0.2c-0.5,0.5-1.4,1.5-2,2.1l-0.3-0.1c0.1-0.5,0.4-1.5,0.6-2.2h-2.3v4.4
					c0,0.2,0.1,0.3,0.6,0.3h1.2c0.5,0,1,0,1.2,0c0.2,0,0.2,0,0.3-0.2c0.1-0.2,0.3-1,0.5-1.7h0.3l0.1,1.7c0.4,0.1,0.5,0.3,0.5,0.6
					c0,0.6-0.5,0.8-2.9,0.8h-1.5c-1.3,0-1.5-0.3-1.5-1.2v-4.7h-2c-0.5,3.8-1.9,6-5.6,7.4l-0.1-0.4c3-1.7,4-3.8,4.3-7h-1.8
					c-0.2,3.3-3.2,2.5-2.1,1.1c0.8-0.4,1.5-1.3,1.6-2.9l0.3,0c0.1,0.4,0.1,0.8,0.1,1.1h8.7L747.2,345.2L747.2,345.2z"/>
				<path class="st2" d="M771.2,359.6c-0.3,0.3-0.8,0-1.2-0.2c-0.2-0.1-1.2-1.2-2.9-2.2c-0.2,0.5-0.5,1-0.8,1.5
					c-1.8,2.9-4.1,4.3-6.9,4.5c-0.4,0-0.3-0.1-0.3-0.2c0-0.1,0.2,0,0.4-0.1c1.6-0.4,4.2-1.7,5.8-5.2c0.2-0.4,0.3-0.8,0.5-1.2
					c-1.6-0.9-3.6-1.5-5.8-1.5c-0.2,0-0.4,0-0.6,0c-0.9,1.8-2.5,5-3.2,5.5c-1,0.7-1.9,0.5-2.4-0.1c-0.5-0.7-0.3-2.4,0.8-3.8
					c0.6-0.7,2-1.8,4.1-2.2c1.4-2.4,3-5.1,3.5-5.8c0.3-0.4,0.6-0.8,0.2-1.1c-0.3-0.1-0.5,0.1-0.8,0.3c-0.6,0.4-1.6,1.4-1.9,1.6
					c-0.3,0.2-0.5,0.4-1.1,0.2c-0.6-0.2-1.4-0.8-1.6-1.1s-0.1-0.3-0.1-0.4c0.1-0.1,0.2-0.1,0.4,0c0.2,0.1,0.6,0.4,1.1,0.2
					c0.5-0.2,2-1.1,2.7-1.5c0.7-0.4,1.4-0.6,2.3,0c0.8,0.6,1,1.2,0.7,1.5c-0.1,0.1-0.2,0.3-0.5,0.7c-1.6,1.5-3.1,4-3.7,5.1
					c0,0.1-0.1,0.2-0.2,0.4c0.2,0,0.3,0,0.5,0c1.7,0,3.9,0.6,5.8,1.4c0.3-1.1,0.4-2.2,0-2.9c-0.2-0.3-0.7-0.9-0.6-1
					c0.1-0.2,0.9,0.2,1.2,0.3c0.6,0.2,1.1,1.1,1,2.5c0.6,1.2,1.5,2.4,2.4,3.2c0.2,0.1,0.4,0.3,0.5,0.4
					C771.6,358.7,771.6,359.3,771.2,359.6L771.2,359.6z M758.3,355.2c-1.6,0.4-2.9,1.3-3.5,2.7c-0.3,0.8-0.2,1.2,0.1,1.3
					c0.3,0.1,1.1-0.1,1.7-1.1C756.7,357.9,757.4,356.7,758.3,355.2L758.3,355.2z M767.6,356.2c0.4,0.2,0.8,0.4,1.2,0.6l-1-1.4
					C767.7,355.6,767.7,355.9,767.6,356.2L767.6,356.2z"/>
				<path class="st2" d="M792,355.4c-0.8,7.1-9.3,7.1-9.8,7.2c-0.7,0.1-1.1,0.1-1.1-0.1c0-0.1,0.6-0.2,0.9-0.2
					c2.4-0.4,8.1-2.1,8.5-7.2c0.5-5.1-3.2-7.2-6.3-7.4c-0.3,0-0.6,0-0.9,0c0.3,0.7,1.3,3-0.3,6.8c-1.8,4.2-4.4,6.2-5.3,6.1
					c-0.9-0.1-2.5-1.9-2.7-4.6c-0.4-5.5,4.2-8.4,7.4-8.9C786,346.6,792.8,348.3,792,355.4L792,355.4z M783,347.8
					c-2.7,0.3-5.4,2.1-6.4,5.2c-1.2,3.6,0.7,5.6,1.1,5.8c0.4,0.2,1-0.2,1-0.2c2.5-1.9,4-5.5,4.3-6.5
					C783.2,351.1,783.4,349,783,347.8L783,347.8z"/>
				<path class="st2" d="M811.8,361.6c-2.4,2.3-7.3,2.4-7.8,2.5c-0.2,0-0.4,0-0.4-0.1s0.2-0.2,0.3-0.2c3.2-0.4,7-1.6,7.9-5.2
					c1-4.2-1.8-6.6-5.1-6.4c-0.1,0-0.2,0-0.2,0c0.5,1.9-0.4,3.7-1.7,5.6c-0.1,0.1-0.2,0.3-0.3,0.4c0.1,0.4,0.2,0.7,0.3,1.1
					c0.2,0.5,0.6,1.4-0.2,1.6c-0.3,0.1-0.6-0.1-0.8-0.4c-0.2-0.3-0.3-0.6-0.4-1c-2.6,3.1-4.4,2.8-5,2.2c-2.6-2.5,1.2-7.9,5.1-9.5
					c0.1-0.8,0.2-1.5,0.3-2c-0.9,0.2-1.6,0.3-2.1,0.3c-1.2,0-2.3-1.1-2.4-1.3c-0.2-0.2-0.2-0.4-0.1-0.4c0.1-0.1,0.2,0,0.3,0
					c0.4,0.2,1.1,0.7,2,0.6c0.6,0,1.5-0.2,2.4-0.4c0.1-0.9,0.2-2.2,0.1-2.6c-0.2-0.5-0.7-0.8-1-0.8c-0.2,0-0.3,0-0.3-0.1
					c0-0.4,0.6-0.4,1-0.5c0.4,0,1.3,0.3,1.5,0.7c0.1,0.2,0.1,0.7,0,1.1c0.3,0.1,0.7,0.2,1,0.3c0.8,0.2,1.2,0.2,2,0.3
					c0.5,0,0.6,0.3,0.6,0.3c0.1,0.3-0.1,0.6-1.4,1.3c-0.6,0.3-1.6,0.7-2.7,1c-0.1,0.6-0.2,1.2-0.3,1.9c3.3-0.9,7.7-0.2,8.9,3.4
					C814,357,813.9,359.7,811.8,361.6L811.8,361.6z M803.2,358c-0.1-0.8-0.1-1.5-0.1-2.1c0-0.8,0.1-1.9,0.2-3
					c-0.6,0.3-1.2,0.7-1.7,1.2c-2,1.8-3.7,5.1-2.6,6.4C799.5,361.1,801.5,359.9,803.2,358L803.2,358z M806,352.2
					c-0.5,0-1.1,0.1-1.6,0.3c-0.1,1.3-0.2,2.5-0.2,3.5c0,0.2,0,0.4,0,0.6C806,354.2,806.1,352.8,806,352.2L806,352.2z M805,348.6
					c0.4-0.1,0.8-0.3,1.1-0.4c0,0,0.6-0.3-0.2-0.5c-0.2-0.1-0.5-0.2-0.7-0.3c0,0.2-0.1,0.3-0.1,0.5C805.1,348,805,348.3,805,348.6
					L805,348.6z"/>
				<path class="st2" d="M827.5,359.4c0.7,0.2,1.5,1.1,1.7,2v0.1l0.1,0c3.2-1.1,3.7-6.1-0.1-6.9c-0.4-0.1-0.8-0.1-1.1-0.1
					c-1.4,0-3.1,0.5-5,3.8c-0.2,0.4-0.5,1-0.8,1.2c-0.1,0.1-0.3,0.1-0.4,0.1c-0.3,0-0.5-0.1-0.6-0.2c-0.3-0.5-0.1-1,0.2-1.6
					c0.1-0.1,1.1-1.4,1.5-1.9c0.1-0.2,0.2-0.3,0.3-0.3c1.5-1.8,3.5-5,4.5-6.7l0-0.1c0.2-0.4,0.6-1,0.2-1.3c0,0,0,0,0,0
					c-0.1-0.1-0.2-0.1-0.2-0.1c-0.3-0.1-0.5,0.2-0.6,0.4c-0.2,0.3-1.2,1.6-2.2,2.1c-0.2,0.1-0.4,0.1-0.6,0.1c-0.4,0-1.1-0.2-1.4-1.4
					c-0.1-0.4,0-0.5,0-0.6c0.2-0.1,0.3,0.1,0.4,0.2c0.1,0.1,0.3,0.3,0.6,0.3c0.1,0,0.2,0,0.3,0c0.4-0.1,1.2-0.6,2.3-1.4
					c0.5-0.4,1.2-0.6,2-0.5c0.5,0.1,1.4,0.4,1.6,1c0.2,0.5,0.1,0.9-0.3,1.3c-0.3,0.3-4.4,5.3-4.8,6l-0.1,0.2l0.2-0.1
					c0.4-0.2,1.7-1.1,3.5-1.1c0.4,0,0.8,0,1.2,0.1c0.5,0.1,1,0.2,1.4,0.4c3,1.5,2.9,5.8,0.1,7.5c-1.6,1-3.8,1.5-5.5,0.5
					c-1.7-1-0.9-3.1,1-3.1C826.9,359.3,827.2,359.3,827.5,359.4L827.5,359.4z M828,361.8C828,361.8,828,361.8,828,361.8
					c-0.2-0.9-0.5-1.4-1.3-1.6c-0.1,0-0.2,0-0.3,0c-0.6,0-0.8,0.5-0.8,0.8c0,0.1,0,0.2,0.1,0.3c0.3,0.4,1.2,0.6,1.8,0.6
					C827.9,361.9,828,361.8,828,361.8L828,361.8z"/>
				<path class="st2" d="M843.2,353c0.2-0.3,0.3-0.6,0.5-0.6c0.3,0,1.8,1.4,1.8,1.7c-0.1,0.1-0.4,0.3-1,0.4v5.9c1.5,1.8,3.1,2,6.7,2
					c2.5,0,5.8,0,8.3-0.1v0.3c-0.6,0.1-1,0.5-1,1.2h-7.3c-3.8,0-5.5-0.5-7-3c-0.8,1-2.2,2.3-3.1,3c0,0.3-0.1,0.4-0.2,0.5l-1-1.9
					c0.8-0.4,2.1-1.1,3.3-1.8v-6.5h-1.1c-0.7,0-1.2,0.1-1.8,0.3l-0.5-1.1c0.7,0.1,1.4,0.1,2.1,0.2h1L843.2,353L843.2,353z
					 M841.1,344.9c5,1.7,3.9,5.2,2.3,4.1c-0.3-1.3-1.6-3-2.6-3.9L841.1,344.9L841.1,344.9z M857,351c0.2-0.3,0.4-0.7,0.6-0.7
					c0.3,0,1.8,1.3,1.8,1.6c-0.1,0.2-0.3,0.4-0.5,0.4h-9.7c-1.1,0-2.2,0.1-3.3,0.3l-0.5-1.1c1,0.1,1.9,0.1,2.9,0.2h3.5v-3.2h-3.2
					c-0.6,1-1.2,1.9-2,2.6l-0.3-0.2c0.3-0.5,0.6-1.1,0.9-1.7c0.6-1.3,1-3.4,1-4.6c2.4,0.7,2.4,1,2,1.1l-0.4,0.1
					c-0.3,0.7-0.5,1.4-0.9,2h2.9c0-1.1-0.1-2.5-0.2-3.5c2.4,0.7,2.4,0.9,2,1.1l-0.4,0.3v2.1h2.7l0.4-0.6c0.2-0.3,0.4-0.7,0.6-0.7
					c0.3,0,1.8,1.3,1.8,1.6c-0.1,0.2-0.3,0.4-0.6,0.4h-5v3.2h3.5L857,351L857,351z M856,353.8c0.2-0.2,0.3-0.5,0.5-0.5
					c0.3,0,1.6,1.1,1.6,1.4c-0.1,0.1-0.4,0.4-0.8,0.4v1.8c0,1.8,0.1,2.4,0.1,3.5c-0.2,0.2-0.8,0.6-1.3,0.6c-0.2,0-0.3-0.2-0.3-0.4
					c0-0.1,0-0.2,0.1-0.5v-0.5H849v1.1c0,0.1-0.6,0.5-1.1,0.5c-0.2,0-0.3-0.2-0.3-0.4c0.1-0.7,0.1-1,0.1-2.1v-1.3
					c0-1.3-0.1-2.9-0.2-3.9l1.7,0.8h6.6L856,353.8L856,353.8z M849,359.1h6.9v-4.1H849V359.1z"/>
				<path class="st2" d="M872,352c0.2-0.3,0.4-0.7,0.6-0.7c0.3,0,1.7,1.2,1.7,1.6c-0.1,0.2-0.3,0.4-0.5,0.4h-3v5.3
					c0,2.6,0.1,3.5,0.2,5.2c-0.2,0.2-0.6,0.6-1.3,0.6c-0.2,0-0.5-0.2-0.5-0.4c0.1-1.9,0.2-2.9,0.2-5.7v-4.8h-3.3
					c0,3.9-0.5,8.2-4,11.2l-0.3-0.2c2.5-3.2,2.9-7.2,2.9-11h-0.9c-0.6,0-1.1,0.1-1.6,0.3l-0.5-1.1c0.7,0.1,1.4,0.1,2.1,0.2h1v-5.9
					H864c-0.4,0-0.8,0.1-1.2,0.3l-0.6-1.1c1,0.1,1.9,0.1,2.9,0.2h5.9l0.4-0.6c0.2-0.3,0.4-0.7,0.6-0.7c0.3,0,1.8,1.2,1.8,1.6
					c-0.1,0.2-0.3,0.4-0.6,0.4h-2.5v5.9h0.8L872,352L872,352z M866.1,352.6h3.3v-5.9h-3.3V352.6z M881.2,357.1l-0.4,0
					c-2.4,3.5-5.5,5.8-9.4,7.2l-0.2-0.4c2.2-1.1,4.1-2.5,5.7-4.3c1-1.1,2-2.9,2.4-4l1.2,0.8C881.6,356.8,881.6,357,881.2,357.1
					L881.2,357.1z M880.8,351.6l-0.4,0c-2,2.5-4.7,4.5-7.8,5.8l-0.2-0.4c1.5-0.9,2.9-1.9,4.1-3.2c1-1,2.2-2.6,2.6-3.8l1.1,0.8
					C881.2,351.3,881.2,351.5,880.8,351.6L880.8,351.6z M880.6,346l-0.4,0c-1.8,2.2-4.2,4.1-6.8,5.4l-0.2-0.4
					c1.1-0.8,2.2-1.7,3.2-2.8c1-1.1,2.1-2.7,2.5-3.8l1.1,0.8C881,345.7,881,345.9,880.6,346z"/>
				<path class="st2" d="M890.3,345c0.1-0.3,1-0.2,1.4,0c0.6,0.3,0.9,0.5,1.1,1.3c0.2,0.8-0.1,1.5-0.3,2.2c-0.2,0.7-0.5,1.4-0.5,2.7
					c0,1.5,0.3,2.1,1,2.3c0.6,0.2,2.3-0.6,2.9-0.7c0.6-0.1,1.1,0.3,1.1,0.7c0,0.5-0.2,0.8-0.9,1c-1.1,0.2-6.1,0.9-5.5,4.7
					c0.3,1.9,2.7,2.3,5.1,1.8c0.9-0.2,2.5-0.4,2.6,0.7c0.1,0.9-1.7,1-2.6,1.1c-0.9,0.1-6,0.5-6.3-3.3c-0.2-2.8,2.3-4.5,3.5-5.1
					c0,0-0.8-0.1-1.3-1c-1-2-0.3-5.1-0.3-6c0-1.1,0-1.5-0.5-2C890.5,345.2,890.3,345.2,890.3,345L890.3,345z"/>
				<path class="st2" d="M922.1,346.2c0.3-0.3,0.5-0.7,0.6-0.7c0.3,0,1.8,1.3,1.8,1.7c0,0.2-0.3,0.3-0.5,0.3h-12.5
					c-1.5,2.5-3.4,4.5-5.4,5.8l-0.3-0.3c1.2-1.1,2.4-2.6,3.5-4.5c0.7-1.2,1.5-3.3,1.7-4.6c2.4,1,2.4,1.2,2,1.3l-0.4,0.1
					c-0.2,0.5-0.5,1-0.7,1.5h9.7L922.1,346.2L922.1,346.2z M917.2,363.5c-0.5-1.1-1.5-2.5-3-4c-2.1,2-4.8,3.8-8,4.9l-0.2-0.3
					c2.9-1.3,5.4-3.3,7.3-5.5c-1.2-1.1-2.7-2.2-4.3-3.2l0.2-0.4c2,0.9,3.6,1.8,4.9,2.7c0-0.1,0.1-0.1,0.2-0.2c0.9-1.2,1.7-2.8,2-4
					c2.3,1.1,2.3,1.3,1.8,1.4l-0.4,0.1c-0.7,1.2-1.5,2.4-2.5,3.5C919.7,362.1,918.5,364.6,917.2,363.5L917.2,363.5z M920.3,352
					c0.2-0.3,0.3-0.5,0.5-0.5c0.3,0,1.6,1.2,1.6,1.6c-0.2,0.1-0.4,0.3-0.8,0.4c0,3.3,0.5,7.7,2.3,8.9c0.2,0.1,0.3,0.1,0.4-0.1
					c0.2-0.5,0.5-1.3,0.6-2l0.2,0l-0.2,2.7c0.4,0.6,0.5,1,0.3,1.2c-0.4,0.5-1.3,0.2-2-0.3c-2.5-1.7-3.1-6-3.2-10.6H912
					c-1.1,0-2.2,0.1-3.3,0.3l-0.6-1.1c1,0.1,1.9,0.1,2.9,0.2h8.9L920.3,352L920.3,352z M920.7,349c0.2-0.3,0.4-0.6,0.6-0.6
					c0.3,0,1.8,1.2,1.8,1.6c0,0.2-0.3,0.4-0.5,0.4h-8c-1.1,0-2.2,0.1-3.3,0.3l-0.6-1.1c1,0.1,1.9,0.1,2.9,0.2h6.7L920.7,349
					L920.7,349z"/>
				<path class="st2" d="M930.4,362.8c0,0.5,0,0.7,0.1,0.9c-0.1,0.2-0.6,0.6-1.2,0.6c-0.2,0-0.4-0.2-0.4-0.4c0.1-1,0.1-1.6,0.2-3.1
					v-1.8c0-1.5-0.1-3.3-0.3-4.5l1.7,0.8h4.2l0.3-0.4c0.2-0.2,0.3-0.4,0.5-0.4c0.3,0,1.6,1,1.6,1.3c-0.1,0.2-0.4,0.4-0.9,0.4v2.4
					c0,2.4,0.1,3.2,0.2,4.7c-0.2,0.2-0.9,0.6-1.3,0.6c-0.2,0-0.3-0.2-0.3-0.4c0-0.2,0-0.3,0.1-0.6v-0.5h-4.5L930.4,362.8
					L930.4,362.8z M930.4,361.7h4.5v-5.8h-4.5V361.7z M941.6,345c0.2-0.2,0.3-0.5,0.5-0.5c0.3,0,1.6,1.2,1.6,1.5
					c-0.1,0.2-0.5,0.4-0.9,0.4v2.2c0,2.2,0.1,3,0.2,4.3c-0.2,0.3-0.9,0.6-1.3,0.6c-0.2,0-0.3-0.2-0.3-0.4c0-0.2,0-0.3,0.1-0.6V352
					h-7.7v0.4c0,0.4,0,0.5,0.1,0.7c-0.1,0.2-0.6,0.6-1.2,0.6c-0.2,0-0.3-0.2-0.3-0.4c0.1-0.8,0.1-1.2,0.1-2.5v-1.5
					c0-1.5-0.1-3.3-0.3-4.5l1.8,0.8h7.3L941.6,345L941.6,345z M941.5,346.2h-7.7v5.1h7.7V346.2z M940.2,362.9c0,0.5,0,0.7,0.1,0.9
					c-0.1,0.3-0.6,0.6-1.2,0.6c-0.2,0-0.4-0.2-0.4-0.4c0.1-1.1,0.1-1.6,0.2-3.2v-1.8c0-1.5-0.1-3.3-0.3-4.5l1.7,0.8h4.3l0.3-0.4
					c0.2-0.2,0.3-0.4,0.5-0.4c0.3,0,1.7,1,1.7,1.3c-0.1,0.2-0.5,0.4-0.9,0.4v2.5c0,2.5,0.1,3.3,0.2,4.8c-0.2,0.3-0.9,0.6-1.3,0.6
					c-0.2,0-0.3-0.2-0.3-0.4c0-0.2,0-0.4,0.1-0.7v-0.6h-4.6L940.2,362.9L940.2,362.9z M940.2,361.7h4.6v-5.8h-4.6V361.7z"/>
				<path class="st2" d="M961.8,355.2c-0.1,1.4-0.8,4.9-2.2,6.2c-0.5,0.5-1.3,1.1-1.7,0.9c-0.4-0.2-0.5-0.5-0.8-1.1
					c-0.2-0.4-0.4-0.7-1.1-1.7c-0.1-0.2-0.3-0.4-0.2-0.4c0.1-0.1,0.4,0.1,0.9,0.5c0.5,0.4,1,0.8,1.3,0.8c0.5,0,1.2-0.3,2-2.9
					c0.8-2.5,1-5-0.1-5.8c-0.6-0.4-2.1,0.1-3.1,0.5c-0.5,2.2-1.5,5.3-3.3,8.3c-0.5,0.9-1.2,1.3-1.7,0.8c-0.3-0.4-0.1-1,0.7-2.2
					c1.9-2.5,2.7-4.9,3.1-6.5c-1,0.4-2.2,0.9-2.6,1c-0.3,0.1-1.3,0.1-2.1-1.2c-0.2-0.3-0.3-0.7-0.1-0.8c0.2-0.1,0.3,0.1,0.6,0.2
					c0.6,0.3,1,0.3,1.3,0.3c0.6,0,2-0.3,3.2-0.8c0-0.2,0.1-0.3,0.1-0.5c0.3-1.2,0.4-2.8-0.2-3.6c-0.2-0.2-0.7-0.7-0.6-0.9
					c0.1-0.4,1.8-0.1,2.2,0.2c0.6,0.6,0.2,1.6,0.1,2.3c0,0.3-0.1,1-0.3,2c1.1-0.4,2.7-0.7,3.6,0C961.9,352,962,353.6,961.8,355.2
					L961.8,355.2z M969.4,354c0.1,1.6-1.1,2-1.3,2c-0.2,0-0.3-0.1-0.8-0.4c-0.4-0.3-2-0.5-2.1-0.5s-0.3,0-0.3-0.1
					c0-0.1,0.2-0.1,0.2-0.1s1.3-0.1,1.6-0.2c0.3-0.1,0.6-0.2,0.9-0.4c0.2-0.2,0.2-1.2-0.7-2.1c-0.8-0.8-2.2-1.4-2.5-1.5
					c-0.1,0-0.2,0-0.2-0.1c0-0.1,0.2,0,0.3,0C967.6,350.7,969.3,352.5,969.4,354L969.4,354z M965,347.6c0-0.2,0.5-0.2,0.8-0.2
					c0.3,0,2.4,0.1,2.8,1.4c0.1,0.4,0.1,0.6-0.2,0.8c-0.2,0.1-0.8,0.1-1.1-0.3c-0.4-0.5-0.7-1-1.7-1.4
					C965.4,347.8,965,347.7,965,347.6L965,347.6z M970.2,347.5c-0.2,0.1-0.7,0.1-1.1-0.2c-0.4-0.5-0.9-1-1.8-1.2
					c-0.2-0.1-0.6-0.1-0.6-0.3c0-0.2,0.5-0.2,0.8-0.2c0.2,0,2.5,0,2.9,1.4C970.5,347.3,970.4,347.5,970.2,347.5L970.2,347.5z"/>
				<path class="st2" d="M972,349.9c4.3,0.6,3.4,3.7,1.9,2.8c-0.3-0.9-1.2-2-2.1-2.6L972,349.9L972,349.9z M973.1,358.2
					c0.2,0,0.3,0,0.5-0.4c0.2-0.5,1.5-3.6,3.8-9.2l0.4,0.1c-0.8,2.6-2.4,7.6-2.8,8.6c-0.2,0.7-0.3,1.3-0.3,1.9c0,1,0.6,2,0.5,3.8
					c0,1-0.5,1.5-1.2,1.5c-0.3,0-0.6-0.4-0.7-1.1c0.3-2.2,0.2-4-0.3-4.3c-0.3-0.2-0.6-0.3-1-0.3v-0.5L973.1,358.2L973.1,358.2z
					 M972.9,344.4c4.5,0.8,3.7,3.9,2.2,3c-0.4-1-1.5-2.2-2.4-2.8L972.9,344.4L972.9,344.4z M989.1,350.3c0.2-0.3,0.4-0.6,0.6-0.6
					c0.3,0,1.7,1.2,1.7,1.6c-0.1,0.2-0.2,0.4-0.5,0.4h-6.3v2.2h4.4l0.3-0.4c0.2-0.2,0.3-0.4,0.4-0.4c0.3,0,1.7,1,1.7,1.3
					c-0.2,0.2-0.5,0.4-1,0.4v7.8c0,1.1-0.2,1.8-2,2c-0.1-0.4-0.2-0.8-0.4-1s-0.8-0.4-1.7-0.5v-0.4c0,0,2,0.1,2.4,0.1
					c0.3,0,0.5-0.1,0.5-0.4v-7.8h-4.6v5.4h1.9c0-1.4-0.1-3.1-0.3-4.2c1.9,0.6,1.9,0.9,1.6,1l-0.2,0.1v1.2c0,1.6,0.1,2.1,0.1,3.1
					c-0.1,0.3-0.6,0.5-1.1,0.5h-0.2v-1.1h-5v0.9c0,0.2-0.5,0.5-0.8,0.5c-0.2,0-0.3-0.2-0.3-0.4c0.1-0.5,0.1-0.8,0.1-1.6v-1
					c0-1-0.1-2.3-0.2-3.2c1.8,0.6,1.8,0.9,1.5,1l-0.2,0.1v3h1.9v-5.4h-4.4v4.2c0,2.6,0.1,3.5,0.2,5.2c-0.2,0.2-0.7,0.6-1.2,0.6
					c-0.2,0-0.4-0.2-0.4-0.4c0.1-1.4,0.1-2.1,0.2-4.1v-2.3c0-1.5-0.1-3.3-0.3-4.5l1.7,0.8h4.2v-2.2h-2.5c-1.1,0-2.2,0.1-3.3,0.3
					l-0.5-1.1c0.9,0.1,1.8,0.1,2.6,0.2h1.2V348h-1.1c-0.7,0-1.4,0.1-2.1,0.3l-0.5-1.1c0.8,0.1,1.7,0.1,2.5,0.2h1.2
					c0-1-0.1-2.3-0.2-3.1c2.3,0.7,2.3,0.9,1.9,1.1l-0.4,0.2v1.7h3.4c0-1-0.1-2.3-0.2-3.1c2.3,0.7,2.3,0.9,1.9,1.1l-0.4,0.2v1.7h1.5
					l0.4-0.6c0.2-0.3,0.4-0.6,0.6-0.6c0.3,0,1.7,1.2,1.7,1.5c-0.1,0.2-0.3,0.4-0.6,0.4h-3.7v2.9h1.7L989.1,350.3L989.1,350.3z
					 M982.2,348v2.9h3.4V348H982.2z"/>
				<path class="st2" d="M1009.9,358.8c-0.2,3-3.1,4.8-8.1,5.1c-0.1,0-0.4,0-0.4-0.1c0-0.1,0.2-0.2,0.3-0.2c2.9-0.4,6.6-1.5,6.7-5.3
					c0.1-2.5-1.4-3.2-2.9-3c-2.1,0.4-3.5,2.6-3.7,3.1c-0.2,0.5-0.4,0.7-0.7,0.8c-0.2,0-0.5-0.1-0.7-0.3c-0.5-0.7-0.5-1.3-0.6-2
					c-0.1-1.2,0.4-4.1,0.8-6.6c-0.4,0-0.9-0.1-1.3-0.1c-1.1-0.2-1.9-1.1-2.2-1.7c-0.1-0.1-0.2-0.3,0-0.4c0.2-0.1,0.3,0,0.5,0.2
					c0.1,0.1,1.1,0.9,2.1,0.9c0.3,0,0.7,0,1.1,0c0.2-1,0.3-2,0.3-2.5c0-0.6-0.3-1-0.5-1.1c-0.2-0.1-0.4-0.2-0.4-0.4
					c0-0.1,0.2-0.2,0.4-0.3c0.4-0.1,1.5-0.1,1.9,0.4c0.3,0.3,0.2,0.7,0.1,1c-0.1,0.2-0.2,0.4-0.2,0.6c0.4,0.3,1.3,0.9,2,0.9
					c0.9,0.1,1.3,0.1,1.3,0.6c0.1,0.4-0.6,1.2-1.6,1.5c-0.6,0.2-1.6,0.4-2.7,0.5c-0.3,1.6-0.8,4.4-0.5,5.8c0.1,0.4,0.1,0.5,0.3,0.5
					c0.2,0,0.3-0.1,0.6-0.3c0.3-0.2,2-1.4,3.7-1.6C1007.3,354.4,1010.1,355.2,1009.9,358.8L1009.9,358.8z M1001.8,349
					c0.8-0.1,1.6-0.3,1.9-0.5c0.1-0.1,0.2-0.2,0-0.4c-0.2-0.2-0.9-0.8-1.4-1C1002.1,347.8,1001.9,348.4,1001.8,349L1001.8,349z"/>
				<path class="st2" d="M1025.5,359.4c0.7,0.2,1.5,1.1,1.7,2v0.1l0.1,0c3.2-1.1,3.7-6.1-0.1-6.9c-0.4-0.1-0.8-0.1-1.1-0.1
					c-1.4,0-3.1,0.5-5,3.8c-0.2,0.4-0.5,1-0.8,1.2c-0.1,0.1-0.3,0.1-0.4,0.1c-0.3,0-0.5-0.1-0.6-0.2c-0.3-0.5-0.1-1,0.2-1.6
					c0.1-0.1,1.1-1.4,1.5-1.9c0.1-0.2,0.2-0.3,0.3-0.3c1.5-1.8,3.5-5,4.5-6.7l0-0.1c0.2-0.4,0.6-1,0.2-1.3c0,0,0,0,0,0
					c-0.1-0.1-0.2-0.1-0.2-0.1c-0.3-0.1-0.5,0.2-0.6,0.4c-0.2,0.3-1.2,1.6-2.2,2.1c-0.2,0.1-0.4,0.1-0.6,0.1c-0.4,0-1.1-0.2-1.4-1.4
					c-0.1-0.4,0-0.5,0-0.6c0.2-0.1,0.3,0.1,0.4,0.2c0.1,0.1,0.3,0.3,0.6,0.3c0.1,0,0.2,0,0.3,0c0.4-0.1,1.2-0.6,2.3-1.4
					c0.6-0.4,1.2-0.6,2-0.5c0.5,0.1,1.4,0.4,1.6,1c0.2,0.5,0.1,0.9-0.3,1.3c-0.3,0.3-4.4,5.3-4.8,6l-0.1,0.2l0.2-0.1
					c0.4-0.2,1.6-1.1,3.5-1.1c0.4,0,0.8,0,1.2,0.1c0.5,0.1,0.9,0.2,1.4,0.4c3,1.5,2.9,5.8,0.1,7.5c-1.6,1-3.8,1.5-5.5,0.5
					c-1.7-1-0.9-3.1,1-3.1C1024.9,359.3,1025.2,359.3,1025.5,359.4L1025.5,359.4z M1026,361.8C1026,361.8,1026,361.8,1026,361.8
					c-0.2-0.9-0.5-1.4-1.3-1.6c-0.1,0-0.2,0-0.3,0c-0.6,0-0.8,0.5-0.8,0.8c0,0.1,0,0.2,0.1,0.3c0.3,0.4,1.2,0.6,1.8,0.6
					C1025.9,361.9,1026,361.8,1026,361.8L1026,361.8z"/>
				<path class="st2" d="M1046.6,348.1l0.4-0.4c0.2-0.2,0.3-0.5,0.5-0.5c0.3,0,1.5,1.2,1.5,1.5c-0.2,0.2-0.4,0.3-0.8,0.3
					c-1.1,6.2-3.5,12.1-10.1,15.4l-0.2-0.3c5.4-3.4,7.9-9.1,8.9-15.3h-3.6c-0.4,1.2-0.9,2.2-1.5,3.2c4.3,1.6,3.4,4.5,2,3.6
					c-0.3-1-1.3-2.2-2.2-3.1c-0.9,1.6-2.1,3-3.3,4l-0.3-0.2c1.4-1.8,2.8-4.2,3.7-7.1c0.5-1.4,0.9-3.7,0.9-4.9c2.5,0.6,2.5,0.8,2.1,1
					l-0.4,0.2c-0.2,0.9-0.5,1.8-0.8,2.6L1046.6,348.1L1046.6,348.1z M1051.3,349c0-1.5-0.1-3.3-0.3-4.5c2.4,0.7,2.4,0.9,2.1,1.2
					l-0.4,0.2v8.8c1.5,1.3,3.2,2.3,5.1,2.8l0,0.2c-0.6,0.1-1,0.5-1.2,1.2c-1.4-0.6-2.7-1.5-3.8-2.5v2.5c0,2.5,0.1,3.3,0.2,4.9
					c-0.2,0.3-0.8,0.6-1.3,0.6c-0.3,0-0.5-0.2-0.5-0.4c0.1-1.9,0.2-2.9,0.2-5.7v-3.3c-1.1-1.5-2.1-3.2-2.7-5.3l0.3-0.2
					c0.6,1.4,1.4,2.7,2.3,3.8L1051.3,349L1051.3,349z"/>
				<path class="st2" d="M1068,361.3c0.2-0.3,0.4-0.5,0.6-0.5c0.3,0,1.5,1.1,1.5,1.4c-0.1,0.2-0.2,0.4-0.6,0.4h-6.3v1.1
					c0,0.1-0.4,0.5-1.1,0.5c-0.2,0-0.4-0.2-0.4-0.4c0.1-1.9,0.2-2.9,0.2-5.7v-3.4c-0.7,0.7-1.4,1.4-2.1,1.9l-0.2-0.3
					c1.5-1.6,2.8-3.6,3.7-5.6h-1.1c-0.7,0-1.2,0.1-1.8,0.3l-0.6-1.1c0.8,0.1,1.7,0.1,2.6,0.2h1.2c0.3-0.8,0.6-1.6,0.8-2.5h-1.6
					c-0.6,0.8-1.2,1.5-1.9,2l-0.3-0.2c0.2-0.2,0.3-0.4,0.5-0.7c0.8-1.2,1.3-3.2,1.4-4.4c2.3,0.8,2.3,1,1.9,1.1l-0.4,0.1
					c-0.2,0.5-0.4,1-0.7,1.4h3.9l0.4-0.6c0.2-0.3,0.4-0.6,0.6-0.6c0.3,0,1.7,1.2,1.7,1.5c-0.1,0.2-0.3,0.3-0.6,0.3h-3.1
					c-0.3,0.8-0.6,1.7-0.9,2.5h2.6l0.4-0.6c0.2-0.3,0.4-0.6,0.6-0.6c0.3,0,1.6,1.2,1.6,1.5c-0.1,0.2-0.3,0.4-0.6,0.4h-4.9
					c-0.5,1-1,1.9-1.7,2.7l0.5,0.2h1.5c0.2-0.8,0.4-1.9,0.4-2.6c2.1,0.6,2.1,0.8,1.7,1l-0.4,0.1c-0.3,0.5-0.7,1-1.1,1.5h1.8l0.3-0.5
					c0.2-0.2,0.3-0.5,0.5-0.5c0.3,0,1.4,1,1.4,1.3c0,0.2-0.2,0.4-0.5,0.4h-2.7v2.1h1.1l0.3-0.5c0.2-0.2,0.3-0.5,0.5-0.5
					c0.3,0,1.2,0.9,1.2,1.2c-0.1,0.2-0.3,0.4-0.5,0.4h-2.6v2.2h1.1l0.3-0.5c0.2-0.2,0.3-0.5,0.5-0.5c0.3,0,1.2,0.9,1.2,1.2
					c-0.1,0.2-0.3,0.4-0.5,0.4h-2.6v2.2h1.2L1068,361.3L1068,361.3z M1065.2,354h-1.9v2.1h1.9V354z M1065.2,358.9v-2.2h-1.9v2.2
					H1065.2z M1065.2,361.8v-2.2h-1.9v2.2H1065.2z M1076.8,345.3c0.2-0.3,0.3-0.5,0.5-0.5c0.3,0,1.5,1.1,1.5,1.4
					c-0.2,0.1-0.4,0.3-0.9,0.4v5.6c0,2.6,0.1,3.5,0.2,5.2c-0.2,0.2-0.7,0.6-1.3,0.6h-0.2v-0.8h-0.7v5.3c0,0.2,0,0.3,0.4,0.3h1.7
					c0.2,0,0.2-0.1,0.3-0.2c0.1-0.3,0.3-1.6,0.6-2.7h0.3l0.1,2.8c0.4,0.2,0.4,0.4,0.4,0.6c0,0.5-0.5,0.9-2.4,0.9h-1.2
					c-1.2,0-1.4-0.4-1.4-1.3v-5.6h-1.1c-0.5,4-2.1,6-6.2,7.3l-0.1-0.4c3.5-1.6,4.6-3.5,4.9-6.9h-0.2v0.8c0,0.1-0.4,0.4-1.1,0.4
					c-0.2,0-0.4-0.2-0.4-0.4c0.1-1.8,0.2-2.7,0.2-5.4v-3c0-1.5-0.1-3.3-0.3-4.5l1.9,0.8h4.4L1076.8,345.3L1076.8,345.3z
					 M1076.6,346.5h-4.7v2.9h4.7V346.5z M1076.6,352.9V350h-4.7v2.9H1076.6z M1071.9,353.6v3h4.7v-3H1071.9z"/>
				<path class="st2" d="M1087.7,361.1c0,1.6-1.3,2.9-2.9,2.9s-2.9-1.3-2.9-2.9s1.3-2.9,2.9-2.9S1087.7,359.6,1087.7,361.1z
					 M1087.2,361.1c0-1.3-1.1-2.3-2.3-2.3s-2.3,1-2.3,2.3s1.1,2.3,2.3,2.3S1087.2,362.4,1087.2,361.1z"/>
			</g>
			<g>
				<g>
					<path class="st1" d="M766.1,135.8L754,208.9h-14.8l-12.1-73.1h11.3l8.3,57.4l8.3-57.4H766.1z"/>
					<path class="st1" d="M774.7,135.8h11.1v73.1h-11.1V135.8z"/>
					<path class="st1" d="M797.9,135.8h12.2l14.1,49.1v-49.1h10.9v73.1h-11.7l-14.6-46.8v46.8h-10.9L797.9,135.8L797.9,135.8z"/>
					<path class="st1" d="M843.6,135.8h35.3v10.4h-12.1v62.6h-11.1v-62.6h-12.1L843.6,135.8L843.6,135.8z"/>
					<path class="st1" d="M903,192.7h-11.9l-2.4,16.2h-11.1l12.1-73.1h14.8l12.1,73.1h-11.3L903,192.7L903,192.7z M901.6,182
						l-4.5-30.6l-4.5,30.6H901.6z"/>
					<path class="st1" d="M948.8,158.5v-6.2c0-2.3-0.6-4.1-1.8-5.3c-1.2-1.2-2.8-1.9-4.9-1.9s-3.7,0.6-4.9,1.9
						c-1.2,1.2-1.8,3-1.8,5.3v39.9c0,2.3,0.6,4.1,1.8,5.3c1.2,1.2,2.8,1.9,4.9,1.9s3.7-0.6,4.9-1.9c1.2-1.2,1.8-3,1.8-5.3v-12.9
						h-6.7v-10.4h17.8v23.4c0,5.3-1.6,9.6-4.9,12.8c-3.3,3.2-7.5,4.9-12.8,4.9s-9.6-1.6-12.8-4.9s-4.9-7.5-4.9-12.8v-39.9
						c0-5.3,1.6-9.6,4.9-12.8c3.3-3.2,7.5-4.9,12.8-4.9s9.6,1.6,12.8,4.9s4.9,7.5,4.9,12.8v6.2H948.8z"/>
					<path class="st1" d="M970.6,135.8h31.4v10.4h-20.4v20.4h16.2V177h-16.2v21.4h20.4v10.4h-31.4V135.8L970.6,135.8z"/>
				</g>
				<g>
					<path class="st1" d="M737,277.2c-1.7-1-3-2.3-4-4c-0.9-1.7-1.4-3.7-1.4-5.9v-1.6l6.7-0.7v1.7c0,1.7,0.4,3,1.2,4
						s1.9,1.5,3.3,1.5s2.4-0.4,3.3-1.2c0.8-0.8,1.2-1.9,1.2-3.2c0-1.5-0.4-2.9-1.3-4.3c-0.9-1.4-2.6-3.2-5.1-5.7
						c-3.4-3.2-5.8-5.9-7-8.1s-1.9-4.5-1.9-7c0-3.5,0.9-6.2,2.8-8.3s4.5-3.1,7.8-3.1s5.9,1,7.8,3.1c1.9,2.1,2.8,4.8,2.8,8.3v1.2
						l-6.7,0.7v-1.3c0-1.8-0.3-3.1-1-4s-1.6-1.4-2.8-1.4s-2.2,0.4-2.8,1.1c-0.7,0.8-1,1.8-1,3.3s0.4,2.8,1.3,4.2s2.6,3.3,5.1,5.8
						c3.4,3.4,5.8,6.2,7,8.3c1.2,2.1,1.9,4.4,1.9,6.9c0,2.2-0.5,4.1-1.4,5.9c-0.9,1.7-2.3,3-4,4c-1.7,1-3.7,1.5-5.9,1.5
						S738.7,278.1,737,277.2L737,277.2z"/>
					<path class="st1" d="M759.5,231.9h22.2v6.6h-7.6V278h-7v-39.5h-7.6L759.5,231.9L759.5,231.9z"/>
					<path class="st1" d="M811.9,231.9l-9.3,26.8V278h-7v-19.3l-9.3-26.8h7.4l5.4,17.6l5.5-17.6H811.9L811.9,231.9z"/>
					<path class="st1" d="M818.7,231.9h7v39.5h12.4v6.6h-19.4L818.7,231.9L818.7,231.9z"/>
					<path class="st1" d="M845.1,231.9h19.8v6.6h-12.8v12.8h10.2v6.6h-10.2v13.5h12.8v6.6h-19.8V231.9L845.1,231.9z"/>
				</g>
				<g>
					<path class="st1" d="M731.6,73.4h4.5l5.2,18.1V73.4h4v27H741l-5.4-17.2v17.2h-4L731.6,73.4L731.6,73.4z"/>
					<path class="st1" d="M752.2,98.9c-1.2-1.2-1.8-2.8-1.8-4.7V79.5c0-1.9,0.6-3.5,1.8-4.7c1.2-1.2,2.8-1.8,4.7-1.8
						s3.5,0.6,4.7,1.8c1.2,1.2,1.8,2.8,1.8,4.7v14.7c0,1.9-0.6,3.5-1.8,4.7c-1.2,1.2-2.8,1.8-4.7,1.8S753.4,100.1,752.2,98.9z
						 M758.8,96.2c0.4-0.5,0.7-1.1,0.7-2V79.5c0-0.8-0.2-1.5-0.7-2c-0.4-0.5-1-0.7-1.8-0.7s-1.4,0.2-1.8,0.7s-0.7,1.1-0.7,2v14.7
						c0,0.8,0.2,1.5,0.7,2c0.4,0.5,1,0.7,1.8,0.7S758.3,96.6,758.8,96.2z"/>
					<path class="st1" d="M768.9,96.3h4.1v4h-4.1V96.3z"/>
					<path class="st1" d="M780,98.9c-1.2-1.2-1.8-2.8-1.8-4.7V79.5c0-1.9,0.6-3.5,1.8-4.7c1.2-1.2,2.8-1.8,4.7-1.8s3.5,0.6,4.7,1.8
						c1.2,1.2,1.8,2.8,1.8,4.7v14.7c0,1.9-0.6,3.5-1.8,4.7c-1.2,1.2-2.8,1.8-4.7,1.8S781.2,100.1,780,98.9z M786.6,96.2
						c0.4-0.5,0.7-1.1,0.7-2V79.5c0-0.8-0.2-1.5-0.7-2c-0.4-0.5-1-0.7-1.8-0.7s-1.4,0.2-1.8,0.7s-0.7,1.1-0.7,2v14.7
						c0,0.8,0.2,1.5,0.7,2c0.4,0.5,1,0.7,1.8,0.7S786.1,96.6,786.6,96.2z"/>
					<path class="st1" d="M797.7,98.9c-1.2-1.2-1.8-2.8-1.8-4.7V79.4c0-1.9,0.6-3.5,1.8-4.7s2.7-1.8,4.7-1.8s3.5,0.6,4.6,1.8
						c1.2,1.2,1.8,2.8,1.8,4.7v0.9h-3.9v-1.1c0-0.7-0.2-1.3-0.7-1.8c-0.4-0.4-1-0.7-1.8-0.7s-1.3,0.2-1.7,0.7
						c-0.4,0.4-0.7,1-0.7,1.8v6.2c0.3-0.5,0.8-1,1.5-1.4c0.7-0.4,1.5-0.6,2.5-0.6c1.5,0,2.8,0.5,3.6,1.5c0.9,1,1.3,2.3,1.3,4v5.2
						c0,1.9-0.6,3.5-1.8,4.7s-2.8,1.8-4.7,1.8S798.9,100.1,797.7,98.9L797.7,98.9z M804.2,96.2c0.4-0.4,0.7-1,0.7-1.8v-4.8
						c0-0.8-0.2-1.4-0.6-1.8s-0.9-0.6-1.7-0.6c-0.8,0-1.5,0.2-1.9,0.7c-0.5,0.5-0.7,1.1-0.7,2v4.5c0,0.7,0.2,1.3,0.7,1.8
						c0.4,0.4,1,0.7,1.8,0.7C803.1,96.8,803.7,96.6,804.2,96.2L804.2,96.2z"/>
				</g>
				<g>
					<path class="st1" d="M922.8,289.5c-1.5,0.4-2.7,0.6-3.6,0.5c-1.6-0.2-2.3-1.1-2.2-2.6c0.3-3.4,5-9.1,14.1-17
						c0.3-0.2,0.5-0.6,0.5-1c-0.3-2.1-0.5-4.3-0.4-6.5c-0.1-0.5-0.3-0.8-0.5-1c-2.4-2.3-5.5-4.4-9.2-6.1c-1.4-0.7-2.7-1.4-4-2.2
						c-1.9-1-3.4-2.4-4.7-4.1c-1.2-1.7-1.7-3.6-1.6-5.5c0.2-1.7,0.9-3.5,2.1-5.3c3.9-5.5,10.4-11.1,19.7-16.7
						c8.8-5.5,18.2-9.7,28.1-12.7c11-3.3,17.9-1.9,20.5,4c0.6,1.8,0.7,3.7,0.5,5.7c-0.3,3.8-1.8,8.3-4.3,13.4c-4,8.1-9,16-15.1,23.7
						c-5.5,7.1-11.7,13.8-18.7,20c-4.6,4.2-9.7,7.8-15.1,10.8C926.9,288,924.8,288.9,922.8,289.5L922.8,289.5z M922.3,288.6
						c3-0.9,5.8-2.2,8.6-4c6.1-3.7,11.7-8,16.7-13c11.6-11.4,20.9-23.7,27.9-36.9c2.5-4.5,4.3-9,5.3-13.5c0.2-0.8,0.3-1.7,0.4-2.5
						c0.2-1.9,0-3.6-0.6-5.3c-1.2-3.1-3.8-4.9-7.8-5.2c-3.6-0.3-7.8,0.3-12.6,1.7c-4.8,1.4-9.5,3.3-14.3,5.6
						c-7.7,3.6-15,8.1-22,13.5c-3,2.3-5.8,4.9-8.2,7.8c-2.1,2.5-3.2,4.8-3.4,7c-0.3,3,1.2,5.6,4.4,7.8c1.6,1.1,3.3,2.1,5.1,2.9
						c3.2,1.5,6.1,3.4,8.8,5.6l0.4,0c0,0,0-0.1,0.1-0.1l0.2-3.2c0.3-3.8,1-7.7,1.9-11.8l2.3-9.8c0.2-0.4,0.2-0.8,0.3-1.1
						c0-0.4-0.2-0.7-0.6-0.7c-0.1,0-0.1,0-0.1-0.1c-0.1-0.5-0.2-1-0.1-1.5c0.1-0.8,0.4-1.7,1-2.6c0.2-0.4,0.6-0.8,1.1-0.9
						c0.8-0.1,1.2,0.5,1.3,1.7c-0.2,2.1-0.9,5.4-2.1,9.8c-2,7.8-3.2,14.1-3.7,19.2c-0.1,0.6-0.1,1.3-0.1,2c0,0.7,0.1,1.3,0.5,1.9
						c0.8,1.1,1.4,2.2,1.9,3.5c0,0.4,0.1,0.6,0.4,0.7l3.7-2.6c3.2-2.3,6-3.9,8.5-4.8c0.2,0,0.3,0.1,0.4,0.2
						c-0.1,0.1-0.2,0.2-0.2,0.3c-0.1,0.1-0.2,0.1-0.3,0.2c-4,1.8-7.8,4.1-11.3,7c-0.3,0.3-0.5,0.7-0.6,1c0,0.4,0,1.1,0.3,1.9l0,2.2
						c-0.2,1.7-0.6,2.7-1.4,2.9c-0.9,0.3-1.4-0.1-1.7-1.2c-0.3-1-0.6-2.1-0.8-3.1c-3.3,2.7-6.5,5.9-9.6,9.6
						c-2.4,2.7-3.7,4.9-3.8,6.7C918.1,289,919.5,289.4,922.3,288.6L922.3,288.6z M933,268.6c0.4-0.2,0.7-0.4,0.7-0.7
						c0-0.9-0.3-1.8-0.8-2.5C932.7,266.5,932.8,267.6,933,268.6L933,268.6z M933.9,272.4l0.1-1.1c0.1-1.5,0.1-2.2-0.2-2.1
						c-0.5,0.1-0.8,0.4-0.8,0.7C933.2,270.7,933.4,271.6,933.9,272.4L933.9,272.4z M936.4,231.5c0-0.1,0-0.1,0.1-0.1l-0.1-0.4
						L936.4,231.5L936.4,231.5z"/>
					<path class="st1" d="M996.6,246.8c-1.5,0.4-2.8,0.2-4-0.7c-1.3-1.2-1.8-3.3-1.6-6.3c0.3-3.4,1.7-6.9,4.1-10.3
						c1.2-1.7,2.3-2.7,3.2-3c1-0.1,1.5,0.4,1.4,1.5c-0.1,1.2-0.4,2.5-0.9,3.8c-1.3,3.8-3.3,7.5-6,11.2c-0.1,0.2-0.2,0.5-0.2,0.8
						c0,0.2,0.1,0.4,0.3,0.8c0.9,1.3,2.2,1.7,3.8,1.2c0.8-0.2,1.7-0.7,2.7-1.4c2.6-2,4.7-4.6,6.3-7.8c0-0.1,0.1-0.1,0.2-0.1
						s0.2,0.1,0.2,0.3c-1.2,3-3.3,5.8-6,8.1C998.8,245.8,997.6,246.5,996.6,246.8L996.6,246.8z M992.2,242.6l0.5-0.5
						c2.7-4.1,4.7-8.2,6.1-12.4c0.2-0.5,0.3-0.9,0.3-1.3c0.1-1.2-0.1-1.7-0.7-1.5c-0.2,0.1-0.5,0.2-0.8,0.5c-1.2,1-2.2,2.4-3.2,4.1
						c-1.3,2.7-2.1,5.4-2.3,8C992,240.5,992,241.5,992.2,242.6L992.2,242.6z"/>
					<path class="st1" d="M1028.5,257.3c-1.5,0.4-2.5,0-2.9-1.2c-0.2-0.7-0.3-1.4-0.2-2.1c0.1-0.6,0.2-1.3,0.6-2
						c2.1-6.2,8-13.6,17.6-22l-0.3-2c-0.4-3.6-1.8-5.1-4.4-4.4c-5.1,1.5-11.3,8.8-18.6,21.8l-1.4,2.3c-0.6,1.3-1.3,2-2,2.2
						c-0.5,0.2-0.9,0-1.1-0.4c-0.3-0.9-0.3-3.1,0-6.6c0.4-4.3,1.4-9.7,3.1-16.3c2.5-9.9,5.6-17.8,9.3-23.8c0.6-1,1.1-1.6,1.5-1.7
						c0.6-0.2,0.9,0.1,0.8,0.7c-0.4,0.9-0.6,1.8-0.7,2.6c-0.1,0.2-0.1,0.6-0.2,1.2c0,0.3-0.3,0.5-0.7,0.6s-0.7,0.4-0.8,0.8
						c-1.4,3-3,7-4.7,11.8c-3.3,9.4-5.2,17.5-5.8,24.2c-0.2,1.7-0.2,3.2-0.2,4.8c0.4-0.4,1.3-1.8,2.6-4c4.5-7.4,8.5-12.9,12-16.6
						c2.2-2.3,4.5-3.8,6.8-4.4c1.8-0.5,3.2-0.1,4.4,1.3c0.7,1.2,1,2.5,1.1,4.1c0,0.4,0,0.7,0.1,1.1c6.1-4.6,9.6-7.1,10.6-7.4
						l0.1,0.1c0,0.1,0,0.1,0,0.2c0,0.1-0.1,0.1-0.3,0.2c-3.4,2.3-6.9,4.8-10.4,7.7l-0.2,1c-0.7,5.9-3,11.9-7,18
						c-1.1,1.8-2.5,3.5-4,5.1C1031.5,255.8,1029.9,256.9,1028.5,257.3L1028.5,257.3z M1028.6,256.6c1.3-0.4,2.5-1.2,3.7-2.5
						c1.6-1.6,3-3.3,4.2-5.1c3.6-5.7,5.8-11.7,6.8-18.2c-1.4,1.1-3.2,2.8-5.3,4.9c-5.6,5.7-9.3,10.8-11.1,15.4
						c-0.4,0.8-0.6,1.6-0.7,2.4C1026,256.1,1026.8,257.1,1028.6,256.6L1028.6,256.6z"/>
					<path class="st1" d="M1083.6,239.5c-0.4,0.1-0.7,0-0.9-0.4c-0.1-1.1-0.1-2.9,0.1-5.2c0.7-7.4,1.9-15.3,3.8-23.7
						c1.6-7.5,2.6-11.6,3-12.4l0.2-1c0-0.4,0-0.6-0.1-0.5c-0.6,0.2-1.1,0.3-1.5,0.5s-0.8,0.7-1.2,1.7c-5,11.6-8.7,17.8-11.2,18.5
						c-1.2,0.4-2.2-0.6-2.9-2.8l-0.4-1c-0.6,0.9-0.9,1.6-0.9,2.2c-1,2.8-1.9,5.4-2.7,7.9c-0.2,0.8-0.7,1.6-1.2,2.5
						c-0.3,0.6-0.8,0.9-1.2,1.1c-1.5,0.4-2.1-1.2-1.7-4.8c0.2-2.4,0.7-4.8,1.6-7.4c0.4-1.2,0.8-1.9,1.2-2c0.6-0.2,0.8,0.1,0.8,0.6
						c-1,3.5-1.6,6.3-1.7,8.2c-0.2,2.5-0.2,3.8,0.2,4c0.3-0.2,0.6-0.8,1.1-1.7c0.4-0.9,1.7-4.3,3.8-10.4c0.2-0.6,0.6-1,1-1.2
						c0.4-0.1,0.6,0.1,0.8,0.6c0.8,2.5,1.6,3.6,2.5,3.3c1.9-0.6,4.8-5.2,8.7-13.9l2.4-5.1c-1.7,0.5-4.8,1.7-9.4,3.6
						c-1.1,0.5-2.2,1-3.4,1.3c-0.7,0.2-1,0-0.9-0.6c0-0.4,0.3-0.7,0.7-0.9c1-0.6,2-1.1,3-1.4l2.3-0.6c1-0.3,2-0.7,3.2-1.1
						c1.5-0.6,2.9-1.1,4.3-1.5c0.8-0.2,1.4-0.7,1.7-1.5c2.3-4.6,3.5-7,3.5-7.2c0.1-0.2,0.3-0.6,0.7-1.3c0.4-0.7,0.7-1,1-1.1
						c0.2-0.1,0.4,0,0.3,0.2c-0.6,3-1.4,6-2.2,9c0,0.3,0.2,0.4,0.5,0.2c5.2-1.3,7.8-1.6,7.9-0.9c0,0.2-0.2,0.3-0.4,0.4
						c-1.6,0.1-3.2,0.3-4.8,0.8l-2.5,0.7c-0.5,0.1-0.8,0.3-1,0.4s-0.3,0.4-0.4,0.9c-0.3,1.6-0.7,3.1-1.1,4.6
						c-0.9,3.5-1.6,6.9-2.3,10.3c-1.9,9.4-3.1,17-3.6,22.7c-0.2,2.3-0.2,3.6-0.1,3.8c0.2,0.2,0.2,0.3,0.2,0.4
						C1084.3,238.9,1084,239.2,1083.6,239.5L1083.6,239.5z M1089.7,195.2c0.6-0.2,1-0.6,1.1-1.1c0.7-2.4,1.5-4.8,2.3-7.3
						c-1.4,2.6-2.8,5.4-4.1,8.5L1089.7,195.2L1089.7,195.2z"/>
					<path class="st1" d="M1110.3,220.1c-0.1,0-0.2,0-0.3,0c-0.7-0.2-1-0.6-0.9-1.4c0.1-0.9,0.5-1.4,1.2-1.7c0.6-0.2,0.9,0,0.9,0.4
						l-0.1,0.4c-0.3,0.4-0.5,0.7-0.5,1c0,0.2,0,0.4,0.1,0.5s0.2,0.2,0.2,0.3C1110.8,219.9,1110.6,220,1110.3,220.1L1110.3,220.1z
						 M1110.7,211.3c-0.1,0-0.2,0-0.4-0.1c-0.6-0.2-0.7-2.4-0.3-6.5c0.5-5,1.6-10.8,3.4-17.3c0.5-2,0.8-3.1,0.8-3.3
						c0-0.2-0.1-0.3-0.2-0.4c-0.2-0.1-0.3-0.2-0.3-0.2c0-0.5,0.7-2,2-4.4c0.2-0.4,0.3-0.6,0.4-0.6c0.4-0.1,0.5,0,0.5,0.4
						c-0.3,1.9-1.4,6.7-3.3,14.5c-1.2,4.8-2,9.5-2.5,14.1c-0.2,1.7,0,2.6,0.4,2.6c0.2,0.1,0.3,0.2,0.2,0.3
						C1111.4,210.9,1111.1,211.2,1110.7,211.3L1110.7,211.3z"/>
					<path class="st1" d="M1131.4,213.9c-0.1,0-0.2,0-0.3,0c-0.7-0.2-1-0.6-0.9-1.4c0.1-0.9,0.5-1.4,1.2-1.7c0.6-0.2,0.9,0,0.9,0.4
						l-0.1,0.4c-0.3,0.4-0.5,0.7-0.5,1c0,0.2,0,0.4,0.1,0.5s0.2,0.2,0.2,0.3C1131.8,213.6,1131.7,213.8,1131.4,213.9L1131.4,213.9z
						 M1131.7,205.1c-0.1,0-0.2,0-0.3-0.1c-0.6-0.2-0.7-2.4-0.3-6.5c0.5-5,1.6-10.8,3.4-17.3c0.5-2,0.8-3.1,0.8-3.3
						c0-0.2-0.1-0.3-0.2-0.4c-0.2-0.1-0.3-0.2-0.3-0.2c0-0.5,0.7-2,2-4.4c0.2-0.4,0.3-0.6,0.4-0.6c0.4-0.1,0.5,0,0.5,0.4
						c-0.3,1.9-1.4,6.7-3.3,14.5c-1.2,4.8-2,9.5-2.5,14.1c-0.2,1.7,0,2.6,0.4,2.6c0.2,0.1,0.3,0.2,0.2,0.3
						C1132.5,204.7,1132.2,205,1131.7,205.1L1131.7,205.1z"/>
				</g>
			</g>
		</g>
	</g>
</g>
</svg>
