<?xml version="1.0" encoding="UTF-8"?>
<svg id="_レイヤー_2" data-name="レイヤー 2" xmlns="http://www.w3.org/2000/svg" viewBox="0 0 503.6264648 75.4397278">
  <defs>
    <style>
      .cls-1 {
        fill: #52b5db;
      }
    </style>
  </defs>
  <g id="_レイヤー_1-2" data-name="レイヤー 1">
    <g>
      <path d="m17.2436523,33.8742981c-1.7602539-.3400269-3.5405273-1.0202026-4.640625-1.7003784-1.4204102.7401733-3.7207031,1.4203491-6.121582,1.7003784l-.7402344-2.0204468c2.3408203-.1199951,4.1210938-.4801025,4.9213867-.8201294-.8803711-.6201782-1.6206055-1.4003296-1.9604492-1.8203735-.4204102.3600464-1.1000977.880127-1.7402344,1.2202148l-1.2006836-1.7203369c1.9003906-.9002075,2.8007812-1.7403564,3.480957-2.7205811h-1.7202148v-5.3811646s-1.2402344-1.0402222-1.2402344-1.0202026v.9802246c-.340332.880127-.9404297,2.2004395-1.7006836,3.3206787.0800781.0800171.3603516.3601074.4604492.4801025.3798828-.3601074.7197266-.7801514,1.0200195-1.2202759l1.1201172,1.1002808s-.5.5600586-1.2602539,1.1202393c.2402344.2399902.6201172.7001343.9204102,1.0802002l-1.1601562,1.2602539c-.4604492-.7401123-.9204102-1.4202881-1.4003906-2.0404053v8.2017212h-1.9604492v-7.3215332c-.4204102.5401001-1.0004883,1.2002563-1.5004883,1.6203003l-.8203125-1.9804077c2.6005859-1.7203369,4.0410156-4.480957,4.3413086-5.4411621H.4804688v-1.800354h1.840332v-3.0806885h1.9604492v3.0806885h2.0004883v.3400879c1.840332-1.5603638,2.6005859-3.4207764,2.6005859-3.4207764l1.9204102.4000854s-.1601562.3400879-.4204102.7601929h7.4418945v1.5803223h-8.4418945c-.2001953.3601074-.5200195.7801514-.800293,1.0602417h8.4018555v6.3213501h-5.5610352c-.1401367.3000488-.4604492.7401123-.7602539,1.0802002h6.3413086v1.4803467s-1.1201172,1.5203247-2.6806641,2.4805298c.9404297.3400269,2.2807617.6201172,3.6806641.7201538l-.7602539,2.1204224Zm-2.1801758-12.8827515h-5.6411133v1.1202393h5.6411133v-1.1202393Zm0,2.4205322h-5.6411133v1.2202759h5.6411133v-1.2202759Zm-4.6611328,5.1611328c.4204102.4400635,1.1401367,1.0802002,2.1606445,1.7003174,1.5400391-.880188,2.2402344-1.7003174,2.2402344-1.7003174h-4.4008789Z"/>
      <path d="m39.7041016,22.9919739c-3.6611328-1.4802856-7.0014648-4.2008667-8.1821289-5.4411621-.8198242,1.1002808-4.5209961,4.1008911-8.121582,5.7012329l-1-2.0204468c5.78125-2.4005127,8.2016602-5.4611206,8.2016602-5.4611206h1.6601562s3.4208984,3.4006958,8.3417969,5.1810913l-.8999023,2.0404053Zm-3.4208984,10.8823242v-.8201294h-9.6821289v.8201294h-2.0205078v-7.9616699h13.7231445v7.9616699h-2.0205078Zm-9.8623047-10.2021484v-1.7803955h10.4223633v1.7803955h-10.4223633Zm9.8623047,4.020813h-9.6821289v3.5808105h9.6821289v-3.5808105Z"/>
      <path d="m57.5429688,31.8938904c2.0205078,0,2.5205078-.0200195,2.5205078-.5201416v-5.5611572h-3.2607422c-.9204102,0-1.800293-.2200317-1.800293-1.7803955v-1.4002686h-2.0605469c-.2001953,1.6603394-.9799805,3.1806641-3.8608398,4.2608643l-1.0600586-1.6603394c2.340332-.5801392,2.7802734-1.5603027,2.9204102-2.6005249h-2.9604492v11.2423706h-1.9604492v-12.9227295h4.1005859c-.1796875-.5401001-.4799805-1.3602905-.7998047-2.0204468h-4.0410156v-1.7403564h7.581543v-1.3203125h2.2807617v1.3203125h7.581543v1.7403564h-4.0009766c-.1801758.6601562-.4599609,1.4803467-.7202148,2.0204468h4.0209961v10.4221802c0,2.1605225-1.5605469,2.4205322-3.6010742,2.4205322l-.8798828-1.9003906Zm-7.7416992-.420105v-4.8209839h8.3618164v4.8209839h-8.3618164Zm1.7402344-12.5426636c.300293.7201538.5600586,1.5003052.7202148,2.0204468h3.5410156c.2197266-.420105.5400391-1.2202759.8198242-2.0204468h-5.0810547Zm4.6611328,9.34198h-4.440918v1.5803833h4.440918v-1.5803833Zm3.8608398-5.6411743h-3.1005859v1.0001831c0,.4801025.199707.5801392.6000977.5801392h2.5004883v-1.5803223Z"/>
      <path d="m84.684082,33.334198c-3.1010742-.6401367-5.4213867-1.8604126-7.2016602-3.4407349v3.980835h-2.0405273v-3.9608154c-1.6401367,1.6403198-3.9609375,2.7805786-6.9013672,3.4407349l-1.0405273-1.9604492c2.7407227-.4200439,4.6611328-.920166,6.0014648-1.8203735h-5.5209961v-1.6603394h7.4614258v-1.3602905h-5.7011719v-1.4803467h5.7011719v-1.2002563h-6.4213867v-1.5203247h4.0410156c-.3203125-.7401733-.6801758-1.3202515-.9804688-1.8203735h-4.1206055v-1.6803589h2.6606445c-.3603516-.4801025-1.1206055-1.340271-1.6806641-1.9204102l1.7006836-.9002075c.8798828,1.1402588,1.6000977,2.1204834,2,2.8206177h.7602539v-2.9806519h1.9604492v2.9806519h2.2607422v-2.9806519h1.9604492v2.9806519h.8598633c.7602539-.8001709,1.3203125-1.6803589,1.8603516-2.8206177l1.7407227.7801514c-.4003906.7601929-1.0004883,1.5603638-1.5004883,2.0404663h2.4804688v1.6803589h-4.0009766c-.199707.5601196-.6000977,1.2202759-.9199219,1.8203735h3.8608398v1.5203247h-6.4814453v1.2002563h5.7612305v1.4803467h-5.7612305v1.3602905h7.5415039v1.6603394h-5.5009766c1.3603516.7401733,3.2407227,1.4403076,5.9609375,1.8203735l-.7998047,1.9404297Zm-10.4023438-12.8027344c.2397461.4801025.5600586,1.1602783.8203125,1.8203735h2.840332c.4399414-.6201172.7602539-1.3002319.9003906-1.8203735h-4.5610352Z"/>
      <path d="m92.8808594,31.573822h.7602539c1.3803711,0,1.4799805-.1400146,1.4799805-4.3609619v-2.9805908h-1.6000977c-.1201172,3.4807129-.4399414,7.2815552-2.0004883,9.6420288l-1.5205078-1.7803345c1.6005859-2.640625,1.7207031-5.9813232,1.7207031-10.0421753v-1.4603271h-1.4404297v-1.7203369h2.4204102v-3.0006714h1.9404297v3.0006714h2.5605469v1.7203369h-3.6606445v1.9204102h3.3808594v2.8806152c0,7.4415894-.1601562,8.001709-3.2407227,8.0817261l-.800293-1.9003906Zm7.8017578,1.6803589c-.340332,0-1.7207031-.1000366-1.7207031-1.7803955v-6.1212769l-1.300293.2400513v-1.6403809l1.300293-.2400513v-1.7203369c-.4799805.6000977-.7597656.9001465-.7597656.9001465l-1.4204102-1.4202881s2.5004883-1.9404297,3.1606445-5.6011963l1.7402344.4401245c-.1000977.5801392-.2397461,1.1202393-.4199219,1.6403198h6.5415039v1.760376h-7.2617188c-.4599609.880188-1.0600586,1.7003784-1.4604492,2.1604614h1.6606445v1.5203247l1.5-.2600098v-2.5605469h1.6806641v2.2804565l3.4404297-.6401367v4.4209595c0,2.0203857-.7597656,2.4205322-2.6005859,2.4205322l-.6000977-1.7203979c1.2202148,0,1.4804688-.0800171,1.4804688-.8601685v-2.260498l-1.7202148.2800293v5.321167h-1.6806641v-5.0210571l-1.5.2600708v5.7612305c0,.5800781.5.6401367.7202148.6401367h3.1806641c1.5400391,0,1.5400391-.0800781,1.5400391-2.0804443l1.800293,1.1802368c0,2.5405273-1.2202148,2.7005615-2.840332,2.7005615h-4.4609375Z"/>
      <path d="m112.5,20.9715271v-1.7003174h7.7817383v1.7003174h-7.7817383Zm2.6005859,12.1426392v.7601318h-1.9204102v-6.2213135h6.4414062v5.4611816h-4.5209961Zm-1.7202148-14.9232178v-1.5803223h6.0214844v1.5803223h-6.0214844Zm0,8.2817993v-1.5803223h6.0214844v1.5803223h-6.0214844Zm.0200195-2.7606201v-1.5803223h6.0014648v1.5803223h-6.0014648Zm4.3007812,5.5211792h-2.6005859v2.180481h2.6005859v-2.180481Zm11.7226562,4.6409912c-1.6201172-.4801025-3.3808594-1.3602905-4.2407227-2.1004028-.8603516.7401123-2.5205078,1.6403198-4.0810547,2.1004028l-1.1801758-2.0004272c1.5200195-.2600098,3.0405273-.7201538,3.7807617-1.300293-1.640625-1.6603394-2.4404297-3.2606812-2.4404297-3.2606812l1.6401367-1.0202026s.7802734,1.6203613,2.2407227,3.0406494c1.0200195-.9002075,1.7802734-2.5605469,1.9204102-3.3007202h-6.3212891v-1.800354h8.5014648v1.6003418s-.7001953,2.8005981-2.640625,4.6610107c.7802734.5200806,2.1806641,1.1002197,3.9008789,1.3202515l-1.0800781,2.0604248Zm-1.6201172-10.5422363c-1.0805664,0-1.7607422-.6801147-1.7607422-1.7003784v-3.2207031h-2.1801758c-.0200195,2.5405884-.300293,4.3009644-2.6806641,5.3612061l-1.2001953-1.7203979c1.8603516-.5401001,2.0605469-2.1004639,2.0605469-4.0008545,0-.460083-.0200195-.9602051-.0200195-1.4403076h5.8608398v4.5209351c0,.3200684.1201172.4001465.5004883.4001465.5200195,0,.5600586-.1200562.5600586-1.2202759v-1.0402222l1.5600586.9602051c-.1000977,2.5805664-.4399414,3.100647-1.8203125,3.100647h-.8798828Z"/>
      <path d="m8.9628906,54.5923157c2.7807617-1.1401978,4.2006836-3.0406494,4.8208008-4.9810181h-1.3603516c-3.4204102,0-8.6416016.0599976-12.2822266.1600342l-.0800781-2.2005005c2.4204102.0800171,5.6611328.1400146,8.621582.1400146,2.5205078,0,4.8413086-.039978,6.2216797-.1400146l1.7202148,1.340271c-1.1801758,3.1806641-2.8408203,5.78125-5.8012695,7.4616089l-1.8603516-1.7803955ZM.5410156,61.6338196c4.9208984-1.7003784,6.0214844-5.401123,6.0214844-9.1419067,0-.3200684,0-.6201782-.0200195-.9402466l2.3603516.1000366c-.3598633,5.361145-1.1201172,9.0419312-6.5615234,11.7825317l-1.800293-1.800415Z"/>
      <path d="m21.5014648,61.6338196c6.8818359-1.4202881,10.7426758-5.7412109,12.0229492-10.6622925-.5004883-.0199585-1.0405273-.0199585-1.6206055-.0199585-1.6801758,0-3.5605469.0599976-5.1611328.1000366-1.2802734,1.7803345-2.9604492,3.3806763-5.1411133,4.6609497l-1.800293-1.4602661c3.8408203-1.8804321,6.1611328-5.1011353,7.0214844-8.041748l2.2006836.6401367c-.300293.7401733-.6401367,1.4803467-1.0405273,2.2004395h1.0405273c1.8603516,0,3.9604492-.039978,5.6411133-.1400146l1.4604492,1.3803101c-1.9804688,6.241333-4.9614258,11.0223389-12.6831055,13.2628174l-1.9404297-1.9204102Z"/>
      <path d="m54.7236328,62.3940125c0-.2600708.0200195-.5601196.0200195-.8602295-1.1606445-.0199585-2.9008789-.039978-4.7211914-.039978s-3.7006836.0200195-5.1611328.039978c0,.3001099.0200195.6201782.0200195.9802246l-2.2001953.0400391c.0395508-3.2607422.0595703-7.2415771.0595703-10.4422607,0-1.7003174,0-3.1806641-.0200195-4.2008667,1.640625.0599976,4.0610352.0800171,6.5214844.0800171,2.9208984,0,5.8813477-.0400391,7.6416016-.1000366-.0400391,1.6603394-.0800781,4.0808716-.0800781,6.701416,0,2.6005859.0400391,5.4011841.1201172,7.8016968h-2.2001953Zm.0400391-4.4609375c0-3.2607422-.0400391-6.241333-.0400391-8.0617676h-9.9023438c0,.8602295-.0200195,2.0004272-.0200195,3.3007202,0,1.8604126.0200195,4.0608521.0400391,6.4013672,1.6005859.0200195,3.8408203.0200195,5.9414062.0200195,1.5200195,0,2.9604492,0,3.980957-.0200195v-1.6403198Z"/>
      <path d="m78.4438477,62.6140442c-1.6000977-1.8604126-3.7807617-3.7008057-5.8007812-5.1411133-1.8408203,2.0404663-4.1811523,3.8808594-7.2817383,5.5612183l-1.9204102-1.7003784c5.8012695-2.4005127,10.2421875-7.3815918,11.6625977-11.562439h-1.0205078c-2.4804688,0-5.8212891.0599976-8.2216797.1600342v-2.2005005c1.5405273.039978,3.7006836.0800171,5.8212891.0800171,1.800293,0,3.6005859-.0200195,4.980957-.1000366l1.300293,1.0602417c-1.1000977,2.6005859-2.3603516,5.0010986-4.0405273,7.2015381,2.0600586,1.3203125,4.3408203,3.0606689,6.4609375,4.9610596l-1.9404297,1.6803589Z"/>
      <path d="m88.7817383,61.2537537c6.6611328-1.7403564,9.9819336-6.4813843,10.5219727-11.4824219-3.0004883,0-9.6420898.0599976-12.5224609.2000122l-.0200195-2.180481c2.0405273.0400391,4.3408203.0800171,6.6416016.0800171,2.5004883,0,4.9609375-.039978,6.9614258-.1000366l1.300293,1.0002441c-1.0405273,7.7616577-4.3408203,12.0825806-11.1625977,14.3230591l-1.7202148-1.8403931Zm13.9829102-12.8427734c-1.0800781,0-1.9404297-.8601685-1.9404297-1.9403687,0-1.0802612.8603516-1.9404297,1.9404297-1.9404297s1.9404297.8601685,1.9404297,1.9404297c0,1.0802002-.8603516,1.9403687-1.9404297,1.9403687Zm0-2.9406128c-.6201172,0-1,.460144-1,1.0002441,0,.6201172.4599609,1.0001831,1,1.0001831.6201172,0,1-.460083,1-1.0001831,0-.6201782-.4599609-1.0002441-1-1.0002441Z"/>
      <path d="m111.5214844,61.3537903c6.081543-.5201416,9.6621094-3.6807861,10.5424805-7.6016235-3.1206055,0-10.4223633.0599976-13.2226562.1600342v-2.1405029c2.3803711.0600586,5.5410156.1200562,8.4814453.1200562,2.3208008,0,4.5009766-.039978,6.0615234-.1200562l1.4604492,1.0802612c-1.8208008,5.7612305-4.8813477,9.4620361-11.8427734,10.5822754l-1.4804688-2.0804443Zm11.2626953-12.2225952c-1.3803711-.0600586-3.6806641-.0800781-6.0014648-.0800781-2.300293,0-4.640625.0200195-6.1210938.0800781v-2.0004883c1.2602539.0400391,3.1206055.0600586,5.0410156.0600586,2.640625,0,5.440918-.0400391,7.081543-.0800171v2.0204468Z"/>
      <path d="m135.7421875,61.7338562c4.8408203-1.1002197,6.0610352-4.4609375,6.1010742-9.1619873h-5.4609375c0,1.7803955.0200195,3.5407715.0600586,4.861084l-2.2207031.039978c.0200195-1.3002319.0400391-3.0606079.0600586-4.8810425-1.6401367.0200195-3.0805664.0400391-4.1010742.0600586v-2.0004883c1.0004883.0400391,2.4208984.0600586,4.1010742.0600586,0-1.5803223-.0200195-3.0606689-.0400391-4.1608887l2.2006836.0200195c-.0200195,1.0601807-.0400391,2.5605469-.0600586,4.1608887h5.4609375c0-1.2202759-.0200195-2.5005493-.1000977-4.2009277l2.2407227-.0200195c-.0400391,1.6803589-.0400391,2.9806519-.0400391,4.2009277,1.6201172-.0200195,3.1005859-.0400391,4.2807617-.0600586v1.9804688c-1.1401367-.0200195-2.640625-.0400391-4.3007812-.0600586-.0600586,4.5410156-.8203125,8.8619385-6.3012695,11.0223999l-1.8803711-1.8604126Zm10.6621094-11.7625122c-.5200195-.7401733-1.1801758-1.5603638-1.8203125-2.2404785l1.1601562-.8201904c.6601562.6601562,1.3203125,1.4003296,1.8803711,2.1604614l-1.2202148.9002075Zm1.9204102-1.2002563c-.5-.7401733-1.1601562-1.4803467-1.8603516-2.2004395l1.1401367-.7601929c.6801758.6601562,1.3203125,1.3803101,1.8803711,2.1004639l-1.1601562.8601685Z"/>
    </g>
    <g>
      <path d="m246.3305664,32.8301697c-3.0405273-1.1002197-5.5009766-3.0806274-6.6611328-4.3609009v5.4211426h-1.9604492v-5.3811646c-1.0600586,1.300293-3.3608398,3.2807617-6.5615234,4.5209961l-1.4404297-2.0004272c3.0810547-.7601929,5.1411133-1.9404297,6.5615234-3.1607056h-4.9008789v-7.6816406h6.3413086v-1.2602539h-7.5214844v-1.7203369h7.5214844v-1.3203125h1.9604492v1.3203125h7.5415039v1.7203369h-7.5415039v1.2602539h6.4013672v7.6816406h-4.9208984c1.1601562.9202271,3.300293,2.1004639,6.5410156,2.9006348l-1.3603516,2.0604248Zm-8.621582-11.0823364h-4.3808594v1.4603271h4.3808594v-1.4603271Zm0,2.9606323h-4.3808594v1.6003418h4.3808594v-1.6003418Zm6.4013672-2.9606323h-4.440918v1.4603271h4.440918v-1.4603271Zm0,2.9606323h-4.440918v1.6003418h4.440918v-1.6003418Z"/>
      <path d="m268.9506836,33.7503967c-2.7802734-1.800354-4.9609375-3.9208374-6.3413086-5.7412109-1.7802734,2.220459-5.28125,4.7609863-9.1220703,5.8812256l-1.2402344-2.0804443c8.6821289-2.640564,11.3027344-8.1817017,11.9829102-11.602478h-5.5014648c-.9399414,1.4202881-2.300293,3.100708-4.3408203,4.4609375l-1.4804688-1.6603394c4.28125-2.5005493,5.5415039-7.0614624,5.5415039-7.0614624l2.2001953.4000244s-.5,1.1602783-1,2.0604858h6.8613281c0,2.220459-.800293,5.2211304-2.6806641,7.9816895,1.640625,1.9404297,3.7607422,3.600769,6.3813477,5.1010742l-1.2602539,2.260498Z"/>
      <path d="m281.8686523,23.728241c-.1201172-.4000854-.2197266-.6601562-.3598633-1.0001831-1.2202148.500061-3.7807617,1.3002319-6.2211914,1.8203735l-.5605469-1.8604126c.5004883-.0599976,1.0805664-.1600342,1.0805664-.1600342v-5.7012329h.0200195c.2998047,0,3.9008789-.0199585,6.1611328-.880127l1.0800781,1.4602661c-1.9404297.5601196-4.1806641.84021-5.2807617.9202271v3.8208008c1.2602539-.2800293,2.1601562-.5601196,3.0405273-.880188-.4399414-.9401855-.9404297-1.7803955-.9404297-1.7803955l1.6206055-.7401733s1.1201172,1.8404541,2.1005859,4.0809326l-1.7407227.9001465Zm7.2817383,10.1621704v-.7601318h-10.9023438v.7601318h-1.9604492v-9.0619507h14.8232422v9.0619507h-1.9604492Zm-6.5214844-7.5615845h-4.3808594v1.760376h4.3808594v-1.760376Zm0,3.2406616h-4.3808594v2.0004272h4.3808594v-2.0004272Zm4.78125-7.3415527h.2597656c2.3007812,0,2.1606445-.2800903,2.2006836-1.760376v-2.2005005h-2.0004883c-.0200195,1.6403809-.5400391,4.9210815-2.9804688,6.4414062l-1.5405273-1.300293c2.4204102-1.5402832,2.640625-3.8007812,2.640625-5.1411133h-2.3803711v-1.6403198h8.2216797v3.9008179c0,2.5805664-.300293,3.3607178-3.5009766,3.5407715l-.9199219-1.8403931Zm1.7402344,4.1008911h-4.6411133v1.760376h4.6411133v-1.760376Zm0,3.2406616h-4.6411133v2.0004272h4.6411133v-2.0004272Z"/>
      <path d="m313.8505859,32.5301208c-3.5405273-2.4605103-5.6611328-5.4611816-6.6210938-7.2415161v8.6018066h-2.0004883v-8.5618286c-1.0600586,1.9604492-3.1206055,4.901062-6.6816406,7.2215576l-1.340332-1.8803711c3.2207031-1.7404175,5.621582-4.4609985,6.6416016-6.1413574h-6.1611328v-1.800354h7.5415039v-6.8414917h2.0004883v6.8414917h7.4814453v1.800354h-6.1010742c1.0400391,1.5403442,3.3803711,4.2209473,6.6010742,6.0213013l-1.3603516,1.9804077Zm-12.262207-10.5222168c-1.1606445-2.680603-2.6806641-4.3409424-2.6806641-4.3409424l1.6201172-1.0002441s1.5605469,1.8804321,2.7407227,4.440979l-1.6801758.9002075Zm7.7016602-.9602051s1.6601562-1.8804321,2.5605469-4.4209595l1.7001953.8401489c-.9204102,2.5005493-2.5805664,4.6210327-2.5805664,4.6210327l-1.6801758-1.0402222Z"/>
      <path d="m319.7270508,33.1302795s.3603516-2.5805664.3603516-5.0610962l1.2001953.0599976c0,2.6205444-.2001953,5.2411499-.2001953,5.2411499l-1.3603516-.2400513Zm3.8408203-1.1802368c1.4604492,0,2.1206055-.0200195,2.3608398-1.5203857l-.8603516.2600708s-.2202148-1.1401978-.7202148-2.6005249l.9204102-.3000488c.2797852.8201294.5800781,1.7403564.7202148,2.3804932.0600586-.6401367.0800781-1.760376.0800781-2.8605957h-5.8813477v-10.8223267h7.4814453v1.6003418h-2.300293v1.4802856h1.7402344v1.4202881h-1.7402344v1.5803833h1.7402344v1.4202881h-1.7402344v1.6603394h2.5004883c-.0800781,5.8212891-.0600586,8.001709-3.5810547,8.1217651l-.7202148-1.8203735Zm-1.7402344-.0200195s-.0200195-1.5803223-.2797852-3.3807373l.9799805-.1600342c.3598633,2.1404419.4799805,3.4207153.4799805,3.4207153l-1.1801758.1200562Zm1.800293-13.8429565h-1.6201172v1.4802856h1.6201172v-1.4802856Zm0,2.9005737h-1.6201172v1.5803833h1.6201172v-1.5803833Zm0,3.0006714h-1.6201172v1.6603394h1.6201172v-1.6603394Zm-.0800781,7.4215698s-.2197266-1.5803223-.5400391-3.0606689l.9404297-.2000122c.4399414,1.5803223.7202148,3.0406494.7202148,3.0406494l-1.1206055.2200317Zm12.5229492,2.4805298s-2.4604492-3.2206421-3.3408203-9.7220459h-1.9003906v.5200806c0,3.2807007-.3198242,6.62146-1.7001953,9.2019653l-1.7607422-1.6003418c1.300293-2.2804565,1.4604492-5.6011963,1.4604492-7.6016235v-8.1417236h8.3818359v7.6216431h-2.4604492c.6000977,5.4411621,3.0405273,8.3417358,3.0405273,8.3417358l-1.7202148,1.3803101Zm-.800293-15.6433105h-4.440918v4.2208862h4.440918v-4.2208862Z"/>
      <path d="m358.3105469,32.8102112c-1.2602539-1.2002563-3.2407227-2.5405884-5.3808594-3.5007935.0600586.4001465.0600586.5601807.0600586.7802124,0,2.180481-1.9003906,3.1206665-4.1811523,3.1206665-1.2602539,0-2.6206055-.2800903-3.8408203-.8001709-1.2202148-.5001221-1.9404297-1.6803589-1.9404297-2.8605957,0-.460144.1801758-3.2807617,4.7412109-3.2807617.9399414,0,1.9204102.1200562,2.9204102.3400879-.1601562-2.6005249-.3198242-7.1015015-.3598633-10.3822021l2.2802734.0400391c-.1000977,1.2202148-.1201172,2.5805054-.1201172,3.980835.3603516.0200195.7402344.0200195,1.1206055.0200195,1.8203125,0,3.7207031-.1200562,5.2607422-.2800903v2.0004272c-1.7202148.0800171-3.7407227.1600342-5.7612305.1600342h-.5800781c.0400391,1.760376.1401367,3.5407715.2402344,5.0610962,2.3603516.8201294,4.7211914,2.1004028,6.78125,3.56073l-1.2402344,2.0404663Zm-7.4213867-3.2006836c-.0200195-.1600342-.0200195-.3400879-.1000977-1.1002808-1.0400391-.3200684-2.1005859-.5200806-3.1005859-.5200806-1.7602539,0-2.5805664.7601929-2.5805664,1.5603638,0,1.3602295,2.4404297,1.7003174,3.5205078,1.7003174,1.2006836,0,2.2607422-.3800659,2.2607422-1.4802856v-.1600342Z"/>
      <path d="m370.8686523,22.8680725c-.7998047,1.3602905-1.5600586,2.9406128-2.2602539,4.2809448-.300293.5600586-.7202148.9602051-1.1000977.9602051-.800293,0-1.0205078-1.5603638-1.0205078-4.0609131,0-2.3604736.2001953-5.3011475.3798828-7.2215576l2.2407227.2000732c-.3198242,1.6403809-.6401367,4.2208862-.6401367,5.6212158v.1199951c0,.6201172.0800781.880188.2602539.880188.2397461,0,.6601562-.5601196,1.2802734-1.5403442l.8598633.7601929Zm-1.1201172,8.8018799c3.5205078-.1600342,6.5615234-1.6603394,6.9013672-5.5211792.0600586-.6401367.0800781-1.3203125.0800781-2.0604248,0-2.220459-.2001953-4.8410645-.3598633-7.5216064l2.2802734-.0200195v.3601074c0,2.9406128.1801758,5.8812256.1801758,8.041687,0,2.260498-.0200195,7.3815918-7.7016602,8.9019165l-1.3803711-2.180481Z"/>
      <path d="m232.3701172,63.4903259v-17.383667h5.3408203v1.4802856h-3.640625v15.9033813h-1.7001953Z"/>
      <path d="m242.2270508,62.190033c2.4208984-2.260437,4.3212891-5.9212646,4.3212891-5.9212646l1.2602539,1.4003296s-1.5205078,3.1806641-3.9609375,5.8812866l-1.6206055-1.3603516Zm3.8007812-7.5015869c-1.7602539-1.6203613-3.6606445-2.6005249-3.6606445-2.6005249l1.0405273-1.4003296s1.840332.9802246,3.6806641,2.5005493l-1.0605469,1.5003052Zm.5205078-4.6610107c-1.5805664-1.5402832-3.5009766-2.6605225-3.5009766-2.6605225l1.0400391-1.4003296s1.7607422,1.0802612,3.5810547,2.6205444l-1.1201172,1.4403076Zm4.2807617,13.2028809s-1.800293,0-1.800293-1.7803955v-8.5018311l-1.4204102.2600708v-1.8403931l1.4204102-.2800903v-3.9208374h1.9604492v3.560791l2.1201172-.380127v-4.4609375h1.9204102v4.1209106l4.2612305-.8001709v6.0213013c0,1.7203369-.4604492,2.4204712-2.6606445,2.4204712l-.6801758-1.8403931c1.3803711,0,1.4204102-.0800171,1.4204102-.7401123v-3.6207886l-2.3408203.4400635v6.7414551h-1.9204102v-6.4213867l-2.1201172.3800659v8.1417847c0,.7201538.7998047.7001343.7998047.7001343h4.5009766c1.7207031,0,1.9204102-.0200195,1.9204102-2.8806152l2.0004883,1.1802368c0,2.4605103-.8798828,3.5007935-2.9003906,3.5007935h-6.4814453Z"/>
      <path d="m267.2875977,54.7485046v-3.8208618c-.7797852.7201538-1.5800781,1.2402954-1.5800781,1.2402954l-1.0004883-1.7003784s3.2006836-1.4802856,4.4213867-4.5609741l1.8803711.5201416c-.5004883,1.0202026-1.140625,1.9603882-1.7807617,2.7405396v5.5812378h-1.9404297Zm14.1831055,9.1419067c-4.9609375-1.8803711-6.6210938-5.0210571-7.4414062-6.8214722h-.9204102c-.6801758.7202148-1.3603516,1.2603149-2.1801758,1.7803955v2.8206177c1.2202148-.1800537,2.4204102-.4401245,3.7207031-.8201904v1.6203613c-3.480957,1.1802368-7.5415039,1.3803101-7.5415039,1.3803101l-.2602539-1.800415s.8603516-.0200195,2.1206055-.1400146v-2.1004639c-1.6206055.7401733-3.1206055,1.300293-3.1206055,1.300293l-1.1005859-1.760376s3.5610352-.7001343,5.7612305-2.2805176h-5.2807617v-1.6603394h7.6015625v-1.6203003h1.800293v1.6203003h7.6616211v1.6603394h-6.1611328c.2998047.6801758,1.0200195,1.8604126,1.9604492,2.5405884.5800781-.3400879,1.3198242-1.1602783,1.8603516-1.9604492l1.6201172,1.0402222c-.7001953.7801514-1.4804688,1.5403442-2.140625,1.9604492.7602539.5601196,2.140625,1.2202148,3.2807617,1.5203247l-1.2402344,1.7203369Zm-5.2412109-13.6029053c.6401367,1.2802734,2.5805664,2.8005981,3.1606445,2.8005981.4404297,0,.800293-.5001221,1.0205078-2.0804443l1.5600586,1.0402222c-.4799805,2.2805176-1.3598633,2.9806519-2.300293,2.9806519-1.2202148,0-3.8808594-1.5403442-5.4609375-4.6009521l-3.78125.2200317v-1.5803833l3.1411133-.1799927c-.2402344-.7802124-.4604492-1.7003784-.6201172-2.5005493l1.9404297-.4801025c.1796875.9401855.3798828,1.9804077.6796875,2.8605957l2.6005859-.1600342c-.3198242-.4200439-.9199219-1.1202393-1.5200195-1.6203613l1.4003906-1.0202026c.9799805.84021,1.7202148,1.800415,1.7202148,1.800415l-1.0800781.8201294,2.9404297-.1799927v1.5803223l-5.4013672.3000488Z"/>
      <path d="m287.2070312,63.6503601v-1.4802856h3.6411133v-15.9033813h1.7001953v17.383667h-5.3413086Z"/>
      <path d="m299.7270508,63.1302795s.3603516-2.5805664.3603516-5.0610962l1.2001953.0599976c0,2.6205444-.2001953,5.2411499-.2001953,5.2411499l-1.3603516-.2400513Zm3.8408203-1.1802368c1.4604492,0,2.1206055-.0200195,2.3608398-1.5203857l-.8603516.2600708s-.2202148-1.1401978-.7202148-2.6005249l.9204102-.3000488c.2797852.8201294.5800781,1.7403564.7202148,2.3804932.0600586-.6401367.0800781-1.760376.0800781-2.8605957h-5.8813477v-10.8223267h7.4814453v1.6003418h-2.300293v1.4802856h1.7402344v1.4202881h-1.7402344v1.5803833h1.7402344v1.4202881h-1.7402344v1.6603394h2.5004883c-.0800781,5.8212891-.0600586,8.001709-3.5810547,8.1217651l-.7202148-1.8203735Zm-1.7402344-.0200195s-.0200195-1.5803223-.2797852-3.3807373l.9799805-.1600342c.3598633,2.1404419.4799805,3.4207153.4799805,3.4207153l-1.1801758.1200562Zm1.800293-13.8429565h-1.6201172v1.4802856h1.6201172v-1.4802856Zm0,2.9005737h-1.6201172v1.5803833h1.6201172v-1.5803833Zm0,3.0006714h-1.6201172v1.6603394h1.6201172v-1.6603394Zm-.0800781,7.4215698s-.2197266-1.5803223-.5400391-3.0606689l.9404297-.2000122c.4399414,1.5803223.7202148,3.0406494.7202148,3.0406494l-1.1206055.2200317Zm12.5229492,2.4805298s-2.4604492-3.2206421-3.3408203-9.7220459h-1.9003906v.5200806c0,3.2807007-.3198242,6.62146-1.7001953,9.2019653l-1.7607422-1.6003418c1.300293-2.2804565,1.4604492-5.6011963,1.4604492-7.6016235v-8.1417236h8.3818359v7.6216431h-2.4604492c.6000977,5.4411621,3.0405273,8.3417358,3.0405273,8.3417358l-1.7202148,1.3803101Zm-.800293-15.6433105h-4.440918v4.2208862h4.440918v-4.2208862Z"/>
      <path d="m326.8681641,60.1896667v-9.9621582h3.5009766l.2397461-1.3203125h-7.8813477v-1.7403564h8.1816406c.0200195,0,.2397461-1.2802734.2397461-1.2802734l2.0004883.1600342s-.199707,1.1202393-.2197266,1.1202393h6.8012695v1.7403564h-7.1015625l-.2397461,1.3203125h5.5209961v9.9621582h-11.0424805Zm-1.4404297,2.9406128v.7601318h-1.9604492v-13.6029053h1.9604492v11.0823975h14.5634766v1.760376h-14.5634766Zm10.6025391-11.3824463h-7.2817383v1.3202515h7.2817383v-1.3202515Zm0,2.6605835h-7.2817383v1.380249h7.2817383v-1.380249Zm0,2.7205811h-7.2817383v1.5402832h7.2817383v-1.5402832Z"/>
      <path d="m352.8491211,63.3302917c-2.4008789,0-3.440918-.6000977-4.4208984-1.5402832-.4804688.5401001-1.2602539,1.3202515-2.440918,2.1004028l-1.2802734-1.5603027c2.0805664-1.1602783,2.640625-2.180481,2.640625-2.180481v-5.1010742h-2.4003906v-1.800415h4.3608398v6.7614746c.7202148.9802246,1.3803711,1.5803223,3.5410156,1.5803223l9.8618164-.1000366-.3999023,1.8403931h-9.4619141Zm-5.2612305-12.6826782s-1.1801758-1.760376-2.4804688-3.1807251l1.4799805-1.1202393c1.340332,1.5403442,2.5209961,3.2006836,2.5209961,3.2006836l-1.5205078,1.1002808Zm10.9223633,8.5217896c1.5205078,0,1.5400391-.1400146,1.5400391-.6201172v-.8601685h-2.8603516v2.7205811h-1.8203125v-2.7205811h-2.6806641v3.100647h-1.9204102v-10.5022583h4.8808594c-.9399414-.3800659-1.8603516-.7001343-2.7602539-.9801636l1.5600586-1.1002808c.7402344.3200684,1.800293.8001709,2.5405273,1.2002563,1.0805664-.6801147,1.6806641-1.4202881,1.6806641-1.4202881h-8.1621094v-1.5803223h10.6625977v1.380249s-1.0805664,1.300293-2.5805664,2.4405518l.1201172.0599976h3.2207031v8.2617798c0,2.0404053-1.0205078,2.260498-2.5805664,2.3405151l-.840332-1.7203979Zm-3.140625-7.3615723h-2.6806641v1.4403076h2.6806641v-1.4403076Zm0,2.8806152h-2.6806641v1.5603638h2.6806641v-1.5603638Zm4.6806641-2.8806152h-2.8603516v1.4403076h2.8603516v-1.4403076Zm0,2.8806152h-2.8603516v1.5603638h2.8603516v-1.5603638Z"/>
    </g>
    <path d="m198.2060547,52.783783c2.940918-1.7003784,4.6210938-3.5407715,5.8212891-6.7614746l1.800293.7601318c-1.2202148,3.3207397-2.800293,5.6011963-6.1210938,7.7216797l-1.5004883-1.7203369Zm9.1621094,9.0018921c3.6606445,0,3.6806641-.3400879,3.6806641-2.0404663v-4.7409668h-3.9804688c-.1601562,1.9003906-1.140625,7.0615234-6.7216797,9.0018921l-1.1801758-1.8403931c4.8208008-1.380249,5.7011719-5.0610352,5.8012695-7.161499h-3.3608398v-1.800415h11.4624023v5.5612183c0,3.8607788-.2202148,4.8010254-4.8808594,4.9210205l-.8203125-1.9003906Zm7.2817383-7.4215698c-2.7807617-2.1004639-4.7011719-4.1209106-6.1015625-7.581665l1.7207031-.7601318c1.3598633,3.0606689,3.1206055,5.0010986,5.8808594,6.6414185l-1.5,1.7003784Z"/>
    <path d="m485.6826172,52.783783c2.940918-1.7003784,4.6210938-3.5407715,5.8212891-6.7614746l1.800293.7601318c-1.2202148,3.3207397-2.800293,5.6011963-6.1210938,7.7216797l-1.5004883-1.7203369Zm9.1621094,9.0018921c3.6606445,0,3.6806641-.3400879,3.6806641-2.0404663v-4.7409668h-3.9804688c-.1601562,1.9003906-1.140625,7.0615234-6.7216797,9.0018921l-1.1801758-1.8403931c4.8208008-1.380249,5.7011719-5.0610352,5.8012695-7.161499h-3.3608398v-1.800415h11.4624023v5.5612183c0,3.8607788-.2202148,4.8010254-4.8808594,4.9210205l-.8203125-1.9003906Zm7.2817383-7.4215698c-2.7807617-2.1004639-4.7011719-4.1209106-6.1015625-7.581665l1.7207031-.7601318c1.3598633,3.0606689,3.1206055,5.0010986,5.8808594,6.6414185l-1.5,1.7003784Z"/>
    <path class="cls-1" d="m158.4931641,1.8068848h45.5566406l-38.4277344,73.632843-5.9472656-3.0472412,33.1591797-63.7496338h-34.3408203V1.8068848Z"/>
    <g>
      <path class="cls-1" d="m396.7680664,24.2675476h-6.1962891c.1757812-7.081604,2.3071289-12.8967285,6.394043-17.4453735,4.0869141-4.5478516,9.1333008-6.8221741,15.1391602-6.8221741,5.9472656,0,10.7592773,2.1331787,14.4360352,6.3995056,3.6762695,4.2663574,5.5151367,9.2971802,5.5151367,15.0939941,0,4.0710449-.8769531,7.8895264-2.6298828,11.4555664-1.7529297,3.565918-5.1567383,8.3937988-10.2109375,14.4836426l-16.1035156,19.2664795h29.8232422v6.9335938h-43.9013672l24.6972656-29.6569824c5.0097656-5.9616089,8.2685547-10.3843994,9.777832-13.2675171,1.5087891-2.8831177,2.2631836-5.9212036,2.2631836-9.1140747,0-4.0397949-1.3554688-7.5172119-4.0649414-10.4332275-2.7099609-2.9158936-6.027832-4.3739014-9.9536133-4.3739014-4.1308594,0-7.565918,1.5304565-10.3051758,4.5898438-2.7397461,3.0601807-4.2998047,7.3570557-4.6801758,12.890625Z"/>
      <path class="cls-1" d="m480.4838867,1.8066406v6.835907h-22.9711914l-3.2348633,19.5861816c2.809082-.9155273,5.3408203-1.373291,7.5947266-1.373291,5.8823242,0,10.7333984,2.1896362,14.5527344,6.5673828,3.8188477,4.37854,5.7285156,9.9853516,5.7285156,16.8212891,0,4.7203369-.9819336,9.0499878-2.9443359,12.9882812-1.9628906,3.9390869-4.621582,6.9580078-7.9760742,9.0576172-3.3549805,2.0996094-7.2290039,3.1494141-11.6235352,3.1494141-5.2446289,0-9.6679688-1.7822266-13.2714844-5.3466797s-5.7568359-8.1787109-6.4599609-13.8427734h6.6357422c.4980469,2.7672119,1.340332,5.0133057,2.5268555,6.7382812,1.1865234,1.725769,2.7685547,3.1173706,4.7460938,4.1748047,1.9775391,1.0582275,4.0498047,1.5869141,6.2182617,1.5869141,4.2475586,0,7.8950195-1.7875977,10.9423828-5.3634644,3.046875-3.5751343,4.5703125-8.0452271,4.5703125-13.4094238,0-4.8431396-1.3774414-8.7768555-4.1308594-11.7996216-2.7539062-3.0227661-6.4311523-4.5349121-11.0302734-4.5349121-3.8085938,0-8.4228516,1.2863159-13.8427734,3.8574219l5.9765625-35.6933289h27.9931641Z"/>
    </g>
  </g>
</svg>