<?xml version="1.0" encoding="utf-8"?>
<!-- Generator: Adobe Illustrator 27.6.1, SVG Export Plug-In . SVG Version: 6.00 Build 0)  -->
<svg version="1.1" id="_レイヤー_1" xmlns="http://www.w3.org/2000/svg" xmlns:xlink="http://www.w3.org/1999/xlink" x="0px"
	 y="0px" viewBox="0 0 491.7 56.6" style="enable-background:new 0 0 491.7 56.6;" xml:space="preserve">
<style type="text/css">
	.st0{fill:#52B3D9;}
</style>
<g>
	<g>
		<g>
			<g>
				<g>
					<path d="M221.7,28.1l-0.4-1c0.8-0.2,1.6-0.5,2.4-0.9s1.6-0.8,2.4-1.4s1.4-1,1.7-1.4h-4.5v-5.6h5.1v-1.3h-6.5v-1h6.5v-1.4h1.2
						v1.4h6.6v1h-6.6v1.3h5.1v5.6H230c1,0.8,2.1,1.6,3.3,2.2c1.2,0.6,2.4,1.1,3.5,1.3l-0.6,1c-1.1-0.3-2.3-0.8-3.5-1.5
						c-1.2-0.7-2.3-1.4-3.1-2.1v4.2h-1.2v-4.2c-0.7,0.7-1.7,1.4-3,2.1S222.9,27.8,221.7,28.1z M224.4,20.3h3.9v-1.5h-3.9V20.3z
						 M228.4,21.1h-3.9v1.5h3.9V21.1z M229.6,20.3h4v-1.5h-4V20.3z M233.5,21.1h-4v1.5h4V21.1z"/>
				</g>
				<g>
					<path d="M240.1,28.6l-0.5-0.9c2.2-0.9,4.1-2.3,5.7-4.2s2.7-3.8,3.1-5.8h-4.9c-1,1.7-2.1,3.1-3.3,4.4l-0.8-0.6
						c1-1.2,1.9-2.4,2.7-3.8s1.3-2.5,1.6-3.5l1.3,0.2c-0.2,0.5-0.5,1.3-1,2.3h5.6l0.3,0.3c-0.5,1.8-1.1,3.2-1.6,4.3
						c0.7,1.2,1.6,2.3,2.8,3.4c1.1,1.1,2.3,2,3.6,2.8l-0.9,0.9c-2.9-2-4.9-4.1-6.2-6.1c-0.8,1.2-1.9,2.4-3.2,3.5
						C243.2,27.1,241.8,28,240.1,28.6z"/>
				</g>
				<g>
					<path d="M257.9,21.3l-0.4-0.9l1.3-0.3v-4.4c2.2-0.3,3.8-0.7,4.9-1l0.5,0.9c-0.4,0.1-1.8,0.4-4.1,0.9v3.3c1-0.3,1.9-0.6,2.8-0.9
						c-0.2-0.5-0.5-0.9-0.7-1.4l1-0.4c0.3,0.5,0.8,1.4,1.4,2.8l-1.1,0.5c-0.1-0.1-0.2-0.4-0.3-0.7C261.8,20.1,260,20.6,257.9,21.3z
						 M270,28h-9.8v0.5H259v-6.9h12.2v6.9H270V28z M264.5,22.6h-4.3v1.8h4.3V22.6z M260.2,27.1h4.3v-1.9h-4.3V27.1z M265.3,21.1
						l-0.6-0.8c0.8-0.5,1.4-1.2,1.7-1.8c0.3-0.7,0.5-1.5,0.6-2.4h-1.8v-0.9h6.9v1.5c0,1-0.1,1.8-0.2,2.4s-0.3,1-0.7,1.3
						c-0.3,0.3-0.7,0.4-1.2,0.4s-1.1,0-1.8,0l-0.1-1h1.3c0.2,0,0.5-0.1,0.7-0.2s0.5-0.5,0.5-1c0.1-0.5,0.1-1.1,0.1-1.8l0-0.8h-2.7
						c-0.1,1.2-0.3,2.2-0.8,3C266.9,19.9,266.2,20.5,265.3,21.1z M270,24.3v-1.8h-4.3v1.8H270z M265.7,27.1h4.3v-1.9h-4.3V27.1z"/>
				</g>
				<g>
					<path d="M275.7,27.6l-0.5-0.8c1.4-0.7,2.7-1.5,4-2.6c1.2-1,2.2-2.1,2.9-3.1h-6.2v-1h6.5v-5.6h1.3v5.6h6.6v1H284
						c0.7,1.1,1.8,2.1,3.1,3.2c1.3,1,2.6,1.8,3.8,2.3l-0.7,1c-1.3-0.6-2.6-1.4-3.8-2.3s-2.1-1.9-2.8-2.8v6.2h-1.2v-6.2
						c-0.9,1.1-1.9,2.2-3.2,3.1S276.8,27.1,275.7,27.6z M278.9,19.3c-0.6-1.2-1.2-2.4-1.9-3.4l1.1-0.5c0.5,0.8,1.2,2,1.9,3.4
						L278.9,19.3z M286.9,19.4l-1-0.4c0.8-1.2,1.5-2.4,1.9-3.5l1.2,0.4C288.3,17.4,287.6,18.6,286.9,19.4z"/>
				</g>
				<g>
					<path d="M294,28l-0.8-0.3c0.4-1.1,0.6-2.3,0.6-3.6l0.8,0.1c0,0.5-0.1,1.1-0.2,2C294.3,26.9,294.2,27.6,294,28z M298.1,22.1h2.2
						c0,1.7-0.1,3-0.2,3.9s-0.2,1.5-0.4,1.7s-0.4,0.5-0.7,0.6c-0.3,0.2-0.7,0.2-1.2,0.2h-1.3l-0.1-1c0.8,0,1.4,0,1.6-0.1
						c0.2,0,0.4-0.1,0.5-0.3c0.2-0.2,0.3-0.4,0.4-0.7s0.1-0.7,0.2-1.2c0-0.5,0-1.4,0-2.4h-3.8v0.3h-1V15h6.2v0.9h-2.3v1.5h1.8v0.8
						h-1.8v1.5h1.9v0.8h-1.9V22.1z M295.4,26.9l-0.2-2.9l0.7-0.1l0.2,2.9L295.4,26.9z M295.3,15.9v1.5h1.8v-1.5H295.3z M295.3,18.3
						v1.5h1.8v-1.5H295.3z M295.3,20.5v1.5h1.8v-1.5H295.3z M296.9,26.3l-0.4-2.4l0.6-0.1l0.4,2.5L296.9,26.3z M298.1,25.5l-0.4-1.9
						l0.5-0.1l0.4,1.9L298.1,25.5z M308.1,28.5c-1-0.9-1.8-2-2.4-3.3c-0.6-1.3-1-2.7-1.2-4.2h-1.6c0,1.5-0.2,2.9-0.5,4.3
						c-0.3,1.4-0.8,2.4-1.3,3.2l-0.9-0.6c0.5-0.7,0.8-1.7,1.1-3c0.3-1.3,0.4-2.8,0.4-4.4V15h6.2v6.1h-2.2c0.2,1.2,0.5,2.4,1.1,3.6
						c0.6,1.2,1.3,2.2,2.2,3L308.1,28.5z M306.7,15.9h-3.8v4.3h3.8V15.9z"/>
				</g>
				<g>
					<path d="M326,26.6l-0.8,1c-0.7-0.6-1.6-1.1-2.6-1.7s-1.9-1-2.7-1.3l0,0.9c0,1.8-1.1,2.7-3.3,2.7c-1.3,0-2.2-0.2-3-0.7
						s-1.1-1.1-1.1-1.9c0-0.8,0.4-1.5,1.2-1.9s1.8-0.7,3-0.7c0.6,0,1.3,0.1,1.9,0.2v-8.4h1.3v2.9h5.4v1.1h-5.4v4.7
						C322,24.2,324.1,25.2,326,26.6z M318.7,24.3c-0.7-0.2-1.4-0.3-2-0.3c-0.8,0-1.5,0.1-2.1,0.4c-0.6,0.3-0.9,0.7-0.9,1.2
						c0,0.5,0.3,0.8,0.8,1.1c0.5,0.3,1.2,0.4,1.9,0.4c1.5,0,2.3-0.5,2.3-1.6V24.3z"/>
				</g>
				<g>
					<path d="M334.7,28.6l-0.3-1c2.2-0.2,4-0.7,5.1-1.5c1.2-0.8,1.8-2.3,1.8-4.5c0-1.5-0.2-2.7-0.7-3.5c-0.5-0.8-1.1-1.2-1.9-1.2
						c-0.7,0-1.5,0.2-2.3,0.7c-0.8,0.5-1.5,1.3-2,2.4s-0.8,2.5-0.8,4.2l-1.1,0.1c-0.2-1.2-0.3-2.5-0.3-4c0-1.9,0.2-3.7,0.5-5.2
						l1.2,0.1c-0.3,1.9-0.6,3.6-0.6,5.2h0.1c0.4-1.4,1.1-2.5,2.1-3.3c1-0.8,2.1-1.2,3.2-1.2c1.2,0,2.2,0.5,2.9,1.5
						c0.7,1,1,2.5,1,4.4c0,2.4-0.7,4.2-2,5.2S337.3,28.4,334.7,28.6z"/>
				</g>
			</g>
		</g>
		<g>
			<g>
				<g>
					<path d="M227.3,35.7h-5.4v18.6h-1.7V34.4h7.1V35.7z"/>
				</g>
				<g>
					<path d="M232.8,45c-0.9-0.9-2.2-2-3.7-3.1l1.1-1.2c1.7,1.2,3,2.2,3.8,3L232.8,45z M231,55.2l-1.5-1.1c0.6-0.7,1.3-1.9,2.1-3.4
						c0.8-1.5,1.5-2.9,1.9-4.1l1.6,0.6c-0.3,1-0.9,2.3-1.7,3.9S231.8,54.1,231,55.2z M234.6,39.6c-1.3-1.1-2.6-2.2-3.9-3.2l1.2-1.2
						c1.8,1.3,3.1,2.3,3.9,3L234.6,39.6z M237.2,42.5l-2.1,0.5l-0.3-1.5l2.4-0.6v-5.3h1.8v4.9l3.6-0.9v-5.2h1.8v4.8l5.4-1.3l0.5,0.4
						v8.9c0,0.6-0.2,1.2-0.6,1.6s-1,0.6-1.7,0.6h-2l-0.3-1.5h1.7c0.7,0,1.1-0.3,1.1-1v-7.2l-4.2,1v10.5h-1.8V41.2l-3.6,0.9v10.5
						c0,0.6,0.3,1,0.8,1.2s1.9,0.3,4.2,0.3c1.1,0,2.2,0,3.2-0.1c1.1-0.1,1.7-0.1,2-0.2c0.2-0.1,0.4-0.2,0.5-0.4
						c0.1-0.2,0.2-0.5,0.3-1.1c0.1-0.6,0.1-1.2,0.1-2l1.6,0.2v2.9c0,0.3-0.1,0.5-0.2,0.8c-0.1,0.2-0.3,0.5-0.6,0.7s-0.6,0.4-1,0.5
						c-0.4,0.1-1.1,0.2-2.3,0.2c-1.2,0.1-2.3,0.1-3.4,0.1c-0.6,0-1.5,0-2.6-0.1s-2-0.1-2.5-0.2c-0.5-0.1-1-0.3-1.3-0.7
						s-0.5-0.9-0.5-1.5V42.5z"/>
				</g>
				<g>
					<path d="M275,54.5l-0.9,1.4c-2.3-0.7-4.3-1.8-6.2-3.4c-1.8-1.6-3.1-3.2-3.9-4.9c-1,0.9-2.4,1.7-4.1,2.5v4
						c3.5-0.3,5.8-0.6,6.9-0.8v1.4c-1,0.2-4.7,0.6-11.1,1.2l-0.3-1.5c0.8-0.1,1.7-0.1,2.9-0.2v-3.4c-1.6,0.6-3.2,1.1-4.7,1.5
						l-0.6-1.2c1.4-0.3,3-0.8,4.7-1.6c1.8-0.7,3.2-1.5,4.3-2.2h-8.4v-1.4h9.7v-1.9h1.8v1.9H275v1.4h-9.4c0.9,1.4,1.8,2.6,2.9,3.5
						c1.5-0.8,2.9-1.6,4-2.4l1.3,1.1c-1,0.7-2.3,1.5-4.1,2.3C271.4,52.9,273.2,53.8,275,54.5z M260.8,35.1c-0.6,1.1-1.3,2.1-2.2,3
						v6.6h-1.7v-4.9c-1.2,1.2-2.1,2-2.7,2.4l-1-1.1c1.2-1,2.4-2.1,3.4-3.3c1.1-1.2,1.8-2.3,2.3-3.2L260.8,35.1z M275.3,40.6
						c-0.1,1.4-0.2,2.3-0.3,2.8c-0.1,0.5-0.3,0.8-0.7,1.1c-0.3,0.3-0.9,0.4-1.6,0.4c-1.4,0-2.8-0.6-4.3-1.7s-2.5-2.4-3.2-3.7
						l-5.1,0.3l-0.2-1.4l4.7-0.3c-0.4-1-0.6-2.1-0.8-3.4l1.7-0.2c0.3,1.4,0.6,2.5,1,3.5l8.1-0.4l0.1,1.4l-7.5,0.4
						c0.7,1.2,1.6,2.1,2.6,2.8s1.9,1.1,2.6,1.1c0.3,0,0.6-0.1,0.9-0.4c0.2-0.2,0.4-1.1,0.5-2.6L275.3,40.6z M272.1,36.6l-1.1,1
						l-2.9-1.9l1.1-0.9L272.1,36.6z"/>
				</g>
				<g>
					<path d="M284.7,56h-7.1v-1.4h5.4V36.2h1.7V56z"/>
				</g>
			</g>
		</g>
		<g>
			<g>
				<g>
					<path class="st0" d="M400.3,18.7h-10c0.3-5.8,2.1-10.4,5.5-13.7c3.4-3.3,7.7-5,13-5c3.3,0,6.2,0.7,8.7,2.1c2.5,1.4,4.5,3.4,6,6
						s2.3,5.2,2.3,7.9c0,3.2-0.9,6.6-2.7,10.3c-1.8,3.7-5.1,8-10,13.1l-6,6.4h19.2v9.5h-37.3v-4.9l16.7-17c4-4.1,6.7-7.4,8-9.8
						c1.3-2.5,2-4.7,2-6.7c0-2.1-0.7-3.8-2.1-5.1s-3.2-2-5.3-2c-2.2,0-4,0.8-5.5,2.5C401.1,13.7,400.4,15.9,400.3,18.7z"/>
				</g>
				<g>
					<path class="st0" d="M437.2,1.4h25.2v9.5h-17.6l-2.2,9.8c0.6-0.2,1.2-0.3,1.8-0.4c0.6-0.1,1.1-0.1,1.7-0.1
						c4.9,0,8.9,1.7,12.2,5c3.2,3.3,4.9,7.6,4.9,12.8c0,5.2-1.8,9.7-5.4,13.3c-3.6,3.6-7.9,5.4-13.1,5.4c-4.6,0-8.5-1.3-11.8-3.9
						c-3.3-2.6-5.5-6.2-6.5-10.7h10.8c0.8,1.7,1.9,3,3.3,3.8c1.4,0.9,2.9,1.3,4.5,1.3c2.3,0,4.2-0.8,5.8-2.5
						c1.6-1.6,2.4-3.7,2.4-6.3c0-2.5-0.7-4.5-2.2-6.1c-1.5-1.6-3.3-2.4-5.4-2.4c-1.1,0-2.2,0.3-3.3,0.8c-1.1,0.6-2.2,1.4-3.2,2.5
						l-8.3-1.9L437.2,1.4z"/>
				</g>
			</g>
		</g>
		<g>
			<g>
				<g>
					<path d="M293.8,55.2l-0.8-0.3c0.4-1.1,0.6-2.3,0.6-3.6l0.8,0.1c0,0.5-0.1,1.1-0.2,2C294.1,54.2,294,54.8,293.8,55.2z
						 M297.9,49.3h2.2c0,1.7-0.1,3-0.2,3.9c-0.1,0.9-0.2,1.5-0.4,1.7c-0.2,0.3-0.4,0.5-0.7,0.6c-0.3,0.2-0.7,0.2-1.2,0.2h-1.3
						l-0.1-1c0.8,0,1.4,0,1.6-0.1c0.2,0,0.4-0.1,0.5-0.3c0.2-0.2,0.3-0.4,0.4-0.7s0.1-0.7,0.2-1.2c0-0.5,0-1.4,0-2.4H295v0.3h-1
						v-8.2h6.2v0.9h-2.3v1.5h1.8v0.8h-1.8v1.5h1.9v0.8h-1.9V49.3z M295.2,54.1l-0.2-2.9l0.7-0.1l0.2,2.9L295.2,54.1z M295.1,43.1
						v1.5h1.8v-1.5H295.1z M295.1,45.5v1.5h1.8v-1.5H295.1z M295.1,47.8v1.5h1.8v-1.5H295.1z M296.7,53.5l-0.4-2.4l0.6-0.1l0.4,2.5
						L296.7,53.5z M297.9,52.8l-0.4-1.9l0.5-0.1l0.4,1.9L297.9,52.8z M307.9,55.8c-1-0.9-1.8-2-2.4-3.3c-0.6-1.3-1-2.7-1.2-4.2h-1.6
						c0,1.5-0.2,2.9-0.5,4.3c-0.3,1.4-0.8,2.4-1.3,3.2l-0.9-0.6c0.5-0.7,0.8-1.7,1.1-3c0.3-1.3,0.4-2.8,0.4-4.4v-5.6h6.2v6.1h-2.2
						c0.2,1.2,0.5,2.4,1.1,3.6c0.6,1.2,1.3,2.2,2.2,3L307.9,55.8z M306.4,43.1h-3.8v4.3h3.8V43.1z"/>
				</g>
				<g>
					<path d="M324.1,53.7l-0.7,1c-1.2-0.9-2.8-1.7-4.7-2.4v1.2c0,1.3-1.2,2-3.7,2c-1,0-1.8-0.2-2.5-0.6c-0.7-0.4-1.1-1-1.1-1.7
						c0-0.8,0.3-1.4,1-1.8c0.7-0.5,1.5-0.7,2.4-0.7c1,0,1.9,0.1,2.6,0.3v-2.3h-5.9v-1h5.9v-2.4h-6.3v-1h6.3v-1.7h1.2v1.7h5.8v1h-5.8
						v2.4h5.1v1h-5.1v2.6C321.1,52.1,322.9,52.9,324.1,53.7z M317.5,53.1V52c-0.7-0.2-1.5-0.4-2.6-0.4c-0.6,0-1.1,0.1-1.6,0.4
						c-0.5,0.3-0.7,0.6-0.7,1c0,0.5,0.2,0.8,0.7,1c0.5,0.2,1.1,0.4,1.8,0.4c0.7,0,1.2-0.1,1.5-0.2c0.3-0.1,0.5-0.2,0.7-0.4
						C317.5,53.7,317.5,53.4,317.5,53.1z"/>
				</g>
				<g>
					<path d="M340.9,44.7H337c-1,0.4-1.9,1.1-2.8,2.2c-0.9,1.1-1.4,2.2-1.4,3.4c0,0.9,0.2,1.7,0.7,2.3s1.1,1,1.9,1.3
						c0.8,0.3,1.9,0.4,3.2,0.4c0.3,0,0.6,0,0.9,0l-0.1,1.2h0c-1,0-1.8,0-2.4-0.1c-0.6,0-1.3-0.2-2-0.4s-1.3-0.6-1.9-1
						s-0.9-1-1.2-1.6s-0.4-1.3-0.4-2c0-1,0.3-2.1,1-3.1c0.6-1,1.5-1.9,2.5-2.6h-7.8v-1h13.6V44.7z M339,48.1l-0.9,0.4
						c-0.4-0.8-0.8-1.6-1.1-2.2l0.8-0.4C338.2,46.6,338.6,47.3,339,48.1z M341.2,47.6l-0.9,0.4c-0.3-0.8-0.7-1.5-1.1-2.2l0.8-0.4
						C340.4,46,340.8,46.7,341.2,47.6z"/>
				</g>
				<g>
					<path d="M348.3,53.3v-8h2.7v-1.4h-6.8V43h6.8v-1.2h1.3V43h6.2v0.9h-6.2v1.4h4.6v8H348.3z M344.9,55.8V45.7h1.2v8.7h12.4v0.9
						h-12.4v0.5H344.9z M355.6,47.6v-1.4h-6.2v1.4H355.6z M349.5,49.9h6.2v-1.5h-6.2V49.9z M349.5,52.4h6.2v-1.6h-6.2V52.4z"/>
				</g>
				<g>
					<path d="M375.5,55.6c-1.2,0-3.3,0-6.3,0c-1.8,0-3.2-0.1-4-0.4c-0.9-0.3-1.5-0.8-1.9-1.4c-0.9,0.9-1.7,1.5-2.6,1.9l-0.4-1
						c0.3-0.1,0.7-0.4,1.2-0.7c0.5-0.3,0.9-0.6,1.1-0.8v-4.8h-2.1v-1h3.3v5c0,0.5,0.2,0.9,0.5,1.2c0.3,0.3,0.7,0.5,1.2,0.6
						c0.5,0.1,0.9,0.2,1.3,0.2c0.4,0.1,1.6,0.1,3.5,0.1c2.5,0,4.3,0,5.4-0.1L375.5,55.6z M362.9,45.2c-0.5-0.8-1.1-1.7-1.9-2.7
						l1-0.6c0.8,1,1.5,1.9,2,2.6L362.9,45.2z M373.3,50.8h-2.7v2.8h-1.2v-2.8h-2.5v2.9h-1.2v-8.3h3.7c-0.5-0.4-1.3-0.8-2.4-1.4
						l0.8-0.6c0.5,0.3,1.2,0.7,2.1,1.2c1.2-0.6,2.2-1.1,2.9-1.6h-7.2V42h8.4l0.8,0.7c-0.7,0.7-2,1.4-3.9,2.3
						c0.1,0.1,0.3,0.2,0.5,0.3h3.3v7.1c0,0.4-0.1,0.6-0.4,0.9c-0.3,0.2-0.6,0.3-1,0.3h-1.5l-0.1-1h1.2c0.4,0,0.6-0.2,0.6-0.5V50.8z
						 M369.4,47.6v-1.4h-2.5v1.4H369.4z M366.9,50h2.5v-1.5h-2.5V50z M370.6,46.2v1.4h2.7v-1.4H370.6z M370.6,50h2.7v-1.5h-2.7V50z"
						/>
				</g>
			</g>
		</g>
		<g>
			<g>
				<g>
					<path d="M477.2,48.5l-0.7-0.8c1-0.7,2-1.6,3-2.7s1.7-2.2,2.1-3.1l1.2,0.3C481.5,44.7,479.6,46.8,477.2,48.5z M477.7,55.9
						l-0.5-0.8c1.7-0.5,2.9-1.4,3.7-2.5c0.8-1.1,1.3-2.6,1.3-4.5h-3.1v-0.9h9.9c-1.7-1.5-2.9-3.2-3.7-5l1.2-0.3
						c1.1,2.3,2.8,4.3,5.1,5.9l-0.9,0.9c-0.6-0.5-1.1-0.9-1.6-1.4v3.6c0,1-0.1,1.8-0.2,2.5c-0.1,0.7-0.3,1.1-0.5,1.4
						s-0.5,0.5-0.8,0.7s-0.6,0.3-1,0.3c-0.3,0-1,0.1-2,0.1h-0.6l-0.2-1.1h2.1c0.6,0,1.1-0.2,1.4-0.7c0.4-0.5,0.5-1.5,0.5-3.1v-2.7
						h-4.4c-0.1,2.3-0.7,4-1.7,5.3S479.4,55.4,477.7,55.9z"/>
				</g>
			</g>
		</g>
	</g>
	<g>
		<g>
			<g>
				<g>
					<path d="M2.4,27.9v-6.8c-0.6,0.6-1.2,1.2-1.9,1.6L0,21.9c1-0.7,1.8-1.6,2.6-2.6c0.8-1,1.3-1.9,1.6-2.8H0.5v-0.9h1.9v-2.1h1.1
						v2.1h1.7L5.6,16c-0.4,1.3-1.1,2.5-2,3.8v0.7C3.8,20.8,4,21,4.3,21.2l1.1-1.8l0.7,0.4l-1.3,1.8c0.3,0.2,0.5,0.4,0.7,0.5L5.1,23
						c-0.4-0.3-0.9-0.7-1.6-1.4v6.3H2.4z M7,24c-0.8,0.6-1.5,1-1.9,1.2l-0.5-0.7c0.6-0.3,1.2-0.7,2-1.3c0.8-0.6,1.4-1.1,1.9-1.6H7
						v-4.3c-0.3,0.3-0.5,0.6-0.8,0.8l-0.7-0.6c0.5-0.5,1-1.2,1.4-1.9c0.5-0.7,0.8-1.4,1-2l1.2,0.2c-0.1,0.2-0.2,0.6-0.5,1.1h6.4v0.9
						h-7c-0.3,0.4-0.5,0.8-0.8,1.1h6.8v4.8H9.8c-0.3,0.3-0.6,0.7-1,1h5.4l0.5,0.4c-0.7,1.2-1.8,2.1-3.1,2.9c1.3,0.5,2.6,0.8,4,0.9
						L15,27.8c-1.7-0.2-3.2-0.7-4.5-1.3c-1.5,0.7-3.4,1.2-5.7,1.4l-0.3-0.9c2.3-0.3,3.9-0.7,4.9-1.1C8.4,25.4,7.6,24.7,7,24z
						 M7.8,23.4L7.8,23.4c0.6,0.9,1.5,1.6,2.6,2.1c0.9-0.5,1.8-1.2,2.6-2.1H7.8z M8.1,18.7H13v-1.1H8.1V18.7z M13,19.5H8.1v1.3H13
						V19.5z"/>
				</g>
				<g>
					<path d="M33.1,20c-1.1-0.5-2.4-1.2-3.8-2.3c-1.4-1-2.6-2.1-3.5-3.3c-0.7,1-1.8,2-3.1,3.1c-1.4,1.1-2.8,1.9-4.2,2.5L18,19.3
						c1.4-0.7,2.7-1.5,4-2.5c1.3-1,2.3-2,2.9-3h1.7c0.8,1.1,1.9,2.1,3.3,3.1c1.4,1,2.6,1.7,3.8,2.2L33.1,20z M30.2,27h-8.8v0.8h-1.2
						v-6.1h11.3v6h-1.2V27z M21.4,26h8.8v-3.4h-8.8V26z M29.9,19.5h-8.1v-0.9h8.1V19.5z"/>
				</g>
				<g>
					<path d="M48.8,27.8H47l-0.2-1h1.6c0.4,0,0.7-0.2,0.7-0.6l0-4.8h-3c-0.9,0-1.3-0.4-1.3-1.2v-1.3h-1.8c-0.2,1-0.6,1.7-1.2,2.2
						s-1.4,0.9-2.3,1.1l-0.4-0.8c0.9-0.3,1.6-0.6,2-1c0.4-0.4,0.7-0.9,0.8-1.5h-3.3v9h-1.2V18h3l-0.9-2.2h-3v-0.9h6.6v-1.3h1.3v1.3
						H51v0.9h-3L47,18h3.3v8.5c0,0.4-0.1,0.7-0.4,0.9C49.6,27.7,49.3,27.8,48.8,27.8z M41.8,26.1v0.4h-1.1v-4.1h6.2v3.7H41.8z
						 M41.7,18h4.1l1-2.2h-6L41.7,18z M45.7,23.3h-3.9v2h3.9V23.3z M49.1,20.5l0-1.6h-3.2v1c0,0.4,0.3,0.6,0.8,0.6H49.1z"/>
				</g>
				<g>
					<path d="M54.5,27.6l-0.3-0.9c2.5-0.6,4.6-1.4,6-2.5h-5.7v-0.9h6.7v-1.3h-5.5v-0.9h5.5v-1.3h-5.9v-0.9h3.3l-0.8-1.7h-3.1v-0.9
						H57l-0.9-2l1.1-0.3l1,2.3h1.4v-2.5h1.1v2.5h2v-2.5h1.2v2.5h1.5l1-2.3l1.1,0.3l-1.1,2H69v0.9h-3.2l-0.9,1.7h3.6v0.9h-6.1v1.3H68
						v0.9h-5.7v1.3h6.8v0.9h-5.8c0.7,0.5,1.7,0.9,2.9,1.4c1.2,0.4,2.3,0.8,3.3,0.9l-0.5,1c-2.6-0.6-4.8-1.5-6.6-2.9V28h-1.1v-3.1
						c-0.7,0.6-1.7,1.1-3,1.6C56.9,27,55.7,27.4,54.5,27.6z M59,17.2l0.8,1.7h3.9l0.8-1.7H59z"/>
				</g>
				<g>
					<path d="M75.1,20.2c-0.3,3.4-1.1,6-2.4,7.7L72,27.3c0.6-0.9,1.1-2.1,1.5-3.7c0.4-1.6,0.6-3.8,0.6-6.5h-1.7v-0.9h2.4v-2.5h1.2
						v2.5h2.2v0.9h-2.9c0,0.8,0,1.6-0.1,2.2H78c0,1.8,0,3.1,0,3.7c0,0.7-0.1,1.4-0.2,2.2c-0.1,0.8-0.2,1.3-0.3,1.6
						c-0.1,0.3-0.3,0.5-0.6,0.6c-0.3,0.2-0.6,0.2-0.9,0.2h-1.3l-0.1-1h0.9c0.4,0,0.7-0.1,0.9-0.3c0.2-0.2,0.3-0.7,0.4-1.5
						c0.1-0.8,0.1-2.2,0.1-4.4v-0.3H75.1z M80.3,16.3c-0.5,0.8-1,1.6-1.6,2.4l-0.9-0.6c0.4-0.5,0.8-1.2,1.3-2.2c0.5-1,0.8-1.8,1-2.5
						l1.2,0.2c-0.1,0.3-0.3,0.9-0.6,1.6h6.4v0.9H80.3z M79.6,20.9l-0.9,0.2l-0.1-0.9l1-0.2v-2.1h1.2v1.9l1.7-0.4v-2.2h1.1v2l2.8-0.6
						l0.3,0.2v4.8c0,0.3-0.1,0.6-0.3,0.8c-0.2,0.2-0.5,0.3-0.9,0.3h-1.2l-0.1-1h0.8c0.4,0,0.6-0.2,0.6-0.6v-3.4L83.6,20v5.3h-1.1
						v-5.1l-1.7,0.4v5.3c0,0.2,0.1,0.4,0.2,0.6c0.2,0.1,0.6,0.2,1.2,0.2c0.7,0,1,0,1.2,0c0.8,0,1.4,0,1.9-0.1c0.5,0,0.8-0.2,0.9-0.5
						s0.1-0.7,0.1-1.3l1,0.1v1.4c0,0.4-0.2,0.8-0.6,1c-0.4,0.2-1.5,0.3-3.4,0.3c-1.8,0-2.8-0.1-3.2-0.3c-0.4-0.2-0.5-0.5-0.5-1.1
						V20.9z"/>
				</g>
				<g>
					<path d="M90.5,17.2v-0.9h5.4v0.9H90.5z M92,27.2v0.6h-1.1v-5h4.4v4.4H92z M91.1,15v-0.9h4.3V15H91.1z M91.1,19.3v-0.9h4.2v0.9
						H91.1z M91.1,21.4v-0.9h4.2v0.9H91.1z M94.2,23.7H92v2.6h2.2V23.7z M101.7,25.4c0.9,0.5,2.1,1,3.5,1.4l-0.6,1
						c-1.4-0.4-2.7-1-3.8-1.7c-1.4,0.9-2.9,1.5-4.5,1.8L95.9,27c1.6-0.3,2.9-0.8,4-1.6c-1.3-1.1-2.2-2.5-2.6-4h-0.8v-0.9h7.8
						C104.2,22.5,103.3,24.1,101.7,25.4z M101.4,15.1h-2.7v0.4c0,1.8-0.6,3.2-1.8,4.2L96.2,19c0.9-0.8,1.4-2,1.4-3.5v-1.3h5v3.7
						c0,0.3,0.2,0.5,0.5,0.6h0.7c0.2,0,0.3,0,0.4-0.1c0.1-0.1,0.2-0.2,0.2-0.4c0-0.2,0.1-0.7,0.1-1.4l1,0.1l0,1.2
						c0,0.4,0,0.6-0.1,0.8c0,0.1-0.1,0.2-0.2,0.4c-0.1,0.1-0.2,0.2-0.4,0.3c-0.1,0.1-0.4,0.1-0.7,0.1c-0.3,0-0.6,0-0.8,0
						c-0.3,0-0.6,0-0.9-0.1c-0.3,0-0.5-0.2-0.7-0.4c-0.2-0.2-0.3-0.4-0.3-0.7V15.1z M100.8,24.8c1.2-1,1.9-2.1,2.1-3.3h-4.5
						C98.8,22.7,99.6,23.8,100.8,24.8z"/>
				</g>
				<g>
					<path d="M15.5,43.4c-0.1,0.3-0.4,0.9-0.8,1.8c-0.5,0.9-1.2,1.8-2.1,2.7c-1,0.9-1.8,1.6-2.5,1.9l-0.7-0.8c1.1-0.7,2-1.5,2.8-2.5
						c0.8-1,1.3-1.8,1.6-2.4H1.1V43h14L15.5,43.4z M8.1,45.6c0,1.9-0.1,3.3-0.3,4.4c-0.2,1-0.6,2-1.2,2.8c-0.6,0.8-1.4,1.5-2.3,2
						c-0.9,0.5-1.7,0.8-2.3,0.9l-0.5-1c1.9-0.5,3.3-1.4,4.1-2.5c0.8-1.1,1.2-2.6,1.2-4.4l0-2.2H8.1z"/>
				</g>
				<g>
					<path d="M25.8,42.3c-0.2,0.5-0.4,1-0.6,1.6h7.6L32.7,45c0,0.3-0.1,0.9-0.4,1.8c-0.2,0.6-0.4,1.2-0.6,1.7
						c-0.2,0.6-0.5,1.2-0.9,1.8c-0.4,0.6-0.8,1.2-1.4,1.8c-0.5,0.6-1.2,1.1-1.9,1.5c-0.7,0.5-1.6,0.9-2.5,1.2c-1,0.4-2,0.6-3.1,0.9
						l-0.5-1.1c3-0.6,5.3-1.7,6.9-3.2c1.6-1.6,2.6-3.7,3-6.3h-6.7c-0.6,1-1.4,2-2.3,2.9c-0.9,0.9-1.9,1.6-2.8,2.2l-0.7-0.9
						c1.4-0.9,2.6-2,3.6-3.3c1-1.4,1.7-2.6,2.1-3.8L25.8,42.3z"/>
				</g>
				<g>
					<path d="M50,55.1H37.5V43.7H50V55.1z M48.7,54v-9.2h-9.8V54H48.7z"/>
				</g>
				<g>
					<path d="M69.4,54.8l-1.1,0.9c-1.4-1.5-3.4-3.2-5.9-5.3c-2.6,2.5-5.2,4.2-7.7,5.3l-0.6-1c2.1-0.9,4.3-2.3,6.4-4.2
						c2.1-1.9,3.6-4,4.5-6.2h-8.9v-1.1h10.3l0.3,0.3c-0.7,2.2-1.9,4.2-3.5,6C64.8,50.7,66.9,52.5,69.4,54.8z"/>
				</g>
				<g>
					<path d="M84.9,44.1c-0.2,2.4-0.7,4.3-1.4,5.8c-0.8,1.5-2,2.8-3.7,3.8c-1.7,1-3.9,1.7-6.4,1.9L73,54.4c2.7-0.3,5.1-1.1,7.1-2.5
						c2-1.4,3.2-3.9,3.4-7.4H72.8v-1.2h11.4c-0.1-0.2-0.2-0.5-0.2-0.7c0-0.5,0.2-0.8,0.5-1.2c0.3-0.3,0.8-0.5,1.3-0.5
						c0.5,0,0.9,0.2,1.2,0.5c0.3,0.3,0.5,0.7,0.5,1.2c0,0.5-0.2,0.9-0.5,1.2c-0.3,0.3-0.7,0.5-1.2,0.5
						C85.5,44.2,85.2,44.2,84.9,44.1z M85.8,43.7c0.3,0,0.6-0.1,0.8-0.3c0.2-0.2,0.3-0.5,0.3-0.8c0-0.3-0.1-0.6-0.3-0.8
						c-0.2-0.2-0.5-0.3-0.8-0.3c-0.3,0-0.6,0.1-0.8,0.3c-0.2,0.2-0.3,0.5-0.3,0.8c0,0.3,0.1,0.6,0.3,0.8
						C85.2,43.6,85.5,43.7,85.8,43.7z"/>
				</g>
				<g>
					<path d="M104.2,46.9c-0.1,0.9-0.1,1.7-0.2,2.2s-0.4,1.2-0.8,2.2c-0.5,0.9-1.1,1.7-1.9,2.3c-0.8,0.6-1.9,1.1-3.2,1.5
						s-2.8,0.6-4.5,0.6l-0.2-1.1c3-0.1,5.2-0.6,6.8-1.7c1.5-1.1,2.5-2.7,2.7-4.8H91.5v-1.1H104.2z M103.7,44.1H92.1V43h11.6V44.1z"
						/>
				</g>
				<g>
					<path d="M112.6,50.8h-1.4v-4h-3.1v-1.1h3.1v-3.2h1.4v3.2h6v-3.2h1.4v3.2h3.1v1.1H120v1.9c0,4.4-3,6.6-9,6.8l-0.3-1.2
						c2.9-0.1,5-0.7,6.2-1.7c1.2-1,1.8-2.3,1.8-4v-1.9h-6V50.8z M121.9,43.8l-0.9,0.4c-0.2-0.5-0.6-1.3-1-2.2l0.8-0.4
						C121.2,42.3,121.5,43,121.9,43.8z M123.7,43.3l-0.9,0.3c-0.4-0.9-0.7-1.6-1-2.2l0.8-0.4C123,41.7,123.4,42.5,123.7,43.3z"/>
				</g>
			</g>
		</g>
		<g>
			<g>
				<g>
					<path class="st0" d="M136.2,1.4h35.3v5.4l-24.3,49.8l-8.7-4.2L158.8,11h-22.6V1.4z"/>
				</g>
			</g>
		</g>
		<g>
			<g>
				<g>
					<path d="M170,48.5l-0.7-0.8c1-0.7,2-1.6,3-2.7s1.7-2.2,2.1-3.1l1.2,0.3C174.3,44.7,172.5,46.8,170,48.5z M170.5,55.9l-0.5-0.8
						c1.7-0.5,2.9-1.4,3.7-2.5c0.8-1.1,1.3-2.6,1.3-4.5H172v-0.9h9.9c-1.7-1.5-2.9-3.2-3.7-5l1.2-0.3c1.1,2.3,2.8,4.3,5.1,5.9
						l-0.9,0.9c-0.6-0.5-1.1-0.9-1.6-1.4v3.6c0,1-0.1,1.8-0.2,2.5c-0.1,0.7-0.3,1.1-0.5,1.4s-0.5,0.5-0.8,0.7s-0.6,0.3-1,0.3
						c-0.3,0-1,0.1-2,0.1h-0.6l-0.2-1.1h2.1c0.6,0,1.1-0.2,1.4-0.7c0.4-0.5,0.5-1.5,0.5-3.1v-2.7h-4.4c-0.1,2.3-0.7,4-1.7,5.3
						S172.2,55.4,170.5,55.9z"/>
				</g>
			</g>
		</g>
	</g>
</g>
</svg>
