<?xml version="1.0" encoding="UTF-8"?>
<svg id="_レイヤー_2" data-name="レイヤー 2" xmlns="http://www.w3.org/2000/svg" xmlns:xlink="http://www.w3.org/1999/xlink" viewBox="0 0 362.36 188.88">
  <defs>
    <style>
      .cls-1 {
        clip-path: url(#clippath);
      }

      .cls-2 {
        fill: none;
      }

      .cls-3 {
        font-family: RyuminPr6N-Light-90ms-RKSJ-H, 'A-OTF Ryumin Pr6N';
        font-size: 14px;
        font-weight: 300;
      }

      .cls-4 {
        letter-spacing: -.5em;
      }

      .cls-5 {
        fill: #0a6287;
      }
    </style>
    <clipPath id="clippath">
      <rect class="cls-2" width="362.36" height="188.88"/>
    </clipPath>
  </defs>
  <g id="_レイヤー_2-2" data-name="レイヤー 2">
    <g class="cls-1">
      <g>
        <text class="cls-3" transform="translate(46.37 93.15)"><tspan x="0" y="0">どんな住まいにもマッチする、檜皮葺き調</tspan><tspan x="0" y="20">テクスチャーを採用。日本の住まいに適し</tspan><tspan x="0" y="40">た「軽さ」と「強さ」をもった屋根材</tspan><tspan class="cls-4" x="238" y="40">。</tspan></text>
        <g>
          <path class="cls-5" d="m117.59,33.84l-.8,2.57c-.82,2.62-2.17,4.84-4.06,6.67-1.58,1.53-3.75,2.98-6.52,4.33,3.97,2.03,6.03,4.56,6.17,7.59.06,1.24-.14,2.61-.6,4.11l-.88,2.86h-11.21l.74-2.29c.36-1.15.51-2.25.46-3.28-.09-1.83-.78-3.3-2.07-4.41-1.29-1.11-3.05-1.66-5.26-1.66h-11.45l-3.54,11.64h-11.09l8.58-28.13h11.12l-3.53,11.58h10.03c1.8,0,3.68-.5,5.64-1.51,3.14-1.6,5.23-4.1,6.28-7.52l.79-2.55h11.22Z"/>
          <path class="cls-5" d="m232.49,33.85l-1.49,4.92h-20.86c-2.42,0-4.77.48-6.82,1.73-2.05,1.25-3.66,2.99-4.49,5.04h30.11l-1.49,4.76h-30.03c.04,2.18.77,3.86,2.19,5.04,1.33,1.12,3.06,1.7,5.22,1.73h20.51l-1.49,4.92h-22.01c-4.16,0-7.71-.74-10.65-2.22-3.48-1.77-5.3-4.3-5.46-7.57-.06-1.21.13-2.51.56-3.9,1.81-5.94,6.23-10.29,13.61-12.71,3.8-1.27,7.53-1.74,10.84-1.74h21.74Z"/>
          <path class="cls-5" d="m165.33,40.14c-1.3-1.12-2.65-1.34-4.87-1.41l-7.2,23.24h-11.07l7.2-23.28h-8.82l-7.24,23.28h-11.08l8.69-28.13h31.15c4.16,0,7.52.5,10.46,2.03,3.46,1.8,5.46,4.62,5.62,7.92.06,1.24-.13,2.58-.55,4.03l-4.48,14.14h-10.93l4.36-13.97c1.2-3.79.69-6.23-1.21-7.86"/>
          <path class="cls-5" d="m251.81,55.69c1.3,1.12,2.65,1.34,4.87,1.4l7.2-23.24h11.08l-7.2,23.28h8.82l7.24-23.28h11.08l-8.7,28.13h-31.15c-4.16,0-7.52-.5-10.46-2.03-3.45-1.8-5.46-4.62-5.61-7.92-.06-1.24.12-2.58.55-4.02l4.49-14.15h10.93l-4.36,13.98c-1.2,3.78-.69,6.22,1.21,7.86"/>
        </g>
      </g>
    </g>
  </g>
</svg>