<?xml version="1.0" encoding="UTF-8"?>
<svg id="_レイヤー_2" data-name="レイヤー 2" xmlns="http://www.w3.org/2000/svg" xmlns:xlink="http://www.w3.org/1999/xlink" viewBox="0 0 669.71 133.83">
  <defs>
    <style>
      .cls-1 {
        clip-path: url(#clippath);
      }

      .cls-2 {
        fill: none;
      }

      .cls-3 {
        fill: #0a6287;
      }
    </style>
    <clipPath id="clippath">
      <rect class="cls-2" width="669.71" height="133.83"/>
    </clipPath>
  </defs>
  <g id="_レイヤー_2-2" data-name="レイヤー 2">
    <g class="cls-1">
      <path d="m277.38,37.86c.3-.11.43-.19.43-.51,0-.26-.06-.41-.13-.52.88-.15,1.61.82,1.61,1.59,0,.41-.26.49-.58.51-1.76.17-4.04,1.18-4.64,1.46-4.38,2-5.22,4.19-5.22,5.15,0,2.3,3.16,2.45,4.32,2.45.64,0,3.03-.11,4.77-.43.62-.11.75-.15.99-.15.56,0,1.27.21,1.27.67,0,.94-3.59.94-5.54.94-2.3,0-3.8,0-5.24-1.05-.62-.45-1.22-1.27-1.22-2.47,0-2.34,2.51-4.19,4.12-5.22-.94-1.27-.94-1.68-1.03-5.22-.04-2.06-.41-2.45-1.5-3.03.11-.11.28-.26.82-.26.71,0,2.08.88,2.08,1.33,0,.19-.09.58-.11.6-.26,1.03-.26,2-.26,2.53,0,2.15.47,3.09.71,3.61,1.85-1.07,2.45-1.29,4.36-2Zm3.31-2.25c1.78.52,2.19,1.14,2.19,2.02,0,.19-.06.28-.24.28-.19,0-.21-.02-.94-.67-1.16-1.05-1.83-1.4-2.71-1.85.39-.02.84-.04,1.7.21Zm.49-2.36c1.52,0,3.01.92,3.01,2.1,0,.11-.02.41-.21.41-.11,0-.37-.19-.71-.49-1.48-1.22-1.67-1.4-2.9-1.93.3-.06.52-.09.82-.09Z"/>
      <path d="m304.71,42.24c-.47,1.95-1.05,3.54-1.95,4.64-.6.71-1.83,1.85-3.61,1.85-2.3,0-2.51-1.78-2.77-3.89-.19-1.59-.34-2.71-1.61-2.71s-2.45.69-3.71,2.38c-.82,1.1-.99,1.42-2.04,3.95-.19.45-.34.84-.73.84-.54,0-.62-1.18-.62-1.31,0-.28.15-.62.6-1.22,1.01-1.35,4.32-7.54,5.48-9.88.3-.62,1.07-2.19,1.07-2.71,0-.26-.17-.69-.88-1.25.17-.04.28-.09.47-.09.9,0,2.04.92,2.04,1.78,0,.43-.17.62-.56,1.05-.24.26-.34.43-.58.79-2.98,4.75-3.26,5.17-3.97,6.74,1.5-1.27,2.6-1.78,3.67-1.78,1.93,0,2.15,1.48,2.47,3.26.3,1.68.52,2.75,1.91,2.75.92,0,1.76-.43,2.62-1.29,1.18-1.16,1.98-2.73,2.51-3.93h.19Z"/>
      <path d="m315.16,33.31c0-.26-.3-.73-1.29-.97.19-.19.34-.34.82-.34.82,0,1.46.52,1.89.9.19.19.26.3.26.52,0,.15-.06.21-.49.79-.28.36-.37.45-1.01,1.59.52-.17,1.14-.36,1.91-.73.67-.3.79-.36,1.05-.36.21,0,1.14.21,1.14.56,0,.26-.41.43-.45.45-.49.19-.86.3-4.23,1.12-.47.88-2.64,5.43-2.86,5.8-.28.47-1.5,2.64-1.63,2.75-.15.17-.32.17-.36.17-.13,0-.41-.09-.41-.67s.17-.82.62-1.37c.79-.99,1.76-2.83,2.53-4.34.36-.71.79-1.61,1.03-2.08-.86.21-1.46.34-2.19.34-1.91,0-2.1-1.35-2.15-1.7.64.62,1.18.79,1.89.79.84,0,2.04-.21,2.9-.41,0-.06,1.03-2.38,1.03-2.81Zm5.56,4.21c2.45,0,4.29,2.1,4.29,3.05,0,.3-.24.43-.43.43-.17,0-.45-.13-.54-.17-.6-.34-.84-.47-1.65-.47-.88,0-2.02.24-2.58.79-.26.28-.43.64-.43,1.4,0,.58.26,2.71.34,3.31,2.06.47,4.06,1.44,4.06,2.53,0,.41-.24.6-.47.6-.15,0-.34-.11-.47-.19-1.8-1.29-2.08-1.5-3.05-1.8-.06,2.81-2.9,2.96-3.41,2.96-1.61,0-3.07-.88-3.07-2.1,0-1.44,1.87-2.28,3.89-2.28.56,0,.94.04,1.33.09-.11-1.74-.11-1.93-.11-2.38,0-2.21,1.35-2.88,3.69-3.52.17-.04.43-.11.43-.41,0-.24-.52-.6-.82-.79-.47-.3-.97-.49-2.15-.88.32-.09.64-.15,1.14-.15Zm-3.63,8.93c-.82,0-2.96.26-2.96,1.42,0,.88,1.31,1.05,1.93,1.05.69,0,2.64-.26,2.55-2.25-.3-.09-.79-.21-1.52-.21Z"/>
      <path d="m334.71,32.99c-.28.6-.69,1.42-1.61,3.01l.32.24c.24.17.28.19.28.3,0,.32-.41.52-.58.6-.15,1.05-.15,2.47-.15,3.69,0,.45.04,5.26.04,5.35.02.51.09,2.79.09,3.26,0,.09-.02.82-.04.9-.15.47-.6.56-.86.56-.52,0-.6-.24-.6-.6,0-.34.09-1.82.11-2.13.15-3.63.21-7.17.26-10.37-.6.92-1.27,1.8-2,2.66-.71.84-1.14,1.14-1.48,1.37l-.13-.09c1.4-2.02,3.67-5.54,4.62-8.01.45-1.18.56-1.85.64-2.53l1.63.97c.24.13.32.19.32.34,0,.3-.32.36-.86.47Zm13.12,16.47h-10.74c-.67,0-1.89.06-2.77.24l-.52-.92c1.14.09,2.45.17,3.59.17h2.64v-6.68h-1.37c-.64,0-1.87.06-2.75.24l-.52-.92c1.14.09,2.45.17,3.56.17h1.07v-5.5h-2.23c-.67,0-1.87.06-2.77.26l-.52-.95c1.14.11,2.45.17,3.59.17h6.57l.84-.79c.17-.15.21-.26.32-.26s.26.08.41.21l1.05.79c.11.09.21.19.21.32,0,.24-.21.24-.32.24h-5.93v5.5h2.73l.75-.86c.13-.13.21-.28.34-.28s.26.13.41.24l1.22.86c.11.06.21.19.21.32,0,.21-.21.24-.32.24h-5.35v6.68h4.08l.88-.99c.13-.13.24-.26.34-.26.15,0,.26.13.39.24l1.01.97c.09.09.19.19.19.32,0,.21-.21.24-.32.24Zm-6.83-14.19c-.56,0-.6-.15-.99-1.31-.3-.94-.77-1.82-1.4-2.6l.09-.11c.43.19,3.03,1.42,3.03,3.18,0,.56-.28.84-.73.84Z"/>
      <path d="m360.2,33.61c0-.9-.17-.99-1.59-1.65.19-.13.43-.32,1.07-.32,1.12,0,2.02.77,2.02,1.29,0,.04-.11.49-.21.94-.11.45-.17.94-.26,1.59,1.48-.32,2.13-.56,3.35-.99.15-.04.37-.13.54-.13.39,0,1.16.39,1.16.69,0,.26-.28.39-.39.43-.67.28-2.53.77-4.77,1.07-.06.9-.09,2.23-.06,3.44,1.4-.34,1.89-.52,2.83-.88.11-.04.28-.11.39-.11.39,0,1.12.26,1.12.62,0,.3-.26.45-.47.54-.39.13-2.34.54-3.84.82.04.88.24,3.84.3,4.92,2.45.58,4.57,1.61,4.57,2.66,0,.39-.26.6-.47.6-.17,0-.26-.06-.99-.56-.21-.15-1.61-1.01-3.03-1.42-.02,1.25-.54,1.74-.84,1.98-.97.71-2.32.73-2.62.73-2.19,0-3.63-1.07-3.63-2.13,0-.67.45-1.12,1.07-1.48,1.2-.67,3.26-.67,3.67-.67.49,0,.82.02,1.14.04-.02-.71-.19-3.87-.21-4.51-1.1.15-2.17.26-3.24.26-1.29,0-2.08-.24-2.08-.99,0-.36.39-.9,1.05-1.05-.15.17-.34.41-.34.67,0,.41.45.47,1.55.47.84,0,1.85-.09,3.05-.3,0-1.18.02-1.8.09-3.52-.86.09-3.71.39-4.34.39-.56,0-2.25-.15-2.83-1.44.37.15,1.27.54,2.77.54.43,0,2.19-.11,4.42-.47,0-.32.06-1.76.06-2.06Zm-2.25,12.95c-1.42,0-2.83.37-2.83,1.22,0,.62.94,1.12,2.58,1.12.9,0,2.81-.26,2.58-2.13-.37-.09-.97-.21-2.32-.21Z"/>
      <path d="m381.19,39.86c-.3.6-2.58,5.28-2.66,5.5-.09.28-.15.52-.15.79,0,.15.15.84.15.99,0,.24-.15.47-.54.47s-2.68-.17-3.76-4.68c-.19-.77-.19-1.14-.43-4.47-.13-1.74-.19-2.28-1.03-3.59,1.14.04,2.38,1.27,2.38,2.21,0,.24,0,.3-.13.92-.13.73-.15,1.33-.15,1.82,0,1.2.28,4.23,1.61,5.28.06.04.28.24.47.24.24,0,.43-.17.52-.32,1.59-2.49,1.76-2.73,3.31-4.98.02-.04.13-.21.19-.3l.21.11Zm4.87,2.62c.3-.04,1.7-.26,1.98-.3.17-.02.56-.11.56-.54,0-.49-.94-3.95-3.97-5.09.11-.04.39-.13.67-.13.36,0,1.48.24,2.45,1.33,1.63,1.85,2.32,4.06,2.32,5.07,0,.64-.28,1.29-.6,1.29-.15,0-.21-.04-.75-.49-.73-.62-1.2-.71-2.64-.99v-.15Z"/>
      <path d="m399.35,41.06c-.15.64-.88,3.5-1.03,4.08-.32,1.29-.45,1.91-.45,2.47,0,.24.11,1.48.11,1.5,0,.26-.04.56-.41.56-.32,0-.71-.41-.9-.73-.97-1.65-1.18-3.29-1.18-5.5,0-.41.02-1.12.15-2.04l.69-4.7c.06-.41.13-.97.13-1.57,0-1.18-.43-1.68-.67-1.95.99-.15,2.15,1.16,2.15,1.95,0,.15-.26.94-.34,1.18-.47,1.48-1.22,4.6-1.22,7.11,0,1.78.37,3.11.62,3.11.13,0,.24-.32.24-.34.67-2.06,1.01-2.9,1.95-5.24l.17.11Zm4.12,4.9c1.22.56,3.09.6,3.56.6.77,0,1.14-.04,2.28-.19.17-.02.28-.02.37-.02.37,0,1.5.28,1.5.82s-.73.6-2.06.6c-.99,0-4.51-.15-5.84-.9-1.33-.73-1.5-2.04-1.5-2.51,0-.28.04-.45.11-.64.41,1.1.67,1.82,1.59,2.25Zm1.42-8.18c.45-.36,2.21-1.78,2.21-1.97,0-.17-.62-.17-.67-.17-.62,0-2.28.26-4.17.92,1.95-1.5,3.31-1.89,4.79-1.89,1.31,0,3.07.36,3.07,1.03,0,.37-.3.43-1.1.58-1.93.37-3.24,1.14-4.04,1.65l-.11-.15Z"/>
      <path d="m425.56,39.8c1.74,1.07,4.64,2.88,4.64,6.12s-3.16,4.12-4.68,4.12c-1.42,0-2.75-.58-3.54-1.5-.6-.73-.77-1.87-.77-2.79,0-.64.11-1.44.24-2.13-1.37-.6-2.77-1.48-2.77-2.73,0-.92.49-1.31,2.3-2.73.17-.13.21-.21.21-.34,0-.09-.02-.19-.21-.32-1.57-1.03-1.74-1.16-1.95-1.52-.19-.32-.24-.6-.24-.97,1.03,1.16,2.92,1.76,3.97,2,.58-2.53.67-3.71.67-3.86,0-.82-.71-1.37-1.16-1.72.17-.04.34-.11.62-.11,1.1,0,2.17,1.14,2.17,1.76,0,.19-.02.3-.37,1.07-.24.58-.58,1.37-1.03,3.09.58.3.58.75.58.84,0,.43-.28.41-.9.36-.11.47-.6,2.47-.94,4.38.56.11,1.09.17,1.65.17.79.02,1.42.54,1.42.97,0,.3-.24.39-.97.39-1.05,0-1.89-.3-2.3-.43-.04.32-.11.77-.11,1.46,0,.77.09,1.68.58,2.36.62.9,1.74,1.35,2.81,1.35,2.23,0,3.41-1.72,3.41-3.33s-1.29-4.21-3.44-5.84l.11-.13Zm-4.36-1.18c-.88.52-1.72,1.48-1.72,2.3,0,.99,1.14,1.46,2.1,1.74.37-2.34.67-3.59.84-4.25-.54-.02-.79-.04-1.22.21Z"/>
      <path d="m448.96,46.84s0,.79-.62.79c-.34,0-.37-.02-1.22-1.33-.99-1.46-2.43-2.81-3.46-3.65-.82-.64-1.44-1.03-1.95-1.33.84.11,2,.28,4.62,2.15,1.16-.92,3.89-3.99,5.54-6.55-1.03.02-3.16.06-4.06.17-5.95.75-7.49.94-8.33,1.55-.32.21-.37.24-.49.24-.47,0-1.87-.99-1.87-2.49,0-.21.04-.36.11-.58.54,1.07,1.16,1.31,2.02,1.31.56,0,11.4-.82,11.72-.86.77-.11.94-.24,1.37-.52.32-.21.41-.26.49-.26.26,0,.94.82,1.25,1.16.28.34.37.43.37.62,0,.24-.09.26-.79.43-.45.11-.54.19-1.42,1.05-3.05,3.01-4.12,4.06-5.56,4.98.86.67,2.3,1.83,2.3,3.11Z"/>
      <path d="m464.18,40.98c0,.43-.28.71-.62.71-.26,0-.3-.08-.75-.97,0,0-.77-1.46-1.61-2.28,1.57.15,2.98,1.87,2.98,2.53Zm-1.03,8.16c1.25-.54,3.67-1.61,6.51-6.08,1.55-2.47,1.72-3.76,1.72-4.14,0-.41-.28-.64-1.14-1.1.28-.09.6-.17.99-.17.75,0,1.76.99,1.76,1.33,0,.19-.04.26-.43.71-.13.17-.19.26-.39.67-.86,1.85-1.83,3.95-4.08,6.25-1.63,1.65-3.44,2.34-4.92,2.77l-.02-.24Zm4.77-9.04c0,.67-.41.77-.56.77-.37,0-.43-.19-.69-.99-.32-1.01-.97-1.85-1.37-2.34,1.25.45,2.62,1.37,2.62,2.56Z"/>
      <path d="m483.52,49.52c3.18-2.77,4.66-5.17,5.02-9.64-3.37.34-4.81.71-6.01,1.22-.13.04-.69.28-.77.28-.41,0-1.22-.86-1.5-1.22-.3-.41-.26-1.33-.26-1.61.86,1.16,1.42,1.33,1.98,1.33.34,0,.94-.04,1.63-.13,2.23-.28,2.49-.3,4.98-.58,0-.69-.02-2.06-.15-2.47-.13-.39-.34-.58-.9-1.03-.37.09-3.11.6-4.83.54v-.15c2.77-.3,7.86-2.3,8.14-2.73.04-.04.06-.09.06-.15,0-.13-.04-.24-.67-.54.26-.11.37-.11.47-.11.84,0,2.51,1.22,2.51,1.68,0,.19-.17.24-.3.24-.88,0-.94,0-2.43.47-1.03.32-1.7.47-2.08.56,1.12.37,1.57.67,1.67.75.09.09.13.21.13.34,0,.15-.02.24-.24.62-.13.24-.21,1.22-.26,1.85,1.18-.09,3.11-.19,4.32-.3.17-.02.97-.24,1.14-.24.56,0,2.17.47,2.17,1.16,0,.19-.13.43-.41.43-.06,0-.21-.02-.45-.06-.64-.15-1.74-.36-3.18-.36-1.2,0-2.47.04-3.65.11-.3,3.78-1.1,5.43-2.47,7.09-1.48,1.78-2.98,2.49-3.61,2.77l-.06-.11Z"/>
      <path d="m506.47,50.88c3.65-2.43,4.08-4.62,4.29-6.01-.41.24-.77.45-1.27.45-1.01,0-2.53-1.46-2.53-3.33,0-1.46,1.14-2.75,2.56-2.75.52,0,.9.17,1.29.34,0-.34-.02-.47-.02-.62v-1.95c-2.34.19-4.55.47-7.26,1.55-.13.04-.71.32-.84.32-.41,0-1.67-1.07-1.67-2.02,0-.11,0-.21.06-.47.62.82,1.05,1.03,1.59,1.03.32,0,1.07-.15,1.18-.17.99-.17,4.87-.77,6.94-.94-.02-.6-.06-2.9-.3-3.31-.28-.54-.79-.77-1.42-1.05.24-.13.58-.34,1.01-.34s1.14.34,1.59.64c.3.21.34.41.34.58,0,.09-.11.58-.13.64-.13.58-.19,2.13-.21,2.77.82-.06,4.44-.19,5.17-.26.15-.02.9-.09.97-.09.84,0,1.52.6,1.52.94,0,.26-.28.41-.52.41-.11,0-.28-.02-.37-.06-1.44-.32-3.16-.34-3.97-.34-.94,0-1.91.04-2.86.11-.04.95-.04,1.72-.04,2.08,0,.43,0,.75.02,1.31.24.43.69,1.29.69,2.88,0,.88-.13,3.99-2.98,6.27-1.16.9-2.15,1.29-2.77,1.53l-.06-.13Zm1.18-8.95c0,1.27,1.05,2.34,1.95,2.34,1.18,0,1.18-1.59,1.18-1.83,0-1.72-.6-2.36-1.65-2.36-.52,0-1.48.67-1.48,1.85Z"/>
      <path d="m528.26,34.06c.45,0,2.66-.49,3.93-.88.37-.11.94-.28,1.12-.28.6,0,1.42.84,1.42,1.37,0,.26-.04.28-.49.6-.45.34-.58.43-.94.88-.62.77-3.39,4.19-3.95,4.9-.28.36-.6.77-1.12,1.5,1.07-.67,2.98-1.76,5.48-1.76,3.11,0,4.68,1.83,4.68,4.08,0,2.86-2.6,4.87-5.95,4.87-1.85,0-4.12-.71-4.12-2.34,0-1.44,1.37-1.76,2.19-1.76,1.76,0,2.77,1.14,3.33,2.94,2.15-.32,3.26-2.25,3.26-3.86,0-2.19-1.59-3.35-3.67-3.35-4.06,0-7.17,3.89-7.39,4.25-.54.9-.79,1.33-1.27,1.33-.28,0-.47-.21-.47-.71,0-.71.19-.9.69-1.37,3.35-3.22,7.79-9.34,7.79-10.24,0-.28-.19-.3-.3-.3-.34,0-2.45.6-3.24,1.09-.24.15-.69.43-.84.43-.6,0-1.76-.92-1.76-1.91,0-.21.09-.32.21-.43.26.64.75.95,1.42.95Zm1.85,12c-.54,0-1.05.3-1.05.88,0,1.1,2.3,1.57,2.9,1.57.15,0,.39,0,.73-.13-.24-1.31-1.63-2.32-2.58-2.32Z"/>
      <path d="m544.19,44.99c1.01.19,2.73.54,4.04,1.65,1.25,1.1,1.25,2.23,1.25,2.43,0,.69-.54,1.12-.99,1.12-.34,0-.58-.28-1.01-1.14-1.05-2.15-1.52-3.07-3.33-3.84l.04-.21Z"/>
      <path d="m571.65,35.95h-2.47l-.02,2.64c1.14.24,2.58,1.48,2.58,2.36,0,.45-.37.69-.64.69-.41,0-.47-.13-.82-1.2-.13-.36-.49-1.03-1.12-1.55-.02,2.36-.04,3.78-.04,5.41,0,1.55.04,4.04.04,5.58,0,.21,0,1.12-.99,1.12-.17,0-.39-.04-.39-.52,0-.52.15-2.73.17-3.18.11-2.34.17-4.68.21-7.04-.54,1.48-2.1,4.72-3.59,6.21l-.17-.15c2.15-3.2,3.78-9.4,3.78-10.37-1.07,0-2.17.11-2.94.26l-.52-.92c1.01.06,2.43.15,3.44.15-.06-2.81-.19-3.29-.43-4.12l1.93.54c.13.04.34.11.34.3s-.43.47-.79.71c-.02.41-.02,2.21-.04,2.58h.97l.45-.56c.13-.17.21-.28.34-.28.15,0,.3.17.36.26l.47.54c.11.13.19.24.19.32,0,.19-.15.24-.32.24Zm11.44,1.87c-1.65-.71-4.04-2.79-5.58-5.15-.04,0-.09,0-.49.04-1.33,2.15-4.12,5.05-6.31,6.16l-.13-.13c1.74-1.46,3.46-3.54,4.36-4.87,1.18-1.74,1.2-2.34,1.16-2.77l1.7.75c.19.09.37.17.37.39,0,.15-.09.26-.24.34,3.13,3.39,5.86,3.84,6.91,4.02l.02.11c-.41.09-.94.19-1.76,1.12Zm-.79,1.82c-.04.45.11,2.49.11,2.9,0,.24,0,.92-.82.92-.37,0-.37-.21-.34-.58h-7.49c.06.99-.73.99-.82.99-.32,0-.32-.24-.32-.39,0-.51.11-2.83.11-3.33,0-1.18-.02-1.37-.11-2.25l1.5.82h6.79l.34-.39c.09-.11.19-.21.32-.21.11,0,.26.09.37.17l.71.47c.13.09.19.17.19.28,0,.17-.19.32-.54.6Zm-.62,5.82c0,1.27,0,1.8.02,2.21,0,.32.11,1.87.11,2.06,0,.82-.58.92-.77.92-.45,0-.43-.3-.41-.9h-5.93c.09.82-.41,1.09-.75,1.09-.45,0-.45-.34-.45-.56,0-.75.11-4.4.11-5.22,0-.58-.02-.79-.09-1.31l1.57.77h5.26l.3-.32c.09-.09.15-.19.28-.19.11,0,.19.06.32.15l.71.45c.19.13.21.19.21.3,0,.17-.04.21-.49.54Zm-4.77-6.23h-3.18v3.14h3.18v-3.14Zm-1.35,2.6c-.39,0-.47-.3-.64-.99-.11-.39-.3-.73-.58-.99l.13-.17c.45.15,1.63.71,1.63,1.61,0,.36-.34.54-.54.54Zm4.08-4.79h-3.76c-.34,0-.84.04-1.18.11l-.21-.69c.39.02,1.2.06,1.52.06h2.02l.45-.62c.13-.19.21-.26.37-.26.09,0,.17.04.39.26l.54.58c.19.19.19.24.19.32,0,.17-.13.24-.32.24Zm1.01,8.01h-5.97v1.85h5.97v-1.85Zm0,2.36h-5.97v1.82h5.97v-1.82Zm.62-8.18h-3.37v3.14h3.37v-3.14Zm-1.37,1.57c-.34.43-.86.88-1.31,1.29l-.13-.09c.47-.75.73-1.59.77-2.45l1.18.69c.09.04.19.11.19.26,0,.26-.26.28-.71.3Z"/>
      <path d="m604.24,50.62c-3.05-.75-5.43-1.7-7.3-3.09-.04-.02-.15-.11-.17-.13-3.59,3.03-7.15,3.46-8.33,3.61v-.11c2.79-.79,5.39-2.21,7.52-4.21-1.48-1.44-2.62-3.35-3.5-5.9-.94.09-1.12.13-1.44.19l-.52-.92c1.61.13,3.18.15,3.56.15h1.46c.04-.9.02-1.46-.06-4.7h-5.26v1.03c0,6.12-.04,7.97-1.27,10.59-.62,1.31-1.52,2.49-2.71,3.33l-.06-.06c2.79-3.52,2.79-8.25,2.79-10.63,0-1.53-.09-4.04-.15-4.6-.02-.11-.17-.77-.21-.99l1.82.82h5.02c0-.41-.04-2.23-.09-2.6-.09-.67-.17-.9-.28-1.25l2.06.64c.19.06.32.11.32.28,0,.19-.21.34-.34.41-.28.19-.32.21-.45.3-.02.13-.02,1.57-.02,2.21h4.94l.6-.47c.09-.06.24-.19.37-.19.11,0,.28.15.37.24l1.31,1.2c.06.06.15.15.15.34,0,.47-.32.47-1.01.47h-.49c-.47.24-.6.32-1.65,1.1-.58.41-.62.47-.84.64l-.13-.11c.17-.41,1.35-2.58,1.42-2.71h-5v4.7h3.33l.64-.54c.09-.06.3-.24.37-.24.11,0,.21.09.37.24l.94.9c.13.11.17.17.17.28,0,.06-.02.21-.19.28-.21.09-.94.28-1.07.32-.71,1.53-1.76,3.39-3.69,5.28,1.72,1.1,4.53,2.1,8.57,2.04v.13c-.54.19-1.46.71-1.85,1.72Zm-10.48-9.9c-.28,0-.39,0-.99.04,1.14,2.62,2.51,4.21,3.82,5.28,1.5-1.59,2.77-3.46,3.35-5.32h-6.18Z"/>
      <path d="m622.16,47.63c.06,2.36.06,2.64.06,2.66,0,.64-.64.84-.82.84-.47,0-.52-.49-.52-.69,0-.39.04-2.08.04-2.62-3.86.54-7.73.99-11.64,1.25q-.32.47-.47.47c-.24,0-.3-.21-.34-.34l-.52-1.61c.43.04.84.11,1.48.11.49,0,2.9-.13,3.46-.17v-7.32h-1.65c-.45,0-1.74.06-2.77.26l-.52-.92c1.12.09,2.47.15,3.59.15h12.84l.69-.71c.17-.19.24-.24.34-.24.06,0,.15.04.39.21l.86.69c.09.06.21.19.21.34,0,.21-.21.21-.32.21h-4.51c0,3.86,0,4.29.09,6.68.64-.06,3.82-.32,4.55-.39.34-.04.58-.06.88-.11v.17c-1.74.56-4.51.95-5.41,1.07Zm4.17-13.87h-6.05c0,.56,0,.79-.02.88-.09.21-.45.49-.84.49-.28,0-.3-.3-.3-.34-.02-.17.02-.88.02-1.03h-3.46c0,.67,0,.73-.04.88-.11.36-.64.47-.75.47-.26,0-.37-.15-.37-.45v-.9h-2.94c-.75,0-1.95.09-2.77.26l-.49-.92c1.61.13,3.16.15,3.56.15h2.64c0-1.16,0-1.29-.11-2l1.48.43c.17.04.37.09.37.3,0,.19-.17.26-.58.43v.84h3.46c-.02-1.2-.11-1.61-.17-2l1.44.41c.28.09.41.11.41.32,0,.11-.04.17-.11.21-.06.06-.41.24-.45.28v.77h3.99l.71-.64c.26-.24.28-.26.39-.26.13,0,.39.21.39.21l.71.62c.17.15.24.26.24.34,0,.24-.26.24-.34.24Zm-4.06,2.79v1.72c0,.58-.75.69-.82.69-.3,0-.28-.06-.26-.58h-7.75c-.02.49-.71.67-.88.67-.24,0-.28-.17-.28-.34,0-.28.02-1.46.02-1.72,0-.77,0-.9-.11-2.04l1.42.71h7.36l.37-.39c.13-.15.15-.17.26-.17.06,0,.17.02.3.11l.75.54c.09.06.17.13.17.24,0,.17-.15.3-.56.58Zm-1.07-.39h-7.75v1.7h7.75v-1.7Zm-.21,4.04h-6.91v1.98h6.91v-1.98Zm0,2.49h-6.91v2.1h6.91v-2.1Zm-6.91,2.62v2.17c.43-.02,2.62-.13,3.09-.15.56-.04,3.2-.3,3.8-.34,0-.56.02-1.52.02-1.68h-6.91Z"/>
      <path d="m644.38,46.13c-.26,0-1.27-.71-1.48-.82-1.27-.62-3.67-1.18-5.56-1.18s-3.33.64-3.33,2.38c0,2.51,4.14,2.53,5.05,2.53.34,0,1.93-.11,2.25-.11.47,0,1.12.17,1.12.69,0,.32,0,.64-2.17.64-.79,0-2.55-.06-4.14-.56-1.16-.34-2.88-1.1-2.88-3.05,0-3.14,3.61-3.14,4.51-3.14,1.16,0,2.86.17,4.51.52.13.02.69.15.77.15.06,0,.17-.02.17-.15,0-.11-.09-.28-.17-.39-.6-.86-1.59-2.3-2.47-3.67-2.28.84-4.36,1.07-5.07,1.07-1.01,0-2.21-.67-2.51-1.52,1.01.45,1.35.62,2.32.62s2.96-.34,4.77-.99c-.37-.64-.82-1.48-1.52-3.03-1.03.32-2.47.67-3.03.67-.75,0-1.83-.58-2.34-1.25.45.15,1.05.39,1.87.39,1.16,0,2.49-.45,3.11-.64-.17-.39-.86-2.15-1.05-2.47-.28-.49-.97-.64-2.06-.6.58-.58.82-.82,1.65-.82.67,0,1.65.28,1.72.79.04.3.13,1.25.17,1.44.06.34.28.99.41,1.33.21-.11.67-.28,1.33-.69.69-.41,1.07-.64,1.42-.64.32,0,.75.21.75.54,0,.3-.17.39-.64.62-1.31.62-1.63.77-2.51,1.07.37.92.69,1.61,1.5,2.98.71-.3,1.05-.49,2-1.05.58-.36.64-.39,1.01-.39.54,0,.88.26.88.47,0,.28-.34.47-.64.6-.3.15-1.65.75-2.73,1.18.97,1.5,1.78,2.43,2.66,3.44.28.3.97,1.12.97,1.48s-.17,1.53-.6,1.53Z"/>
      <path d="m658.54,35.76h-4.55c-.69,0-1.89.09-2.77.26l-.49-.92c1.18.09,2.36.15,3.56.15h2.53l.36-.56c.13-.19.21-.26.32-.26.13,0,.24.09.41.21l.73.56c.11.09.21.17.21.32,0,.17-.13.24-.32.24Zm-1.03,2.62h-4.32c-.34,0-.84.04-1.18.13l-.21-.71c.39.02,1.2.06,1.52.06h2.6l.37-.51c.11-.15.24-.28.34-.28.13,0,.28.13.39.21l.6.54c.13.13.21.19.21.32,0,.19-.15.24-.32.24Zm.02,2.58h-4.27c-.34,0-.84.04-1.18.13l-.21-.71c.39.02,1.2.06,1.52.06h2.51l.41-.56c.09-.13.21-.28.34-.28s.28.11.39.21l.62.58c.13.13.19.21.19.32,0,.17-.11.24-.32.24Zm-.3-7.84h-3.89c-.34,0-.84.02-1.18.11l-.21-.71c.39.02,1.2.09,1.52.09h2.17l.41-.54c.11-.15.24-.28.34-.28s.24.11.39.24l.58.54c.11.11.19.19.19.32,0,.15-.13.24-.32.24Zm-.04,10.93c0,.6.11,3.22.11,3.76,0,.21-.04.39-.24.54-.13.11-.41.21-.54.21-.32,0-.32-.41-.32-.51h-2.92c0,.28.02,1.76.02,1.8,0,.32.04.92-.88.92-.24,0-.34-.06-.34-.28,0-.06.09-2.47.11-2.73.04-1.07.09-2.51.09-3.44,0-.6,0-.86-.17-2l1.42.92h2.58l.28-.49c.06-.11.15-.21.26-.21.09,0,.26.09.34.15l.67.45c.15.11.24.15.24.28,0,.24-.52.54-.69.62Zm-.99-.28h-2.92v3.76h2.92v-3.76Zm12.65-10.09c0,.3.02.54.02,2.75v7.19c0,.69.04,3.71.04,4.34,0,1.16,0,2.06-2.08,2.53,0-.41-.21-.64-.71-1.03-.58-.45-.94-.62-1.27-.75v-.17c.9.04,2,.11,2.19.11.71,0,.71-.3.71-.54,0-2.34.02-4.59.02-6.93v-5.13c0-2.32,0-2.58.02-2.92h-7.24c.02,1.76,0,7.67-.09,9.15-.3,4.96-1.91,6.78-3.95,8.37l-.17-.15c1.59-1.33,2.36-3.35,2.66-5.41.32-2.28.41-5.58.41-7.47,0-1.63-.04-4.29-.34-5.82l1.72.82h6.7l.39-.43c.06-.09.21-.26.32-.26s.21.11.34.17l.88.54c.11.06.28.24.28.39,0,.21-.41.47-.86.67Zm-1.93,5.54h-4.47c-.37,0-.86.04-1.2.11l-.21-.69c.39.02,1.2.06,1.55.06h.86c0-.24-.02-2.21-.02-2.28h-.82c-.34,0-.84.04-1.18.11l-.21-.71c.39.02,1.2.09,1.52.09h.69c-.04-.77-.09-1.76-.28-2.4l1.57.52c.17.06.28.08.28.26,0,.28-.45.47-.64.56.02.62.02.69.02,1.07h1.03l.26-.34c.09-.11.21-.26.34-.26.11,0,.3.15.39.21l.43.34c.13.11.21.17.21.32,0,.17-.13.24-.32.24h-2.32c0,.36.02,1.95.02,2.28h.99l.37-.45c.11-.13.21-.28.34-.28s.26.15.39.24l.56.45c.13.09.19.19.19.32,0,.17-.13.24-.32.24Zm-.37,2.6c-.09.06-.24.15-.45.28,0,.64.11,3.48.11,4.06,0,.64-.56.84-.82.84-.37,0-.37-.06-.32-1.22h-2.21c0,.17.06,1.14.06,1.16,0,.13,0,.39-.26.56-.24.17-.52.17-.56.17-.26,0-.41-.13-.41-.39,0-.39.09-2.08.09-2.43.02-.47.04-1.91.04-2.71,0-.67-.02-.99-.19-1.68l1.37.71h2l.32-.3c.15-.13.24-.24.32-.24s.24.15.3.21l.58.47c.09.06.19.17.19.26,0,.11-.09.17-.17.24Zm-1.48-.13h-2.23v3.56h2.23v-3.56Z"/>
      <path d="m268.36,76.25c3.84-2.66,5.48-8.42,5.48-9.55,0-.41-.19-.58-.45-.82-3.69.43-4.4.64-5.22.99-.34.15-.49.21-.62.21-.24,0-1.5-.73-1.5-2.17,0-.21.04-.41.06-.62.28.45.99,1.35,2.08,1.35.84,0,6.05-.62,7.19-.73,1.25-.11,2.49-.24,3.74-.32.43-.04.54-.06.82-.19.04-.02.21-.11.32-.11.26,0,1.37.41,1.8.77.17.13.21.34.21.51,0,.24-.09.47-.39.47-.28,0-1.42-.19-1.65-.21-1.44-.17-2.64-.19-3.22-.19-1.27,0-2.21.09-2.62.13.3.21,1.18.84,1.18,1.05,0,.11-.36.52-.41.6-.11.17-.17.41-.24.62-1.05,3.5-2.9,7.11-6.53,8.35l-.04-.15Zm3.65-15.33c1.63,0,2.83-.17,3.89-.47.75-.21.84-.24,1.07-.24.52,0,1.72.13,1.72.75,0,.39-.26.39-1.03.43-3.07.13-3.39.19-6.23.45h-.24c-.32,0-.79,0-1.4-.49-.37-.3-.43-.62-.43-1.16,1.03.71,1.93.73,2.64.73Z"/>
      <path d="m288.13,76.12c4.53-2.23,9.38-7.54,11.19-12.52-.62.04-3.44.45-4.02.45-.28,0-.62-.04-1.29-.39-.52.73-1.33,1.87-2.77,3.18-.71.64-1.72,1.44-2.9,1.93l-.09-.15c3.41-2.79,5.69-6.96,5.69-7.77,0-.43-.39-.64-1.2-1.07.19-.06.49-.15,1.07-.15.39,0,.64,0,1.7.75.39.28.45.36.45.58,0,.19-.09.32-.32.56-.32.32-.39.39-1.33,1.72.17.02.54.04.77.04,1.07,0,3.74-.3,4.23-.62.11-.06.56-.45.69-.45.11,0,.17.04.3.17.9.73,1.33,1.07,1.33,1.37,0,.13-.04.13-.49.39-.71.39-.82.45-1.31,1.48-2.96,6.18-7.43,9.47-11.68,10.65l-.02-.15Z"/>
      <path d="m308.18,74.64c4.77-2,9.75-7.47,11.72-12.93-.67.13-3.54.62-4.12.75-.86.21-1.76.45-2.47.84-.3.17-.39.21-.52.21-.28,0-.64-.52-.9-.88-.21-.3-.39-.62-.39-1.03,0-.3.11-.64.19-.95.11.19.19.41.45.71.37.43.56.56,1.05.56.94,0,5.3-.6,5.95-.86.26-.11.37-.17.86-.49.17-.13.24-.13.3-.13.21,0,1.67,1.12,1.67,1.46,0,.26-.13.3-.82.51-.11.02-.17.17-.24.3-1.2,2.66-2.38,4.29-3.03,5.15,2.81,1.35,6.31,3.71,6.31,5.84,0,.15,0,.84-.64.84-.32,0-.47-.21-.62-.47-1.42-2.34-2.86-4.25-5.3-5.86-1.33,1.7-4.47,5.54-9.43,6.59l-.04-.17Z"/>
      <path d="m333.25,75.99c3.18-2.77,4.66-5.17,5.02-9.64-3.37.34-4.81.71-6.01,1.22-.13.04-.69.28-.77.28-.41,0-1.22-.86-1.5-1.22-.3-.41-.26-1.33-.26-1.61.86,1.16,1.42,1.33,1.98,1.33.34,0,.94-.04,1.63-.13,2.23-.28,2.49-.3,4.98-.58,0-.69-.02-2.06-.15-2.47-.13-.39-.34-.58-.9-1.03-.37.09-3.11.6-4.83.54v-.15c2.77-.3,7.86-2.3,8.14-2.73.04-.04.06-.09.06-.15,0-.13-.04-.24-.67-.54.26-.11.37-.11.47-.11.84,0,2.51,1.22,2.51,1.68,0,.19-.17.24-.3.24-.88,0-.94,0-2.43.47-1.03.32-1.7.47-2.08.56,1.12.37,1.57.67,1.67.75.09.09.13.21.13.34,0,.15-.02.24-.24.62-.13.24-.21,1.22-.26,1.85,1.18-.09,3.11-.19,4.32-.3.17-.02.97-.24,1.14-.24.56,0,2.17.47,2.17,1.16,0,.19-.13.43-.41.43-.06,0-.21-.02-.45-.06-.64-.15-1.74-.36-3.18-.36-1.2,0-2.47.04-3.65.11-.3,3.78-1.1,5.43-2.47,7.09-1.48,1.78-2.98,2.49-3.61,2.77l-.06-.11Z"/>
      <path d="m362.67,69.74c.3-.51,1.44-2.6,1.83-3.39.17-.32.24-.52.34-.82-1.01.34-4.4,1.35-5.11,1.57.6,2.64,1.31,5.26,2.17,7.84.11.3.21.62.21.9,0,.24-.13.41-.34.41-.43,0-1.18-.47-1.25-1.37-.11-1.44-.17-1.76-.88-4.66-.11-.47-.56-2.49-.67-2.9-1.35.41-2.75.82-3.33,1.14-.11.06-.62.47-.75.47-.19,0-.32-.09-1.05-.82-.41-.39-.43-.71-.43-.99,0-.21.04-.34.09-.49.21.32.67.9,1.33.9.19,0,.45-.06.58-.11,1.14-.3,1.35-.36,3.35-.88-.19-.71-.73-2.6-1.12-2.96-.26-.21-.75-.32-1.37-.36.34-.43.84-.71,1.4-.71.28,0,1.4.24,1.46.73.02.13.04.75.04.88.11.9.32,1.89.39,2.23,2.25-.56,4.68-1.16,5.2-1.53.09-.06.54-.47.67-.47.21,0,1.55,1.14,1.55,1.48,0,.26-.06.28-.73.39-.3.04-.54.13-1.33,1.18-.21.3-1.09,1.42-1.57,1.93-.21.26-.32.36-.49.54l-.17-.13Z"/>
      <path d="m374.71,66.93c.3.09.52.09,2.4.09.39,0,7.49-.04,9-.21.41-.04.43-.04.69-.15.13-.04.26-.06.41-.06.11,0,2,.21,2,.84,0,.52-.56.52-1.14.52-.32,0-2.34-.13-2.79-.13-1.29,0-7.36.11-8.42.21-.26.02-.88.09-1.48.3-.41.15-.52.19-.67.19s-.28,0-.79-.62c-.15-.17-.62-.73-.62-1.55,0-.3.02-.56.17-.84.28.77.75,1.29,1.25,1.42Z"/>
      <path d="m401.97,59.31c0-.47-.39-.64-1.31-.99.17-.17.37-.3.88-.3,1.05,0,1.91.69,1.91,1.16,0,.11,0,.26-.3.69-.17.26-1.01,1.48-1.18,1.72.54-.13,1.09-.28,2.49-.86.09-.04.39-.15.58-.15.32,0,1.09.17,1.09.62,0,.34-.34.47-.84.6-1.48.36-2.28.52-4.04.84-.9,1.27-1.89,2.68-2.53,3.91.49-.3,1.14-.71,2.15-.71,1.98,0,2.38,1.42,2.64,2.25,1.03-.58,2.17-1.2,4.62-2.32.28-.13.45-.26.45-.56,0-.28-.26-.49-.6-.77.17-.04.24-.04.34-.04.45,0,2.13.54,2.13,1.67,0,.45-.24.47-1.07.6-1.14.15-4.06,1.37-5.69,2.17.11.56.26,1.44.26,2.68,0,.21,0,1.76-.71,1.76-.6,0-.62-.9-.62-1.16,0-.09.06-1.42.06-1.7,0-.06,0-.52-.06-1.01-1.65,1.07-3.22,2.79-3.22,3.99,0,1.59,2.66,1.63,3.41,1.63,1.14,0,2.38-.19,3.33-.39.37-.06.49-.09.69-.09.67,0,1.25.34,1.25.75,0,.13-.09.43-.6.54-.54.11-1.76.21-3.13.21-3.26,0-4.04-.36-4.7-.82-.45-.3-1.03-.95-1.03-1.74,0-.3.15-1.2.75-2,.64-.82,1.59-1.78,3.16-2.83-.24-1.27-.6-2.21-1.98-2.21-1.27,0-2.3,1.01-2.79,1.7-.84,1.2-.94,1.35-1.22,1.35-.52,0-.54-.62-.54-.77,0-.49.17-.62.49-.86,1.07-.77,2.62-3.29,3.69-5.07-1.22.21-1.61.3-2.25.3-1.72,0-1.91-1.16-2-1.7.69.49,1.18.73,2.04.73.92,0,2-.15,2.77-.3.3-.54,1.25-2.19,1.25-2.56Z"/>
      <path d="m418.93,68c0,1.61,0,2.34.04,3.67.02,1.07.06,2.25.06,3.14,0,1.03-.02,1.44-.54,1.85-.6.47-1.22.58-1.59.64-.06-.45-.13-.99-1.76-1.78l.02-.11c.47.06,1.46.13,1.91.13.77,0,.77-.24.77-1.07,0-.41-.02-2.68-.04-3.29,0-.52-.02-.67-.02-2.51-1.27.71-1.52.84-1.83.99-.17.45-.3.77-.49.77-.13,0-.19-.11-.28-.28l-.94-1.68c.75-.04,1.22-.06,3.52-.97,0-.71,0-.86-.02-2.15-.02-.82-.02-1.65-.04-2.47-.67,0-1.87.06-2.75.24l-.52-.92c.64.06,1.5.13,3.26.15,0-.58-.06-2.81-.06-3.29,0-.34-.11-.79-.32-1.33l2.06.56c.13.04.24.06.24.24,0,.28-.49.52-.73.69v3.16h1.01l.49-.62c.13-.17.24-.28.34-.28.13,0,.3.15.41.24l.75.62c.11.09.21.17.21.32,0,.19-.17.24-.32.24h-2.9v3.07q0,.47.02,1.1c2.04-.82,2.53-1.05,3.2-1.37l.02.21c-.6.47-1.5,1.05-3.2,2.1Zm14.02,6.87c-2.36-1.5-4.47-4.14-5.15-7.17h-.21c0,.82.02,4.4.02,5.13.02.9.02,1.93.09,2.75.02.17.11.86.11.99,0,.54-.62.75-1.05.75-.28,0-.41-.13-.41-.56,0-.79.04-2.08.06-2.88,0-.56.06-3.61.04-5.03-2.36,4.32-5.93,6.1-6.46,6.31l-.09-.17c4.32-3.48,5.63-6.64,5.88-7.3h-.75c-.67,0-1.89.06-2.77.24l-.49-.92c1.18.11,2.38.17,3.56.17h1.07c-.06-1.53-.11-1.93-.39-2.75l1.95.41c.15.02.26.06.26.24,0,.19-.15.32-.64.67-.02.26-.02,1.01,0,1.44h3.86l.67-.86c.13-.15.21-.28.34-.28s.32.15.41.21l1.01.88c.13.11.21.17.21.32,0,.19-.17.24-.32.24h-5.69c.99,2.86,3.5,5.11,6.68,5.88v.11c-.77.32-1.33.54-1.8,1.18Zm-1.1-15.72c-.24,0-.6-.04-1.07-.09-1.48.34-2.68.58-5.05.84-.71.09-3.84.26-4.49.3l-.02-.24c2.68-.39,4.36-.67,6.23-1.16,2.81-.75,3.01-.97,3.24-1.31l1.44,1.18c.11.09.15.11.15.21,0,.26-.32.26-.43.26Zm-7.77,4.81c-.56,0-.71-.52-.88-1.1-.24-.86-.62-1.35-1.14-2.06l.06-.11c.92.49,2.62,1.44,2.62,2.56,0,.34-.24.71-.67.71Zm3.76-.41c-.52,0-.62-.39-.86-1.29-.02-.11-.26-.92-.97-1.91l.06-.04c1.35.86,2.4,1.61,2.4,2.49,0,.43-.21.75-.64.75Zm5.52-2.23c-.11.04-.56.15-.64.19-.69.94-2.21,2.68-3.2,3.35l-.15-.09c.88-1.16,1.7-2.68,2-3.29.47-.99.52-1.25.49-1.72l1.59.92c.13.09.26.15.26.32,0,.19-.24.28-.34.3Z"/>
      <path d="m453.24,60.25c-.02.64-.06,1.59-.06,2.23,0,1.46.06,5.97.11,8.67.02.86.06,2.66.06,2.96,0,1.01-.06,1.48-.49,1.85-.67.6-1.44.82-1.74.92-.13-.47-.43-1.29-1.95-1.85v-.15c.34,0,1.83.04,2.15.04.79,0,.79-.17.79-1.01,0-1.01-.04-3.14-.02-3.97h-5.58c.02.82.06,4.4.11,5.13.02.43.04.69.04.9,0,.3-.06.54-.28.67-.24.15-.52.26-.79.26-.41,0-.47-.21-.47-.47,0-.08.04-.39.04-.45.02-.32.17-3.97.17-5.65v-.39h-5.22c-.39,2.06-.88,4.72-3.99,7l-.13-.15c3.16-3.16,3.29-8.91,3.29-12.56,0-1.74-.02-4.47-.34-6.03l1.89,1.01h10.82l.71-.64c.13-.13.19-.19.32-.19.11,0,.24.09.34.17l1.01.67c.09.06.17.13.17.26,0,.26-.64.62-.94.77Zm-12.75,4.49c0,1.57-.09,3.16-.3,4.7h5.13l.04-4.7h-4.87Zm4.87-5h-4.87v4.49h4.87v-4.49Zm6.72,0h-5.58v4.49h5.58v-4.49Zm0,5h-5.58v4.7h5.58v-4.7Z"/>
      <path d="m458.21,73.52c0-1.74,1.4-3.14,3.11-3.14s3.13,1.4,3.13,3.14-1.44,3.11-3.13,3.11-3.11-1.42-3.11-3.11Zm5.65,0c0-1.4-1.14-2.53-2.53-2.53s-2.53,1.16-2.53,2.53,1.09,2.53,2.53,2.53,2.53-1.12,2.53-2.53Z"/>
      <path d="m494.07,61.3c-.09,2.58-.02,10.11.06,12.97,0,.24.09,1.22.09,1.44,0,.77-.64.9-.9.9-.49,0-.49-.36-.49-.54,0-.06.04-.84.04-.94h-8.52c.02.58.02.79-.04.97-.04.11-.32.56-.84.56-.43,0-.54-.3-.54-.56,0-.21.09-1.12.11-1.31.13-1.85.17-7.24.17-8.7,0-5.69-.09-6.14-.37-7.04l1.83.99h7.84l.62-.56s.24-.24.41-.24c.09,0,.15.04.34.19l.82.71c.19.15.26.28.26.41,0,.24-.43.47-.88.75Zm-1.18-.75h-8.55v6.53h8.55v-6.53Zm0,7.04h-8.55v7.02h8.55v-7.02Z"/>
      <path d="m518.28,72.92c-1.55-1.18-3.33-2.58-4.98-5.17-1.03-1.59-1.91-3.29-2.43-5.11h-.17c-.06,2.94-.06,3.26-.06,4.29,0,.54,0,2.13.06,4.29h1.7l.69-.77c.21-.26.26-.26.37-.26.06,0,.15.02.37.21l.82.73c.11.11.21.24.21.36,0,.19-.17.24-.32.24h-3.82c.02.71.17,4.38.17,4.51,0,.28-.02.54-.37.79-.32.24-.58.24-.69.24-.39,0-.52-.17-.52-.49,0-.02,0-.13.02-.28.17-2.45.19-4.17.21-4.77h-1.01c-.75,0-1.95.09-2.75.24l-.52-.92c1.61.13,3.18.17,3.56.17h.73c0-1.01.11-6.85.11-7.36-2.81,5.39-6.36,8.07-9.19,9.28l-.09-.15c4.14-2.9,7.06-7.11,8.48-10.35h-4.6c-.75,0-1.95.09-2.77.26l-.49-.92c1.61.13,3.16.15,3.56.15h5.07c-.11-2.98-.13-3.35-.43-4.25l2.08.62c.19.06.3.11.3.26s-.09.19-.84.69c-.02.54-.02.92-.04,2.68h5.54l.97-1.14c.17-.21.24-.28.34-.28s.32.17.41.24l1.35,1.16c.11.09.19.17.19.32,0,.19-.17.21-.32.21h-8.05c1.85,4.25,5.73,8.14,9.43,9.04v.19c-1.16.09-1.83.54-2.3,1.05Z"/>
      <path d="m532.19,75.07c6.42-2.21,6.72-6.83,6.72-7.94,0-3.76-3.56-5.78-6.72-5.78-.45,0-.58.04-.79.11,1.05.88,1.05,1.53,1.05,1.63,0,.26-.06.34-.52,1.29-2.62,5.5-2.86,6.03-4.08,7.86-.11.15-.79,1.16-1.22,1.33-.13.06-.28.08-.41.08-.49,0-.64-.24-1.25-1.09-.15-.21-.28-.32-.58-.58-.84-.69-1.12-1.44-1.12-2.9,0-4.32,3.63-8.37,9.13-8.37,3.93,0,7.82,2.23,7.82,6.68,0,3.93-3.16,7.45-7.99,7.92l-.04-.24Zm-2.43-8.35c.64-1.2,1.27-2.88,1.27-3.74,0-.73-.43-1.18-.6-1.37-2.4.19-6.03,3.37-6.03,7.58,0,1.63,1.03,3.07,1.87,3.07.13,0,.28-.02.41-.15.47-.47.86-1.18,1.25-1.89l1.85-3.5Z"/>
      <path d="m549.38,59.46c-.28.6-.69,1.42-1.61,3.01l.32.24c.24.17.28.19.28.3,0,.32-.41.52-.58.6-.15,1.05-.15,2.47-.15,3.69,0,.45.04,5.26.04,5.35.02.51.09,2.79.09,3.26,0,.09-.02.82-.04.9-.15.47-.6.56-.86.56-.52,0-.6-.24-.6-.6,0-.34.09-1.82.11-2.13.15-3.63.21-7.17.26-10.37-.6.92-1.27,1.8-2,2.66-.71.84-1.14,1.14-1.48,1.37l-.13-.09c1.4-2.02,3.67-5.54,4.62-8.01.45-1.18.56-1.85.64-2.53l1.63.97c.24.13.32.19.32.34,0,.3-.32.36-.86.47Zm13.12,16.47h-10.74c-.67,0-1.89.06-2.77.24l-.52-.92c1.14.09,2.45.17,3.59.17h2.64v-6.68h-1.37c-.64,0-1.87.06-2.75.24l-.52-.92c1.14.09,2.45.17,3.56.17h1.07v-5.5h-2.23c-.67,0-1.87.06-2.77.26l-.52-.95c1.14.11,2.45.17,3.59.17h6.57l.84-.79c.17-.15.21-.26.32-.26s.26.08.41.21l1.05.79c.11.09.21.19.21.32,0,.24-.21.24-.32.24h-5.93v5.5h2.73l.75-.86c.13-.13.21-.28.34-.28s.26.13.41.24l1.22.86c.11.06.21.19.21.32,0,.21-.21.24-.32.24h-5.35v6.68h4.08l.88-.99c.13-.13.24-.26.34-.26.15,0,.26.13.39.24l1.01.97c.09.09.19.19.19.32,0,.21-.21.24-.32.24Zm-6.83-14.19c-.56,0-.6-.15-.99-1.31-.3-.94-.77-1.82-1.4-2.6l.09-.11c.43.19,3.03,1.42,3.03,3.18,0,.56-.28.84-.73.84Z"/>
      <path d="m574.87,60.08c0-.9-.17-.99-1.59-1.65.19-.13.43-.32,1.07-.32,1.12,0,2.02.77,2.02,1.29,0,.04-.11.49-.21.94-.11.45-.17.94-.26,1.59,1.48-.32,2.13-.56,3.35-.99.15-.04.37-.13.54-.13.39,0,1.16.39,1.16.69,0,.26-.28.39-.39.43-.67.28-2.53.77-4.77,1.07-.06.9-.09,2.23-.06,3.44,1.4-.34,1.89-.52,2.83-.88.11-.04.28-.11.39-.11.39,0,1.12.26,1.12.62,0,.3-.26.45-.47.54-.39.13-2.34.54-3.84.82.04.88.24,3.84.3,4.92,2.45.58,4.57,1.61,4.57,2.66,0,.39-.26.6-.47.6-.17,0-.26-.06-.99-.56-.21-.15-1.61-1.01-3.03-1.42-.02,1.25-.54,1.74-.84,1.98-.97.71-2.32.73-2.62.73-2.19,0-3.63-1.07-3.63-2.13,0-.67.45-1.12,1.07-1.48,1.2-.67,3.26-.67,3.67-.67.49,0,.82.02,1.14.04-.02-.71-.19-3.87-.21-4.51-1.1.15-2.17.26-3.24.26-1.29,0-2.08-.24-2.08-.99,0-.36.39-.9,1.05-1.05-.15.17-.34.41-.34.67,0,.41.45.47,1.55.47.84,0,1.85-.09,3.05-.3,0-1.18.02-1.8.09-3.52-.86.09-3.71.39-4.34.39-.56,0-2.25-.15-2.83-1.44.37.15,1.27.54,2.77.54.43,0,2.19-.11,4.42-.47,0-.32.06-1.76.06-2.06Zm-2.25,12.95c-1.42,0-2.83.37-2.83,1.22,0,.62.94,1.12,2.58,1.12.9,0,2.81-.26,2.58-2.13-.37-.09-.97-.21-2.32-.21Z"/>
      <path d="m595.86,66.33c-.3.6-2.58,5.28-2.66,5.5-.09.28-.15.52-.15.79,0,.15.15.84.15.99,0,.24-.15.47-.54.47s-2.68-.17-3.76-4.68c-.19-.77-.19-1.14-.43-4.47-.13-1.74-.19-2.28-1.03-3.59,1.14.04,2.38,1.27,2.38,2.21,0,.24,0,.3-.13.92-.13.73-.15,1.33-.15,1.82,0,1.2.28,4.23,1.61,5.28.06.04.28.24.47.24.24,0,.43-.17.52-.32,1.59-2.49,1.76-2.73,3.31-4.98.02-.04.13-.21.19-.3l.21.11Zm4.87,2.62c.3-.04,1.7-.26,1.98-.3.17-.02.56-.11.56-.54,0-.49-.94-3.95-3.97-5.09.11-.04.39-.13.67-.13.36,0,1.48.24,2.45,1.33,1.63,1.85,2.32,4.06,2.32,5.07,0,.64-.28,1.29-.6,1.29-.15,0-.21-.04-.75-.49-.73-.62-1.2-.71-2.64-.99v-.15Z"/>
      <path d="m614.02,67.53c-.15.64-.88,3.5-1.03,4.08-.32,1.29-.45,1.91-.45,2.47,0,.24.11,1.48.11,1.5,0,.26-.04.56-.41.56-.32,0-.71-.41-.9-.73-.97-1.65-1.18-3.29-1.18-5.5,0-.41.02-1.12.15-2.04l.69-4.7c.06-.41.13-.97.13-1.57,0-1.18-.43-1.68-.67-1.95.99-.15,2.15,1.16,2.15,1.95,0,.15-.26.94-.34,1.18-.47,1.48-1.22,4.6-1.22,7.11,0,1.78.37,3.11.62,3.11.13,0,.24-.32.24-.34.67-2.06,1.01-2.9,1.95-5.24l.17.11Zm4.12,4.9c1.22.56,3.09.6,3.56.6.77,0,1.14-.04,2.28-.19.17-.02.28-.02.37-.02.37,0,1.5.28,1.5.82s-.73.6-2.06.6c-.99,0-4.51-.15-5.84-.9-1.33-.73-1.5-2.04-1.5-2.51,0-.28.04-.45.11-.64.41,1.1.67,1.82,1.59,2.25Zm1.42-8.18c.45-.36,2.21-1.78,2.21-1.97,0-.17-.62-.17-.67-.17-.62,0-2.28.26-4.17.92,1.95-1.5,3.31-1.89,4.79-1.89,1.31,0,3.07.36,3.07,1.03,0,.37-.3.43-1.1.58-1.93.37-3.24,1.14-4.04,1.65l-.11-.15Z"/>
      <path d="m647.79,76.65c-.47.02-.71.04-1.52.04-1.74,0-6.29-.06-7.86-.36-2.34-.47-3.63-1.48-4.79-2.83-.24.24-.79.84-1.18,1.27-.32.34-.82.84-.94,1.01-.09.79-.11.9-.3.9-.13,0-.21-.11-.28-.19l-1.22-1.48c.34,0,.79-.06,1.91-.69.43-.24.86-.47,1.22-.82,0-.54.02-3.35.02-3.46-.06-2.02-.06-2.23-.06-2.68-.6,0-1.83.06-2.73.26l-.52-.94c.79.06,1.74.13,3.05.17l.45-.49c.06-.09.15-.19.28-.19s.24.09.34.17l.77.6c.09.06.17.17.17.3,0,.21-.3.36-.67.6v4.4c.11.71.26,1.8,2.4,2.68,1.22.52,2.4.6,4.08.6.69,0,6.7-.09,8.95-1.07l.06.09c-.94.52-1.4,1.14-1.65,2.13Zm-14.32-15.07c-.49,0-.56-.17-.97-1.2-.41-1.05-.88-1.59-1.42-2.13l.09-.15c1.25.41,3.05,1.44,3.05,2.66,0,.56-.37.82-.75.82Zm14.77-.82h-4.7l1.22.67c.15.09.21.15.21.26,0,.24-.26.3-.73.39-.39.56-.9,1.29-1.18,1.68h2.45l.56-.51c.09-.09.19-.21.32-.21.11,0,.21.11.3.15l.77.52c.15.11.24.17.24.26s-.11.19-.21.26c-.19.15-.34.24-.54.39v4.55c0,.34.13,2.83.13,2.98,0,.64,0,1.65-1.98,2.17-.28-.84-.86-1.33-1.35-1.61v-.06c.3.02.82.09,1.16.09.97,0,.97-.21.97-.73v-7.71h-8.74c0,.62.02,5.2.04,6.87,0,.32.06,1.78.06,2.13,0,.21-.02.39-.21.49-.24.15-.52.21-.67.21-.26,0-.34-.19-.34-.43,0-.21.06-1.29.06-1.52,0-.9-.02-5.28-.02-6.29,0-.32,0-1.82-.11-2.75l1.59.77h5.07c.49-1.37.54-1.93.64-2.98h-4.77c-.64,0-1.87.06-2.75.24l-.52-.92c1.12.11,2.45.17,3.56.17h2.36c0-.73,0-1.74-.43-2.68l2,.54c.19.04.28.13.28.24,0,.24-.19.32-.69.64,0,.19-.02,1.07,0,1.27h3.86l.62-.75c.09-.09.19-.26.34-.26s.28.13.41.26l.79.71c.13.11.21.19.21.32,0,.24-.24.24-.32.24Zm-3.26,5.95h-3.18v1.82h.99l.28-.28c.06-.06.17-.17.24-.17s.15.06.28.17l.62.45c.09.06.21.13.21.24,0,.15-.13.26-.49.56,0,.45,0,.75.02,1.05,0,.17.04,1.05.04,1.07,0,.62-.79.71-.84.71-.28,0-.28-.24-.26-.6h-3.07c0,.32-.02.41-.11.49-.13.15-.41.34-.69.34-.3,0-.3-.28-.3-.43,0-.26.02-1.42.02-1.65,0-1.61,0-1.78-.09-2.3l1.16.34h.92v-1.82c-.43,0-1.63.09-2.45.24l-.49-.92c.99.08,1.98.13,2.94.15-.02-.28-.02-.86-.28-1.37l1.52.43c.15.04.28.06.28.19,0,.15-.26.3-.47.41v.36h1.59l.41-.34c.19-.17.34-.28.45-.28s.26.13.39.21l.47.36c.09.06.21.17.21.32,0,.19-.19.24-.34.24Zm-5.17-3.24c-.52,0-.58-.41-.71-1.18,0-.09-.11-.64-.58-1.29l.06-.13c1.25.43,1.85,1.27,1.85,1.91,0,.47-.37.69-.62.69Zm3.11,5.58h-3.09v2.17h3.09v-2.17Z"/>
      <path d="m668.96,71.42c-1.55,2.92-5.2,4.92-8.59,4.92-.58,0-2.43-.13-3.18-.99-.71-.82-.88-2.17-.88-4.34,0-.32.11-4.57.13-5.24s.13-3.56.13-4.17c0-1.8-.62-2.02-1.5-2.36.15-.17.37-.34.94-.34.9,0,2.1,1.03,2.1,1.59,0,.19-.11.79-.17,1.18-.49,2.64-.77,6.96-.77,9.66,0,.84,0,2.73.43,3.31.47.62,1.29.77,2.08.77,2.68,0,7.34-2.23,9.21-4.08l.06.09Z"/>
      <path d="m271.86,86.52c0-.77-.52-1.01-1.14-1.33.19-.09.32-.17.64-.17,1.67,0,2.02,1.22,2.02,1.63,0,.11-.15.36-.34.67-.39.67-.75,1.57-.92,2.04,1.07-.41,1.55-.69,1.93-.9.19-.13.82-.49,1.18-.49.26,0,.71.17.71.56,0,.13,0,.26-.45.49-1.16.64-2.32.99-3.78,1.4-.04.13-.09.24-.21.58-2.04,5.71-4.14,10.24-4.38,10.69-.06.15-.21.39-.58.39-.39,0-.56-.56-.56-.92,0-.39.04-.43.69-1.37.9-1.31,1.25-2.19,3.91-8.76.09-.24.09-.26.13-.34-.92.21-2.21.39-2.92.39-.77,0-1.72-.47-2.08-1.14.41.11,1.12.28,2.19.28s2.13-.19,3.16-.47c.19-.58.82-2.51.82-3.2Zm6.38,14.43c1.22,0,2.15-.13,2.4-.17.43-.06.56-.08.71-.08.67,0,1.03.45,1.03.84,0,.26-.21.39-.43.43-.39.09-1.27.17-2.4.17-1.27,0-3.5-.09-4.7-.75-.88-.47-1.55-1.31-1.55-2.3,0-.67.24-1.14.41-1.46.13,1.93.39,3.33,4.53,3.33Zm-.26-7.24c1.35-1.14,1.8-1.5,1.8-1.78,0-.43-.99-.62-1.93-.62-.67,0-1.2.06-1.61.09.86-.6,1.93-.86,2.98-.86,2.17,0,3.24,1.01,3.24,1.72,0,.3-.19.41-.49.41-.11,0-.6-.04-.69-.04-.06,0-1.83.32-3.18,1.2l-.13-.11Z"/>
      <path d="m297.86,84.29h7.09v.86h-6.23v18.68h-.86v-19.54Z"/>
      <path d="m310.48,87.34c-.75,0-1.95.09-2.77.24l-.49-.92c1.61.13,3.16.17,3.56.17h.34c-.02-1.72-.02-1.74-.28-2.64l1.65.47c.21.06.37.17.37.32,0,.24-.32.45-.6.58v1.27h1.67l.49-.67c.09-.13.21-.28.34-.28.11,0,.32.15.39.21l.82.69c.11.09.21.17.21.32,0,.19-.17.24-.32.24h-3.61v.21c0,.67.02,1.31.02,1.95h1.8l.41-.43c.09-.09.21-.21.39-.21.13,0,.28.13.37.21l.71.62c.19.17.21.24.21.3,0,.17-.26.3-.75.54.02.34.02.54.04,2.36,0,.36.09,1.95.09,2.34,0,.67-.62.84-.86.84-.32,0-.32-.34-.32-.6h-2.04l.06,2.86h1.46l.52-.71c.11-.13.21-.28.34-.28.11,0,.3.13.41.21l.94.73c.11.09.21.19.21.32,0,.19-.19.24-.32.24h-3.54c0,.71.06,3.29.06,3.86,0,.24,0,.41-.11.58-.13.21-.49.41-.88.41-.28,0-.43-.13-.43-.47,0-.11.02-.62.02-.71.02-.58.04-3.16.04-3.67h-.99c-.75,0-1.95.09-2.75.24l-.52-.92c1.61.13,3.18.17,3.56.17h.71l.02-2.86h-2.02c0,.36-.02.88-.79.88-.3,0-.37-.15-.37-.37,0-.17.02-.92.04-1.07.04-2.15.06-4.01.06-4.4,0-.92-.02-1.2-.06-1.7l1.18.69h1.93c0-.34-.02-1.93-.02-2.17h-.64Zm.69,4.9l-.02-2.21h-2v2.21h2.02Zm.02,2.73v-2.21h-2.04v2.21h2.04Zm1.1-4.94v2.21h2.08v-2.21h-2.08Zm.02,2.73c0,1.16,0,1.29.02,2.21h2.04v-2.21h-2.06Zm9.3.56c.17.04.39.11.39.34,0,.19-.06.24-.69.62v2.58h2.04l.62-.79c.13-.17.21-.28.34-.28.06,0,.13.04.34.21l.94.82c.13.11.21.19.21.32,0,.19-.17.24-.32.24h-4.19v4.51h2.96l.69-.94c.17-.21.28-.26.37-.26.11,0,.13.02.37.24l.99.92s.21.19.21.34c0,.19-.17.21-.32.21h-8.98c-.75,0-1.95.09-2.77.26l-.49-.92c1.61.13,3.16.15,3.56.15h2.25c.04-.82,0-3.52,0-4.51h-.69c-.77,0-1.95.09-2.77.24l-.52-.92c1.61.13,3.18.17,3.59.17h.37c0-.36-.02-1.98-.02-2.3-.02-.69-.19-1.25-.3-1.63l1.8.39Zm-5.35-8.29c1.61.13,3.16.15,3.56.15h3.2l.47-.45c.24-.24.26-.26.34-.26s.11.02.37.24l.79.67c.09.06.24.19.24.32,0,.15-.19.28-.24.3-.15.09-.19.13-.71.36-.6,1.25-1.29,2.47-2.4,3.74,2.15,1.76,4.21,2.13,5.05,2.3v.15c-.47.21-.71.32-1.5,1.2-.82-.34-2.38-.99-4.21-2.96-.92.9-2.43,2.1-5.07,2.94l-.06-.19c2.49-1.31,3.67-2.6,4.51-3.5-1.57-2.04-1.98-3.67-2.15-4.29-.52.04-1.18.11-1.7.21l-.49-.92Zm3.26.67c-.15,0-.45,0-.73.02.19.56.69,2,2.32,3.67,1.35-1.72,1.78-2.98,2.04-3.69h-3.63Z"/>
      <path d="m340.88,86.85c.47.11,1.12.24,1.31.24.21,0,1.05-.26,1.22-.26.34,0,.67.19.67.54,0,.3-.19.47-.37.64-1.42,1.18-2.77,1.7-3.69,2.04,1.25,1.14,3.22,3.29,4.23,4.49.58.71.9,1.09.9,1.57s-.32,1.4-.75,1.4c-.13,0-.19-.02-.73-.32-1.46-.77-3.41-1.31-5.17-1.31-2.71,0-4.53,1.09-4.53,2.68,0,1.87,2.1,2.62,3.11,2.79,1.07.17,2.06.19,2.4.19.15,0,.88-.06,1.03-.06.3,0,1.72,0,1.72.84,0,.56-.9.56-1.03.56-2.43,0-3.65-.28-4.44-.49-2.9-.75-3.44-2.13-3.44-3.52,0-3.69,4.59-3.69,5.5-3.69.97,0,2.3.15,3.35.32.19.04,1.22.26,1.27.26.11,0,.15-.04.15-.15,0-.45-2.15-3.33-4.32-5.26-2.17.75-3.97,1.09-4.9,1.09-.64,0-2.08-.28-2.64-1.61.75.39,1.35.67,2.3.67,1.76,0,3.76-.67,4.36-.88-1.72-1.35-1.83-1.44-2.34-1.8-.84-.6-.84-1.05-.84-1.27,0-.54.49-1.22,1.2-1.22.13,0,.71,0,1.35.47-.67.09-.73.09-.86.17-.15.09-.24.26-.24.51,0,.56,1.89,2.25,2.56,2.83.52-.19,1.29-.49,2.15-1.05.28-.17.28-.34.28-.43,0-.36-.3-.58-.79-.86l.02-.11Z"/>
      <path d="m357.71,103.66h-7.09v-.86h6.23v-18.68h.86v19.54Z"/>
      <path d="m384.58,90.75c.37-.13.58-.26.58-.6,0-.21-.06-.41-.13-.6.94.19,1.63.75,1.63,1.72,0,.45-.11.45-.75.54-2.83.39-9.75,3.2-9.75,6.66,0,.32.04.79.52,1.35.86.99,3.84.99,4.42.99,1.76,0,2.58-.15,4.32-.49.37-.06.71-.06.77-.06.56,0,1.33.21,1.33.71,0,.32-.34.52-1.03.67-.73.17-2.79.24-3.59.24-2.43,0-3.8-.24-4.9-.47-1.59-.36-2.53-1.61-2.53-2.88,0-1.68,1.35-3.71,4.17-5.41-.28-.39-.82-1.18-.84-2.32-.11-3.65-.13-4.04-.17-4.38-.06-.43-.21-.71-.54-1.05-.11-.13-.71-.6-.84-.69.21-.06.45-.15.79-.15,1.27,0,2.15,1.22,2.15,1.48,0,.11-.06.32-.09.43-.26.9-.34,1.72-.34,2.64,0,.47,0,2.3.6,3.61.56-.3,2.04-1.09,4.21-1.91Z"/>
      <path d="m405.19,84.29h7.09v.86h-6.23v18.68h-.86v-19.54Z"/>
      <path d="m421.44,86.48c.02,1.05.04,2.08.06,3.14,0,.09.02.54.02.62,0,.62-.52.84-.79.84-.43,0-.43-.26-.41-.79h-3.07c-.06,1.18-.13,3.05-.19,4.23h2.66l.41-.47c.15-.17.26-.21.37-.21.13,0,.24.06.32.15l.62.52c.17.13.24.19.24.32,0,.26-.21.39-.67.64-.15,4.12-.49,5.6-1.05,6.53-.26.41-1.03,1.42-2.79,1.55-.21-1.25-1.2-1.8-1.61-2.02l.06-.15c1.25.3,1.78.43,2.21.43.73,0,1.05-.43,1.27-.82.52-.92.79-3.37.79-4.87,0-.15-.02-.9-.04-1.07h-2.79c0,.43-.02,1.2-.99,1.2-.15,0-.37-.09-.37-.3,0,0,.3-2.77.32-3.14.09-1.18.11-3.03.06-3.97l1.27.94h2.96c0-1.46,0-2.25-.04-3.71h-1.7c-.75,0-1.95.09-2.77.26l-.49-.92c1.61.13,3.16.15,3.56.15h1.44l.34-.43c.04-.06.21-.28.32-.28.04,0,.06.02.24.17l.69.6c.11.09.15.13.15.28,0,.32-.11.37-.62.6Zm11.7,16.96c-.34,0-.62-.17-.92-.95-.37-.94-.41-1.05-.62-1.46-.77.21-7.79,1.68-8.55,1.78-.24.3-.47.49-.67.49-.09,0-.26-.06-.32-.26l-.54-1.57c.56.04,1.07.06,1.35.06.6,0,3.41-.21,4.21-.28-.02-.49,0-2.71,0-3.16h-2.75c.02.37.06.84-.86.84-.13,0-.37-.02-.37-.24,0-.32.06-.82.06-1.12.04-1.25.04-2.73.04-3.26,0-1.16-.02-1.37-.09-1.87l1.33.79h2.6c-.04-1.03-.09-1.52-.26-2.43l1.72.32c.15.04.28.11.28.3,0,.13-.06.17-.56.56-.04.28-.04.32-.04.58v.67h3.03l.45-.45c.21-.21.21-.24.26-.24.09,0,.19.09.3.17l.69.52c.09.04.24.17.24.3,0,.21-.21.32-.67.58,0,.64.04,2.64.04,3.39,0,.09.04.49.04.58,0,.39-.43.62-.86.62s-.39-.39-.37-.62h-3.2v3.05l3.31-.32c-.24-.41-.49-.79-1.03-1.5l.06-.15c.84.45,3.31,1.78,3.31,3.46,0,.3-.17.79-.67.79Zm-.56-12.11c-.43,0-.54-.26-.79-.75-.17-.34-.49-1.03-.52-1.07-5.09,1.01-5.58,1.1-6.91,1.27-.34.49-.37.56-.56.56-.15,0-.19-.04-.32-.39l-.54-1.5c.6.09,1.25.17,2.6.11.69-1.87,1.22-3.99,1.22-4.66,0-.11,0-.15-.02-.34l1.87.56c.21.06.28.11.28.36,0,.28-.52.41-.75.45-1.16,1.98-1.7,2.81-2.3,3.63,1.4-.06,1.78-.09,5.24-.36-.75-1.22-1.25-1.63-1.63-1.91l.09-.17c.56.24,1.76.71,2.6,1.46,1.14,1.01,1.22,1.8,1.22,1.97,0,.43-.34.79-.77.79Zm-5.5,2.45h-2.77v3.82h2.77v-3.82Zm4.29,0h-3.2c-.02,2.06-.02,2.3-.02,3.82h3.22v-3.82Z"/>
      <path d="m448.21,86.85c.47.11,1.12.24,1.31.24.21,0,1.05-.26,1.22-.26.34,0,.67.19.67.54,0,.3-.19.47-.37.64-1.42,1.18-2.77,1.7-3.69,2.04,1.25,1.14,3.22,3.29,4.23,4.49.58.71.9,1.09.9,1.57s-.32,1.4-.75,1.4c-.13,0-.19-.02-.73-.32-1.46-.77-3.41-1.31-5.17-1.31-2.71,0-4.53,1.09-4.53,2.68,0,1.87,2.1,2.62,3.11,2.79,1.07.17,2.06.19,2.4.19.15,0,.88-.06,1.03-.06.3,0,1.72,0,1.72.84,0,.56-.9.56-1.03.56-2.43,0-3.65-.28-4.44-.49-2.9-.75-3.44-2.13-3.44-3.52,0-3.69,4.59-3.69,5.5-3.69.97,0,2.3.15,3.35.32.19.04,1.22.26,1.27.26.11,0,.15-.04.15-.15,0-.45-2.15-3.33-4.32-5.26-2.17.75-3.97,1.09-4.9,1.09-.64,0-2.08-.28-2.64-1.61.75.39,1.35.67,2.3.67,1.76,0,3.76-.67,4.36-.88-1.72-1.35-1.83-1.44-2.34-1.8-.84-.6-.84-1.05-.84-1.27,0-.54.49-1.22,1.2-1.22.13,0,.71,0,1.35.47-.67.09-.73.09-.86.17-.15.09-.24.26-.24.51,0,.56,1.89,2.25,2.56,2.83.52-.19,1.29-.49,2.15-1.05.28-.17.28-.34.28-.43,0-.36-.3-.58-.79-.86l.02-.11Z"/>
      <path d="m465.04,103.66h-7.09v-.86h6.23v-18.68h.86v19.54Z"/>
      <path d="m487.84,85.77c0-.47-.39-.64-1.31-.99.17-.17.37-.3.88-.3,1.05,0,1.91.69,1.91,1.16,0,.11,0,.26-.3.69-.17.26-1.01,1.48-1.18,1.72.54-.13,1.09-.28,2.49-.86.09-.04.39-.15.58-.15.32,0,1.09.17,1.09.62,0,.34-.34.47-.84.6-1.48.36-2.28.52-4.04.84-.9,1.27-1.89,2.68-2.53,3.91.49-.3,1.14-.71,2.15-.71,1.98,0,2.38,1.42,2.64,2.25,1.03-.58,2.17-1.2,4.62-2.32.28-.13.45-.26.45-.56,0-.28-.26-.49-.6-.77.17-.04.24-.04.34-.04.45,0,2.13.54,2.13,1.67,0,.45-.24.47-1.07.6-1.14.15-4.06,1.37-5.69,2.17.11.56.26,1.44.26,2.68,0,.21,0,1.76-.71,1.76-.6,0-.62-.9-.62-1.16,0-.09.06-1.42.06-1.7,0-.06,0-.52-.06-1.01-1.65,1.07-3.22,2.79-3.22,3.99,0,1.59,2.66,1.63,3.41,1.63,1.14,0,2.38-.19,3.33-.39.37-.06.49-.09.69-.09.67,0,1.25.34,1.25.75,0,.13-.09.43-.6.54-.54.11-1.76.21-3.13.21-3.26,0-4.04-.36-4.7-.82-.45-.3-1.03-.95-1.03-1.74,0-.3.15-1.2.75-2,.64-.82,1.59-1.78,3.16-2.83-.24-1.27-.6-2.21-1.98-2.21-1.27,0-2.3,1.01-2.79,1.7-.84,1.2-.94,1.35-1.22,1.35-.52,0-.54-.62-.54-.77,0-.49.17-.62.49-.86,1.07-.77,2.62-3.29,3.69-5.07-1.22.21-1.61.3-2.25.3-1.72,0-1.91-1.16-2-1.7.69.49,1.18.73,2.04.73.92,0,2-.15,2.77-.3.3-.54,1.25-2.19,1.25-2.56Z"/>
      <path d="m511.43,92.73c1.74,1.07,4.64,2.88,4.64,6.12s-3.16,4.12-4.68,4.12c-1.42,0-2.75-.58-3.54-1.5-.6-.73-.77-1.87-.77-2.79,0-.64.11-1.44.24-2.13-1.37-.6-2.77-1.48-2.77-2.73,0-.92.49-1.31,2.3-2.73.17-.13.21-.21.21-.34,0-.09-.02-.19-.21-.32-1.57-1.03-1.74-1.16-1.95-1.52-.19-.32-.24-.6-.24-.97,1.03,1.16,2.92,1.76,3.97,2,.58-2.53.67-3.71.67-3.86,0-.82-.71-1.37-1.16-1.72.17-.04.34-.11.62-.11,1.1,0,2.17,1.14,2.17,1.76,0,.19-.02.3-.37,1.07-.24.58-.58,1.37-1.03,3.09.58.3.58.75.58.84,0,.43-.28.41-.9.36-.11.47-.6,2.47-.94,4.38.56.11,1.09.17,1.65.17.79.02,1.42.54,1.42.97,0,.3-.24.39-.97.39-1.05,0-1.89-.3-2.3-.43-.04.32-.11.77-.11,1.46,0,.77.09,1.68.58,2.36.62.9,1.74,1.35,2.81,1.35,2.23,0,3.41-1.72,3.41-3.33s-1.29-4.21-3.44-5.84l.11-.13Zm-4.36-1.18c-.88.52-1.72,1.48-1.72,2.3,0,.99,1.14,1.46,2.1,1.74.37-2.34.67-3.59.84-4.25-.54-.02-.79-.04-1.22.21Z"/>
      <path d="m528,101.19c1.93-.09,5.32-.73,6.96-1.74,1.44-.88,2.23-2.23,2.23-3.54,0-1.74-1.5-3.16-3.61-3.16-2.23,0-5.15,1.55-7.17,3.29-.56.47-.62.54-.75.54-.34,0-1.37-.71-1.37-1.65,0-.21.02-.34.13-.58.28.3.64.69,1.05.69.3,0,.54-.11,1.18-.49,2.1-1.27,4.36-2.34,6.83-2.34,3.29,0,4.81,1.85,4.81,3.91,0,2.98-3.13,5.58-10.28,5.37v-.28Z"/>
      <path d="m550.93,86.52c0-.77-.52-1.01-1.14-1.33.19-.09.32-.17.64-.17,1.67,0,2.02,1.22,2.02,1.63,0,.11-.15.36-.34.67-.39.67-.75,1.57-.92,2.04,1.07-.41,1.55-.69,1.93-.9.19-.13.82-.49,1.18-.49.26,0,.71.17.71.56,0,.13,0,.26-.45.49-1.16.64-2.32.99-3.78,1.4-.04.13-.09.24-.21.58-2.04,5.71-4.14,10.24-4.38,10.69-.06.15-.21.39-.58.39-.39,0-.56-.56-.56-.92,0-.39.04-.43.69-1.37.9-1.31,1.25-2.19,3.91-8.76.09-.24.09-.26.13-.34-.92.21-2.21.39-2.92.39-.77,0-1.72-.47-2.08-1.14.41.11,1.12.28,2.19.28s2.13-.19,3.16-.47c.19-.58.82-2.51.82-3.2Zm6.38,14.43c1.22,0,2.15-.13,2.4-.17.43-.06.56-.08.71-.08.67,0,1.03.45,1.03.84,0,.26-.21.39-.43.43-.39.09-1.27.17-2.4.17-1.27,0-3.5-.09-4.7-.75-.88-.47-1.55-1.31-1.55-2.3,0-.67.24-1.14.41-1.46.13,1.93.39,3.33,4.53,3.33Zm-.26-7.24c1.35-1.14,1.8-1.5,1.8-1.78,0-.43-.99-.62-1.93-.62-.67,0-1.2.06-1.61.09.86-.6,1.93-.86,2.98-.86,2.17,0,3.24,1.01,3.24,1.72,0,.3-.19.41-.49.41-.11,0-.6-.04-.69-.04-.06,0-1.83.32-3.18,1.2l-.13-.11Z"/>
      <path d="m582.17,86.03s-.45.32-.67.49c0,.41,0,.94.04,1.93,0,.06.02.19.02.26,0,.49-.54.69-.86.69s-.32-.24-.34-.45h-12.07c-.06,5.45-.09,6.61-.45,8.29-.47,2.25-1.55,4.7-3.29,6.33l-.11-.11c2.49-4.49,2.6-7.45,2.6-12.56,0-2.08,0-4.38-.21-6.23l1.87.77h11.32l.47-.47c.17-.17.26-.26.41-.26.11,0,.19.06.32.15l.77.62c.21.17.26.19.26.32,0,.09-.04.15-.09.21Zm1.59,16.83h-13.01c-.75,0-1.95.11-2.77.26l-.49-.92c1.61.13,3.16.15,3.56.15h3.82c0-.47.02-2.66.02-3.11h-2.3c-.77,0-1.95.09-2.77.26l-.52-.92c1.61.13,3.18.15,3.59.15h2c0-1.55,0-1.93-.28-2.75l1.63.47c.34.11.43.13.43.26,0,.15-.06.19-.62.67-.02.43-.02.52-.02,1.35h3.74l.62-.82c.21-.28.28-.28.32-.28.13,0,.37.19.41.21l1.07.84c.11.09.21.19.21.34,0,.19-.19.21-.32.21h-6.05v3.11h5.02l.92-1.01c.13-.15.24-.28.37-.28.06,0,.13,0,.39.24l1.14,1.01c.13.11.21.19.21.34,0,.19-.17.21-.32.21Zm-3.39-16.9h-12.05c0,.45,0,.67-.02,2.47h12.07v-2.47Zm2.88,5.56h-8.37c-.21.39-.9,1.27-1.29,1.78-.17.21-.97,1.31-1.14,1.55,1.4-.11,1.93-.15,6.66-.58-.6-.6-.94-.92-1.85-1.63l.09-.13c1.14.24,4.6,1.68,4.6,3.22,0,.28-.09.64-.54.64-.28,0-.45-.13-.67-.32-.19-.19-1.14-1.27-1.35-1.5-.71.15-4.12.84-4.9.99-.92.17-3.35.62-4.08.79-.3.41-.34.45-.49.45s-.19-.09-.24-.24l-.58-1.74c.37.06.62.13,1.44.13.62,0,.9-.02,1.33-.04.84-2.06,1.01-2.47,1.31-3.37h-1.05c-.43,0-1.72.04-2.75.26l-.52-.95c1.12.11,2.45.17,3.56.17h8.29l.71-.9c.17-.21.26-.3.34-.3.11,0,.3.15.41.24l1.18.92c.09.06.21.19.21.32,0,.24-.24.24-.32.24Z"/>
      <path d="m594.34,89.34h-3.24l-.02,2.23c.41.15,2.79,1.63,2.79,2.98,0,.28-.13.82-.6.82s-.62-.43-.73-.9c-.28-1.4-1.22-2.45-1.46-2.66-.02,2.58-.06,7.3.11,10.35,0,.13.02.37.02.6,0,.9-.64.99-.9.99-.52,0-.52-.39-.52-.54,0-.13.04-.69.04-.82.04-1.27.32-9.1.32-9.81v-.64c-.79,2.47-2.58,5.6-4.29,6.81l-.06-.08c1.93-2.41,3.69-7.67,4.1-9.32-1.14,0-2.23.11-2.9.24l-.52-.92c1.5.13,3.01.17,3.67.17-.09-3.56-.3-4.08-.58-4.77l1.87.58c.26.09.39.15.39.36,0,.24-.11.39-.71.64,0,.49-.02,2.94-.02,3.18h1.35l.49-.64c.09-.11.19-.26.32-.26.11,0,.32.15.41.21l.77.64c.11.09.21.17.21.32,0,.19-.17.24-.32.24Zm10.28,13.85c-.69-.34-2.73-1.35-4.42-4.12-1.01.86-5.07,2.81-5.63,3.03-.15.41-.32.86-.54.86-.04,0-.19-.04-.3-.21l-1.01-1.59c.19.02.32.02.52.02.56,0,.75-.04,2.15-.51.02-.77.06-8.2.06-9.15,0-1.14,0-4.68-.11-5.65-.04-.39-.11-.69-.17-.94l1.72.86h5.07l.56-.47c.06-.04.19-.15.3-.15s.28.11.32.13l.9.62c.15.11.24.17.24.28,0,.19-.17.32-.86.82-.02.49-.04,1.18,0,2.92.02.52.15,2.75.15,3.22,0,.64-.58.82-.84.82-.54,0-.49-.36-.47-.77h-3.59c.26,1.4.45,2.4,1.29,3.95.41-.21,3.35-1.91,3.86-3.05l1.18,1.18c.17.17.19.26.19.36,0,.13-.09.3-.34.3-.13,0-.17,0-.67-.15-1.25.71-3.37,1.44-4.06,1.63,1.14,1.95,3.35,3.67,6.42,4.49v.11c-.45.09-1.29.36-1.93,1.18Zm-2.36-16.9h-5.67v2.92h5.67v-2.92Zm0,3.43h-5.67v2.94h5.67v-2.94Zm-3.97,3.46h-1.7c0,.52.02,6.27.02,7.06.04-.02.09-.02.13-.04,1.29-.45,2.32-.79,3.37-1.27-1.31-2.3-1.7-4.27-1.83-5.75Z"/>
      <path d="m616.86,89.96h-3.65c-.02.49-.02,1.89-.02,1.93,1.2.36,3.71,1.27,3.71,2.64,0,.45-.34.67-.62.67-.41,0-.45-.11-1.12-1.14-.56-.88-1.05-1.33-1.98-1.98,0,1.7.02,6.53.04,8.2,0,.39.04,2.08.04,2.43,0,.41-.15.94-.86.94-.49,0-.49-.36-.49-.45,0-.17.09-.9.09-.99.04-1.25.04-3.01.09-5.22,0-.56.04-3.67.04-4.06-.77,1.78-2.83,5.45-4.68,6.66l-.13-.15c2.15-2.3,4.49-8.01,4.77-9.49h-.92c-.67,0-1.89.06-2.77.24l-.49-.92c1.18.11,2.36.17,3.56.17h.71c-.06-3.37-.17-3.99-.56-5.28l1.89.51c.43.11.52.21.52.39,0,.26-.52.49-.75.62-.02.11-.06,2.92-.06,3.76h1.59l.64-.73c.15-.17.24-.26.34-.26s.32.15.39.21l.82.73c.09.09.19.19.19.32,0,.21-.17.24-.32.24Zm10.24,0h-4.02c.04,2.23.09,4.47.15,6.7.02.73.11,3.93.11,4.38,0,1.55-.56,2.28-2.47,2.66-.09-.39-.17-.58-.58-.97-.6-.54-.9-.69-1.12-.77v-.15c.49.06,1.91.13,2.04.13.45,0,.69,0,.77-.39.06-.3.06-2.77.06-3.29,0-.86,0-1.35-.06-5.84-1.29,2.96-4.36,6.87-7.09,8.31l-.11-.13c3.54-3.37,6.48-8.72,7.02-10.65h-.54c-.67,0-1.89.09-2.77.26l-.49-.92c1.18.09,2.36.15,3.56.15h.37c-.02-.54-.04-3.2-.04-3.48-.04-.99-.19-1.33-.32-1.65l1.89.39c.19.04.34.06.34.28,0,.17-.06.24-.77.79,0,.41.04,3.54.04,3.67h1.93l.6-.82c.06-.11.19-.28.34-.28.13,0,.28.13.37.21l.9.84c.13.11.19.21.19.32,0,.24-.24.24-.32.24Z"/>
      <path d="m629.95,99.99c0-1.74,1.4-3.14,3.11-3.14s3.13,1.4,3.13,3.14-1.44,3.11-3.13,3.11-3.11-1.42-3.11-3.11Zm5.65,0c0-1.4-1.14-2.53-2.53-2.53s-2.53,1.16-2.53,2.53,1.09,2.53,2.53,2.53,2.53-1.12,2.53-2.53Z"/>
      <g>
        <path class="cls-3" d="m61.22,55.49l-.69,2.21c-.7,2.25-1.87,4.16-3.49,5.73-1.36,1.32-3.23,2.56-5.61,3.72,3.41,1.75,5.18,3.92,5.31,6.53.05,1.06-.12,2.24-.51,3.53l-.76,2.46h-9.63l.63-1.97c.31-.99.44-1.93.4-2.82-.08-1.58-.67-2.84-1.78-3.79-1.11-.95-2.62-1.43-4.52-1.43h-9.84l-3.04,10h-9.54l7.37-24.18h9.55l-3.03,9.95h8.62c1.55,0,3.16-.43,4.85-1.29,2.7-1.37,4.5-3.52,5.4-6.47l.68-2.19h9.64Z"/>
        <path class="cls-3" d="m159.97,55.5l-1.28,4.23h-17.93c-2.08,0-4.1.41-5.86,1.49-1.76,1.08-3.14,2.57-3.86,4.33h25.88l-1.28,4.09h-25.81c.04,1.88.67,3.32,1.88,4.33,1.14.96,2.63,1.46,4.49,1.48h17.62l-1.28,4.23h-18.92c-3.58,0-6.63-.63-9.15-1.9-2.99-1.52-4.56-3.69-4.69-6.51-.05-1.04.11-2.16.48-3.35,1.55-5.11,5.35-8.84,11.7-10.92,3.27-1.09,6.47-1.49,9.32-1.49h18.69Z"/>
        <path class="cls-3" d="m102.25,60.91c-1.12-.96-2.28-1.15-4.19-1.21l-6.19,19.97h-9.52l6.19-20.01h-7.58l-6.22,20.01h-9.53l7.47-24.17h26.78c3.58,0,6.46.43,8.99,1.75,2.97,1.55,4.69,3.97,4.83,6.81.05,1.07-.11,2.22-.48,3.47l-3.85,12.15h-9.4l3.74-12.01c1.03-3.26.59-5.35-1.04-6.76"/>
        <path class="cls-3" d="m176.58,74.27c1.12.96,2.28,1.15,4.18,1.21l6.19-19.97h9.52l-6.19,20.01h7.58l6.22-20.01h9.52l-7.47,24.17h-26.77c-3.57,0-6.46-.43-8.99-1.75-2.97-1.54-4.69-3.97-4.82-6.81-.05-1.07.11-2.22.48-3.46l3.86-12.16h9.4l-3.74,12.02c-1.03,3.25-.59,5.35,1.04,6.75"/>
      </g>
    </g>
  </g>
</svg>