<?xml version="1.0" encoding="utf-8"?>
<!-- Generator: Adobe Illustrator 27.5.0, SVG Export Plug-In . SVG Version: 6.00 Build 0)  -->
<svg version="1.1" id="_レイヤー_2" xmlns="http://www.w3.org/2000/svg" xmlns:xlink="http://www.w3.org/1999/xlink" x="0px"
	 y="0px" viewBox="0 0 630 527" style="enable-background:new 0 0 630 527;" xml:space="preserve">
<style type="text/css">
	.st0{fill:#040000;}
	.st1{font-family:'Garamond';}
	.st2{font-size:21.81px;}
	.st3{fill:#231815;}
	.st4{fill:none;stroke:#000000;stroke-width:0.41;stroke-miterlimit:10;}
	.st5{fill:#FFFFFF;}
	.st6{fill:none;}
	.st7{fill:#666666;}
</style>
<g id="_レイヤー_2-2">
	<g>
		<g>
			<path class="st0" d="M450.4,458.3l-0.3-0.3l3.3-3.2l-3.3-3.2l0.3-0.3l3.2,3.3l3.2-3.3l0.3,0.3l-3.3,3.2l3.3,3.2l-0.3,0.3
				l-3.2-3.3L450.4,458.3z M451.8,454.7c0,0.5-0.4,0.8-0.8,0.8s-0.8-0.4-0.8-0.8s0.4-0.8,0.8-0.8S451.8,454.3,451.8,454.7z
				 M454.5,452c0,0.4-0.4,0.8-0.8,0.8s-0.8-0.4-0.8-0.8s0.4-0.8,0.8-0.8S454.5,451.5,454.5,452z M454.5,457.4c0,0.5-0.4,0.8-0.8,0.8
				s-0.8-0.4-0.8-0.8s0.4-0.8,0.8-0.8S454.5,457,454.5,457.4z M457.2,454.7c0,0.5-0.4,0.8-0.8,0.8s-0.8-0.4-0.8-0.8s0.4-0.8,0.8-0.8
				S457.2,454.3,457.2,454.7z"/>
			<path class="st0" d="M469.6,459.1c-0.7-0.2-1.4-0.5-1.6-0.6c-0.9-0.5-1.6-1.2-2.2-2.2h-0.2c-0.5,1.4-1.7,2.5-4,2.9l0-0.1
				c1.9-0.5,3.1-1.9,3.5-2.8h-2.2c-0.4,0-0.9,0-1.3,0.1l-0.2-0.4c0.7,0.1,1.5,0.1,1.7,0.1h2.1c0.1-0.3,0.2-0.6,0.2-1.1h-1
				c-0.4,0-0.9,0-1.3,0.1l-0.2-0.4c0.8,0.1,1.5,0.1,1.7,0.1h0.9c0-0.2,0-0.5,0-1.1h-1.3c-0.4,0-0.9,0-1.3,0.1l-0.2-0.4
				c0.7,0.1,1.5,0.1,1.7,0.1h1.1c0-0.7,0-1.1-0.1-1.4l0.9,0.2c0,0,0.1,0,0.1,0.1c0,0.1-0.1,0.2-0.3,0.3c0,0.1,0,0.2,0,0.7h1.6
				l0.3-0.4c0.1-0.1,0.1-0.1,0.2-0.1c0.1,0,0.1,0.1,0.2,0.1l0.4,0.4c0,0,0.1,0.1,0.1,0.2c0,0.1-0.1,0.1-0.1,0.1H466l0,1.1h1.5
				l0.3-0.3c0.1-0.1,0.1-0.1,0.1-0.1c0.1,0,0.1,0.1,0.2,0.1l0.4,0.3c0,0,0.1,0.1,0.1,0.1c0,0.1-0.1,0.1-0.1,0.1h-2.5
				c0,0.5-0.1,0.9-0.2,1.1h3.1l0.4-0.4c0.1-0.1,0.1-0.1,0.2-0.1c0,0,0.1,0,0.2,0.1l0.5,0.4c0,0,0.1,0.1,0.1,0.2
				c0,0.1-0.1,0.1-0.1,0.1h-4c1.6,2,3.7,1.9,4.5,1.9v0.1C470,458.5,469.9,458.6,469.6,459.1L469.6,459.1z M469.8,451.9
				c-0.1,0-0.1,0-0.4,0c-0.2,0.1-1,0.5-1.2,0.6l-0.1,0c0.2-0.2,0.5-0.6,0.5-0.8h-6.2c0,0.8-0.2,1.7-0.8,1.7c-0.1,0-0.3-0.1-0.3-0.3
				c0-0.2,0-0.2,0.5-0.7c0.3-0.3,0.5-0.7,0.5-1.3h0.1c0,0.1,0,0.2,0.1,0.4h2.9c0-0.8-0.1-0.9-0.2-1.3l0.9,0.2c0.1,0,0.1,0,0.1,0.1
				c0,0.1-0.1,0.2-0.3,0.3v0.6h2.6l0.5-0.4c0.1-0.1,0.1-0.1,0.2-0.1c0.1,0,0.1,0,0.2,0.1l0.6,0.5c0,0,0.1,0.1,0.1,0.2
				C470.1,451.9,469.9,451.9,469.8,451.9L469.8,451.9z"/>
			<path class="st0" d="M474.1,454.2c-0.2,0-0.2-0.1-0.4-0.3c-0.1-0.3-0.3-0.6-0.6-0.9l0-0.1c0.5,0.1,0.8,0.3,1,0.4
				c0.1,0.1,0.3,0.2,0.3,0.5C474.5,454.1,474.3,454.2,474.1,454.2L474.1,454.2z M475,454.7c0,0.1-0.5,1.5-0.5,1.9c0,0.1,0,0.3,0,0.4
				c0,0.2,0.1,0.6,0.1,0.8c0.1,0.2,0.1,0.5,0.1,0.8c0,0.1,0,0.5-0.4,0.5c-0.3,0-0.4-0.3-0.4-0.5c0-0.2,0-0.9,0-1c0-0.3,0-0.9-0.6-1
				v-0.1c0.3,0,0.5-0.2,0.6-0.3c0.2-0.3,1.2-2.8,1.5-3.5h0.1C475.4,453.4,475.2,454,475,454.7L475,454.7z M474.9,451.9
				c-0.2,0-0.2-0.1-0.4-0.4c-0.2-0.6-0.4-0.8-0.6-1l0-0.1c0.9,0.4,1.2,0.6,1.2,1C475.2,451.8,475,451.9,474.9,451.9L474.9,451.9z
				 M477.3,457.5c0,0,0.1,0.1,0.1,0.1c0,0.1-0.1,0.2-0.4,0.2c-0.5,0.6-1.2,1.1-1.9,1.5l0-0.1c0.5-0.4,0.9-1,1.1-1.2
				c0.3-0.5,0.4-0.7,0.4-0.9L477.3,457.5L477.3,457.5z M478.5,451.4c0,0.2,0,4.4,0,5.2c0,0,0,0.1,0,0.2c0,0.2-0.3,0.2-0.4,0.2
				c-0.2,0-0.2,0-0.2-0.2h-1.4c0,0.2-0.2,0.3-0.4,0.3c-0.2,0-0.2-0.1-0.2-0.2c0,0,0-0.3,0-0.3c0-1.4,0-2.3,0-2.8c0-0.5,0-2.2,0-2.8
				c0-0.2,0-0.3-0.1-0.4l0.7,0.3h1.1l0.2-0.2c0.1-0.1,0.1-0.1,0.1-0.1s0.1,0,0.1,0l0.4,0.3c0,0,0.1,0.1,0.1,0.1
				C478.8,451.1,478.6,451.3,478.5,451.4L478.5,451.4z M478,451.1h-1.4v1.6h1.4V451.1z M478,453h-1.4v1.6h1.4V453z M478,454.8h-1.4
				v1.6h1.4V454.8z M478.6,458.8c-0.2,0-0.2-0.1-0.3-0.4c-0.2-0.6-0.5-1-0.7-1.2l0-0.1c0.5,0.2,1.3,0.7,1.3,1.2
				C479,458.8,478.8,458.8,478.6,458.8L478.6,458.8z M480.1,451.8c0,0.2,0,2.8,0,4.4c0,0.1,0,0.6,0,0.7c0,0.3-0.4,0.4-0.4,0.4
				c-0.1,0-0.2,0-0.2-0.2c0-0.3,0-3.3,0-3.9c0-1,0-1.6-0.1-2l0.9,0.3c0,0,0.1,0,0.1,0.1C480.4,451.5,480.4,451.7,480.1,451.8
				L480.1,451.8z M481.6,451v3.5c0,1.3,0,2.5,0,2.8c0,1,0,1.3-0.3,1.5c-0.3,0.2-0.6,0.3-0.9,0.4c0-0.3-0.3-0.6-0.7-0.9v-0.1
				c0.1,0,0.9,0,0.9,0c0.3,0,0.4,0,0.4-0.2c0-3.2,0-4.8,0-6.9c0-0.5-0.1-0.7-0.2-0.9l1,0.3c0.1,0,0.1,0,0.1,0.1
				C482,450.9,481.7,451,481.6,451L481.6,451z"/>
			<path class="st0" d="M493.7,451.3c0,0.6,0,4.4,0.1,6c0,0.2,0,1,0,1.2c0,0.3-0.3,0.4-0.4,0.4c-0.2,0-0.2-0.1-0.2-0.4h-6.6
				c0,0.3,0,0.6-0.5,0.6c-0.2,0-0.2-0.1-0.2-0.2c0-0.2,0-1.2,0-1.5c0-2.5,0-3,0-3.8c0-1.1,0-2.2-0.1-3.4l0.7,0.4h6.4l0.2-0.2
				c0,0,0.1-0.1,0.1-0.1c0,0,0.1,0,0.1,0.1l0.4,0.3c0.1,0,0.1,0,0.1,0.1C494.1,451.1,494,451.1,493.7,451.3L493.7,451.3z M493.2,451
				h-6.6v7.3h6.6V451z M492,452.3c-0.6,1.7-1.2,2.6-1.6,3.2c0.6,0.3,2,1,2,1.6c0,0.2-0.1,0.4-0.3,0.4c-0.1,0-0.1,0-0.3-0.2
				c-0.4-0.5-0.9-0.9-1.6-1.4c-0.7,0.9-1.6,1.6-2.6,2v-0.1c1.3-1,1.9-1.8,2.3-2.2c-1-0.6-1.7-0.8-2.2-0.9v-0.1
				c1,0.1,1.8,0.3,2.5,0.6c1-1.3,1.5-3.2,1.5-3.6c0,0,0-0.1,0-0.2l0.8,0.3c0.1,0,0.1,0,0.1,0.1C492.4,452.2,492.1,452.3,492,452.3
				L492,452.3z M488.4,454.1c-0.3,0-0.3-0.2-0.4-0.7c-0.1-0.3-0.2-0.8-0.5-1.2l0-0.1c0.7,0.4,1.2,1.3,1.2,1.6
				C488.7,453.9,488.6,454.1,488.4,454.1L488.4,454.1z M489.9,453.6c-0.2,0-0.3-0.1-0.4-0.6c-0.1-0.5-0.5-1-0.6-1.2l0,0
				c0.7,0.3,1.3,0.9,1.3,1.5C490.2,453.3,490.2,453.6,489.9,453.6L489.9,453.6z"/>
			<path class="st0" d="M498.6,452.6c0.3,0,0.5-0.1,1.7-0.4c1.5-0.4,4.5-1,4.6-1c0.2,0,0.7,0.2,0.7,0.5c0,0.2-0.2,0.3-0.4,0.3
				c-0.1,0-0.5,0-0.6,0c-1.1,0-1.7,0.3-2.2,0.8c-1,0.9-1.4,2-1.4,2.7c0,1.8,1.8,2.2,2.5,2.4c0.3,0,0.4,0.1,0.6,0.2
				c0.1,0.1,0.1,0.2,0.1,0.3c0,0.2-0.1,0.2-0.2,0.2c-1,0-3.4-0.8-3.4-3c0-1.7,1.3-2.8,2.3-3.6c-0.6,0.2-1.4,0.4-2,0.5
				c-1.3,0.3-1.6,0.5-2.1,0.8c-0.1,0-0.2,0.1-0.3,0.1c-0.2,0-0.7-0.3-0.7-0.9c0-0.1,0-0.2,0.1-0.3
				C498.2,452.5,498.3,452.6,498.6,452.6L498.6,452.6z M504.3,453.2c0.7,0.4,0.8,0.7,0.8,0.9c0,0.1,0,0.3-0.2,0.3
				c-0.1,0-0.2-0.1-0.2-0.2c-0.3-0.6-1-1.1-1.2-1.3C503.7,452.9,504,453.1,504.3,453.2L504.3,453.2z M506.2,453.7
				c0,0.2-0.1,0.3-0.2,0.3c-0.1,0-0.2-0.1-0.3-0.2c-0.3-0.5-0.8-0.8-1.3-1.2C505.1,452.6,506.2,453.1,506.2,453.7L506.2,453.7z"/>
			<path class="st0" d="M511.8,454.8c-0.1,0.5-0.4,2-0.5,2.3c0,0.1,0,0.4,0,0.5c0,0.1,0,0.5,0,0.6c0,0.1-0.1,0.2-0.2,0.2
				c-0.6,0-0.8-1.9-0.8-2.5c0-1,0.3-2.6,0.5-3.5c0.1-0.4,0.1-0.5,0.1-0.6c0-0.5-0.2-0.6-0.4-0.8c0.1,0,0.1,0,0.2,0
				c0.5,0,0.9,0.6,0.9,0.8c0,0.1,0,0.1-0.2,0.5c-0.4,1-0.7,2.1-0.7,3.2c0,0.6,0.1,1.3,0.1,1.3c0,0,0,0,0,0c0.1,0,0.1-0.1,0.1-0.2
				c0.3-1,0.4-1.1,0.7-2c0,0,0-0.1,0-0.1L511.8,454.8L511.8,454.8z M515.6,451.6c0-0.5-0.2-0.6-0.7-0.7c0.1-0.1,0.3-0.2,0.6-0.2
				s0.6,0.2,0.6,0.3c0.1,0.1,0.1,0.1,0.1,0.2c0,0.1-0.1,0.4-0.1,0.4c-0.1,0.4-0.1,0.8-0.1,1.4c0.2,0,1.1-0.3,1.3-0.3
				c0.1,0,0.5,0.1,0.5,0.3s-0.2,0.2-0.2,0.2c-0.6,0.1-1.5,0.2-1.5,0.2c0,1.1,0,2.3,0.2,3.2c1,0.5,1.1,0.5,1.3,0.6
				c0.2,0.1,0.4,0.4,0.4,0.6c0,0.1-0.1,0.3-0.2,0.3c-0.1,0-0.2,0-0.3-0.2c-0.4-0.3-1-0.6-1.2-0.7c-0.2,0.7-0.6,1.1-1.6,1.1
				c-0.9,0-1.6-0.5-1.6-1c0-0.4,0.3-0.6,0.6-0.8c0.3-0.2,0.8-0.2,1-0.2c0.5,0,0.8,0,1.1,0.1c0-0.3-0.1-2.5-0.1-3
				c-0.2,0-0.6,0.1-0.9,0.1c-0.5,0-1-0.1-1.4-0.4c-0.2-0.1-0.2-0.2-0.3-0.3c0.4,0.2,0.8,0.3,1.5,0.3c0.2,0,0.6,0,1.1-0.1
				C515.6,452.8,515.6,451.8,515.6,451.6L515.6,451.6z M514.6,456.8c-0.4,0-1.2,0.1-1.2,0.5c0,0.3,0.5,0.6,1.1,0.6
				c1,0,1.2-0.7,1.2-0.9C515.2,456.8,514.9,456.8,514.6,456.8z"/>
			<path class="st0" d="M523.1,455.7c0,0.7,0.4,1.1,0.7,1.4c0.4,0.3,1.1,0.4,1.8,0.4c0.4,0,1.6,0,2.7-0.4c0.2-0.1,0.2-0.1,0.3-0.1
				c0.2,0,0.6,0.1,0.6,0.4c0,0.1-0.1,0.2-0.2,0.3c-0.6,0.3-2.8,0.4-3.1,0.4c-0.5,0-3.2,0-3.2-1.9c0-0.3,0.1-0.8,0.4-1
				C523.1,455.4,523.1,455.5,523.1,455.7L523.1,455.7z M524.9,453.3c0.2-0.1,1-0.8,1.2-0.9c0,0,0.1-0.1,0.1-0.1s0-0.1-0.2-0.1
				c-1,0-1.6-0.3-1.9-0.5c-0.4-0.3-0.4-0.5-0.5-0.6c0.5,0.4,1.3,0.6,2.6,0.6c0.1,0,0.6,0,0.7,0c0.4,0,1.2,0.1,1.2,0.5
				c0,0.2-0.2,0.2-0.5,0.2c-0.4,0-0.7,0-1.2,0.2C526.1,452.8,525.1,453.3,524.9,453.3L524.9,453.3L524.9,453.3z M529.7,452
				c0,0.1,0,0.3-0.2,0.3c-0.1,0-0.2-0.1-0.3-0.2c-0.4-0.5-0.8-0.9-1.3-1.1C529.4,451.1,529.7,451.8,529.7,452z M530,450.7
				c0.6,0.2,0.8,0.4,0.8,0.8c0,0.1,0,0.3-0.2,0.3c-0.1,0-0.2-0.1-0.2-0.2c-0.4-0.5-0.6-0.8-1.4-1.1
				C529.3,450.5,529.7,450.6,530,450.7L530,450.7z"/>
			<path class="st0" d="M539.1,451.5c0.3,0.1,0.5,0.1,0.5,0.1c0.1,0,0.2,0,0.5-0.1c0.1,0,0.1,0,0.2,0c0.2,0,0.3,0.1,0.3,0.3
				c0,0.1,0,0.2-0.2,0.3c-0.4,0.3-1,0.6-1.7,0.9c0.8,0.7,1.5,1.3,2.2,2.4c0,0.1,0.2,0.2,0.2,0.4c0,0.2-0.2,0.6-0.4,0.6
				c-0.1,0-0.4-0.2-0.5-0.2c-1-0.4-1.7-0.5-2.2-0.5c-1,0-2.1,0.3-2.1,1.2c0,1,1,1.4,2.7,1.4c0.1,0,0.6,0,0.7,0
				c0.1,0,0.5,0.1,0.5,0.4c0,0.3-0.5,0.3-0.8,0.3c-0.2,0-1.9-0.1-2.5-0.5c-0.5-0.3-0.8-0.8-0.8-1.3c0-0.8,0.6-1.8,2.6-1.8
				c0.6,0,1.1,0.1,1.6,0.1c0.1,0,0.5,0.1,0.6,0.1c0,0,0.1,0,0.1-0.1c0-0.2-1-1.5-2-2.4c-0.4,0.1-0.8,0.3-1.5,0.4
				c-0.3,0-0.6,0.1-0.9,0.1c-0.1,0-0.4,0-0.7-0.2c-0.3-0.2-0.4-0.4-0.4-0.5c0.3,0.2,0.8,0.3,1.1,0.3c0.6,0,1.4-0.2,2-0.4
				c-1.1-0.9-1.3-1-1.4-1.1c-0.1-0.1-0.1-0.2-0.1-0.3c0-0.2,0.2-0.6,0.6-0.6c0.2,0,0.5,0.1,0.6,0.2c-0.3,0-0.3,0-0.4,0
				c-0.1,0-0.1,0.1-0.1,0.3c0,0.2,0.1,0.3,1.2,1.3c0.4-0.1,1.1-0.4,1.1-0.7C539.4,451.7,539.1,451.6,539.1,451.5L539.1,451.5
				L539.1,451.5z M542.2,452c0,0.1,0,0.3-0.2,0.3c-0.1,0-0.1,0-0.2-0.2c-0.4-0.6-1-1-1.2-1.1C541.7,451,542.2,451.4,542.2,452
				L542.2,452z M542.5,450.3c0.2,0.1,0.5,0.3,0.5,0.6c0,0.2-0.2,0.3-0.2,0.3c-0.1,0-0.2-0.1-0.3-0.2c-0.5-0.5-1-0.8-1.3-1
				C541.6,450,542,450.1,542.5,450.3z"/>
			<path class="st0" d="M549.9,454.2c-0.1,0.3-1.2,2.5-1.2,2.6c0,0.1-0.1,0.2-0.1,0.4c0,0.1,0.1,0.4,0.1,0.5c0,0.1-0.1,0.2-0.2,0.2
				s-1.3-0.1-1.8-2.2c-0.1-0.4-0.1-0.5-0.2-2.1c-0.1-0.8-0.1-1.1-0.5-1.7c0.5,0,1.1,0.6,1.1,1c0,0.1,0,0.1-0.1,0.4
				c-0.1,0.3-0.1,0.6-0.1,0.9c0,0.6,0.1,2,0.8,2.5c0,0,0.1,0.1,0.2,0.1c0.1,0,0.2-0.1,0.2-0.1c0.7-1.2,0.8-1.3,1.5-2.3
				c0,0,0.1-0.1,0.1-0.1L549.9,454.2L549.9,454.2z M552.2,455.4c0.1,0,0.8-0.1,0.9-0.1c0.1,0,0.3,0,0.3-0.2c0-0.2-0.4-1.9-1.9-2.4
				c0,0,0.2-0.1,0.3-0.1c0.2,0,0.7,0.1,1.2,0.6c0.8,0.9,1.1,1.9,1.1,2.4c0,0.3-0.1,0.6-0.3,0.6c-0.1,0-0.1,0-0.3-0.2
				C553.1,455.6,552.9,455.6,552.2,455.4L552.2,455.4L552.2,455.4z"/>
			<path class="st0" d="M562.2,451.2c0-0.4-0.1-0.5-0.7-0.8c0.1-0.1,0.2-0.1,0.5-0.1c0.5,0,0.9,0.4,0.9,0.6c0,0,0,0.2-0.1,0.4
				s-0.1,0.4-0.1,0.7c0.7-0.1,1-0.3,1.6-0.5c0.1,0,0.2-0.1,0.2-0.1c0.2,0,0.5,0.2,0.5,0.3c0,0.1-0.1,0.2-0.2,0.2
				c-0.3,0.1-1.2,0.4-2.2,0.5c0,0.4,0,1,0,1.6c0.7-0.2,0.9-0.2,1.3-0.4c0,0,0.1,0,0.2,0c0.2,0,0.5,0.1,0.5,0.3
				c0,0.1-0.1,0.2-0.2,0.2c-0.2,0.1-1.1,0.2-1.8,0.4c0,0.4,0.1,1.8,0.1,2.3c1.1,0.3,2.1,0.8,2.1,1.2c0,0.2-0.1,0.3-0.2,0.3
				c-0.1,0-0.1,0-0.5-0.3c-0.1-0.1-0.8-0.5-1.4-0.7c0,0.6-0.2,0.8-0.4,0.9c-0.5,0.3-1.1,0.3-1.2,0.3c-1,0-1.7-0.5-1.7-1
				c0-0.3,0.2-0.5,0.5-0.7c0.6-0.3,1.5-0.3,1.7-0.3c0.2,0,0.4,0,0.5,0c0-0.3-0.1-1.8-0.1-2.1c-0.5,0.1-1,0.1-1.5,0.1
				c-0.6,0-1-0.1-1-0.5c0-0.2,0.2-0.4,0.5-0.5c-0.1,0.1-0.2,0.2-0.2,0.3c0,0.2,0.2,0.2,0.7,0.2c0.4,0,0.9,0,1.4-0.1
				c0-0.5,0-0.8,0-1.6c-0.4,0-1.7,0.2-2,0.2c-0.3,0-1.1-0.1-1.3-0.7c0.2,0.1,0.6,0.2,1.3,0.2c0.2,0,1,0,2.1-0.2
				C562.2,452.1,562.2,451.4,562.2,451.2L562.2,451.2z M561.2,457.3c-0.7,0-1.3,0.2-1.3,0.6c0,0.3,0.4,0.5,1.2,0.5
				c0.4,0,1.3-0.1,1.2-1C562.1,457.4,561.8,457.3,561.2,457.3z"/>
			<path class="st0" d="M573.7,455.5L573.7,455.5c1.1,0.2,1.2,0.3,1.3,0.3c0.3,0,0.4-0.2,0.4-0.3c0.1-0.2,0.1-1.4,0.2-1.7
				c-1,0.2-2,0.4-2.7,0.6c0,1,0,1.1,0,1.3c0,1.8,0.4,2.3,2.2,2.3c0.7,0,1.4-0.1,1.5-0.1c0.3-0.1,0.3,0,0.4,0c0.3,0,0.5,0.2,0.5,0.4
				c0,0.2-0.1,0.2-0.2,0.2c-0.2,0.1-1.1,0.1-1.4,0.1c-1,0-2.7,0-3.2-1.3c-0.2-0.5-0.2-1.1-0.2-2.7c-0.9,0.3-1.1,0.4-1.4,0.5
				c-0.2,0.1-0.3,0.2-0.4,0.2c-0.2,0-0.9-0.4-0.9-1.1c0.3,0.3,0.6,0.4,0.8,0.4c0.1,0,0.2,0,0.5-0.1c0.6-0.2,1.1-0.3,1.3-0.4
				c0-0.3,0-1.3-0.1-1.5c-0.1-0.2-0.3-0.3-0.5-0.5c0.1-0.1,0.1-0.1,0.3-0.1c0.5,0,1,0.3,1,0.5c0,0,0,0.1,0,0.3c0,0.2,0,1-0.1,1.2
				c0.9-0.2,1.8-0.4,2.7-0.6c0-0.4,0-1.7-0.1-2c-0.1-0.3-0.6-0.5-0.8-0.5c0.1,0,0.3-0.1,0.6-0.1s0.9,0.2,0.9,0.6c0,0,0,0.3-0.1,0.3
				c0,0.3-0.1,1.3-0.1,1.7c0.2,0,1.3-0.2,1.6-0.3c0.2,0,0.5-0.1,0.6-0.1c0.2,0,0.6,0.1,0.6,0.3c0,0.3-0.2,0.3-0.4,0.3
				c-0.1,0-0.5,0-0.6,0c-0.4,0-0.9,0-1.8,0.1c0,0.6-0.1,1.8-0.3,2.3c-0.2,0.5-0.5,0.5-0.6,0.5s-0.1,0-0.3-0.2
				C574.4,456,573.7,455.5,573.7,455.5L573.7,455.5L573.7,455.5z"/>
			<path class="st0" d="M590.5,455.3c-0.2,0.9-0.5,1.7-0.9,2.2c-0.3,0.3-0.8,0.9-1.7,0.9c-1.1,0-1.2-0.8-1.3-1.8
				c-0.1-0.7-0.2-1.3-0.8-1.3s-1.1,0.3-1.7,1.1c-0.4,0.5-0.5,0.7-1,1.9c-0.1,0.2-0.2,0.4-0.3,0.4c-0.2,0-0.3-0.5-0.3-0.6
				c0-0.1,0.1-0.3,0.3-0.6c0.5-0.6,2-3.5,2.6-4.6c0.1-0.3,0.5-1,0.5-1.3c0-0.1-0.1-0.3-0.4-0.6c0.1,0,0.1,0,0.2,0c0.4,0,1,0.4,1,0.8
				c0,0.2-0.1,0.3-0.3,0.5c-0.1,0.1-0.2,0.2-0.3,0.4c-1.4,2.2-1.5,2.4-1.9,3.1c0.7-0.6,1.2-0.8,1.7-0.8c0.9,0,1,0.7,1.2,1.5
				c0.1,0.8,0.2,1.3,0.9,1.3c0.4,0,0.8-0.2,1.2-0.6C589.8,456.6,590.1,455.8,590.5,455.3L590.5,455.3L590.5,455.3z"/>
			<path class="st0" d="M594,457.5c0-0.8,0.7-1.5,1.5-1.5s1.5,0.6,1.5,1.5s-0.7,1.5-1.5,1.5S594,458.3,594,457.5z M596.6,457.5
				c0-0.6-0.5-1.2-1.2-1.2s-1.2,0.5-1.2,1.2s0.5,1.2,1.2,1.2S596.6,458.2,596.6,457.5z"/>
		</g>
		<text transform="matrix(1 0 0 1 462.13 134.17)" class="st1 st2">No.1</text>
		<text transform="matrix(1 0 0 1 349.38 186.19)" class="st1 st2">No.3</text>
		<text transform="matrix(1 0 0 1 251.37 177.69)" class="st1 st2">No.4</text>
		<text transform="matrix(1 0 0 1 251.37 283.07)" class="st1 st2">No.5</text>
		<text transform="matrix(1 0 0 1 330.85 386.26)" class="st1 st2">No.6</text>
		<text transform="matrix(1 0 0 1 236.47 391.95)" class="st1 st2">No.7</text>
		<text transform="matrix(1 0 0 1 140.62 391.95)" class="st1 st2">No.8</text>
		<text transform="matrix(1 0 0 1 41.91 391.95)" class="st1 st2">No.9</text>
		<text transform="matrix(1 0 0 1 69.55 284.69)" class="st1 st2">No.10</text>
		<text transform="matrix(1 0 0 1 69.55 189.68)" class="st1 st2">No.11</text>
		<text transform="matrix(1 0 0 1 462.13 221.82)" class="st1 st2">No.2</text>
		<g>
			<path class="st3" d="M403.2,66.4c0.5,0.1,0.8,0.2,1.1,0.4c0.2,0.2,0.4,0.4,0.4,0.6c0,0.1,0,0.2-0.1,0.2c-0.1,0.1-0.1,0.1-0.2,0.1
				c-0.1,0-0.1,0-0.2-0.1c-0.1-0.2-0.2-0.4-0.4-0.6S403.4,66.6,403.2,66.4L403.2,66.4L403.2,66.4z M403.8,70.1c0,0,0.1,0,0.1,0
				s0.1-0.1,0.1-0.2c0.1-0.2,0.6-1.5,1.6-3.9l0.2,0.1c-0.7,2-1,3.2-1.2,3.7c-0.1,0.3-0.1,0.6-0.1,0.8c0,0.1,0,0.3,0.1,0.5
				c0,0,0,0.1,0.1,0.3s0.1,0.4,0.1,0.6s0,0.4-0.1,0.6s-0.2,0.2-0.4,0.2c-0.1,0-0.1,0-0.2-0.1c0-0.1-0.1-0.2-0.1-0.3
				c0-0.3,0.1-0.6,0.1-0.9c0-0.5-0.1-0.8-0.2-0.9c-0.1-0.1-0.2-0.1-0.4-0.1v-0.2L403.8,70.1L403.8,70.1z M403.9,64.3
				c0.5,0.1,0.9,0.2,1.1,0.4c0.2,0.2,0.4,0.4,0.4,0.6c0,0.1,0,0.2-0.1,0.2s-0.1,0.1-0.2,0.1c-0.1,0-0.1,0-0.2-0.1
				c-0.1-0.2-0.2-0.4-0.4-0.7C404.2,64.7,404,64.5,403.9,64.3L403.9,64.3L403.9,64.3z M410.1,66c0,0,0-0.1,0.1-0.1s0.1-0.1,0.1-0.1
				c0,0,0,0,0.1,0c0,0,0.1,0,0.2,0.1c0.1,0.1,0.2,0.2,0.3,0.3s0.1,0.2,0.1,0.2c0,0.1-0.1,0.2-0.2,0.2h-2.1v0.8h1.6l0.2-0.2
				c0,0,0-0.1,0.1-0.1c0-0.1,0.1-0.1,0.1-0.1s0,0,0.1,0c0,0,0.1,0,0.2,0.1s0.2,0.2,0.3,0.3c0.1,0.1,0.2,0.2,0.2,0.2
				c0,0.1-0.1,0.2-0.2,0.2h-4c-0.5,0-0.9,0.1-1.4,0.1l-0.2-0.5c0.4,0,0.8,0.1,1.2,0.1h1.3v-0.8h-0.6c-0.4,0-0.8,0.1-1.2,0.1
				l-0.2-0.5c0.4,0,0.8,0.1,1.2,0.1h0.8v-0.8h-0.7c-0.4,0-0.8,0.1-1.3,0.1l-0.2-0.5c0.4,0,0.8,0.1,1.2,0.1h1c0-0.4,0-0.7-0.1-1
				c0.3,0.1,0.6,0.2,0.7,0.2s0.2,0.1,0.2,0.2c0,0,0,0.1-0.1,0.1l-0.2,0.1v0.4h1.4l0.2-0.2c0,0,0-0.1,0.1-0.1c0-0.1,0.1-0.1,0.1-0.1
				c0,0,0,0,0.1,0c0,0,0.1,0,0.2,0.1c0.1,0.1,0.2,0.2,0.3,0.3c0.1,0.1,0.1,0.2,0.1,0.2c0,0.1-0.1,0.1-0.2,0.1h-2.3v0.8h1.2L410.1,66
				L410.1,66z M407.1,71.4v0.3c0,0.2,0,0.5,0,0.7c0,0.1-0.1,0.1-0.2,0.2s-0.2,0.1-0.3,0.1c0,0-0.1,0-0.1-0.1s0-0.1,0-0.1
				c0-0.6,0.1-1.1,0.1-1.7v-0.9c0-0.8,0-1.4-0.1-1.9l0.7,0.3h2.8l0.1-0.2c0,0,0-0.1,0.1-0.1c0-0.1,0.1-0.1,0.1-0.1s0.1,0,0.2,0.1
				s0.2,0.2,0.3,0.2s0.1,0.2,0.1,0.2c0,0-0.1,0.1-0.1,0.1s-0.1,0.1-0.2,0.1v3.1c0,0.2,0,0.3-0.1,0.4c0,0.1-0.1,0.2-0.3,0.3
				c-0.1,0.1-0.4,0.1-0.6,0.2c0-0.2-0.1-0.3-0.2-0.4c-0.1-0.1-0.4-0.2-0.8-0.2v-0.2c0.7,0.1,1.1,0.1,1.2,0.1c0.1,0,0.1,0,0.2-0.1
				c0,0,0-0.1,0-0.2v-0.9h-2.9L407.1,71.4L407.1,71.4z M410,69.4v-0.8h-2.9v0.8H410z M407.1,69.7v0.9h2.9v-0.9H407.1z"/>
			<path class="st3" d="M415,65.9c0,0,0-0.1,0.1-0.1c0-0.1,0.1-0.1,0.1-0.1s0,0,0.1,0c0.1,0,0.2,0.1,0.4,0.3
				c0.2,0.2,0.3,0.3,0.3,0.4c0,0.1-0.1,0.2-0.2,0.2h-1.1v1.7l1-0.4l0,0.1l-1,0.6v3.3c0,0.2,0,0.3-0.1,0.4s-0.1,0.2-0.2,0.3
				c-0.1,0.1-0.3,0.1-0.6,0.2c0-0.2-0.1-0.3-0.2-0.4c-0.1-0.1-0.4-0.2-0.7-0.2v-0.2c0.5,0,0.9,0.1,1,0.1c0.1,0,0.1,0,0.2,0
				s0-0.1,0-0.1v-2.9l-0.9,0.5c0,0.1-0.1,0.2-0.2,0.2l-0.3-0.8c0.2-0.1,0.7-0.2,1.4-0.5v-1.8h-0.4c-0.2,0-0.5,0.1-0.7,0.1l-0.2-0.5
				c0.2,0,0.6,0.1,0.9,0.1h0.4v-0.1c0-0.8,0-1.4-0.1-1.9c0.4,0.1,0.6,0.2,0.7,0.2s0.2,0.1,0.2,0.2c0,0,0,0.1-0.1,0.1l-0.2,0.1v1.4
				h0.3L415,65.9L415,65.9z M419.8,68.9l0.1-0.3l0.2-0.5h-4c0,0.4-0.2,0.7-0.4,0.9c-0.1,0.1-0.2,0.1-0.3,0.1c-0.1,0-0.1,0-0.2-0.1
				s-0.1-0.1-0.1-0.2c0-0.1,0.1-0.2,0.2-0.4c0.1-0.1,0.2-0.2,0.4-0.4s0.2-0.4,0.2-0.7h0.1c0,0.2,0.1,0.3,0.1,0.5h4l0.1-0.2
				c0,0,0-0.1,0.1-0.1c0-0.1,0.1-0.1,0.1-0.1c0.1,0,0.2,0.1,0.4,0.3s0.3,0.3,0.3,0.4c0,0-0.1,0.1-0.1,0.1c-0.1,0-0.1,0-0.2,0
				c-0.3,0.3-0.6,0.5-0.8,0.7L419.8,68.9c0.5,0.3,0.6,0.4,0.6,0.5c0,0,0,0.1-0.1,0.1l-0.2,0.1v1.7c0,0.2,0,0.3,0,0.4
				c0,0.1-0.1,0.2-0.2,0.3s-0.3,0.1-0.5,0.1c0-0.2-0.1-0.4-0.1-0.4c-0.1-0.1-0.3-0.2-0.6-0.2v-0.2c0.4,0,0.7,0.1,0.8,0.1
				c0.1,0,0.1,0,0.1,0c0,0,0-0.1,0-0.1v-1.8h-1.3v1c0,0.8,0,1.5,0.1,1.9c0,0.1-0.1,0.1-0.2,0.2c-0.1,0.1-0.2,0.1-0.3,0.1
				c0,0-0.1,0-0.1-0.1s-0.1-0.1-0.1-0.1c0-0.6,0.1-1.2,0.1-1.9v-1.1h-1.2v0.8c0,0.7,0,1.2,0.1,1.6c0,0.1-0.1,0.1-0.2,0.2
				s-0.2,0.1-0.3,0.1c0,0-0.1,0-0.1-0.1c0,0,0-0.1,0-0.1c0-0.2,0-0.5,0.1-0.9v-0.5c0-0.7,0-1.2-0.1-1.6l0.7,0.3h1.1
				c0-0.3,0-0.6-0.1-0.9c0.3,0.1,0.5,0.2,0.7,0.2c0.1,0.1,0.2,0.1,0.2,0.2c0,0,0,0.1-0.1,0.1l-0.1,0.1v0.3h1.2L419.8,68.9
				L419.8,68.9L419.8,68.9z M419.6,64.4C419.6,64.4,419.6,64.4,419.6,64.4c0.1-0.1,0.1-0.2,0.1-0.2c0,0,0,0,0.1,0
				c0.1,0,0.2,0.1,0.4,0.2c0.2,0.2,0.3,0.3,0.3,0.3c0,0-0.1,0.1-0.1,0.1c-0.1,0-0.1,0.1-0.2,0.1v0.8c0,0.6,0,1.1,0.1,1.4
				c0,0.1-0.1,0.1-0.2,0.2c-0.1,0.1-0.2,0.1-0.3,0.1h-0.1v-0.4h-1.8c-0.5,0-0.9,0.1-1.4,0.1l-0.2-0.5c0.4,0,0.8,0.1,1.2,0.1h2.2V66
				H418c-0.5,0-0.9,0.1-1.4,0.1l-0.2-0.5c0.4,0,0.8,0.1,1.2,0.1h1.9v-0.8h-1.6c-0.5,0-0.9,0.1-1.4,0.1l-0.2-0.5
				c0.4,0,0.8,0.1,1.2,0.1h2L419.6,64.4L419.6,64.4z"/>
			<path class="st3" d="M429.5,67.2c0,0,0-0.1,0.1-0.1s0.1-0.1,0.1-0.1c0.1,0,0.2,0.1,0.4,0.2c0.2,0.2,0.3,0.3,0.3,0.3
				c0,0-0.1,0.1-0.1,0.1c0,0-0.1,0-0.2,0.1c0,0.9,0,1.6-0.1,2c0,0.4-0.1,0.6-0.2,0.8c-0.1,0.2-0.4,0.2-0.6,0.2c0-0.2,0-0.3-0.1-0.4
				c-0.1-0.1-0.2-0.1-0.4-0.2V70c0.3,0,0.5,0,0.5,0c0.1,0,0.2,0,0.2-0.1c0.1-0.1,0.1-0.3,0.1-0.6s0-0.9,0-1.7l-1.1,0.4v1
				c0,0.8,0,1.5,0.1,1.9c0,0.1-0.1,0.1-0.2,0.2c-0.1,0.1-0.2,0.1-0.3,0.1c0,0-0.1,0-0.1-0.1s-0.1-0.1-0.1-0.1c0-0.6,0.1-1.2,0.1-1.8
				v-1l-1,0.4v3c0,0.1,0,0.2,0.1,0.2s0.2,0.1,0.4,0.1h1.1c0.6,0,0.9,0,1.1,0c0.1,0,0.1,0,0.1,0c0,0,0.1,0,0.1-0.1
				c0.1-0.1,0.2-0.4,0.3-0.8h0.1l0,0.8c0.1,0,0.2,0.1,0.2,0.1s0.1,0.1,0.1,0.2c0,0.1,0,0.2-0.2,0.2c-0.1,0.1-0.3,0.1-0.6,0.1
				c-0.3,0-0.7,0-1.3,0h-1.2c-0.3,0-0.5,0-0.6-0.1c-0.1,0-0.2-0.1-0.3-0.2s-0.1-0.2-0.1-0.4v-2.9l-0.9,0.3l-0.1-0.2
				c0,0.9-0.1,1.7-0.2,2.2c-0.1,0.5-0.2,0.9-0.4,1.1c-0.1,0.1-0.2,0.2-0.4,0.3s-0.3,0.1-0.5,0.1c0-0.2,0-0.3-0.1-0.4
				c-0.1-0.1-0.3-0.2-0.7-0.2v-0.2c0.6,0.1,0.9,0.1,1,0.1c0.1,0,0.1,0,0.2,0c0,0,0.1,0,0.1-0.1c0.2-0.2,0.4-1.5,0.5-3.8h-1
				c-0.1,1-0.2,1.9-0.5,2.7c-0.2,0.8-0.6,1.5-1.2,2.1l-0.1-0.2c0.4-0.6,0.6-1.2,0.8-1.8s0.3-1.3,0.3-2c0-0.7,0.1-1.5,0.1-2.4h-0.4
				c-0.2,0-0.4,0.1-0.6,0.1l-0.2-0.5c0.3,0,0.7,0.1,1.1,0.1h0.5c0-0.7,0-1.3-0.1-1.8c0.4,0.1,0.6,0.2,0.7,0.2s0.2,0.1,0.2,0.2
				c0,0,0,0.1-0.1,0.1l-0.1,0.1V66h0.6l0.2-0.3c0,0,0-0.1,0.1-0.1s0.1-0.1,0.1-0.1c0,0,0,0,0.1,0c0,0,0.1,0.1,0.2,0.2
				s0.2,0.2,0.3,0.3c0.1,0.1,0.2,0.2,0.2,0.2c0,0.1-0.1,0.1-0.2,0.1h-1.9c0,0.6,0,1.1,0,1.4h0.9l0.1-0.2c0,0,0-0.1,0.1-0.1
				c0-0.1,0.1-0.1,0.1-0.1c0.1,0,0.2,0.1,0.4,0.2s0.3,0.3,0.3,0.3c0,0.1-0.2,0.1-0.4,0.2c0,0.4,0,0.7,0,0.9l1.1-0.4v-0.8
				c0-0.4,0-0.6,0-0.8c0.3,0.1,0.5,0.2,0.6,0.2s0.2,0.1,0.2,0.2c0,0,0,0.1-0.1,0.1l-0.1,0.1v0.9l1-0.4v-0.8c0-0.4,0-0.7,0-0.9
				c0.3,0.1,0.5,0.2,0.6,0.2s0.2,0.1,0.2,0.2c0,0,0,0.1-0.1,0.1l-0.2,0.1v0.9l0.9-0.3l0,0L429.5,67.2L429.5,67.2z M429.4,65.5
				c0,0,0-0.1,0.1-0.1c0-0.1,0.1-0.1,0.1-0.1c0,0,0.1,0,0.1,0c0,0,0.1,0.1,0.2,0.1c0.1,0.1,0.2,0.2,0.4,0.3s0.2,0.2,0.2,0.2
				c0,0.1-0.1,0.2-0.2,0.2h-3.5c-0.4,0.6-0.8,1.1-1.3,1.4l-0.1-0.1c0.3-0.3,0.5-0.8,0.8-1.3c0.1-0.3,0.2-0.6,0.4-1
				c0.1-0.4,0.2-0.7,0.2-1c0.6,0.2,1,0.3,1,0.4c0,0,0,0-0.1,0.1l-0.2,0.1c-0.1,0.3-0.3,0.7-0.5,1.1h2.3L429.4,65.5L429.4,65.5z"/>
			<path class="st3" d="M432.8,66.2c-0.3,0-0.7,0.1-1.1,0.1l-0.2-0.5c0.4,0,0.8,0.1,1.2,0.1h1.5l0.2-0.2c0,0,0-0.1,0.1-0.1
				s0.1-0.1,0.1-0.1c0,0,0,0,0.1,0c0,0,0.1,0,0.2,0.1c0.1,0.1,0.2,0.2,0.3,0.3s0.1,0.2,0.1,0.2c0,0.1-0.1,0.1-0.2,0.1L432.8,66.2
				L432.8,66.2z M433.9,66.9C433.9,66.9,434,66.8,433.9,66.9c0.1-0.1,0.1-0.2,0.2-0.2s0,0,0.1,0c0.1,0,0.2,0.1,0.4,0.2
				c0.2,0.2,0.3,0.3,0.3,0.3c0,0.1-0.1,0.2-0.2,0.2h-1.1c-0.5,0-0.9,0.1-1.4,0.1l-0.2-0.5c0.4,0,0.8,0.1,1.2,0.1h0.7L433.9,66.9
				L433.9,66.9z M433.9,68.1C433.9,68.1,434,68,433.9,68.1c0.1-0.2,0.1-0.2,0.1-0.2c0,0,0,0,0.1,0c0.1,0,0.2,0.1,0.4,0.2
				s0.3,0.3,0.3,0.3c0,0.1-0.1,0.1-0.2,0.1h-1.1c-0.5,0-0.9,0.1-1.4,0.1l-0.2-0.5c0.4,0,0.8,0.1,1.2,0.1h0.6L433.9,68.1L433.9,68.1z
				 M434.1,69.2C434.1,69.2,434.1,69.2,434.1,69.2c0.1-0.1,0.1-0.2,0.1-0.2c0,0,0,0,0.1,0c0,0,0.1,0,0.2,0.1
				c0.1,0.1,0.2,0.2,0.3,0.3s0.1,0.2,0.1,0.2c0,0-0.1,0.1-0.1,0.1c-0.1,0-0.1,0.1-0.2,0.1v0.8c0,0.6,0,1.1,0.1,1.4
				c0,0.1-0.1,0.1-0.2,0.2c-0.1,0.1-0.2,0.1-0.3,0.1c0,0-0.1,0-0.1-0.1s0-0.1,0-0.1l0-0.2v-0.2h-1.5v0.2c0,0.2,0,0.3,0,0.4
				c0,0.1-0.1,0.1-0.2,0.2s-0.2,0.1-0.3,0.1c0,0-0.1,0-0.1-0.1c0,0,0-0.1,0-0.1c0-0.2,0-0.6,0.1-0.9v-0.6c0-0.7,0-1.3-0.1-1.7
				l0.7,0.3h1.4L434.1,69.2L434.1,69.2z M434,64.5C434,64.5,434,64.5,434,64.5c0.1-0.1,0.1-0.2,0.2-0.2s0.1-0.1,0.1-0.1
				c0,0,0.1,0,0.2,0.1c0.1,0.1,0.2,0.2,0.3,0.3s0.1,0.2,0.1,0.2c0,0.1-0.1,0.2-0.2,0.2h-1.1c-0.5,0-0.9,0.1-1.4,0.1l-0.2-0.5
				c0.4,0,0.8,0.1,1.2,0.1h0.6C433.8,64.8,434,64.5,434,64.5z M432.5,69.7v1.8h1.5v-1.8H432.5z M440,72L440,72
				c-0.1,0.1-0.3,0.2-0.4,0.3c-0.1,0.1-0.2,0.2-0.2,0.4c-0.9-0.3-1.7-0.8-2.3-1.4c-0.7,0.6-1.7,1.1-2.8,1.4l-0.1-0.1
				c1-0.4,1.9-0.9,2.6-1.6c-0.5-0.6-0.9-1.4-1.1-2.3h-0.2c-0.1,0-0.2,0.1-0.3,0.1l-0.2-0.5c0.4,0,0.8,0.1,1.2,0.1h2.1l0.2-0.2
				c0,0,0-0.1,0.1-0.1c0-0.1,0.1-0.1,0.1-0.1c0.1,0,0.2,0.1,0.4,0.2s0.3,0.3,0.3,0.3c0,0-0.1,0.1-0.1,0.1c0,0-0.1,0-0.2,0
				c-0.4,0.9-0.8,1.6-1.4,2.2C438.2,71.4,439,71.8,440,72L440,72z M437.8,64.4C437.8,64.4,437.8,64.4,437.8,64.4
				c0.1-0.1,0.1-0.2,0.1-0.2c0,0,0,0,0.1,0c0.1,0,0.2,0.1,0.3,0.3s0.2,0.3,0.2,0.4c-0.1,0.1-0.2,0.1-0.3,0.1v1.9c0,0,0,0.1,0,0.1
				s0.1,0,0.2,0h0.4c0.2,0,0.3,0,0.4,0c0,0,0.1,0,0.1,0c0,0,0,0,0-0.1c0-0.1,0.1-0.3,0.2-0.7l0.1-0.4h0.1l0,1.1
				c0.1,0,0.1,0.1,0.1,0.1s0,0.1,0,0.1c0,0.1-0.1,0.2-0.2,0.3s-0.4,0.1-0.8,0.1h-0.5c-0.2,0-0.4,0-0.5-0.1c-0.1-0.1-0.1-0.2-0.1-0.4
				v-2.1h-1.4v0.5c0,0.5-0.1,1-0.3,1.5c-0.2,0.4-0.6,0.8-1.1,1.2l-0.1-0.1c0.4-0.3,0.6-0.7,0.8-1.1s0.2-0.9,0.2-1.4v-0.6
				c0-0.2,0-0.4,0-0.6l0.7,0.3h1.2L437.8,64.4L437.8,64.4z M436,68.6c0.2,0.8,0.6,1.4,1.2,2c0.5-0.6,0.9-1.2,1.1-2H436z"/>
		</g>
		<g>
			<line class="st4" x1="394.8" y1="90.3" x2="401.1" y2="72.9"/>
			<path d="M396.3,90.8c-0.3,0.8-1.2,1.2-2,0.9c-0.8-0.3-1.2-1.2-0.9-2s1.2-1.2,2-0.9C396.2,89.1,396.6,90,396.3,90.8z"/>
		</g>
		<g>
			<path d="M270.7,71.4c0.1-0.3,0.2-0.7,0.3-1.2s0.1-0.8,0.1-1.1c0.8,0.2,1.1,0.3,1.1,0.4c0,0,0,0.1-0.1,0.1l-0.2,0.1
				c-0.4,0.8-0.7,1.5-1,1.9c0.2,0.1,0.3,0.2,0.4,0.4s0.2,0.3,0.2,0.4c0,0.1,0,0.2,0,0.3c0,0.1-0.1,0.1-0.2,0.1c-0.1,0-0.1,0-0.3-0.1
				c-0.1-0.2-0.3-0.5-0.5-0.7c-0.3-0.3-0.5-0.5-0.8-0.6l0.1-0.1C270.1,71.2,270.4,71.3,270.7,71.4L270.7,71.4L270.7,71.4z
				 M273.3,73.6c-0.3-0.3-0.5-0.6-0.7-0.8l0.1-0.1c0.5,0.2,0.9,0.4,1.2,0.7c0.3,0.3,0.4,0.5,0.5,0.8c0,0.1,0,0.2,0,0.3
				c0,0.1-0.1,0.2-0.2,0.2c-0.1,0-0.2,0-0.3-0.1c-0.1-0.2-0.2-0.5-0.4-0.8c-0.3,0.1-0.6,0.2-0.9,0.3l0.3,2.3
				c0.1,0.9,0.3,1.8,0.4,2.6c0,0.1-0.1,0.2-0.2,0.2s-0.2,0.1-0.4,0.2c-0.1,0-0.1,0-0.2-0.1c-0.1,0-0.1-0.1-0.1-0.1
				c0-0.4-0.1-0.9-0.1-1.3c0-0.4-0.1-1-0.2-1.7l-0.3-2c-0.4,0.2-0.9,0.3-1.4,0.4c0,0.1-0.1,0.2-0.2,0.3l-0.3-0.8
				c0.2,0,0.6-0.1,1.1-0.2c0.2-0.4,0.5-1,0.7-1.6c0.1-0.4,0.3-0.8,0.4-1.2c0.1-0.4,0.2-0.8,0.2-1.1c0.7,0.2,1.1,0.3,1.1,0.4
				c0,0,0,0.1-0.1,0.1l-0.2,0.1c-0.2,0.5-0.5,1-0.8,1.6c-0.3,0.6-0.6,1.1-1,1.6L273.3,73.6L273.3,73.6z M271.4,75.6
				c0.3,0,0.4,0.1,0.4,0.1c0,0,0,0.1-0.1,0.1l-0.2,0.1c-0.1,0.6-0.2,1.1-0.3,1.6c-0.1,0.5-0.3,0.9-0.5,1.3l-0.2-0.1
				c0-0.2,0.1-0.5,0.2-0.8c0.1-0.4,0.1-0.8,0.1-1.3c0-0.5,0-0.9,0-1.2L271.4,75.6L271.4,75.6z M273.3,75.2c0.5,0.2,0.8,0.5,1.1,0.8
				c0.2,0.3,0.4,0.6,0.4,0.8c0,0.2,0,0.3,0,0.4c0,0.1-0.1,0.2-0.2,0.2c-0.1,0-0.2,0-0.3-0.1c-0.1-0.3-0.2-0.7-0.4-1
				c-0.2-0.4-0.4-0.7-0.6-1L273.3,75.2L273.3,75.2z M278.4,70.4c0,0,0-0.1,0.1-0.1s0.1-0.1,0.1-0.1c0,0,0.1,0,0.1-0.1
				c0,0,0.1,0,0.3,0.1c0.1,0.1,0.3,0.2,0.4,0.3s0.2,0.2,0.2,0.2c-0.1,0.1-0.2,0.2-0.4,0.2c0.4,4.1,0.4,6.4,0,7.1
				c-0.3,0.4-0.7,0.6-1.3,0.7c0-0.3-0.1-0.4-0.3-0.5c-0.1-0.1-0.2-0.1-0.5-0.1s-0.5-0.1-0.9-0.1l0-0.2c1,0,1.6,0,1.8-0.1
				c0.1,0,0.2,0,0.3-0.1s0.1-0.1,0.2-0.2c0.3-0.4,0.3-2.6-0.1-6.5l-3.3,0.4c-0.2,0.8-0.6,1.4-0.9,2l-0.2-0.1
				c0.2-0.6,0.4-1.3,0.6-2.1c0.1-0.4,0.1-0.8,0.1-1.3c0-0.5,0-0.9,0-1.2c0.4,0.1,0.8,0.1,0.9,0.2c0.2,0.1,0.3,0.1,0.3,0.1
				c0,0,0,0.1-0.1,0.1l-0.2,0.1c-0.1,0.7-0.2,1.3-0.4,1.9l3-0.4L278.4,70.4L278.4,70.4z M275.4,73c0.6,0.2,1.1,0.5,1.4,0.8
				c0.3,0.3,0.5,0.7,0.5,1c0,0.2,0,0.3,0,0.4c-0.1,0.1-0.1,0.2-0.3,0.2c-0.1,0-0.2,0-0.3-0.1c-0.1-0.4-0.3-0.8-0.5-1.2
				s-0.6-0.8-0.9-1.1L275.4,73L275.4,73z"/>
			<path d="M285.1,72.1c0.4,0.2,0.6,0.4,0.8,0.8c0.2,0.3,0.4,0.7,0.4,1.1c0.1,0.5,0,1-0.1,1.5c-0.1,0.5-0.4,0.9-0.7,1.2
				s-0.7,0.5-1.2,0.6c-0.5,0.1-1,0-1.4-0.2s-0.8-0.6-1.1-1.1s-0.5-1.1-0.6-1.7c-0.1-1.1-0.1-2,0.1-2.8c0.2-0.8,0.5-1.4,0.9-1.9
				c0.4-0.4,0.8-0.7,1.3-0.8c0.4-0.1,0.6,0,0.9,0c0.3,0.1,0.5,0.2,0.6,0.3s0.2,0.3,0.3,0.5c0,0.2,0,0.3-0.1,0.4
				c-0.1,0.1-0.2,0.2-0.4,0.2c-0.2,0-0.3,0-0.4-0.2c-0.1-0.1-0.2-0.3-0.3-0.5c0-0.2-0.1-0.3-0.2-0.4c-0.1-0.1-0.2-0.1-0.4-0.1
				c-0.4,0.1-0.7,0.3-0.9,0.8c-0.2,0.4-0.4,1-0.4,1.6c-0.1,0.6-0.1,1.2,0,1.8c0.2-0.4,0.4-0.7,0.7-0.9c0.3-0.2,0.6-0.4,1-0.4
				C284.3,71.9,284.7,71.9,285.1,72.1L285.1,72.1z M284.9,76.4c0.2-0.2,0.3-0.5,0.4-0.9s0.1-0.8,0-1.2c-0.1-0.8-0.3-1.3-0.7-1.5
				c-0.3-0.2-0.7-0.3-1-0.3c-0.3,0-0.6,0.2-0.9,0.4c-0.3,0.3-0.4,0.6-0.5,1.1c0.1,0.8,0.3,1.5,0.6,2.1c0.3,0.5,0.7,0.8,1.4,0.7
				C284.5,76.8,284.7,76.6,284.9,76.4L284.9,76.4z"/>
			<path d="M287.9,76.6c-0.1,0-0.1,0-0.1-0.2c0-0.1,0-0.2,0.1-0.2l0.2,0c0.2,0,0.5-0.2,0.6-0.3c0.2-0.2,0.2-0.4,0.2-0.7l-0.8-6
				c0-0.3-0.1-0.4-0.3-0.5s-0.4-0.1-0.8-0.1l-0.2,0c0,0-0.1,0-0.1-0.2s0-0.2,0.1-0.2l2.1-0.3l3.7,6.3l2-7.1l2-0.3c0,0,0.1,0,0.1,0
				c0,0,0,0.1,0,0.1c0,0.1,0,0.2-0.1,0.2l-0.2,0c-0.4,0.1-0.6,0.1-0.7,0.3c-0.1,0.1-0.2,0.3-0.1,0.6l0.8,6.2c0,0.3,0.1,0.4,0.3,0.5
				c0.2,0.1,0.4,0.1,0.8,0.1l0.2,0c0,0,0.1,0,0.1,0.1c0,0.1,0,0.2-0.1,0.2l-3.2,0.4c0,0-0.1-0.1-0.1-0.2c0-0.1,0-0.2,0-0.2l0.2,0
				c0.4-0.1,0.6-0.1,0.7-0.3s0.2-0.3,0.1-0.6l-0.8-6.1l-2.2,7.5l-0.1,0l-4-6.7l0.8,5.9c0,0.3,0.2,0.5,0.4,0.6s0.5,0.2,0.7,0.2l0.2,0
				c0,0,0.1,0,0.1,0.1c0,0.1,0,0.2,0,0.2L287.9,76.6L287.9,76.6z"/>
			<path d="M301.2,66.8c0.3,0.1,0.5,0.1,0.5,0.2c0,0,0,0.1-0.1,0.1l-0.2,0.1c-0.3,0.8-0.6,1.6-1.1,2.3c-0.4,0.7-0.9,1.3-1.5,1.8
				l-0.1-0.1c0.5-0.6,0.9-1.3,1.2-2.1c0.1-0.3,0.3-0.8,0.4-1.2c0.1-0.5,0.2-0.9,0.2-1.2L301.2,66.8L301.2,66.8z M306.6,73.2
				c-0.5-0.7-1.2-1.4-2-2l0.1-0.1c0.8,0.3,1.4,0.7,1.9,1.1s0.9,0.8,1.1,1.1s0.4,0.7,0.4,0.9c0,0.2,0,0.3,0,0.4s-0.1,0.2-0.2,0.2
				c-0.1,0-0.2,0-0.4-0.1c-0.2-0.4-0.4-0.9-0.8-1.3c-1.6,0.6-3.7,1.2-6.2,1.9c0,0.1-0.1,0.2-0.3,0.3l-0.5-1c0.6-0.1,1.2-0.2,1.8-0.3
				c0.3-1,0.5-2,0.7-3.2c0.1-0.4,0.1-0.8,0.1-1.2c0-0.4,0-0.8,0-1.1c0.5,0.1,0.8,0.1,1,0.2c0.2,0.1,0.3,0.1,0.3,0.2
				c0,0,0,0.1-0.1,0.1l-0.2,0.1c-0.1,0.7-0.3,1.5-0.6,2.4c-0.3,0.9-0.6,1.7-0.9,2.4C303.5,73.8,305.1,73.5,306.6,73.2L306.6,73.2z
				 M306.3,67.6c0.7,0.6,1.5,1.1,2.4,1.4v0.1c-0.2,0.1-0.3,0.1-0.4,0.3s-0.2,0.3-0.2,0.4c-0.9-0.4-1.6-1-2.3-1.8s-1.2-1.6-1.6-2.5
				l-1,0.1c-0.5,0.1-1.1,0.2-1.7,0.4l-0.4-0.5c0.4,0,0.9-0.1,1.5-0.1l1.2-0.2l0.3-0.6l1,0.6c-0.1,0.2-0.3,0.3-0.7,0.3
				C305,66.4,305.5,67,306.3,67.6L306.3,67.6z"/>
			<path d="M309.9,64.5c0.7,0.2,1.2,0.4,1.5,0.7c0.4,0.3,0.5,0.6,0.6,0.9c0,0.1,0,0.3-0.1,0.4s-0.1,0.2-0.2,0.2
				c-0.1,0-0.2,0-0.3-0.1c-0.1-0.3-0.3-0.7-0.6-1s-0.6-0.7-1-0.9L309.9,64.5L309.9,64.5z M311.6,68.4c0,0,0-0.1,0.1-0.2
				s0-0.1,0.1-0.1c0,0,0-0.1,0.1-0.1c0,0,0.1,0,0.3,0.2c0.2,0.1,0.3,0.2,0.5,0.3c0.1,0.1,0.2,0.2,0.2,0.3c-0.1,0.1-0.2,0.2-0.5,0.3
				l0.4,3c0.3,0.3,0.6,0.5,0.9,0.6c0.3,0.1,0.7,0.2,1.1,0.2s0.9-0.1,1.6-0.1c2-0.3,3.4-0.5,4.3-0.6l0,0.2c-0.1,0.1-0.3,0.1-0.3,0.2
				c-0.1,0.1-0.1,0.3-0.1,0.4l-3.7,0.5c-0.7,0.1-1.2,0.1-1.7,0.1c-0.4,0-0.8-0.1-1.1-0.3c-0.3-0.2-0.6-0.5-1-0.9
				c-0.2,0.3-0.4,0.6-0.7,0.9c-0.3,0.3-0.5,0.6-0.7,0.8v0.1c0,0.1,0,0.2-0.1,0.2l-0.6-0.9c0.4-0.3,0.9-0.6,1.6-1.1l-0.4-3.3
				l-0.5,0.1c-0.3,0.1-0.6,0.1-0.9,0.3l-0.4-0.6c0.3,0,0.7,0,1.1-0.1l0.5-0.1L311.6,68.4L311.6,68.4z M317.8,66c0,0,0-0.1,0.1-0.1
				c0-0.1,0-0.1,0.1-0.1c0,0,0,0,0.1,0c0,0,0.1,0,0.3,0.1c0.1,0.1,0.3,0.2,0.4,0.3s0.2,0.2,0.2,0.2c-0.1,0.1-0.2,0.2-0.4,0.3
				l0.3,2.1c0.1,0.9,0.3,1.8,0.4,2.6c0,0.1-0.1,0.2-0.3,0.2c-0.1,0.1-0.3,0.1-0.4,0.2c0,0-0.1,0-0.1-0.1s0-0.1,0-0.2
				c0,0,0-0.1,0-0.2l0-0.2l-3.5,0.5l0.1,0.4c0,0,0,0.1-0.2,0.2c-0.1,0.1-0.2,0.1-0.4,0.2c-0.1,0-0.1,0-0.2-0.1c0,0-0.1-0.1-0.1-0.2
				c0-0.7-0.1-1.4-0.2-2.2l-0.2-1.2c-0.1-0.9-0.3-1.7-0.5-2.3l1,0.3l0.9-0.1c0-0.4,0-0.7,0-1.1l-0.9,0.1c-0.5,0.1-1.1,0.2-1.6,0.4
				l-0.4-0.6c0.4,0,0.9,0,1.5-0.1l2.4-0.3c0.1-0.3,0.2-0.7,0.2-1c0.1-0.4,0.1-0.7,0.1-1c0.5,0.1,0.8,0.1,0.9,0.2s0.3,0.1,0.3,0.1
				c0,0,0,0-0.1,0.1l-0.2,0.1c-0.3,0.5-0.6,1-0.9,1.4l1.5-0.2l0.2-0.4c0,0,0-0.1,0.1-0.2c0-0.1,0.1-0.1,0.1-0.2c0,0,0-0.1,0.1-0.1
				c0,0,0.1,0,0.3,0.1s0.3,0.2,0.5,0.3c0.1,0.1,0.2,0.2,0.2,0.2c0,0.1-0.1,0.2-0.2,0.2l-3.2,0.4c-0.1,0.4-0.2,0.8-0.4,1.1l2-0.3
				L317.8,66L317.8,66z M313.6,63.6c0.5,0.1,0.8,0.2,1,0.5c0.2,0.2,0.4,0.4,0.4,0.6c0,0.1,0,0.3-0.1,0.4s-0.1,0.2-0.3,0.2
				c-0.1,0-0.2,0-0.3-0.1c0-0.2-0.1-0.5-0.3-0.8c-0.2-0.3-0.4-0.5-0.6-0.7L313.6,63.6L313.6,63.6z M318,67.8l-0.1-1.2l-3.5,0.5
				l0.1,1.2L318,67.8z M318,68.1l-3.5,0.5l0.1,1.2l3.5-0.5L318,68.1z M314.7,70.1l0.2,1.2l3.5-0.5l-0.2-1.2L314.7,70.1z"/>
		</g>
		<g>
			<path d="M182.5,485.3c0.3,0,0.4,0.1,0.4,0.2c0,0,0,0.1-0.1,0.1l-0.2,0.1c-0.2,0.6-0.4,1.1-0.6,1.6c-0.2,0.5-0.5,0.9-0.7,1.3
				l-0.2-0.1c0.1-0.2,0.2-0.5,0.3-0.9c0.1-0.4,0.2-0.8,0.3-1.3s0.1-0.9,0.1-1.2L182.5,485.3L182.5,485.3z M184.8,483.4
				c-0.2-0.4-0.4-0.7-0.6-0.9l0.1-0.1c0.5,0.3,0.9,0.6,1.2,0.9s0.4,0.6,0.4,0.9c0,0.1,0,0.3-0.1,0.4s-0.2,0.1-0.3,0.1
				c-0.1,0-0.2,0-0.3-0.1c0-0.2-0.1-0.5-0.3-0.9c-0.4,0.1-0.7,0.1-1,0.2v2.5c0,1,0.1,2,0.1,2.9c-0.1,0.1-0.1,0.2-0.3,0.2
				c-0.1,0.1-0.3,0.1-0.4,0.1c-0.1,0-0.1,0-0.2-0.1s-0.1-0.1-0.1-0.2c0-0.5,0.1-1,0.1-1.4s0-1,0.1-1.8v-2.1
				c-0.4,0.1-0.9,0.2-1.5,0.3c-0.1,0.1-0.2,0.2-0.3,0.2l-0.2-0.9c0.2,0,0.7,0,1.3-0.1c0.3-0.5,0.6-1,0.9-1.6
				c0.2-0.4,0.4-0.8,0.6-1.2c0.2-0.4,0.3-0.8,0.4-1.1c0.7,0.3,1.1,0.5,1.1,0.6c0,0,0,0.1-0.1,0.1l-0.2,0.1c-0.3,0.5-0.6,1-1,1.5
				s-0.8,1.1-1.2,1.5L184.8,483.4L184.8,483.4z M182.3,480.7c0.2-0.4,0.3-0.8,0.4-1.2c0.1-0.5,0.2-0.8,0.3-1.2
				c0.8,0.3,1.2,0.5,1.2,0.6c0,0,0,0-0.1,0.1l-0.2,0.1c-0.5,0.9-1,1.5-1.3,1.9c0.2,0.1,0.3,0.3,0.4,0.5s0.1,0.3,0.1,0.4
				c0,0.1,0,0.2-0.1,0.3s-0.1,0.1-0.2,0.1c-0.1,0-0.2,0-0.3-0.1c-0.1-0.3-0.2-0.6-0.5-0.9c-0.2-0.3-0.5-0.6-0.8-0.8l0.1-0.1
				C181.8,480.5,182.1,480.6,182.3,480.7L182.3,480.7L182.3,480.7z M184.6,485.1c0.5,0.3,0.8,0.7,1,1c0.2,0.4,0.3,0.7,0.3,1
				c0,0.2,0,0.3-0.1,0.4s-0.2,0.2-0.3,0.2s-0.2,0-0.3-0.2c0-0.3-0.1-0.7-0.3-1.1s-0.3-0.8-0.5-1.2L184.6,485.1L184.6,485.1z
				 M190.7,480.8c0,0,0-0.1,0.1-0.1s0.1-0.1,0.1-0.1c0,0,0.1,0,0.1,0c0.1,0,0.1,0,0.3,0.2c0.1,0.1,0.3,0.2,0.4,0.4
				c0.1,0.1,0.2,0.2,0.2,0.3c-0.1,0.1-0.3,0.2-0.5,0.2c-0.1,4.4-0.4,6.9-0.9,7.5c-0.3,0.4-0.8,0.6-1.4,0.6c0-0.3-0.1-0.5-0.2-0.6
				c-0.1-0.1-0.2-0.1-0.5-0.2s-0.5-0.1-0.9-0.2v-0.2c1.1,0.1,1.7,0.2,2,0.2c0.1,0,0.2,0,0.3,0s0.1-0.1,0.2-0.1
				c0.4-0.4,0.6-2.7,0.8-7H187c-0.4,0.8-0.8,1.4-1.2,2l-0.2-0.1c0.3-0.6,0.6-1.3,0.9-2.2c0.1-0.4,0.2-0.8,0.3-1.4
				c0.1-0.5,0.1-0.9,0.2-1.3c0.5,0.1,0.8,0.2,1,0.3c0.2,0.1,0.3,0.1,0.3,0.2c0,0,0,0.1-0.1,0.1l-0.2,0.1c-0.2,0.7-0.4,1.3-0.7,1.9
				h3.3L190.7,480.8L190.7,480.8z M187.2,483.1c0.6,0.3,1.1,0.7,1.4,1.1s0.4,0.8,0.4,1.1c0,0.2,0,0.3-0.1,0.4s-0.2,0.2-0.3,0.2
				s-0.2,0-0.3-0.1c0-0.4-0.2-0.8-0.4-1.3s-0.5-0.9-0.8-1.3L187.2,483.1L187.2,483.1z"/>
			<path d="M193.7,488.7c-0.1,0-0.1-0.1-0.1-0.2c0-0.1,0-0.2,0.1-0.2h0.2c0.4,0,0.7-0.1,1-0.2s0.4-0.3,0.4-0.6v-5.8
				c0-0.2,0-0.4-0.1-0.5c0-0.1-0.1-0.1-0.3-0.2c-0.2,0-0.5,0-0.9,0h-0.2c-0.1,0-0.1-0.1-0.1-0.2c0-0.1,0-0.2,0.1-0.2
				c0.5,0,1-0.1,1.4-0.2c0.4-0.1,0.8-0.4,1.1-0.7v7.9c0,0.5,0.4,0.8,1.3,0.8h0.2c0,0,0.1,0,0.1,0s0,0.1,0,0.1c0,0.1,0,0.2-0.1,0.2
				L193.7,488.7L193.7,488.7z"/>
			<path d="M203.7,488.7h-4.4l-0.1-0.3c0.2-0.6,0.5-1.2,0.9-1.7c0.4-0.5,0.8-1.1,1.4-1.8c0.6-0.7,1-1.3,1.3-1.7s0.4-0.9,0.4-1.4
				c0-0.4-0.1-0.8-0.4-1.2c-0.2-0.3-0.6-0.5-1.1-0.5c-0.4,0-0.7,0.1-1,0.3c-0.3,0.2-0.4,0.4-0.4,0.7c0,0.1,0,0.2,0,0.3
				s0.1,0.1,0.1,0.2s0.1,0.2,0.1,0.2c0,0.1,0,0.1,0,0.2c0,0.2-0.1,0.4-0.2,0.5s-0.3,0.2-0.5,0.2c-0.2,0-0.3-0.1-0.4-0.2
				s-0.2-0.4-0.2-0.6c0-0.3,0.1-0.6,0.3-1c0.2-0.3,0.5-0.6,0.8-0.9s0.8-0.4,1.4-0.4c0.6,0,1.1,0.1,1.4,0.4c0.4,0.2,0.6,0.5,0.8,0.9
				s0.2,0.7,0.2,1.1c0,0.3-0.1,0.6-0.2,0.9c-0.1,0.3-0.3,0.5-0.5,0.7c-0.2,0.2-0.5,0.5-0.9,0.9c-0.1,0.1-0.2,0.2-0.3,0.3
				s-0.3,0.3-0.5,0.5c-0.8,0.8-1.4,1.7-1.8,2.5h1.4c0.6,0,1,0,1.3-0.1c0.3-0.1,0.5-0.2,0.7-0.4c0.1-0.2,0.3-0.5,0.4-0.9
				c0,0,0-0.1,0.1-0.1c0,0,0,0,0.1,0c0.1,0,0.1,0,0.1,0s0,0,0,0.1v0.1L203.7,488.7L203.7,488.7z"/>
			<path d="M205.6,488.7c-0.1,0-0.1-0.1-0.1-0.2c0-0.1,0-0.2,0.1-0.2h0.2c0.3,0,0.5-0.1,0.7-0.3s0.3-0.4,0.3-0.7v-6.4
				c0-0.3-0.1-0.5-0.2-0.6s-0.4-0.2-0.8-0.2h-0.2c-0.1,0-0.1-0.1-0.1-0.2s0-0.2,0.1-0.2h2.3l3,7.2l3.2-7.2h2.2c0,0,0.1,0,0.1,0
				s0,0.1,0,0.1c0,0.1,0,0.2-0.1,0.2h-0.2c-0.4,0-0.6,0.1-0.8,0.2c-0.1,0.1-0.2,0.3-0.2,0.6v6.6c0,0.3,0.1,0.5,0.2,0.6
				s0.4,0.2,0.8,0.2h0.2c0.1,0,0.1,0,0.1,0.2c0,0.1,0,0.2-0.1,0.2h-3.4c0,0-0.1-0.1-0.1-0.2c0-0.1,0-0.2,0.1-0.2h0.2
				c0.4,0,0.6-0.1,0.8-0.2s0.2-0.3,0.2-0.6V481l-3.4,7.7h-0.1l-3.3-7.7v6.4c0,0.3,0.1,0.5,0.3,0.7s0.5,0.3,0.7,0.3h0.2
				c0,0,0.1,0,0.1,0.2c0,0.1,0,0.2-0.1,0.2L205.6,488.7L205.6,488.7z"/>
			<path d="M221.1,480.1c0.3,0.1,0.5,0.2,0.5,0.3c0,0-0.1,0.1-0.1,0.1l-0.2,0.1c-0.4,0.8-0.9,1.6-1.5,2.3c-0.6,0.7-1.2,1.2-1.8,1.6
				l-0.1-0.1c0.6-0.6,1.1-1.3,1.6-2.1c0.2-0.4,0.4-0.8,0.6-1.3s0.3-0.9,0.4-1.2L221.1,480.1L221.1,480.1z M226,487.6
				c-0.5-0.8-1.1-1.6-1.8-2.4l0.1-0.1c0.8,0.5,1.4,1,1.9,1.4s0.8,0.9,1,1.4c0.2,0.4,0.3,0.8,0.3,1.1c0,0.2,0,0.3-0.1,0.4
				c-0.1,0.1-0.2,0.1-0.3,0.1s-0.2,0-0.4-0.1c-0.1-0.5-0.4-1-0.7-1.5c-1.8,0.4-4.1,0.8-6.8,1.1c-0.1,0.1-0.2,0.2-0.3,0.2l-0.4-1.1
				c0.6,0,1.3,0,2-0.1c0.4-1,0.8-2.1,1.2-3.3c0.1-0.4,0.2-0.8,0.3-1.2c0.1-0.4,0.1-0.8,0.1-1.1c0.5,0.1,0.8,0.2,1,0.3
				s0.3,0.1,0.3,0.2c0,0,0,0.1-0.1,0.1l-0.2,0.1c-0.2,0.8-0.6,1.6-1,2.5s-0.8,1.7-1.3,2.5C222.6,487.9,224.3,487.8,226,487.6
				L226,487.6z M226.4,481.7c0.7,0.8,1.5,1.4,2.4,1.8l0,0.1c-0.2,0-0.3,0.1-0.5,0.2c-0.1,0.1-0.2,0.3-0.3,0.4
				c-0.8-0.6-1.6-1.3-2.1-2.2c-0.6-0.9-1-1.8-1.3-2.9h-1.1c-0.6,0-1.2,0.1-1.8,0.2l-0.3-0.6c0.4,0,1,0.1,1.6,0.1h1.3l0.4-0.6l1,0.8
				c-0.1,0.1-0.4,0.2-0.8,0.3C225.2,480.2,225.7,481,226.4,481.7L226.4,481.7z"/>
			<path d="M231.9,483.3c0,0,0.1-0.1,0.1-0.1s0.1-0.1,0.1-0.1c0,0,0.1,0,0.1,0c0.1,0,0.1,0.1,0.3,0.2c0.2,0.1,0.3,0.3,0.4,0.4
				s0.2,0.2,0.2,0.3c-0.1,0.1-0.3,0.2-0.6,0.2v3.3c0.3,0.3,0.6,0.6,0.9,0.7s0.7,0.3,1.1,0.3c0.4,0,1,0.1,1.7,0.1c2.1,0,3.7,0,4.6,0
				v0.2c-0.2,0-0.3,0.1-0.4,0.2c-0.1,0.1-0.2,0.3-0.2,0.5h-4c-0.8,0-1.4,0-1.8-0.1c-0.5-0.1-0.9-0.2-1.2-0.5s-0.6-0.6-0.9-1
				c-0.2,0.3-0.5,0.6-0.9,0.9c-0.3,0.3-0.6,0.6-0.9,0.8v0.1c0,0.1,0,0.2-0.1,0.2l-0.6-1c0.5-0.2,1.1-0.5,1.8-1v-3.6h-0.6
				c-0.3,0-0.7,0.1-1,0.2l-0.3-0.6c0.3,0,0.7,0.1,1.2,0.1h0.6L231.9,483.3L231.9,483.3z M230.6,478.9c0.7,0.3,1.2,0.6,1.6,0.9
				s0.5,0.7,0.5,1c0,0.2,0,0.3-0.1,0.4s-0.2,0.1-0.3,0.1c-0.1,0-0.2,0-0.3-0.1c-0.1-0.4-0.2-0.7-0.5-1.1c-0.3-0.4-0.6-0.8-0.9-1.1
				L230.6,478.9L230.6,478.9z M238.8,481.6c0,0,0.1-0.1,0.1-0.1s0.1-0.1,0.1-0.1s0.1,0,0.1,0c0.1,0,0.1,0.1,0.3,0.2
				c0.1,0.1,0.3,0.2,0.4,0.4s0.2,0.2,0.2,0.3c-0.1,0.1-0.2,0.2-0.5,0.2v2.2c0,1,0.1,2,0.1,2.9c-0.1,0.1-0.2,0.2-0.3,0.2
				c-0.2,0.1-0.3,0.1-0.4,0.1c-0.1,0-0.1,0-0.1-0.1s0-0.1,0-0.2c0,0,0-0.1,0.1-0.2v-0.2H235v0.5c0,0-0.1,0.1-0.2,0.2
				s-0.3,0.1-0.4,0.1c-0.1,0-0.1,0-0.2-0.1s-0.1-0.1-0.1-0.2c0.1-0.7,0.1-1.5,0.1-2.4V484c0-1-0.1-1.9-0.2-2.5l1,0.5h0.9
				c0.1-0.4,0.1-0.8,0.2-1.1h-1c-0.6,0-1.2,0.1-1.8,0.2l-0.3-0.6c0.4,0,1,0.1,1.6,0.1h2.6c0.1-0.3,0.3-0.7,0.4-1.1s0.2-0.7,0.2-1
				c0.5,0.1,0.8,0.2,1,0.3c0.2,0.1,0.3,0.1,0.3,0.2c0,0,0,0-0.1,0.1l-0.2,0.1c-0.3,0.5-0.7,1-1.2,1.4h1.6l0.2-0.4
				c0,0,0.1-0.1,0.1-0.2c0-0.1,0.1-0.1,0.1-0.1c0,0,0.1,0,0.1,0c0.1,0,0.1,0.1,0.3,0.2s0.3,0.3,0.4,0.4s0.2,0.2,0.2,0.3
				c0,0.1-0.1,0.2-0.3,0.2h-3.5c-0.2,0.4-0.4,0.8-0.6,1.1h2.1L238.8,481.6L238.8,481.6z M234.7,478.5c0.5,0.2,0.8,0.4,1.1,0.6
				s0.3,0.5,0.3,0.7c0,0.1,0,0.3-0.1,0.4s-0.2,0.1-0.3,0.1c-0.1,0-0.2,0-0.4-0.1c0-0.3-0.1-0.5-0.2-0.9c-0.1-0.3-0.3-0.6-0.5-0.8
				L234.7,478.5L234.7,478.5z M238.8,483.5v-1.2H235v1.2H238.8z M238.8,483.9H235v1.2h3.7V483.9z M235,485.5v1.4h3.7v-1.4H235z"/>
		</g>
		<g>
			<path d="M188,143.6c0.3,0,0.4,0.1,0.4,0.2c0,0,0,0.1-0.1,0.1l-0.2,0.1c-0.1,0.5-0.3,1-0.5,1.4s-0.4,0.8-0.7,1.1l-0.1-0.1
				c0.1-0.2,0.2-0.4,0.3-0.8c0.1-0.4,0.2-0.8,0.3-1.2c0.1-0.4,0.1-0.8,0.1-1.1L188,143.6L188,143.6z M190.1,142
				c-0.2-0.4-0.4-0.6-0.5-0.8l0.1-0.1c0.5,0.3,0.8,0.5,1.1,0.8c0.2,0.3,0.3,0.6,0.3,0.8c0,0.1,0,0.2-0.1,0.3s-0.1,0.1-0.2,0.1
				c-0.1,0-0.2,0-0.3-0.1c0-0.2-0.1-0.5-0.3-0.8c-0.3,0.1-0.6,0.1-0.9,0.2v2.2c0,0.9,0,1.8,0.1,2.6c-0.1,0.1-0.1,0.1-0.2,0.2
				s-0.2,0.1-0.4,0.1c-0.1,0-0.1,0-0.2-0.1s-0.1-0.1-0.1-0.1c0-0.4,0.1-0.8,0.1-1.2c0-0.4,0-0.9,0-1.6v-1.9
				c-0.4,0.1-0.9,0.2-1.3,0.3c-0.1,0.1-0.1,0.2-0.3,0.2l-0.2-0.8c0.2,0,0.6,0,1.1-0.1c0.3-0.4,0.6-0.9,0.9-1.4
				c0.2-0.3,0.4-0.7,0.5-1.1s0.3-0.7,0.3-1c0.7,0.3,1,0.5,1,0.6c0,0,0,0.1-0.1,0.1l-0.2,0.1c-0.2,0.4-0.6,0.9-0.9,1.4
				s-0.7,1-1.1,1.4L190.1,142L190.1,142z M187.8,139.6c0.1-0.3,0.3-0.7,0.4-1.1c0.1-0.4,0.2-0.8,0.2-1.1c0.7,0.3,1,0.4,1,0.5
				c0,0,0,0.1-0.1,0.1l-0.2,0.1c-0.5,0.8-0.9,1.3-1.2,1.7c0.2,0.1,0.3,0.3,0.4,0.4s0.1,0.3,0.1,0.4c0,0.1,0,0.2-0.1,0.3
				c-0.1,0.1-0.1,0.1-0.2,0.1c-0.1,0-0.1,0-0.2-0.1c-0.1-0.2-0.2-0.5-0.4-0.8c-0.2-0.3-0.4-0.5-0.7-0.7l0.1-0.1
				C187.3,139.3,187.6,139.4,187.8,139.6L187.8,139.6L187.8,139.6z M189.8,143.4c0.4,0.3,0.7,0.6,0.9,0.9s0.3,0.6,0.3,0.8
				c0,0.2,0,0.3-0.1,0.4c-0.1,0.1-0.1,0.1-0.2,0.1s-0.2-0.1-0.3-0.1c0-0.3-0.1-0.6-0.2-1c-0.1-0.4-0.3-0.7-0.5-1.1L189.8,143.4
				L189.8,143.4z M195.3,139.6c0,0,0-0.1,0.1-0.1c0-0.1,0.1-0.1,0.1-0.1s0.1,0,0.1,0c0,0,0.1,0.1,0.3,0.1c0.1,0.1,0.2,0.2,0.4,0.3
				c0.1,0.1,0.2,0.2,0.2,0.2c-0.1,0.1-0.2,0.1-0.4,0.2c-0.1,3.9-0.4,6.1-0.8,6.7c-0.3,0.4-0.7,0.5-1.3,0.5c0-0.3-0.1-0.4-0.2-0.5
				c-0.1-0.1-0.2-0.1-0.4-0.2c-0.2-0.1-0.5-0.1-0.8-0.2v-0.2c0.9,0.1,1.5,0.2,1.8,0.2c0.1,0,0.2,0,0.3,0s0.1-0.1,0.2-0.1
				c0.4-0.4,0.6-2.4,0.7-6.2h-3.2c-0.3,0.7-0.7,1.3-1.1,1.7l-0.2-0.1c0.3-0.6,0.6-1.2,0.8-1.9c0.1-0.4,0.2-0.8,0.3-1.2
				s0.1-0.8,0.1-1.1c0.4,0.1,0.7,0.2,0.9,0.3c0.2,0.1,0.2,0.1,0.2,0.2c0,0,0,0.1-0.1,0.1l-0.2,0.1c-0.2,0.6-0.4,1.2-0.6,1.7h2.9
				L195.3,139.6L195.3,139.6z M192.1,141.6c0.6,0.3,1,0.6,1.2,1s0.4,0.7,0.4,1c0,0.2,0,0.3-0.1,0.4s-0.2,0.1-0.3,0.1s-0.2,0-0.3-0.1
				c0-0.4-0.1-0.8-0.4-1.2c-0.2-0.4-0.5-0.8-0.7-1.1L192.1,141.6L192.1,141.6z"/>
			<path d="M192.5,153.8c0.3,0.1,0.6,0.4,0.9,0.8s0.4,0.9,0.4,1.6c0,0.5-0.1,1-0.4,1.4s-0.5,0.7-0.9,0.9c-0.4,0.2-0.7,0.3-1.1,0.3
				c-0.3,0-0.7-0.1-1-0.2c-0.3-0.1-0.6-0.3-0.8-0.6s-0.3-0.5-0.3-0.9c0-0.2,0.1-0.4,0.2-0.5s0.2-0.2,0.4-0.2c0.1,0,0.3,0,0.4,0.1
				c0.1,0.1,0.2,0.2,0.2,0.4c0,0.1,0,0.2-0.1,0.3l0,0.1c0,0.1,0,0.1,0,0.2c0,0.3,0.1,0.5,0.3,0.6c0.2,0.1,0.4,0.2,0.7,0.2
				c0.3,0,0.5-0.1,0.8-0.3s0.4-0.4,0.6-0.8c0.1-0.3,0.2-0.7,0.2-1.2c0-0.7-0.1-1.2-0.4-1.6s-0.6-0.6-1.1-0.6c-0.5,0-1.1,0.4-1.6,1.1
				l-0.3-0.2l0.1-4.1h3.8l-0.1,0.8H190l-0.1,2.9c0.3-0.3,0.6-0.5,0.9-0.7s0.6-0.2,0.9-0.2S192.1,153.7,192.5,153.8L192.5,153.8z"/>
			<path d="M191.2,169.6c-0.1-0.1-0.2-0.2-0.2-0.4s0.1-0.3,0.2-0.4c0.1-0.1,0.2-0.2,0.4-0.2c0.2,0,0.3,0.1,0.4,0.2s0.2,0.2,0.2,0.4
				s-0.1,0.3-0.2,0.4s-0.3,0.2-0.4,0.2S191.3,169.7,191.2,169.6L191.2,169.6z"/>
			<path d="M192.3,176.3c0.4,0.2,0.6,0.4,0.9,0.5c0.2,0.2,0.4,0.4,0.6,0.6s0.2,0.6,0.2,0.9c0,0.4-0.1,0.8-0.3,1.2s-0.5,0.6-0.9,0.8
				s-0.7,0.3-1.1,0.3c-0.4,0-0.8-0.1-1.2-0.3s-0.7-0.4-0.9-0.7s-0.3-0.7-0.3-1.1c0-0.3,0.1-0.6,0.2-0.9c0.1-0.2,0.3-0.4,0.6-0.6
				s0.6-0.4,0.9-0.6c-0.5-0.2-0.9-0.5-1.1-0.8s-0.4-0.7-0.4-1.2c0-0.3,0.1-0.6,0.2-0.9c0.1-0.3,0.4-0.6,0.7-0.7s0.7-0.3,1.1-0.3
				c0.4,0,0.7,0.1,1,0.2s0.6,0.4,0.8,0.6s0.3,0.6,0.3,1c0,0.4-0.1,0.8-0.4,1.1c-0.3,0.3-0.6,0.6-1.1,0.8L192.3,176.3L192.3,176.3z
				 M192.7,179.8c0.3-0.3,0.4-0.7,0.4-1.2c0-0.3-0.1-0.5-0.3-0.8s-0.4-0.4-0.7-0.6c-0.3-0.2-0.6-0.4-1-0.6c-0.3,0.2-0.6,0.5-0.8,0.9
				s-0.3,0.7-0.3,1.1c0,0.3,0.1,0.6,0.2,0.8c0.1,0.3,0.3,0.5,0.5,0.6s0.5,0.2,0.8,0.2C192,180.2,192.4,180.1,192.7,179.8
				L192.7,179.8z M190.3,174.8c0.1,0.2,0.3,0.4,0.5,0.5c0.2,0.1,0.5,0.4,1,0.6c0.6-0.4,0.9-1,0.9-1.7c0-0.2,0-0.4-0.1-0.7
				c-0.1-0.2-0.2-0.4-0.4-0.6s-0.4-0.2-0.8-0.2c-0.3,0-0.5,0.1-0.7,0.2s-0.3,0.3-0.4,0.5s-0.1,0.4-0.1,0.6
				C190.1,174.4,190.2,174.6,190.3,174.8L190.3,174.8z"/>
			<path d="M186.8,191.4c-0.1,0-0.1-0.1-0.1-0.2c0-0.1,0-0.1,0.1-0.1h0.1c0.2,0,0.5-0.1,0.6-0.2s0.3-0.4,0.3-0.6v-5.8
				c0-0.2-0.1-0.4-0.2-0.5s-0.4-0.1-0.7-0.1h-0.1c-0.1,0-0.1-0.1-0.1-0.1s0-0.1,0.1-0.1h2l2.7,6.4l2.8-6.4h1.9c0,0,0.1,0,0.1,0
				c0,0,0,0.1,0,0.1c0,0.1,0,0.1-0.1,0.1h-0.2c-0.3,0-0.6,0.1-0.7,0.1c-0.1,0.1-0.2,0.3-0.2,0.5v5.9c0,0.2,0.1,0.4,0.2,0.5
				s0.4,0.1,0.7,0.1h0.2c0.1,0,0.1,0.1,0.1,0.1c0,0.1,0,0.2-0.1,0.2h-3.1c0,0-0.1-0.1-0.1-0.2c0-0.1,0-0.1,0.1-0.1h0.2
				c0.3,0,0.6-0.1,0.7-0.2c0.1-0.1,0.2-0.3,0.2-0.5v-5.9l-3,6.9h-0.1l-2.9-6.9v5.7c0,0.2,0.1,0.4,0.3,0.6c0.2,0.2,0.4,0.2,0.6,0.2
				h0.2c0,0,0.1,0.1,0.1,0.1c0,0.1,0,0.2-0.1,0.2L186.8,191.4L186.8,191.4z"/>
			<path d="M188.4,197.7c0,0,0.1-0.1,0.1-0.1s0.1-0.1,0.1-0.1s0.1,0,0.1,0c0,0,0.1,0.1,0.3,0.2c0.1,0.1,0.3,0.2,0.4,0.4
				s0.2,0.2,0.2,0.3c-0.1,0.1-0.2,0.2-0.5,0.2v2.9c0.2,0.3,0.5,0.5,0.8,0.6s0.6,0.2,1,0.3c0.4,0.1,0.9,0.1,1.5,0.1
				c1.9,0,3.3,0,4.1,0v0.1c-0.1,0-0.3,0.1-0.4,0.2c-0.1,0.1-0.1,0.2-0.2,0.4h-3.6c-0.7,0-1.2,0-1.6-0.1c-0.4-0.1-0.8-0.2-1.1-0.4
				c-0.3-0.2-0.6-0.5-0.8-0.9c-0.2,0.2-0.5,0.5-0.8,0.8c-0.3,0.3-0.6,0.5-0.8,0.7v0.1c0,0.1,0,0.2-0.1,0.2l-0.5-0.9
				c0.4-0.2,1-0.5,1.6-0.9v-3.2h-0.5c-0.3,0-0.6,0.1-0.9,0.1l-0.3-0.6c0.3,0,0.6,0.1,1.1,0.1h0.5L188.4,197.7L188.4,197.7z
				 M187.3,193.7c0.6,0.2,1.1,0.5,1.4,0.8s0.4,0.6,0.4,0.9c0,0.1,0,0.2-0.1,0.3s-0.1,0.1-0.3,0.1c-0.1,0-0.2,0-0.3-0.1
				c-0.1-0.3-0.2-0.7-0.5-1s-0.5-0.7-0.8-0.9L187.3,193.7L187.3,193.7z M194.6,196.2c0,0,0.1-0.1,0.1-0.1s0.1-0.1,0.1-0.1
				s0.1,0,0.1,0c0,0,0.1,0.1,0.3,0.1s0.2,0.2,0.4,0.3s0.2,0.2,0.2,0.2c-0.1,0.1-0.2,0.2-0.4,0.2v2c0,0.9,0,1.8,0.1,2.6
				c-0.1,0.1-0.1,0.1-0.3,0.2s-0.3,0.1-0.4,0.1c0,0-0.1,0-0.1-0.1c0,0,0-0.1,0-0.1c0,0,0-0.1,0-0.2v-0.2h-3.4v0.4
				c0,0-0.1,0.1-0.2,0.2c-0.1,0.1-0.2,0.1-0.4,0.1c-0.1,0-0.1,0-0.1-0.1c0,0-0.1-0.1-0.1-0.1c0.1-0.6,0.1-1.4,0.1-2.2v-1.2
				c0-0.9-0.1-1.7-0.1-2.2l0.9,0.4h0.9c0.1-0.4,0.1-0.7,0.1-1h-0.9c-0.5,0-1,0.1-1.6,0.1l-0.3-0.6c0.4,0,0.9,0.1,1.4,0.1h2.3
				c0.1-0.3,0.2-0.6,0.3-1s0.2-0.6,0.2-0.9c0.4,0.1,0.7,0.2,0.9,0.3c0.2,0.1,0.2,0.1,0.2,0.2c0,0,0,0.1-0.1,0.1l-0.2,0.1
				c-0.3,0.4-0.6,0.9-1.1,1.2h1.4l0.2-0.3c0,0,0.1-0.1,0.1-0.1c0-0.1,0.1-0.1,0.1-0.1s0.1,0,0.1,0c0,0,0.1,0.1,0.3,0.2
				c0.1,0.1,0.3,0.2,0.4,0.4s0.2,0.2,0.2,0.3c0,0.1-0.1,0.2-0.3,0.2H193c-0.2,0.4-0.3,0.7-0.5,1h1.9L194.6,196.2L194.6,196.2z
				 M190.9,193.3c0.4,0.1,0.7,0.3,0.9,0.6c0.2,0.2,0.3,0.4,0.3,0.6c0,0.1,0,0.2-0.1,0.3s-0.2,0.1-0.3,0.1c-0.1,0-0.2,0-0.3-0.1
				c0-0.2-0.1-0.5-0.2-0.8s-0.3-0.5-0.5-0.7L190.9,193.3L190.9,193.3z M194.6,197.8v-1.1h-3.4v1.1H194.6z M194.6,198.2h-3.4v1.1h3.4
				V198.2z M191.2,199.6v1.2h3.4v-1.2H191.2z"/>
			<path d="M189.2,212.4c0.2,0,0.6-0.2,1.3-0.3l0.4-0.1l0,0.2l-0.2,0.1c-1.2,0.5-2.3,1-3.5,1.4c0,0.1,0,0.1-0.1,0.2
				c0,0.1-0.1,0.1-0.1,0.1l-0.4-0.9c0.2-0.1,0.5-0.1,0.6-0.1V211c0-0.8,0-1.5-0.1-2c0.6,0.2,1,0.3,1,0.4c0,0,0,0.1-0.1,0.1l-0.2,0.1
				v3.1l0.7-0.2v-4.7h-0.6v0.3c0,0-0.1,0.1-0.2,0.1c-0.1,0.1-0.2,0.1-0.4,0.1c-0.1,0-0.1,0-0.1-0.1c0,0-0.1-0.1-0.1-0.1
				c0-0.3,0.1-0.6,0.1-1.1v-0.6c0-0.8,0-1.5-0.1-2l0.9,0.4h1.6l0.1-0.2c0,0,0.1-0.1,0.1-0.1c0.1-0.1,0.1-0.1,0.1-0.1s0.1,0,0.3,0.1
				c0.1,0.1,0.2,0.2,0.4,0.3s0.2,0.2,0.2,0.2c-0.1,0.1-0.2,0.2-0.4,0.2v0.9c0,0.7,0,1.3,0.1,1.7c0,0.1-0.1,0.1-0.3,0.2
				c-0.1,0.1-0.2,0.1-0.4,0.1h-0.1v-0.4h-0.5v1.7h0.4l0.2-0.3c0,0,0.1-0.1,0.1-0.1s0.1-0.1,0.1-0.1s0.1,0,0.1,0c0,0,0.1,0.1,0.3,0.2
				c0.1,0.1,0.2,0.2,0.4,0.3c0.1,0.1,0.2,0.2,0.2,0.3c0,0.1-0.1,0.2-0.3,0.2h-1.4L189.2,212.4L189.2,212.4z M187.9,205.3v2.3h1.8
				v-2.3H187.9z M196.5,209.7l0,0.1c-0.3,0.1-0.5,0.3-0.5,0.6c-0.2-0.1-0.4-0.2-0.6-0.3c0.2,0.2,0.3,0.3,0.3,0.4
				c-0.1,0.1-0.2,0.1-0.4,0.2v1.1c0,0.9,0.1,1.6,0.1,2.1c0,0.1-0.1,0.1-0.2,0.2s-0.3,0.1-0.4,0.1c0,0-0.1,0-0.1-0.1c0,0,0-0.1,0-0.1
				l0-0.3v-0.2H192v0.5c0,0-0.1,0.1-0.2,0.1c-0.1,0.1-0.2,0.1-0.4,0.1c-0.1,0-0.1,0-0.1-0.1c-0.1,0-0.1-0.1-0.1-0.1
				c0-0.4,0.1-0.8,0.1-1.1s0-0.8,0-1.4v-1.4c-0.4,0.2-0.8,0.4-1.2,0.6l-0.1-0.2c1.2-0.6,2.2-1.4,3-2.4c-0.3-0.4-0.6-1-0.9-1.6
				c-0.5,0.7-0.9,1.2-1.5,1.6l-0.1-0.1c0.4-0.4,0.8-1,1.1-1.6c0.2-0.3,0.3-0.7,0.5-1.2s0.2-0.8,0.3-1.1c0.7,0.2,1.1,0.4,1.1,0.5
				c0,0,0,0.1-0.1,0.1l-0.2,0.1c-0.1,0.2-0.2,0.4-0.3,0.7h1.6l0.2-0.2c0,0,0.1-0.1,0.1-0.1c0.1-0.1,0.1-0.1,0.2-0.1
				c0.1,0,0.2,0.1,0.4,0.3c0.2,0.2,0.3,0.3,0.3,0.4c0,0.1-0.1,0.1-0.2,0.1c-0.1,0-0.1,0-0.3,0c-0.4,0.9-0.8,1.6-1.4,2.3
				C194.5,208.8,195.4,209.3,196.5,209.7L196.5,209.7z M194.7,210c0,0,0.1-0.1,0.1-0.1c0-0.1,0.1-0.1,0.1-0.1
				c-0.6-0.3-1.1-0.8-1.5-1.2c-0.5,0.6-1.2,1-1.9,1.4l0.6,0.3h2.4L194.7,210L194.7,210z M192,213.1h2.6v-2.5H192V213.1z
				 M193.3,207.8c0.4-0.6,0.8-1.3,1.1-2h-1.8c-0.1,0.1-0.2,0.3-0.3,0.6C192.6,206.9,192.9,207.4,193.3,207.8L193.3,207.8z"/>
		</g>
		<g>
			<path d="M567.5,115.2c0.1-0.3,0.2-0.7,0.3-1.1s0.1-0.8,0.1-1.1c0.7,0.2,1.1,0.3,1.1,0.4c0,0,0,0.1-0.1,0.1l-0.2,0.1
				c-0.4,0.8-0.7,1.4-1,1.8c0.2,0.1,0.3,0.2,0.4,0.4c0.1,0.1,0.2,0.2,0.2,0.4c0,0.1,0,0.2,0,0.3s-0.1,0.1-0.2,0.1
				c-0.1,0-0.2,0-0.2-0.1c-0.1-0.2-0.3-0.5-0.5-0.7c-0.2-0.2-0.5-0.4-0.8-0.6l0.1-0.1C566.9,115.1,567.2,115.2,567.5,115.2
				L567.5,115.2L567.5,115.2z M570,117.3c-0.2-0.3-0.5-0.6-0.6-0.8l0.1-0.1c0.5,0.2,0.9,0.4,1.2,0.7s0.4,0.5,0.4,0.8
				c0,0.1,0,0.2,0,0.3c0,0.1-0.1,0.1-0.2,0.2s-0.2,0-0.3-0.1c0-0.2-0.2-0.5-0.4-0.8c-0.3,0.1-0.6,0.2-0.8,0.3l0.3,2.2
				c0.1,0.9,0.3,1.7,0.4,2.5c0,0.1-0.1,0.2-0.2,0.2c-0.1,0.1-0.2,0.1-0.4,0.1c-0.1,0-0.1,0-0.2-0.1s-0.1-0.1-0.1-0.1
				c0-0.4,0-0.8-0.1-1.2s-0.1-0.9-0.2-1.6l-0.2-1.9c-0.4,0.1-0.8,0.3-1.3,0.4c0,0.1-0.1,0.2-0.2,0.2l-0.3-0.8c0.2,0,0.6-0.1,1.1-0.2
				c0.2-0.4,0.4-0.9,0.7-1.5c0.1-0.3,0.3-0.7,0.4-1.1c0.1-0.4,0.2-0.7,0.2-1c0.7,0.2,1,0.3,1,0.4c0,0,0,0.1-0.1,0.1l-0.2,0.1
				c-0.2,0.4-0.4,0.9-0.7,1.5c-0.3,0.5-0.6,1.1-0.9,1.5L570,117.3L570,117.3z M568.1,119.2c0.3,0,0.4,0.1,0.4,0.1c0,0,0,0.1-0.1,0.1
				l-0.2,0.1c-0.1,0.5-0.2,1-0.3,1.5s-0.3,0.9-0.5,1.2l-0.2-0.1c0-0.2,0.1-0.4,0.2-0.8c0.1-0.4,0.1-0.8,0.1-1.2c0-0.4,0-0.8,0-1.1
				L568.1,119.2L568.1,119.2z M570,118.8c0.5,0.2,0.8,0.5,1,0.8c0.2,0.3,0.3,0.6,0.4,0.8c0,0.2,0,0.3,0,0.4c0,0.1-0.1,0.2-0.2,0.2
				c-0.1,0-0.2,0-0.3-0.1c-0.1-0.3-0.2-0.6-0.4-1s-0.4-0.7-0.6-1L570,118.8L570,118.8z M574.9,114.3c0,0,0-0.1,0.1-0.1
				c0-0.1,0.1-0.1,0.1-0.1c0,0,0,0,0.1,0c0,0,0.1,0,0.3,0.1s0.3,0.2,0.4,0.3c0.1,0.1,0.2,0.2,0.2,0.2c-0.1,0.1-0.2,0.2-0.4,0.2
				c0.4,3.9,0.4,6.1,0,6.8c-0.3,0.4-0.7,0.6-1.2,0.7c0-0.3-0.1-0.4-0.3-0.5c-0.1-0.1-0.2-0.1-0.5-0.1c-0.2,0-0.5-0.1-0.8-0.1v-0.2
				c0.9,0,1.5,0,1.7-0.1c0.1,0,0.2,0,0.3-0.1c0,0,0.1-0.1,0.2-0.2c0.3-0.4,0.3-2.5-0.1-6.3l-3.2,0.4c-0.2,0.7-0.5,1.3-0.9,1.9
				l-0.2-0.1c0.2-0.6,0.4-1.3,0.6-2c0.1-0.4,0.1-0.8,0.2-1.2s0-0.8,0-1.1c0.4,0.1,0.7,0.1,0.9,0.2s0.3,0.1,0.3,0.1
				c0,0,0,0.1-0.1,0.1l-0.2,0.1c-0.1,0.6-0.2,1.2-0.4,1.8l2.9-0.4L574.9,114.3L574.9,114.3z M572,116.7c0.6,0.2,1.1,0.5,1.4,0.8
				c0.3,0.3,0.5,0.6,0.5,0.9c0,0.2,0,0.3,0,0.4c-0.1,0.1-0.1,0.2-0.2,0.2s-0.2,0-0.3-0.1c-0.1-0.3-0.2-0.7-0.5-1.1
				c-0.3-0.4-0.5-0.8-0.9-1L572,116.7L572,116.7z"/>
			<path d="M574.5,129c0.3,0.2,0.6,0.4,0.8,0.8s0.3,0.7,0.4,1.1c0.1,0.5,0,1-0.1,1.4c-0.1,0.4-0.4,0.8-0.7,1.1
				c-0.3,0.3-0.7,0.5-1.2,0.5c-0.5,0.1-0.9,0-1.3-0.2c-0.4-0.2-0.8-0.6-1-1s-0.5-1-0.5-1.7c-0.1-1-0.1-1.9,0.1-2.7
				c0.2-0.8,0.5-1.4,0.9-1.8s0.8-0.7,1.2-0.7c0.3,0,0.6,0,0.9,0s0.5,0.2,0.6,0.3c0.1,0.1,0.2,0.3,0.2,0.5c0,0.2,0,0.3-0.1,0.4
				s-0.2,0.2-0.3,0.2c-0.2,0-0.3,0-0.4-0.2s-0.2-0.3-0.3-0.5c0-0.2-0.1-0.3-0.2-0.3s-0.2-0.1-0.4-0.1c-0.4,0.1-0.7,0.3-0.9,0.7
				s-0.3,0.9-0.4,1.5c-0.1,0.6-0.1,1.2,0,1.8c0.2-0.4,0.4-0.7,0.7-0.9c0.3-0.2,0.6-0.4,1-0.4C573.8,128.7,574.2,128.8,574.5,129
				L574.5,129z M574.3,133.1c0.2-0.2,0.3-0.5,0.4-0.9s0.1-0.7,0-1.2c-0.1-0.8-0.3-1.2-0.6-1.5s-0.7-0.3-1-0.3
				c-0.3,0-0.6,0.2-0.8,0.4s-0.4,0.6-0.5,1.1c0.1,0.8,0.3,1.5,0.6,2s0.7,0.7,1.3,0.7C573.9,133.4,574.1,133.3,574.3,133.1z"/>
			<path d="M570.2,145.1c-0.1,0-0.1,0-0.1-0.1c0-0.1,0-0.1,0.1-0.1l0.2,0c0.2,0,0.4-0.1,0.6-0.3c0.2-0.2,0.2-0.4,0.2-0.6l-0.7-5.7
				c0-0.2-0.1-0.4-0.3-0.5s-0.4-0.1-0.7-0.1l-0.2,0c0,0-0.1,0-0.1-0.1s0-0.2,0.1-0.2l2-0.2l3.5,6.1l2-6.7l1.9-0.2c0,0,0.1,0,0.1,0
				s0,0.1,0,0.1c0,0.1,0,0.2-0.1,0.2l-0.2,0c-0.3,0-0.6,0.1-0.7,0.2c-0.1,0.1-0.2,0.3-0.1,0.5l0.7,5.9c0,0.2,0.1,0.4,0.3,0.5
				s0.4,0.1,0.7,0.1l0.2,0c0,0,0.1,0,0.1,0.1c0,0.1,0,0.2-0.1,0.2l-3,0.4c0,0-0.1-0.1-0.1-0.1c0-0.1,0-0.1,0-0.1l0.2,0
				c0.3,0,0.6-0.1,0.7-0.2c0.1-0.1,0.2-0.3,0.2-0.6l-0.7-5.9l-2.1,7.2l-0.1,0l-3.8-6.5l0.7,5.7c0,0.2,0.2,0.4,0.4,0.6
				c0.2,0.1,0.4,0.2,0.7,0.2l0.2,0c0,0,0.1,0,0.1,0.1c0,0.1,0,0.2,0,0.2L570.2,145.1L570.2,145.1z"/>
			<path d="M573.5,148.2c0.3,0.1,0.5,0.1,0.5,0.2c0,0,0,0.1-0.1,0.1l-0.2,0.1c-0.3,0.8-0.6,1.5-1,2.2c-0.4,0.7-0.9,1.2-1.4,1.7
				l-0.1-0.1c0.5-0.6,0.8-1.3,1.2-2c0.2-0.3,0.3-0.7,0.4-1.2c0.1-0.5,0.2-0.8,0.2-1.1L573.5,148.2L573.5,148.2z M578.6,154.3
				c-0.5-0.7-1.2-1.3-1.9-1.9l0.1-0.1c0.7,0.3,1.3,0.7,1.8,1.1s0.8,0.7,1.1,1.1s0.4,0.6,0.4,0.9c0,0.2,0,0.3,0,0.4
				c0,0.1-0.1,0.1-0.2,0.2c-0.1,0-0.2,0-0.3-0.1c-0.2-0.4-0.4-0.8-0.8-1.3c-1.6,0.5-3.6,1.1-5.9,1.8c0,0.1-0.1,0.2-0.2,0.2l-0.5-1
				c0.6-0.1,1.1-0.2,1.7-0.3c0.3-0.9,0.5-1.9,0.7-3c0.1-0.4,0.1-0.8,0.1-1.1c0-0.4,0-0.7,0-1c0.4,0.1,0.8,0.1,0.9,0.2
				s0.3,0.1,0.3,0.1c0,0,0,0.1-0.1,0.1l-0.2,0.1c-0.1,0.7-0.3,1.5-0.6,2.3c-0.3,0.8-0.5,1.6-0.9,2.3
				C575.6,154.9,577.1,154.6,578.6,154.3L578.6,154.3z M578.3,149c0.7,0.6,1.5,1,2.3,1.3v0.1c-0.2,0.1-0.3,0.1-0.4,0.3
				c-0.1,0.1-0.2,0.3-0.2,0.4c-0.8-0.4-1.5-1-2.2-1.7s-1.1-1.5-1.5-2.4l-1,0.1c-0.5,0.1-1,0.2-1.6,0.4l-0.4-0.5c0.4,0,0.9,0,1.5-0.1
				l1.2-0.1l0.3-0.6l1,0.6c-0.1,0.1-0.3,0.2-0.7,0.3C577,147.8,577.6,148.4,578.3,149L578.3,149z"/>
			<path d="M572.3,158.2c0.7,0.1,1.2,0.4,1.5,0.6c0.3,0.3,0.5,0.6,0.5,0.8c0,0.1,0,0.2-0.1,0.3s-0.1,0.1-0.2,0.2
				c-0.1,0-0.2,0-0.3-0.1c-0.1-0.3-0.3-0.6-0.6-1C572.8,158.8,572.5,158.5,572.3,158.2L572.3,158.2L572.3,158.2z M573.9,162
				c0,0,0-0.1,0.1-0.1c0-0.1,0-0.1,0.1-0.1c0,0,0-0.1,0.1-0.1c0,0,0.1,0,0.3,0.1s0.3,0.2,0.5,0.3s0.2,0.2,0.2,0.2
				c-0.1,0.1-0.2,0.2-0.5,0.3l0.4,2.9c0.3,0.3,0.6,0.4,0.8,0.6s0.6,0.2,1,0.2s0.9,0,1.5-0.1c1.9-0.2,3.3-0.4,4.1-0.6l0,0.1
				c-0.1,0.1-0.2,0.1-0.3,0.2s-0.1,0.2-0.1,0.4l-3.6,0.4c-0.7,0.1-1.2,0.1-1.6,0.1c-0.4,0-0.8-0.1-1.1-0.3c-0.3-0.2-0.6-0.4-0.9-0.8
				c-0.2,0.3-0.4,0.6-0.7,0.9s-0.5,0.6-0.7,0.8v0.1c0,0.1,0,0.2-0.1,0.2l-0.6-0.9c0.4-0.2,0.9-0.6,1.5-1.1l-0.4-3.2l-0.5,0.1
				c-0.3,0-0.6,0.1-0.9,0.3l-0.3-0.5c0.3,0,0.6,0,1,0l0.5-0.1L573.9,162L573.9,162z M579.9,159.7c0,0,0-0.1,0.1-0.1s0-0.1,0.1-0.1
				c0,0,0,0,0.1,0c0,0,0.1,0,0.3,0.1s0.3,0.2,0.4,0.3s0.2,0.2,0.2,0.2c-0.1,0.1-0.2,0.2-0.4,0.3l0.2,2c0.1,0.9,0.3,1.7,0.4,2.5
				c0,0.1-0.1,0.2-0.3,0.2s-0.3,0.1-0.4,0.1c0,0-0.1,0-0.1-0.1c0,0,0-0.1,0-0.1c0,0,0-0.1,0-0.2l0-0.2l-3.3,0.4l0,0.4
				c0,0,0,0.1-0.2,0.2c-0.1,0.1-0.2,0.1-0.4,0.1c-0.1,0-0.1,0-0.2-0.1c0,0-0.1-0.1-0.1-0.1c0-0.7-0.1-1.4-0.2-2.1l-0.2-1.2
				c-0.1-0.9-0.2-1.6-0.4-2.2l0.9,0.3l0.8-0.1c0-0.4,0-0.7,0-1l-0.8,0.1c-0.5,0.1-1,0.2-1.6,0.4l-0.3-0.5c0.4,0,0.9,0,1.5-0.1
				l2.3-0.3c0.1-0.3,0.2-0.6,0.2-1s0.1-0.7,0.1-0.9c0.4,0.1,0.7,0.1,0.9,0.2c0.2,0.1,0.3,0.1,0.3,0.1c0,0,0,0.1-0.1,0.1l-0.2,0.1
				c-0.2,0.5-0.5,0.9-0.9,1.4l1.4-0.2l0.2-0.3c0,0,0-0.1,0.1-0.2s0.1-0.1,0.1-0.1c0,0,0-0.1,0.1-0.1c0,0,0.1,0,0.3,0.1
				c0.2,0.1,0.3,0.2,0.4,0.3c0.1,0.1,0.2,0.2,0.2,0.2c0,0.1-0.1,0.2-0.2,0.2l-3.1,0.4c-0.1,0.4-0.2,0.8-0.4,1.1l1.9-0.2L579.9,159.7
				L579.9,159.7z M575.9,157.4c0.4,0.1,0.8,0.2,1,0.4c0.2,0.2,0.3,0.4,0.4,0.6c0,0.1,0,0.2-0.1,0.4c-0.1,0.1-0.2,0.1-0.2,0.2
				c-0.1,0-0.2,0-0.3-0.1c0-0.2-0.1-0.5-0.3-0.7C576.1,157.9,576,157.6,575.9,157.4L575.9,157.4L575.9,157.4z M580,161.4l-0.1-1.1
				l-3.3,0.4l0.1,1.1L580,161.4z M580.1,161.7l-3.3,0.4l0.1,1.1l3.3-0.4L580.1,161.7z M576.9,163.6l0.2,1.2l3.3-0.4l-0.2-1.2
				L576.9,163.6z"/>
		</g>
		<g>
			<path class="st5" d="M326.2,406.7c0.5,0,1.1,0.1,1.8,0.1h1.8c0.1-0.4,0.3-0.8,0.4-1.3s0.1-0.9,0.1-1.2h-1.5c-0.6,0-1.3,0.1-2,0.2
				l-0.3-0.6c0.5,0,1,0.1,1.7,0.1h0.8c0-0.8,0-1.3-0.1-1.8c0.8,0.2,1.2,0.4,1.2,0.5c0,0,0,0.1-0.1,0.1l-0.2,0.1v1h1l0.2-0.4
				c0,0,0.1-0.1,0.1-0.2s0.1-0.1,0.1-0.2s0.1,0,0.1,0c0,0,0.2,0.1,0.3,0.2s0.3,0.3,0.5,0.4c0.1,0.1,0.2,0.2,0.2,0.3
				c0,0.1-0.1,0.2-0.3,0.2h-1.7c0.5,0.1,0.8,0.2,1,0.3s0.3,0.1,0.3,0.2c0,0,0,0.1-0.1,0.1l-0.2,0.1c-0.4,0.7-0.8,1.3-1.2,1.9h1
				l0.2-0.4c0,0,0.1-0.1,0.1-0.2s0.1-0.1,0.1-0.2c0,0,0.1-0.1,0.1-0.1c0,0,0.2,0.1,0.3,0.2s0.3,0.3,0.5,0.4c0.1,0.1,0.2,0.2,0.2,0.3
				s0,0.1-0.1,0.1c-0.1,0-0.1,0-0.2,0h-3.8c-0.6,0-1.3,0.1-2,0.2L326.2,406.7L326.2,406.7z M330.6,410.8c-0.3-0.3-0.6-0.6-0.9-0.9
				v1.3c0,1.1,0.1,1.9,0.1,2.5c0,0.1-0.1,0.2-0.3,0.2s-0.3,0.1-0.4,0.1c-0.1,0-0.1,0-0.2-0.1s-0.1-0.1-0.1-0.2
				c0-0.7,0.1-1.5,0.1-2.2v-1.2c-0.6,1.1-1.5,2-2.5,2.7l-0.1-0.2c0.5-0.5,0.9-1.1,1.3-1.7s0.7-1.3,1-2h-0.7c-0.4,0-0.8,0.1-1.2,0.2
				l-0.4-0.7c0.5,0,1.1,0.1,1.8,0.1h0.8c0-0.6,0-1.1-0.1-1.5c0.8,0.2,1.2,0.4,1.2,0.5c0,0,0,0.1-0.1,0.1l-0.2,0.1v0.7h1.2l0.2-0.4
				c0,0,0.1-0.1,0.1-0.1c0-0.1,0.1-0.1,0.1-0.1c0,0,0.1,0,0.1,0c0,0,0.2,0.1,0.3,0.2c0.2,0.1,0.3,0.2,0.4,0.4
				c0.1,0.1,0.2,0.2,0.2,0.3c0,0.1-0.1,0.2-0.3,0.2h-2.4v0.6h0c0.7,0.2,1.2,0.4,1.6,0.7s0.5,0.6,0.5,0.9c0,0.1,0,0.2-0.1,0.3
				c-0.1,0.1-0.2,0.1-0.3,0.1s-0.2,0-0.3-0.1C331.1,411.5,330.9,411.2,330.6,410.8L330.6,410.8z M328.1,406.5c0-0.3-0.1-0.6-0.2-1
				s-0.3-0.7-0.4-1l0.1-0.1c0.4,0.3,0.7,0.6,0.9,0.9c0.2,0.3,0.3,0.6,0.3,0.8c0,0.2,0,0.3-0.1,0.4s-0.2,0.2-0.3,0.2
				C328.3,406.6,328.2,406.6,328.1,406.5L328.1,406.5z M337.5,406c0.2,0.1,0.3,0.3,0.5,0.4c0.1,0.2,0.2,0.3,0.2,0.3
				c0,0.1-0.1,0.2-0.3,0.2h-1.4v3.6c0,1.1,0,2.1,0.1,3.1c-0.1,0.1-0.2,0.2-0.3,0.2c-0.1,0.1-0.3,0.1-0.5,0.1c-0.1,0-0.1,0-0.2-0.1
				s-0.1-0.1-0.1-0.2c0-0.5,0.1-1,0.1-1.5c0-0.5,0-1.1,0-1.9V407h-1.9v0.4c0,0.9-0.1,1.8-0.2,2.5s-0.4,1.5-0.8,2.2
				c-0.4,0.7-1,1.3-1.9,1.9l-0.2-0.2c0.6-0.5,1.1-1.2,1.4-1.8c0.3-0.7,0.6-1.4,0.7-2.1c0.1-0.7,0.2-1.6,0.2-2.5v-2.1
				c0-0.9,0-1.6-0.1-2.2l1.1,0.4c0,0,0.3-0.1,0.6-0.2c0.4-0.2,0.9-0.4,1.3-0.6c0.4-0.2,0.8-0.5,1-0.7c0.6,0.6,0.9,0.9,0.9,1
				c0,0.1-0.1,0.1-0.2,0.1l-0.3,0c-0.4,0.2-1,0.3-1.6,0.5c-0.6,0.2-1.3,0.3-1.9,0.4v2.8h2.7l0.3-0.4c0,0,0.1-0.1,0.1-0.2
				s0.1-0.1,0.1-0.2s0.1-0.1,0.1-0.1C337.2,405.8,337.4,405.9,337.5,406L337.5,406z"/>
			<path class="st5" d="M341.7,403.9c-0.6,0.7-1.2,1.3-2,1.7l-0.1-0.2c0.3-0.2,0.5-0.5,0.8-0.9c0.3-0.3,0.5-0.8,0.7-1.3
				c0.2-0.5,0.4-0.9,0.5-1.3c0.8,0.4,1.2,0.6,1.2,0.7c0,0,0,0.1-0.1,0.1l-0.2,0c-0.2,0.4-0.4,0.6-0.5,0.8h2.4l0.2-0.3
				c0,0,0.1-0.1,0.1-0.1s0.1-0.1,0.1-0.1c0,0,0.1-0.1,0.1-0.1c0.1,0,0.3,0.1,0.5,0.4s0.4,0.4,0.4,0.5c0,0.1-0.1,0.2-0.3,0.2H343
				c0.2,0.1,0.4,0.3,0.5,0.5c0.1,0.2,0.2,0.3,0.2,0.5c0,0.1,0,0.2-0.1,0.3c-0.1,0.1-0.2,0.1-0.3,0.1s-0.2,0-0.4-0.1
				c0-0.2-0.1-0.4-0.1-0.7s-0.2-0.5-0.3-0.6L341.7,403.9L341.7,403.9z M346.4,410.8c0.6,0.5,1.4,0.9,2.3,1.2s1.9,0.6,2.8,0.8l0,0.1
				c-0.2,0-0.3,0.1-0.5,0.2s-0.2,0.3-0.3,0.5c-1-0.3-1.9-0.6-2.7-1.1s-1.5-1.1-2.1-1.8h0v1c0,0.8,0,1.4,0.1,1.9
				c0,0.1-0.1,0.2-0.3,0.2c-0.2,0.1-0.3,0.1-0.5,0.1c-0.1,0-0.1,0-0.2-0.1s-0.1-0.1-0.1-0.2c0-0.4,0.1-1,0.1-1.7v-1
				c-0.6,0.6-1.4,1.2-2.3,1.6c-0.9,0.5-2,0.8-3.1,1.1l-0.1-0.2c0.9-0.3,1.8-0.7,2.6-1.2s1.5-1,2-1.6h-2.1c-0.6,0-1.3,0.1-2,0.2
				l-0.4-0.7c0.5,0,1.1,0.1,1.8,0.1h3.6c0-0.5,0-0.9-0.1-1.3c0.5,0.1,0.8,0.2,1,0.3s0.3,0.1,0.3,0.2c0,0,0,0.1-0.1,0.1l-0.2,0.1v0.5
				h3.6l0.3-0.4c0,0,0.1-0.1,0.1-0.2s0.1-0.1,0.1-0.2c0,0,0.1,0,0.1,0c0,0,0.2,0.1,0.4,0.2s0.3,0.2,0.5,0.4c0.2,0.1,0.2,0.2,0.2,0.3
				c0,0.1-0.1,0.2-0.4,0.2L346.4,410.8L346.4,410.8z M339.8,408.8c0.5-0.1,1.2-0.2,2.2-0.4v-2.1h-0.6c-0.3,0-0.7,0.1-1,0.2l-0.3-0.7
				c0.5,0,1.1,0.1,1.8,0.1h1.5l0.2-0.3c0,0,0.1-0.1,0.1-0.2c0.1-0.1,0.1-0.1,0.2-0.1s0.2,0,0.3,0.2c0.2,0.1,0.3,0.2,0.4,0.4
				s0.2,0.2,0.2,0.3c0,0.1-0.1,0.2-0.3,0.2h-1.7v1.9c0.7-0.1,1.3-0.2,1.9-0.4l0,0.2c-1.3,0.5-2.6,0.9-4.1,1.4c0,0.2-0.1,0.3-0.3,0.3
				L339.8,408.8L339.8,408.8z M344.9,405.1c0.2-0.2,0.4-0.4,0.5-0.6c0.3-0.3,0.5-0.8,0.8-1.2c0.2-0.5,0.4-0.9,0.5-1.3
				c0.8,0.3,1.2,0.5,1.2,0.6c0,0,0,0.1-0.1,0.1l-0.2,0.1c-0.2,0.3-0.3,0.5-0.5,0.8h2.8l0.2-0.4c0,0,0.1-0.1,0.1-0.2s0.1-0.1,0.1-0.2
				s0.1,0,0.1,0c0,0,0.2,0.1,0.3,0.2s0.3,0.3,0.5,0.4c0.1,0.1,0.2,0.2,0.2,0.3c0,0.1-0.1,0.2-0.3,0.2h-2.9c0.3,0.1,0.5,0.3,0.6,0.5
				c0.1,0.2,0.2,0.3,0.2,0.5c0,0.1,0,0.2-0.1,0.3s-0.2,0.1-0.3,0.1s-0.2,0-0.4-0.1c0-0.2-0.1-0.4-0.2-0.7s-0.3-0.5-0.4-0.7h-0.9
				c-0.4,0.5-0.8,0.9-1.3,1.2l1,0.5h2.2l0.2-0.3c0,0,0.1-0.1,0.1-0.2s0.1-0.1,0.2-0.1c0.1,0,0.2,0.1,0.5,0.4s0.4,0.4,0.4,0.5
				c-0.1,0.1-0.2,0.1-0.4,0.2v2.3c0,0.1,0,0.1,0,0.1c0,0,0.1,0,0.2,0h0.5c0.2,0,0.4,0,0.4,0c0,0,0.1,0,0.1,0c0,0,0,0,0.1-0.1
				c0.1-0.2,0.2-0.6,0.3-1.2h0.1l0,1.2c0.1,0,0.2,0.1,0.2,0.1s0.1,0.1,0.1,0.2c0,0.2-0.1,0.3-0.3,0.4c-0.2,0.1-0.6,0.1-1.1,0.1h-0.6
				c-0.3,0-0.5,0-0.6-0.2c-0.1-0.1-0.1-0.3-0.1-0.6V406h-2.5v0.9c0,0.4-0.1,0.8-0.2,1.2c-0.1,0.4-0.4,0.7-0.9,1
				c-0.4,0.3-1.1,0.6-1.9,0.8l-0.1-0.2c0.9-0.4,1.5-0.8,1.9-1.2c0.3-0.5,0.5-1,0.5-1.6V406c0-0.4,0-0.6,0-0.9l-0.3,0.2L344.9,405.1
				L344.9,405.1z M346.5,406.6c0.6,0.1,1.1,0.3,1.4,0.5c0.3,0.2,0.5,0.5,0.5,0.7c0,0.1,0,0.2-0.1,0.3s-0.1,0.1-0.3,0.1
				c-0.1,0-0.2,0-0.3-0.1c-0.1-0.2-0.2-0.5-0.5-0.8s-0.5-0.5-0.8-0.7L346.5,406.6L346.5,406.6z"/>
			<path class="st5" d="M355.6,409.1c-0.1,1-0.3,1.9-0.7,2.8s-1,1.6-1.9,2.2l-0.2-0.1c0.8-0.8,1.2-1.7,1.5-2.7s0.4-2.1,0.4-3.4v-1.5
				c0-0.6,0-1.1-0.1-1.5l1.1,0.5h6.4l0.2-0.3c0,0,0.1-0.1,0.1-0.1s0.1-0.1,0.2-0.1s0.2,0,0.3,0.2s0.3,0.2,0.5,0.4s0.2,0.2,0.2,0.3
				c-0.1,0.1-0.3,0.2-0.5,0.3v1.3c0,1.1,0.1,1.9,0.1,2.4c0,0.1-0.2,0.2-0.4,0.2s-0.3,0.1-0.5,0.1c-0.1,0-0.1,0-0.1-0.1s0-0.1,0-0.2
				c0,0,0-0.1,0-0.3v-0.3L355.6,409.1L355.6,409.1z M355.6,403.6c-0.6,0-1.3,0.1-2,0.2l-0.4-0.7c0.5,0,1.1,0.1,1.8,0.1h7.8l0.3-0.4
				c0,0,0.1-0.1,0.1-0.2c0.1-0.1,0.1-0.1,0.1-0.2s0.1-0.1,0.1-0.1c0,0,0.2,0.1,0.4,0.2c0.2,0.1,0.4,0.3,0.5,0.5s0.2,0.3,0.2,0.3
				c0,0.1-0.1,0.2-0.3,0.2L355.6,403.6L355.6,403.6z M355.6,407.8c0,0.4,0,0.7,0,0.9h6.7v-3h-6.7L355.6,407.8L355.6,407.8z"/>
			<path class="st5" d="M368.8,402.9c0,0,0.1-0.1,0.1-0.1s0.1-0.1,0.1-0.1s0.1,0,0.1,0c0.1,0,0.2,0.1,0.5,0.4s0.4,0.4,0.4,0.5
				c-0.1,0.1-0.3,0.2-0.6,0.2c-0.5,1.2-1.1,2.3-1.5,3.2h1.1l0.2-0.2c0,0,0.1-0.1,0.1-0.1s0.1-0.1,0.2-0.1c0.1,0,0.3,0.1,0.5,0.3
				s0.4,0.4,0.4,0.5c0,0.1-0.1,0.1-0.2,0.1s-0.2,0-0.3,0.1c-0.2,1.5-0.5,2.8-1,3.8c0.4,0.5,0.9,0.8,1.4,1.1c0.5,0.2,1.1,0.4,1.8,0.5
				c0.7,0.1,1.5,0.1,2.5,0.1c1.7,0,2.9,0,3.5,0v0.2c-0.2,0-0.3,0.1-0.4,0.2s-0.1,0.3-0.2,0.4h-3c-1,0-1.9-0.1-2.6-0.2
				c-0.7-0.1-1.3-0.3-1.9-0.6c-0.5-0.3-1-0.7-1.4-1.3c-0.6,1-1.4,1.8-2.4,2.4l-0.1-0.2c0.9-0.7,1.6-1.7,2.1-2.9
				c-0.3-0.5-0.5-1.2-0.8-2c-0.3,0.5-0.5,0.9-0.7,1.2c0,0,0,0.1,0,0.1c0,0.1,0,0.1,0,0.2l-0.6-0.6c0.6-0.5,1-1,1.2-1.3l0.1-0.6
				l0.5,0.1l-0.4,0.5c0.2,0.7,0.5,1.3,0.8,1.8c0.3-0.9,0.5-2,0.6-3.2h-1.4c0,0-0.1,0.2-0.2,0.4l-0.1,0.3c-0.1,0-0.2,0-0.2,0
				c-0.1,0-0.3,0-0.5-0.1c0.4-0.7,0.7-1.4,1.1-2.2s0.7-1.5,0.9-2.1h-0.7c-0.4,0-0.8,0.1-1.3,0.2l-0.4-0.7c0.4,0,1,0.1,1.6,0.1h0.8
				L368.8,402.9L368.8,402.9z M375.9,403.2c0,0,0.1-0.1,0.1-0.2c0.1-0.1,0.1-0.1,0.2-0.1s0.2,0.1,0.3,0.2s0.3,0.2,0.4,0.4
				s0.2,0.2,0.2,0.3c0,0-0.1,0.1-0.2,0.1c-0.1,0-0.2,0.1-0.3,0.1v1.2h0.2l0.2-0.4c0,0,0-0.1,0.1-0.2s0.1-0.1,0.1-0.2
				c0,0,0.1,0,0.1,0c0.1,0,0.2,0.1,0.5,0.4s0.4,0.4,0.4,0.5c0,0.1-0.1,0.2-0.3,0.2h-1.3v1c0,0.3,0,0.5,0.1,0.8
				c0,0.1-0.1,0.2-0.3,0.2c-0.2,0.1-0.3,0.1-0.5,0.1h-0.1v-0.4h-1.9v1.3h1.9l0.2-0.4c0,0,0.1-0.1,0.1-0.1c0,0,0.1-0.1,0.1-0.1
				c0,0,0.1-0.1,0.1-0.1c0,0,0.2,0.1,0.3,0.2c0.2,0.1,0.3,0.2,0.5,0.4c0.1,0.1,0.2,0.2,0.2,0.3c0,0.1,0,0.1-0.1,0.2
				c-0.1,0-0.1,0-0.2,0h-3.1v1.4h2.3l0.3-0.4c0,0,0.1-0.1,0.1-0.2s0.1-0.1,0.1-0.2s0.1-0.1,0.1-0.1c0,0,0.2,0.1,0.4,0.2
				s0.3,0.3,0.5,0.4c0.1,0.1,0.2,0.3,0.2,0.3c0,0.1-0.1,0.2-0.3,0.2h-3.6v0.5l0,0.4c0,0.1,0,0.3,0,0.5c0,0.1-0.1,0.2-0.2,0.2
				s-0.3,0.1-0.5,0.1c-0.1,0-0.1,0-0.2-0.1c0,0-0.1-0.1-0.1-0.2c0-0.2,0-0.4,0-0.6c0-0.1,0-0.2,0-0.3v-0.6H372c-0.6,0-1.3,0.1-2,0.2
				l-0.3-0.7c0.5,0,1.1,0.1,1.8,0.1h1.6v-1.4h-0.9c-0.5,0-1.1,0.1-1.6,0.2l-0.4-0.7c0.5,0,1.1,0.1,1.8,0.1h1.1v-1.3h-0.8
				c-0.5,0-1,0.1-1.5,0.2l-0.4-0.7c0.5,0,1.1,0.1,1.8,0.1h1v-1.4h-1.3c-0.6,0-1.3,0.1-2,0.2l-0.4-0.7c0.5,0,1.1,0.1,1.8,0.1h1.8
				v-1.3h-0.8c-0.5,0-1,0.1-1.5,0.2l-0.4-0.6c0.5,0,1.1,0.1,1.8,0.1h0.9c0-0.6,0-1.1-0.1-1.5c0.5,0.1,0.8,0.2,1,0.3
				c0.2,0.1,0.3,0.2,0.3,0.2c0,0,0,0.1-0.1,0.1l-0.2,0.2v0.6h1.8L375.9,403.2L375.9,403.2z M375.8,403.9h-1.9v1.3h1.9V403.9z
				 M373.9,406.9h1.9v-1.4h-1.9V406.9z"/>
		</g>
		<path d="M499.4,358.6l0.1-0.2c0.5,0.3,0.9,0.5,1.1,0.6c0.1,0,0.2,0.1,0.2,0.1c0,0,0.1,0,0.1,0.1c0.1,0.2,0.1,0.4,0.1,0.6
			c0,0,0,0.1,0,0.1l0.4,1.8l0,0.3c0.1,0.4,0.1,0.7,0.2,1c0.1,0.3,0.2,0.8,0.4,1.7l0.4,2c0,0.2,0.1,0.4,0.2,0.7l0-0.1
			c0.2-0.5,0.4-0.7,0.4-0.7l0.2-0.3l0.3-0.5l0.1-0.2c0.1-0.1,0.3-0.6,0.7-1.3c0-0.1,0.1-0.3,0.3-0.6c0.1-0.3,0.3-0.5,0.4-0.7
			c0.2-0.4,0.3-0.6,0.3-0.7c0-0.1-0.1-0.2-0.3-0.4c-0.1,0-0.1-0.1-0.3-0.2c-0.1-0.1-0.2-0.1-0.2-0.2s0-0.1,0-0.1
			c0,0,0.1-0.1,0.1-0.1c0.1,0,0.2,0.1,0.3,0.1c0.1,0,0.2,0.1,0.3,0.2c0.1,0.1,0.2,0.2,0.4,0.2c0.1,0.1,0.4,0.2,0.7,0.4
			c0.2,0.1,0.3,0.2,0.4,0.2l0.1,0l-0.1,0.1c-0.1,0-0.1,0-0.2-0.1c-0.1,0-0.2-0.1-0.3-0.1c-0.1,0-0.2,0-0.3,0c-0.1,0-0.2,0.1-0.3,0.2
			l-0.9,1.6l-0.4,0.7l-0.1,0.2l-0.5,1c-0.4,0.7-0.7,1.3-1,1.8c-0.1,0.1-0.2,0.3-0.4,0.7l-0.2-0.1c0-0.2-0.2-0.9-0.5-2
			c-0.1-0.2-0.1-0.4-0.1-0.5l-0.1-0.7c-0.1-0.3-0.1-0.5-0.1-0.5c0-0.1,0-0.1,0-0.2c-0.1-0.6-0.3-1.4-0.5-2.4
			c-0.1-0.3-0.1-0.6-0.2-1.2c-0.1-0.3-0.1-0.5-0.1-0.6c0-0.1-0.1-0.2-0.1-0.3l-0.1,0.2c-0.4,0.6-0.9,1.5-1.5,2.7l-0.9,1.7
			c-0.1,0.1-0.1,0.3-0.2,0.4l0.1,0.1c0.3,0.2,0.6,0.4,0.9,0.7c0,0,0,0.1,0,0.1l-0.1,0.2c-0.1,0-0.1,0-0.1,0c0,0-0.1,0-0.1-0.1
			c-0.3-0.2-0.7-0.5-1.2-0.7c-0.3-0.2-0.6-0.4-0.9-0.5l-0.1,0c0,0-0.1,0-0.1-0.1l0.1-0.1l0.2,0l0.2,0.1c0.2,0.1,0.4,0.1,0.5,0.2
			c0.1,0,0.1,0,0.2,0c0.2-0.2,0.4-0.5,0.6-1c0.1-0.2,0.3-0.6,0.6-1.1l0.4-0.7l0.8-1.4c0.4-0.6,0.6-1,0.6-1.1c0-0.1,0-0.1,0-0.2
			c-0.1-0.2-0.2-0.3-0.4-0.5C499.6,358.7,499.5,358.6,499.4,358.6L499.4,358.6z"/>
		<rect y="0" class="st6" width="630" height="527"/>
	</g>
</g>
<g>
	<g>
		<rect x="240.8" y="286.9" class="st7" width="63.6" height="27.2"/>
		<g>
			<g>
				<path class="st5" d="M246.6,299.3c0.5,0.1,1.1,0.1,1.8,0.1h1.8c0.1-0.4,0.3-0.8,0.4-1.3s0.1-0.9,0.2-1.2h-1.5
					c-0.6,0-1.3,0.1-2,0.2l-0.3-0.7c0.5,0.1,1,0.1,1.7,0.1h0.8c0-0.7,0-1.3-0.1-1.8c0.8,0.2,1.3,0.4,1.3,0.5c0,0,0,0.1-0.1,0.1
					l-0.2,0.1v1h1l0.3-0.4c0,0,0.1-0.1,0.1-0.2c0-0.1,0.1-0.1,0.1-0.2c0,0,0.1-0.1,0.1-0.1c0.1,0,0.2,0.1,0.3,0.2s0.3,0.3,0.5,0.4
					c0.1,0.1,0.2,0.2,0.2,0.3c0,0.1-0.1,0.2-0.3,0.2h-1.7c0.5,0.1,0.8,0.2,0.9,0.3c0.2,0.1,0.3,0.1,0.3,0.2c0,0,0,0.1-0.1,0.1
					l-0.2,0.1c-0.4,0.7-0.8,1.3-1.2,1.8h1.1l0.3-0.4c0,0,0.1-0.1,0.1-0.2s0.1-0.1,0.1-0.2c0,0,0.1-0.1,0.1-0.1
					c0.1,0,0.2,0.1,0.3,0.2s0.3,0.3,0.5,0.4c0.1,0.1,0.2,0.3,0.2,0.3c0,0.1,0,0.1-0.1,0.1c-0.1,0-0.1,0.1-0.2,0.1H249
					c-0.6,0-1.3,0.1-2,0.2L246.6,299.3z M251.1,303.4c-0.3-0.3-0.6-0.6-0.9-0.9v1.3c0,1.1,0.1,1.9,0.1,2.5c0,0.1-0.1,0.2-0.3,0.2
					c-0.2,0.1-0.3,0.1-0.4,0.1c-0.1,0-0.1,0-0.2-0.1c-0.1-0.1-0.1-0.1-0.1-0.2c0.1-0.7,0.1-1.5,0.1-2.2v-1.2c-0.6,1.1-1.5,2-2.5,2.7
					l-0.1-0.2c0.5-0.5,0.9-1.1,1.3-1.7s0.7-1.3,1-2h-0.7c-0.4,0-0.8,0.1-1.2,0.2l-0.3-0.7c0.5,0.1,1.1,0.1,1.8,0.1h0.8
					c0-0.6,0-1.1-0.1-1.5c0.8,0.2,1.2,0.4,1.2,0.5c0,0,0,0.1-0.1,0.1l-0.2,0.1v0.7h1.2l0.3-0.4c0,0,0.1-0.1,0.1-0.1
					c0-0.1,0.1-0.1,0.1-0.1c0,0,0.1-0.1,0.1-0.1c0.1,0,0.2,0.1,0.3,0.2c0.2,0.1,0.3,0.3,0.4,0.4c0.1,0.1,0.2,0.2,0.2,0.3
					c0,0.1-0.1,0.2-0.3,0.2h-2.4v0.6l0,0c0.7,0.2,1.2,0.4,1.6,0.7c0.3,0.3,0.5,0.6,0.5,0.9c0,0.1,0,0.3-0.1,0.3
					c-0.1,0.1-0.2,0.1-0.3,0.1s-0.2,0-0.3-0.1C251.5,304.1,251.3,303.7,251.1,303.4z M248.5,299.1c0-0.3-0.1-0.6-0.2-1
					c-0.1-0.4-0.3-0.7-0.4-1l0.1-0.1c0.4,0.3,0.7,0.6,0.9,0.9s0.3,0.6,0.3,0.8c0,0.2,0,0.3-0.1,0.4c-0.1,0.1-0.2,0.2-0.3,0.2
					C248.7,299.2,248.6,299.2,248.5,299.1z M258,298.6c0.2,0.1,0.3,0.3,0.5,0.4c0.2,0.2,0.2,0.3,0.2,0.3c0,0.1-0.1,0.2-0.3,0.2H257
					v3.6c0,1.1,0.1,2.1,0.1,3.1c-0.1,0.1-0.2,0.2-0.3,0.2c-0.1,0.1-0.3,0.1-0.5,0.1c-0.1,0-0.1,0-0.2-0.1c-0.1-0.1-0.1-0.1-0.1-0.2
					c0-0.5,0.1-1,0.1-1.5c0-0.5,0-1.1,0.1-1.9v-3.4h-1.9v0.4c0,0.9-0.1,1.8-0.2,2.5c-0.1,0.8-0.4,1.5-0.8,2.2
					c-0.4,0.7-1,1.3-1.9,1.9l-0.2-0.2c0.6-0.6,1.1-1.2,1.4-1.8c0.3-0.7,0.6-1.4,0.7-2.1c0.1-0.7,0.2-1.6,0.2-2.5v-2.1
					c0-0.9,0-1.6-0.1-2.2l1.1,0.4c0.1,0,0.3-0.1,0.6-0.2c0.4-0.2,0.9-0.4,1.3-0.6c0.4-0.2,0.8-0.5,1-0.7c0.6,0.6,0.9,0.9,0.9,1
					c0,0.1-0.1,0.1-0.2,0.1l-0.3,0c-0.4,0.2-1,0.3-1.6,0.5c-0.6,0.2-1.3,0.3-1.9,0.4v2.8h2.7l0.3-0.4c0-0.1,0.1-0.1,0.1-0.2
					s0.1-0.1,0.1-0.2s0.1-0.1,0.1-0.1C257.7,298.4,257.8,298.5,258,298.6z"/>
				<path class="st5" d="M262.1,296.5c-0.6,0.7-1.2,1.3-1.9,1.7l-0.1-0.2c0.3-0.2,0.5-0.5,0.8-0.9c0.3-0.3,0.5-0.8,0.7-1.3
					s0.4-0.9,0.5-1.3c0.8,0.4,1.2,0.6,1.2,0.7c0,0,0,0.1-0.1,0.1l-0.2,0.1c-0.2,0.3-0.4,0.6-0.5,0.8h2.4l0.2-0.3
					c0,0,0.1-0.1,0.1-0.1s0.1-0.1,0.1-0.1c0,0,0.1-0.1,0.1-0.1c0.1,0,0.3,0.1,0.5,0.4s0.4,0.4,0.4,0.5c0,0.1-0.1,0.2-0.3,0.2h-2.5
					c0.2,0.1,0.4,0.3,0.5,0.5s0.2,0.3,0.2,0.5c0,0.1,0,0.3-0.1,0.3c-0.1,0.1-0.2,0.1-0.3,0.1c-0.1,0-0.2,0-0.3-0.1
					c0-0.2-0.1-0.4-0.1-0.7c-0.1-0.2-0.2-0.5-0.3-0.6H262.1z M266.9,303.4c0.6,0.5,1.3,0.9,2.3,1.2c0.9,0.4,1.9,0.6,2.8,0.8l0,0.1
					c-0.2,0-0.3,0.1-0.5,0.3c-0.1,0.1-0.2,0.3-0.3,0.5c-1-0.3-1.9-0.6-2.7-1.1c-0.8-0.5-1.5-1.1-2.1-1.7h0v1c0,0.8,0,1.4,0.1,1.9
					c0,0.1-0.1,0.2-0.3,0.2c-0.2,0.1-0.3,0.1-0.5,0.1c-0.1,0-0.1,0-0.2-0.1s-0.1-0.1-0.1-0.2c0-0.4,0.1-1,0.1-1.7v-1
					c-0.6,0.6-1.4,1.2-2.3,1.6s-1.9,0.8-3.1,1.1l-0.1-0.2c0.9-0.3,1.8-0.7,2.6-1.2c0.8-0.5,1.5-1,2-1.6h-2.1c-0.6,0-1.3,0.1-2,0.2
					l-0.4-0.7c0.5,0.1,1.1,0.1,1.8,0.1h3.6c0-0.5,0-0.9-0.1-1.3c0.5,0.1,0.8,0.2,1,0.3c0.2,0.1,0.3,0.2,0.3,0.2c0,0,0,0.1-0.1,0.1
					l-0.2,0.1v0.5h3.6l0.3-0.4c0,0,0.1-0.1,0.1-0.2s0.1-0.1,0.1-0.2c0,0,0.1-0.1,0.1-0.1c0.1,0,0.2,0.1,0.3,0.2
					c0.2,0.1,0.3,0.3,0.5,0.4c0.2,0.1,0.2,0.2,0.2,0.3c0,0.1-0.1,0.2-0.3,0.2H266.9z M260.2,301.3c0.5-0.1,1.2-0.2,2.2-0.4v-2.1
					h-0.6c-0.3,0-0.7,0.1-1,0.2l-0.3-0.7c0.5,0.1,1.1,0.1,1.8,0.1h1.5l0.2-0.3c0,0,0.1-0.1,0.2-0.2c0.1-0.1,0.1-0.1,0.2-0.1
					c0.1,0,0.2,0.1,0.3,0.2c0.2,0.1,0.3,0.2,0.4,0.4s0.2,0.2,0.2,0.3c0,0.1-0.1,0.2-0.3,0.2h-1.7v1.9c0.7-0.1,1.3-0.2,1.9-0.4
					l0.1,0.2c-1.3,0.5-2.6,0.9-4.1,1.4c0,0.2-0.1,0.3-0.3,0.3L260.2,301.3z M265.3,297.7c0.2-0.2,0.4-0.4,0.5-0.6
					c0.3-0.3,0.5-0.7,0.7-1.2c0.2-0.5,0.4-0.9,0.5-1.3c0.8,0.3,1.2,0.5,1.2,0.6c0,0,0,0.1-0.1,0.1l-0.2,0.1
					c-0.2,0.3-0.3,0.5-0.5,0.8h2.8l0.3-0.4c0,0,0.1-0.1,0.1-0.2c0-0.1,0.1-0.1,0.1-0.2c0,0,0.1-0.1,0.1-0.1c0.1,0,0.2,0.1,0.3,0.2
					s0.3,0.3,0.5,0.4s0.2,0.3,0.2,0.3c0,0.1-0.1,0.2-0.3,0.2h-2.9c0.3,0.1,0.5,0.3,0.6,0.5c0.1,0.2,0.2,0.3,0.2,0.5
					c0,0.1,0,0.3-0.1,0.3s-0.2,0.1-0.3,0.1c-0.1,0-0.2,0-0.3-0.1c0-0.2-0.1-0.4-0.2-0.7s-0.3-0.5-0.4-0.7h-0.9
					c-0.4,0.5-0.8,0.9-1.3,1.2l1,0.5h2.3l0.2-0.3c0,0,0.1-0.1,0.1-0.2c0.1-0.1,0.1-0.1,0.2-0.1c0.1,0,0.2,0.1,0.5,0.4
					c0.2,0.2,0.3,0.4,0.3,0.5c-0.1,0.1-0.2,0.1-0.4,0.2v2.3c0,0.1,0,0.1,0,0.1c0,0,0.1,0,0.2,0h0.5c0.2,0,0.4,0,0.4,0
					c0,0,0.1,0,0.1,0c0,0,0,0,0.1-0.1c0.1-0.2,0.2-0.6,0.3-1.2h0.1l0,1.2c0.1,0.1,0.2,0.1,0.2,0.2c0,0,0.1,0.1,0.1,0.2
					c0,0.2-0.1,0.3-0.3,0.4s-0.6,0.1-1.1,0.1h-0.7c-0.3,0-0.5-0.1-0.6-0.2c-0.1-0.1-0.2-0.3-0.2-0.6v-2.6h-2.5v0.8
					c0,0.4-0.1,0.8-0.2,1.2c-0.1,0.4-0.4,0.7-0.9,1c-0.4,0.3-1.1,0.6-1.9,0.8l-0.1-0.2c0.9-0.4,1.5-0.8,1.8-1.2
					c0.3-0.5,0.5-1,0.5-1.6v-0.8c0-0.3,0-0.6-0.1-0.9l-0.3,0.2L265.3,297.7z M266.9,299.2c0.6,0.1,1.1,0.3,1.4,0.5
					c0.3,0.2,0.4,0.5,0.4,0.7c0,0.1,0,0.2-0.1,0.3c-0.1,0.1-0.2,0.1-0.3,0.1c-0.1,0-0.2,0-0.3-0.1c-0.1-0.3-0.2-0.5-0.5-0.8
					s-0.5-0.5-0.8-0.7L266.9,299.2z"/>
				<path class="st5" d="M276,301.7c-0.1,1-0.3,1.9-0.7,2.7c-0.4,0.8-1,1.6-1.9,2.2l-0.2-0.1c0.7-0.8,1.2-1.7,1.5-2.7
					c0.3-1,0.4-2.1,0.4-3.4V299c0-0.6,0-1.1-0.1-1.5l1.1,0.5h6.4l0.2-0.3c0,0,0.1-0.1,0.1-0.1c0.1-0.1,0.1-0.1,0.2-0.1
					s0.2,0.1,0.3,0.2c0.2,0.1,0.3,0.2,0.5,0.4s0.2,0.2,0.2,0.3c-0.1,0.1-0.3,0.2-0.5,0.3v1.3c0,1.1,0.1,1.9,0.1,2.4
					c-0.1,0.1-0.2,0.2-0.4,0.2c-0.2,0.1-0.3,0.1-0.5,0.1c-0.1,0-0.1,0-0.1-0.1s0-0.1,0-0.2c0,0,0-0.1,0.1-0.3v-0.3H276z M276,296.2
					c-0.6,0-1.3,0.1-2,0.2l-0.4-0.7c0.5,0.1,1.1,0.1,1.8,0.1h7.7l0.3-0.4c0,0,0.1-0.1,0.1-0.2c0.1-0.1,0.1-0.1,0.1-0.2
					s0.1-0.1,0.1-0.1c0.1,0,0.2,0.1,0.4,0.2c0.2,0.1,0.4,0.3,0.5,0.4s0.2,0.3,0.2,0.3c0,0.1-0.1,0.2-0.3,0.2H276z M276,300.4
					c0,0.4,0,0.7,0,0.9h6.7v-3H276V300.4z"/>
				<path class="st5" d="M289.3,295.5c0,0,0.1-0.1,0.1-0.1s0.1-0.1,0.1-0.1s0.1,0,0.1,0c0.1,0,0.3,0.1,0.5,0.4
					c0.3,0.3,0.4,0.4,0.4,0.5c-0.1,0.1-0.3,0.2-0.6,0.2c-0.6,1.2-1.1,2.3-1.5,3.2h1.1l0.2-0.2c0,0,0.1-0.1,0.1-0.1
					c0.1-0.1,0.1-0.1,0.2-0.1c0.1,0,0.3,0.1,0.5,0.3c0.2,0.2,0.4,0.4,0.4,0.5c0,0.1-0.1,0.1-0.2,0.1c-0.1,0-0.2,0-0.3,0.1
					c-0.2,1.5-0.5,2.8-1,3.8c0.4,0.5,0.9,0.8,1.4,1.1c0.5,0.2,1.1,0.4,1.8,0.5c0.7,0.1,1.5,0.1,2.5,0.1c1.7,0,2.9,0,3.5,0v0.2
					c-0.2,0-0.3,0.1-0.4,0.2s-0.1,0.3-0.2,0.4h-3c-1,0-1.9-0.1-2.6-0.2c-0.7-0.1-1.3-0.3-1.9-0.6s-1-0.7-1.4-1.3
					c-0.6,1-1.4,1.8-2.4,2.4l-0.1-0.2c0.9-0.7,1.6-1.7,2.1-2.9c-0.3-0.5-0.5-1.2-0.8-2c-0.3,0.5-0.5,0.9-0.7,1.2c0,0.1,0,0.1,0,0.1
					c0,0.1,0,0.1-0.1,0.2l-0.6-0.6c0.6-0.5,1-1,1.2-1.3l0.1-0.6l0.5,0.1l-0.3,0.5c0.2,0.7,0.5,1.3,0.8,1.8c0.3-0.9,0.5-1.9,0.6-3.2
					h-1.4c0,0-0.1,0.2-0.2,0.4l-0.1,0.3c-0.1,0-0.2,0-0.2,0c-0.1,0-0.3,0-0.5-0.1c0.3-0.7,0.7-1.4,1.1-2.2c0.4-0.8,0.7-1.5,0.9-2.1
					h-0.7c-0.4,0-0.8,0.1-1.3,0.2l-0.3-0.7c0.4,0.1,1,0.1,1.6,0.1h0.8L289.3,295.5z M296.3,295.8c0,0,0.1-0.1,0.1-0.2
					c0.1-0.1,0.1-0.1,0.2-0.1c0.1,0,0.2,0.1,0.3,0.2s0.3,0.3,0.4,0.4s0.2,0.2,0.2,0.3c0,0-0.1,0.1-0.2,0.1s-0.2,0.1-0.3,0.1v1.2h0.2
					l0.2-0.4c0,0,0-0.1,0.1-0.2s0.1-0.1,0.1-0.2c0,0,0.1-0.1,0.1-0.1c0.1,0,0.3,0.1,0.5,0.4c0.3,0.3,0.4,0.4,0.4,0.5
					c0,0.1-0.1,0.2-0.3,0.2h-1.3v0.6l0,0.4c0,0.3,0,0.6,0.1,0.8c0,0.1-0.1,0.2-0.3,0.2c-0.2,0.1-0.3,0.1-0.4,0.1h-0.1v-0.4h-1.9v1.3
					h1.9l0.2-0.4c0,0,0.1-0.1,0.1-0.1c0-0.1,0.1-0.1,0.1-0.1c0,0,0.1-0.1,0.1-0.1c0.1,0,0.2,0.1,0.3,0.2c0.2,0.1,0.3,0.3,0.5,0.4
					c0.1,0.1,0.2,0.2,0.2,0.3c0,0.1,0,0.1-0.1,0.2c-0.1,0-0.1,0.1-0.2,0.1h-3.1v1.4h2.3l0.3-0.4c0,0,0.1-0.1,0.1-0.2
					c0.1-0.1,0.1-0.1,0.1-0.2s0.1-0.1,0.1-0.1c0.1,0,0.2,0.1,0.3,0.2s0.3,0.3,0.5,0.4c0.2,0.2,0.2,0.3,0.2,0.3
					c0,0.1-0.1,0.2-0.3,0.2h-3.7v0.5l0,0.4c0,0.1,0,0.3,0,0.5c0,0.1-0.1,0.2-0.3,0.2c-0.1,0.1-0.3,0.1-0.5,0.1c-0.1,0-0.1,0-0.2-0.1
					c0-0.1-0.1-0.1-0.1-0.2c0-0.2,0-0.4,0.1-0.6c0-0.1,0-0.2,0-0.3v-0.6h-1.1c-0.6,0-1.3,0.1-2,0.2l-0.3-0.7
					c0.5,0.1,1.1,0.1,1.8,0.1h1.6v-1.4h-0.9c-0.5,0-1.1,0.1-1.7,0.2l-0.3-0.7c0.5,0.1,1.1,0.1,1.8,0.1h1.1v-1.3h-0.8
					c-0.5,0-1,0.1-1.5,0.2l-0.4-0.7c0.5,0.1,1.1,0.1,1.8,0.1h0.9v-1.4h-1.3c-0.6,0-1.3,0.1-2,0.2l-0.3-0.7c0.5,0.1,1.1,0.1,1.8,0.1
					h1.8v-1.3h-0.8c-0.5,0-1,0.1-1.5,0.2l-0.3-0.7c0.5,0.1,1.1,0.1,1.8,0.1h0.9c0-0.6,0-1.1-0.1-1.5c0.5,0.1,0.8,0.2,1,0.3
					c0.2,0.1,0.3,0.2,0.3,0.2c0,0,0,0.1-0.1,0.1l-0.2,0.2v0.6h1.8L296.3,295.8z M296.3,296.5h-1.9v1.3h1.9V296.5z M294.4,299.6h1.9
					v-1.4h-1.9V299.6z"/>
			</g>
		</g>
	</g>
</g>
</svg>
