<?xml version="1.0" encoding="UTF-8"?>
<svg id="_レイヤー_2" data-name="レイヤー 2" xmlns="http://www.w3.org/2000/svg" viewBox="0 0 136.27 30.89">
  <defs>
    <style>
      .cls-1 {
        fill: #e48022;
      }
    </style>
  </defs>
  <g id="_レイヤー_2-2" data-name="レイヤー 2">
    <g>
      <rect class="cls-1" x="60.06" y="4.29" width="5.75" height="22.31"/>
      <path class="cls-1" d="m79.96,21.36c-.61,0-1.12-.5-1.12-1.11V4.29h-5.66v16.86c0,3,2.43,5.44,5.44,5.44h7.17v-5.24h-5.83Z"/>
      <path class="cls-1" d="m40.71,15.44c0,1.14.16,2.58,1.57,4.58l7.65,10.86,4.63-3.26-7.68-10.89c-.27-.42-.44-.79-.44-1.29s.18-.87.44-1.29l7.68-10.89-4.63-3.26-7.65,10.86c-1.41,2-1.57,3.44-1.57,4.59"/>
      <rect class="cls-1" x="19.22" y="4.29" width="5.75" height="22.31"/>
      <path class="cls-1" d="m6.78,21.36c-.61,0-1.11-.5-1.11-1.11V4.29H0v16.86c0,3,2.43,5.44,5.44,5.44h7.17v-5.24h-5.83Z"/>
      <path class="cls-1" d="m44.32,15.44c0,1.14-.16,2.58-1.57,4.58l-7.65,10.86-4.63-3.26,7.68-10.89c.27-.42.44-.79.44-1.29s-.17-.87-.44-1.29l-7.68-10.89,4.63-3.26,7.65,10.86c1.41,2,1.57,3.44,1.57,4.59"/>
      <g>
        <path d="m113.14,17.32c-.15-2.82-.33-6.21-.3-8.73h-.09c-.69,2.37-1.53,4.89-2.55,7.68l-3.57,9.81h-1.98l-3.27-9.63c-.96-2.85-1.77-5.46-2.34-7.86h-.06c-.06,2.52-.21,5.91-.39,8.94l-.54,8.67h-2.49l1.41-20.22h3.33l3.45,9.78c.84,2.49,1.53,4.71,2.04,6.81h.09c.51-2.04,1.23-4.26,2.13-6.81l3.6-9.78h3.33l1.26,20.22h-2.55l-.51-8.88Z"/>
        <path d="m126.17,26.2l-6.6-20.22h2.82l3.15,9.96c.87,2.73,1.62,5.19,2.16,7.56h.06c.57-2.34,1.41-4.89,2.31-7.53l3.42-9.99h2.79l-7.23,20.22h-2.88Z"/>
      </g>
    </g>
  </g>
</svg>