<?xml version="1.0" encoding="UTF-8"?>
<svg id="_レイヤー_2" data-name="レイヤー 2" xmlns="http://www.w3.org/2000/svg" viewBox="0 0 169.21 38.83">
  <defs>
    <style>
      .cls-1 {
        stroke: #221815;
        stroke-linecap: square;
        stroke-miterlimit: 10;
        stroke-width: 0px;
      }

      .cls-2 {
        fill: #e48022;
      }
    </style>
  </defs>
  <g id="_レイヤー_2-2" data-name="レイヤー 2">
    <g>
      <polygon points="92.87 4.09 93.37 4.31 93.99 4.4 94.4 4.36 94.71 4.17 94.93 3.91 94.98 3.59 94.89 3.19 94.58 2.92 94.08 2.65 93.55 2.42 93.19 2.11 92.92 1.75 92.83 1.3 92.92 .76 93.23 .36 93.72 .09 94.35 0 94.8 .05 95.16 .14 95.38 .23 95.25 .72 94.89 .58 94.35 .49 93.95 .58 93.63 .72 93.5 .99 93.46 1.21 93.55 1.62 93.86 1.89 94.93 2.42 95.29 2.69 95.52 3.05 95.61 3.55 95.56 3.95 95.34 4.36 95.02 4.67 94.53 4.85 93.95 4.94 93.46 4.89 93.05 4.8 92.74 4.62 92.87 4.09"/>
      <polygon class="cls-1" points="92.87 4.09 93.37 4.31 93.99 4.4 94.4 4.36 94.71 4.17 94.93 3.91 94.98 3.59 94.89 3.19 94.58 2.92 94.08 2.65 93.55 2.42 93.19 2.11 92.92 1.75 92.83 1.3 92.92 .76 93.23 .36 93.72 .09 94.35 0 94.8 .05 95.16 .14 95.38 .23 95.25 .72 94.89 .58 94.35 .49 93.95 .58 93.63 .72 93.5 .99 93.46 1.21 93.55 1.62 93.86 1.89 94.93 2.42 95.29 2.69 95.52 3.05 95.61 3.55 95.56 3.95 95.34 4.36 95.02 4.67 94.53 4.85 93.95 4.94 93.46 4.89 93.05 4.8 92.74 4.62 92.87 4.09"/>
      <polygon points="99.54 4.85 99.54 2.83 98.02 .09 98.74 .09 99.41 1.39 99.63 1.89 99.9 2.38 100.13 1.89 100.39 1.39 101.07 .09 101.74 .09 100.17 2.83 100.17 4.85 99.54 4.85"/>
      <polygon class="cls-1" points="99.54 4.85 99.54 2.83 98.02 .09 98.74 .09 99.41 1.39 99.63 1.89 99.9 2.38 100.13 1.89 100.39 1.39 101.07 .09 101.74 .09 100.17 2.83 100.17 4.85 99.54 4.85"/>
      <polygon points="104.16 4.09 104.65 4.31 105.23 4.4 105.63 4.36 105.99 4.17 106.17 3.91 106.26 3.59 106.17 3.19 105.86 2.92 105.37 2.65 104.83 2.42 104.43 2.11 104.2 1.75 104.11 1.3 104.2 .76 104.51 .36 105.01 .09 105.63 0 106.08 .05 106.44 .14 106.66 .23 106.49 .72 106.31 .63 105.99 .54 105.59 .49 105.19 .58 104.92 .72 104.74 .99 104.69 1.21 104.74 1.53 104.92 1.75 105.23 1.98 105.68 2.16 106.17 2.42 106.53 2.69 106.75 3.05 106.84 3.55 106.8 3.95 106.58 4.36 106.26 4.67 105.77 4.85 105.19 4.94 104.74 4.89 104.29 4.8 103.98 4.62 104.16 4.09"/>
      <polygon class="cls-1" points="104.16 4.09 104.65 4.31 105.23 4.4 105.63 4.36 105.99 4.17 106.17 3.91 106.26 3.59 106.17 3.19 105.86 2.92 105.37 2.65 104.83 2.42 104.43 2.11 104.2 1.75 104.11 1.3 104.2 .76 104.51 .36 105.01 .09 105.63 0 106.08 .05 106.44 .14 106.66 .23 106.49 .72 106.31 .63 105.99 .54 105.59 .49 105.19 .58 104.92 .72 104.74 .99 104.69 1.21 104.74 1.53 104.92 1.75 105.23 1.98 105.68 2.16 106.17 2.42 106.53 2.69 106.75 3.05 106.84 3.55 106.8 3.95 106.58 4.36 106.26 4.67 105.77 4.85 105.19 4.94 104.74 4.89 104.29 4.8 103.98 4.62 104.16 4.09"/>
      <polygon points="110.74 .58 109.26 .58 109.26 .09 112.8 .09 112.8 .58 111.36 .58 111.36 4.85 110.74 4.85 110.74 .58"/>
      <polygon class="cls-1" points="110.74 .58 109.26 .58 109.26 .09 112.8 .09 112.8 .58 111.36 .58 111.36 4.85 110.74 4.85 110.74 .58"/>
      <polygon points="124.93 2.74 124.88 2.06 124.84 1.35 124.84 .72 124.57 1.57 124.21 2.51 123.36 4.8 122.91 4.8 122.15 2.56 121.84 1.57 121.62 .72 121.57 .72 121.53 1.71 121.48 2.78 121.35 4.85 120.77 4.85 121.12 .09 121.88 .09 122.69 2.38 122.96 3.23 123.18 4 123.41 3.23 123.72 2.38 124.57 .09 125.33 .09 125.65 4.85 125.02 4.85 124.93 2.74"/>
      <polygon class="cls-1" points="124.93 2.74 124.88 2.06 124.84 1.35 124.84 .72 124.57 1.57 124.21 2.51 123.36 4.8 122.91 4.8 122.15 2.56 121.84 1.57 121.62 .72 121.57 .72 121.53 1.71 121.48 2.78 121.35 4.85 120.77 4.85 121.12 .09 121.88 .09 122.69 2.38 122.96 3.23 123.18 4 123.41 3.23 123.72 2.38 124.57 .09 125.33 .09 125.65 4.85 125.02 4.85 124.93 2.74"/>
      <polygon points="132.32 .09 132.94 .09 132.94 2.38 133.12 2.11 133.35 1.89 134.78 .09 135.54 .09 133.84 2.11 135.67 4.85 134.96 4.85 133.39 2.51 132.94 3.05 132.94 4.85 132.32 4.85 132.32 .09"/>
      <polygon class="cls-1" points="132.32 .09 132.94 .09 132.94 2.38 133.12 2.11 133.35 1.89 134.78 .09 135.54 .09 133.84 2.11 135.67 4.85 134.96 4.85 133.39 2.51 132.94 3.05 132.94 4.85 132.32 4.85 132.32 .09"/>
      <rect x="138.27" y=".09" width=".63" height="4.76"/>
      <rect class="cls-1" x="138.27" y=".09" width=".63" height="4.76"/>
      <polygon points="142.93 .58 141.49 .58 141.49 .09 145.03 .09 145.03 .58 143.55 .58 143.55 4.85 142.93 4.85 142.93 .58"/>
      <polygon class="cls-1" points="142.93 .58 141.49 .58 141.49 .09 145.03 .09 145.03 .58 143.55 .58 143.55 4.85 142.93 4.85 142.93 .58"/>
      <polygon points="150.76 4.71 150.45 4.8 150.05 4.89 149.51 4.94 148.88 4.85 148.3 4.67 147.81 4.31 147.45 3.86 147.23 3.23 147.13 2.52 147.23 1.8 147.45 1.17 147.85 .67 148.34 .31 148.93 .09 149.64 0 150.13 .04 150.54 .13 150.76 .22 150.63 .72 150.18 .58 149.64 .54 149.02 .63 148.52 .85 148.12 1.26 147.9 1.8 147.81 2.47 147.9 3.14 148.12 3.68 148.48 4.09 149.02 4.31 149.64 4.4 150.18 4.36 150.63 4.22 150.76 4.71"/>
      <polygon class="cls-1" points="150.76 4.71 150.45 4.8 150.05 4.89 149.51 4.94 148.88 4.85 148.3 4.67 147.81 4.31 147.45 3.86 147.23 3.23 147.13 2.52 147.23 1.8 147.45 1.17 147.85 .67 148.34 .31 148.93 .09 149.64 0 150.13 .04 150.54 .13 150.76 .22 150.63 .72 150.18 .58 149.64 .54 149.02 .63 148.52 .85 148.12 1.26 147.9 1.8 147.81 2.47 147.9 3.14 148.12 3.68 148.48 4.09 149.02 4.31 149.64 4.4 150.18 4.36 150.63 4.22 150.76 4.71"/>
      <polygon points="154.12 .09 154.12 2.07 156.4 2.07 156.4 .09 157.03 .09 157.03 4.85 156.4 4.85 156.4 2.6 154.12 2.6 154.12 4.85 153.49 4.85 153.49 .09 154.12 .09"/>
      <polygon class="cls-1" points="154.12 .09 154.12 2.07 156.4 2.07 156.4 .09 157.03 .09 157.03 4.85 156.4 4.85 156.4 2.6 154.12 2.6 154.12 4.85 153.49 4.85 153.49 .09 154.12 .09"/>
      <polygon points="165.63 4.85 165.63 .09 166.3 .09 167.82 2.51 168.31 3.28 168.67 4.04 168.71 4.04 168.63 3.1 168.63 .09 169.21 .09 169.21 4.85 168.58 4.85 167.06 2.42 166.61 1.62 166.21 .85 166.16 .85 166.21 1.75 166.21 4.85 165.63 4.85"/>
      <polygon class="cls-1" points="165.63 4.85 165.63 .09 166.3 .09 167.82 2.51 168.31 3.28 168.67 4.04 168.71 4.04 168.63 3.1 168.63 .09 169.21 .09 169.21 4.85 168.58 4.85 167.06 2.42 166.61 1.62 166.21 .85 166.16 .85 166.21 1.75 166.21 4.85 165.63 4.85"/>
      <polygon points="162.63 2.6 160.79 2.6 160.79 4.36 162.85 4.36 162.85 4.85 160.16 4.85 160.16 .09 162.85 .09 162.85 .58 160.79 .58 160.79 2.11 162.63 2.11 162.63 2.6"/>
      <polygon class="cls-1" points="162.63 2.6 160.79 2.6 160.79 4.36 162.85 4.36 162.85 4.85 160.16 4.85 160.16 .09 162.85 .09 162.85 .58 160.79 .58 160.79 2.11 162.63 2.11 162.63 2.6"/>
      <polygon points="117.86 2.6 116.02 2.6 116.02 4.36 118.08 4.36 118.08 4.85 115.39 4.85 115.39 .09 118.08 .09 118.08 .58 116.02 .58 116.02 2.11 117.86 2.11 117.86 2.6"/>
      <polygon class="cls-1" points="117.86 2.6 116.02 2.6 116.02 4.36 118.08 4.36 118.08 4.85 115.39 4.85 115.39 .09 118.08 .09 118.08 .58 116.02 .58 116.02 2.11 117.86 2.11 117.86 2.6"/>
      <polygon points="128.03 37.92 112.8 37.92 112.8 10.72 127.46 10.72 127.46 15.11 118.04 15.11 118.04 21.69 126.93 21.69 126.93 25.96 118.04 25.96 118.04 33.53 128.03 33.53 128.03 37.92"/>
      <path d="m147.58,15.85c-.96-.49-2.62-1.17-4.85-1.17-2.76,0-4,1.48-4,3.01,0,1.94,1.35,2.83,4.67,4.35,4.36,1.94,6.3,4.46,6.3,8.03,0,4.74-3.58,8.2-9.92,8.2-2.69,0-5.42-.74-6.69-1.52l1.03-4.39c1.42.85,3.68,1.52,5.88,1.52,2.9,0,4.43-1.38,4.43-3.39s-1.31-3.11-4.32-4.42c-4.11-1.77-6.66-4.31-6.66-7.85,0-4.46,3.51-7.89,9.39-7.89,2.59,0,4.57.6,5.84,1.24l-1.1,4.28Z"/>
      <rect class="cls-2" x="61.22" y="11.76" width="5.86" height="22.7"/>
      <path class="cls-2" d="m81.51,29.13c-.63,0-1.14-.51-1.14-1.13V11.76h-5.77v17.16c0,3.06,2.48,5.54,5.54,5.54h7.31v-5.33h-5.95Z"/>
      <path class="cls-2" d="m41.49,23.11c0,1.16.17,2.63,1.6,4.66l7.8,11.05,4.72-3.32-7.82-11.08c-.27-.43-.45-.81-.45-1.31s.18-.89.45-1.31l7.82-11.08-4.72-3.32-7.8,11.05c-1.44,2.04-1.6,3.5-1.6,4.67"/>
      <rect class="cls-2" x="19.59" y="11.76" width="5.86" height="22.7"/>
      <path class="cls-2" d="m6.91,29.13c-.63,0-1.14-.51-1.14-1.13V11.76H0v17.16c0,3.06,2.48,5.54,5.54,5.54h7.31v-5.33h-5.95Z"/>
      <path class="cls-2" d="m45.17,23.11c0,1.16-.17,2.63-1.6,4.66l-7.8,11.05-4.72-3.32,7.82-11.08c.27-.43.45-.81.45-1.31s-.18-.89-.45-1.31l-7.82-11.08,4.72-3.32,7.8,11.05c1.44,2.04,1.6,3.5,1.6,4.67"/>
    </g>
  </g>
</svg>