<?xml version="1.0" encoding="utf-8"?>
<!-- Generator: Adobe Illustrator 27.5.0, SVG Export Plug-In . SVG Version: 6.00 Build 0)  -->
<svg version="1.1" id="_レイヤー_2" xmlns="http://www.w3.org/2000/svg" xmlns:xlink="http://www.w3.org/1999/xlink" x="0px"
	 y="0px" viewBox="0 0 1199.6 985.7" style="enable-background:new 0 0 1199.6 985.7;" xml:space="preserve">
<style type="text/css">
	.st0{clip-path:url(#SVGID_00000025437548806579083060000011511179442101465757_);}
	.st1{fill:#D0B580;}
	.st2{font-family:'RyuminPr6N-Light-90ms-RKSJ-H';}
	.st3{font-size:18px;}
	.st4{font-size:16.14px;}
	.st5{letter-spacing:4;}
	.st6{font-size:19.16px;}
	.st7{font-size:25px;}
	.st8{font-family:'Garamond';}
	.st9{font-size:27.68px;}
	.st10{font-size:17px;}
	.st11{font-family:'KozGoPr6N-Light-90ms-RKSJ-H';}
	.st12{font-size:10px;}
	.st13{letter-spacing:3;}
	.st14{letter-spacing:2;}
	.st15{letter-spacing:-5;}
	.st16{letter-spacing:-6;}
	.st17{letter-spacing:-2;}
</style>
<g id="_レイヤー_3">
	<g>
		<defs>
			<rect id="SVGID_1_" y="0" width="1199.6" height="985.7"/>
		</defs>
		<clipPath id="SVGID_00000080182238485785271070000007032064910933514369_">
			<use xlink:href="#SVGID_1_"  style="overflow:visible;"/>
		</clipPath>
		<g style="clip-path:url(#SVGID_00000080182238485785271070000007032064910933514369_);">
			<text transform="matrix(1 0 0 1 31.74 28.21)" class="st1 st2 st3">西武池袋線</text>
			<g>
				<text transform="matrix(1 0 0 1 253.44 488.62)" class="st2 st4">J</text>
				<text transform="matrix(1 0 0 1 260.6 488.62)" class="st2 st4 st5">R</text>
				<text transform="matrix(1 0 0 1 275.69 488.62)" class="st2 st4">山手線・埼京線・湘南新宿ライン</text>
				<text transform="matrix(1 0 0 1 253.44 521.9)" class="st2 st4">東京メトロ有楽町線</text>
				<text transform="matrix(1 0 0 1 253.44 555.18)" class="st2 st4">東京メトロ丸の内線</text>
				<text transform="matrix(1 0 0 1 253.44 588.46)" class="st2 st4">東武東上線</text>
				<text transform="matrix(1 0 0 1 254.45 245.57)" class="st2 st6">所沢</text>
				<text transform="matrix(1 0 0 1 254.45 370.62)" class="st2 st6">練馬</text>
				<text transform="matrix(1 0 0 1 254.45 336.33)" class="st2 st6">石神井公園</text>
				<text transform="matrix(1 0 0 1 252.43 444.24)" class="st2 st6">池袋</text>
				<text transform="matrix(1 0 0 1 254.45 207.24)" class="st2 st6">西所沢</text>
				<text transform="matrix(1 0 0 1 254.45 154.79)" class="st1 st2 st7">入間市</text>
				<text transform="matrix(1 0 0 1 254.45 99.34)" class="st2 st6">飯能</text>
				<text transform="matrix(1 0 0 1 51.74 207.24)" class="st2 st6">西武球場前</text>
				<text transform="matrix(1 0 0 1 165.36 101.13)" class="st8 st9">9</text>
				<text transform="matrix(1 0 0 1 178.34 101.13)" class="st8 st6">min</text>
				<text transform="matrix(1 0 0 1 162.34 247.36)" class="st8 st9">16</text>
				<text transform="matrix(1 0 0 1 188.29 247.36)" class="st8 st6">min</text>
				<text transform="matrix(1 0 0 1 162.34 336.11)" class="st8 st9">33</text>
				<text transform="matrix(1 0 0 1 188.29 336.11)" class="st8 st6">min</text>
				<text transform="matrix(1 0 0 1 162.34 370.4)" class="st8 st9">40</text>
				<text transform="matrix(1 0 0 1 188.29 370.4)" class="st8 st6">min</text>
				<text transform="matrix(1 0 0 1 118.93 178.78)" class="st8 st9">22</text>
				<text transform="matrix(1 0 0 1 144.88 178.78)" class="st8 st6">min</text>
				<g>
					<g>
						<path d="M171.7,426.5h0.6c0,0.3,0,0.4,0,0.5l0,2l-0.1,1.8l0.1,2v1.6l0,2.1c0,0.3,0,0.8,0,1.5l0.3,0h1l0.9,0l0.8,0
							c0,0.3,0,0.5,0,0.6s0,0.3,0,0.6c-0.6,0-0.9,0-0.9,0l-0.7,0h-0.5c-0.1,0-0.4,0-0.8,0c0,1.3,0,3,0,5.1c-0.1,0.1-0.1,0.1-0.2,0.1
							l-0.8,0c-0.2,0-0.5,0-0.8,0c0-1.1,0-1.8,0-2.3c0-0.4,0-0.8,0-1.1c0-0.6,0-1,0-1.1c0-0.2,0-0.4,0-0.8c-0.4,0-0.7,0.1-0.9,0.1
							c-0.1,0-0.2,0-0.4,0c-0.9,0-1.4-0.1-1.5-0.1s-0.4,0-0.9,0.1l-1.4-0.1l-0.8,0l-0.5-0.1l-0.6,0.1l-0.1-0.1c0-0.2,0-0.3,0-0.4
							c0-0.1,0-0.2,0-0.4c0.3-0.3,0.7-1,1.4-2l2.6-3.8c0.6-1,1.2-1.7,1.6-2.3c0.4-0.6,0.9-1.2,1.3-1.8S171.2,427.1,171.7,426.5z
							 M170.4,438l0-2.2l0-1.8v-4.5c-0.7,1-1.8,2.4-3.1,4.4c-1.5,2.2-2.4,3.6-2.7,4.1c0.4,0,0.7,0,0.9,0l3.7,0.1
							C169.6,438,169.9,438,170.4,438z"/>
						<path d="M185.8,428.5c-1,0.1-1.8,0.1-2.4,0.1c-0.5,0-0.9,0-1.5,0c-0.3,0-0.4,0-0.5,0c-1.1,0-1.7,0-1.8,0.1
							c0,0-0.1,0.1-0.1,0.1c0,0.1-0.1,1.7-0.4,4.8c0.4-0.2,0.8-0.4,1.2-0.4c0.4-0.1,0.9-0.1,1.5-0.1c0.4,0,0.7,0,0.9,0.1
							c0.9,0.3,1.5,0.5,1.8,0.8c0.5,0.3,0.9,0.7,1.3,1.1c0.3,0.4,0.6,1,0.9,1.8c0.2,0.6,0.3,1.2,0.3,1.8c0,0.7-0.1,1.3-0.3,1.9
							s-0.4,1.1-0.7,1.5c-0.3,0.4-0.7,0.8-1.3,1.2c-0.6,0.4-1.2,0.8-2,1c-0.8,0.2-1.3,0.3-1.5,0.4l-2-0.2c-0.5-0.1-1-0.2-1.4-0.4
							s-0.7-0.4-0.8-0.6c-0.1-0.1-0.1-0.3-0.1-0.5c0-0.1,0.1-0.3,0.3-0.5c0.2-0.2,0.5-0.3,0.8-0.3c0.1,0,0.3,0,0.4,0.1l1.1,0.7
							c0.2,0.2,0.5,0.4,0.9,0.6c0.1,0,0.2,0.1,0.4,0.1c0.5,0.1,0.8,0.1,0.9,0.1c0.2,0,0.5-0.1,1-0.2c0.5-0.2,0.9-0.4,1.3-0.8
							s0.8-0.9,1-1.5c0.3-0.6,0.4-1.3,0.4-2c0-1.3-0.4-2.4-1.2-3.2c-0.8-0.8-1.8-1.3-3-1.3c-0.5,0-1,0.1-1.4,0.3
							c-0.4,0.2-0.7,0.4-0.9,0.6l-0.2,0.1c-0.1,0-0.2,0.1-0.2,0.1l-0.2,0c0-0.2,0-0.3,0-0.4c0-0.1,0-0.2,0-0.4
							c0.1-0.4,0.1-0.9,0.1-1.4c0-0.5,0.1-0.9,0.1-1.3l0-0.6c0.1-0.3,0.1-0.7,0.1-1c0-2.1,0.1-3.3,0.3-3.6c0.1-0.1,0.2-0.2,0.3-0.2
							c0.1,0,0.2,0,0.3,0l0.1,0l1.7,0c0.8,0,1.3,0.1,1.7,0.1c0.8,0,1.5-0.1,2-0.2c0.3-0.2,0.4-0.4,0.6-0.4c0.1,0,0.2,0,0.3,0l0,0.2
							l-0.1,0.6l-0.1,0.9C185.9,428.2,185.9,428.3,185.8,428.5z"/>
						<path d="M188.9,443.8c0.1-0.1,0.2-0.1,0.4-0.1c0.2,0,0.4-0.1,0.6-0.1c0.1-0.1,0.2-0.2,0.2-0.4c0-0.2,0.1-1,0.1-2.4
							c0-1.3,0-2.2-0.1-2.6c-0.1-0.1-0.3-0.2-0.5-0.2c-0.1,0-0.2,0-0.4-0.1v-0.3c0.4-0.1,0.7-0.2,0.9-0.4c0.2-0.2,0.5-0.5,1-1h0.1
							c0,0,0.1,0,0.2,0c0,0,0.1,0,0.1,0l0,1.1c0,0.2,0,0.5,0,0.7c0.7-0.6,1.3-1,1.8-1.3c0.4-0.2,0.8-0.2,1.2-0.2
							c0.5,0,1,0.1,1.3,0.3c0.3,0.2,0.6,0.6,0.9,1.1c0.6-0.5,1.1-0.9,1.5-1.2c0.5-0.2,0.9-0.3,1.4-0.3c0.7,0,1.3,0.2,1.7,0.7
							c0.4,0.5,0.7,1.1,0.7,2v0.8l0,0.9l0,2.2c0,0.3,0,0.4,0.2,0.6c0,0,0.2,0.1,0.6,0.2c0.2,0.1,0.3,0.1,0.4,0.1s0.1,0.1,0.1,0.1
							c0,0.1,0,0.1-0.1,0.2h-0.1l-0.9-0.1c-0.1,0-0.3,0-0.5,0c-0.3,0-0.7,0-1.3,0h-0.5c-0.1,0-0.2,0-0.4,0c0-0.1,0-0.1,0-0.1
							c0,0,0-0.1,0.1-0.2c0.2-0.1,0.4-0.1,0.7-0.2c0.3,0,0.5-0.1,0.5-0.3c0.1-0.1,0.1-0.6,0.1-1.5c0-1.8,0-2.9-0.1-3.2
							c-0.1-0.5-0.3-0.8-0.6-1.1c-0.3-0.3-0.7-0.4-1.2-0.4c-0.4,0-0.7,0.1-1.1,0.3c-0.4,0.2-0.7,0.5-1.1,0.9l0,0.2v1.4l0,1.1
							c0,1.1,0,1.8,0,1.9c0,0.2,0.1,0.3,0.2,0.3c0.1,0.1,0.3,0.1,0.7,0.2c0.2,0,0.3,0.1,0.4,0.1c0.1,0.1,0.1,0.1,0.1,0.2
							c0,0.1,0,0.1-0.1,0.2h-0.2l-0.5,0h-2.7l-0.7,0c0-0.1,0-0.2,0-0.2l0-0.1c0.1-0.1,0.4-0.1,0.8-0.2c0.2,0,0.4-0.1,0.6-0.2
							c0,0,0.1-0.1,0.1-0.1c0-0.1,0.1-0.3,0.1-0.7l0-1.1l0-1.2l0-0.7c0-0.8-0.2-1.3-0.5-1.7c-0.3-0.4-0.7-0.5-1.2-0.5
							c-0.4,0-0.9,0.1-1.3,0.3c-0.4,0.2-0.8,0.5-1.1,0.9c0,0.2,0,0.3,0,0.5l0,3.1c0,0.7,0,1.1,0.1,1.2c0.1,0.1,0.2,0.2,0.5,0.2
							c0.4,0.1,0.7,0.1,0.8,0.2c0.1,0,0.1,0.1,0.1,0.2c0,0,0,0.1,0,0.2c-0.7,0-1.2-0.1-1.4-0.1c-0.3,0-0.5,0-0.7,0l-0.5,0H190
							l-1.1,0c0,0,0-0.1,0-0.1C188.9,444,188.9,443.9,188.9,443.8z"/>
						<path d="M203.9,437.5l0-0.3c0.4-0.1,0.6-0.2,0.7-0.2c0.2-0.1,0.5-0.3,0.7-0.5c0.2-0.2,0.5-0.4,0.6-0.7c0.1,0,0.1,0,0.2,0
							l0.1,0c0,0.3,0,0.5,0,0.7c0,0,0,0.2,0,0.4v0.5l0,2.7l0,2.9c0,0.2,0,0.4,0.1,0.5s0.3,0.2,0.7,0.3c0.2,0.1,0.4,0.1,0.6,0.2
							c0,0,0,0.1,0,0.1c0,0,0,0.1,0,0.1c-0.2,0-0.6,0-0.9,0c-0.5,0-0.9-0.1-1-0.1c-0.1,0-0.6,0-1.5,0c-0.2,0-0.4,0-0.5,0
							c0,0-0.1,0-0.1,0c0,0,0-0.1,0-0.1c0-0.1,0.1-0.2,0.2-0.2c0,0,0.3-0.1,1-0.2c0.2,0,0.3-0.1,0.4-0.2c0.1-0.1,0.2-0.3,0.2-0.6
							c0-0.5,0-1.8,0-3.9c0-0.4,0-0.7-0.1-0.8c0-0.1-0.1-0.2-0.2-0.3C204.6,437.7,204.3,437.6,203.9,437.5z M204.6,432.7
							c0-0.2,0.1-0.4,0.2-0.5c0.2-0.1,0.4-0.2,0.6-0.2c0.2,0,0.4,0.1,0.6,0.3c0.2,0.2,0.3,0.3,0.3,0.5c0,0.2-0.1,0.4-0.3,0.5
							c-0.2,0.2-0.4,0.3-0.6,0.3s-0.4-0.1-0.6-0.2S204.6,432.9,204.6,432.7z"/>
						<path d="M208.1,443.8c0.2,0,0.3-0.1,0.5-0.1c0.4-0.1,0.6-0.1,0.7-0.2s0.1-0.2,0.1-0.5l0-0.3c0-0.1,0-0.3,0-0.5l0-2.9
							c0-0.4,0-0.6-0.1-0.7c-0.2-0.2-0.5-0.3-0.9-0.4v-0.3c0.5-0.1,0.8-0.3,1-0.5c0.4-0.3,0.7-0.7,0.9-1.1l0.3,0c0,0.3,0,0.5,0,0.6
							v0.6l0,0.2c0.1,0,0.2-0.1,0.3-0.2c0.4-0.3,0.8-0.5,1.2-0.7c0.4-0.2,0.7-0.3,1-0.4c0.2,0,0.4-0.1,0.7-0.1c0.5,0,1,0.1,1.3,0.4
							c0.4,0.3,0.6,0.6,0.7,1c0.1,0.4,0.2,1.1,0.2,2.2v1.4c0,0,0,0.2,0,0.4c0,0.2,0,0.5,0,0.7c0,0.4,0,0.7,0.1,0.8
							c0,0.1,0.1,0.2,0.2,0.2c0.6,0.1,0.9,0.2,1,0.3v0.1c0,0.1,0,0.1-0.1,0.2h-0.2l-1.2,0l-1.2,0c-0.4,0-0.9,0-1.2,0l-0.1-0.2
							c0,0,0-0.1,0.1-0.1c0.2-0.1,0.4-0.1,0.7-0.1c0.2,0,0.3,0,0.4-0.1c0.1,0,0.2-0.1,0.3-0.2c0.1-0.1,0.1-0.3,0.1-0.4
							c0,0,0-0.1,0-0.3c0-0.3,0-1,0-2.1v-0.5l0-0.7c0-0.8-0.2-1.4-0.5-1.7c-0.3-0.3-0.8-0.5-1.3-0.5c-0.4,0-0.8,0.1-1.2,0.3
							c-0.4,0.2-0.8,0.5-1.2,0.8c0,0.3,0,0.6,0,0.8l0,2.1c0,1.1,0,1.7,0,2c0,0.1,0,0.2,0.1,0.2c0,0.1,0.1,0.1,0.3,0.1
							c0.1,0,0.3,0.1,0.5,0.1c0.2,0.1,0.3,0.1,0.4,0.1c0.1,0,0.2,0.1,0.3,0.2l0,0.2h-1l-2,0c-0.5,0-0.8,0-0.9,0h-0.2l0-0.1
							C208,444,208,443.9,208.1,443.8z"/>
					</g>
				</g>
			</g>
			<text transform="matrix(1 0 0 1 681.74 28.21)" class="st1 st2 st10">東京メトロ副都心線／有楽町線　東急東横／みなとみらい線直通</text>
			<g>
				<text transform="matrix(1 0 0 1 829.99 226.41)" class="st2 st6">所沢</text>
				<text transform="matrix(1 0 0 1 829.99 160.85)" class="st1 st2 st7">入間市</text>
				<text transform="matrix(1 0 0 1 829.99 101.35)" class="st2 st6">飯能</text>
				<text transform="matrix(1 0 0 1 829.99 332.3)" class="st2 st6">練馬</text>
				<text transform="matrix(1 0 0 1 919.74 348.44)" class="st2 st6">光が丘</text>
				<text transform="matrix(1 0 0 1 683.76 332.3)" class="st2 st6">六本木</text>
				<text transform="matrix(1 0 0 1 751.32 444.24)" class="st2 st6">池袋</text>
				<text transform="matrix(1 0 0 1 829.99 397.85)" class="st2 st6">小竹向原</text>
				<text transform="matrix(1 0 0 1 829.99 504.75)" class="st2 st6">新宿三丁目</text>
				<text transform="matrix(1 0 0 1 829.99 555.18)" class="st2 st6">渋谷</text>
				<text transform="matrix(1 0 0 1 829.99 606.61)" class="st2 st6">横浜</text>
				<text transform="matrix(1 0 0 1 829.99 658.04)" class="st2 st6">元町・中華街</text>
				<text transform="matrix(1 0 0 1 1054.88 504.75)" class="st2 st6">市ヶ谷</text>
				<text transform="matrix(1 0 0 1 1054.88 555.18)" class="st2 st6">有楽町</text>
				<text transform="matrix(1 0 0 1 1054.88 606.61)" class="st2 st6">銀座一丁目</text>
				<text transform="matrix(1 0 0 1 1054.88 658.04)" class="st2 st6">新木場</text>
				<text transform="matrix(1 0 0 1 727.5 227.19)" class="st8 st9">16</text>
				<text transform="matrix(1 0 0 1 753.45 227.19)" class="st8 st6">min</text>
				<text transform="matrix(1 0 0 1 736.58 104.15)" class="st8 st9">9</text>
				<text transform="matrix(1 0 0 1 749.56 104.15)" class="st8 st6">min</text>
				<text transform="matrix(1 0 0 1 725.49 399.64)" class="st8 st9">47</text>
				<text transform="matrix(1 0 0 1 751.44 399.64)" class="st8 st6">min</text>
				<text transform="matrix(1 0 0 1 725.49 556.97)" class="st8 st9">68</text>
				<text transform="matrix(1 0 0 1 751.44 556.97)" class="st8 st6">min</text>
				<text transform="matrix(1 0 0 1 725.49 507.55)" class="st8 st9">62</text>
				<text transform="matrix(1 0 0 1 751.44 507.55)" class="st8 st6">min</text>
				<text transform="matrix(1 0 0 1 725.49 662.86)" class="st8 st9">112</text>
				<text transform="matrix(1 0 0 1 764.42 662.86)" class="st8 st6">min</text>
				<text transform="matrix(1 0 0 1 725.49 613.44)" class="st8 st9">101</text>
				<text transform="matrix(1 0 0 1 764.42 613.44)" class="st8 st6">min</text>
				<text transform="matrix(1 0 0 1 963.49 556.97)" class="st8 st9">80</text>
				<text transform="matrix(1 0 0 1 989.44 556.97)" class="st8 st6">min</text>
				<text transform="matrix(1 0 0 1 963.49 507.55)" class="st8 st9">71</text>
				<text transform="matrix(1 0 0 1 989.44 507.55)" class="st8 st6">min</text>
				<text transform="matrix(1 0 0 1 963.49 662.86)" class="st8 st9">95</text>
				<text transform="matrix(1 0 0 1 989.44 662.86)" class="st8 st6">min</text>
				<text transform="matrix(1 0 0 1 963.49 613.44)" class="st8 st9">78</text>
				<text transform="matrix(1 0 0 1 989.44 613.44)" class="st8 st6">min</text>
			</g>
			<text transform="matrix(1 0 0 1 175.88 761.19)" class="st11 st12">※掲載の電車所要時間は、乗り換え時間等を含んだ日中時のもので、時間帯により異なります。通勤</text>
			<text transform="matrix(1 0 0 1 625.88 761.19)" class="st11 st12 st13">時</text>
			<text transform="matrix(1 0 0 1 639.55 761.19)" class="st11 st12">7：3</text>
			<text transform="matrix(1 0 0 1 660.57 761.19)" class="st11 st12 st14">0</text>
			<text transform="matrix(1 0 0 1 668.58 761.19)" class="st11 st12 st13">～</text>
			<text transform="matrix(1 0 0 1 682.26 761.19)" class="st11 st12">9：3</text>
			<text transform="matrix(1 0 0 1 703.29 761.19)" class="st11 st12 st13">0</text>
			<text transform="matrix(1 0 0 1 712.47 761.19)" class="st11 st12">に到着する電車を表記しています</text>
			<text transform="matrix(1 0 0 1 862.47 761.19)" class="st11 st12 st15">。</text>
			<text transform="matrix(1 0 0 1 867.47 761.19)" class="st11 st12">（Yahoo</text>
			<text transform="matrix(1 0 0 1 906.17 761.19)" class="st11 st12 st13">!</text>
			<text transform="matrix(1 0 0 1 912.32 761.19)" class="st11 st12">路線情</text>
			<text transform="matrix(1 0 0 1 942.32 761.19)" class="st11 st12 st13">報</text>
			<text transform="matrix(1 0 0 1 955.99 761.19)" class="st11 st12">2023.</text>
			<text transform="matrix(1 0 0 1 980.21 761.19)" class="st11 st12 st13">5</text>
			<text transform="matrix(1 0 0 1 989.4 761.19)" class="st11 st12">月調べ</text>
			<text transform="matrix(1 0 0 1 1019.4 761.19)" class="st11 st12 st15">）</text>
			<text transform="matrix(1 0 0 1 175.88 777.19)" class="st11 st12">※池袋駅へは西武池袋線急行を利用</text>
			<text transform="matrix(1 0 0 1 335.88 777.19)" class="st11 st12 st15">。</text>
			<text transform="matrix(1 0 0 1 340.88 777.19)" class="st11 st12">（日中時：西武池袋線快速を利用</text>
			<text transform="matrix(1 0 0 1 490.88 777.19)" class="st11 st12 st15">）</text>
			<text transform="matrix(1 0 0 1 495.88 777.19)" class="st11 st12">※新宿駅へは西武池袋線快速を利用、池袋駅に</text>
			<text transform="matrix(1 0 0 1 705.88 777.19)" class="st11 st12 st5">て</text>
			<text transform="matrix(1 0 0 1 720.66 777.19)" class="st11 st12">J</text>
			<text transform="matrix(1 0 0 1 724.59 777.19)" class="st11 st12 st5">R</text>
			<text transform="matrix(1 0 0 1 735.14 777.19)" class="st11 st12">湘南新宿ラインに乗換</text>
			<text transform="matrix(1 0 0 1 835.14 777.19)" class="st11 st12 st15">。</text>
			<text transform="matrix(1 0 0 1 840.14 777.19)" class="st11 st12">（日中時：池袋駅に</text>
			<text transform="matrix(1 0 0 1 930.14 777.19)" class="st11 st12 st5">て</text>
			<text transform="matrix(1 0 0 1 944.92 777.19)" class="st11 st12">J</text>
			<text transform="matrix(1 0 0 1 948.85 777.19)" class="st11 st12 st5">R</text>
			<text transform="matrix(1 0 0 1 959.4 777.19)" class="st11 st12">埼京線に乗換</text>
			<text transform="matrix(1 0 0 1 1019.4 777.19)" class="st11 st12 st15">）</text>
			<text transform="matrix(1 0 0 1 175.88 793.19)" class="st11 st12">※</text>
			<text transform="matrix(1 0 0 1 185.88 793.19)" class="st11 st12">渋谷駅へは西武池袋線快速を利</text>
			<text transform="matrix(1 0 0 1 327.51 793.19)" class="st11 st12">用、</text>
			<text transform="matrix(1 0 0 1 347.51 793.19)" class="st11 st12">小竹向原駅にて東京メトロ副都心線へ乗</text>
			<text transform="matrix(1 0 0 1 529.61 793.19)" class="st11 st12">換</text>
			<text transform="matrix(1 0 0 1 539.61 793.19)" class="st11 st12 st15">。</text>
			<text transform="matrix(1 0 0 1 544.61 793.19)" class="st11 st12">※</text>
			<text transform="matrix(1 0 0 1 554.61 793.19)" class="st11 st12">東京駅へは西武池袋線急行を利</text>
			<text transform="matrix(1 0 0 1 696.25 793.19)" class="st11 st12">用、</text>
			<text transform="matrix(1 0 0 1 716.25 793.19)" class="st11 st12">池袋駅より東京メトロ丸の内線に乗</text>
			<text transform="matrix(1 0 0 1 878.11 793.19)" class="st11 st12">換</text>
			<text transform="matrix(1 0 0 1 888.11 793.19)" class="st11 st12 st15">。</text>
			<text transform="matrix(1 0 0 1 893.11 793.19)" class="st11 st12">※</text>
			<text transform="matrix(1 0 0 1 903.11 793.19)" class="st11 st12">市ヶ谷駅へは西武池袋線</text>
			<text transform="matrix(1 0 0 1 1014.4 793.19)" class="st11 st12">快</text>
			<text transform="matrix(1 0 0 1 175.88 809.19)" class="st11 st12">速を利用</text>
			<text transform="matrix(1 0 0 1 215.88 809.19)" class="st11 st12 st15">、</text>
			<text transform="matrix(1 0 0 1 220.88 809.19)" class="st11 st12">小竹向原駅にて東京メトロ有楽町線に乗換</text>
			<text transform="matrix(1 0 0 1 410.88 809.19)" class="st11 st12 st15">。</text>
			<text transform="matrix(1 0 0 1 415.88 809.19)" class="st11 st12">※銀座一丁目駅へは西武池袋線急行を利用</text>
			<text transform="matrix(1 0 0 1 605.88 809.19)" class="st11 st12 st15">、</text>
			<text transform="matrix(1 0 0 1 610.88 809.19)" class="st11 st12">池袋駅より東京メトロ有楽町線を利用</text>
			<text transform="matrix(1 0 0 1 780.88 809.19)" class="st11 st12 st16">。</text>
			<text transform="matrix(1 0 0 1 784.4 809.19)" class="st11 st12">（日中</text>
			<text transform="matrix(1 0 0 1 814.4 809.19)" class="st11 st12 st17">時：</text>
			<text transform="matrix(1 0 0 1 829.4 809.19)" class="st11 st12">小竹向原駅より東京メトロ有楽町線に乗換</text>
			<text transform="matrix(1 0 0 1 1019.4 809.19)" class="st11 st12 st15">）</text>
			<text transform="matrix(1 0 0 1 175.88 825.19)" class="st11 st12">※元町・中華街駅へは西武池袋線快速を利用、小竹向原駅より東京メトロ副都心線を利用</text>
			<text transform="matrix(1 0 0 1 575.88 825.19)" class="st11 st12 st15">。</text>
			<text transform="matrix(1 0 0 1 580.88 825.19)" class="st11 st12">（直通運転</text>
			<text transform="matrix(1 0 0 1 630.88 825.19)" class="st11 st12 st15">）</text>
		</g>
	</g>
</g>
</svg>
