<?xml version="1.0" encoding="UTF-8"?>
<svg id="_レイヤー_2" data-name="レイヤー 2" xmlns="http://www.w3.org/2000/svg" viewBox="0 0 226.15 136.99">
  <defs>
    <style>
      .cls-1 {
        fill: #332615;
      }
    </style>
  </defs>
  <g id="_レイヤー_2-2" data-name="レイヤー 2">
    <g>
      <path class="cls-1" d="m.85,113.23s-.07-.02-.09-.07l-.23-.44s-.01-.03-.01-.05c0-.04.03-.07.1-.07.47.04.99.07,1.57.09h1.73c.14-.4.25-.83.34-1.31.09-.47.14-.89.15-1.24h-1.43c-.55,0-1.17.07-1.86.17h-.04s-.07-.02-.09-.07l-.22-.44s-.01-.03-.01-.05c0-.04.03-.07.09-.07.45.04.95.07,1.49.09h.78c0-.65-.03-1.2-.09-1.65,0-.09.04-.12.13-.09.72.22,1.08.38,1.08.49,0,.04-.03.09-.1.13l-.21.13v.99h.99l.25-.36s.06-.09.11-.16c.05-.07.09-.13.12-.16.03-.03.07-.05.1-.05.08,0,.24.11.49.33.25.22.41.39.47.51,0,.04,0,.09-.01.13-.05.1-.15.14-.3.14h-1.66c.44.14.75.25.92.33.17.08.26.14.26.2,0,.03-.04.06-.12.09l-.23.09c-.37.72-.75,1.33-1.13,1.85h1.03l.25-.38s.07-.1.11-.16c.04-.06.08-.11.12-.16s.08-.07.12-.07c.05,0,.16.07.32.2.16.13.31.27.45.42.14.15.21.25.21.31,0,.06-.04.11-.1.14-.06.03-.13.05-.21.05h-3.73c-.55,0-1.17.07-1.86.17h-.04Zm4.41,4.39c-.09-.29-.26-.59-.51-.91-.26-.32-.53-.6-.83-.84v1.27c.03,1.06.06,1.85.09,2.39,0,.04-.01.08-.04.12-.07.09-.17.16-.3.22-.13.06-.26.09-.38.09-.08,0-.14-.03-.2-.08s-.08-.11-.08-.18c.05-.73.09-1.46.1-2.18v-1.23c-.62,1.06-1.41,1.93-2.35,2.63-.06.04-.11.04-.14-.01l-.03-.04c-.03-.06-.02-.11.01-.14.48-.49.9-1.05,1.27-1.68.37-.62.67-1.27.9-1.95h-.66c-.37,0-.74.06-1.11.16-.07.02-.11,0-.13-.05l-.23-.47s-.01-.03-.01-.05c0-.04.03-.07.09-.07.48.04,1,.07,1.57.09h.82c0-.51-.03-.98-.08-1.39,0-.09.04-.12.13-.09.68.23,1.03.39,1.03.51,0,.03-.03.07-.09.12l-.2.13v.73h1.17l.25-.35s.06-.08.11-.15c.05-.07.09-.11.12-.15s.07-.05.1-.05c.07,0,.22.11.46.32.24.21.39.38.45.5,0,.04,0,.09-.01.13-.05.1-.15.14-.3.14h-2.35v.6h.01c.7.17,1.22.42,1.55.73.33.31.49.62.49.91,0,.14-.03.25-.1.34-.07.09-.16.13-.27.13-.1,0-.18-.02-.25-.07-.03-.02-.07-.05-.09-.1Zm-2.94-5.17s-.05-.08-.05-.13c-.02-.29-.08-.61-.19-.96-.11-.36-.23-.67-.37-.95-.03-.05-.01-.1.04-.13.04-.03.09-.02.14.01.39.28.68.57.86.86s.27.57.27.81c0,.18-.04.33-.12.44-.08.11-.18.16-.3.16-.09,0-.18-.04-.29-.12Zm9.38-.31c.27.24.44.42.5.55,0,.04,0,.09,0,.13-.05.1-.15.14-.3.14h-1.37v3.6c.02,1.08.05,2.08.1,2.98,0,.05-.02.1-.05.13-.2.2-.44.3-.71.3-.07,0-.13-.03-.2-.08-.06-.05-.09-.11-.09-.18.03-.51.07-1.01.09-1.49s.04-1.11.05-1.89v-3.37h-1.86v.39c0,.92-.07,1.76-.2,2.51-.13.75-.39,1.48-.79,2.19-.4.71-.98,1.32-1.76,1.85-.05.03-.1.03-.14-.01l-.03-.03c-.05-.05-.05-.1,0-.16.84-.8,1.41-1.71,1.7-2.73.29-1.02.44-2.23.44-3.63v-2.13c0-.75-.03-1.43-.1-2.05v-.03c0-.07.03-.09.1-.07l.92.35c.05-.02.25-.09.6-.22.4-.16.79-.35,1.19-.58.39-.23.72-.46.97-.68.05-.04.1-.04.16.01.3.29.52.5.64.64.12.14.18.23.18.29,0,.06-.06.08-.18.07l-.3-.03c-.43.16-.96.33-1.59.48s-1.23.28-1.81.36v2.81h2.66l.27-.39c.04-.05.09-.11.13-.17.04-.06.09-.11.13-.16.04-.05.08-.07.12-.07.07,0,.24.12.51.36Z"/>
      <path class="cls-1" d="m20.19,116.77c.56.47,1.29.88,2.17,1.23.88.35,1.78.6,2.69.76.06.02.09.04.09.07,0,.03,0,.06-.03.08s-.04.03-.07.04c-.14.03-.26.11-.36.22-.1.11-.18.24-.23.39-.03.06-.07.09-.13.08-.93-.27-1.79-.65-2.59-1.14-.8-.49-1.45-1.07-1.96-1.72h-.04v.99c.03.8.05,1.4.08,1.82,0,.05-.01.09-.04.12-.06.08-.16.15-.3.21-.14.06-.28.09-.42.09-.08,0-.14-.03-.18-.08-.04-.05-.07-.11-.07-.18.03-.42.07-.98.09-1.69v-.99c-.61.62-1.35,1.16-2.24,1.61-.88.45-1.86.81-2.94,1.09h-.03s-.08-.02-.1-.07v-.03s-.03-.03-.03-.05c0-.04.03-.07.08-.09.89-.32,1.72-.72,2.47-1.19.75-.47,1.39-.99,1.9-1.57h-2.08c-.55,0-1.17.07-1.86.17h-.03s-.08-.02-.1-.07l-.23-.45v-.05s.02-.07.08-.07c.47.04.99.07,1.57.09h3.54c0-.39-.02-.78-.07-1.17,0-.09.04-.12.13-.09.4.13.67.23.83.31.15.07.23.14.23.2,0,.03-.03.07-.09.12l-.2.13v.51h3.54l.26-.35s.07-.09.12-.16c.05-.07.1-.12.14-.16.04-.03.08-.05.11-.05.08,0,.26.11.53.32.28.21.45.38.51.5,0,.02.01.04.01.06,0,.07-.03.12-.1.16-.07.03-.15.05-.24.05h-4.42Zm-4.6-6.92c-.52.69-1.13,1.26-1.82,1.69-.04.03-.09.03-.14-.03h-.01c-.04-.07-.04-.12.01-.16.24-.24.49-.53.73-.87.23-.32.46-.72.68-1.2.22-.48.37-.9.46-1.26,0-.07.06-.09.14-.07.68.32,1.01.53,1.01.64,0,.03-.04.06-.13.08l-.23.05c-.19.35-.34.6-.46.75h2.33l.22-.34s.07-.09.1-.14c.03-.05.07-.1.11-.14.04-.04.08-.07.11-.07.07,0,.22.1.46.31s.38.37.43.48v.05c.01.14-.1.21-.31.21h-2.46c.23.15.39.31.5.47.11.17.16.33.16.49,0,.14-.04.25-.11.34-.07.09-.17.14-.28.14-.1,0-.19-.03-.27-.09-.04-.03-.07-.08-.07-.13-.02-.2-.07-.41-.15-.63-.08-.22-.18-.42-.28-.59h-.74Zm-1.27,5.81s-.07-.02-.09-.07l-.43-.79s-.01-.04-.01-.07c0-.04.03-.07.08-.07l.31-.05c.14-.03.38-.07.72-.12.34-.06.66-.11.97-.18v-2.08h-.56c-.29,0-.59.06-.9.16h-.04s-.07-.02-.09-.07l-.22-.44s-.01-.03-.01-.05c0-.04.03-.07.09-.07.48.04,1.01.07,1.59.09h1.48l.22-.31s.08-.11.15-.2c.07-.09.12-.13.18-.13.08,0,.23.1.46.29.23.19.37.34.44.45,0,.04,0,.09-.01.13-.05.1-.15.14-.3.14h-1.68v1.92l.45-.08c.63-.12,1.06-.2,1.27-.25h.03c.06,0,.1.03.1.08h0v.05s-.02.07-.07.09c-1.29.46-2.6.9-3.91,1.33-.03.12-.09.21-.18.26,0,0-.02.01-.04.01Zm4.48-4.5l-.03-.03c-.04-.05-.04-.1,0-.14.18-.18.34-.37.47-.57.24-.32.47-.71.69-1.17.22-.46.37-.87.47-1.23.02-.09.07-.11.14-.07.68.29,1.01.49,1.01.6,0,.03-.04.07-.13.09l-.23.07c-.16.28-.33.54-.51.78h2.76l.25-.36s.06-.09.11-.16c.05-.07.09-.13.12-.16s.07-.05.1-.05c.07,0,.24.11.51.33.27.22.43.39.49.51,0,.04,0,.09-.01.13-.05.09-.15.13-.3.13h-2.8c.26.15.45.31.57.48.12.17.18.34.18.51,0,.14-.04.25-.12.34s-.17.14-.29.14c-.1,0-.19-.03-.27-.09-.03-.02-.06-.06-.08-.12-.03-.2-.11-.41-.22-.64-.11-.23-.24-.44-.39-.62h-.91c-.4.48-.82.88-1.26,1.2l.96.49h2.2l.2-.27s.07-.09.13-.16c.06-.07.12-.11.17-.11.07,0,.2.1.4.3.2.2.32.36.37.48.03.05.01.1-.04.13-.1.06-.21.1-.35.13v2.34c0,.07.01.11.04.14.03.02.08.03.17.03h.83s.08-.01.13-.01c.03,0,.07-.04.1-.1.06-.17.15-.54.27-1.11,0-.06.04-.09.09-.09.04,0,.07.03.07.1l.04,1.11c.1.05.18.1.21.15.04.05.06.11.06.19,0,.17-.1.3-.3.38-.2.08-.55.12-1.05.12h-.64c-.32,0-.53-.05-.63-.16-.1-.1-.15-.29-.15-.56v-2.63h-2.47v.85c0,.43-.07.83-.2,1.18-.13.36-.41.7-.83,1.03-.42.33-1.02.6-1.82.82-.07.02-.11,0-.13-.05v-.03c-.04-.06-.02-.1.04-.13.84-.36,1.41-.76,1.72-1.22.3-.45.46-.99.46-1.59v-.85c0-.35-.02-.64-.05-.88l-.18.12c-.06.04-.11.04-.14-.01Zm1.36,1.47s.08-.05.13-.04c.58.11,1.01.29,1.29.53.28.24.42.48.42.72,0,.12-.03.22-.1.29-.07.07-.15.11-.25.11-.08,0-.15-.02-.22-.05-.04-.02-.07-.05-.08-.1-.08-.23-.23-.46-.45-.71-.22-.25-.45-.45-.7-.62-.07-.04-.08-.09-.04-.13Z"/>
      <path class="cls-1" d="m29.65,109.05l.64.34c.35.12.52.22.52.3,0,.03-.05.07-.16.09l-.23.05c-.39.77-.9,1.54-1.54,2.32-.64.78-1.34,1.43-2.11,1.97-.05.04-.1.03-.14-.03-.04-.06-.04-.11.01-.14.72-.69,1.37-1.55,1.96-2.56.21-.35.39-.72.56-1.13.16-.41.29-.79.36-1.14,0-.07.05-.09.13-.07Zm.42,4.67c-.49.02-.97.07-1.42.17h-.04s-.07-.02-.09-.07l-.25-.47s-.01-.03-.01-.05c0-.04.03-.06.1-.06.47.04.99.07,1.57.09h4.85l.21-.26s.07-.08.14-.16.12-.12.18-.12c.07,0,.22.1.45.29.23.19.37.35.44.47.03.05.01.1-.04.13-.1.07-.24.12-.43.14-.13,3.22-.46,5.1-1,5.64-.3.3-.74.47-1.3.49-.07,0-.1-.03-.1-.1-.02-.24-.1-.41-.25-.51-.1-.07-.27-.14-.49-.2-.23-.07-.46-.12-.72-.16-.07-.02-.1-.06-.1-.12v-.03s.01-.06.03-.08c.02-.02.05-.02.08-.01.88.1,1.47.14,1.79.14.12,0,.22-.01.29-.03.07-.02.13-.06.18-.12.19-.17.35-.71.48-1.6.13-.89.23-2.03.29-3.42h-3.12c-.09.82-.26,1.58-.51,2.28-.25.69-.69,1.38-1.31,2.07-.62.68-1.49,1.31-2.6,1.87-.06.03-.11.01-.14-.04l-.04-.05s-.01-.02-.01-.04c0-.04.04-.1.13-.16.94-.59,1.66-1.22,2.17-1.89.51-.67.86-1.33,1.06-1.98.19-.65.31-1.33.36-2.06h-.82Zm5.69-2.39c.72.74,1.53,1.33,2.42,1.77.04.03.07.05.07.08,0,.03,0,.06-.03.08s-.04.03-.07.04c-.14.03-.27.1-.38.21s-.21.22-.27.35c-.03.07-.07.08-.13.04-.81-.59-1.53-1.31-2.15-2.15-.62-.85-1.09-1.75-1.4-2.71h-.92c-.57.02-1.11.07-1.62.17h-.04s-.07-.02-.09-.07l-.23-.46v-.05s.02-.07.08-.07c.47.04.99.07,1.57.09h.96l.34-.52c.03-.06.08-.07.14-.03l.91.65c.06.04.08.08.05.1-.13.13-.39.21-.78.23.33.75.85,1.5,1.57,2.24Z"/>
      <path class="cls-1" d="m40.99,110.96c-.37,0-.75.06-1.13.16-.07.02-.11,0-.13-.05l-.22-.44s-.01-.03-.01-.05c0-.04.03-.07.09-.07.48.04,1.01.07,1.59.09h1.39l.23-.35s.06-.1.11-.16c.05-.07.09-.11.12-.15.03-.03.06-.05.1-.05.07,0,.23.11.47.32.24.21.39.38.46.5v.05c.01.06-.02.11-.08.15-.06.04-.13.06-.22.06h-2.76Zm-.13,8.14l.04.47c0,.05,0,.1-.03.13-.06.07-.15.13-.27.19-.12.06-.25.08-.38.08-.05,0-.1-.03-.14-.08s-.06-.11-.06-.18c.03-.36.06-.8.08-1.33v-.81c0-.91-.04-1.68-.13-2.31v-.03s0-.06.03-.07c.02,0,.04,0,.08.01l.85.39h1.44l.18-.25s.07-.07.12-.14c.06-.07.11-.1.16-.1.08,0,.24.09.47.27.24.18.39.32.45.44.03.05.01.1-.04.13-.11.1-.26.16-.46.2v1.04c.03.85.05,1.49.08,1.91,0,.05-.01.1-.04.13-.07.07-.17.13-.31.2-.14.06-.26.09-.38.09-.08,0-.13-.07-.17-.2,0-.02,0-.06.03-.13l.03-.13v-.23h-1.64v.31Zm1.46-10.48s.06-.08.11-.15c.05-.07.09-.11.12-.15.03-.03.07-.05.1-.05.08,0,.24.1.47.31.24.2.39.37.45.49v.05c.01.07-.02.12-.08.16s-.15.06-.24.06h-1.03c-.54,0-1.15.07-1.83.17h-.04s-.07-.02-.09-.07l-.23-.46v-.05c-.01-.05.02-.07.09-.05.42.04.84.07,1.27.08h.69l.23-.34Zm.05,3.3s.06-.08.11-.14c.05-.06.09-.1.12-.13.03-.03.06-.04.1-.04.07,0,.21.1.43.29.22.19.35.34.4.46,0,.04,0,.09,0,.13-.05.1-.15.14-.3.14h-1.03c-.54,0-1.14.07-1.81.17h-.04s-.07-.02-.09-.07l-.23-.47v-.05s.02-.07.09-.07c.39.04.83.07,1.33.09h.7l.22-.31Zm0,1.66s.08-.11.15-.2c.07-.09.12-.13.18-.13.07,0,.21.1.43.29.22.19.35.34.4.46,0,.04,0,.09,0,.13-.05.1-.15.14-.3.14h-1.03c-.54,0-1.14.07-1.81.17h-.04s-.07-.02-.09-.07l-.23-.44s-.01-.03-.01-.05c0-.04.03-.07.1-.07.39.04.83.07,1.33.09h.7l.22-.33Zm-1.51,2.38v2.44h1.64v-2.44h-1.64Zm9.02-.83s.06-.08.11-.15c.05-.07.09-.11.12-.14.03-.03.06-.05.1-.05.07,0,.22.1.46.31.24.2.39.36.45.47,0,.04,0,.09,0,.13-.05.1-.15.14-.3.14h-3.2c.21.55.5,1.04.88,1.46.24-.18.49-.4.73-.65.24-.25.45-.49.61-.71.02-.03.04-.04.07-.05.03,0,.06.01.08.05.36.34.58.57.66.68.07.12.06.17-.03.16l-.17-.03c-.42.24-1,.5-1.76.78.67.68,1.45,1.14,2.34,1.38.06,0,.09.04.09.1,0,.03-.04.07-.09.09-.13.04-.24.12-.34.23-.1.11-.17.24-.2.4-.03.08-.07.1-.13.06-.79-.35-1.43-.84-1.91-1.49-.49-.65-.85-1.47-1.1-2.46h-.04c-.33.33-.7.62-1.12.87v1.86l1.79-.36h.03c.05,0,.09.02.1.07v.03s-.02.08-.07.1c-.98.44-2.01.86-3.08,1.26-.04.12-.1.21-.16.26,0,0-.03.01-.05.01-.04,0-.07-.02-.09-.07l-.44-.82s-.01-.04-.01-.07c0-.04.03-.07.08-.07l1.14-.21v-1.59c-.53.27-1.1.5-1.73.7h-.04s-.08-.02-.1-.05l-.03-.07c-.03-.06,0-.1.05-.13,1.06-.48,1.92-1.06,2.57-1.74h-.81c-.45,0-.9.06-1.34.16-.07.02-.11,0-.13-.05l-.22-.47v-.05s0-.03.01-.05c.02-.01.04-.02.07,0,.42.04.84.07,1.23.08h.65v-1.03h-.43c-.18,0-.38.06-.59.14h-.05s-.07,0-.09-.05l-.22-.43v-.05c-.01-.06.02-.08.09-.07.18.03.46.06.83.08h.46v-.99h-.52c-.27,0-.54.06-.82.16h-.04s-.07-.02-.09-.07l-.22-.42s-.01-.04-.01-.07c0-.04.03-.06.09-.05.23.03.58.06,1.04.08h.57c0-.39-.02-.79-.07-1.2,0-.09.04-.12.13-.09.38.13.65.23.79.31.15.07.22.14.22.2,0,.04-.04.09-.12.13l-.21.13v.52h1.73c0-.39-.02-.79-.07-1.2,0-.09.04-.12.13-.09.38.13.65.23.79.31.15.07.22.14.22.2,0,.04-.03.09-.1.13l-.21.13v.52h.48l.22-.33s.06-.08.11-.15c.05-.07.09-.11.12-.14s.06-.05.1-.05c.07,0,.22.1.45.3.23.2.37.36.44.47v.05c.01.14-.1.21-.31.21h-1.6v.99h.34l.22-.31s.06-.08.1-.14c.04-.06.08-.11.11-.14s.06-.05.1-.05c.08,0,.23.1.45.29.22.19.36.34.41.46,0,.04,0,.09-.01.13-.05.1-.15.14-.3.14h-1.42v1.03h.78l.22-.33Zm-4.06-5.17l.52.4c.29.14.43.25.43.33,0,.03-.05.06-.14.08h-.22c-.3.26-.69.5-1.16.73-.47.23-.95.41-1.44.54-.05,0-.1,0-.13-.04h-.01s-.02-.07-.02-.1c0-.03.02-.05.06-.06l.17-.09c.36-.22.71-.49,1.05-.81.34-.32.59-.64.75-.95.04-.07.09-.08.14-.04Zm3.86-.82s.06-.09.11-.16c.05-.07.09-.13.12-.16s.07-.05.1-.05c.07,0,.24.11.51.34.27.23.43.4.49.52,0,.04,0,.09-.01.13-.05.09-.15.13-.29.13h-4.65c-.55,0-1.17.07-1.86.17h-.04s-.07-.02-.09-.06l-.22-.46s-.01-.03-.01-.05c0-.04.03-.07.09-.07.48.04,1.01.07,1.59.09h1.31c0-.49-.03-.92-.08-1.31,0-.09.04-.12.13-.09.72.22,1.08.38,1.08.49,0,.04-.03.09-.1.13l-.22.14v.64h1.79l.25-.36Zm-1.57,3.93h-1.73v.99h1.73v-.99Zm0,1.36h-1.73v1.03h1.73v-1.03Zm-.07-4.17h0c.03-.06.07-.08.14-.08.62.04,1.12.14,1.52.29.4.15.69.33.87.53.18.2.27.39.27.56,0,.1-.03.19-.1.26-.07.07-.16.1-.27.1-.04,0-.08,0-.1-.01-.05-.02-.09-.03-.1-.05-.22-.24-.53-.5-.95-.79-.42-.28-.82-.51-1.22-.68-.07-.04-.09-.09-.05-.13Z"/>
      <path class="cls-1" d="m54.26,112.79c-.43.69-.94,1.34-1.53,1.94-.04.04-.09.05-.14.01h-.03c-.05-.05-.06-.1-.01-.16.72-1.04,1.38-2.32,1.99-3.85.16-.38.31-.83.45-1.35.14-.52.24-.96.28-1.32,0-.08.05-.1.13-.08.81.26,1.21.45,1.21.56,0,.03-.04.07-.12.09l-.25.09c-.41,1.15-.91,2.25-1.51,3.3.42.28.64.47.64.59,0,.05-.03.09-.1.12l-.2.08v3.74c.02,1.08.05,2.08.1,2.98,0,.05-.02.1-.05.13-.09.08-.19.15-.32.21-.13.06-.25.09-.38.09-.08,0-.15-.03-.21-.08-.06-.05-.09-.11-.09-.18.03-.51.07-1.01.09-1.49s.04-1.11.05-1.89v-3.54Zm7.96,1.53s.07-.09.12-.16c.06-.07.1-.13.14-.16s.07-.05.1-.05c.07,0,.24.11.51.34.27.23.44.4.5.52,0,.04,0,.09,0,.13-.05.1-.16.14-.31.14h-3.18v3.93h2.3l.29-.42s.08-.1.14-.18c.06-.08.1-.14.14-.18.03-.04.07-.06.1-.06.07,0,.26.13.56.38.3.25.49.44.56.57,0,.04,0,.09-.01.13-.05.1-.15.14-.3.14h-6.08c-.55,0-1.17.07-1.86.17h-.04s-.07-.02-.09-.07l-.22-.47s-.01-.03-.01-.05c0-.04.03-.07.09-.07.48.04,1.01.07,1.59.09h2.01v-3.93h-.97c-.58.02-1.14.07-1.68.17h-.04s-.07-.02-.09-.07l-.22-.45s-.01-.03-.01-.05c0-.04.03-.07.09-.07.48.04,1.01.07,1.59.09h1.34v-3.3h-1.18c-.55,0-1.17.07-1.86.17h-.04s-.07-.02-.09-.07l-.22-.46s-.01-.03-.01-.05c0-.04.03-.07.09-.07.48.04,1.01.07,1.59.09h4.65l.27-.39c.04-.05.09-.11.13-.17.04-.06.09-.11.13-.16.04-.05.08-.07.12-.07.08,0,.26.12.54.35.28.23.46.42.53.55,0,.04,0,.09-.01.13-.05.1-.16.14-.31.14h-3.47v3.3h1.86l.26-.38Zm-4.08-6.1s.09-.05.14-.03c.56.16,1.02.35,1.38.58.36.23.62.47.78.72.16.24.24.46.24.66,0,.14-.04.25-.11.34-.07.09-.17.13-.28.13-.09,0-.16-.02-.23-.05-.03-.02-.07-.05-.09-.1-.14-.35-.38-.71-.72-1.1-.34-.39-.7-.73-1.09-1.01-.06-.04-.07-.09-.03-.13Z"/>
      <path class="cls-1" d="m70.29,112.88c-1.15.25-2.2.43-3.15.53h-.03c-.05,0-.09-.03-.1-.08v-.05s-.01-.03-.01-.03c0-.04.03-.07.09-.09,1.45-.28,2.95-.7,4.5-1.27.77-.29,1.43-.63,1.98-1.04.04-.03.1-.03.16.01.3.29.51.51.63.64.12.13.18.23.18.29s-.07.08-.2.07l-.31-.04c-.78.29-1.75.59-2.91.87v2.3l4.1-.6.22-.43s.05-.1.09-.18c.04-.09.08-.15.12-.2.03-.04.07-.07.1-.07.05,0,.18.05.38.16.2.11.39.22.56.34.17.12.25.21.25.27,0,.07-.04.13-.1.18-.06.05-.12.08-.2.08l-5.53.81v3.17c0,.16.05.26.14.32.1.06.31.08.65.08h1.79c.87,0,1.43-.01,1.69-.04.1,0,.16-.03.21-.06.04-.03.08-.08.12-.15.08-.17.19-.64.34-1.4l.09-.46c0-.06.04-.09.1-.09.05,0,.08.03.08.1l.03,1.92c.16.05.26.11.33.16.06.06.09.13.09.23,0,.15-.08.26-.24.34-.16.08-.46.13-.9.17-.44.03-1.09.05-1.96.05h-1.85c-.42,0-.73-.03-.95-.09-.22-.06-.37-.16-.45-.31-.09-.14-.13-.35-.13-.62v-3.22l-4.41.64h-.03s-.06-.03-.09-.08l-.07-.17v-.04s.02-.06.08-.08l4.51-.65v-2.24Zm5.52-3.3s.06-.08.11-.14c.05-.06.09-.11.12-.14.03-.03.07-.05.1-.05.07,0,.22.13.46.38.23.26.38.45.44.59.03.05.01.1-.04.13-.08.04-.22.07-.42.09-.2.24-.44.51-.72.8-.28.29-.54.54-.79.73-.04.03-.09.03-.14,0-.05-.03-.07-.07-.04-.14.23-.46.46-.98.68-1.56h-8.2c0,.42-.06.78-.19,1.08-.14.3-.31.53-.51.68-.17.13-.36.2-.55.2s-.33-.07-.39-.21c-.03-.07-.04-.13-.04-.2,0-.17.11-.35.33-.52.28-.16.51-.43.7-.81.19-.37.28-.78.27-1.22,0-.07.03-.1.1-.1h.04c.05,0,.08.03.09.08.06.22.1.43.13.65h3.55c0-.66-.03-1.26-.1-1.79,0-.09.04-.12.13-.09.76.22,1.14.39,1.14.51,0,.04-.03.09-.1.13l-.22.14v1.11h3.82l.25-.33Z"/>
      <path class="cls-1" d="m82.35,118.95c-.06,0-.09-.06-.09-.18,0-.13.03-.2.09-.2h.21c.42,0,.77-.07,1.03-.2.26-.13.39-.33.39-.61v-6.23c0-.26-.02-.44-.07-.53-.05-.09-.16-.15-.34-.18-.18-.03-.51-.05-.99-.05h-.22c-.06,0-.09-.07-.09-.2,0-.12.03-.18.09-.18.51,0,.97-.07,1.38-.21.41-.14.79-.37,1.16-.68.03-.03.05-.04.07-.04.04,0,.07.03.07.09v8.2c0,.54.47.81,1.42.81h.2s.06.02.07.05c.01.03.02.08.02.15,0,.12-.03.18-.09.18h-4.28Z"/>
      <path class="cls-1" d="m94.96,110.7s.06-.09.11-.16c.05-.07.09-.13.12-.16.03-.03.07-.05.1-.05.07,0,.22.11.46.34.24.23.38.4.44.52,0,.04,0,.09,0,.13-.05.1-.15.14-.3.14h-1.53v1.38c.59.28,1.02.58,1.3.91.28.33.42.63.42.9,0,.14-.03.25-.1.34-.07.09-.16.13-.26.13-.09,0-.17-.03-.26-.09-.03-.02-.07-.05-.09-.1-.08-.27-.21-.57-.4-.89-.19-.33-.39-.63-.6-.9v3.39c.02,1.07.05,2.07.1,2.99,0,.04-.01.08-.04.12-.08.09-.18.16-.31.23s-.26.1-.39.1c-.08,0-.15-.03-.21-.08-.06-.05-.09-.11-.09-.18.03-.51.07-1.01.09-1.49s.04-1.11.05-1.89v-2.65c-.5,1.26-1.16,2.34-1.98,3.26-.02.03-.04.04-.07.03-.03,0-.05-.02-.07-.03l-.04-.04s-.05-.09-.01-.14c.48-.7.88-1.51,1.21-2.41.33-.91.59-1.86.77-2.87h-.55c-.29,0-.59.06-.87.16h-.04s-.07-.02-.09-.07l-.23-.46v-.05c-.01-.05.02-.07.09-.05.41.04.81.07,1.22.08h.66v-.4c0-.94-.05-1.79-.14-2.53v-.03c0-.07.04-.09.12-.07.42.13.72.24.89.32.17.08.25.15.25.21,0,.04-.03.09-.1.13l-.22.14v2.22h.36l.23-.36Zm6.67.38s.07-.09.13-.18c.06-.08.12-.12.17-.12.08,0,.23.1.47.31s.38.38.44.51c.03.03.02.07-.03.12-.1.1-.25.16-.47.21v1.17c.03.94.05,1.67.08,2.17,0,.05-.02.1-.05.13-.08.07-.19.13-.33.2-.14.06-.27.09-.37.09h-.03c-.07,0-.1-.03-.1-.1v-.31h-1.57c.36.62.82,1.2,1.39,1.73.57.53,1.16.94,1.76,1.25.05.03.08.06.08.09,0,.04-.04.07-.1.08-.27.07-.46.27-.58.6-.03.08-.07.1-.14.05-.55-.41-1.05-.94-1.52-1.6-.47-.66-.85-1.39-1.14-2.18v1.44c.03,1.2.06,2.12.09,2.74,0,.05-.01.1-.04.13-.06.1-.16.18-.29.24s-.26.1-.4.1c-.07,0-.13-.03-.18-.08-.05-.05-.07-.11-.07-.18.05-.77.09-1.54.1-2.3v-1.29c-.86,1.27-2.06,2.3-3.6,3.09-.06.03-.11.01-.14-.04l-.04-.05c-.03-.06-.02-.11.04-.14.7-.47,1.33-1.02,1.9-1.64.56-.63,1.04-1.31,1.42-2.03h-1.38v.26c0,.05-.07.11-.2.18-.13.07-.28.1-.44.1-.06,0-.11-.03-.15-.08s-.06-.11-.06-.18c.03-.35.06-.8.08-1.35v-.82c0-.93-.04-1.71-.13-2.34v-.03c0-.06.03-.08.1-.05l.95.42h1.65v-1.27h-.97c-.51,0-1.09.07-1.73.17h-.04s-.07-.02-.09-.07l-.23-.44s-.01-.03-.01-.05c0-.04.03-.07.1-.07.47.04.99.07,1.57.09h1.4c0-.61-.03-1.14-.08-1.61v-.03c0-.07.04-.09.12-.07.41.13.69.23.84.31.16.08.23.15.23.21,0,.03-.04.08-.12.14l-.22.14v.9h1.77l.25-.38s.06-.09.11-.16c.05-.07.09-.13.12-.17.03-.04.07-.06.1-.06.07,0,.23.11.49.34.26.23.41.4.47.52,0,.04,0,.09-.01.13-.05.1-.15.14-.3.14h-3v1.27h1.73l.21-.3Zm-2.72,2.08v-1.39h-1.81v1.39h1.81Zm-1.81.39v1.35h1.81v-1.35h-1.81Zm4.43-.39v-1.39h-1.85v1.39h1.85Zm-1.85.39v1.35h1.85v-1.35h-1.85Z"/>
      <path class="cls-1" d="m119.66,108.28s0,.06-.03.08l-11.67,11.67s-.04.03-.08.03-.06,0-.08-.03l-.22-.21s-.03-.04-.03-.08,0-.06.03-.08l11.67-11.67s.04-.03.08-.03c.03,0,.06,0,.08.02l.22.22s.03.04.03.08Z"/>
      <path class="cls-1" d="m3.04,125.84s.06-.08.1-.13.07-.09.1-.12c.03-.03.06-.04.1-.04.07,0,.21.11.44.33.22.22.36.39.42.52.03.05.01.1-.04.13-.1.07-.27.12-.52.14-.54,1.2-1.04,2.27-1.51,3.21h1.09l.21-.25s.06-.08.12-.15c.07-.07.13-.11.19-.11.08,0,.22.09.44.28.21.19.34.34.4.46.03.03.02.07-.03.12-.07.06-.21.1-.42.13-.17,1.51-.5,2.77-.97,3.78.38.47.83.83,1.35,1.07s1.11.42,1.78.51c.67.09,1.48.14,2.44.14,1.6,0,2.7,0,3.3-.03.07,0,.1.03.1.09,0,.05-.03.09-.09.12-.24.08-.39.26-.44.55-.02.06-.06.09-.12.09h-2.82c-.99,0-1.83-.06-2.52-.18-.69-.12-1.3-.33-1.83-.64-.53-.31-.98-.74-1.36-1.31-.55.97-1.29,1.76-2.22,2.35-.06.03-.11.02-.14-.04v-.03c-.04-.06-.03-.11.01-.14.84-.68,1.49-1.62,1.96-2.81-.28-.53-.53-1.18-.75-1.96-.27.52-.49.94-.68,1.25.03.05.04.1.04.14v.04s-.03.05-.06.06c-.03,0-.06,0-.08-.03l-.44-.44c-.05-.05-.05-.1,0-.16.51-.51.89-.91,1.13-1.21l.1-.47c0-.07.05-.09.13-.07l.22.07s.06.04.07.07c0,.03,0,.05-.01.08l-.27.4c.2.68.45,1.29.77,1.82.28-.88.48-1.95.6-3.22h-1.36c-.08.14-.14.26-.19.36-.05.1-.09.19-.12.26-.03.03-.07.06-.12.08-.03,0-.07.01-.14.01-.12,0-.26-.03-.42-.08-.08-.03-.1-.07-.05-.14.33-.68.67-1.4,1.02-2.18.35-.78.64-1.46.88-2.05h-.7c-.39,0-.78.06-1.16.16-.07.02-.11,0-.13-.05l-.23-.47s-.01-.03-.01-.05c0-.04.03-.07.09-.07.42.04.9.07,1.42.09h.75l.21-.29Zm6.89.31s.07-.09.13-.18c.06-.08.12-.12.17-.12.07,0,.22.1.45.31.23.2.38.37.44.49.03.04.02.09-.03.13-.12.1-.28.16-.47.2v1.18h.2l.22-.36s.05-.09.09-.16c.04-.07.08-.12.12-.16s.07-.05.1-.05c.07,0,.22.11.45.33.23.22.37.39.42.51,0,.04,0,.09-.01.13-.05.1-.15.14-.29.14h-1.3v.62l.03.51c0,.15,0,.35.03.61,0,.03,0,.07-.03.12-.07.08-.18.15-.32.21-.14.06-.27.09-.38.09-.06,0-.09-.03-.09-.1v-.31h-1.86v1.34h1.83l.23-.35s.07-.09.1-.14c.03-.05.07-.1.11-.14.04-.04.08-.07.11-.07.08,0,.24.11.49.32.25.21.4.38.46.5v.05c.01.07-.02.12-.08.16-.06.04-.14.06-.23.06h-3.03v1.37h2.22l.26-.38s.07-.09.12-.16c.05-.07.1-.13.14-.17s.08-.06.11-.06c.07,0,.24.11.52.34.28.23.45.41.51.53,0,.04,0,.09-.01.13-.05.1-.15.14-.3.14h-3.56v.49l.03.39c0,.12,0,.28.03.47,0,.05,0,.1-.03.13-.05.08-.14.15-.27.2-.13.06-.26.08-.4.08-.08,0-.14-.03-.18-.08s-.06-.11-.06-.18c.03-.2.04-.4.05-.61,0-.12,0-.22.01-.3v-.6h-1.04c-.55,0-1.17.07-1.86.17h-.04s-.07-.02-.09-.07l-.22-.45s-.01-.03-.01-.05c0-.04.03-.07.09-.07.48.04,1.01.07,1.59.09h1.59v-1.37h-.87c-.53.02-1.04.07-1.52.17h-.04s-.07-.02-.09-.07l-.23-.47s-.01-.03-.01-.05c0-.04.03-.07.09-.07.48.04,1.01.07,1.59.09h1.09v-1.34h-.82c-.49,0-.96.07-1.39.17h-.04s-.07-.02-.09-.07l-.23-.45v-.05s.02-.07.08-.07c.47.04.99.07,1.57.09h.92v-1.36h-1.23c-.55,0-1.17.07-1.86.17h-.04s-.07-.02-.09-.06l-.23-.46s-.01-.03-.01-.05c0-.04.03-.07.09-.07.48.04,1.01.07,1.59.09h1.79v-1.34h-.82c-.48.02-.93.07-1.36.17h-.04s-.07-.02-.09-.07l-.23-.44s-.01-.03-.01-.05c0-.04.03-.07.1-.07.47.04.99.07,1.57.09h.88c0-.49-.03-.94-.08-1.33,0-.09.04-.12.13-.09.4.12.68.22.84.31.16.08.24.15.24.21,0,.04-.03.09-.1.13l-.22.16v.61h1.73l.2-.3Zm-.07.66h-1.86v1.34h1.86v-1.34Zm-1.86,3.08h1.86v-1.36h-1.86v1.36Z"/>
      <path class="cls-1" d="m20.19,133.77c.56.47,1.29.88,2.17,1.23.88.35,1.78.6,2.69.76.06.02.09.04.09.07,0,.03,0,.06-.03.08s-.04.03-.07.04c-.14.03-.26.11-.36.22-.1.11-.18.24-.23.39-.03.06-.07.09-.13.08-.93-.27-1.79-.65-2.59-1.14-.8-.49-1.45-1.07-1.96-1.72h-.04v.99c.03.8.05,1.4.08,1.82,0,.05-.01.09-.04.12-.06.08-.16.15-.3.21-.14.06-.28.09-.42.09-.08,0-.14-.03-.18-.08-.04-.05-.07-.11-.07-.18.03-.42.07-.98.09-1.69v-.99c-.61.62-1.35,1.16-2.24,1.61-.88.45-1.86.81-2.94,1.09h-.03s-.08-.02-.1-.07v-.03s-.03-.03-.03-.05c0-.04.03-.07.08-.09.89-.32,1.72-.72,2.47-1.19.75-.47,1.39-.99,1.9-1.57h-2.08c-.55,0-1.17.07-1.86.17h-.03s-.08-.02-.1-.07l-.23-.45v-.05s.02-.07.08-.07c.47.04.99.07,1.57.09h3.54c0-.39-.02-.78-.07-1.17,0-.09.04-.12.13-.09.4.13.67.23.83.31.15.07.23.14.23.2,0,.03-.03.07-.09.12l-.2.13v.51h3.54l.26-.35s.07-.09.12-.16c.05-.07.1-.12.14-.16.04-.03.08-.05.11-.05.08,0,.26.11.53.32.28.21.45.38.51.5,0,.02.01.04.01.06,0,.07-.03.12-.1.16-.07.03-.15.05-.24.05h-4.42Zm-4.6-6.92c-.52.69-1.13,1.26-1.82,1.69-.04.03-.09.03-.14-.03h-.01c-.04-.07-.04-.12.01-.16.24-.24.49-.53.73-.87.23-.32.46-.72.68-1.2.22-.48.37-.9.46-1.26,0-.07.06-.09.14-.07.68.32,1.01.53,1.01.64,0,.03-.04.06-.13.08l-.23.05c-.19.35-.34.6-.46.75h2.33l.22-.34s.07-.09.1-.14c.03-.05.07-.1.11-.14.04-.04.08-.07.11-.07.07,0,.22.1.46.31s.38.37.43.48v.05c.01.14-.1.21-.31.21h-2.46c.23.15.39.31.5.47.11.17.16.33.16.49,0,.14-.04.25-.11.34-.07.09-.17.14-.28.14-.1,0-.19-.03-.27-.09-.04-.03-.07-.08-.07-.13-.02-.2-.07-.41-.15-.63-.08-.22-.18-.42-.28-.59h-.74Zm-1.27,5.81s-.07-.02-.09-.07l-.43-.79s-.01-.04-.01-.07c0-.04.03-.07.08-.07l.31-.05c.14-.03.38-.07.72-.12.34-.06.66-.11.97-.18v-2.08h-.56c-.29,0-.59.06-.9.16h-.04s-.07-.02-.09-.07l-.22-.44s-.01-.03-.01-.05c0-.04.03-.07.09-.07.48.04,1.01.07,1.59.09h1.48l.22-.31s.08-.11.15-.2c.07-.09.12-.13.18-.13.08,0,.23.1.46.29.23.19.37.34.44.45,0,.04,0,.09-.01.13-.05.1-.15.14-.3.14h-1.68v1.92l.45-.08c.63-.12,1.06-.2,1.27-.25h.03c.06,0,.1.03.1.08h0v.05s-.02.07-.07.09c-1.29.46-2.6.9-3.91,1.33-.03.12-.09.21-.18.26,0,0-.02.01-.04.01Zm4.48-4.5l-.03-.03c-.04-.05-.04-.1,0-.14.18-.18.34-.37.47-.57.24-.32.47-.71.69-1.17.22-.46.37-.87.47-1.23.02-.09.07-.11.14-.07.68.29,1.01.49,1.01.6,0,.03-.04.07-.13.09l-.23.07c-.16.28-.33.54-.51.78h2.76l.25-.36s.06-.09.11-.16c.05-.07.09-.13.12-.16s.07-.05.1-.05c.07,0,.24.11.51.33.27.22.43.39.49.51,0,.04,0,.09-.01.13-.05.09-.15.13-.3.13h-2.8c.26.15.45.31.57.48.12.17.18.34.18.51,0,.14-.04.25-.12.34s-.17.14-.29.14c-.1,0-.19-.03-.27-.09-.03-.02-.06-.06-.08-.12-.03-.2-.11-.41-.22-.64-.11-.23-.24-.44-.39-.62h-.91c-.4.48-.82.88-1.26,1.2l.96.49h2.2l.2-.27s.07-.09.13-.16c.06-.07.12-.11.17-.11.07,0,.2.1.4.3.2.2.32.36.37.48.03.05.01.1-.04.13-.1.06-.21.1-.35.13v2.34c0,.07.01.11.04.14.03.02.08.03.17.03h.83s.08-.01.13-.01c.03,0,.07-.04.1-.1.06-.17.15-.54.27-1.11,0-.06.04-.09.09-.09.04,0,.07.03.07.1l.04,1.11c.1.05.18.1.21.15.04.05.06.11.06.19,0,.17-.1.3-.3.38-.2.08-.55.12-1.05.12h-.64c-.32,0-.53-.05-.63-.16-.1-.1-.15-.29-.15-.56v-2.63h-2.47v.85c0,.43-.07.83-.2,1.18-.13.36-.41.7-.83,1.03-.42.33-1.02.6-1.82.82-.07.02-.11,0-.13-.05v-.03c-.04-.06-.02-.1.04-.13.84-.36,1.41-.76,1.72-1.22.3-.45.46-.99.46-1.59v-.85c0-.35-.02-.64-.05-.88l-.18.12c-.06.04-.11.04-.14-.01Zm1.36,1.47s.08-.05.13-.04c.58.11,1.01.29,1.29.53.28.24.42.48.42.72,0,.12-.03.22-.1.29-.07.07-.15.11-.25.11-.08,0-.15-.02-.22-.05-.04-.02-.07-.05-.08-.1-.08-.23-.23-.46-.45-.71-.22-.25-.45-.45-.7-.62-.07-.04-.08-.09-.04-.13Z"/>
      <path class="cls-1" d="m36.57,132.06s.08-.1.14-.18c.06-.08.1-.14.14-.18.03-.04.07-.06.1-.06.08,0,.26.12.56.36.29.24.48.43.55.56,0,.04,0,.09-.01.13-.05.1-.15.14-.3.14h-4.6c.55.65,1.28,1.23,2.19,1.74.91.51,1.83.87,2.76,1.1.06.02.09.05.09.09,0,.03,0,.06-.03.08s-.04.03-.07.04c-.15.04-.28.12-.38.23-.11.11-.19.25-.24.42-.03.07-.07.09-.13.07-.95-.36-1.83-.87-2.62-1.51-.79-.64-1.43-1.39-1.9-2.25h-.08v1.27c.03,1.07.06,1.87.09,2.42,0,.04-.01.08-.04.12-.07.08-.18.15-.33.21-.15.06-.29.09-.43.09-.08,0-.14-.03-.19-.08-.05-.05-.07-.11-.07-.18.05-.75.09-1.52.1-2.29v-1.27c-.6.75-1.34,1.43-2.23,2.03-.89.6-1.88,1.1-2.97,1.5h-.04s-.08-.02-.1-.05v-.04c-.04-.06-.03-.1.03-.13.9-.43,1.73-.96,2.48-1.59.75-.63,1.38-1.29,1.89-2h-2.13c-.55,0-1.17.07-1.86.17h-.04s-.07-.02-.09-.07l-.22-.46s-.01-.03-.01-.05c0-.04.03-.07.09-.07.48.04,1.01.07,1.59.09h3.63c0-.6-.03-1.16-.1-1.69,0-.09.04-.12.13-.09.77.23,1.16.39,1.16.51,0,.04-.03.09-.1.13l-.22.13v1.01h3.55l.29-.4Zm-2.14-6.07s.1-.1.18-.19c.09-.09.16-.14.21-.14.07,0,.22.12.44.37.23.25.37.44.43.58.03.05.01.1-.04.13-.08.06-.25.1-.51.1-.57.88-1.27,1.62-2.08,2.25,1.27.67,2.9,1.11,4.89,1.34.07.02.1.04.1.08,0,.04-.03.08-.09.1-.31.1-.52.32-.62.66,0,.03-.02.05-.05.07-.02.02-.05.02-.08.01-2.01-.38-3.6-.99-4.76-1.82-1.51,1-3.38,1.69-5.63,2.08h-.03s-.07-.03-.09-.08v-.03s-.03-.03-.03-.05c0-.04.03-.07.08-.08,2.05-.53,3.75-1.3,5.11-2.31-.59-.49-1.08-1.1-1.47-1.81-.46.46-.96.89-1.49,1.28-.54.39-1.08.72-1.62.98-.06.03-.11.01-.14-.04h-.01c-.04-.08-.03-.13.03-.16.87-.57,1.65-1.29,2.35-2.15.26-.31.51-.67.74-1.08.23-.41.41-.78.52-1.12.02-.07.06-.09.13-.07.81.3,1.21.5,1.21.6,0,.03-.04.05-.12.07l-.22.03c-.17.26-.35.49-.52.7h2.89l.3-.33Zm-3.51.72l-.31.34c.43.63,1.01,1.18,1.73,1.65.7-.59,1.28-1.25,1.73-1.99h-3.15Z"/>
      <path class="cls-1" d="m41.25,129.65c-.43.72-.93,1.37-1.5,1.96-.03.05-.08.06-.14.01h-.01s-.05-.08-.03-.14c.67-.99,1.29-2.24,1.87-3.74.15-.4.29-.85.42-1.36.13-.51.22-.94.25-1.3.02-.08.06-.1.13-.08.8.29,1.2.49,1.2.58,0,.04-.04.08-.13.1l-.25.08c-.34.98-.72,1.89-1.16,2.72.29.23.44.4.44.51,0,.04-.04.09-.12.13l-.18.08v4.35c.02,1.08.05,2.08.1,2.98,0,.05-.02.1-.05.13-.09.08-.2.15-.33.21-.13.06-.26.09-.38.09-.08,0-.15-.03-.21-.08-.06-.05-.09-.11-.09-.18.03-.51.07-1.01.09-1.49s.04-1.11.05-1.89v-3.67Zm8.19-1.96s.07-.09.12-.16c.05-.07.1-.13.14-.17s.08-.06.11-.06c.07,0,.24.12.51.35.27.23.43.41.49.53,0,.04,0,.09,0,.13-.05.1-.16.14-.31.14h-3.15v3.17h2.16l.26-.39s.07-.09.12-.16c.05-.07.1-.13.14-.17s.08-.06.11-.06c.07,0,.24.12.52.36.28.24.45.42.51.54,0,.04,0,.09,0,.13-.05.1-.16.14-.31.14h-3.5v1.55c.02,1.07.05,2.05.1,2.94,0,.04-.01.08-.04.12-.07.1-.17.17-.31.23-.14.06-.28.09-.42.09-.09,0-.16-.03-.22-.08-.06-.05-.09-.11-.09-.18.03-.45.06-.9.08-1.34.02-.44.04-1,.05-1.68v-1.65h-1.65c-.55,0-1.17.07-1.86.17h-.04s-.06-.02-.09-.07l-.22-.47s-.01-.03-.01-.05c0-.04.03-.07.09-.07.48.04,1.01.07,1.59.09h2.2v-3.17h-2.05c-.49,1.03-1.01,1.85-1.59,2.46-.04.06-.09.07-.14.01s-.06-.1-.03-.14c.37-.68.71-1.46,1-2.31.13-.4.25-.86.35-1.38.1-.52.16-.96.17-1.33,0-.03.01-.06.04-.07s.06-.02.09,0c.44.14.75.25.92.34.17.09.26.16.26.21,0,.03-.04.07-.12.09l-.23.09c-.17.63-.36,1.19-.57,1.66h1.9v-.27c0-.94-.05-1.79-.14-2.53v-.03c0-.07.04-.09.12-.07.8.23,1.2.41,1.2.52,0,.04-.03.09-.1.13l-.22.14v2.11h1.82l.27-.39Z"/>
      <path class="cls-1" d="m54.31,129.74c-.46.73-.98,1.4-1.57,2-.04.04-.09.04-.14,0h-.01c-.05-.03-.06-.08-.01-.14.75-1.09,1.4-2.38,1.96-3.86.16-.4.3-.85.44-1.36.14-.51.23-.94.26-1.3,0-.08.05-.1.13-.08.81.26,1.21.45,1.21.56,0,.03-.04.07-.12.09l-.23.09c-.35,1.01-.77,1.97-1.26,2.89.3.23.46.4.46.51,0,.05-.04.09-.12.12l-.18.08v4.22c.02,1.08.05,2.08.1,2.98,0,.05-.02.1-.05.13-.09.08-.2.15-.33.21-.13.06-.26.09-.38.09-.07,0-.13-.03-.19-.08-.06-.05-.09-.11-.09-.18.03-.51.07-1.01.09-1.49.03-.48.04-1.11.05-1.89v-3.58Zm8.49-1.73s.08-.1.12-.18c.05-.07.09-.13.12-.16s.07-.05.1-.05c.07,0,.23.12.49.36.26.24.42.42.48.54,0,.02.01.04.01.07,0,.06-.03.11-.1.15s-.14.06-.23.06h-1.91v6.79c0,.27-.03.49-.1.66-.07.17-.21.32-.43.44-.22.12-.54.2-.96.25h-.03s-.07-.03-.1-.08c-.07-.26-.19-.45-.36-.57-.23-.14-.69-.26-1.38-.38-.07-.02-.1-.05-.1-.1h0c0-.07.03-.1.08-.1.13,0,.51.03,1.13.08.18,0,.37.02.55.04.19.02.34.03.47.03.15,0,.24-.03.29-.08.05-.05.07-.14.07-.27v-6.7h-2.87c-.55,0-1.17.07-1.86.17h-.04s-.07-.02-.09-.07l-.22-.47s-.01-.03-.01-.05c0-.04.03-.07.09-.07.48.04,1.01.07,1.59.09h3.42v-.59c0-.94-.05-1.79-.14-2.53v-.03c0-.07.04-.09.12-.07.45.13.76.24.94.32.18.08.27.15.27.21,0,.03-.03.07-.1.12l-.21.13v2.43h.64l.26-.39Zm-5.94,2.15s.09-.03.14,0c.77.45,1.34.92,1.7,1.4.36.49.54.91.54,1.29,0,.16-.04.3-.11.4-.07.1-.17.16-.28.16-.1,0-.2-.04-.3-.12-.04-.02-.07-.05-.08-.1-.1-.42-.31-.88-.61-1.39-.3-.51-.64-1.01-1.01-1.5-.03-.06-.03-.11.01-.14Z"/>
      <path class="cls-1" d="m74.84,129.18s.08-.1.14-.18c.06-.08.1-.14.14-.18.03-.04.07-.06.1-.06.08,0,.27.12.57.37s.48.44.55.57c0,.02.01.04.01.07,0,.06-.03.11-.1.15-.06.04-.15.06-.24.06h-4.26v5.97h3.48l.3-.42s.08-.11.14-.19c.06-.08.1-.14.14-.18s.08-.06.11-.06c.08,0,.27.13.57.38.3.25.49.44.56.57,0,.04,0,.09-.01.13-.05.1-.15.14-.3.14h-8.94c-.55,0-1.17.07-1.86.17h-.04s-.07-.02-.09-.07l-.23-.46s-.01-.03-.01-.05c0-.04.03-.07.09-.07.48.04,1.01.07,1.59.09h3.65v-5.97h-2.34c-.55,0-1.17.07-1.86.17h-.04s-.07-.02-.09-.07l-.25-.47s-.01-.03-.01-.05c0-.04.03-.07.1-.07.47.04.99.07,1.57.09h2.91v-1.91c0-.94-.05-1.79-.14-2.53v-.03c0-.07.04-.09.12-.07.45.13.76.24.94.32.17.08.26.15.26.21,0,.04-.03.09-.1.13l-.21.14v3.73h2.81l.29-.4Z"/>
      <path class="cls-1" d="m81.62,128.61s.07-.1.12-.17c.04-.07.08-.12.11-.16.03-.03.06-.05.1-.05.07,0,.22.11.46.34.24.23.39.41.45.53,0,.04,0,.09-.01.13-.05.1-.15.14-.29.14h-1.6v4.12l1.79-.83s.02-.01.04-.01c.04,0,.07.02.09.07.03.06.01.11-.04.14l-.75.51c-.95.67-1.91,1.3-2.86,1.9-.03.11-.07.2-.14.27-.03.03-.05.05-.08.05-.03,0-.05-.03-.07-.07l-.4-.9s-.01-.03-.01-.05c0-.05.03-.08.08-.09.39-.13.91-.34,1.56-.62v-4.47h-.51c-.23,0-.48.06-.74.14-.06.03-.1,0-.13-.05l-.22-.44v-.05c-.01-.06.02-.08.09-.07.22.03.55.06.99.08h.52v-1.05c0-.94-.05-1.79-.14-2.54v-.03c0-.07.04-.09.12-.07.43.13.73.23.9.31.17.07.25.14.25.2,0,.04-.04.09-.12.13l-.22.13v2.91h.43l.23-.38Zm7.01-1.08s.05-.07.08-.12c.04-.06.07-.1.1-.13s.06-.05.1-.05c.07,0,.21.1.44.3.22.2.36.36.42.49.03.03.02.07-.03.12-.1.08-.24.13-.43.16-.02,1.72-.07,2.95-.16,3.69-.09.75-.23,1.23-.43,1.44-.21.24-.52.38-.94.42-.07,0-.1-.03-.1-.1,0-.23-.05-.4-.14-.49-.09-.08-.27-.16-.56-.23-.06,0-.09-.04-.09-.1v-.04c0-.08.03-.11.1-.09.38.03.66.05.83.05.09,0,.15,0,.2-.03.05-.02.09-.05.12-.09.11-.14.2-.55.26-1.25.06-.69.1-1.79.12-3.29l-1.91.75v2.3c.02,1.07.05,2.07.1,2.99,0,.03-.01.07-.04.12-.07.09-.17.16-.31.23-.13.07-.27.1-.4.1-.07,0-.13-.03-.19-.08-.06-.05-.08-.11-.08-.18.03-.5.06-1,.08-1.49.02-.49.04-1.12.05-1.87v-1.82l-1.68.66v5.29c0,.21.06.35.18.42.12.07.37.11.75.11h1.86c.91,0,1.5-.01,1.77-.04.1,0,.17-.03.21-.06.05-.03.09-.08.14-.14.1-.2.25-.83.46-1.89,0-.06.04-.09.1-.09.05,0,.08.03.08.1l.03,1.92c.16.06.28.12.33.18.06.06.08.13.08.23,0,.16-.08.29-.25.36s-.48.13-.92.17c-.45.03-1.13.05-2.05.05h-1.9c-.42,0-.76-.03-.99-.1-.24-.07-.41-.19-.51-.35-.1-.16-.15-.4-.15-.72v-5.16l-1.46.57s-.02.01-.04.01c-.03,0-.07-.02-.1-.05l-.1-.14c-.04-.06-.03-.1.04-.13l1.66-.66v-1.87c0-.64-.03-1.24-.1-1.79,0-.09.04-.12.13-.09.42.13.7.23.86.31s.23.15.23.22c0,.04-.03.09-.1.13l-.22.14v2.64l1.68-.65v-1.88c0-.63-.03-1.24-.1-1.81,0-.09.04-.12.13-.09.4.13.68.23.83.31.16.08.23.15.23.21,0,.05-.03.1-.1.14l-.21.14v2.67l1.69-.66.12-.04.2-.29Z"/>
      <path class="cls-1" d="m95.35,135.95c-.06,0-.09-.06-.09-.18,0-.13.03-.2.09-.2h.21c.42,0,.77-.07,1.03-.2.26-.13.39-.33.39-.61v-6.23c0-.26-.02-.44-.07-.53-.05-.09-.16-.15-.34-.18-.18-.03-.51-.05-.99-.05h-.22c-.06,0-.09-.07-.09-.2,0-.12.03-.18.09-.18.51,0,.97-.07,1.38-.21.41-.14.79-.37,1.16-.68.03-.03.05-.04.07-.04.04,0,.07.03.07.09v8.2c0,.54.47.81,1.42.81h.2s.06.02.07.05c.01.03.02.08.02.15,0,.12-.03.18-.09.18h-4.28Z"/>
      <path class="cls-1" d="m102.52,135.59c-.42-.36-.76-.91-1.01-1.64-.26-.73-.38-1.62-.38-2.66s.13-1.94.39-2.68c.26-.74.6-1.29,1.02-1.66.42-.37.88-.55,1.37-.55s.94.18,1.36.55c.42.37.76.92,1.01,1.66.26.74.38,1.63.38,2.68s-.13,1.94-.39,2.66c-.26.73-.6,1.27-1.02,1.64-.42.36-.88.55-1.37.55s-.94-.18-1.36-.55Zm2.57-.99c.29-.73.44-1.84.44-3.31s-.15-2.58-.44-3.32c-.29-.74-.69-1.11-1.19-1.11s-.91.37-1.21,1.11c-.29.74-.44,1.85-.44,3.32s.15,2.58.44,3.31c.29.73.7,1.1,1.21,1.1s.9-.37,1.19-1.1Z"/>
      <path class="cls-1" d="m120.74,125.84s.07-.1.12-.18c.06-.07.1-.13.14-.17.03-.04.07-.06.1-.06.07,0,.25.12.54.36.29.24.47.42.53.54,0,.02.01.04.01.07,0,.06-.03.11-.1.15s-.14.06-.23.06h-8.74v8.98h7.83l.3-.42s.08-.1.14-.18c.06-.08.11-.14.15-.18s.08-.06.11-.06c.08,0,.27.13.57.38.3.25.49.44.56.57,0,.04,0,.09-.01.13-.05.1-.15.14-.3.14h-9.35v.23l.03.31v.07s0,.05-.01.07c-.05.08-.14.15-.27.21-.13.07-.28.1-.44.1-.07,0-.13-.03-.19-.08s-.08-.11-.08-.18c.03-.51.07-1.01.09-1.49s.04-1.11.05-1.89v-4.97c0-1.02-.05-1.86-.14-2.52v-.03s.01-.06.03-.07c.02,0,.05,0,.08.01l1,.47h7.22l.26-.39Zm-6.72,9.07c-.05.04-.1.03-.14-.03v-.03c-.05-.06-.04-.11,0-.14.64-.47,1.27-1.03,1.9-1.7.62-.66,1.2-1.39,1.73-2.18-.83-.81-1.83-1.57-3-2.3-.06-.03-.07-.08-.04-.14v-.03c.05-.06.1-.08.16-.05,1.25.62,2.34,1.26,3.26,1.92l.47-.81c.2-.36.39-.76.56-1.2.17-.44.3-.83.38-1.18,0-.07.06-.09.14-.06.75.35,1.12.58,1.12.69,0,.04-.04.08-.13.1l-.25.07c-.48,1.05-1.02,2.01-1.64,2.89.79.64,1.36,1.24,1.73,1.79.36.55.55,1.01.55,1.37,0,.16-.03.28-.1.36-.07.09-.15.13-.25.13-.1,0-.2-.04-.31-.12-.03-.02-.05-.04-.07-.08-.19-.41-.46-.85-.79-1.34-.34-.49-.75-.97-1.22-1.47-1.17,1.51-2.52,2.68-4.04,3.52Z"/>
      <path class="cls-1" d="m132.31,127.77s.07-.09.13-.18c.06-.08.12-.12.17-.12.07,0,.22.1.45.3.23.2.37.36.44.48.03.04.02.09-.03.13-.11.1-.27.17-.48.21v2.6c.02,1.08.05,2.08.1,2.98,0,.05-.02.1-.05.13-.08.08-.19.15-.33.21-.14.06-.26.09-.36.09-.04,0-.08-.02-.11-.06-.03-.04-.05-.08-.06-.14,0-.05,0-.1.01-.13,0-.03.02-.06.02-.09,0-.03.01-.08.02-.13v-.29h-4.42v.64c0,.05-.07.11-.2.18-.13.07-.28.1-.42.1-.06,0-.12-.03-.17-.08s-.08-.11-.08-.18c.06-.81.1-1.71.12-2.69v-1.48c0-1.02-.05-1.86-.14-2.52v-.03s.01-.06.03-.07c.02,0,.05,0,.08.01l.86.4h1.73v-1.74h-3.07c-.55,0-1.17.07-1.86.17h-.04s-.07-.02-.09-.07l-.23-.46s-.01-.03-.01-.05c0-.04.03-.07.09-.07.48.04,1.01.07,1.59.09h7.93l.29-.4s.08-.1.14-.18c.06-.07.1-.13.14-.17s.08-.06.11-.06c.08,0,.27.12.57.36.3.24.49.42.55.55.03.04.03.09,0,.13-.05.1-.15.14-.3.14h-4.99v1.74h1.68l.21-.29Zm1.98,2.68c0-.94-.05-1.79-.14-2.53v-.03c0-.07.04-.09.12-.07.77.23,1.16.39,1.16.51,0,.04-.03.09-.1.13l-.22.14v4.82c.02,1.07.05,2.07.1,2.99,0,.04-.01.08-.04.12-.08.09-.18.16-.31.23s-.26.1-.39.1c-.11,0-.19-.07-.22-.19,0-.05,0-.1.01-.13,0-.03.01-.08.01-.12s0-.11.03-.2v-.34h-8.57v.26c0,.1.01.17.01.23s0,.1.01.14v.07s0,.05-.01.07c-.04.08-.13.15-.26.21s-.26.1-.39.1c-.08,0-.15-.03-.21-.08-.06-.05-.09-.11-.09-.18.03-.51.07-1.01.09-1.49s.04-1.11.05-1.89v-2.83c0-.94-.05-1.79-.14-2.53v-.03c0-.07.04-.09.12-.07.76.23,1.14.39,1.14.51,0,.04-.03.09-.1.13l-.22.13v6.88h8.57v-5.03Zm-4.67.14v-2.16h-1.81v2.16h1.81Zm0,.38h-1.81v2.41h1.81v-2.41Zm2.61-.38v-2.16h-1.81v2.16h1.81Zm-1.81.38v2.41h1.81v-2.41h-1.81Z"/>
    </g>
    <g>
      <path class="cls-1" d="m29.96,26.66v5.99c-2.36-2.15-6.08-3.08-9.71-3.08s-14.38,2.08-14.38,14.27,9.99,15.92,15.42,15.92c1.21,0,5.71-.55,7.2-1.15v-10.22c0-1.55-.56-3.06-2.15-3.89h7.63s-.26.99-.26,2.7v12.49c0,.5,0,1.42.16,2.03-1.44.32-3.58.72-4.45.94-.88.21-5.43.82-8.56.82S0,62.51,0,44.72s18.17-18.82,21.85-18.82,6.97.71,8.12.77"/>
      <path class="cls-1" d="m93.29,63.5h10.24c-1.17,0-3.27-3.28-3.66-4.31l-12.18-31.46h-7.75c1.01.69,1.35,2.12,1.04,3.18l-11.43,29.18c-.65,1.44-1.52,2.89-3.05,3.41h9.07c-1.61-.35-1.96-2.62-1.49-3.67l3.53-9.72h13.29l3.83,10.16c.74,2.05-.06,2.75-1.44,3.23m-14.31-17.19l5.15-14.27,5.35,14.27h-10.5Z"/>
      <path class="cls-1" d="m208.18,63.44h10.25c-1.17,0-3.26-3.28-3.66-4.33l-12.17-31.45h-7.76c1,.69,1.33,2.13,1.04,3.18l-11.43,29.19c-.65,1.44-1.54,2.88-3.05,3.41h9.07c-1.6-.34-1.96-2.62-1.48-3.67l3.51-9.73h13.31l3.82,10.17c.73,2.05-.04,2.76-1.45,3.23m-14.3-17.18l5.14-14.27,5.37,14.27h-10.51Z"/>
      <path class="cls-1" d="m175.96,59.81c0,1.36,1.23,3.36,2.31,3.63h-10.11c1.09-.26,2.3-2.27,2.3-3.63v-28.66c0-1.35-1.21-3.36-2.3-3.62h10.11c-1.09.26-2.31,2.27-2.31,3.62v28.66Z"/>
      <path class="cls-1" d="m40.14,27.4c1.1.27,2.32,2.27,2.32,3.63v28.66c0,1.35-1.22,3.36-2.32,3.63h9.77c-1.09-.27-2.3-2.27-2.3-3.63v-28.32c2.52-.82,10.24-1.35,10.72,5.08.2,3.59-2.38,7.66-9.09,8.41l7.18,10.64c2.17,3.2,5.09,7.6,9.71,7.93l5.01.07c-3.73-2.24-7.12-5.7-8.55-7.65l-7.58-9.9c3.79-.54,8.53-4.27,8.53-9.55s-3.46-8.76-12.19-8.76l-11.21-.23Z"/>
      <path class="cls-1" d="m133.86,27.51c1.09.26,2.31,2.28,2.31,3.63v24.53l-20.46-26.87-.63-1.22h-7.62c.82.11,1.66,1.46,2.53,2.61.17.55.18,1.09.18,1.52v28.09c0,1.35-1.22,3.36-2.31,3.63h8.25c-1.07-.27-2.28-2.28-2.28-3.63v-24.65l19.39,25.18c2.27,2.97,5.63,4.71,6.58,4.95V31.14c0-1.35,1.23-3.36,2.32-3.63h-8.26Z"/>
      <path class="cls-1" d="m149.66,47.35c0,21.83,23.87,44.7,25.57,46.41,1.69,1.69,3.22.67,1.54-.85-6.29-6.46-21.03-26.79-21.03-45.56s14.74-39.19,21.03-45.63c1.68-1.53.16-2.54-1.54-.84-1.7,1.69-25.57,24.57-25.57,46.47"/>
      <path class="cls-1" d="m223.01,57.49c1.79,0,3.14,1.35,3.14,3.06s-1.36,3.11-3.14,3.11-3.14-1.36-3.14-3.11,1.42-3.06,3.14-3.06m.02,5.62c1.39,0,2.44-1.13,2.44-2.54s-1.05-2.53-2.46-2.53-2.47,1.15-2.47,2.52c0,1.53,1.2,2.56,2.49,2.56m-1.16-.89v-3.18c.31-.06.67-.11,1.11-.11.93,0,1.34.37,1.34.92,0,.4-.28.63-.63.74v.06c.3.09.44.35.52.78.11.48.19.67.26.79h-.66c-.09-.12-.15-.39-.25-.82-.12-.52-.41-.52-1.1-.52v1.34h-.6Zm.6-1.8c.59,0,1.21,0,1.21-.5,0-.28-.21-.51-.75-.51-.22,0-.35.02-.46.03v.97Z"/>
    </g>
    <g>
      <path class="cls-1" d="m6.43,88.69c-1.37,1.73-3.09,3.09-5.14,4.09-.09.04-.16.02-.21-.06l-.02-.04c-.05-.09-.04-.16.04-.21,2.08-1.18,3.79-2.92,5.13-5.22,1.34-2.3,2.16-5.04,2.45-8.24v-1.43h-1.41c-.85.03-1.65.11-2.41.25h-.06c-.05,0-.1-.03-.13-.1l-.34-.67s-.02-.04-.02-.08c0-.06.04-.1.13-.1.7.06,1.47.11,2.32.13h1.54l.68-1.08c.06-.09.13-.1.21-.04l1.77,1.37c.09.06.1.13.02.21-.32.28-.9.46-1.75.53l.02.93c.32,2.99,1.18,5.55,2.58,7.69,1.41,2.13,3.34,3.75,5.81,4.84.08.04.11.08.11.13,0,.1-.06.15-.17.15-.25.04-.47.13-.64.29-.17.15-.33.37-.47.65-.04.1-.09.13-.15.09-1.06-.62-2.08-1.43-3.04-2.44-.96-1.01-1.8-2.18-2.5-3.52-.7-1.34-1.19-2.77-1.45-4.3-.57,2.37-1.54,4.42-2.92,6.15Z"/>
      <path class="cls-1" d="m26.1,76.26s.1-.11.18-.23c.08-.11.16-.17.24-.17.1,0,.31.14.64.42.32.28.53.5.62.67.04.06.03.13-.04.19-.16.14-.36.23-.59.27v1.71c.04,1.43.08,2.5.13,3.21,0,.08-.03.14-.08.19-.11.1-.28.19-.48.28-.21.08-.4.12-.56.12-.1,0-.15-.05-.15-.15v-.7h-3.84v5.72c.03,1.57.08,3.03.15,4.37,0,.06-.02.12-.06.17-.1.14-.24.26-.43.36-.18.1-.38.15-.6.15-.11,0-.22-.04-.3-.11-.09-.08-.13-.16-.13-.27.05-.75.09-1.47.13-2.18.04-.7.06-1.62.08-2.76v-7.66c0-1.49-.07-2.72-.21-3.69v-.04c0-.05.02-.08.05-.1.03-.01.07,0,.12.02l1.29.61h3.57l.27-.4Zm-.09,2.79v-1.82h-3.84v1.82h3.84Zm-3.84.55v1.9h3.84v-1.9h-3.84Zm3.9,11.27c0,.06-.1.15-.31.25-.21.1-.42.15-.64.15-.09,0-.16-.04-.22-.11-.06-.08-.09-.16-.09-.27.05-.6.09-1.34.11-2.22v-1.31c0-1.49-.07-2.72-.21-3.69v-.04c0-.05.02-.08.05-.09.03-.01.07,0,.12.02l1.25.59h4.2l.27-.36s.09-.11.17-.21c.08-.1.15-.15.23-.15.11,0,.34.12.66.37.33.25.53.45.61.62.04.05.03.11-.04.17-.15.15-.35.25-.59.29v1.94c.04,1.62.08,2.84.13,3.65,0,.08-.03.14-.08.19-.11.11-.28.22-.48.31-.21.09-.4.14-.56.14-.11,0-.2-.1-.25-.29,0-.03.01-.09.04-.19,0-.01.01-.08.04-.21v-.34h-4.43v.8Zm4.43-4.12v-2.07h-4.43v2.07h4.43Zm-4.43.57v2.18h4.43v-2.18h-4.43Zm4.41-4.85c0,.06-.11.14-.33.24-.22.1-.45.14-.67.14-.08,0-.14-.04-.19-.11-.05-.08-.08-.16-.08-.27.05-.48.09-1.1.11-1.86v-1.14c0-1.24-.06-2.32-.17-3.25v-.04c0-.09.05-.11.15-.08l1.25.55h3.72l.27-.38c.04-.05.09-.13.17-.24.08-.11.15-.16.23-.16.11,0,.36.14.73.42.37.28.61.51.71.68.04.05.03.11-.04.17-.18.16-.42.27-.72.32v13.53c0,.37-.04.67-.11.9-.08.23-.24.43-.5.59-.26.16-.64.27-1.15.33h-.04c-.06,0-.11-.04-.13-.13-.04-.35-.15-.61-.34-.78-.28-.19-.75-.35-1.42-.47-.1-.03-.15-.08-.15-.15v-.02c0-.11.05-.16.15-.13,1.06.09,1.76.13,2.09.13.16,0,.28-.03.35-.09.07-.06.1-.17.1-.32v-8.8h-3.99v.42Zm3.99-3.42v-1.82h-3.99v1.82h3.99Zm-3.99.55v1.9h3.99v-1.9h-3.99Z"/>
      <path class="cls-1" d="m52.32,81.18c.04-.05.08-.12.13-.2.05-.08.09-.14.13-.18s.08-.06.13-.06c.11,0,.36.16.74.48.38.32.61.56.7.74.04.05.03.11-.04.17-.16.16-.4.27-.7.3v6.46c0,.35-.04.64-.13.86-.09.22-.27.41-.53.56-.27.15-.66.25-1.18.3h-.04c-.06,0-.11-.04-.15-.11-.08-.33-.2-.57-.38-.72-.33-.23-.84-.39-1.52-.47-.1-.03-.15-.08-.15-.17,0-.08.04-.11.11-.11.16,0,.35,0,.57.02.22.01.42.03.63.04.46.04.82.06,1.1.06.18,0,.3-.03.37-.09.07-.06.1-.15.1-.29v-6.57h-4.29v5.41c.03,1.57.08,3.03.15,4.37,0,.06-.02.12-.06.17-.11.14-.28.27-.49.38-.22.11-.42.17-.61.17-.13,0-.23-.04-.32-.11-.09-.08-.13-.16-.13-.27.05-.75.09-1.47.13-2.18.04-.7.06-1.62.08-2.76v-5.19h-4.24v3.55c.03,1.58.08,3.03.15,4.35,0,.06-.02.13-.06.19-.11.11-.27.22-.47.3-.2.09-.4.13-.62.13-.1,0-.19-.04-.26-.11-.07-.08-.1-.16-.1-.27.08-1.18.13-2.36.15-3.55v-1.98c0-1.49-.07-2.72-.21-3.69v-.04c0-.05.01-.08.04-.1.03-.01.06,0,.11.02l1.35.61h4.14v-2.81h-4.47c-.81.01-1.72.1-2.72.25h-.06c-.05,0-.09-.03-.13-.1l-.34-.68s-.02-.04-.02-.08c0-.06.04-.1.13-.1.7.06,1.47.11,2.32.13h5.28c0-.99-.05-1.9-.15-2.74,0-.13.06-.17.19-.13.62.18,1.05.33,1.3.45.25.12.37.23.37.31,0,.06-.05.13-.15.19l-.3.21v1.71h5.07l.42-.59c.04-.05.1-.14.19-.26.09-.12.16-.21.22-.27.06-.06.11-.09.16-.09.11,0,.39.18.84.54.44.36.72.64.82.83l.02.08c0,.1-.05.18-.14.24-.09.06-.21.09-.35.09h-7.51c.25.13.43.23.54.31.11.08.16.16.16.24s-.06.15-.17.23l-.27.19v1.84h4.12l.27-.44Z"/>
      <path class="cls-1" d="m70.89,80.09s.07-.1.13-.19c.06-.09.12-.15.17-.2.05-.04.1-.07.15-.07.1,0,.33.16.69.47.36.31.59.56.67.75.04.05.03.11-.04.17-.15.14-.38.23-.68.28v1.9c.04,1.58.08,2.77.13,3.57,0,.08-.03.14-.08.19-.11.11-.28.22-.5.3-.22.09-.42.13-.6.13-.14,0-.22-.09-.25-.28l.02-.19s.01-.04.04-.17v-.32h-3.48c.81,1.03,1.9,1.95,3.27,2.76,1.37.82,2.77,1.42,4.22,1.8.08.03.11.06.11.11,0,.08-.05.13-.15.15-.19.05-.36.15-.52.31-.16.16-.28.35-.37.58-.03.1-.09.13-.19.1-1.39-.56-2.69-1.33-3.88-2.32-1.19-.99-2.15-2.12-2.87-3.4v1.96c.04,1.62.08,2.85.13,3.69,0,.06-.02.12-.06.17-.1.13-.25.24-.46.34-.2.1-.41.15-.61.15-.11,0-.21-.04-.28-.11s-.11-.16-.11-.27c.08-1.06.13-2.13.15-3.21v-1.8c-.9,1.04-1.98,1.98-3.25,2.82-1.27.84-2.65,1.55-4.14,2.12-.01.01-.04.02-.08.02-.06,0-.11-.03-.13-.09l-.02-.06c-.04-.09-.02-.16.06-.21,1.38-.7,2.66-1.53,3.84-2.51,1.18-.98,2.15-2.01,2.91-3.1h-2.96v.68c0,.06-.11.15-.34.25-.23.1-.45.15-.66.15-.09,0-.16-.04-.22-.11s-.09-.16-.09-.27c.05-.58.09-1.3.11-2.17v-1.27c0-1.49-.07-2.72-.21-3.69v-.04c0-.05.02-.08.05-.1.03-.01.07,0,.12.02l1.35.63h3.67v-2h-4.14c-.81.01-1.72.1-2.72.25h-.06c-.05,0-.1-.03-.13-.1l-.32-.67s-.02-.04-.02-.08c0-.06.04-.1.13-.1.7.06,1.47.11,2.32.13h4.94c0-.87-.05-1.7-.15-2.47,0-.13.06-.17.19-.13.62.19,1.05.35,1.29.47.24.12.36.23.36.31,0,.06-.05.13-.15.19l-.3.21v1.42h4.71l.44-.63c.06-.08.13-.16.2-.26.07-.1.14-.18.21-.26.07-.08.13-.11.18-.11.11,0,.4.19.86.56.46.37.73.66.84.85l.02.08c0,.1-.05.18-.14.24-.09.06-.21.09-.35.09h-6.95v2h3.69l.3-.44Zm-5.22,3.08v-2.09h-3.78v2.09h3.78Zm0,.55h-3.78v2.15h3.78v-2.15Zm5.09-.55v-2.09h-3.86v2.09h3.86Zm-3.86.55v2.15h3.86v-2.15h-3.86Z"/>
      <path class="cls-1" d="m93.23,76.71c.42.35.67.63.76.82l.02.08c0,.1-.05.18-.14.24-.1.06-.21.09-.33.09h-2.7v12.9c0,.56-.12.99-.35,1.3-.23.31-.73.51-1.47.6h-.04c-.06,0-.11-.04-.13-.13-.06-.35-.2-.61-.4-.76-.32-.23-.84-.39-1.56-.49-.1-.03-.15-.08-.15-.17,0-.08.04-.11.11-.11.18,0,.62.03,1.33.08l1.03.06c.18,0,.3-.03.36-.09s.09-.17.09-.32v-12.84h-1.18c-.7.03-1.36.11-1.99.25-.04,0-.08,0-.11-.02-.04-.01-.06-.04-.08-.08l-.28-.61c-.05.08-.15.15-.3.22-.15.07-.32.12-.49.16v7.39c.03,1.58.08,3.03.15,4.35,0,.08-.03.14-.08.19-.13.11-.29.22-.48.31-.2.09-.38.14-.54.14-.13,0-.2-.09-.23-.28,0-.08,0-.14.02-.19l.06-.46v-.48h-5.24v.51l.06.82c.01.06,0,.13-.02.19-.08.11-.2.22-.37.3-.17.09-.36.13-.58.13-.1,0-.2-.04-.28-.12-.09-.08-.13-.17-.13-.26.05-.75.09-1.47.13-2.18.04-.7.06-1.62.08-2.76v-5.24c0-1.51-.07-2.73-.21-3.67v-.04c0-.05.02-.09.05-.1.03-.02.07-.02.12,0l1.25.63h4.96l.29-.38s.1-.11.19-.22c.09-.11.17-.16.25-.16.1,0,.3.11.6.34.3.23.52.43.66.61,0-.01.06-.02.19-.02.7.06,1.47.11,2.32.13h3.08l.4-.59c.06-.08.13-.16.19-.25.06-.09.13-.17.19-.24.06-.07.12-.1.17-.1.11,0,.38.18.8.53Zm-14.36,5.87h2.01v-4.96h-2.01v4.96Zm0,5.68h2.01v-5.13h-2.01v5.13Zm3.08-5.68h2.17v-4.96h-2.17v4.96Zm0,5.68h2.17v-5.13h-2.17v5.13Z"/>
    </g>
  </g>
</svg>