<?xml version="1.0" encoding="UTF-8"?>
<svg id="_レイヤー_2" data-name="レイヤー 2" xmlns="http://www.w3.org/2000/svg" viewBox="0 0 226.15 130.99">
  <defs>
    <style>
      .cls-1 {
        fill: #332615;
      }
    </style>
  </defs>
  <g id="_レイヤー_2-2" data-name="レイヤー 2">
    <g>
      <path class="cls-1" d="m.46,106.59c.48.05,1.05.09,1.73.1h1.73c.14-.4.25-.83.34-1.31.09-.47.14-.89.15-1.24h-1.43c-.62,0-1.27.07-1.95.18l-.33-.65c.46.05,1.01.09,1.64.1h.78c0-.75-.03-1.34-.1-1.78.81.23,1.22.41,1.22.53,0,.04-.04.09-.1.13l-.21.13v.99h.99l.25-.36s.06-.09.11-.16c.05-.07.09-.13.12-.16.03-.03.07-.05.1-.05.05,0,.16.06.32.19.16.13.31.26.45.4s.21.24.21.31c-.03.14-.14.21-.33.21h-1.66c.44.14.75.25.92.33.17.08.26.14.26.2,0,.03-.04.06-.12.09l-.23.09c-.37.72-.75,1.33-1.13,1.85h1.03l.25-.38s.07-.1.11-.16c.04-.06.08-.11.12-.16.04-.04.08-.07.12-.07.05,0,.16.07.32.2.16.13.31.27.45.42.14.15.21.25.21.31,0,.06-.04.11-.1.14-.06.03-.13.05-.21.05h-3.73c-.62,0-1.27.07-1.95.18l-.34-.65Zm4.31,4.15c-.26-.34-.55-.63-.85-.87v1.27c.03,1.07.06,1.89.09,2.46-.04.09-.14.17-.29.25-.15.08-.29.12-.43.12-.08,0-.14-.03-.19-.08-.05-.05-.08-.11-.08-.18.05-.73.09-1.46.1-2.18v-1.23c-.63,1.07-1.44,1.97-2.43,2.69l-.14-.2c.49-.5.92-1.07,1.31-1.7.39-.63.7-1.3.93-1.99h-.66c-.39,0-.79.07-1.2.18l-.34-.68c.48.05,1.05.09,1.72.1h.82c0-.62-.03-1.12-.09-1.52.78.24,1.17.42,1.17.55,0,.03-.03.07-.09.12l-.19.13v.73h1.17l.25-.35s.06-.08.11-.15c.05-.07.09-.11.12-.15.03-.03.07-.05.1-.05.05,0,.15.06.31.18.15.12.29.25.42.4.13.14.2.24.2.31-.03.14-.14.21-.33.21h-2.35v.6h.01c.7.17,1.22.42,1.55.73.33.31.49.62.49.91,0,.14-.03.25-.1.34-.07.09-.16.13-.27.13s-.22-.03-.31-.1c-.08-.29-.25-.61-.51-.95Zm-2.5-4.34c0-.3-.07-.65-.19-1.03-.12-.39-.25-.73-.41-1.05l.14-.08c.42.29.72.58.92.88.19.3.29.58.29.84,0,.18-.04.33-.12.44-.08.11-.18.16-.3.16-.11,0-.23-.06-.34-.17Zm9.25-.42c.17.14.33.29.47.44.15.16.22.26.22.33-.03.14-.13.21-.31.21h-1.36v3.6c.02,1.07.05,2.09.1,3.06-.07.09-.17.17-.31.24-.13.07-.29.11-.46.11-.07,0-.13-.03-.2-.08s-.09-.11-.09-.18c.03-.51.06-1.01.09-1.49.03-.48.04-1.11.05-1.89v-3.37h-1.86v.39c0,.94-.06,1.78-.2,2.54-.13.76-.4,1.49-.82,2.2-.42.71-1.02,1.33-1.81,1.86l-.17-.17c.6-.55,1.06-1.17,1.38-1.84.32-.67.54-1.38.66-2.11.11-.74.17-1.56.17-2.48v-2.13c0-.89-.04-1.62-.13-2.2l1.05.4c.05-.02.25-.09.6-.22.42-.16.84-.37,1.25-.6.41-.24.74-.48.99-.72.6.56.9.9.9,1,0,.06-.06.08-.18.07l-.3-.03c-.43.16-.96.33-1.59.48s-1.23.28-1.81.36v2.81h2.67l.27-.39c.04-.05.09-.11.13-.17.04-.06.09-.11.13-.16.04-.05.08-.07.12-.07.05,0,.16.07.33.21Z"/>
      <path class="cls-1" d="m15.58,103.85c-.55.74-1.19,1.32-1.9,1.74l-.14-.17c.26-.23.53-.55.81-.94.25-.34.49-.76.72-1.27.23-.51.38-.94.45-1.31.75.36,1.13.58,1.13.69,0,.03-.04.06-.13.08l-.23.05c-.19.35-.34.6-.46.75h2.33l.22-.34s.07-.09.1-.14.07-.1.11-.14c.04-.04.08-.07.11-.07.09,0,.26.12.51.36.26.24.38.41.38.5-.03.13-.13.2-.33.2h-2.46c.23.15.39.31.5.47s.16.33.16.49c0,.14-.04.25-.11.34-.07.09-.17.14-.28.14-.12,0-.23-.05-.34-.14,0-.2-.05-.42-.14-.66-.08-.24-.18-.45-.29-.64h-.74Zm4.6,6.92c.57.48,1.31.89,2.22,1.25.91.36,1.82.61,2.74.75l-.03.14c-.17.03-.31.12-.44.25-.13.13-.22.3-.26.49-.94-.26-1.83-.64-2.65-1.14-.82-.5-1.49-1.08-2.01-1.75h-.04v.99c.02.8.04,1.43.08,1.89-.04.09-.14.17-.29.24-.15.07-.31.11-.46.11-.08,0-.14-.03-.18-.08-.04-.05-.07-.11-.07-.18.03-.42.07-.98.09-1.69v-.99c-.62.63-1.37,1.18-2.27,1.63-.9.45-1.9.82-2.99,1.1l-.09-.22c.92-.32,1.77-.72,2.54-1.2.78-.48,1.42-1.01,1.93-1.59h-2.08c-.62,0-1.27.07-1.95.18l-.35-.66c.48.05,1.05.09,1.73.1h3.54c0-.5-.03-.94-.08-1.3.45.14.76.25.94.33.17.08.26.15.26.21,0,.03-.03.07-.09.12l-.19.13v.51h3.54l.26-.35s.06-.09.12-.16c.05-.07.1-.12.14-.16.04-.03.08-.05.11-.05.05,0,.17.06.34.18.17.12.34.25.49.4s.23.24.23.31c-.03.14-.14.21-.34.21h-4.42Zm-6.46-2.08c.49-.07,1.2-.19,2.13-.36v-2.08h-.56c-.32,0-.65.07-.99.18l-.33-.66c.48.05,1.05.09,1.73.1h1.48l.22-.31s.08-.11.15-.2c.06-.09.12-.13.18-.13s.15.05.31.16c.15.11.29.23.42.36.13.13.19.23.19.29-.03.14-.14.21-.32.21h-1.68v1.92c.68-.12,1.29-.24,1.83-.35l.05.21c-1.25.46-2.58.91-4,1.36-.04.16-.13.26-.27.29l-.53-.99Zm4.98-3.63c.21-.21.39-.42.53-.64.26-.34.5-.75.73-1.23.23-.49.38-.91.46-1.29.75.33,1.13.55,1.13.65,0,.03-.04.07-.13.09l-.23.07c-.16.28-.33.54-.51.78h2.76l.25-.36s.06-.09.11-.16c.05-.07.09-.13.12-.16.03-.03.07-.05.1-.05.05,0,.16.06.33.19.17.13.32.26.47.41.14.15.21.25.21.31-.03.13-.14.2-.32.2h-2.79c.26.15.45.31.57.48.12.17.18.34.18.51,0,.14-.04.25-.12.34s-.17.14-.29.14-.23-.04-.34-.13c-.03-.21-.1-.44-.21-.68s-.25-.47-.41-.66h-.91c-.4.48-.82.88-1.26,1.2l.96.49h2.2l.19-.27s.07-.09.13-.16c.06-.07.12-.11.17-.11.08,0,.23.12.45.36.23.24.34.41.34.5-.09.09-.23.15-.42.18v2.34c0,.07.01.11.04.14.03.02.08.03.17.03h.48c.23,0,.37,0,.42-.01.04,0,.08,0,.1-.02s.05-.04.07-.08c.08-.23.17-.63.29-1.2h.14l.04,1.21c.1.05.18.1.21.15.04.05.06.11.06.19,0,.17-.1.3-.3.38-.2.08-.55.12-1.05.12h-.64c-.32,0-.53-.05-.63-.16-.1-.1-.15-.29-.15-.56v-2.63h-2.47v.85c0,.43-.07.83-.21,1.2-.14.36-.42.71-.85,1.04-.43.33-1.06.6-1.88.82l-.1-.2c.88-.36,1.48-.76,1.8-1.22.32-.46.47-1,.47-1.62v-.85c0-.35-.02-.64-.05-.88l-.26.17-.16-.17Zm1.51,1.52c.61.1,1.06.28,1.35.52.29.24.44.49.44.74,0,.12-.03.22-.1.29-.06.07-.15.11-.25.11-.1,0-.19-.03-.29-.09-.08-.25-.24-.52-.49-.79-.25-.28-.5-.5-.77-.66l.12-.12Z"/>
      <path class="cls-1" d="m30.29,103.38c.35.12.52.22.52.3,0,.03-.05.07-.16.09l-.23.05c-.4.79-.92,1.58-1.57,2.37-.65.79-1.37,1.45-2.16,1.98l-.13-.16c.74-.68,1.42-1.55,2.04-2.63.22-.36.41-.76.58-1.2.17-.43.29-.83.36-1.2l.74.39Zm-.22,4.33c-.49,0-.99.07-1.51.18l-.35-.68c.48.05,1.05.09,1.73.1h4.85l.21-.26s.07-.08.14-.16.12-.12.18-.12.15.06.31.17c.15.11.29.24.42.37.13.13.19.23.19.29-.1.1-.27.17-.49.2-.13,3.22-.46,5.1-1,5.64-.33.33-.8.49-1.4.49.02-.3-.06-.51-.25-.61-.1-.07-.28-.14-.53-.21-.25-.07-.51-.13-.79-.17v-.23c.35.03.72.07,1.11.1.39.03.66.05.8.05.12,0,.22-.01.29-.03.07-.02.13-.06.18-.12.19-.17.35-.71.48-1.6.13-.89.23-2.03.29-3.42h-3.12c-.09.83-.26,1.6-.51,2.29-.26.7-.7,1.39-1.34,2.08-.64.69-1.52,1.32-2.66,1.88l-.14-.22c.98-.59,1.74-1.23,2.28-1.91.54-.68.91-1.36,1.11-2.02.2-.66.32-1.36.36-2.11h-.82Zm5.73-2.37c.74.75,1.56,1.34,2.46,1.78l-.03.13c-.18.03-.34.12-.48.25-.14.13-.23.28-.29.44-.83-.59-1.57-1.31-2.2-2.17-.64-.86-1.12-1.78-1.44-2.76h-.92c-.54,0-1.11.07-1.72.18l-.35-.66c.48.05,1.05.09,1.73.1h.96l.39-.61,1.09.78c-.1.16-.38.25-.82.27.33.76.86,1.52,1.61,2.26Z"/>
      <path class="cls-1" d="m40.99,104.96c-.39,0-.8.07-1.22.18l-.32-.65c.48.05,1.05.09,1.73.1h1.39l.23-.35s.06-.1.11-.16.09-.11.12-.15c.03-.03.06-.05.1-.05.05,0,.16.06.31.18.16.12.3.25.43.4s.19.24.19.31c-.03.13-.14.2-.31.2h-2.76Zm-.13,8.14c.03.32.04.5.05.53-.03.08-.11.15-.25.23-.14.07-.29.11-.44.11-.05,0-.1-.03-.14-.08s-.06-.11-.06-.18c.03-.36.06-.8.08-1.33v-.81c0-.98-.05-1.8-.16-2.46l.98.46h1.44l.18-.25s.07-.07.12-.14c.06-.07.11-.1.16-.1s.16.05.31.16c.16.1.3.22.44.34.13.13.2.22.2.28-.11.11-.29.2-.52.25v1.04c.02.85.04,1.51.08,1.99-.04.08-.15.15-.31.23-.16.07-.3.11-.42.11-.05,0-.09-.03-.12-.08s-.05-.11-.05-.18c0-.02.03-.08.05-.2v-.23h-1.64v.31Zm1.46-10.48s.06-.08.11-.15c.05-.07.09-.11.12-.15.03-.03.07-.05.1-.05.05,0,.16.06.31.18.16.12.3.24.43.38.13.14.2.24.2.3-.03.14-.15.21-.34.21h-1.03c-.62,0-1.26.07-1.92.18l-.34-.66c.39.05.87.09,1.43.1h.69l.23-.34Zm.05,3.3s.06-.08.11-.14c.05-.06.09-.1.12-.13.03-.03.06-.04.1-.04.09,0,.25.11.49.33s.36.38.36.47c-.03.14-.13.21-.31.21h-1.03c-.61,0-1.24.07-1.9.18l-.34-.68c.41.05.9.09,1.48.1h.7l.22-.31Zm0,1.66s.08-.11.15-.2c.06-.09.12-.13.18-.13.09,0,.25.11.49.33s.36.38.36.47c-.03.14-.13.21-.31.21h-1.03c-.61,0-1.24.07-1.9.18l-.34-.65c.41.05.9.09,1.48.1h.7l.22-.33Zm-1.51,2.38v2.44h1.64v-2.44h-1.64Zm9.02-.83s.06-.08.11-.15.09-.11.12-.14c.03-.03.06-.05.1-.05.05,0,.15.06.31.18s.29.24.42.38c.13.13.2.23.2.29-.03.14-.13.21-.31.21h-3.2c.21.55.5,1.04.88,1.46.26-.19.52-.42.78-.7.26-.27.47-.53.62-.76.41.37.65.62.74.75.09.13.08.19-.03.18l-.17-.03c-.42.24-1,.5-1.75.78.68.69,1.5,1.16,2.43,1.4v.14c-.18.04-.32.13-.44.26s-.19.3-.23.51c-.82-.35-1.48-.85-1.98-1.5-.5-.65-.88-1.49-1.14-2.5h-.04c-.33.33-.7.62-1.12.87v1.86c.75-.15,1.39-.28,1.9-.39l.04.18c-1,.45-2.05.88-3.16,1.3-.05.17-.13.27-.25.3l-.56-1.03c.27-.03.69-.11,1.27-.22v-1.59c-.56.29-1.17.53-1.82.73l-.13-.23c1.1-.48,1.99-1.07,2.68-1.78h-.81c-.46,0-.94.07-1.43.18l-.33-.68c.38.05.84.09,1.38.1h.65v-1.03h-.43c-.22,0-.44.07-.68.18l-.34-.66c.27.05.6.09.99.1h.46v-.99h-.52c-.29,0-.6.07-.91.18l-.34-.65c.33.05.73.09,1.2.1h.57c0-.51-.03-.95-.08-1.33.43.14.73.25.9.33.17.08.25.15.25.21,0,.04-.04.09-.12.13l-.21.13v.52h1.73c0-.51-.03-.95-.08-1.33.43.14.73.25.9.33.17.08.25.15.25.21,0,.04-.03.09-.1.13l-.21.13v.52h.48l.22-.33s.06-.08.11-.15c.05-.07.09-.11.12-.14.03-.03.06-.05.1-.05.09,0,.26.11.51.34.26.23.38.39.38.49-.03.13-.13.2-.32.2h-1.6v.99h.34l.22-.31s.06-.08.1-.14c.04-.06.08-.11.11-.14.03-.03.06-.05.1-.05.09,0,.25.11.5.33.25.22.37.38.37.47-.04.14-.14.21-.33.21h-1.42v1.03h.78l.22-.33Zm-3.54-4.77c.29.14.43.25.43.33,0,.03-.05.06-.14.08h-.22c-.3.26-.7.51-1.2.75-.49.24-.99.42-1.48.55l-.13-.17.27-.14c.39-.23.76-.52,1.11-.86.35-.34.6-.67.75-.99l.61.47Zm3.34-1.22s.06-.09.11-.16c.05-.07.09-.13.12-.16.03-.03.07-.05.1-.05.05,0,.16.07.33.2s.32.27.47.42c.14.15.21.25.21.31-.03.13-.14.2-.31.2h-4.65c-.62,0-1.27.07-1.95.18l-.33-.66c.48.05,1.05.09,1.73.1h1.31c0-.59-.03-1.07-.09-1.44.81.23,1.22.41,1.22.53,0,.04-.03.09-.1.13l-.22.14v.64h1.79l.25-.36Zm-1.57,3.93h-1.73v.99h1.73v-.99Zm0,1.36h-1.73v1.03h1.73v-1.03Zm-.01-4.25c.63.03,1.15.13,1.57.28.41.15.71.33.9.53.19.2.29.39.29.57,0,.1-.03.19-.1.26-.07.07-.16.1-.27.1-.03,0-.08,0-.17-.03-.22-.26-.55-.54-1.01-.84-.46-.3-.89-.54-1.3-.72l.1-.16Z"/>
      <path class="cls-1" d="m54.26,106.79c-.49.75-1.02,1.42-1.6,2l-.18-.13c.74-1.03,1.42-2.34,2.05-3.93.16-.41.32-.89.47-1.44.15-.55.24-1,.27-1.35.88.28,1.33.48,1.33.6,0,.03-.04.07-.12.09l-.25.09c-.41,1.15-.91,2.25-1.51,3.3.42.28.64.47.64.59,0,.05-.03.09-.1.12l-.19.08v3.74c.02,1.07.05,2.09.1,3.06-.08.08-.19.16-.33.23s-.28.12-.43.12c-.08,0-.15-.03-.21-.08-.06-.05-.09-.11-.09-.18.03-.51.06-1.01.09-1.49.03-.48.04-1.11.05-1.89v-3.54Zm7.96,1.53s.07-.09.12-.16c.06-.07.1-.13.14-.16.03-.03.07-.05.1-.05.05,0,.16.07.33.2.17.13.33.27.47.42.15.15.22.25.22.31-.03.14-.13.21-.33.21h-3.19v3.93h2.3l.29-.42s.08-.1.14-.18c.06-.08.1-.14.14-.18.03-.04.07-.06.1-.06.05,0,.17.07.36.21.19.14.36.3.53.46s.25.28.25.34c-.03.14-.14.21-.33.21h-6.08c-.62,0-1.27.07-1.95.18l-.33-.68c.48.05,1.05.09,1.73.1h2.02v-3.93h-.98c-.56,0-1.15.07-1.77.18l-.33-.66c.48.05,1.05.09,1.73.1h1.34v-3.3h-1.18c-.62,0-1.27.07-1.95.18l-.32-.66c.48.05,1.05.09,1.73.1h4.65l.27-.39c.04-.05.09-.11.13-.17.04-.06.09-.11.13-.16.04-.05.08-.07.12-.07.05,0,.17.07.34.2.18.13.34.28.5.44s.23.26.23.33c-.03.14-.15.21-.34.21h-3.47v3.3h1.86l.26-.38Zm-4.02-6.15c.58.16,1.06.35,1.43.58.37.23.64.47.81.72.16.25.25.47.25.68,0,.14-.04.25-.11.34-.07.09-.17.13-.28.13-.1,0-.2-.03-.3-.09-.14-.36-.39-.76-.77-1.18-.37-.42-.76-.78-1.16-1.07l.13-.12Z"/>
      <path class="cls-1" d="m70.29,106.88c-1.12.25-2.2.43-3.25.55l-.05-.25c.73-.13,1.5-.31,2.3-.54.81-.23,1.57-.48,2.3-.75.82-.3,1.51-.67,2.05-1.09.59.55.88.89.88,1,0,.06-.06.08-.19.07l-.31-.04c-.78.29-1.75.59-2.91.87v2.3l4.1-.6.22-.43s.05-.1.09-.18c.04-.09.08-.15.12-.2.03-.04.07-.07.1-.07.05,0,.18.05.38.16.2.11.39.22.56.34.17.12.25.21.25.27,0,.07-.04.13-.1.18-.06.05-.12.08-.2.08l-5.52.81v3.17c0,.16.05.26.14.32.1.06.31.08.65.08h1.79c.87,0,1.43-.01,1.69-.04.1,0,.16-.03.21-.06.04-.03.08-.08.12-.15.05-.11.12-.36.19-.73.08-.37.16-.78.25-1.22h.17l.03,2.03c.16.05.26.11.33.16.06.06.09.13.09.23,0,.15-.08.26-.24.34-.16.08-.46.13-.9.17-.44.03-1.09.05-1.96.05h-1.85c-.42,0-.73-.03-.95-.09-.22-.06-.37-.16-.46-.31-.09-.14-.13-.35-.13-.62v-3.22l-4.5.65-.13-.36,4.63-.66v-2.24Zm5.52-3.3s.06-.08.11-.14c.05-.06.09-.11.12-.14.03-.03.07-.05.1-.05.08,0,.25.15.52.46.27.3.4.5.4.6-.08.08-.24.13-.48.14-.2.25-.45.53-.75.84-.3.31-.58.56-.83.75l-.14-.1c.25-.49.49-1.04.72-1.65h-8.2c0,.42-.06.78-.2,1.08-.14.3-.31.53-.51.68-.17.13-.36.2-.55.2s-.33-.07-.39-.21c-.03-.07-.04-.13-.04-.2,0-.17.11-.35.33-.52.29-.17.53-.46.72-.85.2-.39.28-.82.24-1.28h.21c.08.25.13.49.16.73h3.55c0-.76-.04-1.4-.12-1.92.86.23,1.29.42,1.29.55,0,.04-.03.09-.1.13l-.22.14v1.11h3.82l.25-.33Z"/>
      <path class="cls-1" d="m82.35,112.95c-.06,0-.09-.06-.09-.18,0-.13.03-.2.09-.2h.21c.42,0,.77-.07,1.03-.2.26-.13.39-.33.39-.61v-6.23c0-.26-.02-.44-.07-.53s-.16-.15-.34-.18c-.18-.03-.51-.05-.99-.05h-.22c-.06,0-.09-.07-.09-.2,0-.12.03-.18.09-.18.55,0,1.03-.08,1.46-.24.42-.16.83-.42,1.21-.77v8.37c0,.54.47.81,1.42.81h.2s.06.02.07.05c.01.03.02.08.02.15,0,.12-.03.18-.09.18h-4.28Z"/>
      <path class="cls-1" d="m94.96,104.7s.06-.09.11-.16c.05-.07.09-.13.12-.16.03-.03.07-.05.1-.05.08,0,.25.13.51.39.26.26.4.44.4.53-.03.14-.13.21-.31.21h-1.53v1.38c.59.28,1.02.58,1.3.91.28.33.42.63.42.9,0,.14-.04.25-.1.34-.07.09-.16.13-.26.13s-.21-.04-.33-.13c-.07-.27-.2-.57-.4-.9-.19-.33-.41-.65-.63-.96v3.39c.02,1.07.05,2.09.1,3.05-.05.1-.15.18-.31.26-.15.08-.3.12-.44.12-.08,0-.15-.03-.21-.08s-.09-.11-.09-.18c.03-.51.06-1.01.09-1.49.03-.48.04-1.11.05-1.89v-2.65c-.51,1.29-1.19,2.41-2.04,3.34l-.18-.18c.49-.71.9-1.53,1.24-2.45.34-.92.6-1.89.79-2.91h-.55c-.31,0-.63.07-.96.18l-.34-.68c.38.05.84.09,1.38.1h.66v-.4c0-1.09-.06-1.98-.17-2.66.48.14.81.25,1,.34.19.09.29.17.29.23,0,.04-.03.09-.1.13l-.22.14v2.22h.36l.23-.36Zm6.67.38s.07-.09.13-.18c.06-.08.12-.12.17-.12s.16.06.31.18c.16.12.3.25.43.4s.19.24.19.31c-.09.12-.26.21-.52.26v1.17c.02.94.04,1.69.08,2.25-.05.08-.16.15-.33.23-.16.07-.31.11-.43.11h-.13v-.42h-1.57c.36.63.84,1.22,1.43,1.76.59.54,1.19.96,1.79,1.25v.12c-.18.02-.32.09-.45.22s-.22.3-.28.51c-.57-.41-1.1-.94-1.59-1.61-.49-.67-.88-1.41-1.18-2.24v1.44c.03,1.21.06,2.15.09,2.81-.04.1-.14.2-.29.28-.15.08-.29.12-.44.12-.07,0-.13-.03-.18-.08-.05-.05-.07-.11-.07-.18.05-.77.09-1.54.1-2.3v-1.29c-.87,1.28-2.1,2.33-3.69,3.13l-.14-.22c.73-.47,1.38-1.02,1.96-1.66.58-.64,1.06-1.33,1.45-2.07h-1.38v.26c0,.05-.06.11-.2.18-.13.07-.28.1-.44.1-.06,0-.11-.03-.15-.08s-.06-.11-.06-.18c.03-.35.06-.8.08-1.35v-.82c0-1-.05-1.82-.16-2.48l1.08.48h1.65v-1.27h-.98c-.59,0-1.2.07-1.82.18l-.34-.65c.48.05,1.05.09,1.73.1h1.4c0-.74-.04-1.32-.1-1.74.46.15.78.26.96.34.18.08.27.15.27.21,0,.03-.04.08-.12.14l-.22.14v.9h1.77l.25-.38s.06-.09.11-.16c.05-.07.09-.13.12-.17s.07-.06.1-.06c.05,0,.16.07.32.2s.31.27.45.42c.14.15.21.25.21.31-.03.14-.14.21-.33.21h-3v1.27h1.73l.21-.3Zm-2.72,2.08v-1.39h-1.81v1.39h1.81Zm-1.81.39v1.35h1.81v-1.35h-1.81Zm4.43-.39v-1.39h-1.85v1.39h1.85Zm-1.85.39v1.35h1.85v-1.35h-1.85Z"/>
      <path class="cls-1" d="m119.71,102.28l-11.83,11.83-.38-.36,11.83-11.83.38.36Z"/>
      <path class="cls-1" d="m3.04,119.84s.06-.08.1-.13.07-.09.1-.12.06-.04.1-.04c.08,0,.24.13.5.39.26.26.38.44.38.53-.1.1-.3.17-.58.2-.54,1.2-1.04,2.27-1.51,3.21h1.09l.21-.25s.06-.08.12-.15c.06-.07.13-.11.19-.11.09,0,.25.11.49.33s.36.38.36.47c-.04.06-.1.1-.17.12-.07.02-.17.04-.3.06-.17,1.51-.5,2.77-.98,3.78.38.47.83.83,1.35,1.07s1.11.42,1.78.51c.67.09,1.48.14,2.44.14,1.69,0,2.83,0,3.41-.03v.18c-.16.03-.29.11-.38.23s-.15.26-.16.44h-2.92c-.99,0-1.83-.06-2.52-.18-.69-.12-1.3-.33-1.83-.64-.53-.31-.98-.74-1.37-1.31-.57,1.01-1.34,1.81-2.31,2.4l-.12-.2c.88-.7,1.56-1.66,2.04-2.87-.28-.53-.53-1.18-.75-1.96-.27.52-.49.94-.68,1.25.03.05.04.1.04.14,0,.07-.02.12-.05.16l-.61-.61c.55-.55.95-.98,1.21-1.29l.13-.57.44.14-.34.51c.2.68.46,1.29.77,1.82.28-.88.48-1.95.6-3.22h-1.37s-.1.18-.21.4l-.14.29c-.09.02-.16.03-.22.03-.14,0-.31-.04-.52-.12.34-.68.69-1.43,1.05-2.24.36-.81.66-1.51.9-2.11h-.7c-.39,0-.81.07-1.25.18l-.34-.68c.43.05.95.09,1.56.1h.75l.21-.29Zm6.89.31s.07-.09.13-.18c.06-.08.12-.12.17-.12s.15.06.31.18c.15.12.29.25.42.39.13.14.19.24.19.3-.04.04-.11.09-.21.14-.1.05-.2.08-.31.11v1.18h.19l.22-.36s.05-.09.09-.16c.04-.07.08-.12.12-.16.03-.03.07-.05.1-.05.08,0,.24.13.5.38.26.25.38.42.38.52-.03.14-.14.21-.31.21h-1.3v1c.02.29.04.55.06.81-.04.08-.15.16-.31.23-.16.08-.31.12-.44.12h-.09v-.42h-1.86v1.34h1.83l.23-.35s.07-.09.1-.14.07-.1.11-.14c.04-.04.08-.07.11-.07.05,0,.16.06.32.18.16.12.31.25.44.4s.2.24.2.31c0,.07-.04.12-.1.16-.06.03-.13.05-.22.05h-3.03v1.37h2.22l.26-.38s.06-.09.12-.16c.05-.07.1-.13.14-.17s.08-.06.11-.06c.05,0,.16.07.34.2s.33.27.48.42c.15.15.22.26.22.32-.04.14-.14.21-.33.21h-3.56v.49l.03.42c0,.11,0,.28.03.51-.03.1-.11.18-.25.25-.14.07-.29.1-.44.1-.08,0-.14-.03-.18-.08s-.06-.11-.06-.18c.03-.2.04-.4.05-.61,0-.12,0-.22.01-.3v-.6h-1.04c-.62,0-1.27.07-1.95.18l-.33-.66c.48.05,1.05.09,1.73.1h1.59v-1.37h-.87c-.52,0-1.06.07-1.61.18l-.34-.68c.48.05,1.05.09,1.73.1h1.09v-1.34h-.82c-.47,0-.96.07-1.48.18l-.35-.66c.48.05,1.05.09,1.73.1h.92v-1.36h-1.23c-.62,0-1.27.07-1.95.18l-.34-.66c.48.05,1.05.09,1.73.1h1.79v-1.34h-.82c-.47,0-.95.07-1.46.18l-.34-.65c.48.05,1.05.09,1.73.1h.88c0-.6-.03-1.08-.09-1.46.46.14.78.25.96.33.18.08.27.16.27.23,0,.04-.04.09-.1.13l-.22.16v.61h1.73l.19-.3Zm-.06.66h-1.86v1.34h1.86v-1.34Zm-1.86,3.08h1.86v-1.36h-1.86v1.36Z"/>
      <path class="cls-1" d="m15.58,120.85c-.55.74-1.19,1.32-1.9,1.74l-.14-.17c.26-.23.53-.55.81-.94.25-.34.49-.76.72-1.27.23-.51.38-.94.45-1.31.75.36,1.13.58,1.13.69,0,.03-.04.06-.13.08l-.23.05c-.19.35-.34.6-.46.75h2.33l.22-.34s.07-.09.1-.14.07-.1.11-.14c.04-.04.08-.07.11-.07.09,0,.26.12.51.36.26.24.38.41.38.5-.03.13-.13.2-.33.2h-2.46c.23.15.39.31.5.47s.16.33.16.49c0,.14-.04.25-.11.34-.07.09-.17.14-.28.14-.12,0-.23-.05-.34-.14,0-.2-.05-.42-.14-.66-.08-.24-.18-.45-.29-.64h-.74Zm4.6,6.92c.57.48,1.31.89,2.22,1.25.91.36,1.82.61,2.74.75l-.03.14c-.17.03-.31.12-.44.25-.13.13-.22.3-.26.49-.94-.26-1.83-.64-2.65-1.14-.82-.5-1.49-1.08-2.01-1.75h-.04v.99c.02.8.04,1.43.08,1.89-.04.09-.14.17-.29.24-.15.07-.31.11-.46.11-.08,0-.14-.03-.18-.08-.04-.05-.07-.11-.07-.18.03-.42.07-.98.09-1.69v-.99c-.62.63-1.37,1.18-2.27,1.63-.9.45-1.9.82-2.99,1.1l-.09-.22c.92-.32,1.77-.72,2.54-1.2.78-.48,1.42-1.01,1.93-1.59h-2.08c-.62,0-1.27.07-1.95.18l-.35-.66c.48.05,1.05.09,1.73.1h3.54c0-.5-.03-.94-.08-1.3.45.14.76.25.94.33.17.08.26.15.26.21,0,.03-.03.07-.09.12l-.19.13v.51h3.54l.26-.35s.06-.09.12-.16c.05-.07.1-.12.14-.16.04-.03.08-.05.11-.05.05,0,.17.06.34.18.17.12.34.25.49.4s.23.24.23.31c-.03.14-.14.21-.34.21h-4.42Zm-6.46-2.08c.49-.07,1.2-.19,2.13-.36v-2.08h-.56c-.32,0-.65.07-.99.18l-.33-.66c.48.05,1.05.09,1.73.1h1.48l.22-.31s.08-.11.15-.2c.06-.09.12-.13.18-.13s.15.05.31.16c.15.11.29.23.42.36.13.13.19.23.19.29-.03.14-.14.21-.32.21h-1.68v1.92c.68-.12,1.29-.24,1.83-.35l.05.21c-1.25.46-2.58.91-4,1.36-.04.16-.13.26-.27.29l-.53-.99Zm4.98-3.63c.21-.21.39-.42.53-.64.26-.34.5-.75.73-1.23.23-.49.38-.91.46-1.29.75.33,1.13.55,1.13.65,0,.03-.04.07-.13.09l-.23.07c-.16.28-.33.54-.51.78h2.76l.25-.36s.06-.09.11-.16c.05-.07.09-.13.12-.16.03-.03.07-.05.1-.05.05,0,.16.06.33.19.17.13.32.26.47.41.14.15.21.25.21.31-.03.13-.14.2-.32.2h-2.79c.26.15.45.31.57.48.12.17.18.34.18.51,0,.14-.04.25-.12.34s-.17.14-.29.14-.23-.04-.34-.13c-.03-.21-.1-.44-.21-.68s-.25-.47-.41-.66h-.91c-.4.48-.82.88-1.26,1.2l.96.49h2.2l.19-.27s.07-.09.13-.16c.06-.07.12-.11.17-.11.08,0,.23.12.45.36.23.24.34.41.34.5-.09.09-.23.15-.42.18v2.34c0,.07.01.11.04.14.03.02.08.03.17.03h.48c.23,0,.37,0,.42-.01.04,0,.08,0,.1-.02s.05-.04.07-.08c.08-.23.17-.63.29-1.2h.14l.04,1.21c.1.05.18.1.21.15.04.05.06.11.06.19,0,.17-.1.3-.3.38-.2.08-.55.12-1.05.12h-.64c-.32,0-.53-.05-.63-.16-.1-.1-.15-.29-.15-.56v-2.63h-2.47v.85c0,.43-.07.83-.21,1.2-.14.36-.42.71-.85,1.04-.43.33-1.06.6-1.88.82l-.1-.2c.88-.36,1.48-.76,1.8-1.22.32-.46.47-1,.47-1.62v-.85c0-.35-.02-.64-.05-.88l-.26.17-.16-.17Zm1.51,1.52c.61.1,1.06.28,1.35.52.29.24.44.49.44.74,0,.12-.03.22-.1.29-.06.07-.15.11-.25.11-.1,0-.19-.03-.29-.09-.08-.25-.24-.52-.49-.79-.25-.28-.5-.5-.77-.66l.12-.12Z"/>
      <path class="cls-1" d="m36.57,126.06s.08-.1.14-.18c.06-.08.1-.14.14-.18s.07-.06.1-.06c.05,0,.17.07.36.21.19.14.36.29.52.45.16.16.24.27.24.33-.03.14-.14.21-.33.21h-4.6c.56.67,1.31,1.26,2.24,1.77.93.51,1.87.88,2.82,1.09l-.03.16c-.17.03-.33.12-.46.26-.13.14-.22.31-.27.52-.97-.36-1.86-.86-2.68-1.51-.81-.65-1.46-1.41-1.95-2.28h-.08v1.27c.03,1.07.06,1.9.09,2.48-.04.09-.15.17-.31.24-.16.07-.32.11-.48.11-.08,0-.14-.03-.19-.08-.05-.05-.07-.11-.07-.18.05-.75.09-1.52.1-2.29v-1.27c-.61.77-1.36,1.46-2.27,2.06-.91.6-1.91,1.1-3.02,1.49l-.12-.21c.92-.43,1.76-.97,2.54-1.6.77-.63,1.41-1.31,1.92-2.03h-2.13c-.62,0-1.27.07-1.95.18l-.32-.66c.48.05,1.05.09,1.73.1h3.63c0-.72-.04-1.33-.12-1.82.87.24,1.3.42,1.3.55,0,.04-.03.09-.1.13l-.22.13v1.01h3.55l.29-.4Zm-2.15-6.07s.1-.1.18-.19c.09-.09.16-.14.21-.14.08,0,.25.15.51.44.26.29.39.49.39.59-.05.05-.12.09-.2.11-.08.02-.21.04-.37.05-.57.88-1.27,1.62-2.08,2.25,1.28.68,2.95,1.13,4.99,1.35v.14c-.19.03-.35.12-.47.26-.13.14-.21.31-.27.52-2.04-.36-3.66-.97-4.86-1.83-1.55,1.02-3.46,1.72-5.72,2.09l-.08-.22c2.08-.52,3.82-1.3,5.21-2.34-.59-.49-1.08-1.1-1.47-1.81-.48.48-.99.91-1.54,1.31-.55.4-1.11.73-1.67.99l-.13-.18c.89-.57,1.71-1.3,2.44-2.2.28-.32.54-.7.78-1.13.24-.43.41-.82.51-1.17.88.33,1.31.54,1.31.64,0,.03-.04.05-.12.07l-.22.03c-.17.26-.35.49-.52.7h2.89l.3-.33Zm-3.51.72l-.31.34c.43.63,1.01,1.18,1.73,1.65.7-.59,1.28-1.25,1.73-1.99h-3.15Z"/>
      <path class="cls-1" d="m41.25,123.65c-.48.76-1,1.44-1.56,2.04l-.17-.13c.68-1.01,1.33-2.28,1.92-3.82.16-.43.3-.92.44-1.46.14-.54.22-.98.25-1.33.88.31,1.31.52,1.31.62,0,.04-.04.08-.13.1l-.25.08c-.34.98-.72,1.89-1.16,2.72.29.23.44.4.44.51,0,.04-.04.09-.12.13l-.18.08v4.35c.02,1.07.05,2.09.1,3.06-.06.08-.17.16-.32.23-.15.08-.3.12-.44.12-.08,0-.15-.03-.21-.08s-.09-.11-.09-.18c.03-.51.06-1.01.09-1.49s.04-1.11.05-1.89v-3.67Zm8.19-1.96s.06-.09.12-.16c.05-.07.1-.13.14-.17s.08-.06.11-.06c.05,0,.16.07.33.2.17.13.33.28.47.43.14.15.21.26.21.32-.03.14-.13.21-.33.21h-3.15v3.17h2.16l.26-.39s.06-.09.12-.16c.05-.07.1-.13.14-.17.04-.04.08-.06.11-.06.05,0,.16.07.34.2.17.13.33.28.48.44s.22.26.22.33c-.03.14-.13.21-.33.21h-3.5v1.55c.02,1.07.05,2.07.1,3-.05.1-.16.18-.31.26-.16.08-.31.12-.46.12-.09,0-.16-.03-.22-.08-.06-.05-.09-.11-.09-.18.03-.45.06-.9.08-1.34.02-.44.04-1,.05-1.68v-1.65h-1.65c-.62,0-1.27.07-1.95.18l-.33-.68c.48.05,1.05.09,1.73.1h2.2v-3.17h-2.05c-.49,1.06-1.04,1.9-1.65,2.53l-.16-.13c.39-.68.74-1.47,1.05-2.39.14-.42.26-.9.36-1.46.1-.55.16-1.01.16-1.37.88.28,1.31.47,1.31.59,0,.03-.04.07-.12.09l-.23.09c-.17.63-.36,1.19-.57,1.66h1.9v-.27c0-1.09-.06-1.98-.17-2.66.89.25,1.34.44,1.34.56,0,.04-.03.09-.1.13l-.22.14v2.11h1.82l.27-.39Z"/>
      <path class="cls-1" d="m54.31,123.74c-.5.79-1.05,1.48-1.64,2.07l-.17-.13c.36-.51.72-1.11,1.07-1.79.35-.68.67-1.4.96-2.15.16-.42.32-.91.46-1.46.14-.55.23-.99.25-1.33.88.28,1.33.48,1.33.6,0,.03-.04.07-.12.09l-.23.09c-.35,1.01-.77,1.97-1.26,2.89.3.23.46.4.46.51,0,.05-.04.09-.12.12l-.18.08v4.22c.02,1.07.05,2.09.1,3.06-.08.09-.19.17-.34.24-.15.07-.29.11-.43.11-.07,0-.13-.03-.2-.08s-.09-.11-.09-.18c.03-.51.06-1.01.09-1.49s.04-1.11.05-1.89v-3.58Zm8.49-1.73s.08-.1.12-.18c.05-.07.09-.13.12-.16.03-.03.07-.05.1-.05.05,0,.16.07.33.2.16.13.32.28.45.44s.21.26.21.33c-.03.14-.13.21-.32.21h-1.91v6.79c0,.28-.04.5-.11.68-.07.17-.23.32-.46.44-.23.12-.57.2-1.03.25-.07-.32-.2-.54-.39-.66-.24-.15-.74-.28-1.48-.39v-.21c1.26.1,2,.16,2.24.16.15,0,.24-.03.29-.08.05-.05.07-.14.07-.27v-6.7h-2.87c-.62,0-1.27.07-1.95.18l-.33-.68c.48.05,1.05.09,1.73.1h3.42v-.59c0-1.09-.06-1.98-.17-2.66.5.14.85.25,1.05.34.2.09.3.17.3.23,0,.03-.03.07-.1.12l-.21.13v2.43h.64l.26-.39Zm-5.88,2.11c.8.45,1.38.92,1.75,1.42.37.49.56.93.56,1.31,0,.16-.04.3-.11.4s-.17.16-.28.16-.23-.05-.36-.16c-.1-.43-.31-.93-.63-1.48-.33-.55-.68-1.07-1.07-1.57l.14-.09Z"/>
      <path class="cls-1" d="m74.84,123.18s.08-.1.14-.18c.06-.08.1-.14.14-.18s.07-.06.1-.06c.05,0,.17.07.36.21s.36.29.53.46c.17.16.25.27.25.33-.03.14-.14.21-.34.21h-4.26v5.97h3.48l.3-.42s.08-.11.14-.19c.06-.08.1-.14.14-.18.04-.04.08-.06.11-.06.05,0,.17.07.36.21.19.14.37.3.53.46.16.16.25.28.25.34-.03.14-.14.21-.33.21h-8.94c-.62,0-1.27.07-1.95.18l-.34-.66c.48.05,1.05.09,1.73.1h3.65v-5.97h-2.34c-.62,0-1.27.07-1.95.18l-.35-.68c.48.05,1.05.09,1.73.1h2.91v-1.91c0-1.09-.06-1.98-.17-2.66.49.14.84.25,1.04.34s.3.17.3.23c0,.04-.03.09-.1.13l-.21.14v3.73h2.81l.29-.4Z"/>
      <path class="cls-1" d="m81.62,122.61s.07-.1.12-.17c.04-.07.08-.12.11-.16.03-.03.06-.05.1-.05.08,0,.25.13.52.4.27.26.4.44.4.54-.04.14-.14.21-.31.21h-1.6v4.12l1.88-.87.08.18-.94.64c-.99.68-1.91,1.28-2.76,1.82-.04.17-.12.29-.23.35l-.49-1.1c.41-.14.96-.36,1.66-.66v-4.47h-.51c-.27,0-.55.07-.83.18l-.33-.68c.31.05.69.09,1.14.1h.52v-1.05c0-1.09-.06-1.98-.17-2.66.49.14.82.25,1.01.33.19.08.29.15.29.21,0,.04-.04.09-.12.13l-.22.13v2.91h.43l.23-.38Zm7.01-1.08s.05-.07.08-.12c.04-.06.07-.1.1-.13.03-.03.06-.05.1-.05.08,0,.24.12.5.36.26.24.38.41.38.5-.08.1-.24.17-.48.21-.02,1.72-.07,2.95-.16,3.69-.09.75-.23,1.23-.43,1.44-.24.28-.59.42-1.04.42,0-.15,0-.27-.03-.36-.02-.1-.06-.17-.12-.23-.12-.1-.34-.19-.65-.25v-.23c.48.04.79.07.94.07.09,0,.15,0,.2-.03.05-.02.09-.05.12-.09.11-.14.2-.55.26-1.25.06-.69.1-1.79.12-3.29l-1.91.75v2.3c.02,1.07.05,2.09.1,3.05-.05.1-.15.18-.3.27-.15.08-.29.12-.44.12-.07,0-.13-.03-.19-.08s-.08-.11-.08-.18c.03-.5.06-1,.08-1.49s.04-1.12.05-1.87v-1.82l-1.68.66v5.29c0,.21.06.35.18.42.12.07.37.11.75.11h1.86c.91,0,1.5-.01,1.77-.04.1,0,.17-.03.21-.06.05-.03.09-.08.14-.14.11-.24.27-.9.47-1.98h.17l.03,2.03c.16.06.27.12.33.18.06.06.08.13.08.23,0,.16-.08.29-.25.36s-.48.13-.92.17c-.45.03-1.13.05-2.05.05h-1.9c-.42,0-.76-.03-.99-.1-.24-.07-.41-.19-.51-.35s-.15-.4-.15-.72v-5.16l-1.55.61-.23-.31,1.78-.7v-1.87c0-.76-.04-1.4-.12-1.92.47.15.79.26.97.34.18.08.27.16.27.23,0,.04-.04.09-.1.13l-.22.14v2.64l1.68-.65v-1.88c0-.76-.04-1.41-.12-1.94.45.15.76.26.94.34.18.08.27.15.27.21,0,.05-.03.1-.1.14l-.21.14v2.67l1.69-.66.12-.04.19-.29Z"/>
      <path class="cls-1" d="m95.35,129.95c-.06,0-.09-.06-.09-.18,0-.13.03-.2.09-.2h.21c.42,0,.77-.07,1.03-.2.26-.13.39-.33.39-.61v-6.23c0-.26-.02-.44-.07-.53s-.16-.15-.34-.18c-.18-.03-.51-.05-.99-.05h-.22c-.06,0-.09-.07-.09-.2,0-.12.03-.18.09-.18.55,0,1.03-.08,1.46-.24.42-.16.83-.42,1.21-.77v8.37c0,.54.47.81,1.42.81h.2s.06.02.07.05c.01.03.02.08.02.15,0,.12-.03.18-.09.18h-4.28Z"/>
      <path class="cls-1" d="m102.52,129.59c-.42-.36-.76-.91-1.01-1.64-.26-.73-.38-1.62-.38-2.66s.13-1.94.39-2.68c.26-.74.6-1.29,1.02-1.66.42-.37.88-.55,1.37-.55s.94.18,1.36.55c.42.37.76.92,1.01,1.66.26.74.38,1.63.38,2.68s-.13,1.94-.39,2.66c-.26.73-.6,1.27-1.02,1.64-.42.36-.88.55-1.37.55s-.94-.18-1.36-.55Zm2.57-.99c.29-.73.44-1.84.44-3.31s-.15-2.58-.44-3.32c-.29-.74-.69-1.11-1.19-1.11s-.91.37-1.21,1.11c-.29.74-.44,1.85-.44,3.32s.15,2.58.44,3.31c.29.73.7,1.1,1.21,1.1s.9-.37,1.19-1.1Z"/>
      <path class="cls-1" d="m120.74,119.84s.07-.1.12-.18c.06-.07.1-.13.14-.17.03-.04.07-.06.1-.06.05,0,.17.07.34.2.18.13.34.28.5.44s.23.26.23.33c-.03.14-.13.21-.32.21h-8.74v8.98h7.83l.3-.42s.08-.1.14-.18.11-.14.15-.18.08-.06.11-.06c.05,0,.17.07.36.21s.37.3.53.46c.16.16.25.28.25.34-.04.14-.14.21-.33.21h-9.35v.23c0,.09.02.16.02.23,0,.07.01.12.02.14-.03.09-.11.17-.25.25-.14.08-.3.12-.49.12-.07,0-.13-.03-.19-.08-.06-.06-.08-.11-.08-.18.03-.51.07-1.01.09-1.49s.04-1.11.05-1.89v-4.97c0-1.09-.06-1.98-.17-2.67l1.14.53h7.21l.26-.39Zm-6.8,9.13l-.14-.18c.66-.47,1.3-1.04,1.94-1.71.63-.67,1.22-1.41,1.77-2.23-.89-.85-1.92-1.63-3.09-2.35l.12-.21c1.32.64,2.44,1.3,3.35,1.96l.47-.81c.21-.38.4-.8.58-1.27.18-.46.31-.87.38-1.23.82.38,1.24.63,1.24.74,0,.04-.04.08-.13.1l-.25.07c-.48,1.05-1.02,2.01-1.64,2.89.79.64,1.36,1.24,1.73,1.79.36.55.55,1.01.55,1.37,0,.16-.03.28-.1.36-.06.09-.15.13-.25.13-.11,0-.23-.05-.36-.16-.18-.41-.44-.86-.79-1.35s-.76-.99-1.24-1.49c-1.19,1.53-2.56,2.72-4.12,3.58Z"/>
      <path class="cls-1" d="m132.31,121.77s.07-.09.13-.18c.06-.08.12-.12.17-.12.09,0,.26.12.52.36.26.24.39.41.39.5-.1.12-.28.21-.53.26v2.6c.02,1.07.05,2.09.1,3.05-.05.08-.16.16-.32.23-.16.08-.3.12-.42.12-.05,0-.09-.03-.12-.08s-.05-.11-.05-.18l.05-.29v-.29h-4.42v.64c0,.05-.07.11-.2.18-.13.07-.28.1-.42.1-.06,0-.12-.03-.17-.08-.05-.05-.08-.11-.08-.18.06-.81.1-1.71.12-2.69v-1.48c0-1.09-.06-1.98-.17-2.67l1,.47h1.73v-1.74h-3.07c-.62,0-1.27.07-1.95.18l-.34-.66c.48.05,1.05.09,1.73.1h7.93l.29-.4s.08-.1.14-.18c.06-.07.1-.13.14-.17s.08-.06.11-.06c.05,0,.17.07.36.21.19.14.37.29.53.44s.25.26.25.33c-.03.14-.14.21-.32.21h-4.99v1.74h1.68l.21-.29Zm1.98,2.68c0-1.09-.06-1.98-.17-2.66.87.24,1.3.42,1.3.55,0,.04-.04.09-.1.13l-.22.14v4.82c.02,1.07.05,2.09.1,3.05-.05.1-.15.18-.31.26-.15.08-.3.12-.44.12-.15,0-.22-.09-.22-.26l.05-.39v-.34h-8.57v.26c0,.1.02.18.02.26s.01.13.02.17c-.02.09-.1.17-.24.25-.14.08-.29.12-.44.12-.08,0-.15-.03-.21-.08s-.09-.11-.09-.18c.03-.51.06-1.01.09-1.49.03-.48.04-1.11.05-1.89v-2.83c0-1.09-.06-1.98-.17-2.66.86.24,1.29.42,1.29.55,0,.04-.04.09-.1.13l-.22.13v6.88h8.57v-5.03Zm-4.67.14v-2.16h-1.81v2.16h1.81Zm0,.38h-1.81v2.41h1.81v-2.41Zm2.61-.38v-2.16h-1.81v2.16h1.81Zm-1.81.38v2.41h1.81v-2.41h-1.81Z"/>
    </g>
    <g>
      <path class="cls-1" d="m29.96,26.66v5.99c-2.36-2.15-6.08-3.08-9.71-3.08s-14.38,2.08-14.38,14.27,9.99,15.92,15.42,15.92c1.21,0,5.71-.55,7.2-1.15v-10.22c0-1.55-.56-3.06-2.15-3.89h7.63s-.26.99-.26,2.7v12.49c0,.5,0,1.42.16,2.03-1.44.32-3.58.72-4.45.94-.88.21-5.43.82-8.56.82S0,62.51,0,44.72s18.17-18.82,21.85-18.82,6.97.71,8.12.77"/>
      <path class="cls-1" d="m93.29,63.5h10.24c-1.17,0-3.27-3.28-3.66-4.31l-12.18-31.46h-7.75c1.01.69,1.35,2.12,1.04,3.18l-11.43,29.18c-.65,1.44-1.52,2.89-3.05,3.41h9.07c-1.61-.35-1.96-2.62-1.49-3.67l3.53-9.72h13.29l3.83,10.16c.74,2.05-.06,2.75-1.44,3.23m-14.31-17.19l5.15-14.27,5.35,14.27h-10.5Z"/>
      <path class="cls-1" d="m208.18,63.44h10.25c-1.17,0-3.26-3.28-3.66-4.33l-12.17-31.45h-7.76c1,.69,1.33,2.13,1.04,3.18l-11.43,29.19c-.65,1.44-1.54,2.88-3.05,3.41h9.07c-1.6-.34-1.96-2.62-1.48-3.67l3.51-9.73h13.31l3.82,10.17c.73,2.05-.04,2.76-1.45,3.23m-14.3-17.18l5.14-14.27,5.37,14.27h-10.51Z"/>
      <path class="cls-1" d="m175.96,59.81c0,1.36,1.23,3.36,2.31,3.63h-10.11c1.09-.26,2.3-2.27,2.3-3.63v-28.66c0-1.35-1.21-3.36-2.3-3.62h10.11c-1.09.26-2.31,2.27-2.31,3.62v28.66Z"/>
      <path class="cls-1" d="m40.14,27.4c1.1.27,2.32,2.27,2.32,3.63v28.66c0,1.35-1.22,3.36-2.32,3.63h9.77c-1.09-.27-2.3-2.27-2.3-3.63v-28.32c2.52-.82,10.24-1.35,10.72,5.08.2,3.59-2.38,7.66-9.09,8.41l7.18,10.64c2.17,3.2,5.09,7.6,9.71,7.93l5.01.07c-3.73-2.24-7.12-5.7-8.55-7.65l-7.58-9.9c3.79-.54,8.53-4.27,8.53-9.55s-3.46-8.76-12.19-8.76l-11.21-.23Z"/>
      <path class="cls-1" d="m133.86,27.51c1.09.26,2.31,2.28,2.31,3.63v24.53l-20.46-26.87-.63-1.22h-7.62c.82.11,1.66,1.46,2.53,2.61.17.55.18,1.09.18,1.52v28.09c0,1.35-1.22,3.36-2.31,3.63h8.25c-1.07-.27-2.28-2.28-2.28-3.63v-24.65l19.39,25.18c2.27,2.97,5.63,4.71,6.58,4.95V31.14c0-1.35,1.23-3.36,2.32-3.63h-8.26Z"/>
      <path class="cls-1" d="m149.66,47.35c0,21.83,23.87,44.7,25.57,46.41,1.69,1.69,3.22.67,1.54-.85-6.29-6.46-21.03-26.79-21.03-45.56s14.74-39.19,21.03-45.63c1.68-1.53.16-2.54-1.54-.84-1.7,1.69-25.57,24.57-25.57,46.47"/>
      <path class="cls-1" d="m223.01,57.49c1.79,0,3.14,1.35,3.14,3.06s-1.36,3.11-3.14,3.11-3.14-1.36-3.14-3.11,1.42-3.06,3.14-3.06m.02,5.62c1.39,0,2.44-1.13,2.44-2.54s-1.05-2.53-2.46-2.53-2.47,1.15-2.47,2.52c0,1.53,1.2,2.56,2.49,2.56m-1.16-.89v-3.18c.31-.06.67-.11,1.11-.11.93,0,1.34.37,1.34.92,0,.4-.28.63-.63.74v.06c.3.09.44.35.52.78.11.48.19.67.26.79h-.66c-.09-.12-.15-.39-.25-.82-.12-.52-.41-.52-1.1-.52v1.34h-.6Zm.6-1.8c.59,0,1.21,0,1.21-.5,0-.28-.21-.51-.75-.51-.22,0-.35.02-.46.03v.97Z"/>
    </g>
    <g>
      <path class="cls-1" d="m6.34,89.4c-1.53,1.56-3.34,2.77-5.44,3.63l-.09-.19c1.33-.79,2.56-1.89,3.71-3.32,1.14-1.43,2.08-3.08,2.81-4.95.73-1.87,1.18-3.82,1.33-5.84v-1.16h-1.44c-.82.01-1.7.1-2.62.27l-.49-.95c.7.08,1.54.13,2.53.15h1.56l.93-1.54,2.45,1.86c-.32.41-1.1.67-2.36.8v.66c.28,2.89,1.14,5.31,2.59,7.28,1.45,1.96,3.51,3.52,6.18,4.65l-.08.21c-1.04.15-1.75.85-2.13,2.09-.82-.49-1.65-1.2-2.48-2.11s-1.57-1.95-2.22-3.13c-.65-1.17-1.12-2.38-1.42-3.64-.68,1.93-1.79,3.67-3.32,5.23Z"/>
      <path class="cls-1" d="m25.78,76.16c.06-.06.15-.16.27-.3.11-.14.21-.21.29-.21s.27.11.58.32c.31.22.6.44.86.68.27.24.4.41.4.49-.05.08-.13.15-.25.22-.11.07-.25.12-.4.14v1.65c.03,1.34.06,2.41.11,3.21-.06.11-.29.24-.69.39-.4.15-.75.22-1.05.22-.27,0-.4-.13-.4-.38l.08-.3v-.36h-2.75v5.72c.03,1.57.08,3.06.15,4.46-.09.22-.31.42-.67.63-.36.2-.76.3-1.21.3-.17,0-.3-.04-.4-.11-.1-.08-.15-.16-.15-.27.05-.75.09-1.47.13-2.18s.06-1.62.08-2.76v-8.23c0-1.6-.08-2.89-.25-3.9l2.39,1.06h2.49l.4-.51Zm-.21,2.87v-1.8h-2.75v1.8h2.75Zm-2.75.51v1.86h2.75v-1.86h-2.75Zm7.24,4.16c.05-.06.12-.14.2-.24.08-.1.15-.17.2-.22.05-.05.1-.08.15-.08.08,0,.27.11.58.32.31.22.6.44.86.68.27.24.4.41.4.49-.15.18-.38.29-.68.34v5.45c.91.08,1.46.11,1.63.11.14,0,.23-.03.28-.1.05-.07.08-.17.08-.29v-8.25h-2.85v.36c0,.06-.09.15-.27.26-.18.11-.4.2-.67.29-.27.08-.53.12-.78.12-.13,0-.22-.04-.28-.11-.06-.08-.1-.16-.1-.27.05-.53.09-1.2.11-1.99v-1.2c0-1.46-.08-2.68-.23-3.67l2.28.95h2.58l.44-.59c.06-.08.13-.16.2-.25.07-.09.14-.17.21-.24.07-.07.13-.1.18-.1.08,0,.28.12.62.37.34.25.65.51.95.78.3.27.45.45.45.54-.18.2-.43.33-.76.38v12.86c0,.57-.06,1.02-.18,1.36-.12.34-.37.61-.74.83-.37.22-.93.35-1.68.42-.04-.76-.15-1.29-.34-1.58-.14-.18-.31-.32-.52-.44-.21-.11-.5-.21-.88-.29v-.06c-.18.1-.4.19-.66.27s-.49.11-.69.11h-.34v-1.1h-3.15v.72c0,.06-.09.15-.26.25-.17.1-.38.19-.64.27-.25.08-.51.11-.76.11-.13,0-.23-.04-.29-.11-.07-.08-.1-.16-.1-.27.05-.58.09-1.37.13-2.38v-1.39c0-1.6-.08-2.89-.25-3.89l2.24.95h2.91l.42-.51Zm-.25,3.06v-2.03h-3.15v2.03h3.15Zm-3.15.55v2.11h3.15v-2.11h-3.15Zm7.11-8.28v-1.8h-2.85v1.8h2.85Zm-2.85.51v1.86h2.85v-1.86h-2.85Z"/>
      <path class="cls-1" d="m51.89,80.87c.06-.08.13-.16.2-.25.07-.09.14-.17.21-.24.07-.07.13-.1.18-.1.08,0,.29.12.64.37.35.25.67.5.98.77.3.27.46.44.46.53-.18.2-.42.34-.72.4v5.81c0,.53-.07.96-.2,1.29-.13.33-.4.6-.79.81-.39.21-.98.35-1.75.41-.04-.39-.08-.71-.13-.94-.05-.23-.13-.43-.25-.6-.17-.18-.35-.32-.56-.44-.21-.11-.5-.2-.88-.27v-.25c1.05.06,1.71.1,1.98.1.15,0,.26-.03.31-.09.06-.06.09-.15.09-.28v-5.95h-3.19v5.55c.03,1.57.08,3.06.15,4.47-.08.18-.33.36-.75.55-.42.19-.83.29-1.23.29-.2,0-.36-.04-.48-.11-.11-.08-.17-.16-.17-.27.05-.75.09-1.47.13-2.18s.06-1.62.08-2.76v-5.53h-3.19v3.4c.02,1.57.08,3.06.15,4.46-.09.18-.33.36-.73.55s-.81.29-1.24.29c-.15,0-.27-.04-.36-.11-.09-.08-.13-.16-.13-.27.09-1.18.15-2.47.17-3.88v-2.15c0-1.6-.08-2.89-.25-3.89l2.55,1.06h3.04v-2.68h-4.2c-.9.01-1.85.1-2.85.27l-.47-.97c.7.08,1.54.13,2.53.15h5c0-1.27-.06-2.3-.19-3.1,1.1.22,1.86.39,2.28.52s.63.24.63.33c0,.05-.04.11-.13.17l-.32.23v1.84h3.86l.59-.84c.08-.09.17-.21.28-.37.11-.16.21-.28.28-.35.07-.08.13-.11.18-.11.08,0,.3.14.67.43.37.28.73.58,1.06.89.34.31.5.51.5.6-.05.2-.23.3-.53.3h-6.73l.4.04c-.03.14-.08.25-.15.32-.08.08-.22.13-.42.17v2.15h3l.44-.57Z"/>
      <path class="cls-1" d="m70.32,79.64c.05-.06.12-.15.22-.26.1-.11.17-.19.23-.25.06-.06.11-.09.16-.09.08,0,.29.12.64.37.35.25.67.5.98.77.3.27.46.44.46.53-.13.19-.36.32-.7.4v1.75c.04,1.47.08,2.59.13,3.36-.08.14-.34.3-.8.48-.46.18-.86.28-1.22.28h-.38v-.91h-2.34c.77.98,1.82,1.82,3.14,2.54,1.32.72,2.69,1.24,4.11,1.57l-.04.21c-.42.1-.78.33-1.08.69-.3.36-.52.81-.65,1.36-2.71-1.25-4.65-3.33-5.81-6.23v2.05c.04,1.72.08,3.06.13,4.01-.08.16-.31.33-.7.5s-.79.26-1.18.26-.59-.13-.59-.38c.05-.67.1-1.58.13-2.72v-1.56c-1.84,1.79-4.26,3.18-7.28,4.18l-.13-.25c1.34-.73,2.58-1.66,3.71-2.76,1.13-1.11,2.03-2.26,2.7-3.47h-1.63v.48c0,.08-.1.17-.29.29-.2.11-.44.22-.72.3-.28.09-.57.13-.85.13-.15,0-.27-.04-.34-.11-.08-.08-.11-.16-.11-.27.06-.6.11-1.4.13-2.41v-1.41c0-1.6-.08-2.89-.25-3.89l2.58,1.03h2.49v-1.8h-3.8c-.9.01-1.85.1-2.85.27l-.49-.95c.7.08,1.54.13,2.53.15h4.62c0-1.08-.06-1.99-.17-2.76,1.09.24,1.84.43,2.24.57.41.14.61.26.61.36,0,.05-.05.11-.15.17l-.32.21v1.44h3.57l.59-.86c.08-.1.17-.23.29-.4.11-.16.21-.29.28-.36.07-.08.13-.11.18-.11.08,0,.3.15.67.44.37.29.73.6,1.06.91.34.32.5.52.5.61-.05.2-.23.3-.53.3h-6.61v1.8h2.47l.48-.57Zm-5.15,3.23v-2.13h-2.64v2.13h2.64Zm0,.55h-2.64v2.13h2.64v-2.13Zm4.86-.55v-2.13h-2.66v2.13h2.66Zm-2.66.55v2.13h2.66v-2.13h-2.66Z"/>
      <path class="cls-1" d="m83.71,77.05c.43-.51.73-.92.91-1.23l1.63,1.46h4.6l.55-.85.23-.32c.24-.35.4-.53.48-.53s.29.15.65.44c.35.29.69.59,1,.9.31.31.47.51.47.6-.05.2-.22.3-.51.3h-2.3v12.39c0,.56-.07,1.02-.21,1.4-.14.37-.42.68-.84.92-.42.24-1.02.39-1.81.46-.04-.77-.19-1.3-.46-1.6-.19-.19-.42-.34-.67-.47-.26-.12-.63-.21-1.11-.28v-.27c1.41.09,2.25.13,2.55.13.16,0,.28-.03.33-.1.06-.06.09-.16.09-.3v-12.29h-3.04l-.02-.04c-.14.08-.29.13-.44.15v7.24c.03,1.57.08,3.06.15,4.46-.1.14-.34.29-.72.46-.38.16-.72.25-1.03.25-.25,0-.38-.13-.38-.38l.08-.49v-.46h-4.41v.44c.01.16.02.31.03.45s.02.23.03.29c-.03.19-.21.38-.55.56-.34.18-.71.28-1.1.28-.15,0-.28-.04-.37-.11-.1-.08-.14-.16-.14-.27.05-.75.1-1.47.13-2.18s.06-1.62.08-2.76v-5.76c0-1.6-.08-2.89-.25-3.89l2.26,1.01h4.12Zm-2.96,5.66v-5.13h-1.27v5.13h1.27Zm0,.53h-1.27v5.24h1.27v-5.24Zm3.13-.53v-5.13h-1.37v5.13h1.37Zm-1.37.53v5.24h1.37v-5.24h-1.37Z"/>
    </g>
  </g>
</svg>