<?xml version="1.0" encoding="UTF-8"?>
<svg id="_レイヤー_2" data-name="レイヤー 2" xmlns="http://www.w3.org/2000/svg" viewBox="0 0 226.15 146.74">
  <defs>
    <style>
      .cls-1 {
        fill: #332615;
      }
    </style>
  </defs>
  <g id="_レイヤー_2-2" data-name="レイヤー 2">
    <g>
      <path class="cls-1" d="m13.78,115.74c.28.23.55.48.8.74.25.26.38.42.38.5-.03.17-.17.25-.41.25h-1.27v4.46c.02,1.31.06,2.55.13,3.72-.1.14-.28.27-.55.4-.27.13-.61.19-1.01.19-.15,0-.27-.03-.36-.09-.09-.06-.13-.14-.13-.22.04-.62.08-1.23.11-1.81s.05-1.35.06-2.3v-4.33h-1.44v.57c0,1.17-.08,2.23-.25,3.16-.17.94-.54,1.85-1.1,2.74-.56.89-1.4,1.65-2.51,2.29l-.17-.17c.65-.71,1.15-1.49,1.49-2.35.34-.86.56-1.74.66-2.64.11-.9.16-1.92.16-3.06v-.63c-.06.14-.2.21-.4.21H3.17c-.75.01-1.54.08-2.37.22l-.41-.81c.58.06,1.28.11,2.1.13h2.06c.28-.96.51-1.99.68-3.1h-1.8c-.56.02-.98.05-1.27.08.57.28.99.6,1.26.96.27.35.4.69.4,1.02,0,.26-.08.49-.23.66-.15.18-.33.27-.55.27-.24,0-.47-.11-.68-.33.02-.71-.15-1.56-.52-2.55-.33.04-.59.08-.79.11l-.41-.79c.52.06,1.14.11,1.87.13h.87c0-.88-.05-1.61-.14-2.21.85.18,1.44.32,1.77.43.33.11.49.2.49.28,0,.03-.04.07-.11.13l-.25.17v1.2h.52l.35-.55c.03-.05.08-.13.16-.25.07-.11.13-.19.18-.25.05-.05.09-.08.13-.08.06,0,.21.09.44.28.23.19.45.39.66.6.21.21.31.35.31.43-.03.17-.17.25-.41.25h-2.09c1.18.34,1.77.57,1.77.7,0,.03-.05.07-.14.11l-.28.09c-.56.79-1.17,1.52-1.82,2.2h1.14l.84-1.17c.63.55,1.12,1,1.47,1.36v-1.46c0-1.33-.07-2.41-.21-3.24l1.98.66c.5-.27.99-.59,1.49-.94.5-.35.89-.67,1.19-.94l1.87,1.55c-.1.09-.24.14-.43.14-.13,0-.3-.03-.51-.09-.46.16-1.02.31-1.68.46-.65.15-1.31.26-1.98.35v3.21h2.17l.44-.68c.04-.06.11-.16.2-.29.09-.13.16-.23.22-.3.06-.07.11-.1.15-.1.06,0,.23.12.51.35Zm-8.72,6.42c.03,1.41.07,2.5.11,3.27-.06.13-.25.25-.57.38-.32.13-.63.19-.93.19-.15,0-.26-.03-.32-.09-.07-.06-.1-.14-.1-.22.04-.53.08-1.24.11-2.15v-1.23c-.78.94-1.68,1.73-2.7,2.39l-.16-.21c.54-.6,1.02-1.31,1.44-2.13.42-.82.76-1.67,1.03-2.55h-.73c-.41.01-.83.08-1.27.22l-.41-.81c.53.06,1.16.11,1.9.13h.9c0-.75-.04-1.37-.11-1.85,1.43.33,2.15.56,2.15.71,0,.05-.03.09-.09.13l-.24.16v.85h.78l.36-.54c.04-.05.1-.13.17-.24.07-.11.13-.18.17-.24.05-.05.09-.08.13-.08.06,0,.21.09.43.28.22.18.43.38.62.59.2.21.29.35.29.43-.04.17-.17.25-.4.25h-2.56v.54l.06-.05c.83.18,1.44.44,1.84.79.39.35.59.71.59,1.08,0,.24-.08.45-.23.62-.15.17-.34.25-.56.25s-.44-.08-.65-.25c-.04-.38-.16-.78-.36-1.19-.2-.41-.42-.78-.69-1.11v1.68Z"/>
      <path class="cls-1" d="m28.31,120.82c.04-.05.11-.13.19-.25.08-.11.15-.19.21-.25.05-.05.1-.08.14-.08.06,0,.23.1.5.29.27.2.52.4.75.62.23.22.35.36.35.43-.03.17-.17.25-.43.25h-5.17c.66.52,1.53.95,2.59,1.3,1.06.35,2.15.59,3.26.71l-.03.17c-.35.09-.64.3-.89.6-.24.31-.41.69-.49,1.14-2.25-.76-3.89-2.06-4.92-3.89v1.25c.02,1,.05,1.8.1,2.39-.05.11-.24.22-.57.33-.33.12-.65.17-.98.17-.27,0-.41-.11-.41-.32.04-.49.07-1.09.1-1.8v-1.06c-1.46,1.33-3.52,2.32-6.19,2.97l-.11-.21c1.01-.43,1.94-.98,2.78-1.64.84-.66,1.53-1.37,2.06-2.13h-1.87c-.75.01-1.54.08-2.37.22l-.41-.81c.58.06,1.28.11,2.1.13h4v-1.41c-.54.26-1.2.48-1.99.65l-.09-.17c1.02-.45,1.72-.97,2.08-1.56s.55-1.24.55-1.97v-1.98c-.18.09-.31.16-.4.21l-.19-.16c.42-.52.8-1.1,1.12-1.74-.06.07-.17.11-.33.11h-2.55c.27.14.48.3.61.48.13.18.2.37.2.55,0,.19-.06.35-.17.49.45.33.93.72,1.42,1.17-.04.17-.18.25-.43.25h-1.93v2.1l2.1-.32.03.22c-1.18.56-2.77,1.24-4.76,2.04-.03.09-.08.17-.16.24-.07.06-.15.11-.22.13l-.89-1.8c.5-.04,1.25-.13,2.26-.27v-2.34h-.6c-.32.01-.64.08-.98.22l-.41-.81c.58.06,1.28.11,2.1.13h1.6l.57-.73c-.08.04-.19.06-.32.06-.24,0-.46-.09-.66-.28.03-.46-.1-.98-.38-1.53h-.43c-.81.96-1.77,1.71-2.88,2.26l-.16-.17c.32-.35.63-.76.93-1.25.26-.44.51-.98.74-1.61.23-.63.37-1.17.43-1.61.8.34,1.36.59,1.67.76.31.17.47.28.47.35,0,.04-.02.07-.06.09-.04.02-.07.02-.08.02l-.3.09c-.21.32-.35.52-.41.62h1.84l.79-1.12c.62.55,1.1.99,1.42,1.33.16-.32.3-.67.42-1.07.12-.4.2-.75.23-1.05,1.4.46,2.1.77,2.1.92,0,.04-.05.08-.14.13l-.3.11c-.1.16-.27.41-.52.76h2.53l.41-.59c.05-.07.11-.16.17-.25.06-.09.13-.17.19-.24.06-.07.12-.1.16-.1.06,0,.22.1.48.3.26.2.5.41.73.63.23.22.34.37.34.44-.04.17-.18.25-.43.25h-3.08c.27.14.48.3.62.48.14.18.21.37.21.56,0,.18-.06.34-.17.49.7.56,1.04.91,1.04,1.04,0,.04-.05.08-.14.13l-.24.08v2.26c0,.08.01.14.04.17.03.03.09.04.2.04h.78c.11,0,.18-.05.24-.14.06-.11.19-.45.38-1.04l.14-.44h.16l.05,1.52c.17.07.28.16.34.25.06.09.09.22.09.38,0,.63-.64.95-1.93.95h-.74c-.36,0-.62-.04-.8-.13-.17-.08-.29-.22-.35-.4-.06-.18-.09-.44-.09-.79v-2.77h-2.09v.73c.7.12,1.21.31,1.53.59.33.27.49.56.49.87,0,.21-.07.39-.21.54-.14.15-.31.22-.51.22s-.4-.08-.6-.25c-.02-.27-.1-.56-.23-.85-.13-.3-.29-.56-.48-.81-.01.55-.16,1.07-.44,1.55-.28.49-.79.92-1.53,1.3.73.15,1.23.27,1.52.37.28.1.43.19.43.26,0,.03-.04.08-.13.14l-.25.17v.55h3.53l.41-.57Zm-3.31-5.27h1.71l.3-.33c-.21-.02-.42-.11-.63-.27-.03-.47-.21-1-.54-1.58h-.7c-.56.6-1.19,1.11-1.88,1.52l1.74.66Z"/>
      <path class="cls-1" d="m36.91,112.85c.66.3,1,.5,1,.62,0,.04-.05.08-.16.11l-.28.08c-.59.98-1.33,1.95-2.23,2.9-.9.95-1.88,1.74-2.94,2.35l-.13-.16c.91-.96,1.73-2.18,2.47-3.67.24-.47.45-.97.62-1.49s.29-1,.36-1.45l1.3.71Zm-.79,5.47c-.47.01-.98.08-1.52.22l-.43-.81c.58.06,1.28.11,2.1.13h5.35l.43-.47c.06-.06.16-.16.28-.29.12-.13.21-.2.28-.2s.23.11.49.32c.26.21.51.43.74.66.23.23.35.39.35.46-.14.15-.35.24-.63.28-.08,1.98-.23,3.51-.44,4.58-.21,1.07-.51,1.78-.9,2.13-.25.22-.55.38-.88.49-.33.11-.75.16-1.24.16.02-.59-.1-1.01-.35-1.27-.14-.14-.36-.27-.66-.39-.31-.12-.64-.21-1.01-.28v-.22c1.16.09,1.94.14,2.33.14.14,0,.24-.01.32-.03.08-.02.16-.06.23-.13.21-.18.38-.73.51-1.66.13-.93.23-2.2.31-3.83h-2.83c-.13,1.04-.36,2-.71,2.88-.35.88-.95,1.73-1.81,2.56-.86.83-2.04,1.58-3.55,2.23l-.16-.21c1.15-.77,2.03-1.58,2.64-2.43.61-.85,1.02-1.67,1.23-2.46.21-.79.34-1.65.4-2.58h-.85Zm7.4-3.32c.98.79,2.02,1.4,3.14,1.82l-.02.21c-.35.11-.66.3-.94.59-.28.28-.47.6-.56.95-.94-.74-1.78-1.64-2.52-2.71-.74-1.07-1.28-2.2-1.63-3.38h-1.08c-.62.01-1.27.08-1.93.22l-.43-.81c.57.06,1.26.11,2.06.13h.97l.54-.9,1.49,1.06c-.14.19-.54.32-1.22.4.44.83,1.15,1.65,2.13,2.44Z"/>
      <path class="cls-1" d="m49.84,114.77c-.54.01-1.1.08-1.68.22l-.41-.78c.58.06,1.28.11,2.1.13h1.87l.36-.54s.08-.12.16-.22c.07-.11.13-.18.18-.24.05-.05.09-.08.13-.08.06,0,.21.09.44.27.23.18.44.37.63.58.2.21.29.35.29.42-.03.16-.16.24-.4.24h-3.69Zm11.83,7.32c-.43.16-1.11.33-2.02.51.75.74,1.68,1.23,2.8,1.47l-.02.17c-.31.08-.56.27-.77.55-.21.28-.35.64-.42,1.06-.91-.5-1.61-1.15-2.1-1.97s-.86-1.9-1.11-3.24c-.34.34-.78.67-1.33,1v2.04l2.02-.3.03.19c-1.23.76-2.46,1.44-3.69,2.06-.07.21-.21.34-.4.4l-.9-1.96c.53-.05.99-.11,1.38-.16v-1.52c-.6.24-1.24.44-1.93.6l-.13-.21c.56-.27,1.08-.6,1.57-.97.49-.37.91-.77,1.26-1.19h-.9c-.49.01-.98.07-1.47.19.05.07.08.13.08.16-.14.16-.33.26-.57.3v1.22c.02,1,.05,1.79.09,2.36-.06.11-.25.22-.56.36-.31.13-.59.2-.85.2-.22,0-.33-.11-.33-.32l.06-.32v-.32h-1.34v.35c.01.14.02.26.02.36,0,.11.01.18.02.24-.02.13-.18.26-.47.4-.29.14-.59.21-.89.21-.11,0-.19-.03-.25-.09-.06-.06-.09-.14-.09-.22.04-.45.07-1.03.09-1.72v-1.03c0-1.25-.06-2.3-.19-3.13l1.8.78h1.14l.33-.41s.1-.1.17-.18c.07-.08.12-.14.17-.17.04-.04.08-.06.13-.06.06,0,.22.09.48.27.26.18.49.36.7.55l-.27-.54c.44.06.98.11,1.61.13h.76v-1.2h-.51c-.26.01-.53.08-.79.22l-.41-.78c.32.06.71.11,1.17.13h.54v-1.19h-.62c-.35.01-.71.08-1.08.22l-.41-.79c.4.06.88.11,1.42.13h.68v-1.47c-.69.26-1.4.47-2.14.63l-.13-.21c.51-.32,1.01-.71,1.52-1.17.51-.46.89-.89,1.16-1.28h-.78c-.44.01-.9.08-1.36.22l-.41-.81c.58.06,1.28.11,2.1.13h1.41c0-.74-.04-1.34-.11-1.82.85.19,1.44.34,1.76.44.32.11.47.2.47.27,0,.04-.04.09-.13.14l-.27.17v.79h1.22l.41-.59c.05-.06.12-.15.2-.27.08-.12.14-.2.19-.25.05-.05.09-.08.13-.08.06,0,.23.1.49.3.26.2.51.41.74.64.23.23.34.38.34.45-.04.17-.18.25-.43.25h-5.93c.56.36.95.62,1.17.8s.33.29.33.36c0,.03-.05.06-.14.08l-.28.03c-.42.26-.9.5-1.42.71,1.16.26,1.74.47,1.74.62,0,.03-.04.07-.11.13l-.22.14v.63h1.49c0-.62-.03-1.16-.1-1.61.75.19,1.26.34,1.54.44.28.11.42.2.42.27,0,.03-.04.07-.11.13l-.24.14v.63h.13l.33-.49c.05-.06.11-.13.16-.21.05-.07.11-.14.16-.2.05-.06.1-.09.14-.09.06,0,.21.08.44.25.23.16.44.34.63.53.2.19.29.32.29.4-.04.17-.18.25-.41.25h-1.87v1.19h.09l.32-.46c.04-.05.09-.12.13-.19.05-.07.1-.14.15-.19.05-.05.1-.08.14-.08.06,0,.2.08.4.23.21.15.4.32.58.49.18.17.27.3.27.37-.04.17-.17.25-.4.25h-1.69v1.2h.3l.35-.49c.04-.05.1-.13.17-.22.07-.09.12-.17.17-.21.04-.05.08-.07.13-.07.06,0,.21.08.44.25.23.17.45.35.65.55.2.2.3.33.3.4-.04.17-.18.25-.41.25h-3.7c.18.51.47,1.02.89,1.53.28-.26.56-.54.83-.82.27-.28.47-.52.61-.7.92.82,1.38,1.3,1.38,1.44,0,.03-.04.05-.13.05l-.24-.03Zm-9.34-6.49c.22.17.42.36.61.56.19.2.28.34.28.41-.03.17-.16.25-.4.25h-1.6c-.75.01-1.54.08-2.37.22l-.41-.79c.51.06,1.11.11,1.8.13h.85l.35-.52c.05-.06.11-.14.17-.24.06-.09.12-.17.16-.21.04-.05.08-.07.13-.07.06,0,.2.09.42.26Zm0,2.07c.22.17.42.36.61.56.19.2.28.34.28.41-.03.16-.16.24-.4.24h-1.6c-.75.01-1.54.08-2.37.22l-.41-.79c.51.06,1.11.11,1.8.13h.85l.35-.51c.05-.06.11-.14.17-.24.06-.09.12-.17.16-.21.04-.05.08-.07.13-.07.06,0,.2.09.42.26Zm-1.05-4.9c-.75.01-1.54.08-2.37.22l-.41-.79c.47.06,1.04.11,1.71.13h.82l.36-.54c.04-.05.1-.13.17-.24.07-.11.13-.18.17-.24.05-.05.09-.08.13-.08.06,0,.21.09.44.28.23.18.44.38.64.59.2.21.3.35.3.42-.03.17-.16.25-.38.25h-1.58Zm-1.14,11.23h1.34v-2.97h-1.34v2.97Zm8.29-6.66h-1.49v1.19h1.49v-1.19Zm-1.49,1.61v1.2h1.49v-1.2h-1.49Zm3.8-5.05c.43.16.74.35.93.59.19.23.29.47.29.71,0,.2-.07.37-.2.51-.13.14-.31.21-.53.21-.13,0-.22-.01-.28-.03-.25-.34-.63-.7-1.14-1.09-.51-.39-.99-.7-1.44-.93l.11-.16c.32-.02.54-.03.66-.03.63,0,1.16.08,1.59.24Z"/>
      <path class="cls-1" d="m65.58,117.69c-.56.69-1.15,1.28-1.79,1.79l-.21-.13c.85-1.31,1.61-2.95,2.28-4.92.17-.52.33-1.11.47-1.78.15-.67.23-1.22.24-1.64.94.3,1.58.52,1.94.66.35.15.53.26.53.33,0,.03-.05.07-.14.11l-.3.13c-.51,1.37-1.09,2.6-1.76,3.69.59.37.89.62.89.74,0,.06-.04.11-.13.14l-.24.11v4.75c.02,1.31.06,2.55.13,3.72-.09.13-.3.26-.62.4-.32.14-.64.21-.96.21-.16,0-.28-.03-.37-.09-.09-.06-.13-.14-.13-.22.04-.62.08-1.23.11-1.81.03-.59.05-1.35.06-2.3v-3.88Zm9.95,1.12c.04-.06.11-.15.19-.27.08-.12.15-.2.21-.26.05-.06.1-.09.14-.09.06,0,.23.11.5.32.27.21.52.43.76.66.24.23.36.38.36.45-.04.17-.18.25-.43.25h-3.62v4.98h1.79l.47-.7c.04-.06.11-.16.21-.29.09-.13.17-.23.24-.3.06-.07.12-.1.16-.1.06,0,.24.12.55.36s.59.48.85.74c.27.25.4.42.4.49-.04.17-.19.25-.44.25h-7.43c-.75.01-1.54.08-2.37.22l-.41-.79c.58.06,1.28.11,2.1.13h1.98v-4.98h-1.04c-.62.01-1.27.08-1.93.22l-.4-.81c.58.06,1.28.11,2.1.13h1.27v-4.1h-1.15c-.69.01-1.4.08-2.15.22l-.41-.79c.58.06,1.28.11,2.1.13h5.05l.46-.65c.04-.05.11-.14.2-.28.09-.13.16-.23.22-.29.06-.06.11-.09.15-.09.06,0,.24.11.53.33s.56.45.81.7c.25.24.38.4.38.47-.04.17-.18.25-.43.25h-3.84v4.1h1.47l.43-.6Zm-4.9-7.53c.79.07,1.44.23,1.95.46.51.23.88.5,1.12.81.23.31.35.62.35.93,0,.27-.08.5-.25.69-.17.18-.38.28-.63.28-.2,0-.4-.06-.59-.17-.17-.47-.45-.98-.85-1.51-.4-.53-.8-.99-1.23-1.37l.13-.11Z"/>
      <path class="cls-1" d="m91.74,113.15c.06-.06.16-.16.28-.29.12-.13.21-.2.28-.2s.22.12.48.36c.26.24.5.49.73.74.23.26.34.42.34.5-.1.12-.29.18-.59.19-.33.28-.7.58-1.13.89-.43.31-.83.58-1.21.8l.1.08c-.11.08-.24.13-.41.13-.16,0-.34-.04-.55-.11-.88.33-1.91.63-3.1.9v2.56l3.86-.54.38-.68c.03-.06.09-.16.17-.29.08-.13.14-.23.2-.3.05-.07.1-.1.14-.1.06,0,.26.09.59.26.33.17.63.35.91.54.28.18.42.31.42.39-.01.09-.05.17-.12.22-.07.05-.16.09-.26.11l-6.28.85v3.34c0,.18.05.3.15.36.1.06.31.09.64.09h1.95c.88,0,1.41-.01,1.6-.03.14-.01.24-.03.31-.07.07-.04.13-.1.2-.2.18-.28.44-1.04.79-2.28h.16l.06,2.37c.27.11.46.22.55.33.1.12.14.27.14.47,0,.28-.11.51-.32.66-.22.16-.61.28-1.18.36-.57.08-1.39.12-2.47.12h-2.04c-.62,0-1.1-.05-1.42-.14-.33-.09-.56-.26-.7-.51-.14-.24-.21-.6-.21-1.08v-3.54l-5.24.71-.17-.44,5.41-.74v-2.42c-1.32.25-2.67.44-4.05.55l-.05-.24c1.47-.36,2.98-.84,4.53-1.44,1.56-.6,2.77-1.18,3.63-1.72l1.49,1.27c.22-.51.44-1.13.66-1.87h-9.21c.01.08.02.2.02.35,0,.47-.08.89-.24,1.24-.16.35-.36.62-.62.8-.18.15-.39.22-.63.22s-.45-.08-.63-.23c-.18-.15-.27-.37-.27-.64,0-.2.06-.38.18-.55.12-.16.28-.3.47-.4.32-.19.59-.5.83-.92.24-.42.35-.87.34-1.34h.21c.11.27.2.62.28,1.03h3.72c0-1.05-.05-1.91-.16-2.58.91.19,1.53.34,1.88.45s.52.2.52.28c0,.04-.04.09-.13.14l-.27.17v1.53h3.65l.43-.47Z"/>
      <path class="cls-1" d="m100.13,124.6c-.07,0-.11-.07-.11-.21,0-.13.04-.19.11-.19h.21c1.32,0,1.98-.42,1.98-1.27v-6.91c0-.42-.05-.72-.13-.9-.09-.18-.24-.29-.44-.34s-.55-.07-1.04-.07h-.52c-.07,0-.11-.07-.11-.21,0-.06,0-.11.02-.14.01-.03.04-.05.09-.05,1.52-.15,2.9-.66,4.13-1.53v10.16c0,.5.19.83.56,1,.37.17.85.26,1.42.26h.19c.07,0,.11.06.11.19,0,.14-.04.21-.11.21h-6.34Z"/>
      <path class="cls-1" d="m124.58,114.81c.04-.05.1-.12.17-.21.07-.08.13-.15.17-.19.05-.04.09-.06.13-.06.06,0,.23.09.5.28.27.19.52.39.75.6.23.21.35.35.35.43-.04.06-.12.13-.23.19-.11.06-.23.11-.37.14v1.36c.02,1.11.05,1.98.09,2.61-.06.09-.26.2-.6.32-.34.12-.63.17-.89.17h-.3v-.41h-1.01c.39.67.91,1.28,1.56,1.81.65.53,1.33.94,2.05,1.23l-.03.16c-.68.18-1.13.74-1.38,1.69-1.17-1.03-2.01-2.66-2.53-4.89h-.03v1.77c.03,1.49.07,2.64.11,3.45-.06.15-.25.3-.55.47-.3.16-.6.25-.89.25-.16,0-.27-.03-.34-.09-.07-.06-.1-.13-.1-.23.04-.56.08-1.31.11-2.25v-1.3c-1.08,1.23-2.48,2.23-4.22,2.97l-.14-.22c.84-.59,1.59-1.31,2.24-2.14.65-.84,1.16-1.73,1.54-2.68h-.74v.17c0,.05-.06.12-.17.2-.12.08-.27.15-.47.21-.2.06-.42.09-.66.09s-.35-.11-.35-.32l.06-.44v-.4c-.14.21-.33.32-.59.32-.2,0-.41-.09-.63-.28-.03-.34-.12-.71-.28-1.11-.15-.4-.34-.78-.55-1.14v4.33c.02,1.31.06,2.55.13,3.72-.06.14-.26.27-.58.41-.32.14-.64.21-.94.21-.16,0-.28-.03-.37-.09-.09-.06-.13-.14-.13-.22.04-.6.08-1.19.1-1.78.03-.59.04-1.32.06-2.21v-2.17c-.58,1-1.3,1.91-2.15,2.74l-.19-.17c.52-.86.96-1.87,1.32-3.01.36-1.14.65-2.33.85-3.58h-.59c-.3.01-.61.08-.95.22l-.41-.81c.4.06.89.11,1.46.13h.66v-.71c0-1.33-.07-2.41-.21-3.24.89.2,1.5.36,1.84.47.34.11.51.21.51.29,0,.04-.04.09-.13.14l-.27.19v2.86h.14l.76-1.22c.45.46.83.86,1.14,1.2v-.51l1.8.71h1.12v-1.47h-1.06c-.63.01-1.29.08-1.96.22l-.41-.81c.58.06,1.28.11,2.1.13h1.33c0-.89-.05-1.63-.14-2.25.84.2,1.42.36,1.74.47.32.11.47.21.47.29,0,.04-.04.09-.13.14l-.28.17v1.17h1.36l.4-.63c.05-.07.12-.17.2-.28.08-.12.14-.2.19-.26.05-.06.09-.09.13-.09.06,0,.22.11.47.32.25.22.48.44.7.68.22.24.33.39.33.47-.03.17-.16.25-.4.25h-3.39v1.47h1.23l.36-.44Zm-6.19.68c-.08.02-.15.03-.19.03h-1.85v1.47c1.04.35,1.72.82,2.04,1.41v-2.91Zm2.93,1.93v-1.72h-1.33v1.72h1.33Zm-1.33.44v1.74h1.33v-1.74h-1.33Zm4.37-.44v-1.72h-1.38v1.72h1.38Zm-1.38.44v1.74h1.38v-1.74h-1.38Z"/>
      <path class="cls-1" d="m146.82,111.61l-14.4,14.4-.46-.44,14.4-14.4.46.44Z"/>
      <path class="cls-1" d="m3.27,132.77c.04-.05.1-.12.17-.2.07-.08.12-.14.17-.18.04-.04.08-.06.13-.06.06,0,.23.1.49.3.26.2.51.41.74.64.23.23.34.38.34.45-.13.14-.36.23-.7.28-.35.92-.9,2.19-1.65,3.81h.57l.38-.46s.09-.11.17-.2c.08-.09.14-.16.2-.21.05-.05.1-.07.14-.07.06,0,.22.1.47.3.25.2.48.41.7.63.22.22.32.37.32.44-.04.07-.1.13-.18.17-.08.04-.2.07-.37.1-.24,1.89-.68,3.45-1.31,4.68.64.58,1.45.97,2.43,1.17.98.2,2.26.3,3.87.3,2.27,0,3.79-.01,4.56-.03v.19c-.31.07-.54.25-.71.52-.17.27-.26.6-.28.96h-3.65c-1.72,0-3.1-.17-4.14-.5-1.04-.33-1.89-.94-2.53-1.83-.74,1.12-1.74,2.02-3.01,2.72l-.13-.19c1.08-.96,1.88-2.23,2.4-3.81-.31-.66-.56-1.46-.76-2.39-.37.81-.62,1.34-.76,1.6.04.08.06.14.06.17,0,.08-.04.15-.11.21l-.89-1.06c.24-.18.51-.4.81-.65.3-.25.53-.47.71-.65l.09-.7.6.19-.41.59c.24.75.53,1.41.85,1.98.28-1.01.49-2.26.62-3.73h-.89l-.33.71c-.18.05-.35.08-.52.08-.33,0-.68-.07-1.04-.22.35-.78.71-1.65,1.09-2.6.38-.95.7-1.81.96-2.57h-.73c-.41.01-.83.08-1.27.22l-.41-.81c.45.06,1,.11,1.65.13h.76l.35-.44Zm8.31.41s.08-.11.16-.19c.07-.08.13-.15.18-.19.05-.04.09-.06.13-.06.06,0,.22.09.48.28.26.18.5.38.72.59.22.21.33.35.33.42-.04.06-.11.12-.21.18-.1.06-.22.1-.36.13v1.3h.08l.32-.6c.03-.05.08-.14.14-.25.06-.12.12-.2.17-.26.05-.06.09-.09.13-.09.1,0,.32.21.68.62.36.41.54.68.54.79-.03.17-.16.25-.4.25h-1.66v.73l.02.44c.01.35.03.66.06.93-.05.11-.24.22-.57.33-.33.12-.62.17-.87.17h-.28v-.54h-1.41v1.61h1.55l.4-.59c.05-.07.11-.16.17-.25.06-.09.13-.17.19-.24.06-.07.12-.1.16-.1.06,0,.22.1.47.29.25.2.48.4.7.62.22.22.33.37.33.44-.03.17-.17.25-.41.25h-3.56v1.66h1.72l.46-.63c.04-.05.11-.14.2-.27s.16-.22.22-.28c.06-.06.11-.09.15-.09.06,0,.23.11.51.32.28.22.54.44.79.68s.37.39.37.47c-.04.17-.18.25-.43.25h-4v.54c.01.12.02.26.02.43l.05.54c-.03.13-.2.25-.49.38-.3.13-.6.19-.92.19-.3,0-.44-.11-.44-.32.03-.25.05-.5.06-.73l.02-.33v-.7h-1.06c-.6.01-1.23.08-1.9.22l-.41-.81c.58.06,1.28.11,2.1.13h1.27v-1.66h-.85c-.51.01-1.02.08-1.55.22l-.4-.79c.53.06,1.16.11,1.9.13h.9v-1.61h-.81c-.47.01-.96.08-1.46.22l-.41-.81c.51.06,1.11.11,1.8.13h.87v-1.61h-1.12c-.65.01-1.35.08-2.09.22l-.4-.81c.58.06,1.28.11,2.1.13h1.5v-1.58h-.82c-.44.01-.92.08-1.42.22l-.41-.79c.51.06,1.11.11,1.8.13h.85c0-.75-.04-1.36-.11-1.84.83.19,1.41.34,1.73.45s.48.21.48.29c0,.04-.04.09-.13.14l-.27.19v.76h1.27l.35-.43Zm-.21.87h-1.41v1.58h1.41v-1.58Zm-1.41,3.65h1.41v-1.61h-1.41v1.61Z"/>
      <path class="cls-1" d="m28.31,141.5c.04-.05.11-.13.19-.25.08-.11.15-.19.21-.25.05-.05.1-.08.14-.08.06,0,.23.1.5.29.27.2.52.4.75.62.23.22.35.36.35.43-.03.17-.17.25-.43.25h-5.17c.66.52,1.53.95,2.59,1.3,1.06.35,2.15.59,3.26.71l-.03.17c-.35.09-.64.3-.89.6-.24.31-.41.69-.49,1.14-2.25-.76-3.89-2.06-4.92-3.89v1.25c.02,1,.05,1.8.1,2.39-.05.11-.24.22-.57.33-.33.12-.65.17-.98.17-.27,0-.41-.11-.41-.32.04-.49.07-1.09.1-1.8v-1.06c-1.46,1.33-3.52,2.32-6.19,2.97l-.11-.21c1.01-.43,1.94-.98,2.78-1.64.84-.66,1.53-1.37,2.06-2.13h-1.87c-.75.01-1.54.08-2.37.22l-.41-.81c.58.06,1.28.11,2.1.13h4v-1.41c-.54.26-1.2.48-1.99.65l-.09-.17c1.02-.45,1.72-.97,2.08-1.56s.55-1.24.55-1.97v-1.98c-.18.09-.31.16-.4.21l-.19-.16c.42-.52.8-1.1,1.12-1.74-.06.07-.17.11-.33.11h-2.55c.27.14.48.3.61.48.13.18.2.37.2.55,0,.19-.06.35-.17.49.45.33.93.72,1.42,1.17-.04.17-.18.25-.43.25h-1.93v2.1l2.1-.32.03.22c-1.18.56-2.77,1.24-4.76,2.04-.03.09-.08.17-.16.24-.07.06-.15.11-.22.13l-.89-1.8c.5-.04,1.25-.13,2.26-.27v-2.34h-.6c-.32.01-.64.08-.98.22l-.41-.81c.58.06,1.28.11,2.1.13h1.6l.57-.73c-.08.04-.19.06-.32.06-.24,0-.46-.09-.66-.28.03-.46-.1-.98-.38-1.53h-.43c-.81.96-1.77,1.71-2.88,2.26l-.16-.17c.32-.35.63-.76.93-1.25.26-.44.51-.98.74-1.61.23-.63.37-1.17.43-1.61.8.34,1.36.59,1.67.76.31.17.47.28.47.35,0,.04-.02.07-.06.09-.04.02-.07.02-.08.02l-.3.09c-.21.32-.35.52-.41.62h1.84l.79-1.12c.62.55,1.1.99,1.42,1.33.16-.32.3-.67.42-1.07.12-.4.2-.75.23-1.05,1.4.46,2.1.77,2.1.92,0,.04-.05.08-.14.13l-.3.11c-.1.16-.27.41-.52.76h2.53l.41-.59c.05-.07.11-.16.17-.25.06-.09.13-.17.19-.24.06-.07.12-.1.16-.1.06,0,.22.1.48.3.26.2.5.41.73.63.23.22.34.37.34.44-.04.17-.18.25-.43.25h-3.08c.27.14.48.3.62.48.14.18.21.37.21.56,0,.18-.06.34-.17.49.7.56,1.04.91,1.04,1.04,0,.04-.05.08-.14.13l-.24.08v2.26c0,.08.01.14.04.17.03.03.09.04.2.04h.78c.11,0,.18-.05.24-.14.06-.11.19-.45.38-1.04l.14-.44h.16l.05,1.52c.17.07.28.16.34.25.06.09.09.22.09.38,0,.63-.64.95-1.93.95h-.74c-.36,0-.62-.04-.8-.13-.17-.08-.29-.22-.35-.4-.06-.18-.09-.44-.09-.79v-2.77h-2.09v.73c.7.12,1.21.31,1.53.59.33.27.49.56.49.87,0,.21-.07.39-.21.54-.14.15-.31.22-.51.22s-.4-.08-.6-.25c-.02-.27-.1-.56-.23-.85-.13-.3-.29-.56-.48-.81-.01.55-.16,1.07-.44,1.55-.28.49-.79.92-1.53,1.3.73.15,1.23.27,1.52.37.28.1.43.19.43.26,0,.03-.04.08-.13.14l-.25.17v.55h3.53l.41-.57Zm-3.31-5.27h1.71l.3-.33c-.21-.02-.42-.11-.63-.27-.03-.47-.21-1-.54-1.58h-.7c-.56.6-1.19,1.11-1.88,1.52l1.74.66Z"/>
      <path class="cls-1" d="m44.05,140.49c.05-.07.13-.17.22-.3.09-.13.17-.22.22-.28.05-.06.1-.09.14-.09.06,0,.24.11.54.34.3.23.57.46.83.7.26.24.39.4.39.47-.04.17-.18.25-.43.25h-5.36c.61.7,1.46,1.28,2.55,1.75,1.09.47,2.23.78,3.41.93l-.03.19c-.35.09-.65.3-.89.62-.25.32-.41.71-.5,1.19-1.18-.43-2.18-1.03-2.99-1.8-.81-.76-1.46-1.72-1.93-2.87v1.53c.03,1.3.07,2.29.11,2.99-.06.13-.27.25-.62.38-.35.13-.7.19-1.04.19-.16,0-.27-.03-.34-.09-.07-.06-.1-.13-.1-.23.05-.56.09-1.3.11-2.23v-1.28c-1.47,1.49-3.51,2.64-6.14,3.45l-.11-.19c1-.54,1.92-1.2,2.75-2,.83-.8,1.52-1.64,2.06-2.52h-2.01c-.75.01-1.54.08-2.37.22l-.4-.79c.58.06,1.28.11,2.1.13h4.11c0-.89-.04-1.59-.13-2.1.92.19,1.55.34,1.89.45.34.11.51.21.51.29,0,.04-.04.09-.13.14l-.27.17v1.04h3.37l.46-.66Zm-2.56-7.39c.05-.04.13-.12.24-.22s.19-.18.26-.24c.07-.05.12-.08.17-.08.06,0,.23.13.51.38.28.25.54.52.79.8.25.28.37.46.37.53-.05.08-.13.14-.22.17-.1.03-.25.06-.46.08-.6.89-1.36,1.68-2.26,2.39,1.47.51,3.31.82,5.52.95v.21c-.75.21-1.22.81-1.42,1.79-2.29-.43-4.1-1.11-5.44-2.04-1.96,1.14-4.39,1.87-7.29,2.2l-.08-.21c2.54-.69,4.62-1.67,6.25-2.96-.55-.56-1-1.19-1.36-1.88-1.29,1.1-2.66,1.9-4.13,2.42l-.11-.16c1.01-.66,1.94-1.56,2.77-2.67.33-.42.63-.91.9-1.46.27-.55.46-1.04.55-1.47,1.67.52,2.5.84,2.5.98,0,.03-.05.06-.14.08l-.3.05c-.3.4-.53.7-.71.9h2.55l.55-.54Zm-3.51.98c-.25.27-.46.47-.62.6.48.57,1.1,1.07,1.85,1.49.7-.64,1.26-1.34,1.69-2.09h-2.93Z"/>
      <path class="cls-1" d="m49.81,138.2c-.57.71-1.16,1.32-1.77,1.85l-.19-.13c.79-1.31,1.48-2.9,2.07-4.78.17-.52.32-1.11.45-1.77.13-.66.2-1.21.21-1.63,1.6.58,2.4.94,2.4,1.09,0,.04-.04.08-.13.11l-.3.11c-.42,1.17-.9,2.22-1.42,3.15.3.19.5.34.62.45.12.11.18.2.18.26,0,.05-.04.11-.13.16l-.22.11v5.16c.02,1.31.06,2.55.13,3.72-.09.13-.3.26-.62.4-.32.14-.65.21-.97.21-.15,0-.27-.03-.36-.09-.09-.06-.13-.14-.13-.22.04-.62.08-1.23.11-1.81.03-.59.05-1.35.06-2.3v-4.03Zm10-3.05c.06-.08.13-.18.21-.3.08-.12.14-.2.2-.26.05-.06.1-.09.14-.09.06,0,.23.11.51.33.27.22.53.45.78.7.24.24.36.4.36.47-.04.17-.18.25-.43.25h-3.45v3.84h1.58l.44-.68c.05-.07.12-.17.21-.3.08-.13.16-.22.21-.28.06-.06.11-.09.15-.09.06,0,.24.12.53.35.29.23.56.47.81.73.25.25.38.42.38.49-.04.17-.18.25-.43.25h-3.89v1.87c.02,1.28.06,2.48.13,3.62-.06.14-.26.28-.59.42-.33.14-.66.21-.99.21-.18,0-.31-.03-.4-.09s-.13-.14-.13-.22c.04-.57.08-1.13.1-1.68.03-.55.04-1.24.06-2.09v-2.04h-1.55c-.75.01-1.54.08-2.37.22l-.41-.81c.58.06,1.28.11,2.1.13h2.23v-3.84h-1.88c-.6,1.26-1.32,2.3-2.17,3.15l-.19-.11c.38-.93.71-2.01.98-3.24.13-.53.23-1.13.3-1.8.07-.67.1-1.22.06-1.64.91.27,1.53.48,1.87.62.34.14.51.24.51.32,0,.04-.04.08-.13.11l-.3.13c-.19.66-.44,1.33-.74,2.01h1.68v-.59c0-1.33-.07-2.41-.21-3.24.94.2,1.58.36,1.93.47.35.11.52.21.52.29,0,.04-.04.09-.13.14l-.28.19v2.74h1.25l.43-.65Z"/>
      <path class="cls-1" d="m65.69,138.4c-.57.68-1.16,1.26-1.77,1.76l-.19-.13c.41-.64.81-1.39,1.19-2.23.38-.84.74-1.73,1.05-2.67.18-.53.34-1.13.48-1.8.14-.67.22-1.22.23-1.64.93.3,1.57.52,1.92.66.35.15.53.26.53.33,0,.04-.04.08-.13.11l-.28.13c-.5,1.34-1.04,2.5-1.65,3.5.52.33.78.55.78.68,0,.05-.05.11-.14.16l-.24.11v5c.02,1.31.06,2.55.13,3.72-.1.13-.3.26-.62.4-.32.14-.64.21-.96.21-.16,0-.28-.03-.37-.09-.09-.06-.13-.14-.13-.22.04-.62.08-1.23.11-1.81.03-.59.05-1.35.06-2.3v-3.88Zm10.58-3.04c.05-.07.12-.18.2-.31.08-.13.14-.23.19-.29s.09-.09.13-.09c.06,0,.22.12.47.35.25.23.49.47.72.73.23.25.34.42.34.49-.03.17-.17.25-.41.25h-2.21v7.81c0,.51-.06.91-.19,1.22-.13.31-.38.55-.76.74s-.95.32-1.71.4c-.03-.34-.08-.62-.16-.84-.07-.22-.18-.41-.33-.55-.19-.16-.42-.29-.69-.4-.27-.11-.64-.21-1.12-.29v-.22c1.51.09,2.4.14,2.67.14.16,0,.27-.02.32-.07s.09-.13.09-.26v-7.67h-3.02c-.75.01-1.54.08-2.37.22l-.41-.79c.58.06,1.28.11,2.1.13h3.7v-.82c0-1.33-.07-2.41-.21-3.24,1.65.34,2.47.59,2.47.76,0,.02-.02.05-.06.07-.04.03-.06.04-.07.06l-.27.17v3.01h.16l.41-.68Zm-7.1,2.55c1.08.39,1.87.87,2.37,1.45.51.57.76,1.13.76,1.67,0,.31-.08.56-.25.76-.16.2-.37.3-.61.3s-.48-.1-.73-.3c-.09-.59-.3-1.22-.62-1.89-.32-.67-.68-1.3-1.08-1.89l.14-.09Z"/>
      <path class="cls-1" d="m90.54,136.87c.05-.07.13-.18.23-.31.1-.13.18-.23.25-.3.06-.07.12-.1.16-.1.06,0,.25.12.56.36.31.24.61.49.89.75.28.26.42.42.42.5-.03.17-.17.25-.43.25h-4.97v7.39h3.16l.52-.73c.05-.07.13-.18.23-.32.1-.14.18-.25.25-.32.06-.07.12-.1.16-.1.06,0,.26.12.59.37.33.25.64.51.93.78s.44.44.44.51c-.04.17-.19.25-.44.25h-11.18c-.75.01-1.54.08-2.37.22l-.4-.79c.58.06,1.28.11,2.1.13h4.13v-7.39h-2.5c-.75.01-1.54.08-2.37.22l-.43-.81c.58.06,1.28.11,2.1.13h3.2v-2.55c0-1.33-.07-2.41-.21-3.24,1.67.34,2.5.59,2.5.76,0,.03-.04.08-.13.14l-.27.19v4.7h2.39l.51-.7Z"/>
      <path class="cls-1" d="m99.24,136.11c.04-.08.1-.19.17-.31.07-.12.12-.21.17-.28.04-.06.08-.09.13-.09.1,0,.33.23.7.68.37.45.55.74.55.85-.04.17-.17.25-.38.25h-1.79v4.68c.81-.31,1.46-.56,1.93-.76l.06.16c-1.39,1.26-2.8,2.39-4.22,3.4-.02.11-.07.2-.13.28-.07.08-.15.15-.23.19l-.89-2.1c.33-.08.93-.27,1.8-.57v-5.28h-.49c-.26.01-.54.08-.82.22l-.4-.79c.32.06.71.11,1.17.13h.54v-1.41c0-1.33-.07-2.41-.21-3.24.88.19,1.48.34,1.8.45.33.11.49.21.49.29,0,.04-.04.09-.13.14l-.28.17v3.59h.11l.35-.66Zm8.23-1.14c.05-.05.14-.14.25-.26.12-.12.21-.18.27-.18s.22.09.47.28c.25.19.48.39.7.61.22.22.33.36.33.43-.13.15-.33.24-.6.28-.02,1.47-.05,2.58-.1,3.33-.04.75-.12,1.33-.23,1.72-.11.39-.27.68-.48.87-.37.36-.9.54-1.58.54,0-.32-.01-.57-.03-.75-.02-.18-.07-.33-.14-.44-.13-.22-.34-.38-.63-.47v.68l.03.55c0,.15.01.38.03.7-.03.14-.2.27-.5.4-.3.13-.6.2-.91.2-.14,0-.25-.03-.33-.09-.08-.06-.13-.14-.13-.22.04-.59.08-1.18.1-1.76.03-.58.04-1.31.06-2.2v-2.15l-1.33.51v6.23c0,.24.07.41.21.49.14.08.41.13.8.13h2.06c.81,0,1.38-.02,1.69-.05.25-.01.44-.09.57-.24.19-.31.45-1.03.79-2.18h.17l.06,2.25c.27.11.47.22.58.33.11.12.17.26.17.43,0,.31-.12.54-.35.71-.23.17-.65.29-1.25.37s-1.47.12-2.59.12h-2.1c-.65,0-1.16-.05-1.51-.15-.35-.1-.61-.28-.77-.55-.16-.27-.24-.66-.24-1.18v-6.06l-1.49.57-.28-.38,1.77-.68v-2.26c0-.93-.05-1.71-.14-2.34.85.2,1.44.36,1.76.47.32.12.47.22.47.3,0,.04-.04.09-.11.14l-.27.17v2.86l1.33-.51v-2.34c0-.95-.05-1.75-.14-2.4.83.2,1.41.36,1.72.47.31.11.47.21.47.29,0,.03-.04.08-.13.14l-.27.17v3.05l1.25-.47.14-.05h-.03l.41-.44Zm-1.77,5.73c.3.02.56.03.79.03.17,0,.3-.04.38-.13.12-.14.2-.56.26-1.26.06-.7.09-1.87.1-3.5l-1.53.59v4.27Z"/>
      <path class="cls-1" d="m115.95,145.29c-.07,0-.11-.07-.11-.21,0-.13.04-.19.11-.19h.21c1.32,0,1.98-.42,1.98-1.27v-6.91c0-.42-.05-.72-.13-.9-.09-.18-.24-.29-.44-.34s-.55-.07-1.04-.07h-.52c-.07,0-.11-.07-.11-.21,0-.06,0-.11.02-.14.01-.03.04-.05.09-.05,1.52-.15,2.9-.66,4.13-1.53v10.16c0,.5.19.83.56,1,.37.17.85.26,1.42.26h.19c.07,0,.11.06.11.19,0,.14-.04.21-.11.21h-6.34Z"/>
      <path class="cls-1" d="m126.43,144.81c-.64-.45-1.17-1.13-1.57-2.04-.4-.91-.6-2-.6-3.29s.2-2.38.61-3.29c.41-.91.93-1.59,1.57-2.04.64-.45,1.31-.68,2.01-.68s1.38.23,2.02.68c.64.45,1.17,1.13,1.57,2.04.41.91.61,2,.61,3.29s-.2,2.38-.61,3.29c-.41.91-.93,1.59-1.57,2.04-.64.45-1.32.68-2.02.68s-1.38-.23-2.02-.68Zm3.6-1.23c.36-.9.55-2.27.55-4.11s-.18-3.2-.55-4.1c-.36-.9-.89-1.34-1.57-1.34s-1.21.45-1.57,1.34c-.36.9-.55,2.26-.55,4.1s.18,3.2.55,4.11c.36.9.89,1.35,1.57,1.35s1.21-.45,1.57-1.35Z"/>
      <path class="cls-1" d="m149.42,132.65c.05-.07.13-.17.22-.3.09-.13.17-.22.22-.28.05-.06.1-.09.14-.09.06,0,.24.11.54.34.3.23.57.46.84.71.26.25.4.41.4.48-.04.17-.18.25-.43.25h-10.36v11.26h8.48l.49-.7c.04-.06.11-.16.21-.29.1-.13.17-.23.24-.3.06-.07.12-.1.16-.1.06,0,.25.12.56.36.31.24.6.48.88.74.27.25.41.42.41.49-.04.17-.18.25-.43.25h-10.99v.65c0,.06-.06.14-.19.25-.13.1-.3.19-.52.26-.22.07-.47.11-.76.11-.16,0-.28-.03-.37-.09-.09-.06-.13-.14-.13-.22.04-.62.08-1.23.11-1.81.03-.59.05-1.35.06-2.3v-6.72c0-1.33-.07-2.41-.21-3.24l2.21.96h7.75l.47-.66Zm-7.78,11.6l-.14-.17c.75-.63,1.48-1.38,2.2-2.24.72-.86,1.38-1.8,1.98-2.81-1.13-1.11-2.32-2.06-3.58-2.86l.09-.19c1.53.51,2.92,1.1,4.18,1.79l.32-.63c.22-.47.42-1,.6-1.58.18-.58.3-1.09.36-1.53.91.39,1.53.68,1.88.87s.52.32.52.4c0,.03-.02.06-.05.07-.03.02-.07.03-.11.04l-.32.08c-.53,1.18-1.11,2.26-1.76,3.24.84.62,1.46,1.23,1.84,1.83.38.6.58,1.13.58,1.61,0,.34-.08.61-.25.81-.17.2-.38.3-.63.3s-.52-.1-.76-.3c-.37-.84-.99-1.77-1.87-2.78-1.37,1.68-3.07,3.04-5.09,4.08Z"/>
      <path class="cls-1" d="m163.34,135.29c.05-.05.13-.14.22-.25.1-.12.17-.17.24-.17s.22.09.47.27c.25.18.49.37.7.57.22.2.32.34.32.41-.13.15-.32.24-.59.28v3.26c.02,1.31.06,2.55.13,3.72-.07.11-.27.22-.59.35s-.6.19-.85.19c-.22,0-.33-.11-.33-.32l.06-.41v-.38h-4.19v.68c0,.06-.07.14-.2.23-.13.09-.3.17-.51.23s-.41.09-.62.09c-.12,0-.21-.03-.28-.09-.07-.06-.11-.14-.11-.22.04-.54.08-1.07.1-1.59s.04-1.18.06-1.99v-1.96c0-1.33-.07-2.41-.21-3.24l1.85.78h1.12v-2.18h-3.51c-.75.01-1.54.08-2.37.22l-.4-.81c.58.06,1.28.11,2.1.13h9.19l.49-.63c.07-.08.15-.17.22-.27.07-.09.15-.18.22-.26.07-.08.13-.12.17-.12.06,0,.26.11.58.33s.62.45.9.69.42.39.42.47c-.04.17-.18.25-.43.25h-5.88v2.18h1.14l.35-.43Zm2.39,2.83c0-1.33-.07-2.41-.21-3.24,1.52.34,2.28.58,2.28.73,0,.04-.04.08-.11.13l-.25.16v6.26c.02,1.31.06,2.55.13,3.72-.06.15-.25.3-.57.44-.32.15-.63.22-.93.22-.26,0-.4-.11-.4-.32,0-.02.02-.21.06-.55v-.44h-9.43v.3c.01.12.02.22.02.31,0,.09.01.16.02.2-.02.14-.19.28-.51.43-.32.15-.62.22-.92.22-.15,0-.27-.03-.36-.09-.09-.06-.13-.14-.13-.22.04-.62.08-1.23.11-1.81.03-.59.05-1.35.06-2.3v-4.1c0-1.33-.07-2.41-.21-3.24,1.5.34,2.25.58,2.25.73,0,.04-.04.08-.11.13l-.24.14v8.86h9.43v-6.64Zm-5.58.78v-2.74h-1.2v2.74h1.2Zm0,.44h-1.2v3.02h1.2v-3.02Zm2.99-.44v-2.74h-1.28v2.74h1.28Zm-1.28.44v3.02h1.28v-3.02h-1.28Z"/>
    </g>
    <g>
      <path class="cls-1" d="m29.96,26.66v5.99c-2.36-2.15-6.08-3.08-9.71-3.08s-14.38,2.08-14.38,14.27,9.99,15.92,15.42,15.92c1.21,0,5.71-.55,7.2-1.15v-10.22c0-1.55-.56-3.06-2.15-3.89h7.63s-.26.99-.26,2.7v12.49c0,.5,0,1.42.16,2.03-1.44.32-3.58.72-4.45.94-.88.21-5.43.82-8.56.82S0,62.51,0,44.72s18.17-18.82,21.85-18.82,6.97.71,8.12.77"/>
      <path class="cls-1" d="m93.29,63.5h10.24c-1.17,0-3.27-3.28-3.66-4.31l-12.18-31.46h-7.75c1.01.69,1.35,2.12,1.04,3.18l-11.43,29.18c-.65,1.44-1.52,2.89-3.05,3.41h9.07c-1.61-.35-1.96-2.62-1.49-3.67l3.53-9.72h13.29l3.83,10.16c.74,2.05-.06,2.75-1.44,3.23m-14.31-17.19l5.15-14.27,5.35,14.27h-10.5Z"/>
      <path class="cls-1" d="m208.18,63.44h10.25c-1.17,0-3.26-3.28-3.66-4.33l-12.17-31.45h-7.76c1,.69,1.33,2.13,1.04,3.18l-11.43,29.19c-.65,1.44-1.54,2.88-3.05,3.41h9.07c-1.6-.34-1.96-2.62-1.48-3.67l3.51-9.73h13.31l3.82,10.17c.73,2.05-.04,2.76-1.45,3.23m-14.3-17.18l5.14-14.27,5.37,14.27h-10.51Z"/>
      <path class="cls-1" d="m175.96,59.81c0,1.36,1.23,3.36,2.31,3.63h-10.11c1.09-.26,2.3-2.27,2.3-3.63v-28.66c0-1.35-1.21-3.36-2.3-3.62h10.11c-1.09.26-2.31,2.27-2.31,3.62v28.66Z"/>
      <path class="cls-1" d="m40.14,27.4c1.1.27,2.32,2.27,2.32,3.63v28.66c0,1.35-1.22,3.36-2.32,3.63h9.77c-1.09-.27-2.3-2.27-2.3-3.63v-28.32c2.52-.82,10.24-1.35,10.72,5.08.2,3.59-2.38,7.66-9.09,8.41l7.18,10.64c2.17,3.2,5.09,7.6,9.71,7.93l5.01.07c-3.73-2.24-7.12-5.7-8.55-7.65l-7.58-9.9c3.79-.54,8.53-4.27,8.53-9.55s-3.46-8.76-12.19-8.76l-11.21-.23Z"/>
      <path class="cls-1" d="m133.86,27.51c1.09.26,2.31,2.28,2.31,3.63v24.53l-20.46-26.87-.63-1.22h-7.62c.82.11,1.66,1.46,2.53,2.61.17.55.18,1.09.18,1.52v28.09c0,1.35-1.22,3.36-2.31,3.63h8.25c-1.07-.27-2.28-2.28-2.28-3.63v-24.65l19.39,25.18c2.27,2.97,5.63,4.71,6.58,4.95V31.14c0-1.35,1.23-3.36,2.32-3.63h-8.26Z"/>
      <path class="cls-1" d="m149.66,47.35c0,21.83,23.87,44.7,25.57,46.41,1.69,1.69,3.22.67,1.54-.85-6.29-6.46-21.03-26.79-21.03-45.56s14.74-39.19,21.03-45.63c1.68-1.53.16-2.54-1.54-.84-1.7,1.69-25.57,24.57-25.57,46.47"/>
      <path class="cls-1" d="m223.01,57.49c1.79,0,3.14,1.35,3.14,3.06s-1.36,3.11-3.14,3.11-3.14-1.36-3.14-3.11,1.42-3.06,3.14-3.06m.02,5.62c1.39,0,2.44-1.13,2.44-2.54s-1.05-2.53-2.46-2.53-2.47,1.15-2.47,2.52c0,1.53,1.2,2.56,2.49,2.56m-1.16-.89v-3.18c.31-.06.67-.11,1.11-.11.93,0,1.34.37,1.34.92,0,.4-.28.63-.63.74v.06c.3.09.44.35.52.78.11.48.19.67.26.79h-.66c-.09-.12-.15-.39-.25-.82-.12-.52-.41-.52-1.1-.52v1.34h-.6Zm.6-1.8c.59,0,1.21,0,1.21-.5,0-.28-.21-.51-.75-.51-.22,0-.35.02-.46.03v.97Z"/>
    </g>
    <g>
      <path class="cls-1" d="m7.25,94.53c-1.75,1.79-3.83,3.17-6.24,4.16l-.11-.22c1.52-.9,2.94-2.17,4.25-3.81,1.31-1.64,2.38-3.53,3.22-5.67.84-2.14,1.35-4.37,1.52-6.7v-1.33h-1.66c-.94.01-1.95.12-3.01.3l-.57-1.09c.8.09,1.76.15,2.9.17h1.79l1.07-1.76,2.81,2.13c-.36.46-1.26.77-2.7.91v.76c.32,3.31,1.31,6.09,2.97,8.34,1.66,2.25,4.03,4.03,7.09,5.34l-.09.24c-1.19.17-2,.97-2.44,2.4-.94-.57-1.89-1.37-2.84-2.42-.95-1.05-1.8-2.24-2.55-3.58-.75-1.34-1.29-2.73-1.62-4.17-.78,2.21-2.05,4.2-3.8,5.99Z"/>
      <path class="cls-1" d="m29.54,79.35c.07-.07.17-.19.3-.35.13-.16.24-.24.33-.24s.31.12.66.37c.36.25.69.51.99.78.3.28.46.46.46.57-.06.09-.15.17-.28.25-.13.08-.28.13-.46.16v1.89c.03,1.54.07,2.77.13,3.68-.07.13-.34.28-.8.45-.46.17-.86.25-1.21.25-.3,0-.46-.14-.46-.44l.09-.35v-.41h-3.16v6.56c.03,1.8.09,3.51.17,5.12-.1.25-.36.49-.77.72-.41.23-.87.35-1.38.35-.19,0-.34-.04-.46-.13s-.17-.19-.17-.3c.06-.86.11-1.69.15-2.49s.07-1.86.09-3.17v-9.43c0-1.83-.09-3.32-.28-4.46l2.74,1.22h2.85l.46-.59Zm-.24,3.29v-2.07h-3.16v2.07h3.16Zm-3.16.59v2.13h3.16v-2.13h-3.16Zm8.3,4.77c.06-.07.13-.16.23-.27.09-.11.17-.19.23-.25.06-.06.12-.09.17-.09.09,0,.31.12.66.37.36.25.69.51.99.78.3.28.46.46.46.57-.17.2-.44.33-.78.39v6.25c1.05.09,1.67.13,1.87.13.16,0,.27-.04.33-.12.06-.08.09-.19.09-.34v-9.45h-3.27v.41c0,.07-.1.17-.3.29-.2.12-.46.23-.76.33-.3.09-.6.14-.89.14-.15,0-.25-.04-.33-.13-.07-.09-.11-.19-.11-.3.06-.61.1-1.37.13-2.29v-1.37c0-1.67-.09-3.07-.26-4.2l2.61,1.09h2.96l.5-.68c.07-.09.15-.18.23-.28.08-.1.16-.19.24-.27.08-.08.15-.12.21-.12.09,0,.32.14.71.42.38.28.75.58,1.09.89.34.31.51.52.51.62-.2.23-.49.38-.87.44v14.75c0,.65-.07,1.17-.21,1.56-.14.38-.42.7-.85.95-.43.25-1.07.41-1.93.48-.04-.87-.17-1.47-.39-1.81-.16-.2-.36-.37-.6-.5-.24-.13-.58-.24-1.01-.33v-.07c-.2.12-.45.22-.75.3-.3.09-.56.13-.79.13h-.39v-1.26h-3.62v.83c0,.07-.1.17-.29.28-.2.12-.44.22-.73.3-.29.09-.58.13-.87.13-.15,0-.26-.04-.34-.13-.08-.09-.12-.19-.12-.3.06-.67.11-1.58.15-2.72v-1.59c0-1.83-.09-3.32-.28-4.46l2.57,1.09h3.33l.48-.59Zm-.28,3.51v-2.33h-3.62v2.33h3.62Zm-3.62.63v2.42h3.62v-2.42h-3.62Zm8.15-9.5v-2.07h-3.27v2.07h3.27Zm-3.27.59v2.13h3.27v-2.13h-3.27Z"/>
      <path class="cls-1" d="m59.47,84.75c.07-.09.15-.18.23-.28.08-.1.16-.19.24-.27.08-.08.15-.12.21-.12.09,0,.33.14.73.42.4.28.77.58,1.12.88s.52.51.52.61c-.2.23-.48.38-.83.46v6.66c0,.61-.08,1.1-.23,1.48-.15.38-.45.69-.9.93-.45.24-1.12.4-2,.47-.04-.45-.09-.81-.15-1.08-.06-.27-.15-.5-.28-.69-.19-.2-.4-.37-.64-.5-.24-.13-.58-.23-1.01-.3v-.28c1.21.07,1.96.11,2.27.11.17,0,.29-.03.36-.1s.1-.17.1-.32v-6.82h-3.66v6.36c.03,1.8.09,3.51.17,5.12-.09.2-.37.41-.86.63-.49.22-.95.33-1.4.33-.23,0-.41-.04-.54-.13-.13-.09-.2-.19-.2-.3.06-.86.11-1.69.15-2.49.04-.81.07-1.86.09-3.17v-6.34h-3.66v3.9c.03,1.8.09,3.51.17,5.12-.1.2-.38.41-.84.63-.46.22-.93.33-1.43.33-.17,0-.31-.04-.41-.13-.1-.09-.15-.19-.15-.3.1-1.35.17-2.83.2-4.44v-2.46c0-1.83-.09-3.32-.28-4.46l2.92,1.22h3.48v-3.07h-4.81c-1.03.01-2.12.12-3.27.3l-.54-1.11c.8.09,1.76.15,2.9.17h5.73c0-1.45-.07-2.64-.22-3.55,1.26.25,2.13.45,2.61.6.48.15.72.28.72.38,0,.06-.05.12-.15.2l-.37.26v2.11h4.42l.68-.96c.09-.1.2-.24.33-.42.13-.18.24-.32.32-.4.08-.09.15-.13.21-.13.09,0,.34.16.77.49.43.33.83.67,1.22,1.02.38.36.58.58.58.69-.06.23-.26.35-.61.35h-7.71l.46.04c-.03.16-.09.28-.17.37-.09.09-.25.15-.48.2v2.46h3.44l.5-.65Z"/>
      <path class="cls-1" d="m80.59,83.33c.06-.07.14-.17.25-.29.11-.12.2-.22.26-.28.07-.07.13-.1.19-.1.09,0,.33.14.73.42.4.28.77.58,1.12.88.35.3.52.51.52.61-.15.22-.41.37-.81.46v2c.04,1.68.09,2.97.15,3.86-.09.16-.39.35-.91.56-.52.21-.99.32-1.39.32h-.44v-1.05h-2.68c.89,1.12,2.09,2.09,3.6,2.91,1.52.82,3.09,1.42,4.72,1.8l-.04.24c-.48.12-.89.38-1.24.79s-.6.93-.74,1.56c-3.11-1.44-5.33-3.82-6.66-7.14v2.35c.04,1.97.09,3.51.15,4.6-.09.19-.36.38-.81.58-.45.2-.9.29-1.35.29s-.68-.15-.68-.44c.06-.77.11-1.81.15-3.11v-1.79c-2.11,2.05-4.89,3.64-8.34,4.79l-.15-.28c1.54-.84,2.95-1.9,4.25-3.17,1.29-1.27,2.32-2.6,3.09-3.97h-1.87v.54c0,.09-.11.2-.34.33-.23.13-.5.25-.83.35-.33.1-.65.15-.97.15-.17,0-.3-.04-.39-.13-.09-.09-.13-.19-.13-.3.07-.68.12-1.6.15-2.77v-1.61c0-1.83-.09-3.32-.28-4.46l2.96,1.18h2.85v-2.07h-4.36c-1.03.01-2.12.12-3.27.3l-.57-1.09c.8.09,1.76.15,2.9.17h5.29c0-1.23-.07-2.29-.2-3.16,1.25.28,2.11.49,2.57.65.46.16.7.3.7.41,0,.06-.06.12-.17.2l-.37.24v1.66h4.09l.68-.98c.09-.12.2-.27.33-.46.13-.19.24-.33.32-.41.08-.09.15-.13.21-.13.09,0,.34.17.77.5.43.33.83.68,1.22,1.05.38.36.58.6.58.7-.06.23-.26.35-.61.35h-7.58v2.07h2.83l.54-.65Zm-5.9,3.7v-2.44h-3.03v2.44h3.03Zm0,.63h-3.03v2.44h3.03v-2.44Zm5.58-.63v-2.44h-3.05v2.44h3.05Zm-3.05.63v2.44h3.05v-2.44h-3.05Z"/>
      <path class="cls-1" d="m95.95,80.37c.49-.58.84-1.05,1.05-1.42l1.87,1.68h5.27l.63-.98.26-.37c.28-.41.46-.61.54-.61s.33.17.74.5c.41.33.79.68,1.14,1.03.36.36.53.58.53.69-.06.23-.25.35-.59.35h-2.64v14.2c0,.64-.08,1.17-.24,1.6-.16.43-.48.78-.96,1.06-.48.28-1.17.45-2.07.52-.04-.89-.22-1.5-.52-1.83-.22-.22-.48-.4-.77-.53-.3-.14-.72-.24-1.27-.32v-.3c1.61.1,2.58.15,2.92.15.19,0,.32-.04.38-.11.07-.07.1-.19.1-.35v-14.09h-3.48l-.02-.04c-.16.09-.33.15-.5.17v8.3c.03,1.8.09,3.51.17,5.12-.12.16-.39.33-.83.52-.44.19-.83.28-1.18.28-.29,0-.44-.15-.44-.44l.09-.57v-.52h-5.05v.5c.01.19.03.36.03.51s.02.27.03.34c-.03.22-.24.43-.63.64-.39.21-.81.32-1.26.32-.17,0-.32-.04-.42-.13-.11-.09-.16-.19-.16-.3.06-.86.11-1.69.15-2.49s.07-1.86.09-3.17v-6.6c0-1.83-.09-3.32-.28-4.46l2.59,1.15h4.73Zm-3.4,6.49v-5.88h-1.46v5.88h1.46Zm0,.61h-1.46v6.01h1.46v-6.01Zm3.59-.61v-5.88h-1.57v5.88h1.57Zm-1.57.61v6.01h1.57v-6.01h-1.57Z"/>
    </g>
  </g>
</svg>