<?xml version="1.0" encoding="utf-8"?>
<!-- Generator: Adobe Illustrator 27.6.1, SVG Export Plug-In . SVG Version: 6.00 Build 0)  -->
<svg version="1.1" id="_レイヤー_2" xmlns="http://www.w3.org/2000/svg" xmlns:xlink="http://www.w3.org/1999/xlink" x="0px"
	 y="0px" viewBox="0 0 196 82.6" style="enable-background:new 0 0 196 82.6;" xml:space="preserve">
<style type="text/css">
	.st0{fill:#1E2973;}
	.st1{fill:#DC0012;}
</style>
<g>
	<g>
		<g id="XMLID_00000085954417153184747900000011148059314851443898_">
			<path id="XMLID_00000111167902432774679140000003754055880629577650_" class="st0" d="M24.3,40.5c0,0,2.7,0,3.9,0
				c1.3,0,2.9,0.2,2.9,1.7c0,1.5,0,13.7,0,13.7s-4.4,1.6-12.4,1.6c-8,0-18.7-4.4-18.7-16.6C0.1,28.7,11.2,24,19.5,24
				c3.7,0,8.4,0.2,8.4,2.3v4.1c-3.1-2.6-4.4-3-9.2-3c-4.8,0-13.3,3.1-13.3,13.3c0,10.1,11.5,16.2,21,12.4c0,0,0-6.2,0-7.8
				C26.3,43.6,26.2,40.5,24.3,40.5z"/>
			<path id="XMLID_00000016780580138320741530000007129448824983314826_" class="st0" d="M84.2,56.7h10.1c-2.8-1-3.9-4.4-4.9-6.8
				c-0.9-2.4-8.2-20.2-9-22.6c-0.8-2.4-2-2.4-2.9-2.4c-0.9,0-5.8,0-5.8,0c2.8,0.9,1.2,2.9,0.8,4.3C72,30.5,62.2,54.6,62.2,54.6
				c-3.4-0.9-11.9-13.4-11.9-13.4c11.3-3.2,9.5-16.5-1.5-16.5c-1.3,0-12.7,0-12.7,0c2.6,0.6,2.3,3.3,2.3,5.3c0,2.1,0,18.9,0,21.9
				c0,3-0.9,3.8-2.4,4.6h9.3c-2.5-1.2-1.9-3.8-1.9-5.1c0-1.3,0-23.7,0-23.7s2.3,0,5,0c2.7,0,4.6,3.3,4.6,5.5c0,3.6-2.8,5-5.6,6
				c-2.8,1-1.3,3.4,0,5.2c1.3,1.9,5,7.1,7.2,9.7c2.2,2.6,4.2,2.4,5.2,2.4c1,0,8.4,0,8.4,0c-3.2-1-1.5-3.6-1-4.9
				c0.5-1.3,2.6-6.7,2.6-6.7h12.5c0,0,1.5,3.9,2.9,7.4C86.7,56,85.7,56.5,84.2,56.7z M71.2,41.4L75.9,29L81,41.4H71.2z"/>
			<path id="XMLID_00000110437963473506325430000012911184509071716230_" class="st0" d="M185.9,56.7H196c-2.8-1-4-4.4-4.9-6.8
				c-0.9-2.4-8.3-20.2-9.1-22.6c-0.8-2.4-2-2.4-2.9-2.4c-0.9,0-5.8,0-5.8,0c2.8,0.9,1.3,2.9,0.8,4.3c-0.5,1.4-10.2,25.6-10.2,25.6
				c-0.6,1.5-1.6,1.5-2.2,2.1c1.1,0,8.4,0,8.4,0c-3.3-1-1.5-3.6-1-4.9c0.5-1.3,2.6-6.7,2.6-6.7h12.5c0,0,1.5,3.9,2.9,7.4
				C188.5,56,187.4,56.5,185.9,56.7z M172.9,41.4l4.8-12.4l5.1,12.4H172.9z"/>
			<path id="XMLID_00000019661567836519341020000016615297384047574455_" class="st0" d="M150.2,57.3c1.2-1,2.2-1.9,2.2-5.6
				c0-3.7,0-20.2,0-22c0-1.7-0.1-3.7-2.2-4.4h8.9c-0.9,0.8-2,1.9-2,4.2c0,2.3,0,20.2,0,22.2c0,2-0.4,4.9,2.2,5.6H150.2z"/>
			<path id="XMLID_00000168110187925075203610000004167272830292421557_" class="st0" d="M102,32.2c0,0-0.1,17.5-0.1,19.5
				c0,2,0.2,4.9,2.8,5.6h-8.5c1.2-1,2.1-1.9,2.1-5.6c0-3.7,0.2-20.2,0.2-22c0-1.7-0.2-3.7-2.3-4.4h6.5l19.5,24.5c0,0,0-18.7,0-20
				c0-1.3,0.2-3.7-2.4-4.6h8.7c-1,0.8-2.6,1.2-2.6,4.5c0,3.4,0,28.8,0,28.8s-2.4,0.4-6.4-4.3C115.6,49.5,102,32.2,102,32.2z"/>
			<g>
				<g>
					<path d="M8.6,77.8H5.9v0.7c0.8,0.1,1.9,0.5,1.9,1.3c0,0.4-0.3,0.5-0.4,0.5c-0.3,0-0.3-0.1-0.6-0.6c-0.1-0.2-0.5-0.8-0.9-1
						c0,0.4,0.1,2.8,0.1,3.1c0,0.3,0,0.4-0.1,0.5c-0.1,0.1-0.3,0.2-0.4,0.2c-0.3,0-0.3-0.2-0.3-0.3c0-0.1,0.1-0.9,0.1-1
						c0-0.6,0.1-1.7,0.1-2.6c-0.6,1-2.1,2.5-3.1,2.8l0-0.1c1.3-1.2,2.2-2.5,2.7-3.4H4.7c-0.4,0-1.2,0.1-1.7,0.2l-0.3-0.6
						c0.7,0.1,1.5,0.1,2.2,0.1h0.4c-0.1-1.3-0.1-1.4-0.1-1.8l1,0.3c0.1,0,0.2,0.1,0.2,0.2c0,0.1-0.2,0.2-0.4,0.3
						c0,0.3-0.1,0.5-0.1,1h1.5l0.3-0.4C7.9,77,7.9,76.9,8,76.9c0.1,0,0.2,0.1,0.3,0.1l0.5,0.4c0.1,0.1,0.1,0.1,0.1,0.2
						C8.8,77.8,8.7,77.8,8.6,77.8z M8.9,75.6H4.5c-0.4,0-1.2,0-1.7,0.1l-0.3-0.6c0.7,0.1,1.5,0.1,2.2,0.1h1.4
						c0.2-0.5,0.5-1.2,0.5-1.4c0.2-0.5,0.2-0.8,0.2-1.3l1.1,0.6C8,73.2,8,73.3,8,73.3c0,0.2-0.3,0.2-0.5,0.2
						c-0.4,0.6-0.9,1.1-1.3,1.7h1.5L8,74.8c0-0.1,0.1-0.2,0.2-0.2c0.1,0,0.2,0.1,0.2,0.1l0.5,0.4c0.1,0.1,0.1,0.1,0.1,0.2
						C9.1,75.5,9,75.6,8.9,75.6z M8.6,72.3H5c-0.4,0-1.2,0-1.7,0.1l-0.3-0.6C3.7,72,4.4,72,5.1,72h0.3c0-0.3,0-1-0.2-1.8l1.2,0.3
						c0.1,0,0.2,0.1,0.2,0.2c0,0.1-0.3,0.3-0.4,0.5c0,0.1,0,0.6-0.1,0.8h1.3l0.4-0.4C7.9,71.5,8,71.4,8,71.4c0.1,0,0.2,0.1,0.2,0.1
						L8.7,72c0.1,0.1,0.1,0.1,0.1,0.2C8.8,72.3,8.7,72.3,8.6,72.3z M4.9,74.8c-0.4,0-0.4-0.3-0.5-0.9c-0.1-0.6-0.2-0.8-0.5-1.2
						L4,72.7c0.7,0.4,1.3,0.8,1.3,1.6C5.3,74.4,5.3,74.8,4.9,74.8z M14.6,75h-2.2c0,0.1,0.1,3.6,0.1,4c0,0.1,0.1,2.7,0.1,2.8
						c0,0.5-0.5,0.6-0.6,0.6c-0.3,0-0.3-0.2-0.3-0.3c0-0.2,0.1-1.4,0.1-1.6c0.1-2,0.1-3.6,0.1-3.9c0-0.5,0-1.1,0-1.6h-1.6
						c0,3.6-0.7,5.9-2.9,7.1l-0.1-0.1c1.7-1.7,2.3-3.1,2.3-7.7c0-1.1,0-2.2-0.1-2.6c0-0.3-0.1-0.6-0.1-0.8l1.1,0.5
						c0.5-0.1,1.1-0.3,1.6-0.6c0.4-0.2,0.8-0.5,1-0.7l0.9,0.8c0.1,0.1,0.1,0.1,0.1,0.1c0,0.1-0.1,0.1-0.2,0.1c-0.1,0-0.1,0-0.5-0.1
						c-0.6,0.2-2.2,0.4-3,0.5c-0.1,0.8,0,2.2,0,3h3.2l0.3-0.5c0-0.1,0.1-0.2,0.2-0.2c0.1,0,0.1,0,0.3,0.2l0.5,0.5
						c0,0,0.1,0.1,0.1,0.2C14.8,75,14.7,75,14.6,75z"/>
					<path d="M29,72.2h-9.7v0.3v2.6c0,4.1-1,5.4-1.9,6.6l-0.1-0.1c1.3-2.2,1.3-4.2,1.3-7.7c0-0.8,0-1.9-0.2-2.5l1,0.4h3.7
						c0-1.1-0.1-1.3-0.2-1.6l1.1,0.2c0.1,0,0.2,0.1,0.2,0.2c0,0.2-0.3,0.3-0.4,0.4v0.8h3.5l0.5-0.7C28,71.1,28,71,28.1,71
						c0.1,0,0.1,0,0.2,0.1l0.8,0.7c0,0,0.1,0.1,0.1,0.2C29.2,72.2,29.1,72.2,29,72.2z M29.4,81.9h-8.6c-0.5,0-1.2,0.1-1.7,0.2
						l-0.3-0.6c1,0.1,2,0.1,2.2,0.1h2.6V79h-1c-0.5,0-1.2,0.1-1.7,0.1l-0.3-0.6c1,0.1,2,0.1,2.2,0.1h0.8c0-1.3,0-2.4-0.1-4.4
						c0-0.6,0-0.8-0.2-1.3l1,0.3c0.3,0.1,0.3,0.1,0.3,0.2c0,0.1-0.2,0.3-0.4,0.4V74v3.8c0,0.1,0,0.7,0,0.8h2.2l0.3-0.5
						c0-0.1,0.1-0.2,0.2-0.2c0.1,0,0.1,0,0.2,0.1l0.7,0.5c0,0,0.1,0.1,0.1,0.2c0,0.1-0.1,0.1-0.2,0.1h-3.6c0,0.3,0,2.2,0,2.6h3.6
						l0.4-0.6c0-0.1,0.1-0.2,0.2-0.2c0.1,0,0.2,0.1,0.2,0.1l0.8,0.7c0.1,0.1,0.1,0.1,0.1,0.2C29.6,81.9,29.5,81.9,29.4,81.9z
						 M22.5,77.9c-0.2,0-0.4-0.1-0.6-0.6c-0.3-0.6-0.4-0.9-0.7-1.2c-0.4,0.6-0.8,1.2-1.6,2.1l-0.1-0.1c0.8-1.3,1.8-3.7,1.8-4.3
						c0-0.1,0-0.2,0-0.3l1,0.5c0.1,0.1,0.2,0.1,0.2,0.2c0,0.2-0.1,0.2-0.5,0.2c-0.2,0.4-0.4,0.9-0.7,1.5c0.7,0.3,1.6,0.8,1.6,1.5
						C22.9,77.5,22.8,77.9,22.5,77.9z M28.6,77.9c-0.2,0-0.3-0.1-0.7-0.7c-0.2-0.3-0.6-1-1.2-1.3c-0.5,0.8-1,1.5-1.7,2.2L24.9,78
						c0.5-0.7,1.1-1.6,1.7-3.2c0.3-0.8,0.3-1.1,0.3-1.5l1.1,0.6c0.1,0.1,0.2,0.1,0.2,0.2c0,0.2-0.2,0.2-0.6,0.3
						c-0.1,0.3-0.2,0.6-0.7,1.4c0.2,0,0.6,0.2,1,0.4c1,0.5,1.2,0.8,1.2,1.2C29,77.5,28.9,77.9,28.6,77.9z"/>
					<path d="M44.6,72.8h-6.4l1.1,0.3c0.1,0,0.2,0.1,0.2,0.2c0,0.1-0.2,0.3-0.4,0.4c0,0.5-0.1,0.8-0.1,1.4h2.9l0.3-0.3
						c0,0,0.1-0.1,0.2-0.1c0.1,0,0.2,0.1,0.2,0.1l0.3,0.3c0.2,0.2,0.2,0.2,0.2,0.3c0,0.1-0.2,0.3-0.3,0.4c0,0.4,0.1,3.7,0.1,4.4
						c0,0.4,0,0.6-0.4,0.9c-0.4,0.3-0.7,0.4-0.9,0.4c-0.1-0.3-0.3-0.7-1.1-1v-0.1c0.2,0,0.4,0.1,0.8,0.1c0.8,0,0.8-0.1,0.8-0.3
						c0-0.5,0-1.9,0-3v-1.6H39c0,1.5,0,2.1,0.1,4.7c0,0.3,0.1,1.6,0.1,1.8c0,0.5-0.5,0.6-0.6,0.6c-0.3,0-0.3-0.2-0.3-0.5
						c0,0,0.1-2.4,0.1-2.9c0-1.1,0-2.5,0-3.7h-3v0.2l0,2.6l0.1,2.4c0,0.3,0,0.7-0.6,0.7c-0.3,0-0.3-0.2-0.3-0.3c0-0.1,0-0.7,0-0.8
						c0-1.1,0.1-2.3,0.1-3.4c0-1.4,0-1.7-0.2-2.3l1.1,0.5h2.7c0-1.6,0-1.7-0.1-2.3h-3.6c-0.5,0-1.2,0.1-1.7,0.1l-0.3-0.6
						c1,0.1,2,0.1,2.2,0.1h3.5c0-1.5-0.1-1.9-0.3-2.3l1.3,0.3c0.1,0,0.3,0.1,0.3,0.2c0,0.1-0.2,0.3-0.5,0.4c0,0.7,0,1,0,1.4H43
						l0.5-0.6c0.1-0.1,0.1-0.2,0.2-0.2s0.2,0.1,0.2,0.1l0.7,0.6c0.1,0.1,0.1,0.1,0.1,0.2C44.8,72.8,44.7,72.8,44.6,72.8z"/>
					<path d="M59.7,71.7h-4.6V74h2.4l0.4-0.4c0,0,0.1-0.1,0.1-0.1c0,0,0.1,0,0.2,0.1l0.6,0.4c0,0,0.1,0.1,0.1,0.2
						c0,0.1,0,0.1-0.1,0.1c-0.1,0.1-0.3,0.2-0.4,0.3c0,0.5,0,0.9,0,1.7c0,1.5,0.1,3.3,0.1,4.8c0,0.1,0,0.3,0,0.4
						c0,0.5-0.5,0.5-0.6,0.5c-0.3,0-0.3-0.2-0.3-0.3v-0.3h-7.8c0,0.1,0,0.4,0,0.5c-0.1,0.2-0.3,0.3-0.6,0.3C49,82.3,49,82.1,49,82
						c0,0,0.1-1,0.1-1.2c0-0.8,0-3.3,0-4c0-2.1,0-2.6-0.2-3.4L50,74H52v-2.3h-2.2c-0.3,0-1.1,0-1.7,0.2l-0.3-0.6
						c0.7,0.1,1.5,0.1,2.2,0.1h8.2l0.5-0.6c0.1-0.1,0.2-0.2,0.2-0.2c0.1,0,0.2,0.1,0.3,0.1l0.8,0.6c0.1,0.1,0.1,0.1,0.1,0.2
						C59.9,71.7,59.7,71.7,59.7,71.7z M57.6,74.3h-2.5v3.4c0,0.3,0,0.3,0,0.3c0.1,0.1,0.5,0.2,0.6,0.2c0.5,0,0.6,0,0.8-0.3
						c0.1-0.3,0.2-0.8,0.3-1.1h0.1c0.2,0.9,0.2,1,0.4,1.2c0.1,0.2,0.2,0.3,0.2,0.3c0,0.1-0.2,0.3-0.3,0.4c-0.4,0.2-1,0.2-1.2,0.2
						c-1.4,0-1.6-0.2-1.6-0.7v-3.9h-1.6c-0.1,2.5-0.7,3.9-2.4,5.1l-0.1-0.1c1.2-1.2,1.8-2.5,1.8-5h-2.1v6.8h7.8V74.3z M54.3,71.7
						h-1.6V74h1.6V71.7z"/>
					<path d="M66.7,74.1h-1.7V78c0.3-0.1,1.5-0.5,1.8-0.6l0.1,0.1c-0.8,0.5-1.8,1-3.3,1.7c-0.1,0.3-0.2,0.5-0.3,0.5
						c-0.1,0-0.1-0.1-0.2-0.3l-0.5-1c0.2,0,0.3,0,0.4,0c0.4,0,1-0.1,1.4-0.3v-3.3v-0.8c-0.4,0-0.8,0.1-1.2,0.1l-0.3-0.6
						c0.6,0.1,0.7,0.1,1.5,0.1c0-1.3,0-1.8,0-1.9c0-0.6,0-0.6-0.2-1.5l1.1,0.3c0.2,0.1,0.3,0.1,0.3,0.2c0,0.1-0.1,0.1-0.1,0.2
						c-0.1,0-0.3,0.2-0.3,0.2c0,0.4,0,0.6,0,2.4h0.6l0.3-0.3c0.1-0.2,0.2-0.2,0.2-0.2s0.3,0.1,0.3,0.2l0.4,0.3
						c0.1,0,0.2,0.1,0.2,0.2C66.9,74,66.8,74.1,66.7,74.1z M73.4,71.9c0,0.3,0.1,1.5,0.1,1.7c0,0.5-0.5,0.6-0.6,0.6
						c-0.2,0-0.2-0.1-0.2-0.2v-0.1h-4.9c-0.1,2.5-0.1,2.8-0.2,3.4c-0.1,0.8-0.6,3-2.7,4.5c-0.6,0.4-1.1,0.6-1.4,0.7l-0.1-0.1
						c3.4-2.4,3.6-4.5,3.6-8.8c0-1.9-0.1-2.3-0.2-2.8l1.2,0.4h4.5l0.3-0.3c0.1-0.1,0.2-0.1,0.2-0.1c0.1,0,0.1,0,0.2,0.1l0.4,0.4
						c0.1,0.1,0.2,0.1,0.2,0.2S73.8,71.6,73.4,71.9z M72.7,71.5h-4.9v1.9h4.9V71.5z M74,79.4v0.2c0,0.3,0,0.8,0,1c0,0.3,0,0.7,0,1.1
						c0,0.2,0,0.7-0.5,0.7c-0.2,0-0.2-0.1-0.2-0.8h-4.5c0,0.1,0,0.3,0,0.5c0,0.2-0.1,0.4-0.5,0.4c-0.2,0-0.3-0.1-0.3-0.3
						c0-0.1,0-0.3,0-0.3c0-0.5,0-1,0-1.8c0-0.7,0-0.8-0.1-1.3c0-0.1,0-0.2,0-0.2l0.9,0.3c0.1,0,0.2,0.1,0.2,0.2
						c0,0.1-0.2,0.3-0.3,0.3c0,0.4,0,1.3,0,2h1.9v-3.8h-1.5c0,0.1,0,0.6-0.6,0.6c-0.2,0-0.2-0.1-0.2-0.3c0-0.1,0-0.4,0-0.5
						c0-0.4,0-0.8,0-1.8c0-0.4,0-0.8,0-1l0.9,0.3c0.2,0.1,0.2,0.1,0.2,0.1c0,0.1-0.2,0.3-0.4,0.4c0,0.7,0,1.8,0,1.8h1.5
						c0-2,0-2.3-0.2-2.9l1,0.4c0.2,0.1,0.2,0.1,0.2,0.1c0,0.1-0.1,0.1-0.1,0.2c0,0-0.2,0.2-0.3,0.2v2h1.5c0-1.8,0-1.9-0.1-2.5
						l0.9,0.3c0.2,0.1,0.2,0.1,0.2,0.2c0,0.1-0.2,0.2-0.4,0.3v2.1c0,0.3-0.5,0.3-0.5,0.3c-0.2,0-0.2-0.1-0.2-0.4h-1.5v3.8h1.9
						c0-0.9,0-1.3,0-1.9c0-0.4-0.1-0.6-0.1-0.8l1,0.3c0.1,0,0.2,0.1,0.2,0.2S74.3,79.2,74,79.4z"/>
					<path d="M78.5,81.5v-0.4H79c0.9,0,1.3-0.4,1.3-1.3v-6c0-0.9-0.3-1.3-1.3-1.3h-0.5v-0.4h0.2c0.8,0,1.8-0.4,2.1-0.5
						c0.1-0.1,0.2-0.1,0.3-0.1c0.1,0,0.1,0.1,0.1,0.1v8.2c0,0.8,0.3,1.3,1.2,1.3H83v0.4H78.5z"/>
					<path d="M98.3,71.9h-5.3c0,0.2,0,4,0,4.1v3.4c0,2,0,2.1-0.4,2.4c-0.2,0.1-0.5,0.4-1.2,0.5c0-0.4-0.1-0.6-1.7-1.4l0-0.1
						c0.2,0,1.4,0.1,1.8,0.1c0.7,0,0.7-0.2,0.7-1.1v-7.9h-3.7c-0.4,0-1.2,0.1-1.7,0.2l-0.3-0.6c0.7,0.1,1.5,0.1,2.2,0.1h7.8l0.6-0.7
						c0.1-0.1,0.2-0.2,0.2-0.2s0.2,0.1,0.2,0.1l0.9,0.7c0.1,0.1,0.1,0.1,0.1,0.2C98.5,71.9,98.4,71.9,98.3,71.9z"/>
					<path d="M109.5,72.1c0,0.2,0,0.6,0,1.5c0,2.1,0.1,4.2,0.1,6.3c0,0.2,0,1.3,0,1.4c0,0.5-0.4,0.6-0.7,0.6c-0.3,0-0.3-0.2-0.2-0.5
						h-5.3c0,0.3,0,0.3,0,0.4c-0.1,0.2-0.4,0.3-0.6,0.3c-0.3,0-0.3-0.2-0.3-0.3c0-0.2,0.1-1.3,0.1-1.5c0.1-1.7,0.1-3.4,0.1-5.1
						c0-1.4,0-3.1-0.2-4.3l1.3,0.5h4.7l0.3-0.3c0.1-0.1,0.1-0.1,0.3-0.1c0.1,0,0.2,0.1,0.2,0.1l0.6,0.4c0.2,0.1,0.2,0.2,0.2,0.2
						C110,71.7,110,71.8,109.5,72.1z M108.7,71.7h-5.3v2.9h5.3V71.7z M108.7,74.9h-5.3v2.9h5.3V74.9z M108.7,78.1h-5.3v3h5.3V78.1z"
						/>
					<path d="M114.2,81.5v-0.4h0.5c0.9,0,1.3-0.4,1.3-1.3v-6c0-0.9-0.3-1.3-1.3-1.3h-0.5v-0.4h0.2c0.8,0,1.8-0.4,2.1-0.5
						c0.1-0.1,0.2-0.1,0.3-0.1c0.1,0,0.1,0.1,0.1,0.1v8.2c0,0.8,0.3,1.3,1.2,1.3h0.6v0.4H114.2z"/>
					<path d="M124.5,79.9c-1.5,1.7-2.2,2.2-2.8,2.6l0-0.1c0.8-0.8,1.5-1.9,1.9-2.9c0.1-0.3,0.1-0.4,0.1-0.7l1.2,0.7
						c0.1,0,0.1,0.1,0.1,0.1C125,79.9,124.9,79.9,124.5,79.9z M128.7,72.7H127c0,0.8,0.1,4.5,0,5.4h0.6l0.3-0.3
						c0.1-0.1,0.2-0.2,0.2-0.2c0.1,0,0.1,0,0.2,0.1l0.3,0.3c0.1,0.1,0.1,0.1,0.1,0.2c0,0.1-0.1,0.1-0.2,0.1h-4.7
						c-0.3,0-1.1,0-1.7,0.1l-0.3-0.6c0.6,0.1,0.7,0.1,1.7,0.1c0-3,0-3.3,0-5.3c-0.7,0.1-0.8,0.1-1,0.1l-0.3-0.6
						c0.6,0.1,1.3,0.1,1.3,0.1c0-0.3,0-0.4,0-0.9c0-0.6-0.1-1-0.2-1.2l1.2,0.3c0.1,0,0.1,0.1,0.1,0.2c0,0.1-0.1,0.2-0.4,0.3
						c0,0.6,0,0.7,0,1.3h0.2h1.9c0-0.4,0-1.3-0.1-1.6c0-0.1-0.1-0.5-0.2-0.6l1.2,0.3c0.1,0,0.2,0.1,0.2,0.2c0,0.2-0.1,0.3-0.4,0.4
						c0,0.4,0,0.6,0,1.3h0.7l0.3-0.3c0.1-0.1,0.1-0.2,0.2-0.2c0.1,0,0.1,0,0.2,0.1l0.4,0.3c0.1,0,0.1,0.1,0.1,0.2
						C128.9,72.7,128.8,72.7,128.7,72.7z M124.2,76.4V77c0,0.5,0,0.6,0,1.1h2.1c0-0.2,0-1.4,0-1.7H124.2z M126.3,74.4h-2.1
						c0,0.8,0,0.8,0,1.6h2.1V74.4z M126.3,72.7h-2.1c0,0.3,0,0.4,0,1.4h2.1V72.7z M127.3,81.1c-0.3,0-0.4-0.2-0.6-0.5
						c-0.6-1.1-0.9-1.3-1.1-1.5V79c1,0.3,2.1,0.7,2.1,1.5C127.7,80.8,127.6,81.1,127.3,81.1z M133.1,71.6c0,5.1,0,5.7,0,9.1v0
						c0,0.7-0.1,1.3-1.4,1.6c-0.3-0.7-0.6-0.8-1.4-1.2v-0.1c0.4,0,1,0.1,1.3,0.1c0.6,0,0.9,0,0.9-0.5V77H130c-0.1,1.6-0.2,3.9-3,5.5
						l0-0.1c0.4-0.4,1.1-1.1,1.6-2.1c0.5-1,0.8-1.9,0.8-6.5c0-1.2,0-2.5-0.2-3.5l1.1,0.5h2.1l0.2-0.3c0.1-0.1,0.1-0.1,0.2-0.1
						c0,0,0.1,0,0.2,0.1l0.6,0.5c0.1,0.1,0.1,0.1,0.1,0.2C133.7,71.3,133.6,71.3,133.1,71.6z M132.5,74.1h-2.4
						c0,0.2-0.1,2.2-0.1,2.6h2.5V74.1z M132.5,71.2h-2.4v2.6h2.4V71.2z"/>
				</g>
			</g>
			<path id="XMLID_00000076587714277920020600000011804990709267752615_" class="st1" d="M157.5,82c-25.5-21.5-35.3-46.9-0.4-81.5
				c1.1-1.1,2.1-0.4,1.3,0.5C143.1,18.6,126,46.6,158.1,81C158.6,81.5,158.4,82.6,157.5,82z"/>
		</g>
	</g>
</g>
</svg>
