<?xml version="1.0" encoding="UTF-8"?>
<svg id="_レイヤー_2" data-name="レイヤー 2" xmlns="http://www.w3.org/2000/svg" xmlns:xlink="http://www.w3.org/1999/xlink" viewBox="0 0 709.33 266.15">
  <defs>
    <style>
      .cls-1 {
        stroke: #000;
        stroke-miterlimit: 10;
        stroke-width: .51px;
      }

      .cls-1, .cls-2 {
        fill: none;
      }

      .cls-3 {
        fill: #e76e19;
      }

      .cls-4 {
        clip-path: url(#clippath);
      }
    </style>
    <clipPath id="clippath">
      <rect class="cls-2" width="709.33" height="266.15"/>
    </clipPath>
  </defs>
  <g id="_レイヤー_2-2" data-name="レイヤー 2">
    <g class="cls-4">
      <g>
        <path class="cls-3" d="m544.46,19.16c4.04-1.04,6.31-3.23,6.81-6.56h-9.5v-1.38h9.56l.56-.19,1.12.69c.25.21.21.4-.12.56-.67,4.17-3.1,6.88-7.31,8.12l-1.12-1.25Zm7.06-10.12h-8.62v-1.38h8.62v1.38Z"/>
        <path class="cls-3" d="m559.7,20.28l-1.12-1.19c4.08-1.67,6.54-4.54,7.38-8.62h-5c-.96,1.58-1.96,2.85-3,3.81l-1.25-.81c2.17-1.96,3.56-4.25,4.19-6.88l1.44.5c.25.12.21.25-.12.38-.17.54-.4,1.08-.69,1.62h4.5l.56-.31,1.12,1.12c.29.29.23.5-.19.62-.79,4.54-3.4,7.79-7.81,9.75Z"/>
        <path class="cls-3" d="m574.72,11.78c-.92.12-1.81.23-2.69.31l-.12-1.38c.75,0,1.79-.06,3.12-.19.38-1.29.69-2.6.94-3.94l1.31.44c.5.21.48.4-.06.56-.25.88-.5,1.81-.75,2.81.5-.08,1.02-.12,1.56-.12.58,0,1.02.15,1.31.44.5.5.75,1.62.75,3.38,0,2.42-.35,3.98-1.06,4.69-.42.42-.9.62-1.44.62-.79,0-1.58-.46-2.38-1.38l.81-1.12c.67.67,1.17,1,1.5,1,.21,0,.4-.08.56-.25.46-.46.69-1.73.69-3.81,0-1.17-.12-1.88-.38-2.12-.12-.12-.38-.19-.75-.19s-.9.04-1.56.12c-.88,3.08-1.92,5.73-3.12,7.94l-1.44-.5c1.21-1.88,2.27-4.31,3.19-7.31Zm6.12-1.88l1.12-.81c1.71,1.75,2.88,3.85,3.5,6.31l-1.38.56c-.75-2.71-1.83-4.73-3.25-6.06Z"/>
        <path class="cls-3" d="m598.97,17.97c.5-.5.75-1.17.75-2,0-.92-.27-1.65-.81-2.19-.54-.54-1.4-.81-2.56-.81-1.38,0-2.44.27-3.19.81-.71.5-1.62,1.4-2.75,2.69l-1.06-.94c3-3,5.27-5.5,6.81-7.5-1.38.17-2.75.31-4.12.44l-.44-1.44c2.04,0,3.85-.1,5.44-.31l.56-.25.69.69c.46.42.35.69-.31.81-1.25,1.42-2.5,2.81-3.75,4.19.88-.21,1.6-.31,2.19-.31,1.58,0,2.75.38,3.5,1.12s1.12,1.71,1.12,2.88-.33,2.15-1,2.81c-1,1-2.27,1.5-3.81,1.5-1.46,0-2.52-.33-3.19-1-.54-.54-.81-1.19-.81-1.94,0-.5.19-.94.56-1.31.42-.42.9-.62,1.44-.62.75,0,1.38.25,1.88.75.58.58.98,1.5,1.19,2.75.67-.08,1.23-.35,1.69-.81Zm-3.69-1.19c-.29-.29-.58-.44-.88-.44-.33,0-.58.08-.75.25-.21.21-.31.44-.31.69,0,.38.17.73.5,1.06.42.42.96.62,1.62.62h.56c-.12-1.08-.38-1.81-.75-2.19Z"/>
        <path class="cls-3" d="m609.64,15.6c-1.58,1.29-2.81,2.4-3.69,3.31l-1.06-1.06c1.12-1.08,2.31-2.15,3.56-3.19l1.19.94Zm2.06,3c.5,0,.85-.1,1.06-.31.25-.25.38-.69.38-1.31,0-.67-.19-1.19-.56-1.56-.5-.5-1.06-.9-1.69-1.19-1-.46-1.6-.79-1.81-1-.21-.21-.31-.5-.31-.88s.19-.92.56-1.62l1.56.62c-.33.46-.5.77-.5.94,0,.12.23.29.69.5,1.29.58,2.17,1.1,2.62,1.56.67.67,1,1.54,1,2.62s-.27,1.9-.81,2.44c-.5.5-1.23.75-2.19.75-.83,0-1.79-.27-2.88-.81l.44-1.5c1.04.5,1.85.75,2.44.75Zm-2.56-10.38l.75-1.25c1.33.71,2.73,1.27,4.19,1.69l-.69,1.38c-2-.71-3.42-1.31-4.25-1.81Zm9.19,9.75c-1.17-1.79-2.21-3.12-3.12-4l1.12-.81c1.33,1.25,2.4,2.56,3.19,3.94l-1.19.88Z"/>
        <path class="cls-3" d="m632.11,17.41c.46-.46.69-1.04.69-1.75,0-.79-.21-1.4-.62-1.81-.46-.46-1.23-.69-2.31-.69-2.54,0-4.56,1.1-6.06,3.31l-1.06-1.06c2.71-2.67,4.67-5,5.88-7-1.38.21-2.75.4-4.12.56l-.44-1.44c1.5,0,3.31-.15,5.44-.44l.44-.19.75.69c.38.38.31.6-.19.69-1.12,1.46-2.23,2.88-3.31,4.25,1.21-.33,2.19-.5,2.94-.5,1.33,0,2.35.35,3.06,1.06.62.62.94,1.48.94,2.56s-.33,1.96-1,2.62c-1,1-3.08,1.52-6.25,1.56l-.62-1.31c3.12.04,5.08-.33,5.88-1.12Z"/>
        <path class="cls-3" d="m642.61,15.6c-1.58,1.29-2.81,2.4-3.69,3.31l-1.06-1.06c1.12-1.08,2.31-2.15,3.56-3.19l1.19.94Zm2.06,3c.5,0,.85-.1,1.06-.31.25-.25.38-.69.38-1.31,0-.67-.19-1.19-.56-1.56-.5-.5-1.06-.9-1.69-1.19-1-.46-1.6-.79-1.81-1-.21-.21-.31-.5-.31-.88s.19-.92.56-1.62l1.56.62c-.33.46-.5.77-.5.94,0,.12.23.29.69.5,1.29.58,2.17,1.1,2.62,1.56.67.67,1,1.54,1,2.62s-.27,1.9-.81,2.44c-.5.5-1.23.75-2.19.75-.83,0-1.79-.27-2.88-.81l.44-1.5c1.04.5,1.85.75,2.44.75Zm-2.56-10.38l.75-1.25c1.33.71,2.73,1.27,4.19,1.69l-.69,1.38c-2-.71-3.42-1.31-4.25-1.81Zm9.19,9.75c-1.17-1.79-2.21-3.12-3.12-4l1.12-.81c1.33,1.25,2.4,2.56,3.19,3.94l-1.19.88Z"/>
        <path class="cls-3" d="m657.34,19.78l-1.38-.44c1.12-2.62,1.92-5.38,2.38-8.25-1,.08-1.9.12-2.69.12l-.25-1.25c1.17,0,2.21-.04,3.12-.12.17-1.29.31-2.42.44-3.38l1.25.25c.46.12.5.29.12.5-.12.5-.29,1.33-.5,2.5.96-.12,1.83-.29,2.62-.5l.25,1.25c-1.08.21-2.1.38-3.06.5-.62,3.71-1.4,6.65-2.31,8.81Zm10.94-1.5v1.38h-2.75c-1.58,0-3.08-.38-4.5-1.12l.56-1.12c1.08.58,2.4.88,3.94.88h2.75Zm-.31-5.19c-2.42.08-4.31.42-5.69,1l-.38-1.25c1.79-.71,3.73-1.06,5.81-1.06l.25,1.31Z"/>
      </g>
      <g>
        <path d="m544.23,35.35h-.78v-4.22c-.42.78-.92,1.5-1.52,2.15l-.55-.82c1.15-1.2,1.82-2.3,2.03-3.32h-1.64v-.74h1.68v-1.84h.74c.21.03.22.1.04.23v1.6h1.45v.74h-1.45v1.02c.73.31,1.3.66,1.72,1.05l-.51.86c-.34-.36-.74-.7-1.21-1.02v4.3Zm3.98-1.02v-3.12c-.62,1.02-1.5,1.88-2.62,2.58l-.47-.94c1.41-.78,2.43-1.86,3.09-3.24v-.47h-2.19v-.74h2.19v-1.84h.74c.21.03.22.1.04.23v1.6h1.41v.74h-1.41v5.47c0,.42-.21.62-.62.62h-.82l-.16-.74h.66c.1,0,.16-.05.16-.16Z"/>
        <path d="m556.8,27.27c.03.16-.08.18-.31.08-.78.08-1.52.16-2.23.23v.39h2.73v.62h-.94v.9h-.78v-.9h-1.05c-.05.62-.34,1.17-.86,1.64l-.51-.55c.49-.39.74-1.03.74-1.91v-.94l.62.2c.86-.1,1.56-.25,2.11-.43l.47.66Zm3.91-.12c.16.18.09.22-.2.12-.78.13-1.59.22-2.42.27v.43h3.4v.62h-1.37v.9h-.78v-.9h-1.33c-.13.44-.4.86-.82,1.25h2.85v4.06h-1.45c.68.37,1.55.61,2.62.74l-.31.82c-1.07-.16-2.03-.47-2.89-.94l.47-.62h-2.62l.39.59c.08.18-.01.22-.27.12-.83.34-1.75.61-2.73.82l-.27-.78c1.09-.16,1.98-.4,2.66-.74h-1.48v-4.06h2.93l-.43-.51c.52-.42.78-.99.78-1.72v-.82l.74.2c.81-.1,1.51-.23,2.11-.39l.43.55Zm-1.45,3.95v-.62h-4.34v.62h4.34Zm0,1.09v-.62h-4.34v.62h4.34Zm0,1.09v-.62h-4.34v.62h4.34Z"/>
        <path d="m564.57,29.96h.9v.86h-.9v-.86Zm0,3.59h.9v.86h-.9v-.86Z"/>
        <path d="m571.17,30.12c-.55.42-1.24.77-2.07,1.05l-.39-.78c.83-.26,1.56-.62,2.19-1.09l-1.17-.82.55-.62,1.29.9c.26-.18.6-.57,1.02-1.17h-2.11v-.74h2.54l.16-.16.59.43c.1.1.06.17-.12.2.31.37.57.65.78.86l1.17-1.17.66.51c.03.13-.04.17-.2.12l-1.17.98c.1.13.27.26.51.39l1.21-1.21.66.55c.03.13-.04.17-.2.12l-1.17.94c.42.26,1.03.52,1.84.78l-.39.82c-.73-.23-1.39-.57-1.99-1.02v.59h-.74v1.05h2.38v.74h-2.38v1.72c0,.21.09.31.27.31h1.13c.29,0,.46-.12.51-.35l.2-.74.82.27c-.16,1.04-.52,1.56-1.09,1.56h-1.99c-.42,0-.62-.22-.62-.66v-2.11h-1.25c0,1.72-1.12,2.73-3.36,3.05l-.23-.82c1.88-.29,2.81-1.03,2.81-2.23h-2.23v-.74h2.27v-1.05h-.66v-.43Zm.43-.31h3.52c-.78-.52-1.41-1.15-1.88-1.88-.42.76-.96,1.38-1.64,1.88Zm2.23,1.8v-1.05h-1.21v1.05h1.21Z"/>
        <path d="m583.28,30.04v4.57h-.66v-.55h-.98v1.05h-.66v-3.59c-.16.34-.4.68-.74,1.02l-.51-.7c.88-.88,1.45-2.23,1.68-4.02h-1.21v-.74h3.44v.74h-1.48c-.08.76-.23,1.5-.47,2.23h1.6Zm-1.64,3.4h.98v-2.77h-.98v2.77Zm3.52-5.66h3.32l-.12,4.65c0,.47-.22.7-.66.7h-.9l-.2-.74h.86c.1,0,.16-.05.16-.16l.12-3.71h-2.93c-.34.6-.76,1.11-1.25,1.52l-.51-.62c.83-.7,1.43-1.71,1.8-3.01l.82.23c.1.1.06.17-.12.2l-.39.94Zm3.87,5.9l-.16.94c-.08.42-.33.62-.74.62h-3.32c-.47,0-.7-.22-.7-.66v-3.09h1.8v-1.25h-1.64v-.74h2.42v2.73h-1.8v1.95c0,.21.09.31.27.31h2.58c.21,0,.33-.06.35-.2l.12-.78.82.16Z"/>
        <path d="m593.82,31.02c.16.13.1.22-.16.27-.39.86-.89,1.76-1.48,2.7l-.86-.47c.65-.94,1.2-1.93,1.64-2.97l.86.47Zm2.07-2.15h3.59v.86h-3.59v5.43h-.9v-5.43h-3.52v-.86h3.52v-2.19h.82c.29.05.31.16.08.31v1.88Zm1.88,1.68c.94.99,1.64,1.9,2.11,2.73l-.86.59c-.55-.96-1.21-1.86-1.99-2.7l.74-.62Zm.55-2.5c-.21-.21-.31-.47-.31-.78s.1-.57.31-.78.47-.31.78-.31.57.1.78.31c.21.21.31.47.31.78s-.1.57-.31.78-.47.31-.78.31-.57-.1-.78-.31Zm1.29-.27c.13-.13.2-.3.2-.51s-.07-.38-.2-.51c-.13-.13-.3-.2-.51-.2s-.38.07-.51.2-.2.3-.2.51.06.38.2.51c.13.13.3.2.51.2s.38-.06.51-.2Z"/>
        <path d="m603.75,31.95h-.9v-4.41h.86c.26.03.27.13.04.31v4.1Zm4.02-.86c0,1.95-.91,3.36-2.73,4.22l-.78-.66c1.72-.78,2.59-1.98,2.62-3.59v-3.91h.82c.26.05.29.16.08.31v3.63Z"/>
        <path d="m610.69,28.71v-.86h5.78l1.02.74c-.13,3.15-1.91,5.21-5.35,6.17l-.7-.86c3.25-.75,4.96-2.49,5.12-5.2h-5.86Zm6.21-.82c-.21-.21-.31-.47-.31-.78s.1-.57.31-.78.47-.31.78-.31.57.1.78.31c.21.21.31.47.31.78s-.1.57-.31.78-.47.31-.78.31-.57-.1-.78-.31Zm1.29-.27c.13-.13.2-.3.2-.51s-.07-.38-.2-.51c-.13-.13-.3-.2-.51-.2s-.38.07-.51.2-.2.3-.2.51.06.38.2.51c.13.13.3.2.51.2s.38-.06.51-.2Z"/>
        <path d="m627.42,33.87h-.9v-.43h-4.34v.62h-.9v-6.09h6.13v5.9Zm-5.23-5.04v3.75h4.34v-3.75h-4.34Z"/>
        <path d="m636.6,29.69c.13.23.01.27-.35.12-1.46.39-3,.69-4.61.9v2.54c0,.34.17.51.51.51h4.49l-.08.86h-4.57c-.83,0-1.25-.34-1.25-1.02v-6.13h.78c.29.05.33.16.12.31v1.99c1.77-.21,3.32-.53,4.65-.98l.31.9Zm-.74-1.6c-.21-.21-.31-.47-.31-.78s.1-.57.31-.78.47-.31.78-.31.57.1.78.31c.21.21.31.47.31.78s-.1.57-.31.78-.47.31-.78.31-.57-.1-.78-.31Zm1.29-.27c.13-.13.2-.3.2-.51s-.07-.38-.2-.51c-.13-.13-.3-.2-.51-.2s-.38.07-.51.2-.2.3-.2.51.06.38.2.51c.13.13.3.2.51.2s.38-.06.51-.2Z"/>
        <path d="m641.54,33.63c2.4-.44,4.14-1.65,5.23-3.63l.66.66c-1.25,2.19-3.33,3.53-6.25,4.02l-.62-.47.08-.23v-6.48h.86c.23.03.25.12.04.27v5.86Z"/>
        <path d="m656.57,30c-1.38,2.87-3.7,4.38-6.95,4.53-.13.34-.26.36-.39.08l-.31-1.02c3.38-.08,5.66-1.47,6.84-4.18l.82.59Zm-7.5-1.6l.66-.82c.55.34,1.24.9,2.07,1.68l-.74.74c-.7-.65-1.37-1.18-1.99-1.6Z"/>
      </g>
      <g>
        <path class="cls-3" d="m545.4,62.05c-.62,1.83-1.29,3.31-2,4.44.04.46-.04.6-.25.44l-1.19-.94c.83-1.21,1.6-2.77,2.31-4.69l1.12.75Zm-2.31-4.75c.88.33,1.6.79,2.19,1.38l-.81,1.25c-.58-.5-1.29-.98-2.12-1.44l.75-1.19Zm.75-3.94c.79.42,1.5.92,2.12,1.5l-.81,1.25c-.62-.58-1.33-1.1-2.12-1.56l.81-1.19Zm2.56,8.75l-.69-1.19c2.21-1.29,3.73-3.12,4.56-5.5l1.31.44c.17.17.1.27-.19.31.79,1.71,2.4,3.15,4.81,4.31l-.62,1.38c-2.46-1.38-4.04-2.83-4.75-4.38-.83,1.75-2.31,3.29-4.44,4.62Zm3.38-8.19c.21.17.15.27-.19.31-.67,1.46-1.62,2.71-2.88,3.75l-.81-1.06c1.21-1,2.1-2.21,2.69-3.62l1.19.62Zm3.5,12.56h-4.5v.69h-1.25v-5.81h7v5.56h-1.25v-.44Zm0-1v-3.12h-4.5v3.12h4.5Zm1.75-7.94c-1.42-.88-2.56-2.12-3.44-3.75l1.19-.5c.75,1.29,1.77,2.33,3.06,3.12l-.81,1.12Z"/>
        <path class="cls-3" d="m564.28,61.98c-.38-.54-.75-.94-1.12-1.19v6.31h-1.25v-6c-.42,1.17-.94,2.15-1.56,2.94l-.81-1.31c1.12-1.33,1.92-3.15,2.38-5.44h-2v-1.19h2v-3.12h1.19c.33.04.35.17.06.38v2.75h1.31v1.19h-1.31v2.06c.67.33,1.25.83,1.75,1.5l-.62,1.12Zm6.62-5.69h2.5v4.5h-8.38v-4.5h2.5v-1h-3v-1h3v-1.31h1c.33.04.35.17.06.38v.94h1.25v-1.31h1c.33.04.35.17.06.38v.94h3v1h-3v1Zm-4,11h-1.25v-5.62h7.19v5.5h-1.25v-.31h-4.69v.44Zm.62-9.12v-1.12h-1.44v1.12h1.44Zm0,1.88v-1.12h-1.44v1.12h1.44Zm4.06,3.75v-1.38h-4.69v1.38h4.69Zm0,2.31v-1.56h-4.69v1.56h4.69Zm-1.75-9.81v-1h-1.25v1h1.25Zm0,1.88v-1.12h-1.25v1.12h1.25Zm0,1.88v-1.12h-1.25v1.12h1.25Zm1.06-1.88h1.44v-1.12h-1.44v1.12Zm1.44,1.88v-1.12h-1.44v1.12h1.44Z"/>
      </g>
      <g>
        <path d="m544.23,82.11h-.78v-4.22c-.42.78-.92,1.5-1.52,2.15l-.55-.82c1.15-1.2,1.82-2.3,2.03-3.32h-1.64v-.74h1.68v-1.84h.74c.21.03.22.1.04.23v1.6h1.45v.74h-1.45v1.02c.73.31,1.3.66,1.72,1.05l-.51.86c-.34-.36-.74-.7-1.21-1.02v4.3Zm3.98-1.02v-3.12c-.62,1.02-1.5,1.88-2.62,2.58l-.47-.94c1.41-.78,2.43-1.86,3.09-3.24v-.47h-2.19v-.74h2.19v-1.84h.74c.21.03.22.1.04.23v1.6h1.41v.74h-1.41v5.47c0,.42-.21.62-.62.62h-.82l-.16-.74h.66c.1,0,.16-.05.16-.16Z"/>
        <path d="m556.8,74.03c.03.16-.08.18-.31.08-.78.08-1.52.16-2.23.23v.39h2.73v.62h-.94v.9h-.78v-.9h-1.05c-.05.62-.34,1.17-.86,1.64l-.51-.55c.49-.39.74-1.03.74-1.91v-.94l.62.2c.86-.1,1.56-.25,2.11-.43l.47.66Zm3.91-.12c.16.18.09.22-.2.12-.78.13-1.59.22-2.42.27v.43h3.4v.62h-1.37v.9h-.78v-.9h-1.33c-.13.44-.4.86-.82,1.25h2.85v4.06h-1.45c.68.37,1.55.61,2.62.74l-.31.82c-1.07-.16-2.03-.47-2.89-.94l.47-.62h-2.62l.39.59c.08.18-.01.22-.27.12-.83.34-1.75.61-2.73.82l-.27-.78c1.09-.16,1.98-.4,2.66-.74h-1.48v-4.06h2.93l-.43-.51c.52-.42.78-.99.78-1.72v-.82l.74.2c.81-.1,1.51-.23,2.11-.39l.43.55Zm-1.45,3.95v-.62h-4.34v.62h4.34Zm0,1.09v-.62h-4.34v.62h4.34Zm0,1.09v-.62h-4.34v.62h4.34Z"/>
        <path d="m564.57,76.72h.9v.86h-.9v-.86Zm0,3.59h.9v.86h-.9v-.86Z"/>
        <path d="m569.07,74.5h4.49v.74h-3.59v2.19h2.81v.74h-2.81v3.01h-.9v-6.68Z"/>
        <path d="m576.03,74.46h3.28c.52,0,.95.17,1.29.51.34.34.51.81.51,1.41s-.17,1.07-.51,1.41c-.18.18-.44.3-.78.35l1.52,3.01h-.98l-1.41-2.89h-2.03v2.89h-.9v-6.68Zm.9.74v2.3h2.3c.26,0,.48-.09.66-.27s.27-.47.27-.86c0-.36-.1-.65-.31-.86-.21-.21-.46-.31-.74-.31h-2.19Z"/>
        <path d="m583.75,74.5h3.12c.57,0,1.04.18,1.41.55.36.37.55.87.55,1.52s-.17,1.15-.51,1.48-.82.51-1.45.51h-2.23v2.62h-.9v-6.68Zm.9.74v2.58h2.03c.36,0,.65-.1.86-.31.23-.23.35-.55.35-.94,0-.44-.1-.77-.31-.98-.23-.23-.53-.35-.9-.35h-2.03Z"/>
        <path d="m595.72,79.18c1.07.23,2.11.6,3.12,1.09l-.43.86c-.96-.6-1.86-1-2.7-1.21,0,.68-.17,1.19-.51,1.52-.31.31-.82.47-1.52.47-.55,0-.99-.17-1.33-.51-.23-.23-.35-.56-.35-.98,0-.36.13-.68.39-.94.34-.34.86-.51,1.56-.51.21,0,.53.01.98.04v-1.21l-2.97.08v-.78l2.97-.08v-1.37l-3.67.12v-.78l3.67-.12v-1.52h.7c.29.05.31.16.08.31v1.13l3.2-.12v.78l-3.2.12v1.41l2.54-.08v.78l-2.54.08v1.41Zm-1.68.51c-.52,0-.89.1-1.09.31-.13.13-.2.3-.2.51,0,.16.06.3.2.43.18.18.47.27.86.27.31,0,.57-.1.78-.31.23-.23.34-.61.31-1.13-.29-.05-.57-.08-.86-.08Z"/>
        <path d="m602.67,81.72l-.86-.27c.7-1.64,1.2-3.36,1.48-5.16-.62.05-1.19.08-1.68.08l-.16-.78c.73,0,1.38-.03,1.95-.08.1-.81.2-1.51.27-2.11l.78.16c.29.08.31.18.08.31-.08.31-.18.83-.31,1.56.6-.08,1.15-.18,1.64-.31l.16.78c-.68.13-1.32.23-1.91.31-.39,2.32-.87,4.15-1.45,5.51Zm6.84-.94v.86h-1.72c-.99,0-1.93-.23-2.81-.7l.35-.7c.68.37,1.5.55,2.46.55h1.72Zm-.2-3.24c-1.51.05-2.7.26-3.55.62l-.23-.78c1.12-.44,2.33-.66,3.63-.66l.16.82Z"/>
        <path d="m612.5,81.53c-.1-.73-.16-1.58-.16-2.54,0-2.11.16-3.8.47-5.08l.86.16c.18.08.17.17-.04.27-.29.91-.43,2.46-.43,4.65,0,.99.06,1.78.2,2.38l-.9.16Zm5.9-5.23c.05.99.05,1.98,0,2.97.78.29,1.54.69,2.27,1.21l-.47.74c-.55-.42-1.15-.78-1.8-1.09,0,.47-.14.85-.43,1.13-.31.31-.77.47-1.37.47s-1.05-.16-1.37-.47c-.26-.26-.39-.6-.39-1.02,0-.36.1-.65.31-.86.31-.31.78-.47,1.41-.47.34,0,.68.04,1.02.12.05-.88.05-1.78,0-2.7l-2.89.2v-.82l2.81-.16c-.03-.73-.08-1.38-.16-1.95h.82c.29.05.31.16.08.31.03.55.05,1.08.08,1.6l2.11-.12v.82l-2.03.08Zm-1.84,3.32c-.37,0-.62.08-.78.23-.13.13-.2.26-.2.39,0,.21.05.37.16.47.18.18.46.27.82.27s.62-.09.78-.27c.18-.21.26-.51.23-.9-.44-.13-.78-.2-1.02-.2Z"/>
        <path d="m626.87,73.6h.86c.26.05.27.16.04.31v1.6c.18,2.5,1.51,4.28,3.98,5.35l-.47.98c-1.8-.78-3.07-2.2-3.83-4.26-.55,1.95-1.78,3.37-3.71,4.26l-.59-.86c2.47-.96,3.71-2.75,3.71-5.35v-2.03Z"/>
        <path d="m638.18,80.2v-4.84h-3.09v-.86h7.07v.86h-3.09v4.84h3.83v.86h-8.52v-.86h3.79Z"/>
        <path d="m645.55,81.1c2.4-.83,3.66-2.43,3.79-4.8h-3.52v-.86h3.59v-2.07h.86c.26.05.27.16.04.31v1.76h3.75v.86h-3.67c.55,2.16,1.88,3.7,3.98,4.61l-.51.94c-1.82-.83-3.11-2.24-3.87-4.22-.44,2.14-1.81,3.61-4.1,4.41l-.35-.94Z"/>
        <path d="m660.09,79.77c-1.02.37-1.97.66-2.85.9-.08.21-.16.25-.23.12l-.27-.9,1.37-.27v-2.15h-1.05v-.74h1.05v-2.07h-1.17v-.74h3.12v.74h-1.17v2.07h1.05v.74h-1.05v1.95c.21-.03.59-.13,1.13-.31l.08.66Zm3.09-1.84v1.13h2.19v.74h-2.19v1.21h2.58v.74h-6.21v-.74h2.97v-1.21h-2.11v-.74h2.11v-1.13h-1.41v.51h-.66v-4.8h4.84v4.65h-.66v-.35h-1.45Zm-.66-2.42v-1.25h-1.41v1.25h1.41Zm0,.62h-1.41v1.17h1.41v-1.17Zm2.11-1.88h-1.45v1.25h1.45v-1.25Zm0,1.88h-1.45v1.17h1.45v-1.17Z"/>
        <path d="m674.87,81.22h-3.83v.62h-.78v-3.75c-.42.52-.99,1.02-1.72,1.48l-.51-.82c1.59-.91,2.55-2.21,2.89-3.91h-2.58v-.86h8.24v.86h-4.77c-.1.73-.37,1.47-.78,2.23h4.61v4.77h-.78v-.62Zm0-3.4h-3.83v2.66h3.83v-2.66Z"/>
      </g>
      <g>
        <path class="cls-3" d="m545.4,110.05c-.62,1.83-1.29,3.31-2,4.44.04.46-.04.6-.25.44l-1.19-.94c.83-1.21,1.6-2.77,2.31-4.69l1.12.75Zm-2.31-4.75c.88.33,1.6.79,2.19,1.38l-.81,1.25c-.58-.5-1.29-.98-2.12-1.44l.75-1.19Zm.75-3.94c.79.42,1.5.92,2.12,1.5l-.81,1.25c-.62-.58-1.33-1.1-2.12-1.56l.81-1.19Zm2.56,8.75l-.69-1.19c2.21-1.29,3.73-3.12,4.56-5.5l1.31.44c.17.17.1.27-.19.31.79,1.71,2.4,3.15,4.81,4.31l-.62,1.38c-2.46-1.38-4.04-2.83-4.75-4.38-.83,1.75-2.31,3.29-4.44,4.62Zm3.38-8.19c.21.17.15.27-.19.31-.67,1.46-1.62,2.71-2.88,3.75l-.81-1.06c1.21-1,2.1-2.21,2.69-3.62l1.19.62Zm3.5,12.56h-4.5v.69h-1.25v-5.81h7v5.56h-1.25v-.44Zm0-1v-3.12h-4.5v3.12h4.5Zm1.75-7.94c-1.42-.88-2.56-2.12-3.44-3.75l1.19-.5c.75,1.29,1.77,2.33,3.06,3.12l-.81,1.12Z"/>
        <path class="cls-3" d="m564.28,109.98c-.38-.54-.75-.94-1.12-1.19v6.31h-1.25v-6c-.42,1.17-.94,2.15-1.56,2.94l-.81-1.31c1.12-1.33,1.92-3.15,2.38-5.44h-2v-1.19h2v-3.12h1.19c.33.04.35.17.06.38v2.75h1.31v1.19h-1.31v2.06c.67.33,1.25.83,1.75,1.5l-.62,1.12Zm6.62-5.69h2.5v4.5h-8.38v-4.5h2.5v-1h-3v-1h3v-1.31h1c.33.04.35.17.06.38v.94h1.25v-1.31h1c.33.04.35.17.06.38v.94h3v1h-3v1Zm-4,11h-1.25v-5.62h7.19v5.5h-1.25v-.31h-4.69v.44Zm.62-9.12v-1.12h-1.44v1.12h1.44Zm0,1.88v-1.12h-1.44v1.12h1.44Zm4.06,3.75v-1.38h-4.69v1.38h4.69Zm0,2.31v-1.56h-4.69v1.56h4.69Zm-1.75-9.81v-1h-1.25v1h1.25Zm0,1.88v-1.12h-1.25v1.12h1.25Zm0,1.88v-1.12h-1.25v1.12h1.25Zm1.06-1.88h1.44v-1.12h-1.44v1.12Zm1.44,1.88v-1.12h-1.44v1.12h1.44Z"/>
        <path class="cls-3" d="m591.54,102.73c.04.29-.12.33-.5.12-1.38.29-2.77.52-4.19.69v2.69h5v1.19h-1.69v7.62h-1.25v-7.62h-2.06v2.69c0,2.12-.75,3.81-2.25,5.06l-.94-1.06.56-.5h-4.88v1.19h-1.25v-13h1.19c.33.04.35.17.06.38v4.12h2.31v-4.75h1c.33.04.35.17.06.38v4.38h2.38v1h-2.38v.5c.92.5,1.65.98,2.19,1.44l-.75,1.19c-.38-.42-.85-.9-1.44-1.44v2.88h-1.06v-2.62c-.46.79-.96,1.44-1.5,1.94l-.69-1c.88-.79,1.58-1.75,2.12-2.88h-2.25v5.12h5.31v.75c.62-.71.94-1.75.94-3.12v-7.88l1.19.31c1.42-.17,2.62-.54,3.62-1.12l1.12,1.38Zm-11.31,3.06c-.21-1.25-.44-2.17-.69-2.75l1.06-.38c.33.83.56,1.75.69,2.75l-1.06.38Zm2.94-.44c.42-1,.73-1.96.94-2.88l1.12.31c.17.12.12.23-.12.31-.25.88-.56,1.75-.94,2.62l-1-.38Z"/>
        <path class="cls-3" d="m600.24,104.92h-1.38c-.12,1.42-1.08,2.23-2.88,2.44l-.25-1.06c1.17-.17,1.83-.62,2-1.38h-1.94v-1h2.94v-.94h-2.38v-1h2.38v-1h1.19c.33.04.35.17.06.38v.62h2.31v1h-2.31v.94h2.88v1h-1.56v.69c0,.25.1.38.31.38h.56c.21,0,.27-.23.19-.69l1.06.12c.08,1.04-.21,1.56-.88,1.56h-1.31c-.67,0-1-.35-1-1.06v-1Zm-4.12,6.81l-.31-1.31,3-.44v-1.25h-2.38v-1h2.38v-1.25h1c.33.04.35.17.06.38v.88h2.44v1h-2.44v1.06l2.75-.5v.88l-6.19,1.38c-.04.29-.15.35-.31.19Zm2.38.62c.29.21.25.35-.12.44-.33,1.04-.71,1.85-1.12,2.44l-1.25-.62c.5-.79.92-1.71,1.25-2.75l1.25.5Zm2.44-.25c.46,1.08.73,1.98.81,2.69l-1.56.31c0-.62-.19-1.56-.56-2.81l1.31-.19Zm6.44-8.12h-1.19c0,1.12-.08,2.17-.25,3.12l1.06,1-.56,1.19-.88-.88c-.5,1.46-1.4,2.73-2.69,3.81l-.94-1.12c1.17-.75,2.04-1.96,2.62-3.62l-.94-.81.44-.94.75.56c.08-.54.12-1.31.12-2.31h-1.5v-1h1.5v-1.88h1.19c.33.04.35.17.06.38v1.5h2.25v5.25c0,.71.06,1.15.19,1.31.25.33.44-.08.56-1.25l1.06.38c-.21,2.33-.9,3.1-2.06,2.31-.54-.38-.81-1.38-.81-3v-4Zm-3.38,11c-.21-.96-.6-1.79-1.19-2.5l1.12-.44c.71.75,1.23,1.56,1.56,2.44l-1.5.5Zm3.19-3.19c1,.71,1.79,1.54,2.38,2.5l-1.44.81c-.71-1.25-1.4-2.15-2.06-2.69l1.12-.62Z"/>
        <path class="cls-3" d="m618.1,115.17h-1.25v-6.75c-.67,1.25-1.48,2.4-2.44,3.44l-.88-1.31c1.83-1.92,2.92-3.69,3.25-5.31h-2.62v-1.19h2.69v-2.94h1.19c.33.04.35.17.06.38v2.56h2.31v1.19h-2.31v1.62c1.17.5,2.08,1.06,2.75,1.69l-.81,1.38c-.54-.58-1.19-1.12-1.94-1.62v6.88Zm6.38-1.62v-5c-1,1.62-2.4,3-4.19,4.12l-.75-1.5c2.25-1.25,3.9-2.98,4.94-5.19v-.75h-3.5v-1.19h3.5v-2.94h1.19c.33.04.35.17.06.38v2.56h2.25v1.19h-2.25v8.75c0,.67-.33,1-1,1h-1.31l-.25-1.19h1.06c.17,0,.25-.08.25-.25Z"/>
      </g>
      <g>
        <path d="m544.23,130.11h-.78v-4.22c-.42.78-.92,1.5-1.52,2.15l-.55-.82c1.15-1.2,1.82-2.3,2.03-3.32h-1.64v-.74h1.68v-1.84h.74c.21.03.22.1.04.23v1.6h1.45v.74h-1.45v1.02c.73.31,1.3.66,1.72,1.05l-.51.86c-.34-.36-.74-.7-1.21-1.02v4.3Zm3.98-1.02v-3.12c-.62,1.02-1.5,1.88-2.62,2.58l-.47-.94c1.41-.78,2.43-1.86,3.09-3.24v-.47h-2.19v-.74h2.19v-1.84h.74c.21.03.22.1.04.23v1.6h1.41v.74h-1.41v5.47c0,.42-.21.62-.62.62h-.82l-.16-.74h.66c.1,0,.16-.05.16-.16Z"/>
        <path d="m556.8,122.03c.03.16-.08.18-.31.08-.78.08-1.52.16-2.23.23v.39h2.73v.62h-.94v.9h-.78v-.9h-1.05c-.05.62-.34,1.17-.86,1.64l-.51-.55c.49-.39.74-1.03.74-1.91v-.94l.62.2c.86-.1,1.56-.25,2.11-.43l.47.66Zm3.91-.12c.16.18.09.22-.2.12-.78.13-1.59.22-2.42.27v.43h3.4v.62h-1.37v.9h-.78v-.9h-1.33c-.13.44-.4.86-.82,1.25h2.85v4.06h-1.45c.68.37,1.55.61,2.62.74l-.31.82c-1.07-.16-2.03-.47-2.89-.94l.47-.62h-2.62l.39.59c.08.18-.01.22-.27.12-.83.34-1.75.61-2.73.82l-.27-.78c1.09-.16,1.98-.4,2.66-.74h-1.48v-4.06h2.93l-.43-.51c.52-.42.78-.99.78-1.72v-.82l.74.2c.81-.1,1.51-.23,2.11-.39l.43.55Zm-1.45,3.95v-.62h-4.34v.62h4.34Zm0,1.09v-.62h-4.34v.62h4.34Zm0,1.09v-.62h-4.34v.62h4.34Z"/>
        <path d="m564.57,124.72h.9v.86h-.9v-.86Zm0,3.59h.9v.86h-.9v-.86Z"/>
        <path d="m571.17,124.88c-.55.42-1.24.77-2.07,1.05l-.39-.78c.83-.26,1.56-.62,2.19-1.09l-1.17-.82.55-.62,1.29.9c.26-.18.6-.57,1.02-1.17h-2.11v-.74h2.54l.16-.16.59.43c.1.1.06.17-.12.2.31.37.57.65.78.86l1.17-1.17.66.51c.03.13-.04.17-.2.12l-1.17.98c.1.13.27.26.51.39l1.21-1.21.66.55c.03.13-.04.17-.2.12l-1.17.94c.42.26,1.03.52,1.84.78l-.39.82c-.73-.23-1.39-.57-1.99-1.02v.59h-.74v1.05h2.38v.74h-2.38v1.72c0,.21.09.31.27.31h1.13c.29,0,.46-.12.51-.35l.2-.74.82.27c-.16,1.04-.52,1.56-1.09,1.56h-1.99c-.42,0-.62-.22-.62-.66v-2.11h-1.25c0,1.72-1.12,2.73-3.36,3.05l-.23-.82c1.88-.29,2.81-1.03,2.81-2.23h-2.23v-.74h2.27v-1.05h-.66v-.43Zm.43-.31h3.52c-.78-.52-1.41-1.15-1.88-1.88-.42.76-.96,1.38-1.64,1.88Zm2.23,1.8v-1.05h-1.21v1.05h1.21Z"/>
        <path d="m583.28,124.8v4.57h-.66v-.55h-.98v1.05h-.66v-3.59c-.16.34-.4.68-.74,1.02l-.51-.7c.88-.88,1.45-2.23,1.68-4.02h-1.21v-.74h3.44v.74h-1.48c-.08.76-.23,1.5-.47,2.23h1.6Zm-1.64,3.4h.98v-2.77h-.98v2.77Zm3.52-5.66h3.32l-.12,4.65c0,.47-.22.7-.66.7h-.9l-.2-.74h.86c.1,0,.16-.05.16-.16l.12-3.71h-2.93c-.34.6-.76,1.11-1.25,1.52l-.51-.62c.83-.7,1.43-1.71,1.8-3.01l.82.23c.1.1.06.17-.12.2l-.39.94Zm3.87,5.9l-.16.94c-.08.42-.33.62-.74.62h-3.32c-.47,0-.7-.22-.7-.66v-3.09h1.8v-1.25h-1.64v-.74h2.42v2.73h-1.8v1.95c0,.21.09.31.27.31h2.58c.21,0,.33-.06.35-.2l.12-.78.82.16Z"/>
        <path d="m599.5,128.71l-.78.66c-1.09-1.15-2.15-2.11-3.16-2.89-1.02,1.09-2.17,2.07-3.48,2.93l-.74-.66c2.76-1.8,4.53-3.59,5.31-5.39l-4.26.27-.12-.94,4.53-.2.47-.12.62.62c.18.18.13.3-.16.35-.5.86-1.02,1.65-1.56,2.38,1.12.86,2.23,1.85,3.32,2.97Z"/>
        <path d="m605.74,124.92h3.2v.86h-3.2c0,1.82-.82,3.19-2.46,4.1l-.62-.62c1.48-.83,2.21-1.99,2.19-3.48h-3.91v-.86h3.91v-1.48c-.73.08-1.68.14-2.85.2l-.35-.82c2.53-.05,4.47-.29,5.82-.7l.43.82c.08.18-.04.21-.35.08-.55.13-1.15.23-1.8.31v1.6Z"/>
        <path d="m617.94,128.63h-.9v-.43h-4.34v.62h-.9v-6.09h6.13v5.9Zm-5.23-5.04v3.75h4.34v-3.75h-4.34Z"/>
        <path d="m620.94,126.09v-.86h8.71v.86h-8.71Z"/>
        <path d="m631.35,129.22c1.3-1.25,1.95-2.8,1.95-4.65v-1.76h.82c.23.05.26.16.08.31v1.41c0,2.19-.69,3.92-2.07,5.2l-.78-.51Zm5.23-1.05c1.15-.44,2.2-1.33,3.16-2.66l.55.74c-.99,1.35-2.24,2.33-3.75,2.93l-.31.16-.62-.47.08-.2v-6.29h.82c.23.05.26.16.08.31v5.47Z"/>
      </g>
      <g>
        <path class="cls-3" d="m555.9,173.27c.04.29-.12.33-.5.12-1.38.29-2.77.52-4.19.69v2.69h5v1.19h-1.69v7.62h-1.25v-7.62h-2.06v2.69c0,2.12-.75,3.81-2.25,5.06l-.94-1.06.56-.5h-4.88v1.19h-1.25v-13h1.19c.33.04.35.17.06.38v4.12h2.31v-4.75h1c.33.04.35.17.06.38v4.38h2.38v1h-2.38v.5c.92.5,1.65.98,2.19,1.44l-.75,1.19c-.38-.42-.85-.9-1.44-1.44v2.88h-1.06v-2.62c-.46.79-.96,1.44-1.5,1.94l-.69-1c.88-.79,1.58-1.75,2.12-2.88h-2.25v5.12h5.31v.75c.62-.71.94-1.75.94-3.12v-7.88l1.19.31c1.42-.17,2.62-.54,3.62-1.12l1.12,1.38Zm-11.31,3.06c-.21-1.25-.44-2.17-.69-2.75l1.06-.38c.33.83.56,1.75.69,2.75l-1.06.38Zm2.94-.44c.42-1,.73-1.96.94-2.88l1.12.31c.17.12.12.23-.12.31-.25.88-.56,1.75-.94,2.62l-1-.38Z"/>
        <path class="cls-3" d="m564.6,175.46h-1.38c-.12,1.42-1.08,2.23-2.88,2.44l-.25-1.06c1.17-.17,1.83-.62,2-1.38h-1.94v-1h2.94v-.94h-2.38v-1h2.38v-1h1.19c.33.04.35.17.06.38v.62h2.31v1h-2.31v.94h2.88v1h-1.56v.69c0,.25.1.38.31.38h.56c.21,0,.27-.23.19-.69l1.06.12c.08,1.04-.21,1.56-.88,1.56h-1.31c-.67,0-1-.35-1-1.06v-1Zm-4.12,6.81l-.31-1.31,3-.44v-1.25h-2.38v-1h2.38v-1.25h1c.33.04.35.17.06.38v.88h2.44v1h-2.44v1.06l2.75-.5v.88l-6.19,1.38c-.04.29-.15.35-.31.19Zm2.38.62c.29.21.25.35-.12.44-.33,1.04-.71,1.85-1.12,2.44l-1.25-.62c.5-.79.92-1.71,1.25-2.75l1.25.5Zm2.44-.25c.46,1.08.73,1.98.81,2.69l-1.56.31c0-.62-.19-1.56-.56-2.81l1.31-.19Zm6.44-8.12h-1.19c0,1.12-.08,2.17-.25,3.12l1.06,1-.56,1.19-.88-.88c-.5,1.46-1.4,2.73-2.69,3.81l-.94-1.12c1.17-.75,2.04-1.96,2.62-3.62l-.94-.81.44-.94.75.56c.08-.54.12-1.31.12-2.31h-1.5v-1h1.5v-1.88h1.19c.33.04.35.17.06.38v1.5h2.25v5.25c0,.71.06,1.15.19,1.31.25.33.44-.08.56-1.25l1.06.38c-.21,2.33-.9,3.1-2.06,2.31-.54-.38-.81-1.38-.81-3v-4Zm-3.38,11c-.21-.96-.6-1.79-1.19-2.5l1.12-.44c.71.75,1.23,1.56,1.56,2.44l-1.5.5Zm3.19-3.19c1,.71,1.79,1.54,2.38,2.5l-1.44.81c-.71-1.25-1.4-2.15-2.06-2.69l1.12-.62Z"/>
        <path class="cls-3" d="m581.38,183.77h-.75l-.25-1.19h.62c.71,0,1-.62.88-1.88-.08-.83-.5-1.96-1.25-3.38l1-3.88h-1.88v12.44h-1.25v-13.62h3.5l.12-.25,1.31.69c.17.17.1.27-.19.31l-1.44,4.25c.71,1.33,1.12,2.35,1.25,3.06.38,2.29-.19,3.44-1.69,3.44Zm5.31-4.81c-.25,3.42-1.58,5.69-4,6.81l-.62-1.25c2.29-1.12,3.44-3.5,3.44-7.12v-2.06h-2.38v-1.19h2.88v-2.62h1.38c.42.08.44.25.06.5v2.12h4.81v1.19h-5.5v2.44h4.5c-.17,3.67-.42,5.96-.75,6.88-.25.71-.92,1.06-2,1.06h-1l-.19-1.19h.94c.54,0,.9-.23,1.06-.69.17-.5.33-2.12.5-4.88h-3.12Z"/>
        <path class="cls-3" d="m596.2,184.64l-.69-1.31c2.29-1.29,3.79-3.6,4.5-6.94h-3.62v-1.19h3.62l.38-.5,1.06.75c.29.17.27.35-.06.56-.67,3.96-2.4,6.83-5.19,8.62Zm7.31-7.25v7.19c0,.67-.33,1-1,1h-1.5l-.25-1.19h1.25c.17,0,.25-.08.25-.25v-12.56h1.19c.33.04.35.17.06.38v1.81c0,.92.35,2,1.06,3.25.96-.67,2.02-1.71,3.19-3.12l1.12,1.12c.21.33.08.46-.38.38-1,.92-2.12,1.81-3.38,2.69,1.21,2.12,2.81,3.83,4.81,5.12l-.75,1.44c-2.46-1.67-4.35-4.08-5.69-7.25Z"/>
        <path class="cls-3" d="m618.86,176.08c.33.21.29.4-.12.56-.75,2.62-1.96,5.02-3.62,7.19l-1.44-.94c1.83-2.21,3.06-4.71,3.69-7.5l1.5.69Zm4.75-1.44c2.08,2.62,3.56,5.4,4.44,8.31l-1.69.56c-1.04-3.29-2.4-5.92-4.06-7.88l1.31-1Zm1.25-.19c-.33-.33-.5-.75-.5-1.25s.17-.92.5-1.25.75-.5,1.25-.5.92.17,1.25.5c.33.33.5.75.5,1.25s-.17.92-.5,1.25-.75.5-1.25.5-.92-.17-1.25-.5Zm2.06-.44c.21-.21.31-.48.31-.81s-.1-.6-.31-.81c-.21-.21-.48-.31-.81-.31s-.6.1-.81.31-.31.48-.31.81.1.6.31.81c.21.21.48.31.81.31s.6-.1.81-.31Z"/>
        <path class="cls-3" d="m644.03,177.14c-2.21,4.58-5.92,7-11.12,7.25-.21.54-.42.58-.62.12l-.5-1.62c5.42-.12,9.06-2.35,10.94-6.69l1.31.94Zm-12-2.56l1.06-1.31c.88.54,1.98,1.44,3.31,2.69l-1.19,1.19c-1.12-1.04-2.19-1.9-3.19-2.56Z"/>
      </g>
      <g>
        <path d="m544.23,200.65h-.78v-4.22c-.42.78-.92,1.5-1.52,2.15l-.55-.82c1.15-1.2,1.82-2.3,2.03-3.32h-1.64v-.74h1.68v-1.84h.74c.21.03.22.1.04.23v1.6h1.45v.74h-1.45v1.02c.73.31,1.3.66,1.72,1.05l-.51.86c-.34-.36-.74-.7-1.21-1.02v4.3Zm3.98-1.02v-3.12c-.62,1.02-1.5,1.88-2.62,2.58l-.47-.94c1.41-.78,2.43-1.86,3.09-3.24v-.47h-2.19v-.74h2.19v-1.84h.74c.21.03.22.1.04.23v1.6h1.41v.74h-1.41v5.47c0,.42-.21.62-.62.62h-.82l-.16-.74h.66c.1,0,.16-.05.16-.16Z"/>
        <path d="m556.8,192.56c.03.16-.08.18-.31.08-.78.08-1.52.16-2.23.23v.39h2.73v.62h-.94v.9h-.78v-.9h-1.05c-.05.62-.34,1.17-.86,1.64l-.51-.55c.49-.39.74-1.03.74-1.91v-.94l.62.2c.86-.1,1.56-.25,2.11-.43l.47.66Zm3.91-.12c.16.18.09.22-.2.12-.78.13-1.59.22-2.42.27v.43h3.4v.62h-1.37v.9h-.78v-.9h-1.33c-.13.44-.4.86-.82,1.25h2.85v4.06h-1.45c.68.37,1.55.61,2.62.74l-.31.82c-1.07-.16-2.03-.47-2.89-.94l.47-.62h-2.62l.39.59c.08.18-.01.22-.27.12-.83.34-1.75.61-2.73.82l-.27-.78c1.09-.16,1.98-.4,2.66-.74h-1.48v-4.06h2.93l-.43-.51c.52-.42.78-.99.78-1.72v-.82l.74.2c.81-.1,1.51-.23,2.11-.39l.43.55Zm-1.45,3.95v-.62h-4.34v.62h4.34Zm0,1.09v-.62h-4.34v.62h4.34Zm0,1.09v-.62h-4.34v.62h4.34Z"/>
        <path d="m564.57,195.26h.9v.86h-.9v-.86Zm0,3.59h.9v.86h-.9v-.86Z"/>
        <path d="m571.17,195.41c-.55.42-1.24.77-2.07,1.05l-.39-.78c.83-.26,1.56-.62,2.19-1.09l-1.17-.82.55-.62,1.29.9c.26-.18.6-.57,1.02-1.17h-2.11v-.74h2.54l.16-.16.59.43c.1.1.06.17-.12.2.31.37.57.65.78.86l1.17-1.17.66.51c.03.13-.04.17-.2.12l-1.17.98c.1.13.27.26.51.39l1.21-1.21.66.55c.03.13-.04.17-.2.12l-1.17.94c.42.26,1.03.52,1.84.78l-.39.82c-.73-.23-1.39-.57-1.99-1.02v.59h-.74v1.05h2.38v.74h-2.38v1.72c0,.21.09.31.27.31h1.13c.29,0,.46-.12.51-.35l.2-.74.82.27c-.16,1.04-.52,1.56-1.09,1.56h-1.99c-.42,0-.62-.22-.62-.66v-2.11h-1.25c0,1.72-1.12,2.73-3.36,3.05l-.23-.82c1.88-.29,2.81-1.03,2.81-2.23h-2.23v-.74h2.27v-1.05h-.66v-.43Zm.43-.31h3.52c-.78-.52-1.41-1.15-1.88-1.88-.42.76-.96,1.38-1.64,1.88Zm2.23,1.8v-1.05h-1.21v1.05h1.21Z"/>
        <path d="m583.28,195.34v4.57h-.66v-.55h-.98v1.05h-.66v-3.59c-.16.34-.4.68-.74,1.02l-.51-.7c.88-.88,1.45-2.23,1.68-4.02h-1.21v-.74h3.44v.74h-1.48c-.08.76-.23,1.5-.47,2.23h1.6Zm-1.64,3.4h.98v-2.77h-.98v2.77Zm3.52-5.66h3.32l-.12,4.65c0,.47-.22.7-.66.7h-.9l-.2-.74h.86c.1,0,.16-.05.16-.16l.12-3.71h-2.93c-.34.6-.76,1.11-1.25,1.52l-.51-.62c.83-.7,1.43-1.71,1.8-3.01l.82.23c.1.1.06.17-.12.2l-.39.94Zm3.87,5.9l-.16.94c-.08.42-.33.62-.74.62h-3.32c-.47,0-.7-.22-.7-.66v-3.09h1.8v-1.25h-1.64v-.74h2.42v2.73h-1.8v1.95c0,.21.09.31.27.31h2.58c.21,0,.33-.06.35-.2l.12-.78.82.16Z"/>
        <path d="m593.82,196.31c.16.13.1.22-.16.27-.39.86-.89,1.76-1.48,2.7l-.86-.47c.65-.94,1.2-1.93,1.64-2.97l.86.47Zm2.07-2.15h3.59v.86h-3.59v5.43h-.9v-5.43h-3.52v-.86h3.52v-2.19h.82c.29.05.31.16.08.31v1.88Zm1.88,1.68c.94.99,1.64,1.9,2.11,2.73l-.86.59c-.55-.96-1.21-1.86-1.99-2.7l.74-.62Zm.55-2.5c-.21-.21-.31-.47-.31-.78s.1-.57.31-.78.47-.31.78-.31.57.1.78.31c.21.21.31.47.31.78s-.1.57-.31.78-.47.31-.78.31-.57-.1-.78-.31Zm1.29-.27c.13-.13.2-.3.2-.51s-.07-.38-.2-.51c-.13-.13-.3-.2-.51-.2s-.38.07-.51.2-.2.3-.2.51.06.38.2.51c.13.13.3.2.51.2s.38-.06.51-.2Z"/>
        <path d="m603.75,197.25h-.9v-4.41h.86c.26.03.27.13.04.31v4.1Zm4.02-.86c0,1.95-.91,3.36-2.73,4.22l-.78-.66c1.72-.78,2.59-1.98,2.62-3.59v-3.91h.82c.26.05.29.16.08.31v3.63Z"/>
        <path d="m610.69,194.01v-.86h5.78l1.02.74c-.13,3.15-1.91,5.21-5.35,6.17l-.7-.86c3.25-.75,4.96-2.49,5.12-5.2h-5.86Zm6.21-.82c-.21-.21-.31-.47-.31-.78s.1-.57.31-.78.47-.31.78-.31.57.1.78.31c.21.21.31.47.31.78s-.1.57-.31.78-.47.31-.78.31-.57-.1-.78-.31Zm1.29-.27c.13-.13.2-.3.2-.51s-.07-.38-.2-.51c-.13-.13-.3-.2-.51-.2s-.38.07-.51.2-.2.3-.2.51.06.38.2.51c.13.13.3.2.51.2s.38-.06.51-.2Z"/>
        <path d="m627.42,199.16h-.9v-.43h-4.34v.62h-.9v-6.09h6.13v5.9Zm-5.23-5.04v3.75h4.34v-3.75h-4.34Z"/>
        <path d="m636.6,194.98c.13.23.01.27-.35.12-1.46.39-3,.69-4.61.9v2.54c0,.34.17.51.51.51h4.49l-.08.86h-4.57c-.83,0-1.25-.34-1.25-1.02v-6.13h.78c.29.05.33.16.12.31v1.99c1.77-.21,3.32-.53,4.65-.98l.31.9Zm-.74-1.6c-.21-.21-.31-.47-.31-.78s.1-.57.31-.78.47-.31.78-.31.57.1.78.31c.21.21.31.47.31.78s-.1.57-.31.78-.47.31-.78.31-.57-.1-.78-.31Zm1.29-.27c.13-.13.2-.3.2-.51s-.07-.38-.2-.51c-.13-.13-.3-.2-.51-.2s-.38.07-.51.2-.2.3-.2.51.06.38.2.51c.13.13.3.2.51.2s.38-.06.51-.2Z"/>
        <path d="m641.54,198.93c2.4-.44,4.14-1.65,5.23-3.63l.66.66c-1.25,2.19-3.33,3.53-6.25,4.02l-.62-.47.08-.23v-6.48h.86c.23.03.25.12.04.27v5.86Z"/>
        <path d="m656.57,195.3c-1.38,2.87-3.7,4.38-6.95,4.53-.13.34-.26.36-.39.08l-.31-1.02c3.38-.08,5.66-1.47,6.84-4.18l.82.59Zm-7.5-1.6l.66-.82c.55.34,1.24.9,2.07,1.68l-.74.74c-.7-.65-1.37-1.18-1.99-1.6Z"/>
      </g>
      <g>
        <path d="m542.68,259.16v-.98h.98v.98h-.98Zm2.54-.49l-2.49-2.49.33-.33.08.08,2.32,2.32.08.08.08-.08,2.3-2.3.11-.11.33.33-.11.11-2.3,2.3-.08.08,2.38,2.38.11.11-.33.33-.22-.22-2.19-2.19-.08-.08-.16.16-2.32,2.32-.33-.33.08-.08,2.32-2.32.08-.08Zm-.19-1.75v-.98h.98v.98h-.98Zm0,4.48v-.98h.98v.98h-.98Zm2.24-2.24v-.98h.98v.98h-.98Z"/>
        <path d="m555.59,261.59v-.27h-4.48v.33h-.55v-5.88h5.58v5.82h-.55Zm0-5.3h-4.48v4.51h4.48v-4.51Zm-.36,3.64l-.44.52c-.4-.35-.84-.64-1.31-.88-.42.42-1.01.78-1.78,1.07l-.36-.49c.73-.29,1.27-.58,1.61-.88-.42-.22-.89-.44-1.42-.66l.36-.44c.44.16.93.37,1.48.63.42-.49.79-1.21,1.12-2.16l.6.25c.15.04.12.1-.08.19-.35.88-.72,1.54-1.12,2,.47.24.92.52,1.34.85Zm-3.06-3.09c.24.27.44.59.6.96l-.49.3c-.15-.36-.34-.69-.57-.98l.46-.27Zm1.2.96c-.15-.36-.34-.69-.57-.98l.46-.27c.29.33.49.65.6.96l-.49.3Z"/>
        <path d="m558.65,261.29c-.07-.51-.11-1.1-.11-1.78,0-1.48.11-2.66.33-3.55l.6.11c.13.05.12.12-.03.19-.2.64-.3,1.72-.3,3.25,0,.69.04,1.25.14,1.67l-.63.11Zm4.13-3.66c.04.69.04,1.39,0,2.08.55.2,1.08.48,1.59.85l-.33.52c-.38-.29-.8-.55-1.26-.77,0,.33-.1.59-.3.79-.22.22-.54.33-.96.33s-.74-.11-.96-.33c-.18-.18-.27-.42-.27-.71,0-.25.07-.46.22-.6.22-.22.55-.33.98-.33.24,0,.47.03.71.08.04-.62.04-1.25,0-1.89l-2.02.14v-.57l1.97-.11c-.02-.51-.05-.97-.11-1.37h.57c.2.04.22.11.05.22.02.38.04.76.05,1.12l1.48-.08v.57l-1.42.05Zm-1.29,2.32c-.26,0-.44.05-.55.16-.09.09-.14.18-.14.27,0,.15.04.26.11.33.13.13.32.19.57.19s.44-.06.55-.19c.13-.15.18-.36.16-.63-.31-.09-.55-.14-.71-.14Z"/>
        <path d="m565.71,259.13c1.91-.8,3.36-1.93,4.35-3.39l.52.44c.15.11.08.19-.19.25-.35.46-.79.92-1.34,1.39v3.72h-.63v-3.2c-.64.49-1.39.94-2.24,1.34l-.46-.55Z"/>
        <path d="m571.76,260.66c1.11-.6,1.91-1.29,2.41-2.05-.51-.31-.96-.55-1.34-.71l.33-.6c.4.18.86.42,1.37.71.25-.53.47-1.24.66-2.13l.66.22c.13.04.12.09-.03.16-.24.91-.48,1.61-.74,2.11.44.29.79.55,1.07.77l-.36.63c-.37-.31-.71-.57-1.04-.79-.67.91-1.48,1.65-2.41,2.21l-.57-.52Z"/>
        <path d="m577.85,258.88v-.6h6.1v.6h-6.1Z"/>
        <path d="m586.98,258.83c-.55-.4-1-.69-1.37-.88l.41-.57c.46.24.92.53,1.39.88l-.44.57Zm4.21-.74c-.93,1.5-2.37,2.55-4.32,3.17-.05.22-.15.23-.27.03l-.38-.6c1.99-.44,3.48-1.47,4.48-3.09l.49.49Zm-3.39-.88c-.49-.35-.95-.64-1.37-.88l.36-.57c.49.27.96.57,1.39.88l-.38.57Zm1.61-1.39c.31.26.62.55.93.88l-.36.33c-.31-.33-.63-.63-.96-.9l.38-.3Zm.66-.46c.31.24.62.52.93.85l-.36.36c-.33-.36-.64-.66-.93-.88l.36-.33Z"/>
        <path d="m598.29,256.83c-.64,0-1.14.06-1.5.19-.4.15-.78.39-1.12.74s-.52.79-.52,1.34c0,.44.14.79.41,1.07.36.37,1.07.57,2.11.6l-.22.6c-1.08-.05-1.82-.29-2.24-.71-.42-.42-.63-.93-.63-1.53,0-.86.34-1.53,1.01-2.02-.86.13-1.73.26-2.62.38l-.16-.63c1.79-.13,3.58-.35,5.39-.66l.11.63Zm-1.64,1.45l.27-.33c.27.16.62.39,1.04.68l-.27.33c-.4-.29-.75-.52-1.04-.68Zm.55-.66l.27-.33c.25.15.6.37,1.04.68l-.27.33c-.44-.31-.78-.54-1.04-.68Z"/>
        <path d="m602.49,259.89c-.31,0-.55-.08-.71-.25-.22-.22-.33-.46-.33-.74,0-.29.11-.55.33-.77s.49-.33.82-.33c.22,0,.43.03.63.08v-.6l-3.01.19-.11-.57,3.12-.14v-1.29h.49c.2.04.22.11.05.22v1.04l2.32-.16v.57l-2.32.11v1.04c.07.33.11.69.11,1.09-.02.93-.54,1.71-1.56,2.35l-.52-.38c.91-.53,1.37-1.08,1.37-1.67-.22.13-.45.19-.68.19Zm-.33-1.42c-.11.11-.16.26-.16.44,0,.16.04.29.14.38.09.09.24.14.44.14s.36-.06.49-.19c.11-.11.16-.25.16-.41s-.05-.3-.16-.41c-.09-.09-.23-.14-.41-.14-.2,0-.37.06-.49.19Z"/>
        <path d="m608.93,260.77c0,.27-.09.5-.27.68-.18.18-.41.27-.68.27s-.5-.09-.68-.27-.27-.41-.27-.68.09-.5.27-.68.41-.27.68-.27.5.09.68.27c.18.18.27.41.27.68Zm-.33,0c0-.16-.06-.31-.19-.44-.13-.13-.27-.19-.44-.19s-.31.06-.44.19-.19.27-.19.44.06.31.19.44c.13.13.27.19.44.19s.31-.06.44-.19c.13-.13.19-.27.19-.44Z"/>
        <path d="m614.99,257.41h1.83v.52h-1.83v.41h2.02v.52h-2.02v.44h2.82v.52h-2.65c.4.55,1.29.97,2.65,1.26l-.19.63c-1.44-.35-2.38-.89-2.82-1.64-.44.93-1.39,1.5-2.87,1.72l-.22-.57c1.37-.2,2.22-.67,2.57-1.39h-2.6v-.52h2.76v-.44h-1.94v-.52h1.94v-.41h-1.8v-.52h1.8v-.55h.52c.15.02.15.07.03.16v.38Zm-3.14-1.29h2.6v-.63h.6c.18.04.19.11.03.22v.41h2.57v1.48h-.55v-.96h-4.7v.96h-.55v-1.48Z"/>
        <path d="m620.6,257.98l.44-1.78h-.66v5.55h-.55v-6.07h1.45l.08-.08.36.38-.08.05-.6,1.86c.46.64.68,1.21.68,1.72,0,.8-.23,1.2-.68,1.2h-.33l-.14-.6h.27c.22,0,.33-.2.33-.6s-.19-.93-.57-1.64Zm4.57-1.56h-.55v-.44h.9l.08-.08.33.44-.11.03-.74,1.04c.24.29.6.63,1.09,1.01l-.46.44c-.29-.22-.58-.49-.88-.82v.22h-2.13v-.19c-.31.44-.59.73-.85.88l-.38-.36c.35-.27.65-.59.9-.96l-.46-.33-.25.27-.36-.36c.46-.47.81-1.08,1.07-1.8l.44.14c.13.07.12.12-.03.14l-.11.25h.57l.05-.11.41.33-.08.08c-.26.66-.48,1.16-.68,1.5h1.67c-.38-.47-.7-1.18-.96-2.11l.49-.11c.2.67.4,1.17.6,1.48l.41-.57Zm-3.17,5l-.44-.41c.42-.33.76-.73,1.01-1.2l.46.25c.15.07.14.13-.03.16-.26.46-.59.86-1.01,1.2Zm.93-.22h.49c.07,0,.11-.04.11-.11v-1.61h-1.48v-.52h3.47v.52h-1.45v1.83c0,.27-.14.41-.41.41h-.66l-.08-.52Zm-.66-4.4l-.16.22.46.33.16-.27-.46-.27Zm.25-.44l-.11.19.44.25.19-.44h-.52Zm2.9,5c-.24-.42-.56-.8-.96-1.15l.41-.38c.47.33.82.71,1.04,1.15l-.49.38Z"/>
        <path d="m630.06,260.66c-.24.24-.48.36-.74.36-.29,0-.52-.08-.68-.25-.44-.44-.66-.98-.66-1.64,0-.8.28-1.49.85-2.05.62-.62,1.38-.93,2.27-.93.8,0,1.43.23,1.89.68.51.51.77,1.11.77,1.8,0,.75-.24,1.36-.71,1.83-.31.31-.78.61-1.42.9l-.57-.57c.64-.2,1.14-.48,1.5-.85.35-.35.52-.77.52-1.26,0-.58-.19-1.07-.57-1.45s-.98-.56-1.8-.52l.49.25c.22.09.22.19,0,.3-.31,1.82-.68,2.95-1.12,3.39Zm-.74-3.23c-.47.47-.71,1.06-.71,1.75,0,.42.14.77.41,1.04.05.05.14.08.25.08s.23-.06.36-.19c.42-.42.73-1.54.93-3.36-.47.11-.88.34-1.23.68Z"/>
        <path d="m637.13,257.49v4.27h-.55v-3.5c-.16.33-.35.6-.55.82l-.36-.57c.64-.66,1.07-1.65,1.29-2.98l.6.16c.16.05.15.12-.05.19-.11.51-.25.99-.41,1.45.18.02.19.07.03.16Zm2.79-2.02c.15.02.15.07.03.16v.68h1.94v.52h-1.94v.6h1.56v2.08h-.55v-.22h-1.01c0,.37-.07.72-.22,1.07.46.31,1.22.56,2.3.74l-.19.6c-.97-.13-1.76-.42-2.38-.88-.46.47-1.1.79-1.94.96l-.19-.52c.77-.13,1.34-.38,1.72-.77-.37-.33-.62-.66-.77-.98l.33-.22h-.77v-1.86h1.56v-.6h-1.86v-.52h1.86v-.85h.52Zm-.52,3.39v-.98h-1.01v.98h1.01Zm0,.44h-.68c.15.26.34.5.57.74.07-.22.11-.46.11-.74Zm1.56-.44v-.98h-1.01v.98h1.01Z"/>
        <path d="m649.15,259.43h-1.78v2.08h-.55v-2.08h-1.64c-.04.95-.32,1.7-.85,2.27l-.44-.44c.49-.55.74-1.18.74-1.91v-3.5h5.06v5.22c0,.29-.15.44-.44.44h-.77l-.14-.6h.68c.07,0,.11-.04.11-.11v-1.37Zm-3.96-3.06v1.01h1.64v-1.01h-1.64Zm0,1.53v1.01h1.64v-1.01h-1.64Zm2.19-1.53v1.01h1.78v-1.01h-1.78Zm0,1.53v1.01h1.78v-1.01h-1.78Z"/>
        <path d="m653.1,255.66h.57c.2.04.22.11.05.22l.05,1.31c.02.38.08.69.19.93.51-.22,1.19-.45,2.05-.68l.27.71c-1.73.31-2.89.76-3.47,1.34-.2.2-.3.41-.3.63,0,.16.06.31.19.44.13.13.39.19.79.19h2.62v.6h-2.65c-.6,0-1.02-.12-1.26-.36-.24-.24-.36-.51-.36-.82,0-.4.15-.75.44-1.04.22-.22.58-.47,1.09-.77-.11-.27-.17-.57-.19-.9l-.11-1.8Z"/>
        <path d="m658.45,261.29c-.07-.51-.11-1.1-.11-1.78,0-1.48.11-2.66.33-3.55l.6.11c.13.05.12.12-.03.19-.2.64-.3,1.72-.3,3.25,0,.69.04,1.25.14,1.67l-.63.11Zm4.13-3.66c.04.69.04,1.39,0,2.08.55.2,1.08.48,1.59.85l-.33.52c-.38-.29-.8-.55-1.26-.77,0,.33-.1.59-.3.79-.22.22-.54.33-.96.33s-.74-.11-.96-.33c-.18-.18-.27-.42-.27-.71,0-.25.07-.46.22-.6.22-.22.55-.33.98-.33.24,0,.47.03.71.08.04-.62.04-1.25,0-1.89l-2.02.14v-.57l1.97-.11c-.02-.51-.05-.97-.11-1.37h.57c.2.04.22.11.05.22.02.38.04.76.05,1.12l1.48-.08v.57l-1.42.05Zm-1.29,2.32c-.26,0-.44.05-.55.16-.09.09-.14.18-.14.27,0,.15.04.26.11.33.13.13.32.19.57.19s.44-.06.55-.19c.13-.15.18-.36.16-.63-.31-.09-.55-.14-.71-.14Z"/>
        <path d="m670.21,259.7h2.05v.52h-6.37v-.52h2.02v-.55h-1.39v-.52h1.39v-.63h-.74v.25h-.55v-2.6h4.84v2.54h-.55v-.19h-.71v.63h1.42v.52h-1.42v.55Zm-3.77,2.02l-.33-.52c.89-.16,1.61-.46,2.16-.9l.36.36c.13.13.09.17-.11.14-.55.42-1.24.73-2.08.93Zm.74-5.11h1.59v-.52h-1.59v.52Zm1.59.96v-.52h-1.59v.52h1.59Zm-.3,1.07h1.2v-.63h-1.2v.63Zm0,.52v.55h1.2v-.55h-1.2Zm2.46-3.06h-1.61v.52h1.61v-.52Zm0,.96h-1.61v.52h1.61v-.52Zm1.01,4.59c-1-.24-1.76-.56-2.27-.96l.49-.36c.51.37,1.18.62,2.02.77l-.25.55Z"/>
        <path d="m674.18,257.43l-.08-.57c.46,0,.91-.02,1.37-.05.09-.33.2-.77.33-1.31l.49.16c.18.07.18.15,0,.22l-.25.88c.31-.04.63-.1.96-.19l.14.57c-.51.11-.93.17-1.26.19-.29.93-.72,1.94-1.29,3.04l-.55-.27c.56-1,.97-1.9,1.23-2.71-.29.04-.66.05-1.09.05Zm4.02.6c.2.04.22.11.05.22v1.59c.46.15.93.35,1.42.6l-.33.52c-.4-.24-.77-.41-1.09-.52-.05.38-.17.67-.36.85-.22.22-.52.33-.9.33-.51,0-.87-.1-1.07-.3-.18-.18-.27-.42-.27-.71,0-.24.09-.45.27-.63.24-.24.58-.36,1.04-.36.31,0,.56.03.74.08v-1.67h.49Zm-1.23,2.08c-.29,0-.49.05-.6.16-.09.09-.14.2-.14.33s.04.23.11.3c.11.11.3.16.57.16.25,0,.44-.05.55-.16.16-.16.25-.39.25-.68-.22-.07-.46-.11-.74-.11Zm.93-3.55c.51.16,1.12.38,1.83.66l-.25.57c-.77-.33-1.37-.56-1.8-.68l.22-.55Z"/>
        <path d="m682.33,259.68c-.13,0-.25-.05-.36-.16-.13-.13-.19-.67-.19-1.64,0-.73.04-1.39.11-2h.6c.15.05.15.12,0,.19-.09.44-.14,1.04-.14,1.8s.04,1.18.11,1.18c.05,0,.13-.04.22-.11.13-.11.34-.36.63-.74l.41.41c-.31.38-.59.67-.85.88-.16.13-.35.19-.55.19Zm2.3-3.96h.55c.2.02.22.09.05.22.05.58.08,1.48.08,2.68,0,1.37-.65,2.4-1.94,3.09l-.46-.46c1.22-.58,1.83-1.47,1.83-2.65s-.04-2.2-.11-2.87Z"/>
        <path d="m690.55,259.65c.75.16,1.48.42,2.19.77l-.3.6c-.67-.42-1.3-.7-1.89-.85,0,.47-.12.83-.36,1.07-.22.22-.57.33-1.07.33-.38,0-.69-.12-.93-.36-.16-.16-.25-.39-.25-.68,0-.25.09-.47.27-.66.24-.24.6-.36,1.09-.36.15,0,.37,0,.68.03v-.85l-2.08.05v-.55l2.08-.05v-.96l-2.57.08v-.55l2.57-.08v-1.07h.49c.2.04.22.11.05.22v.79l2.24-.08v.55l-2.24.08v.98l1.78-.05v.55l-1.78.05v.98Zm-1.18.36c-.37,0-.62.07-.77.22-.09.09-.14.21-.14.36,0,.11.04.21.14.3.13.13.33.19.6.19.22,0,.4-.07.55-.22.16-.16.24-.43.22-.79-.2-.04-.4-.05-.6-.05Z"/>
        <path d="m697.03,259.89c-.31,0-.55-.08-.71-.25-.22-.22-.33-.46-.33-.74,0-.29.11-.55.33-.77s.49-.33.82-.33c.22,0,.43.03.63.08v-.6l-3.01.19-.11-.57,3.12-.14v-1.29h.49c.2.04.22.11.05.22v1.04l2.32-.16v.57l-2.32.11v1.04c.07.33.11.69.11,1.09-.02.93-.54,1.71-1.56,2.35l-.52-.38c.91-.53,1.37-1.08,1.37-1.67-.22.13-.45.19-.68.19Zm-.33-1.42c-.11.11-.16.26-.16.44,0,.16.04.29.14.38.09.09.24.14.44.14s.36-.06.49-.19c.11-.11.16-.25.16-.41s-.05-.3-.16-.41c-.09-.09-.23-.14-.41-.14-.2,0-.37.06-.49.19Z"/>
        <path d="m703.47,260.77c0,.27-.09.5-.27.68-.18.18-.41.27-.68.27s-.5-.09-.68-.27-.27-.41-.27-.68.09-.5.27-.68.41-.27.68-.27.5.09.68.27c.18.18.27.41.27.68Zm-.33,0c0-.16-.06-.31-.19-.44-.13-.13-.27-.19-.44-.19s-.31.06-.44.19-.19.27-.19.44.06.31.19.44c.13.13.27.19.44.19s.31-.06.44-.19c.13-.13.19-.27.19-.44Z"/>
      </g>
      <g>
        <g>
          <path d="m545.5,164.74c1.32-.85,2.36-1.86,3.1-3.04h-2.92v-.68h3.29v-1.71h.65c.19.04.21.12.06.25v1.46h2.61v.68h-2.61v3.63c0,.5-.24.75-.71.75h-.87l-.12-.68h.62c.25-.04.37-.18.37-.4v-2.61c-.79,1.16-1.74,2.13-2.86,2.92l-.62-.56Z"/>
          <path d="m553.31,160.92v-.68h4.59l.81.59c-.1,2.5-1.52,4.14-4.25,4.91l-.56-.68c2.59-.6,3.94-1.98,4.07-4.13h-4.66Zm4.94-.65c-.17-.17-.25-.37-.25-.62s.08-.46.25-.62c.17-.17.37-.25.62-.25s.46.08.62.25c.17.17.25.37.25.62s-.08.46-.25.62c-.17.17-.37.25-.62.25s-.46-.08-.62-.25Zm1.02-.22c.1-.1.16-.24.16-.4s-.05-.3-.16-.4c-.1-.1-.24-.16-.4-.16s-.3.05-.4.16-.16.24-.16.4.05.3.16.4c.1.1.24.16.4.16s.3-.05.4-.16Z"/>
          <path d="m562.18,162.29l-.5.65c-.62-.46-1.14-.79-1.55-.99l.47-.65c.52.27,1.04.6,1.58.99Zm-1.37,2.76c2.26-.5,3.95-1.67,5.09-3.51l.56.56c-1.06,1.7-2.69,2.9-4.91,3.6-.06.25-.17.26-.31.03l-.43-.68Zm2.24-4.59l-.43.65c-.56-.39-1.08-.72-1.55-.99l.4-.65c.56.31,1.09.64,1.58.99Z"/>
          <path d="m567.41,165.55v-.59h3.17v-1.3h-2.98v-.59h2.98v-1.24h-3.17v-.59h3.79v4.66h-.62v-.34h-3.17Z"/>
          <path d="m578.5,161.95c-1.1,2.28-2.94,3.48-5.53,3.6-.1.27-.21.29-.31.06l-.25-.81c2.69-.06,4.5-1.17,5.43-3.32l.65.47Zm-5.96-1.27l.53-.65c.43.27.98.71,1.65,1.33l-.59.59c-.56-.52-1.09-.94-1.58-1.27Z"/>
        </g>
        <rect class="cls-1" x="542.76" y="157.61" width="38.47" height="10.14"/>
      </g>
    </g>
  </g>
</svg>