<?xml version="1.0" encoding="UTF-8"?>
<svg id="_レイヤー_2" data-name="レイヤー 2" xmlns="http://www.w3.org/2000/svg" xmlns:xlink="http://www.w3.org/1999/xlink" viewBox="0 0 715.9 178.18">
  <defs>
    <style>
      .cls-1, .cls-2, .cls-3, .cls-4 {
        fill: #fff;
      }

      .cls-5 {
        letter-spacing: -.07em;
      }

      .cls-6 {
        letter-spacing: .03em;
      }

      .cls-7 {
        letter-spacing: -.15em;
      }

      .cls-8 {
        letter-spacing: -.02em;
      }

      .cls-2 {
        font-size: 10.82px;
      }

      .cls-2, .cls-9, .cls-3, .cls-4, .cls-10, .cls-11 {
        font-family: MS-Gothic, 'MS Gothic';
      }

      .cls-12 {
        letter-spacing: .05em;
      }

      .cls-9 {
        fill: #7d7b7d;
        font-size: 11.19px;
      }

      .cls-13 {
        letter-spacing: 0em;
      }

      .cls-14 {
        letter-spacing: .12em;
      }

      .cls-15 {
        letter-spacing: -.09em;
      }

      .cls-16 {
        fill: #16a6cd;
      }

      .cls-17 {
        letter-spacing: -.05em;
      }

      .cls-18 {
        letter-spacing: .03em;
      }

      .cls-19 {
        letter-spacing: -.02em;
      }

      .cls-20 {
        letter-spacing: .07em;
      }

      .cls-21 {
        letter-spacing: -.08em;
      }

      .cls-22 {
        clip-path: url(#clippath);
      }

      .cls-23 {
        fill: none;
      }

      .cls-3 {
        font-size: 12.88px;
      }

      .cls-24 {
        letter-spacing: -.17em;
      }

      .cls-4 {
        font-size: 12.88px;
      }

      .cls-25 {
        letter-spacing: -.15em;
      }

      .cls-26 {
        letter-spacing: .04em;
      }

      .cls-27 {
        letter-spacing: .05em;
      }

      .cls-10 {
        fill: #1892cc;
      }

      .cls-10, .cls-11 {
        font-size: 12.72px;
      }

      .cls-11 {
        fill: #030000;
      }

      .cls-28 {
        letter-spacing: -.05em;
      }
    </style>
    <clipPath id="clippath">
      <rect class="cls-23" width="715.9" height="178.18"/>
    </clipPath>
  </defs>
  <g id="_レイヤー_2-2" data-name="レイヤー 2">
    <g class="cls-22">
      <path d="m225.43,171.33h-1.76l-1.64-4.94h-5.3l-1.6,4.94h-1.7l5.04-15.24h1.92l5.04,15.24Zm-3.74-6.26l-1.5-4.52c-.32-1.04-.58-2-.78-2.9h-.06c-.2.92-.48,1.88-.76,2.84l-1.52,4.58h4.62Z"/>
      <g>
        <text class="cls-10" transform="translate(368.75 132.57)"><tspan x="0" y="0">レ</tspan></text>
        <text class="cls-10" transform="translate(381.93 132.57)"><tspan class="cls-14" x="0" y="0">バ</tspan><tspan x="14.21" y="0">ー</tspan></text>
        <text class="cls-10" transform="translate(410.35 132.57)"><tspan class="cls-20" x="0" y="0">ハ</tspan><tspan class="cls-21" x="13.56" y="0">ン</tspan><tspan class="cls-26" x="25.22" y="0">ド</tspan><tspan x="38.4" y="0">ル</tspan></text>
        <text class="cls-10" transform="translate(368.74 148.02)"><tspan class="cls-27" x="0" y="0">正</tspan><tspan class="cls-12" x="13.34" y="0">面の</tspan><tspan class="cls-27" x="39.98" y="0">位置</tspan><tspan class="cls-12" x="66.65" y="0">で</tspan><tspan x="79.97" y="0">は</tspan></text>
        <text class="cls-10" transform="translate(368.74 163.46)"><tspan x="0" y="0">水が出ます。</tspan></text>
        <path class="cls-16" d="m271.11,28.84c1.41-1.69,4.69-7.33,4.69-15.25l2.03.4c.07.02.27.05.27.14,0,.06-.09.38-.11.47-.55,4.96-2.86,11.72-6.12,14.86l-.76-.63Zm9.89-15.99c.15.25.87,1.41,1.02,1.69,1.43,2.65,2.59,5.49,3.44,8.51l-2.17,1.08c-.47-3.4-1.61-7.57-3.18-10.75l.89-.54Z"/>
        <path class="cls-16" d="m286.32,24.46c4.85-.66,8.08-2.66,10.83-7.76l.71.64c-.46,1.13-1.29,3.11-2.95,5.03-1.43,1.64-3.12,2.9-4.99,3.68-.38.15-2.24.83-2.66,1l-.93-2.58Zm4.42-6.93c-.65-1.04-1.64-2.57-3.77-3.77l.44-.91c1.94.55,3.33,1.34,4.83,2.71l-1.5,1.97Z"/>
        <path class="cls-16" d="m299.56,14.94c0-.25-.02-1.29-.05-2.1l1.85.17c.11.02.31.04.31.15,0,.08-.08.5-.08.59v3.96c1.15.27,3.25.79,5.76,2.77l-1.44,2.03c-.63-.78-1.97-2.47-4.31-3.58v4.57c0,.69.01,2.68.01,3.53h-2.07c.01-1.79.03-2.56.03-3.59v-8.51Zm5.45-.59c.62.55,1.19,1.18,1.69,1.86l-.85.82c-.29-.54-.87-1.43-1.47-2.08l.63-.6Zm2.07,1.56c-.19-.3-.66-1.07-1.36-1.79l.63-.62c.31.25,1.01.84,1.6,1.61l-.87.81Z"/>
        <path class="cls-16" d="m311.66,21.05c0,1.7-.25,3.89-.98,5.29-1.03,1.95-2.54,2.77-3.32,3.18l-.51-.89c2.27-1.73,2.86-4.06,2.86-7.51v-4.34c0-.24-.02-1.85-.03-2.01l1.85.15c.08.02.23.05.23.2,0,.07-.09.35-.1.44v5.51Zm2.21-6.37c0-.27,0-1.43-.04-1.83l1.92.17c.07,0,.24.02.24.12,0,.08-.1.42-.1.5v9.68c2.19-1.18,3.1-2.77,3.71-4.41l.73.62c-.37,1.13-1.39,4.31-4.22,6.28-.18.12-1.09.66-1.3.77l-1.02-1.3c.07-.75.08-1.36.08-2.65v-7.95Z"/>
        <path class="cls-1" d="m258.13,12.03h-.98c-.41,0-.99.01-1.46.04v-.73c.54.03,1.2.03,1.46.03h3.23c.45,0,.96,0,1.47-.03v.73c-.27-.01-.79-.04-1.48-.04h-.95v5.56h1.64c.69,0,1.11-.01,1.4-.03v.73c-.64-.04-1.19-.04-1.39-.04h-4.6c-.53,0-1.14.02-1.38.04v-.73c.54.03,1.11.03,1.37.03h1.67v-5.56Z"/>
        <path class="cls-1" d="m265.32,12.18c-1.04,0-1.53.01-1.96.04v-.88c.5.01,1.1.04,1.96.04h3.46c1.17,0,1.61-.01,2-.04-.01,1.48-.02,2.25-.02,2.85v2.47c0,1.08,0,2.14.01,3.14h-5.66c-.32,0-1.09.01-1.88.04v-.87c.37.01,1.03.04,1.87.04h4.12v-6.84h-3.9Z"/>
        <text class="cls-11" transform="translate(259.52 132.06)"><tspan class="cls-6" x="0" y="0">お</tspan><tspan class="cls-18" x="13.11" y="0">湯が</tspan><tspan class="cls-6" x="39.29" y="0">混</tspan><tspan x="52.4" y="0">合</tspan></text>
        <text class="cls-11" transform="translate(325.05 132.06)"><tspan class="cls-17" x="0" y="0">す</tspan><tspan x="12.09" y="0">る</tspan></text>
        <text class="cls-11" transform="translate(259.52 147.5)"><tspan class="cls-6" x="0" y="0">位</tspan><tspan class="cls-18" x="13.11" y="0">置</tspan><tspan x="26.2" y="0">は</tspan></text>
        <text class="cls-11" transform="translate(298.84 147.5)"><tspan class="cls-25" x="0" y="0">ク</tspan><tspan class="cls-24" x="10.83" y="0">リ</tspan><tspan class="cls-5" x="21.4" y="0">ッ</tspan><tspan class="cls-8" x="33.24" y="0">ク</tspan><tspan x="45.71" y="0">で</tspan></text>
        <text class="cls-11" transform="translate(259.52 162.95)"><tspan class="cls-6" x="0" y="0">お</tspan><tspan class="cls-17" x="13.11" y="0">知</tspan><tspan class="cls-8" x="25.19" y="0">ら</tspan><tspan class="cls-28" x="37.67" y="0">せ</tspan><tspan class="cls-8" x="49.77" y="0">し</tspan><tspan class="cls-18" x="62.24" y="0">ま</tspan><tspan class="cls-5" x="75.33" y="0">す</tspan><tspan x="87.16" y="0">。</tspan></text>
        <text class="cls-2" transform="translate(324.11 97.79)"><tspan class="cls-19" x="0" y="0">混</tspan><tspan class="cls-13" x="10.62" y="0">合</tspan></text>
        <text class="cls-4" transform="translate(312.27 70.63)"><tspan x="0" y="0">湯</tspan></text>
        <text class="cls-3" transform="translate(390.68 114.39)"><tspan x="0" y="0">水</tspan></text>
        <text class="cls-9" transform="translate(354.72 111.41) rotate(-10)"><tspan class="cls-15" x="0" y="0">カ</tspan><tspan class="cls-7" x="10.22" y="0">チ</tspan><tspan x="19.77" y="0">ッ</tspan></text>
      </g>
      <path d="m466.13,161.85c1.44.34,3.14,1.54,3.14,3.84,0,1.36-.52,2.32-1.22,3-1.02,1-2.66,1.44-4.96,1.44-1.26,0-2.2-.1-2.82-.16v-14.98c.84-.18,2.04-.32,3.28-.32,1.88,0,3.12.36,4.02,1.12.72.62,1.14,1.5,1.14,2.64,0,1.5-1.02,2.8-2.58,3.36v.06Zm-2.42-.56c2.02,0,3.32-1.16,3.32-2.72v-.02c0-1.8-1.32-2.58-3.4-2.58-.88,0-1.4.06-1.7.14v5.18h1.78Zm-1.78,7.42c.38.08.92.1,1.62.1,2.1,0,3.98-.82,3.98-3.12s-1.98-3.12-4-3.12h-1.6v6.14Z"/>
      <path d="m707.86,170.87c-.7.34-2.06.68-3.8.68-3.92,0-7.08-2.54-7.08-7.7s3.06-7.98,7.52-7.98c1.82,0,2.88.38,3.36.62l-.44,1.4c-.7-.34-1.68-.62-2.88-.62-3.46,0-5.82,2.32-5.82,6.52s2.16,6.36,5.72,6.36c1.16,0,2.3-.26,3.06-.62l.36,1.34Z"/>
    </g>
  </g>
</svg>