<?xml version="1.0" encoding="UTF-8"?>
<svg id="_レイヤー_2" data-name="レイヤー 2" xmlns="http://www.w3.org/2000/svg" viewBox="0 0 279.51 40.93">
  <defs>
    <style>
      .cls-1 {
        fill: #005fab;
      }

      .cls-2 {
        font-family: ArialMT, Arial;
        font-size: 10.85px;
        letter-spacing: .1em;
      }

      .cls-2, .cls-3, .cls-4 {
        fill: #231815;
      }

      .cls-3 {
        font-family: KozGoPr6N-Bold-90ms-RKSJ-H, 'Kozuka Gothic Pr6N';
        font-size: 17.28px;
        font-weight: 700;
      }
    </style>
  </defs>
  <g id="_レイヤー_2-2" data-name="レイヤー 2">
    <g>
      <g>
        <text class="cls-3" transform="translate(227.67 33.95)"><tspan x="0" y="0">サザナ</tspan></text>
        <text class="cls-2" transform="translate(102.32 9.31)"><tspan x="0" y="0">SYSTEM BATHROOM</tspan></text>
        <g>
          <path class="cls-4" d="m110.85,14.58c-3.05.28-4.62,2.44-4.83,4.45-.27,2.58,1.47,4.11,2.86,5.34l.58.52.44.4c1.36,1.23,3.23,2.92,3.03,4.81-.23,2.19-2.34,2.69-3.55,2.63-2.17-.1-4.17-1.87-4.19-1.89l-1.56,1.73c.11.1,2.63,2.35,5.65,2.48,2.71.12,5.62-1.46,5.96-4.71.32-3.07-2.25-5.39-3.79-6.78l-.42-.38s-.62-.56-.62-.56c-1.39-1.22-2.22-2.06-2.09-3.35.11-1.04.88-2.21,2.73-2.38,2.14-.2,4.09,1.38,4.11,1.39l1.49-1.79c-.11-.09-2.69-2.21-5.81-1.92Z"/>
          <path class="cls-4" d="m197.27,24.49c.47-2.96.86-6.27-.58-8.15-.62-.81-1.49-1.28-2.59-1.4-1.58-.17-3,.26-4.23,1.27-.31.26-.6.55-.86.86l.22-2.08h-2.34l-1.16,11.05c-.04.3-.05.5-.06.57l-.82,7.84h2.34l.87-8.26c.27-2.15,1.2-6.44,3.31-8.18.73-.61,1.55-.85,2.49-.75.59.06.84.3.99.5.95,1.24.38,4.84.13,6.37-.81,5.07-.37,8.54,1.33,10.6l1.76-1.23.13-.12c-1.32-1.45-1.63-4.44-.93-8.88Z"/>
          <path class="cls-4" d="m156.65,16.66c0-.83-.66-1.51-1.49-1.54h-8.12l-.24,2.33h6.86c-1.38,2.14-6.77,10.52-9.41,14.63-.12.22-.2.48-.2.75,0,.82.64,1.49,1.45,1.54h9.56l.24-2.33h-8.27c1.39-2.15,6.83-10.62,9.46-14.7.1-.21.16-.44.16-.68Z"/>
          <path class="cls-4" d="m136.44,33.49l.13-.12c-1.32-1.45-1.63-4.44-.93-8.88l1.26-7.81h0s.01-.07.02-.1c.03-.26-.07-.55-.2-.75l-.06-.07c-.28-.35-1.44-1.44-4.71-.91-2.28.37-6.57,3.13-8.2,11.17-.67,3.27-.37,5.7.86,7.22.9,1.1,2.25,1.68,3.91,1.68.84,0,2.95-.32,4.75-3.21.28,1.22.75,2.22,1.4,3.02l1.76-1.23Zm-3.09-9.36c-1.3,8.23-4.47,8.47-4.83,8.47-.95,0-1.66-.28-2.11-.82-.77-.94-.9-2.76-.39-5.28,1.44-7.06,5.03-9.14,6.29-9.34,1.09-.18,1.76-.11,2.15-.02l-1.13,6.99h0Z"/>
          <path class="cls-4" d="m176.49,33.49l.13-.12c-1.32-1.45-1.63-4.44-.93-8.88l1.26-7.81h0s.01-.07.02-.1c.03-.26-.07-.55-.2-.75l-.06-.07c-.28-.35-1.44-1.44-4.71-.91-2.28.37-6.57,3.13-8.2,11.17-.67,3.27-.37,5.7.86,7.22.9,1.1,2.25,1.68,3.91,1.68.84,0,2.95-.32,4.75-3.21.28,1.22.75,2.22,1.4,3.02l1.76-1.23Zm-3.09-9.36c-1.3,8.23-4.47,8.47-4.83,8.47-.95,0-1.66-.28-2.11-.82-.77-.94-.9-2.76-.39-5.28,1.44-7.06,5.03-9.14,6.29-9.34,1.09-.18,1.76-.11,2.15-.02l-1.13,6.99h0Z"/>
          <path class="cls-4" d="m217.97,33.49l.13-.12c-1.32-1.45-1.63-4.44-.93-8.88l1.26-7.81h0s.01-.07.02-.1c.03-.26-.07-.55-.2-.75l-.06-.07c-.28-.35-1.44-1.44-4.71-.91-2.28.37-6.57,3.13-8.2,11.17-.67,3.27-.37,5.7.86,7.22.9,1.1,2.25,1.68,3.91,1.68.84,0,2.95-.32,4.75-3.21.28,1.22.75,2.22,1.4,3.02l1.76-1.23Zm-3.09-9.36c-1.3,8.23-4.47,8.47-4.83,8.47-.95,0-1.66-.28-2.11-.82-.77-.94-.9-2.76-.39-5.28,1.44-7.06,5.03-9.14,6.29-9.34,1.09-.18,1.76-.11,2.15-.02l-1.13,6.99h0Z"/>
        </g>
      </g>
      <g>
        <path class="cls-1" d="m0,10.75h20.79v6.97h-2.53c0-3.12-.73-4.95-5.42-4.95v13.75s.18.74,1.08.74h2.9v2.19H4.16v-2.19h2.89c.55,0,1.09,0,1.09-.56v-13.92c-1.45,0-5.61-.55-5.61,4.95H0v-6.97Z"/>
        <path class="cls-1" d="m33.61,9.85c-7.58,0-11.19,4.62-11.19,10.32,0,6.7,5.01,10.32,11.19,10.32s11.19-3.62,11.19-10.32c0-5.7-3.23-10.32-11.19-10.32Zm0,18.12c-3.79,0-5.98-3.49-5.98-7.8s1.3-7.8,5.98-7.8,5.98,3.49,5.98,7.8-2.17,7.8-5.98,7.8Z"/>
        <path class="cls-1" d="m46.64,10.75h20.79v6.97h-2.53c0-3.12-.72-4.95-5.43-4.95v13.75s.18.74,1.09.74h2.89v2.19h-12.65v-2.19h2.88c.55,0,1.09,0,1.09-.56v-13.92c-1.45,0-5.6-.55-5.6,4.95h-2.53v-6.97Z"/>
        <path class="cls-1" d="m80.24,9.85c-7.57,0-11.18,4.62-11.18,10.32,0,6.7,5,10.32,11.18,10.32s11.2-3.62,11.2-10.32c0-5.7-3.22-10.32-11.2-10.32Zm0,18.12c-3.78,0-5.98-3.49-5.98-7.8s1.3-7.8,5.98-7.8,5.98,3.49,5.98,7.8-2.17,7.8-5.98,7.8Z"/>
      </g>
    </g>
  </g>
</svg>